%TF.GenerationSoftware,KiCad,Pcbnew,6.0.11+dfsg-1~bpo11+1*%
%TF.CreationDate,2023-04-13T18:10:58+00:00*%
%TF.ProjectId,PINHOLDER03,50494e48-4f4c-4444-9552-30332e6b6963,02A*%
%TF.SameCoordinates,Original*%
%TF.FileFunction,Copper,L2,Bot*%
%TF.FilePolarity,Positive*%
%FSLAX46Y46*%
G04 Gerber Fmt 4.6, Leading zero omitted, Abs format (unit mm)*
G04 Created by KiCad (PCBNEW 6.0.11+dfsg-1~bpo11+1) date 2023-04-13 18:10:58*
%MOMM*%
%LPD*%
G01*
G04 APERTURE LIST*
%ADD10C,0.300000*%
%TA.AperFunction,NonConductor*%
%ADD11C,0.300000*%
%TD*%
%TA.AperFunction,ComponentPad*%
%ADD12C,6.000000*%
%TD*%
%TA.AperFunction,SMDPad,CuDef*%
%ADD13R,2.000000X3.800000*%
%TD*%
%TA.AperFunction,SMDPad,CuDef*%
%ADD14C,0.509900*%
%TD*%
%TA.AperFunction,ComponentPad*%
%ADD15R,1.524000X1.524000*%
%TD*%
%TA.AperFunction,ViaPad*%
%ADD16C,0.800000*%
%TD*%
%TA.AperFunction,Conductor*%
%ADD17C,0.400000*%
%TD*%
G04 APERTURE END LIST*
D10*
D11*
X10214000Y-23622571D02*
X10214000Y-22122571D01*
X9714000Y-23194000D01*
X9214000Y-22122571D01*
X9214000Y-23622571D01*
X7785428Y-23622571D02*
X8499714Y-23622571D01*
X8499714Y-22122571D01*
X7356857Y-23194000D02*
X6642571Y-23194000D01*
X7499714Y-23622571D02*
X6999714Y-22122571D01*
X6499714Y-23622571D01*
X5499714Y-22836857D02*
X5285428Y-22908285D01*
X5214000Y-22979714D01*
X5142571Y-23122571D01*
X5142571Y-23336857D01*
X5214000Y-23479714D01*
X5285428Y-23551142D01*
X5428285Y-23622571D01*
X5999714Y-23622571D01*
X5999714Y-22122571D01*
X5499714Y-22122571D01*
X5356857Y-22194000D01*
X5285428Y-22265428D01*
X5214000Y-22408285D01*
X5214000Y-22551142D01*
X5285428Y-22694000D01*
X5356857Y-22765428D01*
X5499714Y-22836857D01*
X5999714Y-22836857D01*
D12*
%TO.P,M3,1*%
%TO.N,GND*%
X0Y0D03*
%TD*%
%TO.P,M2,1*%
%TO.N,GND*%
X40640000Y0D03*
%TD*%
%TO.P,M4,1*%
%TO.N,GND*%
X0Y-20320000D03*
%TD*%
%TO.P,M1,1*%
%TO.N,GND*%
X40640000Y-20320000D03*
%TD*%
D13*
%TO.P,TP4,1,1*%
%TO.N,Net-(D1-Pad2)*%
X5290000Y-5820000D03*
%TD*%
D14*
%TO.P,TP1,1,1*%
%TO.N,/circle_0*%
X18290000Y-8170000D03*
%TD*%
D15*
%TO.P,J2,1*%
%TO.N,GND*%
X-810000Y-5950000D03*
%TO.P,J2,2*%
%TO.N,Net-(D1-Pad2)*%
X-810000Y-8490000D03*
%TD*%
D13*
%TO.P,TP2,1,1*%
%TO.N,Net-(D2-Pad2)*%
X5240000Y-14520000D03*
%TD*%
D16*
%TO.N,/circle_0*%
X18290000Y-8170000D03*
%TO.N,Net-(D2-Pad2)*%
X5540000Y-16120000D03*
%TD*%
D17*
%TO.N,Net-(D1-Pad2)*%
X5290000Y-6719600D02*
X3519600Y-8490000D01*
X5290000Y-5820000D02*
X5290000Y-6719600D01*
X3519600Y-8490000D02*
X-810000Y-8490000D01*
%TD*%
%TA.AperFunction,Conductor*%
%TO.N,/circle_0*%
G36*
X22706121Y-7664002D02*
G01*
X22752614Y-7717658D01*
X22764000Y-7770000D01*
X22764000Y-12518000D01*
X22743998Y-12586121D01*
X22690342Y-12632614D01*
X22638000Y-12644000D01*
X17890000Y-12644000D01*
X17821879Y-12623998D01*
X17775386Y-12570342D01*
X17764000Y-12518000D01*
X17764000Y-7770000D01*
X17784002Y-7701879D01*
X17837658Y-7655386D01*
X17890000Y-7644000D01*
X22638000Y-7644000D01*
X22706121Y-7664002D01*
G37*
%TD.AperFunction*%
%TD*%
M02*
