%TF.GenerationSoftware,KiCad,Pcbnew,6.0.11+dfsg-1~bpo11+1*%
%TF.CreationDate,2023-04-13T11:16:25+00:00*%
%TF.ProjectId,PINHOLDER03,50494e48-4f4c-4444-9552-30332e6b6963,02A*%
%TF.SameCoordinates,Original*%
%TF.FileFunction,Legend,Bot*%
%TF.FilePolarity,Positive*%
%FSLAX46Y46*%
G04 Gerber Fmt 4.6, Leading zero omitted, Abs format (unit mm)*
G04 Created by KiCad (PCBNEW 6.0.11+dfsg-1~bpo11+1) date 2023-04-13 11:16:25*
%MOMM*%
%LPD*%
G01*
G04 APERTURE LIST*
%ADD10C,0.300000*%
%ADD11C,0.250000*%
%ADD12C,0.150000*%
%ADD13R,1.524000X1.524000*%
G04 APERTURE END LIST*
D10*
X35187590Y850453D02*
X35187590Y2550453D01*
X34539971Y2550453D01*
X34378066Y2469500D01*
X34297114Y2388548D01*
X34216161Y2226643D01*
X34216161Y1983786D01*
X34297114Y1821881D01*
X34378066Y1740929D01*
X34539971Y1659977D01*
X35187590Y1659977D01*
X33487590Y850453D02*
X33487590Y2550453D01*
X32678066Y850453D02*
X32678066Y2550453D01*
X31706638Y850453D01*
X31706638Y2550453D01*
X30897114Y850453D02*
X30897114Y2550453D01*
X30897114Y1740929D02*
X29925685Y1740929D01*
X29925685Y850453D02*
X29925685Y2550453D01*
X28792352Y2550453D02*
X28468542Y2550453D01*
X28306638Y2469500D01*
X28144733Y2307596D01*
X28063780Y1983786D01*
X28063780Y1417120D01*
X28144733Y1093310D01*
X28306638Y931405D01*
X28468542Y850453D01*
X28792352Y850453D01*
X28954257Y931405D01*
X29116161Y1093310D01*
X29197114Y1417120D01*
X29197114Y1983786D01*
X29116161Y2307596D01*
X28954257Y2469500D01*
X28792352Y2550453D01*
X26525685Y850453D02*
X27335209Y850453D01*
X27335209Y2550453D01*
X25959019Y850453D02*
X25959019Y2550453D01*
X25554257Y2550453D01*
X25311400Y2469500D01*
X25149495Y2307596D01*
X25068542Y2145691D01*
X24987590Y1821881D01*
X24987590Y1579024D01*
X25068542Y1255215D01*
X25149495Y1093310D01*
X25311400Y931405D01*
X25554257Y850453D01*
X25959019Y850453D01*
X24259019Y1740929D02*
X23692352Y1740929D01*
X23449495Y850453D02*
X24259019Y850453D01*
X24259019Y2550453D01*
X23449495Y2550453D01*
X21749495Y850453D02*
X22316161Y1659977D01*
X22720923Y850453D02*
X22720923Y2550453D01*
X22073304Y2550453D01*
X21911400Y2469500D01*
X21830447Y2388548D01*
X21749495Y2226643D01*
X21749495Y1983786D01*
X21830447Y1821881D01*
X21911400Y1740929D01*
X22073304Y1659977D01*
X22720923Y1659977D01*
X20697114Y2550453D02*
X20535209Y2550453D01*
X20373304Y2469500D01*
X20292352Y2388548D01*
X20211400Y2226643D01*
X20130447Y1902834D01*
X20130447Y1498072D01*
X20211400Y1174262D01*
X20292352Y1012358D01*
X20373304Y931405D01*
X20535209Y850453D01*
X20697114Y850453D01*
X20859019Y931405D01*
X20939971Y1012358D01*
X21020923Y1174262D01*
X21101876Y1498072D01*
X21101876Y1902834D01*
X21020923Y2226643D01*
X20939971Y2388548D01*
X20859019Y2469500D01*
X20697114Y2550453D01*
X19563780Y2550453D02*
X18511400Y2550453D01*
X19078066Y1902834D01*
X18835209Y1902834D01*
X18673304Y1821881D01*
X18592352Y1740929D01*
X18511400Y1579024D01*
X18511400Y1174262D01*
X18592352Y1012358D01*
X18673304Y931405D01*
X18835209Y850453D01*
X19320923Y850453D01*
X19482828Y931405D01*
X19563780Y1012358D01*
X17863780Y1336167D02*
X17054257Y1336167D01*
X18025685Y850453D02*
X17459019Y2550453D01*
X16892352Y850453D01*
X2090000Y-14927142D02*
X2090000Y-14212857D01*
X1661428Y-15070000D02*
X3161428Y-14570000D01*
X1661428Y-14070000D01*
D11*
X-3562381Y-10048571D02*
X-2562381Y-10048571D01*
X-3276667Y-9715238D01*
X-2562381Y-9381904D01*
X-3562381Y-9381904D01*
X-3562381Y-8905714D02*
X-2895715Y-8905714D01*
X-2562381Y-8905714D02*
X-2610000Y-8953333D01*
X-2657620Y-8905714D01*
X-2610000Y-8858095D01*
X-2562381Y-8905714D01*
X-2657620Y-8905714D01*
X-3562381Y-8000952D02*
X-2562381Y-8000952D01*
X-3514762Y-8000952D02*
X-3562381Y-8096190D01*
X-3562381Y-8286666D01*
X-3514762Y-8381904D01*
X-3467143Y-8429523D01*
X-3371905Y-8477142D01*
X-3086191Y-8477142D01*
X-2990953Y-8429523D01*
X-2943334Y-8381904D01*
X-2895715Y-8286666D01*
X-2895715Y-8096190D01*
X-2943334Y-8000952D01*
X-2610000Y-6239047D02*
X-2562381Y-6334285D01*
X-2562381Y-6477142D01*
X-2610000Y-6620000D01*
X-2705239Y-6715238D01*
X-2800477Y-6762857D01*
X-2990953Y-6810476D01*
X-3133810Y-6810476D01*
X-3324286Y-6762857D01*
X-3419524Y-6715238D01*
X-3514762Y-6620000D01*
X-3562381Y-6477142D01*
X-3562381Y-6381904D01*
X-3514762Y-6239047D01*
X-3467143Y-6191428D01*
X-3133810Y-6191428D01*
X-3133810Y-6381904D01*
X-3562381Y-5762857D02*
X-2562381Y-5762857D01*
X-3562381Y-5191428D01*
X-2562381Y-5191428D01*
X-3562381Y-4715238D02*
X-2562381Y-4715238D01*
X-2562381Y-4477142D01*
X-2610000Y-4334285D01*
X-2705239Y-4239047D01*
X-2800477Y-4191428D01*
X-2990953Y-4143809D01*
X-3133810Y-4143809D01*
X-3324286Y-4191428D01*
X-3419524Y-4239047D01*
X-3514762Y-4334285D01*
X-3562381Y-4477142D01*
X-3562381Y-4715238D01*
D10*
X14521142Y908929D02*
X14521142Y2408929D01*
X14021142Y1337500D01*
X13521142Y2408929D01*
X13521142Y908929D01*
X12092571Y908929D02*
X12806857Y908929D01*
X12806857Y2408929D01*
X11664000Y1337500D02*
X10949714Y1337500D01*
X11806857Y908929D02*
X11306857Y2408929D01*
X10806857Y908929D01*
X9806857Y1694643D02*
X9592571Y1623215D01*
X9521142Y1551786D01*
X9449714Y1408929D01*
X9449714Y1194643D01*
X9521142Y1051786D01*
X9592571Y980358D01*
X9735428Y908929D01*
X10306857Y908929D01*
X10306857Y2408929D01*
X9806857Y2408929D01*
X9664000Y2337500D01*
X9592571Y2266072D01*
X9521142Y2123215D01*
X9521142Y1980358D01*
X9592571Y1837500D01*
X9664000Y1766072D01*
X9806857Y1694643D01*
X10306857Y1694643D01*
X8806857Y1051786D02*
X8735428Y980358D01*
X8806857Y908929D01*
X8878285Y980358D01*
X8806857Y1051786D01*
X8806857Y908929D01*
X7449714Y980358D02*
X7592571Y908929D01*
X7878285Y908929D01*
X8021142Y980358D01*
X8092571Y1051786D01*
X8164000Y1194643D01*
X8164000Y1623215D01*
X8092571Y1766072D01*
X8021142Y1837500D01*
X7878285Y1908929D01*
X7592571Y1908929D01*
X7449714Y1837500D01*
X6949714Y1908929D02*
X6164000Y1908929D01*
X6949714Y908929D01*
X6164000Y908929D01*
X1911428Y-7355714D02*
X3411428Y-7355714D01*
X2340000Y-6855714D01*
X3411428Y-6355714D01*
X1911428Y-6355714D01*
X1911428Y-5641428D02*
X2911428Y-5641428D01*
X3411428Y-5641428D02*
X3340000Y-5712857D01*
X3268571Y-5641428D01*
X3340000Y-5570000D01*
X3411428Y-5641428D01*
X3268571Y-5641428D01*
X1911428Y-4284285D02*
X3411428Y-4284285D01*
X1982857Y-4284285D02*
X1911428Y-4427142D01*
X1911428Y-4712857D01*
X1982857Y-4855714D01*
X2054285Y-4927142D01*
X2197142Y-4998571D01*
X2625714Y-4998571D01*
X2768571Y-4927142D01*
X2840000Y-4855714D01*
X2911428Y-4712857D01*
X2911428Y-4427142D01*
X2840000Y-4284285D01*
D12*
%TO.C,TP4*%
X4090000Y-3720000D02*
X4090000Y-7920000D01*
X4090000Y-7920000D02*
X6490000Y-7920000D01*
X6490000Y-7920000D02*
X6490000Y-3720000D01*
X6490000Y-3720000D02*
X4090000Y-3720000D01*
%TO.C,J2*%
X-2080000Y-9760000D02*
X460000Y-9760000D01*
X460000Y-9760000D02*
X460000Y-4680000D01*
X460000Y-4680000D02*
X-2080000Y-4680000D01*
X-2080000Y-4680000D02*
X-2080000Y-9760000D01*
%TO.C,TP2*%
X6440000Y-16620000D02*
X6440000Y-12420000D01*
X4040000Y-16620000D02*
X6440000Y-16620000D01*
X6440000Y-12420000D02*
X4040000Y-12420000D01*
X4040000Y-12420000D02*
X4040000Y-16620000D01*
%TD*%
D13*
%TO.C,J2*%
X-810000Y-5950000D03*
X-810000Y-8490000D03*
%TD*%
M02*
