%TF.GenerationSoftware,KiCad,Pcbnew,6.0.11+dfsg-1~bpo11+1*%
%TF.CreationDate,2023-04-12T09:04:15+00:00*%
%TF.ProjectId,PINHOLDER01,50494e48-4f4c-4444-9552-30312e6b6963,01A*%
%TF.SameCoordinates,Original*%
%TF.FileFunction,Copper,L2,Bot*%
%TF.FilePolarity,Positive*%
%FSLAX46Y46*%
G04 Gerber Fmt 4.6, Leading zero omitted, Abs format (unit mm)*
G04 Created by KiCad (PCBNEW 6.0.11+dfsg-1~bpo11+1) date 2023-04-12 09:04:15*
%MOMM*%
%LPD*%
G01*
G04 APERTURE LIST*
%ADD10C,0.300000*%
%TA.AperFunction,NonConductor*%
%ADD11C,0.300000*%
%TD*%
%TA.AperFunction,ComponentPad*%
%ADD12C,6.000000*%
%TD*%
%TA.AperFunction,SMDPad,CuDef*%
%ADD13R,1.000000X2.510000*%
%TD*%
%TA.AperFunction,ViaPad*%
%ADD14C,0.800000*%
%TD*%
%TA.AperFunction,Conductor*%
%ADD15C,0.400000*%
%TD*%
G04 APERTURE END LIST*
D10*
D11*
X129200000Y-114028571D02*
X129200000Y-112528571D01*
X128700000Y-113600000D01*
X128200000Y-112528571D01*
X128200000Y-114028571D01*
X126771428Y-114028571D02*
X127485714Y-114028571D01*
X127485714Y-112528571D01*
X126342857Y-113600000D02*
X125628571Y-113600000D01*
X126485714Y-114028571D02*
X125985714Y-112528571D01*
X125485714Y-114028571D01*
X124485714Y-113242857D02*
X124271428Y-113314285D01*
X124200000Y-113385714D01*
X124128571Y-113528571D01*
X124128571Y-113742857D01*
X124200000Y-113885714D01*
X124271428Y-113957142D01*
X124414285Y-114028571D01*
X124985714Y-114028571D01*
X124985714Y-112528571D01*
X124485714Y-112528571D01*
X124342857Y-112600000D01*
X124271428Y-112671428D01*
X124200000Y-112814285D01*
X124200000Y-112957142D01*
X124271428Y-113100000D01*
X124342857Y-113171428D01*
X124485714Y-113242857D01*
X124985714Y-113242857D01*
D12*
%TO.P,M3,1*%
%TO.N,GND*%
X114175179Y-70341146D03*
%TD*%
%TO.P,M4,1*%
%TO.N,GND*%
X114175179Y-110981146D03*
%TD*%
D13*
%TO.P,J1,1*%
%TO.N,Net-(J1-Pad1)*%
X124540000Y-83525000D03*
%TO.P,J1,2*%
%TO.N,GND*%
X122000000Y-80215000D03*
%TO.P,J1,3*%
%TO.N,/circle_0*%
X119460000Y-83525000D03*
%TD*%
D14*
%TO.N,/circle_0*%
X119700000Y-88800000D03*
%TO.N,Net-(J1-Pad1)*%
X124480000Y-76520000D03*
%TD*%
D15*
%TO.N,/circle_0*%
X119700000Y-88800000D02*
X119460000Y-88560000D01*
X119460000Y-88560000D02*
X119460000Y-83525000D01*
%TO.N,Net-(J1-Pad1)*%
X124540000Y-76580000D02*
X124480000Y-76520000D01*
X124540000Y-83525000D02*
X124540000Y-76580000D01*
%TD*%
%TA.AperFunction,Conductor*%
%TO.N,GND*%
G36*
X135726809Y-65930306D02*
G01*
X135796061Y-65985511D01*
X135834502Y-66065296D01*
X135839500Y-66109615D01*
X135839500Y-115210436D01*
X135819793Y-115296779D01*
X135764574Y-115366020D01*
X135684782Y-115404447D01*
X135640480Y-115409436D01*
X130303594Y-115408870D01*
X130217254Y-115389154D01*
X130148018Y-115333928D01*
X130109601Y-115254131D01*
X130105867Y-115187593D01*
X130106384Y-115183000D01*
X130107643Y-115183000D01*
X130107643Y-111517000D01*
X123292357Y-111517000D01*
X123292357Y-115183000D01*
X123293326Y-115183000D01*
X123293325Y-115253389D01*
X123254898Y-115333181D01*
X123185656Y-115388399D01*
X123099294Y-115408105D01*
X109948658Y-115406710D01*
X109862317Y-115386994D01*
X109793081Y-115331768D01*
X109754664Y-115251971D01*
X109749679Y-115207710D01*
X109749679Y-82238481D01*
X118559500Y-82238481D01*
X118559501Y-84811518D01*
X118560723Y-84819231D01*
X118560723Y-84819237D01*
X118571903Y-84889831D01*
X118571904Y-84889834D01*
X118574354Y-84905304D01*
X118631950Y-85018342D01*
X118721658Y-85108050D01*
X118735612Y-85115160D01*
X118750844Y-85122921D01*
X118818829Y-85179679D01*
X118855455Y-85260314D01*
X118859500Y-85300231D01*
X118859500Y-88507592D01*
X118857797Y-88533567D01*
X118856020Y-88547065D01*
X118856020Y-88547072D01*
X118854318Y-88560000D01*
X118856020Y-88572928D01*
X118859500Y-88599361D01*
X118861035Y-88611017D01*
X118874956Y-88716762D01*
X118879945Y-88728807D01*
X118879946Y-88728810D01*
X118880349Y-88729782D01*
X118880706Y-88731646D01*
X118883322Y-88741407D01*
X118882614Y-88741597D01*
X118891708Y-88789028D01*
X118894514Y-88788753D01*
X118897210Y-88816244D01*
X118912039Y-88967486D01*
X118968726Y-89137896D01*
X119061759Y-89291512D01*
X119186514Y-89420699D01*
X119336789Y-89519036D01*
X119347214Y-89522913D01*
X119494685Y-89577757D01*
X119494687Y-89577757D01*
X119505116Y-89581636D01*
X119516143Y-89583107D01*
X119516146Y-89583108D01*
X119634486Y-89598898D01*
X119683130Y-89605388D01*
X119694207Y-89604380D01*
X119850896Y-89590121D01*
X119850898Y-89590121D01*
X119861981Y-89589112D01*
X119947382Y-89561363D01*
X120022196Y-89537055D01*
X120022199Y-89537054D01*
X120032782Y-89533615D01*
X120057239Y-89519036D01*
X120177489Y-89447353D01*
X120177490Y-89447352D01*
X120187044Y-89441657D01*
X120317099Y-89317807D01*
X120334570Y-89291512D01*
X120410325Y-89177490D01*
X120416483Y-89168222D01*
X120480257Y-89000336D01*
X120505251Y-88822493D01*
X120505565Y-88800000D01*
X120504334Y-88789028D01*
X120486787Y-88632588D01*
X120486786Y-88632584D01*
X120485546Y-88621528D01*
X120459616Y-88547065D01*
X120430145Y-88462437D01*
X120426485Y-88451927D01*
X120331316Y-88299625D01*
X120204770Y-88172193D01*
X120152870Y-88139256D01*
X120090528Y-88076352D01*
X120061653Y-87992628D01*
X120060500Y-87971235D01*
X120060500Y-85300231D01*
X120080207Y-85213888D01*
X120135426Y-85144647D01*
X120169156Y-85122921D01*
X120184388Y-85115160D01*
X120198342Y-85108050D01*
X120288050Y-85018342D01*
X120345646Y-84905304D01*
X120360500Y-84811519D01*
X120360499Y-82238482D01*
X120360499Y-82238481D01*
X123639500Y-82238481D01*
X123639501Y-84811518D01*
X123640723Y-84819231D01*
X123640723Y-84819237D01*
X123651903Y-84889831D01*
X123651904Y-84889834D01*
X123654354Y-84905304D01*
X123711950Y-85018342D01*
X123801658Y-85108050D01*
X123914696Y-85165646D01*
X124008481Y-85180500D01*
X124016305Y-85180500D01*
X124540373Y-85180499D01*
X125071518Y-85180499D01*
X125079231Y-85179277D01*
X125079237Y-85179277D01*
X125149831Y-85168097D01*
X125149834Y-85168096D01*
X125165304Y-85165646D01*
X125179260Y-85158535D01*
X125179263Y-85158534D01*
X125264388Y-85115160D01*
X125278342Y-85108050D01*
X125368050Y-85018342D01*
X125425646Y-84905304D01*
X125440500Y-84811519D01*
X125440499Y-82238482D01*
X125439275Y-82230753D01*
X125428097Y-82160169D01*
X125428096Y-82160166D01*
X125425646Y-82144696D01*
X125368050Y-82031658D01*
X125278342Y-81941950D01*
X125249156Y-81927079D01*
X125181171Y-81870321D01*
X125144545Y-81789686D01*
X125140500Y-81749769D01*
X125140500Y-77032564D01*
X125160207Y-76946221D01*
X125173744Y-76922447D01*
X125196483Y-76888222D01*
X125260257Y-76720336D01*
X125285251Y-76542493D01*
X125285565Y-76520000D01*
X125284869Y-76513794D01*
X125266787Y-76352588D01*
X125266786Y-76352584D01*
X125265546Y-76341528D01*
X125258094Y-76320127D01*
X125210145Y-76182437D01*
X125206485Y-76171927D01*
X125111316Y-76019625D01*
X124984770Y-75892193D01*
X124833136Y-75795963D01*
X124744109Y-75764262D01*
X124674436Y-75739452D01*
X124674432Y-75739451D01*
X124663951Y-75735719D01*
X124652904Y-75734402D01*
X124652901Y-75734401D01*
X124496671Y-75715772D01*
X124496669Y-75715772D01*
X124485624Y-75714455D01*
X124307017Y-75733227D01*
X124296482Y-75736813D01*
X124296479Y-75736814D01*
X124218035Y-75763519D01*
X124137007Y-75791103D01*
X124042651Y-75849151D01*
X123993521Y-75879376D01*
X123993519Y-75879377D01*
X123984045Y-75885206D01*
X123855732Y-76010859D01*
X123758446Y-76161817D01*
X123697022Y-76330578D01*
X123695628Y-76341611D01*
X123695628Y-76341612D01*
X123688850Y-76395269D01*
X123674514Y-76508753D01*
X123675600Y-76519829D01*
X123675600Y-76519830D01*
X123677210Y-76536244D01*
X123692039Y-76687486D01*
X123748726Y-76857896D01*
X123841759Y-77011512D01*
X123849484Y-77019511D01*
X123883648Y-77054889D01*
X123929451Y-77130689D01*
X123939500Y-77193127D01*
X123939500Y-81749769D01*
X123919793Y-81836112D01*
X123864574Y-81905353D01*
X123830845Y-81927079D01*
X123801658Y-81941950D01*
X123711950Y-82031658D01*
X123654354Y-82144696D01*
X123639500Y-82238481D01*
X120360499Y-82238481D01*
X120359275Y-82230753D01*
X120348097Y-82160169D01*
X120348096Y-82160166D01*
X120345646Y-82144696D01*
X120288050Y-82031658D01*
X120198342Y-81941950D01*
X120085304Y-81884354D01*
X119991519Y-81869500D01*
X119983695Y-81869500D01*
X119459627Y-81869501D01*
X118928482Y-81869501D01*
X118920769Y-81870723D01*
X118920763Y-81870723D01*
X118850169Y-81881903D01*
X118850166Y-81881904D01*
X118834696Y-81884354D01*
X118820740Y-81891465D01*
X118820737Y-81891466D01*
X118793483Y-81905353D01*
X118721658Y-81941950D01*
X118631950Y-82031658D01*
X118574354Y-82144696D01*
X118559500Y-82238481D01*
X109749679Y-82238481D01*
X109749679Y-81505176D01*
X120970000Y-81505176D01*
X120970720Y-81517130D01*
X120978925Y-81584924D01*
X120985165Y-81609494D01*
X121028922Y-81720015D01*
X121042115Y-81743429D01*
X121113510Y-81837487D01*
X121132513Y-81856490D01*
X121226571Y-81927885D01*
X121249985Y-81941078D01*
X121360506Y-81984835D01*
X121385076Y-81991075D01*
X121452870Y-81999280D01*
X121464824Y-82000000D01*
X121723577Y-82000000D01*
X121742547Y-81995670D01*
X121746000Y-81988500D01*
X121746000Y-81977577D01*
X122254000Y-81977577D01*
X122258330Y-81996547D01*
X122265500Y-82000000D01*
X122535176Y-82000000D01*
X122547130Y-81999280D01*
X122614924Y-81991075D01*
X122639494Y-81984835D01*
X122750015Y-81941078D01*
X122773429Y-81927885D01*
X122867487Y-81856490D01*
X122886490Y-81837487D01*
X122957885Y-81743429D01*
X122971078Y-81720015D01*
X123014835Y-81609494D01*
X123021075Y-81584924D01*
X123029280Y-81517130D01*
X123030000Y-81505176D01*
X123030000Y-80491423D01*
X123025670Y-80472453D01*
X123018500Y-80469000D01*
X122276423Y-80469000D01*
X122257453Y-80473330D01*
X122254000Y-80480500D01*
X122254000Y-81977577D01*
X121746000Y-81977577D01*
X121746000Y-80491423D01*
X121741670Y-80472453D01*
X121734500Y-80469000D01*
X120992423Y-80469000D01*
X120973453Y-80473330D01*
X120970000Y-80480500D01*
X120970000Y-81505176D01*
X109749679Y-81505176D01*
X109749679Y-79938577D01*
X120970000Y-79938577D01*
X120974330Y-79957547D01*
X120981500Y-79961000D01*
X121723577Y-79961000D01*
X121742547Y-79956670D01*
X121746000Y-79949500D01*
X121746000Y-79938577D01*
X122254000Y-79938577D01*
X122258330Y-79957547D01*
X122265500Y-79961000D01*
X123007577Y-79961000D01*
X123026547Y-79956670D01*
X123030000Y-79949500D01*
X123030000Y-78924824D01*
X123029280Y-78912870D01*
X123021075Y-78845076D01*
X123014835Y-78820506D01*
X122971078Y-78709985D01*
X122957885Y-78686571D01*
X122886490Y-78592513D01*
X122867487Y-78573510D01*
X122773429Y-78502115D01*
X122750015Y-78488922D01*
X122639494Y-78445165D01*
X122614924Y-78438925D01*
X122547130Y-78430720D01*
X122535176Y-78430000D01*
X122276423Y-78430000D01*
X122257453Y-78434330D01*
X122254000Y-78441500D01*
X122254000Y-79938577D01*
X121746000Y-79938577D01*
X121746000Y-78452423D01*
X121741670Y-78433453D01*
X121734500Y-78430000D01*
X121464824Y-78430000D01*
X121452870Y-78430720D01*
X121385076Y-78438925D01*
X121360506Y-78445165D01*
X121249985Y-78488922D01*
X121226571Y-78502115D01*
X121132513Y-78573510D01*
X121113510Y-78592513D01*
X121042115Y-78686571D01*
X121028922Y-78709985D01*
X120985165Y-78820506D01*
X120978925Y-78845076D01*
X120970720Y-78912870D01*
X120970000Y-78924824D01*
X120970000Y-79938577D01*
X109749679Y-79938577D01*
X109749679Y-66114531D01*
X109769386Y-66028188D01*
X109824605Y-65958947D01*
X109904397Y-65920520D01*
X109948641Y-65915531D01*
X121572968Y-65913307D01*
X135640462Y-65910615D01*
X135726809Y-65930306D01*
G37*
%TD.AperFunction*%
%TD*%
M02*
