%TF.GenerationSoftware,KiCad,Pcbnew,6.0.11+dfsg-1~bpo11+1*%
%TF.CreationDate,2023-04-12T09:04:15+00:00*%
%TF.ProjectId,PINHOLDER01,50494e48-4f4c-4444-9552-30312e6b6963,01A*%
%TF.SameCoordinates,Original*%
%TF.FileFunction,Copper,L1,Top*%
%TF.FilePolarity,Positive*%
%FSLAX46Y46*%
G04 Gerber Fmt 4.6, Leading zero omitted, Abs format (unit mm)*
G04 Created by KiCad (PCBNEW 6.0.11+dfsg-1~bpo11+1) date 2023-04-12 09:04:15*
%MOMM*%
%LPD*%
G01*
G04 APERTURE LIST*
%ADD10C,0.300000*%
%TA.AperFunction,NonConductor*%
%ADD11C,0.300000*%
%TD*%
%TA.AperFunction,ComponentPad*%
%ADD12C,6.000000*%
%TD*%
%TA.AperFunction,SMDPad,CuDef*%
%ADD13C,0.509900*%
%TD*%
%TA.AperFunction,SMDPad,CuDef*%
%ADD14R,3.800000X2.000000*%
%TD*%
%TA.AperFunction,ViaPad*%
%ADD15C,0.800000*%
%TD*%
%TA.AperFunction,Conductor*%
%ADD16C,0.400000*%
%TD*%
G04 APERTURE END LIST*
D10*
D11*
X124170347Y-114006316D02*
X124170347Y-112506316D01*
X124670347Y-113577745D01*
X125170347Y-112506316D01*
X125170347Y-114006316D01*
X126598918Y-114006316D02*
X125884632Y-114006316D01*
X125884632Y-112506316D01*
X127027489Y-113577745D02*
X127741775Y-113577745D01*
X126884632Y-114006316D02*
X127384632Y-112506316D01*
X127884632Y-114006316D01*
X128884632Y-113220602D02*
X129098918Y-113292030D01*
X129170347Y-113363459D01*
X129241775Y-113506316D01*
X129241775Y-113720602D01*
X129170347Y-113863459D01*
X129098918Y-113934887D01*
X128956061Y-114006316D01*
X128384632Y-114006316D01*
X128384632Y-112506316D01*
X128884632Y-112506316D01*
X129027489Y-112577745D01*
X129098918Y-112649173D01*
X129170347Y-112792030D01*
X129170347Y-112934887D01*
X129098918Y-113077745D01*
X129027489Y-113149173D01*
X128884632Y-113220602D01*
X128384632Y-113220602D01*
D12*
%TO.P,M3,1*%
%TO.N,GND*%
X114175179Y-70341146D03*
%TD*%
%TO.P,M4,1*%
%TO.N,GND*%
X114175179Y-110981146D03*
%TD*%
D13*
%TO.P,TP1,1,1*%
%TO.N,/circle_0*%
X120750000Y-90750000D03*
%TD*%
D14*
%TO.P,TP2,1,1*%
%TO.N,Net-(J1-Pad1)*%
X122000000Y-76150000D03*
%TD*%
D15*
%TO.N,/circle_0*%
X119700000Y-88800000D03*
%TO.N,Net-(J1-Pad1)*%
X124480000Y-76520000D03*
%TD*%
D16*
%TO.N,Net-(J1-Pad1)*%
X124480000Y-76520000D02*
X124110000Y-76150000D01*
X124110000Y-76150000D02*
X122000000Y-76150000D01*
%TD*%
%TA.AperFunction,Conductor*%
%TO.N,/circle_0*%
G36*
X124192121Y-88270002D02*
G01*
X124238614Y-88323658D01*
X124250000Y-88376000D01*
X124250000Y-93124000D01*
X124229998Y-93192121D01*
X124176342Y-93238614D01*
X124124000Y-93250000D01*
X119376000Y-93250000D01*
X119307879Y-93229998D01*
X119261386Y-93176342D01*
X119250000Y-93124000D01*
X119250000Y-88376000D01*
X119270002Y-88307879D01*
X119323658Y-88261386D01*
X119376000Y-88250000D01*
X124124000Y-88250000D01*
X124192121Y-88270002D01*
G37*
%TD.AperFunction*%
%TD*%
M02*
