%TF.GenerationSoftware,KiCad,Pcbnew,6.0.11+dfsg-1~bpo11+1*%
%TF.CreationDate,2023-04-12T09:04:15+00:00*%
%TF.ProjectId,PINHOLDER01,50494e48-4f4c-4444-9552-30312e6b6963,01A*%
%TF.SameCoordinates,Original*%
%TF.FileFunction,Legend,Top*%
%TF.FilePolarity,Positive*%
%FSLAX46Y46*%
G04 Gerber Fmt 4.6, Leading zero omitted, Abs format (unit mm)*
G04 Created by KiCad (PCBNEW 6.0.11+dfsg-1~bpo11+1) date 2023-04-12 09:04:15*
%MOMM*%
%LPD*%
G01*
G04 APERTURE LIST*
%ADD10C,0.300000*%
%ADD11C,0.150000*%
G04 APERTURE END LIST*
D10*
X134849047Y-114346190D02*
X133149047Y-114346190D01*
X133149047Y-113698571D01*
X133230000Y-113536666D01*
X133310952Y-113455714D01*
X133472857Y-113374761D01*
X133715714Y-113374761D01*
X133877619Y-113455714D01*
X133958571Y-113536666D01*
X134039523Y-113698571D01*
X134039523Y-114346190D01*
X134849047Y-112646190D02*
X133149047Y-112646190D01*
X134849047Y-111836666D02*
X133149047Y-111836666D01*
X134849047Y-110865238D01*
X133149047Y-110865238D01*
X134849047Y-110055714D02*
X133149047Y-110055714D01*
X133958571Y-110055714D02*
X133958571Y-109084285D01*
X134849047Y-109084285D02*
X133149047Y-109084285D01*
X133149047Y-107950952D02*
X133149047Y-107627142D01*
X133230000Y-107465238D01*
X133391904Y-107303333D01*
X133715714Y-107222380D01*
X134282380Y-107222380D01*
X134606190Y-107303333D01*
X134768095Y-107465238D01*
X134849047Y-107627142D01*
X134849047Y-107950952D01*
X134768095Y-108112857D01*
X134606190Y-108274761D01*
X134282380Y-108355714D01*
X133715714Y-108355714D01*
X133391904Y-108274761D01*
X133230000Y-108112857D01*
X133149047Y-107950952D01*
X134849047Y-105684285D02*
X134849047Y-106493809D01*
X133149047Y-106493809D01*
X134849047Y-105117619D02*
X133149047Y-105117619D01*
X133149047Y-104712857D01*
X133230000Y-104470000D01*
X133391904Y-104308095D01*
X133553809Y-104227142D01*
X133877619Y-104146190D01*
X134120476Y-104146190D01*
X134444285Y-104227142D01*
X134606190Y-104308095D01*
X134768095Y-104470000D01*
X134849047Y-104712857D01*
X134849047Y-105117619D01*
X133958571Y-103417619D02*
X133958571Y-102850952D01*
X134849047Y-102608095D02*
X134849047Y-103417619D01*
X133149047Y-103417619D01*
X133149047Y-102608095D01*
X134849047Y-100908095D02*
X134039523Y-101474761D01*
X134849047Y-101879523D02*
X133149047Y-101879523D01*
X133149047Y-101231904D01*
X133230000Y-101070000D01*
X133310952Y-100989047D01*
X133472857Y-100908095D01*
X133715714Y-100908095D01*
X133877619Y-100989047D01*
X133958571Y-101070000D01*
X134039523Y-101231904D01*
X134039523Y-101879523D01*
X133149047Y-99855714D02*
X133149047Y-99693809D01*
X133230000Y-99531904D01*
X133310952Y-99450952D01*
X133472857Y-99370000D01*
X133796666Y-99289047D01*
X134201428Y-99289047D01*
X134525238Y-99370000D01*
X134687142Y-99450952D01*
X134768095Y-99531904D01*
X134849047Y-99693809D01*
X134849047Y-99855714D01*
X134768095Y-100017619D01*
X134687142Y-100098571D01*
X134525238Y-100179523D01*
X134201428Y-100260476D01*
X133796666Y-100260476D01*
X133472857Y-100179523D01*
X133310952Y-100098571D01*
X133230000Y-100017619D01*
X133149047Y-99855714D01*
X134849047Y-97670000D02*
X134849047Y-98641428D01*
X134849047Y-98155714D02*
X133149047Y-98155714D01*
X133391904Y-98317619D01*
X133553809Y-98479523D01*
X133634761Y-98641428D01*
X134363333Y-97022380D02*
X134363333Y-96212857D01*
X134849047Y-97184285D02*
X133149047Y-96617619D01*
X134849047Y-96050952D01*
D11*
%TO.C,TP2*%
X124100000Y-77350000D02*
X119900000Y-77350000D01*
X124100000Y-74950000D02*
X124100000Y-77350000D01*
X119900000Y-77350000D02*
X119900000Y-74950000D01*
X119900000Y-74950000D02*
X124100000Y-74950000D01*
%TD*%
M02*
