  0
SECTION
  2
HEADER
  9
$ANGBASE
  50
0.0
  9
$ANGDIR
  70
1
  9
$MEASUREMENT
  70
0
  0
ENDSEC
  0
SECTION
  2
TABLES
  0
TABLE
  2
LTYPE
  70
4
  0
LTYPE
  5
40F
  2
CONTINUOUS
  70
0
  3
Solid line
  72
65
  73
0
  40
0.0
  0
LTYPE
  5
410
  2
DASHDOT
 70
0
  3
Dash Dot ____ _ ____ _
 72
65
 73
4
 40
2.0
 49
1.25
 49
-0.25
 49
0.25
 49
-0.25
  0
LTYPE
  5
411
  2
DASHED
 70
0
  3
Dashed __ __ __ __ __
 72
65
 73
2
 40
0.75
 49
0.5
 49
-0.25
  0
LTYPE
  5
43B
  2
DOTTED
 70
0
  3
Dotted .  .  .  .
 72
65
 73
2
 40
0.2
 49
0.0
 49
-0.2
  0
ENDTAB
  0
TABLE
  2
STYLE
  70
4
  0
STYLE
  2
KICAD
  70
0
  40
0
  41
1
  42
1
  50
0
  71
0
  3
isocp.shx
  0
STYLE
  2
KICADB
  70
0
  40
0
  41
1
  42
1
  50
0
  71
0
  3
isocp.shx
  0
STYLE
  2
KICADI
  70
0
  40
0
  41
1
  42
1
  50
15
  71
0
  3
isocp.shx
  0
STYLE
  2
KICADBI
  70
0
  40
0
  41
1
  42
1
  50
15
  71
0
  3
isocp.shx
  0
ENDTAB
  0
TABLE
  2
LAYER
  70
1
  0
LAYER
  2
BLACK
  70
0
  62
7
  6
CONTINUOUS
  0
ENDTAB
  0
ENDSEC
  0
SECTION
  2
ENTITIES
0
LINE
8
BLACK
6
CONTINUOUS
10
0.226368
20
-0.493965
11
0.226497
21
-0.493942
0
LINE
8
BLACK
6
CONTINUOUS
10
0.226497
20
-0.493942
11
0.226611
21
-0.494008
0
LINE
8
BLACK
6
CONTINUOUS
10
0.226611
20
-0.494008
11
0.226994
21
-0.494076
0
LINE
8
BLACK
6
CONTINUOUS
10
0.226994
20
-0.494076
11
0.227582
21
-0.494569
0
LINE
8
BLACK
6
CONTINUOUS
10
0.227582
20
-0.494569
11
0.228246
21
-0.494952
0
LINE
8
BLACK
6
CONTINUOUS
10
0.228246
20
-0.494952
11
0.228337
21
-0.495203
0
LINE
8
BLACK
6
CONTINUOUS
10
0.228337
20
-0.495203
11
0.228541
21
-0.495374
0
LINE
8
BLACK
6
CONTINUOUS
10
0.228541
20
-0.495374
11
0.228675
21
-0.49613
0
LINE
8
BLACK
6
CONTINUOUS
10
0.228675
20
-0.49613
11
0.228937
21
-0.49685
0
LINE
8
BLACK
6
CONTINUOUS
10
0.228937
20
-0.49685
11
0.228937
21
-0.519488
0
LINE
8
BLACK
6
CONTINUOUS
10
0.228937
20
-0.519488
11
0.245669
21
-0.519488
0
LINE
8
BLACK
6
CONTINUOUS
10
0.245669
20
-0.519488
11
0.246053
21
-0.519556
0
LINE
8
BLACK
6
CONTINUOUS
10
0.246053
20
-0.519556
11
0.246182
21
-0.519533
0
LINE
8
BLACK
6
CONTINUOUS
10
0.246182
20
-0.519533
11
0.246296
21
-0.519599
0
LINE
8
BLACK
6
CONTINUOUS
10
0.246296
20
-0.519599
11
0.246679
21
-0.519666
0
LINE
8
BLACK
6
CONTINUOUS
10
0.246679
20
-0.519666
11
0.247267
21
-0.520159
0
LINE
8
BLACK
6
CONTINUOUS
10
0.247267
20
-0.520159
11
0.247931
21
-0.520543
0
LINE
8
BLACK
6
CONTINUOUS
10
0.247931
20
-0.520543
11
0.248022
21
-0.520793
0
LINE
8
BLACK
6
CONTINUOUS
10
0.248022
20
-0.520793
11
0.248226
21
-0.520965
0
LINE
8
BLACK
6
CONTINUOUS
10
0.248226
20
-0.520965
11
0.24836
21
-0.52172
0
LINE
8
BLACK
6
CONTINUOUS
10
0.24836
20
-0.52172
11
0.248622
21
-0.522441
0
LINE
8
BLACK
6
CONTINUOUS
10
0.248622
20
-0.522441
11
0.248622
21
-0.620866
0
LINE
8
BLACK
6
CONTINUOUS
10
0.248622
20
-0.620866
11
0.248554
21
-0.62125
0
LINE
8
BLACK
6
CONTINUOUS
10
0.248554
20
-0.62125
11
0.248577
21
-0.621379
0
LINE
8
BLACK
6
CONTINUOUS
10
0.248577
20
-0.621379
11
0.248512
21
-0.621492
0
LINE
8
BLACK
6
CONTINUOUS
10
0.248512
20
-0.621492
11
0.248444
21
-0.621876
0
LINE
8
BLACK
6
CONTINUOUS
10
0.248444
20
-0.621876
11
0.247951
21
-0.622464
0
LINE
8
BLACK
6
CONTINUOUS
10
0.247951
20
-0.622464
11
0.247567
21
-0.623128
0
LINE
8
BLACK
6
CONTINUOUS
10
0.247567
20
-0.623128
11
0.247317
21
-0.623219
0
LINE
8
BLACK
6
CONTINUOUS
10
0.247317
20
-0.623219
11
0.247146
21
-0.623423
0
LINE
8
BLACK
6
CONTINUOUS
10
0.247146
20
-0.623423
11
0.24639
21
-0.623557
0
LINE
8
BLACK
6
CONTINUOUS
10
0.24639
20
-0.623557
11
0.245669
21
-0.623819
0
LINE
8
BLACK
6
CONTINUOUS
10
0.245669
20
-0.623819
11
0.228937
21
-0.623819
0
LINE
8
BLACK
6
CONTINUOUS
10
0.228937
20
-0.623819
11
0.228937
21
-0.646457
0
LINE
8
BLACK
6
CONTINUOUS
10
0.228937
20
-0.646457
11
0.228869
21
-0.64684
0
LINE
8
BLACK
6
CONTINUOUS
10
0.228869
20
-0.64684
11
0.228892
21
-0.646969
0
LINE
8
BLACK
6
CONTINUOUS
10
0.228892
20
-0.646969
11
0.228827
21
-0.647083
0
LINE
8
BLACK
6
CONTINUOUS
10
0.228827
20
-0.647083
11
0.228759
21
-0.647467
0
LINE
8
BLACK
6
CONTINUOUS
10
0.228759
20
-0.647467
11
0.228266
21
-0.648054
0
LINE
8
BLACK
6
CONTINUOUS
10
0.228266
20
-0.648054
11
0.227882
21
-0.648719
0
LINE
8
BLACK
6
CONTINUOUS
10
0.227882
20
-0.648719
11
0.227632
21
-0.64881
0
LINE
8
BLACK
6
CONTINUOUS
10
0.227632
20
-0.64881
11
0.227461
21
-0.649014
0
LINE
8
BLACK
6
CONTINUOUS
10
0.227461
20
-0.649014
11
0.226705
21
-0.649147
0
LINE
8
BLACK
6
CONTINUOUS
10
0.226705
20
-0.649147
11
0.225984
21
-0.649409
0
LINE
8
BLACK
6
CONTINUOUS
10
0.225984
20
-0.649409
11
0.186614
21
-0.649409
0
LINE
8
BLACK
6
CONTINUOUS
10
0.186614
20
-0.649409
11
0.186231
21
-0.649342
0
LINE
8
BLACK
6
CONTINUOUS
10
0.186231
20
-0.649342
11
0.186101
21
-0.649365
0
LINE
8
BLACK
6
CONTINUOUS
10
0.186101
20
-0.649365
11
0.185988
21
-0.649299
0
LINE
8
BLACK
6
CONTINUOUS
10
0.185988
20
-0.649299
11
0.185604
21
-0.649231
0
LINE
8
BLACK
6
CONTINUOUS
10
0.185604
20
-0.649231
11
0.185017
21
-0.648738
0
LINE
8
BLACK
6
CONTINUOUS
10
0.185017
20
-0.648738
11
0.184352
21
-0.648355
0
LINE
8
BLACK
6
CONTINUOUS
10
0.184352
20
-0.648355
11
0.184261
21
-0.648104
0
LINE
8
BLACK
6
CONTINUOUS
10
0.184261
20
-0.648104
11
0.184057
21
-0.647933
0
LINE
8
BLACK
6
CONTINUOUS
10
0.184057
20
-0.647933
11
0.183924
21
-0.647177
0
LINE
8
BLACK
6
CONTINUOUS
10
0.183924
20
-0.647177
11
0.183661
21
-0.646457
0
LINE
8
BLACK
6
CONTINUOUS
10
0.183661
20
-0.646457
11
0.183661
21
-0.623819
0
LINE
8
BLACK
6
CONTINUOUS
10
0.183661
20
-0.623819
11
0.166929
21
-0.623819
0
LINE
8
BLACK
6
CONTINUOUS
10
0.166929
20
-0.623819
11
0.166546
21
-0.623751
0
LINE
8
BLACK
6
CONTINUOUS
10
0.166546
20
-0.623751
11
0.166416
21
-0.623774
0
LINE
8
BLACK
6
CONTINUOUS
10
0.166416
20
-0.623774
11
0.166303
21
-0.623708
0
LINE
8
BLACK
6
CONTINUOUS
10
0.166303
20
-0.623708
11
0.165919
21
-0.623641
0
LINE
8
BLACK
6
CONTINUOUS
10
0.165919
20
-0.623641
11
0.165331
21
-0.623148
0
LINE
8
BLACK
6
CONTINUOUS
10
0.165331
20
-0.623148
11
0.164667
21
-0.622764
0
LINE
8
BLACK
6
CONTINUOUS
10
0.164667
20
-0.622764
11
0.164576
21
-0.622514
0
LINE
8
BLACK
6
CONTINUOUS
10
0.164576
20
-0.622514
11
0.164372
21
-0.622343
0
LINE
8
BLACK
6
CONTINUOUS
10
0.164372
20
-0.622343
11
0.164239
21
-0.621587
0
LINE
8
BLACK
6
CONTINUOUS
10
0.164239
20
-0.621587
11
0.163976
21
-0.620866
0
LINE
8
BLACK
6
CONTINUOUS
10
0.163976
20
-0.620866
11
0.163976
21
-0.522441
0
LINE
8
BLACK
6
CONTINUOUS
10
0.163976
20
-0.522441
11
0.164044
21
-0.522057
0
LINE
8
BLACK
6
CONTINUOUS
10
0.164044
20
-0.522057
11
0.164021
21
-0.521928
0
LINE
8
BLACK
6
CONTINUOUS
10
0.164021
20
-0.521928
11
0.164087
21
-0.521815
0
LINE
8
BLACK
6
CONTINUOUS
10
0.164087
20
-0.521815
11
0.164154
21
-0.521431
0
LINE
8
BLACK
6
CONTINUOUS
10
0.164154
20
-0.521431
11
0.164648
21
-0.520843
0
LINE
8
BLACK
6
CONTINUOUS
10
0.164648
20
-0.520843
11
0.165031
21
-0.520179
0
LINE
8
BLACK
6
CONTINUOUS
10
0.165031
20
-0.520179
11
0.165281
21
-0.520088
0
LINE
8
BLACK
6
CONTINUOUS
10
0.165281
20
-0.520088
11
0.165453
21
-0.519884
0
LINE
8
BLACK
6
CONTINUOUS
10
0.165453
20
-0.519884
11
0.166208
21
-0.519751
0
LINE
8
BLACK
6
CONTINUOUS
10
0.166208
20
-0.519751
11
0.166929
21
-0.519488
0
LINE
8
BLACK
6
CONTINUOUS
10
0.166929
20
-0.519488
11
0.183661
21
-0.519488
0
LINE
8
BLACK
6
CONTINUOUS
10
0.183661
20
-0.519488
11
0.183661
21
-0.49685
0
LINE
8
BLACK
6
CONTINUOUS
10
0.183661
20
-0.49685
11
0.183729
21
-0.496467
0
LINE
8
BLACK
6
CONTINUOUS
10
0.183729
20
-0.496467
11
0.183706
21
-0.496338
0
LINE
8
BLACK
6
CONTINUOUS
10
0.183706
20
-0.496338
11
0.183772
21
-0.496224
0
LINE
8
BLACK
6
CONTINUOUS
10
0.183772
20
-0.496224
11
0.183839
21
-0.49584
0
LINE
8
BLACK
6
CONTINUOUS
10
0.183839
20
-0.49584
11
0.184333
21
-0.495253
0
LINE
8
BLACK
6
CONTINUOUS
10
0.184333
20
-0.495253
11
0.184716
21
-0.494588
0
LINE
8
BLACK
6
CONTINUOUS
10
0.184716
20
-0.494588
11
0.184966
21
-0.494497
0
LINE
8
BLACK
6
CONTINUOUS
10
0.184966
20
-0.494497
11
0.185138
21
-0.494293
0
LINE
8
BLACK
6
CONTINUOUS
10
0.185138
20
-0.494293
11
0.185893
21
-0.49416
0
LINE
8
BLACK
6
CONTINUOUS
10
0.185893
20
-0.49416
11
0.186614
21
-0.493898
0
LINE
8
BLACK
6
CONTINUOUS
10
0.186614
20
-0.493898
11
0.225984
21
-0.493898
0
LINE
8
BLACK
6
CONTINUOUS
10
0.225984
20
-0.493898
11
0.226368
21
-0.493965
0
LINE
8
BLACK
6
CONTINUOUS
10
0.204046
20
-0.613184
11
0.203475
21
-0.613421
0
LINE
8
BLACK
6
CONTINUOUS
10
0.203475
20
-0.613421
11
0.203008
21
-0.613826
0
LINE
8
BLACK
6
CONTINUOUS
10
0.203008
20
-0.613826
11
0.197946
21
-0.615513
0
LINE
8
BLACK
6
CONTINUOUS
10
0.197946
20
-0.615513
11
0.19751
21
-0.615482
0
LINE
8
BLACK
6
CONTINUOUS
10
0.19751
20
-0.615482
11
0.197106
21
-0.61565
0
LINE
8
BLACK
6
CONTINUOUS
10
0.197106
20
-0.61565
11
0.193731
21
-0.61565
0
LINE
8
BLACK
6
CONTINUOUS
10
0.193731
20
-0.61565
11
0.193159
21
-0.615413
0
LINE
8
BLACK
6
CONTINUOUS
10
0.193159
20
-0.615413
11
0.192542
21
-0.615369
0
LINE
8
BLACK
6
CONTINUOUS
10
0.192542
20
-0.615369
11
0.189567
21
-0.613881
0
LINE
8
BLACK
6
CONTINUOUS
10
0.189567
20
-0.613881
11
0.189567
21
-0.643504
0
LINE
8
BLACK
6
CONTINUOUS
10
0.189567
20
-0.643504
11
0.223031
21
-0.643504
0
LINE
8
BLACK
6
CONTINUOUS
10
0.223031
20
-0.643504
11
0.223031
21
-0.615394
0
LINE
8
BLACK
6
CONTINUOUS
10
0.223031
20
-0.615394
11
0.222415
21
-0.61565
0
LINE
8
BLACK
6
CONTINUOUS
10
0.222415
20
-0.61565
11
0.220536
21
-0.614871
0
LINE
8
BLACK
6
CONTINUOUS
10
0.220536
20
-0.614871
11
0.219757
21
-0.612992
0
LINE
8
BLACK
6
CONTINUOUS
10
0.219757
20
-0.612992
11
0.219757
21
-0.597473
0
LINE
8
BLACK
6
CONTINUOUS
10
0.219757
20
-0.597473
11
0.204046
21
-0.613184
0
LINE
8
BLACK
6
CONTINUOUS
10
0.228937
20
-0.574606
11
0.228937
21
-0.617913
0
LINE
8
BLACK
6
CONTINUOUS
10
0.228937
20
-0.617913
11
0.242717
21
-0.617913
0
LINE
8
BLACK
6
CONTINUOUS
10
0.242717
20
-0.617913
11
0.242717
21
-0.574606
0
LINE
8
BLACK
6
CONTINUOUS
10
0.242717
20
-0.574606
11
0.228937
21
-0.574606
0
LINE
8
BLACK
6
CONTINUOUS
10
0.169882
20
-0.574606
11
0.169882
21
-0.617913
0
LINE
8
BLACK
6
CONTINUOUS
10
0.169882
20
-0.617913
11
0.183661
21
-0.617913
0
LINE
8
BLACK
6
CONTINUOUS
10
0.183661
20
-0.617913
11
0.183661
21
-0.574606
0
LINE
8
BLACK
6
CONTINUOUS
10
0.183661
20
-0.574606
11
0.169882
21
-0.574606
0
LINE
8
BLACK
6
CONTINUOUS
10
0.222415
20
-0.561656
11
0.208199
21
-0.561656
0
LINE
8
BLACK
6
CONTINUOUS
10
0.208199
20
-0.561656
11
0.208199
21
-0.572497
0
LINE
8
BLACK
6
CONTINUOUS
10
0.208199
20
-0.572497
11
0.207963
21
-0.573069
0
LINE
8
BLACK
6
CONTINUOUS
10
0.207963
20
-0.573069
11
0.207919
21
-0.573686
0
LINE
8
BLACK
6
CONTINUOUS
10
0.207919
20
-0.573686
11
0.206232
21
-0.57706
0
LINE
8
BLACK
6
CONTINUOUS
10
0.206232
20
-0.57706
11
0.205901
21
-0.577347
0
LINE
8
BLACK
6
CONTINUOUS
10
0.205901
20
-0.577347
11
0.205734
21
-0.577751
0
LINE
8
BLACK
6
CONTINUOUS
10
0.205734
20
-0.577751
11
0.204046
21
-0.579438
0
LINE
8
BLACK
6
CONTINUOUS
10
0.204046
20
-0.579438
11
0.203642
21
-0.579606
0
LINE
8
BLACK
6
CONTINUOUS
10
0.203642
20
-0.579606
11
0.203356
21
-0.579936
0
LINE
8
BLACK
6
CONTINUOUS
10
0.203356
20
-0.579936
11
0.199981
21
-0.581623
0
LINE
8
BLACK
6
CONTINUOUS
10
0.199981
20
-0.581623
11
0.199364
21
-0.581667
0
LINE
8
BLACK
6
CONTINUOUS
10
0.199364
20
-0.581667
11
0.198793
21
-0.581904
0
LINE
8
BLACK
6
CONTINUOUS
10
0.198793
20
-0.581904
11
0.193731
21
-0.581904
0
LINE
8
BLACK
6
CONTINUOUS
10
0.193731
20
-0.581904
11
0.193159
21
-0.581667
0
LINE
8
BLACK
6
CONTINUOUS
10
0.193159
20
-0.581667
11
0.192542
21
-0.581623
0
LINE
8
BLACK
6
CONTINUOUS
10
0.192542
20
-0.581623
11
0.189567
21
-0.580136
0
LINE
8
BLACK
6
CONTINUOUS
10
0.189567
20
-0.580136
11
0.189567
21
-0.590414
0
LINE
8
BLACK
6
CONTINUOUS
10
0.189567
20
-0.590414
11
0.190356
21
-0.590087
0
LINE
8
BLACK
6
CONTINUOUS
10
0.190356
20
-0.590087
11
0.192235
21
-0.590866
0
LINE
8
BLACK
6
CONTINUOUS
10
0.192235
20
-0.590866
11
0.193014
21
-0.592745
0
LINE
8
BLACK
6
CONTINUOUS
10
0.193014
20
-0.592745
11
0.192235
21
-0.594624
0
LINE
8
BLACK
6
CONTINUOUS
10
0.192235
20
-0.594624
11
0.190853
21
-0.596006
0
LINE
8
BLACK
6
CONTINUOUS
10
0.190853
20
-0.596006
11
0.189639
21
-0.598434
0
LINE
8
BLACK
6
CONTINUOUS
10
0.189639
20
-0.598434
11
0.189639
21
-0.605616
0
LINE
8
BLACK
6
CONTINUOUS
10
0.189639
20
-0.605616
11
0.190853
21
-0.608043
0
LINE
8
BLACK
6
CONTINUOUS
10
0.190853
20
-0.608043
11
0.191931
21
-0.609121
0
LINE
8
BLACK
6
CONTINUOUS
10
0.191931
20
-0.609121
11
0.194358
21
-0.610335
0
LINE
8
BLACK
6
CONTINUOUS
10
0.194358
20
-0.610335
11
0.196674
21
-0.610335
0
LINE
8
BLACK
6
CONTINUOUS
10
0.196674
20
-0.610335
11
0.200732
21
-0.608982
0
LINE
8
BLACK
6
CONTINUOUS
10
0.200732
20
-0.608982
11
0.220536
21
-0.589178
0
LINE
8
BLACK
6
CONTINUOUS
10
0.220536
20
-0.589178
11
0.222415
21
-0.5884
0
LINE
8
BLACK
6
CONTINUOUS
10
0.222415
20
-0.5884
11
0.223031
21
-0.588655
0
LINE
8
BLACK
6
CONTINUOUS
10
0.223031
20
-0.588655
11
0.223031
21
-0.561401
0
LINE
8
BLACK
6
CONTINUOUS
10
0.223031
20
-0.561401
11
0.222415
21
-0.561656
0
LINE
8
BLACK
6
CONTINUOUS
10
0.189639
20
-0.57187
11
0.190853
21
-0.574298
0
LINE
8
BLACK
6
CONTINUOUS
10
0.190853
20
-0.574298
11
0.191931
21
-0.575375
0
LINE
8
BLACK
6
CONTINUOUS
10
0.191931
20
-0.575375
11
0.194358
21
-0.576589
0
LINE
8
BLACK
6
CONTINUOUS
10
0.194358
20
-0.576589
11
0.198165
21
-0.576589
0
LINE
8
BLACK
6
CONTINUOUS
10
0.198165
20
-0.576589
11
0.200593
21
-0.575375
0
LINE
8
BLACK
6
CONTINUOUS
10
0.200593
20
-0.575375
11
0.201671
21
-0.574298
0
LINE
8
BLACK
6
CONTINUOUS
10
0.201671
20
-0.574298
11
0.202884
21
-0.57187
0
LINE
8
BLACK
6
CONTINUOUS
10
0.202884
20
-0.57187
11
0.202884
21
-0.561656
0
LINE
8
BLACK
6
CONTINUOUS
10
0.202884
20
-0.561656
11
0.189639
21
-0.561656
0
LINE
8
BLACK
6
CONTINUOUS
10
0.189639
20
-0.561656
11
0.189639
21
-0.57187
0
LINE
8
BLACK
6
CONTINUOUS
10
0.228937
20
-0.525394
11
0.228937
21
-0.568701
0
LINE
8
BLACK
6
CONTINUOUS
10
0.228937
20
-0.568701
11
0.242717
21
-0.568701
0
LINE
8
BLACK
6
CONTINUOUS
10
0.242717
20
-0.568701
11
0.242717
21
-0.525394
0
LINE
8
BLACK
6
CONTINUOUS
10
0.242717
20
-0.525394
11
0.228937
21
-0.525394
0
LINE
8
BLACK
6
CONTINUOUS
10
0.169882
20
-0.525394
11
0.169882
21
-0.568701
0
LINE
8
BLACK
6
CONTINUOUS
10
0.169882
20
-0.568701
11
0.183661
21
-0.568701
0
LINE
8
BLACK
6
CONTINUOUS
10
0.183661
20
-0.568701
11
0.183661
21
-0.525394
0
LINE
8
BLACK
6
CONTINUOUS
10
0.183661
20
-0.525394
11
0.169882
21
-0.525394
0
LINE
8
BLACK
6
CONTINUOUS
10
0.222415
20
-0.539722
11
0.189639
21
-0.539722
0
LINE
8
BLACK
6
CONTINUOUS
10
0.189639
20
-0.539722
11
0.189639
21
-0.547188
0
LINE
8
BLACK
6
CONTINUOUS
10
0.189639
20
-0.547188
11
0.189567
21
-0.547362
0
LINE
8
BLACK
6
CONTINUOUS
10
0.189567
20
-0.547362
11
0.189567
21
-0.556341
0
LINE
8
BLACK
6
CONTINUOUS
10
0.189567
20
-0.556341
11
0.222415
21
-0.556341
0
LINE
8
BLACK
6
CONTINUOUS
10
0.222415
20
-0.556341
11
0.223031
21
-0.556597
0
LINE
8
BLACK
6
CONTINUOUS
10
0.223031
20
-0.556597
11
0.223031
21
-0.539466
0
LINE
8
BLACK
6
CONTINUOUS
10
0.223031
20
-0.539466
11
0.222415
21
-0.539722
0
LINE
8
BLACK
6
CONTINUOUS
10
0.189567
20
-0.499803
11
0.189567
21
-0.526766
0
LINE
8
BLACK
6
CONTINUOUS
10
0.189567
20
-0.526766
11
0.189639
21
-0.52694
0
LINE
8
BLACK
6
CONTINUOUS
10
0.189639
20
-0.52694
11
0.189639
21
-0.534407
0
LINE
8
BLACK
6
CONTINUOUS
10
0.189639
20
-0.534407
11
0.222415
21
-0.534407
0
LINE
8
BLACK
6
CONTINUOUS
10
0.222415
20
-0.534407
11
0.223031
21
-0.534662
0
LINE
8
BLACK
6
CONTINUOUS
10
0.223031
20
-0.534662
11
0.223031
21
-0.499803
0
LINE
8
BLACK
6
CONTINUOUS
10
0.223031
20
-0.499803
11
0.189567
21
-0.499803
0
LINE
8
BLACK
6
CONTINUOUS
10
0.290772
20
-0.343471
11
0.291463
21
-0.345369
0
LINE
8
BLACK
6
CONTINUOUS
10
0.291463
20
-0.345369
11
0.291463
21
-0.348041
0
LINE
8
BLACK
6
CONTINUOUS
10
0.291463
20
-0.348041
11
0.309132
21
-0.348041
0
LINE
8
BLACK
6
CONTINUOUS
10
0.309132
20
-0.348041
11
0.310142
21
-0.348219
0
LINE
8
BLACK
6
CONTINUOUS
10
0.310142
20
-0.348219
11
0.310277
21
-0.348332
0
LINE
8
BLACK
6
CONTINUOUS
10
0.310277
20
-0.348332
11
0.310453
21
-0.348353
0
LINE
8
BLACK
6
CONTINUOUS
10
0.310453
20
-0.348353
11
0.314202
21
-0.350227
0
LINE
8
BLACK
6
CONTINUOUS
10
0.314202
20
-0.350227
11
0.315026
21
-0.350838
0
LINE
8
BLACK
6
CONTINUOUS
10
0.315026
20
-0.350838
11
0.315202
21
-0.351244
0
LINE
8
BLACK
6
CONTINUOUS
10
0.315202
20
-0.351244
11
0.315523
21
-0.351548
0
LINE
8
BLACK
6
CONTINUOUS
10
0.315523
20
-0.351548
11
0.317398
21
-0.355297
0
LINE
8
BLACK
6
CONTINUOUS
10
0.317398
20
-0.355297
11
0.31769
21
-0.35628
0
LINE
8
BLACK
6
CONTINUOUS
10
0.31769
20
-0.35628
11
0.317649
21
-0.356452
0
LINE
8
BLACK
6
CONTINUOUS
10
0.317649
20
-0.356452
11
0.317709
21
-0.356618
0
LINE
8
BLACK
6
CONTINUOUS
10
0.317709
20
-0.356618
11
0.317709
21
-0.360367
0
LINE
8
BLACK
6
CONTINUOUS
10
0.317709
20
-0.360367
11
0.317531
21
-0.361377
0
LINE
8
BLACK
6
CONTINUOUS
10
0.317531
20
-0.361377
11
0.316233
21
-0.362925
0
LINE
8
BLACK
6
CONTINUOUS
10
0.316233
20
-0.362925
11
0.314244
21
-0.363275
0
LINE
8
BLACK
6
CONTINUOUS
10
0.314244
20
-0.363275
11
0.312495
21
-0.362265
0
LINE
8
BLACK
6
CONTINUOUS
10
0.312495
20
-0.362265
11
0.311804
21
-0.360367
0
LINE
8
BLACK
6
CONTINUOUS
10
0.311804
20
-0.360367
11
0.311804
21
-0.357315
0
LINE
8
BLACK
6
CONTINUOUS
10
0.311804
20
-0.357315
11
0.310681
21
-0.355069
0
LINE
8
BLACK
6
CONTINUOUS
10
0.310681
20
-0.355069
11
0.308435
21
-0.353946
0
LINE
8
BLACK
6
CONTINUOUS
10
0.308435
20
-0.353946
11
0.291463
21
-0.353946
0
LINE
8
BLACK
6
CONTINUOUS
10
0.291463
20
-0.353946
11
0.291463
21
-0.360367
0
LINE
8
BLACK
6
CONTINUOUS
10
0.291463
20
-0.360367
11
0.291285
21
-0.361377
0
LINE
8
BLACK
6
CONTINUOUS
10
0.291285
20
-0.361377
11
0.289986
21
-0.362925
0
LINE
8
BLACK
6
CONTINUOUS
10
0.289986
20
-0.362925
11
0.287997
21
-0.363275
0
LINE
8
BLACK
6
CONTINUOUS
10
0.287997
20
-0.363275
11
0.286248
21
-0.362265
0
LINE
8
BLACK
6
CONTINUOUS
10
0.286248
20
-0.362265
11
0.285557
21
-0.360367
0
LINE
8
BLACK
6
CONTINUOUS
10
0.285557
20
-0.360367
11
0.285557
21
-0.353946
0
LINE
8
BLACK
6
CONTINUOUS
10
0.285557
20
-0.353946
11
0.275387
21
-0.353946
0
LINE
8
BLACK
6
CONTINUOUS
10
0.275387
20
-0.353946
11
0.274377
21
-0.353768
0
LINE
8
BLACK
6
CONTINUOUS
10
0.274377
20
-0.353768
11
0.272829
21
-0.35247
0
LINE
8
BLACK
6
CONTINUOUS
10
0.272829
20
-0.35247
11
0.272479
21
-0.350481
0
LINE
8
BLACK
6
CONTINUOUS
10
0.272479
20
-0.350481
11
0.273489
21
-0.348732
0
LINE
8
BLACK
6
CONTINUOUS
10
0.273489
20
-0.348732
11
0.275387
21
-0.348041
0
LINE
8
BLACK
6
CONTINUOUS
10
0.275387
20
-0.348041
11
0.285557
21
-0.348041
0
LINE
8
BLACK
6
CONTINUOUS
10
0.285557
20
-0.348041
11
0.285557
21
-0.345369
0
LINE
8
BLACK
6
CONTINUOUS
10
0.285557
20
-0.345369
11
0.285735
21
-0.344359
0
LINE
8
BLACK
6
CONTINUOUS
10
0.285735
20
-0.344359
11
0.287034
21
-0.342812
0
LINE
8
BLACK
6
CONTINUOUS
10
0.287034
20
-0.342812
11
0.289023
21
-0.342461
0
LINE
8
BLACK
6
CONTINUOUS
10
0.289023
20
-0.342461
11
0.290772
21
-0.343471
0
LINE
8
BLACK
6
CONTINUOUS
10
0.315767
20
-0.312598
11
0.317314
21
-0.313897
0
LINE
8
BLACK
6
CONTINUOUS
10
0.317314
20
-0.313897
11
0.317665
21
-0.315886
0
LINE
8
BLACK
6
CONTINUOUS
10
0.317665
20
-0.315886
11
0.316655
21
-0.317635
0
LINE
8
BLACK
6
CONTINUOUS
10
0.316655
20
-0.317635
11
0.314757
21
-0.318326
0
LINE
8
BLACK
6
CONTINUOUS
10
0.314757
20
-0.318326
11
0.293483
21
-0.318326
0
LINE
8
BLACK
6
CONTINUOUS
10
0.293483
20
-0.318326
11
0.292811
21
-0.318997
0
LINE
8
BLACK
6
CONTINUOUS
10
0.292811
20
-0.318997
11
0.291463
21
-0.321694
0
LINE
8
BLACK
6
CONTINUOUS
10
0.291463
20
-0.321694
11
0.291463
21
-0.325925
0
LINE
8
BLACK
6
CONTINUOUS
10
0.291463
20
-0.325925
11
0.292586
21
-0.32817
0
LINE
8
BLACK
6
CONTINUOUS
10
0.292586
20
-0.32817
11
0.294831
21
-0.329293
0
LINE
8
BLACK
6
CONTINUOUS
10
0.294831
20
-0.329293
11
0.314757
21
-0.329293
0
LINE
8
BLACK
6
CONTINUOUS
10
0.314757
20
-0.329293
11
0.315767
21
-0.329471
0
LINE
8
BLACK
6
CONTINUOUS
10
0.315767
20
-0.329471
11
0.317314
21
-0.33077
0
LINE
8
BLACK
6
CONTINUOUS
10
0.317314
20
-0.33077
11
0.317665
21
-0.332759
0
LINE
8
BLACK
6
CONTINUOUS
10
0.317665
20
-0.332759
11
0.316655
21
-0.334508
0
LINE
8
BLACK
6
CONTINUOUS
10
0.316655
20
-0.334508
11
0.314757
21
-0.335199
0
LINE
8
BLACK
6
CONTINUOUS
10
0.314757
20
-0.335199
11
0.294134
21
-0.335199
0
LINE
8
BLACK
6
CONTINUOUS
10
0.294134
20
-0.335199
11
0.293124
21
-0.335021
0
LINE
8
BLACK
6
CONTINUOUS
10
0.293124
20
-0.335021
11
0.292989
21
-0.334907
0
LINE
8
BLACK
6
CONTINUOUS
10
0.292989
20
-0.334907
11
0.292814
21
-0.334887
0
LINE
8
BLACK
6
CONTINUOUS
10
0.292814
20
-0.334887
11
0.289064
21
-0.333012
0
LINE
8
BLACK
6
CONTINUOUS
10
0.289064
20
-0.333012
11
0.288241
21
-0.332401
0
LINE
8
BLACK
6
CONTINUOUS
10
0.288241
20
-0.332401
11
0.288065
21
-0.331996
0
LINE
8
BLACK
6
CONTINUOUS
10
0.288065
20
-0.331996
11
0.287744
21
-0.331692
0
LINE
8
BLACK
6
CONTINUOUS
10
0.287744
20
-0.331692
11
0.285869
21
-0.327942
0
LINE
8
BLACK
6
CONTINUOUS
10
0.285869
20
-0.327942
11
0.285577
21
-0.326959
0
LINE
8
BLACK
6
CONTINUOUS
10
0.285577
20
-0.326959
11
0.285618
21
-0.326788
0
LINE
8
BLACK
6
CONTINUOUS
10
0.285618
20
-0.326788
11
0.285557
21
-0.326622
0
LINE
8
BLACK
6
CONTINUOUS
10
0.285557
20
-0.326622
11
0.285557
21
-0.320997
0
LINE
8
BLACK
6
CONTINUOUS
10
0.285557
20
-0.320997
11
0.285735
21
-0.319987
0
LINE
8
BLACK
6
CONTINUOUS
10
0.285735
20
-0.319987
11
0.285849
21
-0.319852
0
LINE
8
BLACK
6
CONTINUOUS
10
0.285849
20
-0.319852
11
0.285869
21
-0.319677
0
LINE
8
BLACK
6
CONTINUOUS
10
0.285869
20
-0.319677
11
0.28689
21
-0.317636
0
LINE
8
BLACK
6
CONTINUOUS
10
0.28689
20
-0.317636
11
0.285953
21
-0.316849
0
LINE
8
BLACK
6
CONTINUOUS
10
0.285953
20
-0.316849
11
0.285602
21
-0.31486
0
LINE
8
BLACK
6
CONTINUOUS
10
0.285602
20
-0.31486
11
0.286612
21
-0.313111
0
LINE
8
BLACK
6
CONTINUOUS
10
0.286612
20
-0.313111
11
0.28851
21
-0.31242
0
LINE
8
BLACK
6
CONTINUOUS
10
0.28851
20
-0.31242
11
0.314757
21
-0.31242
0
LINE
8
BLACK
6
CONTINUOUS
10
0.314757
20
-0.31242
11
0.315767
21
-0.312598
0
LINE
8
BLACK
6
CONTINUOUS
10
0.228336
20
-0.151446
11
0.228466
21
-0.151423
0
LINE
8
BLACK
6
CONTINUOUS
10
0.228466
20
-0.151423
11
0.228579
21
-0.151488
0
LINE
8
BLACK
6
CONTINUOUS
10
0.228579
20
-0.151488
11
0.228963
21
-0.151556
0
LINE
8
BLACK
6
CONTINUOUS
10
0.228963
20
-0.151556
11
0.22955
21
-0.152049
0
LINE
8
BLACK
6
CONTINUOUS
10
0.22955
20
-0.152049
11
0.230215
21
-0.152433
0
LINE
8
BLACK
6
CONTINUOUS
10
0.230215
20
-0.152433
11
0.230306
21
-0.152683
0
LINE
8
BLACK
6
CONTINUOUS
10
0.230306
20
-0.152683
11
0.23051
21
-0.152854
0
LINE
8
BLACK
6
CONTINUOUS
10
0.23051
20
-0.152854
11
0.230643
21
-0.15361
0
LINE
8
BLACK
6
CONTINUOUS
10
0.230643
20
-0.15361
11
0.230906
21
-0.154331
0
LINE
8
BLACK
6
CONTINUOUS
10
0.230906
20
-0.154331
11
0.230906
21
-0.176969
0
LINE
8
BLACK
6
CONTINUOUS
10
0.230906
20
-0.176969
11
0.247638
21
-0.176969
0
LINE
8
BLACK
6
CONTINUOUS
10
0.247638
20
-0.176969
11
0.248021
21
-0.177036
0
LINE
8
BLACK
6
CONTINUOUS
10
0.248021
20
-0.177036
11
0.248151
21
-0.177013
0
LINE
8
BLACK
6
CONTINUOUS
10
0.248151
20
-0.177013
11
0.248264
21
-0.177079
0
LINE
8
BLACK
6
CONTINUOUS
10
0.248264
20
-0.177079
11
0.248648
21
-0.177147
0
LINE
8
BLACK
6
CONTINUOUS
10
0.248648
20
-0.177147
11
0.249235
21
-0.17764
0
LINE
8
BLACK
6
CONTINUOUS
10
0.249235
20
-0.17764
11
0.2499
21
-0.178023
0
LINE
8
BLACK
6
CONTINUOUS
10
0.2499
20
-0.178023
11
0.249991
21
-0.178274
0
LINE
8
BLACK
6
CONTINUOUS
10
0.249991
20
-0.178274
11
0.250195
21
-0.178445
0
LINE
8
BLACK
6
CONTINUOUS
10
0.250195
20
-0.178445
11
0.250328
21
-0.1792
0
LINE
8
BLACK
6
CONTINUOUS
10
0.250328
20
-0.1792
11
0.250591
21
-0.179921
0
LINE
8
BLACK
6
CONTINUOUS
10
0.250591
20
-0.179921
11
0.250591
21
-0.278346
0
LINE
8
BLACK
6
CONTINUOUS
10
0.250591
20
-0.278346
11
0.250523
21
-0.27873
0
LINE
8
BLACK
6
CONTINUOUS
10
0.250523
20
-0.27873
11
0.250546
21
-0.278859
0
LINE
8
BLACK
6
CONTINUOUS
10
0.250546
20
-0.278859
11
0.25048
21
-0.278973
0
LINE
8
BLACK
6
CONTINUOUS
10
0.25048
20
-0.278973
11
0.250412
21
-0.279356
0
LINE
8
BLACK
6
CONTINUOUS
10
0.250412
20
-0.279356
11
0.249919
21
-0.279944
0
LINE
8
BLACK
6
CONTINUOUS
10
0.249919
20
-0.279944
11
0.249536
21
-0.280608
0
LINE
8
BLACK
6
CONTINUOUS
10
0.249536
20
-0.280608
11
0.249285
21
-0.280699
0
LINE
8
BLACK
6
CONTINUOUS
10
0.249285
20
-0.280699
11
0.249114
21
-0.280904
0
LINE
8
BLACK
6
CONTINUOUS
10
0.249114
20
-0.280904
11
0.248359
21
-0.281037
0
LINE
8
BLACK
6
CONTINUOUS
10
0.248359
20
-0.281037
11
0.247638
21
-0.281299
0
LINE
8
BLACK
6
CONTINUOUS
10
0.247638
20
-0.281299
11
0.230906
21
-0.281299
0
LINE
8
BLACK
6
CONTINUOUS
10
0.230906
20
-0.281299
11
0.230906
21
-0.303937
0
LINE
8
BLACK
6
CONTINUOUS
10
0.230906
20
-0.303937
11
0.230838
21
-0.304321
0
LINE
8
BLACK
6
CONTINUOUS
10
0.230838
20
-0.304321
11
0.230861
21
-0.30445
0
LINE
8
BLACK
6
CONTINUOUS
10
0.230861
20
-0.30445
11
0.230795
21
-0.304563
0
LINE
8
BLACK
6
CONTINUOUS
10
0.230795
20
-0.304563
11
0.230727
21
-0.304947
0
LINE
8
BLACK
6
CONTINUOUS
10
0.230727
20
-0.304947
11
0.230234
21
-0.305535
0
LINE
8
BLACK
6
CONTINUOUS
10
0.230234
20
-0.305535
11
0.229851
21
-0.306199
0
LINE
8
BLACK
6
CONTINUOUS
10
0.229851
20
-0.306199
11
0.2296
21
-0.30629
0
LINE
8
BLACK
6
CONTINUOUS
10
0.2296
20
-0.30629
11
0.229429
21
-0.306494
0
LINE
8
BLACK
6
CONTINUOUS
10
0.229429
20
-0.306494
11
0.228674
21
-0.306627
0
LINE
8
BLACK
6
CONTINUOUS
10
0.228674
20
-0.306627
11
0.227953
21
-0.30689
0
LINE
8
BLACK
6
CONTINUOUS
10
0.227953
20
-0.30689
11
0.188583
21
-0.30689
0
LINE
8
BLACK
6
CONTINUOUS
10
0.188583
20
-0.30689
11
0.188199
21
-0.306822
0
LINE
8
BLACK
6
CONTINUOUS
10
0.188199
20
-0.306822
11
0.18807
21
-0.306845
0
LINE
8
BLACK
6
CONTINUOUS
10
0.18807
20
-0.306845
11
0.187956
21
-0.306779
0
LINE
8
BLACK
6
CONTINUOUS
10
0.187956
20
-0.306779
11
0.187573
21
-0.306712
0
LINE
8
BLACK
6
CONTINUOUS
10
0.187573
20
-0.306712
11
0.186985
21
-0.306219
0
LINE
8
BLACK
6
CONTINUOUS
10
0.186985
20
-0.306219
11
0.186321
21
-0.305835
0
LINE
8
BLACK
6
CONTINUOUS
10
0.186321
20
-0.305835
11
0.18623
21
-0.305585
0
LINE
8
BLACK
6
CONTINUOUS
10
0.18623
20
-0.305585
11
0.186026
21
-0.305413
0
LINE
8
BLACK
6
CONTINUOUS
10
0.186026
20
-0.305413
11
0.185892
21
-0.304658
0
LINE
8
BLACK
6
CONTINUOUS
10
0.185892
20
-0.304658
11
0.18563
21
-0.303937
0
LINE
8
BLACK
6
CONTINUOUS
10
0.18563
20
-0.303937
11
0.18563
21
-0.281299
0
LINE
8
BLACK
6
CONTINUOUS
10
0.18563
20
-0.281299
11
0.168898
21
-0.281299
0
LINE
8
BLACK
6
CONTINUOUS
10
0.168898
20
-0.281299
11
0.168514
21
-0.281232
0
LINE
8
BLACK
6
CONTINUOUS
10
0.168514
20
-0.281232
11
0.168385
21
-0.281254
0
LINE
8
BLACK
6
CONTINUOUS
10
0.168385
20
-0.281254
11
0.168271
21
-0.281189
0
LINE
8
BLACK
6
CONTINUOUS
10
0.168271
20
-0.281189
11
0.167888
21
-0.281121
0
LINE
8
BLACK
6
CONTINUOUS
10
0.167888
20
-0.281121
11
0.1673
21
-0.280628
0
LINE
8
BLACK
6
CONTINUOUS
10
0.1673
20
-0.280628
11
0.166636
21
-0.280244
0
LINE
8
BLACK
6
CONTINUOUS
10
0.166636
20
-0.280244
11
0.166545
21
-0.279994
0
LINE
8
BLACK
6
CONTINUOUS
10
0.166545
20
-0.279994
11
0.16634
21
-0.279823
0
LINE
8
BLACK
6
CONTINUOUS
10
0.16634
20
-0.279823
11
0.166207
21
-0.279067
0
LINE
8
BLACK
6
CONTINUOUS
10
0.166207
20
-0.279067
11
0.165945
21
-0.278346
0
LINE
8
BLACK
6
CONTINUOUS
10
0.165945
20
-0.278346
11
0.165945
21
-0.179921
0
LINE
8
BLACK
6
CONTINUOUS
10
0.165945
20
-0.179921
11
0.166012
21
-0.179538
0
LINE
8
BLACK
6
CONTINUOUS
10
0.166012
20
-0.179538
11
0.16599
21
-0.179409
0
LINE
8
BLACK
6
CONTINUOUS
10
0.16599
20
-0.179409
11
0.166055
21
-0.179295
0
LINE
8
BLACK
6
CONTINUOUS
10
0.166055
20
-0.179295
11
0.166123
21
-0.178911
0
LINE
8
BLACK
6
CONTINUOUS
10
0.166123
20
-0.178911
11
0.166616
21
-0.178324
0
LINE
8
BLACK
6
CONTINUOUS
10
0.166616
20
-0.178324
11
0.167
21
-0.177659
0
LINE
8
BLACK
6
CONTINUOUS
10
0.167
20
-0.177659
11
0.16725
21
-0.177568
0
LINE
8
BLACK
6
CONTINUOUS
10
0.16725
20
-0.177568
11
0.167421
21
-0.177364
0
LINE
8
BLACK
6
CONTINUOUS
10
0.167421
20
-0.177364
11
0.168177
21
-0.177231
0
LINE
8
BLACK
6
CONTINUOUS
10
0.168177
20
-0.177231
11
0.168898
21
-0.176969
0
LINE
8
BLACK
6
CONTINUOUS
10
0.168898
20
-0.176969
11
0.18563
21
-0.176969
0
LINE
8
BLACK
6
CONTINUOUS
10
0.18563
20
-0.176969
11
0.18563
21
-0.154331
0
LINE
8
BLACK
6
CONTINUOUS
10
0.18563
20
-0.154331
11
0.185698
21
-0.153947
0
LINE
8
BLACK
6
CONTINUOUS
10
0.185698
20
-0.153947
11
0.185675
21
-0.153818
0
LINE
8
BLACK
6
CONTINUOUS
10
0.185675
20
-0.153818
11
0.18574
21
-0.153704
0
LINE
8
BLACK
6
CONTINUOUS
10
0.18574
20
-0.153704
11
0.185808
21
-0.153321
0
LINE
8
BLACK
6
CONTINUOUS
10
0.185808
20
-0.153321
11
0.186301
21
-0.152733
0
LINE
8
BLACK
6
CONTINUOUS
10
0.186301
20
-0.152733
11
0.186685
21
-0.152069
0
LINE
8
BLACK
6
CONTINUOUS
10
0.186685
20
-0.152069
11
0.186935
21
-0.151978
0
LINE
8
BLACK
6
CONTINUOUS
10
0.186935
20
-0.151978
11
0.187106
21
-0.151774
0
LINE
8
BLACK
6
CONTINUOUS
10
0.187106
20
-0.151774
11
0.187862
21
-0.15164
0
LINE
8
BLACK
6
CONTINUOUS
10
0.187862
20
-0.15164
11
0.188583
21
-0.151378
0
LINE
8
BLACK
6
CONTINUOUS
10
0.188583
20
-0.151378
11
0.227953
21
-0.151378
0
LINE
8
BLACK
6
CONTINUOUS
10
0.227953
20
-0.151378
11
0.228336
21
-0.151446
0
LINE
8
BLACK
6
CONTINUOUS
10
0.191535
20
-0.260038
11
0.191535
21
-0.300984
0
LINE
8
BLACK
6
CONTINUOUS
10
0.191535
20
-0.300984
11
0.225
21
-0.300984
0
LINE
8
BLACK
6
CONTINUOUS
10
0.225
20
-0.300984
11
0.225
21
-0.2695
0
LINE
8
BLACK
6
CONTINUOUS
10
0.225
20
-0.2695
11
0.224383
21
-0.269755
0
LINE
8
BLACK
6
CONTINUOUS
10
0.224383
20
-0.269755
11
0.21523
21
-0.269755
0
LINE
8
BLACK
6
CONTINUOUS
10
0.21523
20
-0.269755
11
0.21523
21
-0.27216
0
LINE
8
BLACK
6
CONTINUOUS
10
0.21523
20
-0.27216
11
0.214451
21
-0.274039
0
LINE
8
BLACK
6
CONTINUOUS
10
0.214451
20
-0.274039
11
0.212572
21
-0.274817
0
LINE
8
BLACK
6
CONTINUOUS
10
0.212572
20
-0.274817
11
0.210693
21
-0.274039
0
LINE
8
BLACK
6
CONTINUOUS
10
0.210693
20
-0.274039
11
0.209915
21
-0.27216
0
LINE
8
BLACK
6
CONTINUOUS
10
0.209915
20
-0.27216
11
0.209915
21
-0.269755
0
LINE
8
BLACK
6
CONTINUOUS
10
0.209915
20
-0.269755
11
0.200761
21
-0.269755
0
LINE
8
BLACK
6
CONTINUOUS
10
0.200761
20
-0.269755
11
0.198882
21
-0.268977
0
LINE
8
BLACK
6
CONTINUOUS
10
0.198882
20
-0.268977
11
0.198104
21
-0.267098
0
LINE
8
BLACK
6
CONTINUOUS
10
0.198104
20
-0.267098
11
0.198882
21
-0.265219
0
LINE
8
BLACK
6
CONTINUOUS
10
0.198882
20
-0.265219
11
0.200761
21
-0.26444
0
LINE
8
BLACK
6
CONTINUOUS
10
0.200761
20
-0.26444
11
0.209915
21
-0.26444
0
LINE
8
BLACK
6
CONTINUOUS
10
0.209915
20
-0.26444
11
0.209915
21
-0.253912
0
LINE
8
BLACK
6
CONTINUOUS
10
0.209915
20
-0.253912
11
0.191535
21
-0.260038
0
LINE
8
BLACK
6
CONTINUOUS
10
0.230906
20
-0.232087
11
0.230906
21
-0.275394
0
LINE
8
BLACK
6
CONTINUOUS
10
0.230906
20
-0.275394
11
0.244685
21
-0.275394
0
LINE
8
BLACK
6
CONTINUOUS
10
0.244685
20
-0.275394
11
0.244685
21
-0.232087
0
LINE
8
BLACK
6
CONTINUOUS
10
0.244685
20
-0.232087
11
0.230906
21
-0.232087
0
LINE
8
BLACK
6
CONTINUOUS
10
0.17185
20
-0.232087
11
0.17185
21
-0.275394
0
LINE
8
BLACK
6
CONTINUOUS
10
0.17185
20
-0.275394
11
0.18563
21
-0.275394
0
LINE
8
BLACK
6
CONTINUOUS
10
0.18563
20
-0.275394
11
0.18563
21
-0.260526
0
LINE
8
BLACK
6
CONTINUOUS
10
0.18563
20
-0.260526
11
0.184742
21
-0.259502
0
LINE
8
BLACK
6
CONTINUOUS
10
0.184742
20
-0.259502
11
0.184886
21
-0.257473
0
LINE
8
BLACK
6
CONTINUOUS
10
0.184886
20
-0.257473
11
0.18563
21
-0.256828
0
LINE
8
BLACK
6
CONTINUOUS
10
0.18563
20
-0.256828
11
0.18563
21
-0.232087
0
LINE
8
BLACK
6
CONTINUOUS
10
0.18563
20
-0.232087
11
0.17185
21
-0.232087
0
LINE
8
BLACK
6
CONTINUOUS
10
0.224383
20
-0.219137
11
0.210168
21
-0.219137
0
LINE
8
BLACK
6
CONTINUOUS
10
0.210168
20
-0.219137
11
0.210168
21
-0.229977
0
LINE
8
BLACK
6
CONTINUOUS
10
0.210168
20
-0.229977
11
0.209931
21
-0.230549
0
LINE
8
BLACK
6
CONTINUOUS
10
0.209931
20
-0.230549
11
0.209887
21
-0.231166
0
LINE
8
BLACK
6
CONTINUOUS
10
0.209887
20
-0.231166
11
0.2082
21
-0.234541
0
LINE
8
BLACK
6
CONTINUOUS
10
0.2082
20
-0.234541
11
0.20787
21
-0.234827
0
LINE
8
BLACK
6
CONTINUOUS
10
0.20787
20
-0.234827
11
0.207702
21
-0.235231
0
LINE
8
BLACK
6
CONTINUOUS
10
0.207702
20
-0.235231
11
0.206015
21
-0.236919
0
LINE
8
BLACK
6
CONTINUOUS
10
0.206015
20
-0.236919
11
0.205611
21
-0.237086
0
LINE
8
BLACK
6
CONTINUOUS
10
0.205611
20
-0.237086
11
0.205324
21
-0.237416
0
LINE
8
BLACK
6
CONTINUOUS
10
0.205324
20
-0.237416
11
0.20195
21
-0.239104
0
LINE
8
BLACK
6
CONTINUOUS
10
0.20195
20
-0.239104
11
0.201333
21
-0.239147
0
LINE
8
BLACK
6
CONTINUOUS
10
0.201333
20
-0.239147
11
0.200761
21
-0.239384
0
LINE
8
BLACK
6
CONTINUOUS
10
0.200761
20
-0.239384
11
0.195699
21
-0.239384
0
LINE
8
BLACK
6
CONTINUOUS
10
0.195699
20
-0.239384
11
0.195128
21
-0.239147
0
LINE
8
BLACK
6
CONTINUOUS
10
0.195128
20
-0.239147
11
0.194511
21
-0.239104
0
LINE
8
BLACK
6
CONTINUOUS
10
0.194511
20
-0.239104
11
0.191535
21
-0.237616
0
LINE
8
BLACK
6
CONTINUOUS
10
0.191535
20
-0.237616
11
0.191535
21
-0.254436
0
LINE
8
BLACK
6
CONTINUOUS
10
0.191535
20
-0.254436
11
0.211732
21
-0.247704
0
LINE
8
BLACK
6
CONTINUOUS
10
0.211732
20
-0.247704
11
0.212168
21
-0.247735
0
LINE
8
BLACK
6
CONTINUOUS
10
0.212168
20
-0.247735
11
0.212572
21
-0.247567
0
LINE
8
BLACK
6
CONTINUOUS
10
0.212572
20
-0.247567
11
0.213144
21
-0.247804
0
LINE
8
BLACK
6
CONTINUOUS
10
0.213144
20
-0.247804
11
0.213761
21
-0.247848
0
LINE
8
BLACK
6
CONTINUOUS
10
0.213761
20
-0.247848
11
0.214047
21
-0.248178
0
LINE
8
BLACK
6
CONTINUOUS
10
0.214047
20
-0.248178
11
0.214451
21
-0.248346
0
LINE
8
BLACK
6
CONTINUOUS
10
0.214451
20
-0.248346
11
0.214688
21
-0.248917
0
LINE
8
BLACK
6
CONTINUOUS
10
0.214688
20
-0.248917
11
0.215093
21
-0.249385
0
LINE
8
BLACK
6
CONTINUOUS
10
0.215093
20
-0.249385
11
0.215062
21
-0.249821
0
LINE
8
BLACK
6
CONTINUOUS
10
0.215062
20
-0.249821
11
0.21523
21
-0.250225
0
LINE
8
BLACK
6
CONTINUOUS
10
0.21523
20
-0.250225
11
0.21523
21
-0.26444
0
LINE
8
BLACK
6
CONTINUOUS
10
0.21523
20
-0.26444
11
0.224383
21
-0.26444
0
LINE
8
BLACK
6
CONTINUOUS
10
0.224383
20
-0.26444
11
0.225
21
-0.264696
0
LINE
8
BLACK
6
CONTINUOUS
10
0.225
20
-0.264696
11
0.225
21
-0.218881
0
LINE
8
BLACK
6
CONTINUOUS
10
0.225
20
-0.218881
11
0.224383
21
-0.219137
0
LINE
8
BLACK
6
CONTINUOUS
10
0.191608
20
-0.22935
11
0.192822
21
-0.231778
0
LINE
8
BLACK
6
CONTINUOUS
10
0.192822
20
-0.231778
11
0.193899
21
-0.232855
0
LINE
8
BLACK
6
CONTINUOUS
10
0.193899
20
-0.232855
11
0.196327
21
-0.234069
0
LINE
8
BLACK
6
CONTINUOUS
10
0.196327
20
-0.234069
11
0.200134
21
-0.234069
0
LINE
8
BLACK
6
CONTINUOUS
10
0.200134
20
-0.234069
11
0.202562
21
-0.232855
0
LINE
8
BLACK
6
CONTINUOUS
10
0.202562
20
-0.232855
11
0.203639
21
-0.231778
0
LINE
8
BLACK
6
CONTINUOUS
10
0.203639
20
-0.231778
11
0.204853
21
-0.22935
0
LINE
8
BLACK
6
CONTINUOUS
10
0.204853
20
-0.22935
11
0.204853
21
-0.219137
0
LINE
8
BLACK
6
CONTINUOUS
10
0.204853
20
-0.219137
11
0.191608
21
-0.219137
0
LINE
8
BLACK
6
CONTINUOUS
10
0.191608
20
-0.219137
11
0.191608
21
-0.22935
0
LINE
8
BLACK
6
CONTINUOUS
10
0.230906
20
-0.182874
11
0.230906
21
-0.226181
0
LINE
8
BLACK
6
CONTINUOUS
10
0.230906
20
-0.226181
11
0.244685
21
-0.226181
0
LINE
8
BLACK
6
CONTINUOUS
10
0.244685
20
-0.226181
11
0.244685
21
-0.182874
0
LINE
8
BLACK
6
CONTINUOUS
10
0.244685
20
-0.182874
11
0.230906
21
-0.182874
0
LINE
8
BLACK
6
CONTINUOUS
10
0.17185
20
-0.182874
11
0.17185
21
-0.226181
0
LINE
8
BLACK
6
CONTINUOUS
10
0.17185
20
-0.226181
11
0.18563
21
-0.226181
0
LINE
8
BLACK
6
CONTINUOUS
10
0.18563
20
-0.226181
11
0.18563
21
-0.182874
0
LINE
8
BLACK
6
CONTINUOUS
10
0.18563
20
-0.182874
11
0.17185
21
-0.182874
0
LINE
8
BLACK
6
CONTINUOUS
10
0.224383
20
-0.197202
11
0.191608
21
-0.197202
0
LINE
8
BLACK
6
CONTINUOUS
10
0.191608
20
-0.197202
11
0.191608
21
-0.204668
0
LINE
8
BLACK
6
CONTINUOUS
10
0.191608
20
-0.204668
11
0.191535
21
-0.204843
0
LINE
8
BLACK
6
CONTINUOUS
10
0.191535
20
-0.204843
11
0.191535
21
-0.213822
0
LINE
8
BLACK
6
CONTINUOUS
10
0.191535
20
-0.213822
11
0.224383
21
-0.213822
0
LINE
8
BLACK
6
CONTINUOUS
10
0.224383
20
-0.213822
11
0.225
21
-0.214077
0
LINE
8
BLACK
6
CONTINUOUS
10
0.225
20
-0.214077
11
0.225
21
-0.196946
0
LINE
8
BLACK
6
CONTINUOUS
10
0.225
20
-0.196946
11
0.224383
21
-0.197202
0
LINE
8
BLACK
6
CONTINUOUS
10
0.191535
20
-0.157283
11
0.191535
21
-0.184246
0
LINE
8
BLACK
6
CONTINUOUS
10
0.191535
20
-0.184246
11
0.191608
21
-0.184421
0
LINE
8
BLACK
6
CONTINUOUS
10
0.191608
20
-0.184421
11
0.191608
21
-0.191887
0
LINE
8
BLACK
6
CONTINUOUS
10
0.191608
20
-0.191887
11
0.224383
21
-0.191887
0
LINE
8
BLACK
6
CONTINUOUS
10
0.224383
20
-0.191887
11
0.225
21
-0.192142
0
LINE
8
BLACK
6
CONTINUOUS
10
0.225
20
-0.192142
11
0.225
21
-0.157283
0
LINE
8
BLACK
6
CONTINUOUS
10
0.225
20
-0.157283
11
0.191535
21
-0.157283
0
LINE
8
BLACK
6
CONTINUOUS
10
0.27776
20
-0.291922
11
0.278026
21
-0.291899
0
LINE
8
BLACK
6
CONTINUOUS
10
0.278026
20
-0.291899
11
0.278654
21
-0.292339
0
LINE
8
BLACK
6
CONTINUOUS
10
0.278654
20
-0.292339
11
0.279349
21
-0.292663
0
LINE
8
BLACK
6
CONTINUOUS
10
0.279349
20
-0.292663
11
0.281224
21
-0.294538
0
LINE
8
BLACK
6
CONTINUOUS
10
0.281224
20
-0.294538
11
0.281447
21
-0.294857
0
LINE
8
BLACK
6
CONTINUOUS
10
0.281447
20
-0.294857
11
0.281555
21
-0.294932
0
LINE
8
BLACK
6
CONTINUOUS
10
0.281555
20
-0.294932
11
0.281589
21
-0.295059
0
LINE
8
BLACK
6
CONTINUOUS
10
0.281589
20
-0.295059
11
0.281594
21
-0.295066
0
LINE
8
BLACK
6
CONTINUOUS
10
0.281594
20
-0.295066
11
0.281693
21
-0.295149
0
LINE
8
BLACK
6
CONTINUOUS
10
0.281693
20
-0.295149
11
0.281707
21
-0.295227
0
LINE
8
BLACK
6
CONTINUOUS
10
0.281707
20
-0.295227
11
0.281812
21
-0.295378
0
LINE
8
BLACK
6
CONTINUOUS
10
0.281812
20
-0.295378
11
0.281879
21
-0.296142
0
LINE
8
BLACK
6
CONTINUOUS
10
0.281879
20
-0.296142
11
0.282078
21
-0.296883
0
LINE
8
BLACK
6
CONTINUOUS
10
0.282078
20
-0.296883
11
0.282021
21
-0.297005
0
LINE
8
BLACK
6
CONTINUOUS
10
0.282021
20
-0.297005
11
0.282044
21
-0.297138
0
LINE
8
BLACK
6
CONTINUOUS
10
0.282044
20
-0.297138
11
0.281976
21
-0.297255
0
LINE
8
BLACK
6
CONTINUOUS
10
0.281976
20
-0.297255
11
0.281988
21
-0.29739
0
LINE
8
BLACK
6
CONTINUOUS
10
0.281988
20
-0.29739
11
0.281548
21
-0.298018
0
LINE
8
BLACK
6
CONTINUOUS
10
0.281548
20
-0.298018
11
0.281224
21
-0.298713
0
LINE
8
BLACK
6
CONTINUOUS
10
0.281224
20
-0.298713
11
0.279349
21
-0.300588
0
LINE
8
BLACK
6
CONTINUOUS
10
0.279349
20
-0.300588
11
0.27903
21
-0.300811
0
LINE
8
BLACK
6
CONTINUOUS
10
0.27903
20
-0.300811
11
0.278955
21
-0.300919
0
LINE
8
BLACK
6
CONTINUOUS
10
0.278955
20
-0.300919
11
0.278828
21
-0.300953
0
LINE
8
BLACK
6
CONTINUOUS
10
0.278828
20
-0.300953
11
0.278509
21
-0.301176
0
LINE
8
BLACK
6
CONTINUOUS
10
0.278509
20
-0.301176
11
0.277745
21
-0.301243
0
LINE
8
BLACK
6
CONTINUOUS
10
0.277745
20
-0.301243
11
0.277004
21
-0.301442
0
LINE
8
BLACK
6
CONTINUOUS
10
0.277004
20
-0.301442
11
0.276763
21
-0.301329
0
LINE
8
BLACK
6
CONTINUOUS
10
0.276763
20
-0.301329
11
0.276497
21
-0.301352
0
LINE
8
BLACK
6
CONTINUOUS
10
0.276497
20
-0.301352
11
0.275869
21
-0.300912
0
LINE
8
BLACK
6
CONTINUOUS
10
0.275869
20
-0.300912
11
0.275173
21
-0.300588
0
LINE
8
BLACK
6
CONTINUOUS
10
0.275173
20
-0.300588
11
0.273299
21
-0.298713
0
LINE
8
BLACK
6
CONTINUOUS
10
0.273299
20
-0.298713
11
0.273075
21
-0.298394
0
LINE
8
BLACK
6
CONTINUOUS
10
0.273075
20
-0.298394
11
0.272968
21
-0.298319
0
LINE
8
BLACK
6
CONTINUOUS
10
0.272968
20
-0.298319
11
0.272934
21
-0.298192
0
LINE
8
BLACK
6
CONTINUOUS
10
0.272934
20
-0.298192
11
0.272929
21
-0.298185
0
LINE
8
BLACK
6
CONTINUOUS
10
0.272929
20
-0.298185
11
0.272829
21
-0.298102
0
LINE
8
BLACK
6
CONTINUOUS
10
0.272829
20
-0.298102
11
0.272816
21
-0.298023
0
LINE
8
BLACK
6
CONTINUOUS
10
0.272816
20
-0.298023
11
0.27271
21
-0.297873
0
LINE
8
BLACK
6
CONTINUOUS
10
0.27271
20
-0.297873
11
0.272644
21
-0.297109
0
LINE
8
BLACK
6
CONTINUOUS
10
0.272644
20
-0.297109
11
0.272445
21
-0.296368
0
LINE
8
BLACK
6
CONTINUOUS
10
0.272445
20
-0.296368
11
0.272502
21
-0.296246
0
LINE
8
BLACK
6
CONTINUOUS
10
0.272502
20
-0.296246
11
0.272479
21
-0.296113
0
LINE
8
BLACK
6
CONTINUOUS
10
0.272479
20
-0.296113
11
0.272546
21
-0.295996
0
LINE
8
BLACK
6
CONTINUOUS
10
0.272546
20
-0.295996
11
0.272534
21
-0.295861
0
LINE
8
BLACK
6
CONTINUOUS
10
0.272534
20
-0.295861
11
0.272974
21
-0.295233
0
LINE
8
BLACK
6
CONTINUOUS
10
0.272974
20
-0.295233
11
0.273299
21
-0.294538
0
LINE
8
BLACK
6
CONTINUOUS
10
0.273299
20
-0.294538
11
0.275173
21
-0.292663
0
LINE
8
BLACK
6
CONTINUOUS
10
0.275173
20
-0.292663
11
0.275492
21
-0.292439
0
LINE
8
BLACK
6
CONTINUOUS
10
0.275492
20
-0.292439
11
0.275568
21
-0.292332
0
LINE
8
BLACK
6
CONTINUOUS
10
0.275568
20
-0.292332
11
0.275694
21
-0.292298
0
LINE
8
BLACK
6
CONTINUOUS
10
0.275694
20
-0.292298
11
0.276013
21
-0.292075
0
LINE
8
BLACK
6
CONTINUOUS
10
0.276013
20
-0.292075
11
0.276778
21
-0.292008
0
LINE
8
BLACK
6
CONTINUOUS
10
0.276778
20
-0.292008
11
0.277519
21
-0.291809
0
LINE
8
BLACK
6
CONTINUOUS
10
0.277519
20
-0.291809
11
0.27776
21
-0.291922
0
LINE
8
BLACK
6
CONTINUOUS
10
0.315767
20
-0.293851
11
0.317314
21
-0.295149
0
LINE
8
BLACK
6
CONTINUOUS
10
0.317314
20
-0.295149
11
0.317665
21
-0.297138
0
LINE
8
BLACK
6
CONTINUOUS
10
0.317665
20
-0.297138
11
0.316655
21
-0.298887
0
LINE
8
BLACK
6
CONTINUOUS
10
0.316655
20
-0.298887
11
0.314757
21
-0.299578
0
LINE
8
BLACK
6
CONTINUOUS
10
0.314757
20
-0.299578
11
0.28851
21
-0.299578
0
LINE
8
BLACK
6
CONTINUOUS
10
0.28851
20
-0.299578
11
0.2875
21
-0.2994
0
LINE
8
BLACK
6
CONTINUOUS
10
0.2875
20
-0.2994
11
0.285953
21
-0.298102
0
LINE
8
BLACK
6
CONTINUOUS
10
0.285953
20
-0.298102
11
0.285602
21
-0.296113
0
LINE
8
BLACK
6
CONTINUOUS
10
0.285602
20
-0.296113
11
0.286612
21
-0.294364
0
LINE
8
BLACK
6
CONTINUOUS
10
0.286612
20
-0.294364
11
0.28851
21
-0.293673
0
LINE
8
BLACK
6
CONTINUOUS
10
0.28851
20
-0.293673
11
0.314757
21
-0.293673
0
LINE
8
BLACK
6
CONTINUOUS
10
0.314757
20
-0.293673
11
0.315767
21
-0.293851
0
LINE
8
BLACK
6
CONTINUOUS
10
0.686055
20
-0.24028
11
0.686225
21
-0.240269
0
LINE
8
BLACK
6
CONTINUOUS
10
0.686225
20
-0.240269
11
0.686915
21
-0.240777
0
LINE
8
BLACK
6
CONTINUOUS
10
0.686915
20
-0.240777
11
0.687657
21
-0.241205
0
LINE
8
BLACK
6
CONTINUOUS
10
0.687657
20
-0.241205
11
0.687716
21
-0.241365
0
LINE
8
BLACK
6
CONTINUOUS
10
0.687716
20
-0.241365
11
0.687852
21
-0.241465
0
LINE
8
BLACK
6
CONTINUOUS
10
0.687852
20
-0.241465
11
0.69144
21
-0.246846
0
LINE
8
BLACK
6
CONTINUOUS
10
0.69144
20
-0.246846
11
0.694644
21
-0.25005
0
LINE
8
BLACK
6
CONTINUOUS
10
0.694644
20
-0.25005
11
0.697965
21
-0.251711
0
LINE
8
BLACK
6
CONTINUOUS
10
0.697965
20
-0.251711
11
0.698788
21
-0.252322
0
LINE
8
BLACK
6
CONTINUOUS
10
0.698788
20
-0.252322
11
0.699592
21
-0.254175
0
LINE
8
BLACK
6
CONTINUOUS
10
0.699592
20
-0.254175
11
0.699016
21
-0.256111
0
LINE
8
BLACK
6
CONTINUOUS
10
0.699016
20
-0.256111
11
0.69733
21
-0.257224
0
LINE
8
BLACK
6
CONTINUOUS
10
0.69733
20
-0.257224
11
0.695324
21
-0.256993
0
LINE
8
BLACK
6
CONTINUOUS
10
0.695324
20
-0.256993
11
0.691574
21
-0.255118
0
LINE
8
BLACK
6
CONTINUOUS
10
0.691574
20
-0.255118
11
0.690865
21
-0.254592
0
LINE
8
BLACK
6
CONTINUOUS
10
0.690865
20
-0.254592
11
0.690807
21
-0.254565
0
LINE
8
BLACK
6
CONTINUOUS
10
0.690807
20
-0.254565
11
0.688348
21
-0.252106
0
LINE
8
BLACK
6
CONTINUOUS
10
0.688348
20
-0.252106
11
0.688348
21
-0.27952
0
LINE
8
BLACK
6
CONTINUOUS
10
0.688348
20
-0.27952
11
0.696644
21
-0.27952
0
LINE
8
BLACK
6
CONTINUOUS
10
0.696644
20
-0.27952
11
0.697654
21
-0.279699
0
LINE
8
BLACK
6
CONTINUOUS
10
0.697654
20
-0.279699
11
0.699201
21
-0.280997
0
LINE
8
BLACK
6
CONTINUOUS
10
0.699201
20
-0.280997
11
0.699552
21
-0.282986
0
LINE
8
BLACK
6
CONTINUOUS
10
0.699552
20
-0.282986
11
0.698542
21
-0.284735
0
LINE
8
BLACK
6
CONTINUOUS
10
0.698542
20
-0.284735
11
0.696644
21
-0.285426
0
LINE
8
BLACK
6
CONTINUOUS
10
0.696644
20
-0.285426
11
0.674147
21
-0.285426
0
LINE
8
BLACK
6
CONTINUOUS
10
0.674147
20
-0.285426
11
0.673137
21
-0.285248
0
LINE
8
BLACK
6
CONTINUOUS
10
0.673137
20
-0.285248
11
0.67159
21
-0.28395
0
LINE
8
BLACK
6
CONTINUOUS
10
0.67159
20
-0.28395
11
0.671239
21
-0.28196
0
LINE
8
BLACK
6
CONTINUOUS
10
0.671239
20
-0.28196
11
0.672249
21
-0.280211
0
LINE
8
BLACK
6
CONTINUOUS
10
0.672249
20
-0.280211
11
0.674147
21
-0.27952
0
LINE
8
BLACK
6
CONTINUOUS
10
0.674147
20
-0.27952
11
0.682443
21
-0.27952
0
LINE
8
BLACK
6
CONTINUOUS
10
0.682443
20
-0.27952
11
0.682443
21
-0.243103
0
LINE
8
BLACK
6
CONTINUOUS
10
0.682443
20
-0.243103
11
0.682621
21
-0.242093
0
LINE
8
BLACK
6
CONTINUOUS
10
0.682621
20
-0.242093
11
0.68273
21
-0.241963
0
LINE
8
BLACK
6
CONTINUOUS
10
0.68273
20
-0.241963
11
0.682749
21
-0.241794
0
LINE
8
BLACK
6
CONTINUOUS
10
0.682749
20
-0.241794
11
0.683368
21
-0.241202
0
LINE
8
BLACK
6
CONTINUOUS
10
0.683368
20
-0.241202
11
0.683919
21
-0.240546
0
LINE
8
BLACK
6
CONTINUOUS
10
0.683919
20
-0.240546
11
0.684086
21
-0.240516
0
LINE
8
BLACK
6
CONTINUOUS
10
0.684086
20
-0.240516
11
0.684209
21
-0.240399
0
LINE
8
BLACK
6
CONTINUOUS
10
0.684209
20
-0.240399
11
0.685064
21
-0.240344
0
LINE
8
BLACK
6
CONTINUOUS
10
0.685064
20
-0.240344
11
0.685908
21
-0.240195
0
LINE
8
BLACK
6
CONTINUOUS
10
0.685908
20
-0.240195
11
0.686055
21
-0.24028
0
LINE
8
BLACK
6
CONTINUOUS
10
0.734523
20
-0.240218
11
0.734652
21
-0.240195
0
LINE
8
BLACK
6
CONTINUOUS
10
0.734652
20
-0.240195
11
0.734766
21
-0.240261
0
LINE
8
BLACK
6
CONTINUOUS
10
0.734766
20
-0.240261
11
0.735149
21
-0.240328
0
LINE
8
BLACK
6
CONTINUOUS
10
0.735149
20
-0.240328
11
0.735737
21
-0.240822
0
LINE
8
BLACK
6
CONTINUOUS
10
0.735737
20
-0.240822
11
0.736401
21
-0.241205
0
LINE
8
BLACK
6
CONTINUOUS
10
0.736401
20
-0.241205
11
0.736492
21
-0.241455
0
LINE
8
BLACK
6
CONTINUOUS
10
0.736492
20
-0.241455
11
0.736697
21
-0.241627
0
LINE
8
BLACK
6
CONTINUOUS
10
0.736697
20
-0.241627
11
0.73683
21
-0.242382
0
LINE
8
BLACK
6
CONTINUOUS
10
0.73683
20
-0.242382
11
0.737092
21
-0.243103
0
LINE
8
BLACK
6
CONTINUOUS
10
0.737092
20
-0.243103
11
0.737092
21
-0.282473
0
LINE
8
BLACK
6
CONTINUOUS
10
0.737092
20
-0.282473
11
0.736914
21
-0.283483
0
LINE
8
BLACK
6
CONTINUOUS
10
0.736914
20
-0.283483
11
0.735616
21
-0.28503
0
LINE
8
BLACK
6
CONTINUOUS
10
0.735616
20
-0.28503
11
0.733627
21
-0.285381
0
LINE
8
BLACK
6
CONTINUOUS
10
0.733627
20
-0.285381
11
0.731878
21
-0.284371
0
LINE
8
BLACK
6
CONTINUOUS
10
0.731878
20
-0.284371
11
0.731187
21
-0.282473
0
LINE
8
BLACK
6
CONTINUOUS
10
0.731187
20
-0.282473
11
0.731187
21
-0.266678
0
LINE
8
BLACK
6
CONTINUOUS
10
0.731187
20
-0.266678
11
0.719141
21
-0.266678
0
LINE
8
BLACK
6
CONTINUOUS
10
0.719141
20
-0.266678
11
0.718131
21
-0.2665
0
LINE
8
BLACK
6
CONTINUOUS
10
0.718131
20
-0.2665
11
0.717996
21
-0.266387
0
LINE
8
BLACK
6
CONTINUOUS
10
0.717996
20
-0.266387
11
0.717821
21
-0.266367
0
LINE
8
BLACK
6
CONTINUOUS
10
0.717821
20
-0.266367
11
0.714071
21
-0.264492
0
LINE
8
BLACK
6
CONTINUOUS
10
0.714071
20
-0.264492
11
0.713362
21
-0.263966
0
LINE
8
BLACK
6
CONTINUOUS
10
0.713362
20
-0.263966
11
0.713304
21
-0.263939
0
LINE
8
BLACK
6
CONTINUOUS
10
0.713304
20
-0.263939
11
0.711429
21
-0.262064
0
LINE
8
BLACK
6
CONTINUOUS
10
0.711429
20
-0.262064
11
0.710923
21
-0.261341
0
LINE
8
BLACK
6
CONTINUOUS
10
0.710923
20
-0.261341
11
0.710876
21
-0.261296
0
LINE
8
BLACK
6
CONTINUOUS
10
0.710876
20
-0.261296
11
0.709001
21
-0.257547
0
LINE
8
BLACK
6
CONTINUOUS
10
0.709001
20
-0.257547
11
0.708709
21
-0.256564
0
LINE
8
BLACK
6
CONTINUOUS
10
0.708709
20
-0.256564
11
0.70875
21
-0.256392
0
LINE
8
BLACK
6
CONTINUOUS
10
0.70875
20
-0.256392
11
0.70869
21
-0.256226
0
LINE
8
BLACK
6
CONTINUOUS
10
0.70869
20
-0.256226
11
0.70869
21
-0.250602
0
LINE
8
BLACK
6
CONTINUOUS
10
0.70869
20
-0.250602
11
0.708868
21
-0.249592
0
LINE
8
BLACK
6
CONTINUOUS
10
0.708868
20
-0.249592
11
0.708981
21
-0.249457
0
LINE
8
BLACK
6
CONTINUOUS
10
0.708981
20
-0.249457
11
0.709001
21
-0.249282
0
LINE
8
BLACK
6
CONTINUOUS
10
0.709001
20
-0.249282
11
0.710876
21
-0.245532
0
LINE
8
BLACK
6
CONTINUOUS
10
0.710876
20
-0.245532
11
0.711402
21
-0.244823
0
LINE
8
BLACK
6
CONTINUOUS
10
0.711402
20
-0.244823
11
0.711429
21
-0.244765
0
LINE
8
BLACK
6
CONTINUOUS
10
0.711429
20
-0.244765
11
0.713304
21
-0.24289
0
LINE
8
BLACK
6
CONTINUOUS
10
0.713304
20
-0.24289
11
0.714027
21
-0.242384
0
LINE
8
BLACK
6
CONTINUOUS
10
0.714027
20
-0.242384
11
0.714071
21
-0.242337
0
LINE
8
BLACK
6
CONTINUOUS
10
0.714071
20
-0.242337
11
0.717821
21
-0.240462
0
LINE
8
BLACK
6
CONTINUOUS
10
0.717821
20
-0.240462
11
0.718804
21
-0.24017
0
LINE
8
BLACK
6
CONTINUOUS
10
0.718804
20
-0.24017
11
0.718975
21
-0.240211
0
LINE
8
BLACK
6
CONTINUOUS
10
0.718975
20
-0.240211
11
0.719141
21
-0.24015
0
LINE
8
BLACK
6
CONTINUOUS
10
0.719141
20
-0.24015
11
0.734139
21
-0.24015
0
LINE
8
BLACK
6
CONTINUOUS
10
0.734139
20
-0.24015
11
0.734523
21
-0.240218
0
LINE
8
BLACK
6
CONTINUOUS
10
0.717141
20
-0.247405
11
0.715944
21
-0.248602
0
LINE
8
BLACK
6
CONTINUOUS
10
0.715944
20
-0.248602
11
0.714595
21
-0.251299
0
LINE
8
BLACK
6
CONTINUOUS
10
0.714595
20
-0.251299
11
0.714595
21
-0.255529
0
LINE
8
BLACK
6
CONTINUOUS
10
0.714595
20
-0.255529
11
0.715944
21
-0.258227
0
LINE
8
BLACK
6
CONTINUOUS
10
0.715944
20
-0.258227
11
0.717141
21
-0.259424
0
LINE
8
BLACK
6
CONTINUOUS
10
0.717141
20
-0.259424
11
0.719838
21
-0.260773
0
LINE
8
BLACK
6
CONTINUOUS
10
0.719838
20
-0.260773
11
0.731187
21
-0.260773
0
LINE
8
BLACK
6
CONTINUOUS
10
0.731187
20
-0.260773
11
0.731187
21
-0.246056
0
LINE
8
BLACK
6
CONTINUOUS
10
0.731187
20
-0.246056
11
0.719838
21
-0.246056
0
LINE
8
BLACK
6
CONTINUOUS
10
0.719838
20
-0.246056
11
0.717141
21
-0.247405
0
LINE
8
BLACK
6
CONTINUOUS
10
0.77077
20
-0.240328
11
0.772317
21
-0.241627
0
LINE
8
BLACK
6
CONTINUOUS
10
0.772317
20
-0.241627
11
0.772668
21
-0.243616
0
LINE
8
BLACK
6
CONTINUOUS
10
0.772668
20
-0.243616
11
0.771658
21
-0.245365
0
LINE
8
BLACK
6
CONTINUOUS
10
0.771658
20
-0.245365
11
0.76976
21
-0.246056
0
LINE
8
BLACK
6
CONTINUOUS
10
0.76976
20
-0.246056
11
0.761464
21
-0.246056
0
LINE
8
BLACK
6
CONTINUOUS
10
0.761464
20
-0.246056
11
0.761464
21
-0.282473
0
LINE
8
BLACK
6
CONTINUOUS
10
0.761464
20
-0.282473
11
0.761286
21
-0.283483
0
LINE
8
BLACK
6
CONTINUOUS
10
0.761286
20
-0.283483
11
0.759988
21
-0.28503
0
LINE
8
BLACK
6
CONTINUOUS
10
0.759988
20
-0.28503
11
0.757999
21
-0.285381
0
LINE
8
BLACK
6
CONTINUOUS
10
0.757999
20
-0.285381
11
0.756249
21
-0.284371
0
LINE
8
BLACK
6
CONTINUOUS
10
0.756249
20
-0.284371
11
0.755559
21
-0.282473
0
LINE
8
BLACK
6
CONTINUOUS
10
0.755559
20
-0.282473
11
0.755559
21
-0.246056
0
LINE
8
BLACK
6
CONTINUOUS
10
0.755559
20
-0.246056
11
0.747263
21
-0.246056
0
LINE
8
BLACK
6
CONTINUOUS
10
0.747263
20
-0.246056
11
0.746253
21
-0.245878
0
LINE
8
BLACK
6
CONTINUOUS
10
0.746253
20
-0.245878
11
0.744706
21
-0.244579
0
LINE
8
BLACK
6
CONTINUOUS
10
0.744706
20
-0.244579
11
0.744355
21
-0.24259
0
LINE
8
BLACK
6
CONTINUOUS
10
0.744355
20
-0.24259
11
0.745365
21
-0.240841
0
LINE
8
BLACK
6
CONTINUOUS
10
0.745365
20
-0.240841
11
0.747263
21
-0.24015
0
LINE
8
BLACK
6
CONTINUOUS
10
0.747263
20
-0.24015
11
0.76976
21
-0.24015
0
LINE
8
BLACK
6
CONTINUOUS
10
0.76976
20
-0.24015
11
0.77077
21
-0.240328
0
LINE
8
BLACK
6
CONTINUOUS
10
0.308267
20
-0.256355
11
0.308403
21
-0.256469
0
LINE
8
BLACK
6
CONTINUOUS
10
0.308403
20
-0.256469
11
0.308578
21
-0.256489
0
LINE
8
BLACK
6
CONTINUOUS
10
0.308578
20
-0.256489
11
0.312328
21
-0.258364
0
LINE
8
BLACK
6
CONTINUOUS
10
0.312328
20
-0.258364
11
0.313037
21
-0.25889
0
LINE
8
BLACK
6
CONTINUOUS
10
0.313037
20
-0.25889
11
0.313095
21
-0.258917
0
LINE
8
BLACK
6
CONTINUOUS
10
0.313095
20
-0.258917
11
0.31497
21
-0.260792
0
LINE
8
BLACK
6
CONTINUOUS
10
0.31497
20
-0.260792
11
0.315476
21
-0.261515
0
LINE
8
BLACK
6
CONTINUOUS
10
0.315476
20
-0.261515
11
0.315523
21
-0.261559
0
LINE
8
BLACK
6
CONTINUOUS
10
0.315523
20
-0.261559
11
0.317398
21
-0.265309
0
LINE
8
BLACK
6
CONTINUOUS
10
0.317398
20
-0.265309
11
0.31769
21
-0.266292
0
LINE
8
BLACK
6
CONTINUOUS
10
0.31769
20
-0.266292
11
0.317649
21
-0.266463
0
LINE
8
BLACK
6
CONTINUOUS
10
0.317649
20
-0.266463
11
0.317709
21
-0.266629
0
LINE
8
BLACK
6
CONTINUOUS
10
0.317709
20
-0.266629
11
0.317709
21
-0.272253
0
LINE
8
BLACK
6
CONTINUOUS
10
0.317709
20
-0.272253
11
0.317531
21
-0.273263
0
LINE
8
BLACK
6
CONTINUOUS
10
0.317531
20
-0.273263
11
0.317418
21
-0.273399
0
LINE
8
BLACK
6
CONTINUOUS
10
0.317418
20
-0.273399
11
0.317398
21
-0.273574
0
LINE
8
BLACK
6
CONTINUOUS
10
0.317398
20
-0.273574
11
0.315523
21
-0.277324
0
LINE
8
BLACK
6
CONTINUOUS
10
0.315523
20
-0.277324
11
0.314997
21
-0.278033
0
LINE
8
BLACK
6
CONTINUOUS
10
0.314997
20
-0.278033
11
0.31497
21
-0.278091
0
LINE
8
BLACK
6
CONTINUOUS
10
0.31497
20
-0.278091
11
0.313095
21
-0.279966
0
LINE
8
BLACK
6
CONTINUOUS
10
0.313095
20
-0.279966
11
0.312372
21
-0.280472
0
LINE
8
BLACK
6
CONTINUOUS
10
0.312372
20
-0.280472
11
0.312328
21
-0.280519
0
LINE
8
BLACK
6
CONTINUOUS
10
0.312328
20
-0.280519
11
0.308578
21
-0.282394
0
LINE
8
BLACK
6
CONTINUOUS
10
0.308578
20
-0.282394
11
0.307595
21
-0.282686
0
LINE
8
BLACK
6
CONTINUOUS
10
0.307595
20
-0.282686
11
0.307423
21
-0.282645
0
LINE
8
BLACK
6
CONTINUOUS
10
0.307423
20
-0.282645
11
0.307258
21
-0.282705
0
LINE
8
BLACK
6
CONTINUOUS
10
0.307258
20
-0.282705
11
0.296009
21
-0.282705
0
LINE
8
BLACK
6
CONTINUOUS
10
0.296009
20
-0.282705
11
0.294999
21
-0.282527
0
LINE
8
BLACK
6
CONTINUOUS
10
0.294999
20
-0.282527
11
0.294864
21
-0.282414
0
LINE
8
BLACK
6
CONTINUOUS
10
0.294864
20
-0.282414
11
0.294688
21
-0.282394
0
LINE
8
BLACK
6
CONTINUOUS
10
0.294688
20
-0.282394
11
0.290939
21
-0.280519
0
LINE
8
BLACK
6
CONTINUOUS
10
0.290939
20
-0.280519
11
0.29023
21
-0.279993
0
LINE
8
BLACK
6
CONTINUOUS
10
0.29023
20
-0.279993
11
0.290172
21
-0.279966
0
LINE
8
BLACK
6
CONTINUOUS
10
0.290172
20
-0.279966
11
0.288297
21
-0.278091
0
LINE
8
BLACK
6
CONTINUOUS
10
0.288297
20
-0.278091
11
0.28779
21
-0.277368
0
LINE
8
BLACK
6
CONTINUOUS
10
0.28779
20
-0.277368
11
0.287744
21
-0.277324
0
LINE
8
BLACK
6
CONTINUOUS
10
0.287744
20
-0.277324
11
0.285869
21
-0.273574
0
LINE
8
BLACK
6
CONTINUOUS
10
0.285869
20
-0.273574
11
0.285577
21
-0.272591
0
LINE
8
BLACK
6
CONTINUOUS
10
0.285577
20
-0.272591
11
0.285618
21
-0.272419
0
LINE
8
BLACK
6
CONTINUOUS
10
0.285618
20
-0.272419
11
0.285557
21
-0.272253
0
LINE
8
BLACK
6
CONTINUOUS
10
0.285557
20
-0.272253
11
0.285557
21
-0.266629
0
LINE
8
BLACK
6
CONTINUOUS
10
0.285557
20
-0.266629
11
0.285735
21
-0.265619
0
LINE
8
BLACK
6
CONTINUOUS
10
0.285735
20
-0.265619
11
0.285849
21
-0.265484
0
LINE
8
BLACK
6
CONTINUOUS
10
0.285849
20
-0.265484
11
0.285869
21
-0.265309
0
LINE
8
BLACK
6
CONTINUOUS
10
0.285869
20
-0.265309
11
0.287744
21
-0.261559
0
LINE
8
BLACK
6
CONTINUOUS
10
0.287744
20
-0.261559
11
0.28827
21
-0.26085
0
LINE
8
BLACK
6
CONTINUOUS
10
0.28827
20
-0.26085
11
0.288297
21
-0.260792
0
LINE
8
BLACK
6
CONTINUOUS
10
0.288297
20
-0.260792
11
0.290172
21
-0.258917
0
LINE
8
BLACK
6
CONTINUOUS
10
0.290172
20
-0.258917
11
0.290895
21
-0.258411
0
LINE
8
BLACK
6
CONTINUOUS
10
0.290895
20
-0.258411
11
0.290939
21
-0.258364
0
LINE
8
BLACK
6
CONTINUOUS
10
0.290939
20
-0.258364
11
0.294688
21
-0.256489
0
LINE
8
BLACK
6
CONTINUOUS
10
0.294688
20
-0.256489
11
0.295671
21
-0.256197
0
LINE
8
BLACK
6
CONTINUOUS
10
0.295671
20
-0.256197
11
0.295843
21
-0.256238
0
LINE
8
BLACK
6
CONTINUOUS
10
0.295843
20
-0.256238
11
0.296009
21
-0.256177
0
LINE
8
BLACK
6
CONTINUOUS
10
0.296009
20
-0.256177
11
0.307258
21
-0.256177
0
LINE
8
BLACK
6
CONTINUOUS
10
0.307258
20
-0.256177
11
0.308267
21
-0.256355
0
LINE
8
BLACK
6
CONTINUOUS
10
0.294009
20
-0.263432
11
0.292811
21
-0.264629
0
LINE
8
BLACK
6
CONTINUOUS
10
0.292811
20
-0.264629
11
0.291463
21
-0.267326
0
LINE
8
BLACK
6
CONTINUOUS
10
0.291463
20
-0.267326
11
0.291463
21
-0.271556
0
LINE
8
BLACK
6
CONTINUOUS
10
0.291463
20
-0.271556
11
0.292811
21
-0.274254
0
LINE
8
BLACK
6
CONTINUOUS
10
0.292811
20
-0.274254
11
0.294009
21
-0.275451
0
LINE
8
BLACK
6
CONTINUOUS
10
0.294009
20
-0.275451
11
0.296706
21
-0.2768
0
LINE
8
BLACK
6
CONTINUOUS
10
0.296706
20
-0.2768
11
0.306561
21
-0.2768
0
LINE
8
BLACK
6
CONTINUOUS
10
0.306561
20
-0.2768
11
0.309258
21
-0.275451
0
LINE
8
BLACK
6
CONTINUOUS
10
0.309258
20
-0.275451
11
0.310455
21
-0.274254
0
LINE
8
BLACK
6
CONTINUOUS
10
0.310455
20
-0.274254
11
0.311804
21
-0.271556
0
LINE
8
BLACK
6
CONTINUOUS
10
0.311804
20
-0.271556
11
0.311804
21
-0.267326
0
LINE
8
BLACK
6
CONTINUOUS
10
0.311804
20
-0.267326
11
0.310455
21
-0.264629
0
LINE
8
BLACK
6
CONTINUOUS
10
0.310455
20
-0.264629
11
0.309258
21
-0.263432
0
LINE
8
BLACK
6
CONTINUOUS
10
0.309258
20
-0.263432
11
0.306561
21
-0.262083
0
LINE
8
BLACK
6
CONTINUOUS
10
0.306561
20
-0.262083
11
0.296706
21
-0.262083
0
LINE
8
BLACK
6
CONTINUOUS
10
0.296706
20
-0.262083
11
0.294009
21
-0.263432
0
LINE
8
BLACK
6
CONTINUOUS
10
0.315767
20
-0.21886
11
0.317314
21
-0.220158
0
LINE
8
BLACK
6
CONTINUOUS
10
0.317314
20
-0.220158
11
0.317665
21
-0.222148
0
LINE
8
BLACK
6
CONTINUOUS
10
0.317665
20
-0.222148
11
0.316655
21
-0.223897
0
LINE
8
BLACK
6
CONTINUOUS
10
0.316655
20
-0.223897
11
0.314757
21
-0.224588
0
LINE
8
BLACK
6
CONTINUOUS
10
0.314757
20
-0.224588
11
0.298962
21
-0.224588
0
LINE
8
BLACK
6
CONTINUOUS
10
0.298962
20
-0.224588
11
0.298962
21
-0.236633
0
LINE
8
BLACK
6
CONTINUOUS
10
0.298962
20
-0.236633
11
0.298784
21
-0.237643
0
LINE
8
BLACK
6
CONTINUOUS
10
0.298784
20
-0.237643
11
0.29867
21
-0.237778
0
LINE
8
BLACK
6
CONTINUOUS
10
0.29867
20
-0.237778
11
0.29865
21
-0.237953
0
LINE
8
BLACK
6
CONTINUOUS
10
0.29865
20
-0.237953
11
0.296775
21
-0.241703
0
LINE
8
BLACK
6
CONTINUOUS
10
0.296775
20
-0.241703
11
0.296249
21
-0.242412
0
LINE
8
BLACK
6
CONTINUOUS
10
0.296249
20
-0.242412
11
0.296222
21
-0.24247
0
LINE
8
BLACK
6
CONTINUOUS
10
0.296222
20
-0.24247
11
0.294347
21
-0.244345
0
LINE
8
BLACK
6
CONTINUOUS
10
0.294347
20
-0.244345
11
0.293624
21
-0.244851
0
LINE
8
BLACK
6
CONTINUOUS
10
0.293624
20
-0.244851
11
0.29358
21
-0.244898
0
LINE
8
BLACK
6
CONTINUOUS
10
0.29358
20
-0.244898
11
0.28983
21
-0.246773
0
LINE
8
BLACK
6
CONTINUOUS
10
0.28983
20
-0.246773
11
0.288847
21
-0.247065
0
LINE
8
BLACK
6
CONTINUOUS
10
0.288847
20
-0.247065
11
0.288676
21
-0.247024
0
LINE
8
BLACK
6
CONTINUOUS
10
0.288676
20
-0.247024
11
0.28851
21
-0.247085
0
LINE
8
BLACK
6
CONTINUOUS
10
0.28851
20
-0.247085
11
0.282886
21
-0.247085
0
LINE
8
BLACK
6
CONTINUOUS
10
0.282886
20
-0.247085
11
0.281876
21
-0.246907
0
LINE
8
BLACK
6
CONTINUOUS
10
0.281876
20
-0.246907
11
0.28174
21
-0.246793
0
LINE
8
BLACK
6
CONTINUOUS
10
0.28174
20
-0.246793
11
0.281565
21
-0.246773
0
LINE
8
BLACK
6
CONTINUOUS
10
0.281565
20
-0.246773
11
0.277816
21
-0.244898
0
LINE
8
BLACK
6
CONTINUOUS
10
0.277816
20
-0.244898
11
0.277106
21
-0.244372
0
LINE
8
BLACK
6
CONTINUOUS
10
0.277106
20
-0.244372
11
0.277048
21
-0.244345
0
LINE
8
BLACK
6
CONTINUOUS
10
0.277048
20
-0.244345
11
0.275173
21
-0.24247
0
LINE
8
BLACK
6
CONTINUOUS
10
0.275173
20
-0.24247
11
0.274667
21
-0.241747
0
LINE
8
BLACK
6
CONTINUOUS
10
0.274667
20
-0.241747
11
0.27462
21
-0.241703
0
LINE
8
BLACK
6
CONTINUOUS
10
0.27462
20
-0.241703
11
0.272746
21
-0.237953
0
LINE
8
BLACK
6
CONTINUOUS
10
0.272746
20
-0.237953
11
0.272453
21
-0.23697
0
LINE
8
BLACK
6
CONTINUOUS
10
0.272453
20
-0.23697
11
0.272494
21
-0.236799
0
LINE
8
BLACK
6
CONTINUOUS
10
0.272494
20
-0.236799
11
0.272434
21
-0.236633
0
LINE
8
BLACK
6
CONTINUOUS
10
0.272434
20
-0.236633
11
0.272434
21
-0.221635
0
LINE
8
BLACK
6
CONTINUOUS
10
0.272434
20
-0.221635
11
0.272501
21
-0.221251
0
LINE
8
BLACK
6
CONTINUOUS
10
0.272501
20
-0.221251
11
0.272479
21
-0.221122
0
LINE
8
BLACK
6
CONTINUOUS
10
0.272479
20
-0.221122
11
0.272544
21
-0.221008
0
LINE
8
BLACK
6
CONTINUOUS
10
0.272544
20
-0.221008
11
0.272612
21
-0.220625
0
LINE
8
BLACK
6
CONTINUOUS
10
0.272612
20
-0.220625
11
0.273105
21
-0.220037
0
LINE
8
BLACK
6
CONTINUOUS
10
0.273105
20
-0.220037
11
0.273489
21
-0.219373
0
LINE
8
BLACK
6
CONTINUOUS
10
0.273489
20
-0.219373
11
0.273739
21
-0.219282
0
LINE
8
BLACK
6
CONTINUOUS
10
0.273739
20
-0.219282
11
0.27391
21
-0.219078
0
LINE
8
BLACK
6
CONTINUOUS
10
0.27391
20
-0.219078
11
0.274666
21
-0.218944
0
LINE
8
BLACK
6
CONTINUOUS
10
0.274666
20
-0.218944
11
0.275387
21
-0.218682
0
LINE
8
BLACK
6
CONTINUOUS
10
0.275387
20
-0.218682
11
0.314757
21
-0.218682
0
LINE
8
BLACK
6
CONTINUOUS
10
0.314757
20
-0.218682
11
0.315767
21
-0.21886
0
LINE
8
BLACK
6
CONTINUOUS
10
0.278339
20
-0.235936
11
0.279688
21
-0.238633
0
LINE
8
BLACK
6
CONTINUOUS
10
0.279688
20
-0.238633
11
0.280885
21
-0.23983
0
LINE
8
BLACK
6
CONTINUOUS
10
0.280885
20
-0.23983
11
0.283583
21
-0.241179
0
LINE
8
BLACK
6
CONTINUOUS
10
0.283583
20
-0.241179
11
0.287813
21
-0.241179
0
LINE
8
BLACK
6
CONTINUOUS
10
0.287813
20
-0.241179
11
0.29051
21
-0.23983
0
LINE
8
BLACK
6
CONTINUOUS
10
0.29051
20
-0.23983
11
0.291707
21
-0.238633
0
LINE
8
BLACK
6
CONTINUOUS
10
0.291707
20
-0.238633
11
0.293056
21
-0.235936
0
LINE
8
BLACK
6
CONTINUOUS
10
0.293056
20
-0.235936
11
0.293056
21
-0.224588
0
LINE
8
BLACK
6
CONTINUOUS
10
0.293056
20
-0.224588
11
0.278339
21
-0.224588
0
LINE
8
BLACK
6
CONTINUOUS
10
0.278339
20
-0.224588
11
0.278339
21
-0.235936
0
LINE
8
BLACK
6
CONTINUOUS
10
0.290772
20
-0.191615
11
0.291463
21
-0.193513
0
LINE
8
BLACK
6
CONTINUOUS
10
0.291463
20
-0.193513
11
0.291463
21
-0.196185
0
LINE
8
BLACK
6
CONTINUOUS
10
0.291463
20
-0.196185
11
0.309132
21
-0.196185
0
LINE
8
BLACK
6
CONTINUOUS
10
0.309132
20
-0.196185
11
0.310142
21
-0.196363
0
LINE
8
BLACK
6
CONTINUOUS
10
0.310142
20
-0.196363
11
0.310277
21
-0.196476
0
LINE
8
BLACK
6
CONTINUOUS
10
0.310277
20
-0.196476
11
0.310453
21
-0.196497
0
LINE
8
BLACK
6
CONTINUOUS
10
0.310453
20
-0.196497
11
0.314202
21
-0.198371
0
LINE
8
BLACK
6
CONTINUOUS
10
0.314202
20
-0.198371
11
0.315026
21
-0.198982
0
LINE
8
BLACK
6
CONTINUOUS
10
0.315026
20
-0.198982
11
0.315202
21
-0.199388
0
LINE
8
BLACK
6
CONTINUOUS
10
0.315202
20
-0.199388
11
0.315523
21
-0.199692
0
LINE
8
BLACK
6
CONTINUOUS
10
0.315523
20
-0.199692
11
0.317398
21
-0.203441
0
LINE
8
BLACK
6
CONTINUOUS
10
0.317398
20
-0.203441
11
0.31769
21
-0.204424
0
LINE
8
BLACK
6
CONTINUOUS
10
0.31769
20
-0.204424
11
0.317649
21
-0.204596
0
LINE
8
BLACK
6
CONTINUOUS
10
0.317649
20
-0.204596
11
0.317709
21
-0.204762
0
LINE
8
BLACK
6
CONTINUOUS
10
0.317709
20
-0.204762
11
0.317709
21
-0.208511
0
LINE
8
BLACK
6
CONTINUOUS
10
0.317709
20
-0.208511
11
0.317531
21
-0.209521
0
LINE
8
BLACK
6
CONTINUOUS
10
0.317531
20
-0.209521
11
0.316233
21
-0.211069
0
LINE
8
BLACK
6
CONTINUOUS
10
0.316233
20
-0.211069
11
0.314244
21
-0.211419
0
LINE
8
BLACK
6
CONTINUOUS
10
0.314244
20
-0.211419
11
0.312495
21
-0.210409
0
LINE
8
BLACK
6
CONTINUOUS
10
0.312495
20
-0.210409
11
0.311804
21
-0.208511
0
LINE
8
BLACK
6
CONTINUOUS
10
0.311804
20
-0.208511
11
0.311804
21
-0.205459
0
LINE
8
BLACK
6
CONTINUOUS
10
0.311804
20
-0.205459
11
0.310681
21
-0.203213
0
LINE
8
BLACK
6
CONTINUOUS
10
0.310681
20
-0.203213
11
0.308435
21
-0.20209
0
LINE
8
BLACK
6
CONTINUOUS
10
0.308435
20
-0.20209
11
0.291463
21
-0.20209
0
LINE
8
BLACK
6
CONTINUOUS
10
0.291463
20
-0.20209
11
0.291463
21
-0.208511
0
LINE
8
BLACK
6
CONTINUOUS
10
0.291463
20
-0.208511
11
0.291285
21
-0.209521
0
LINE
8
BLACK
6
CONTINUOUS
10
0.291285
20
-0.209521
11
0.289986
21
-0.211069
0
LINE
8
BLACK
6
CONTINUOUS
10
0.289986
20
-0.211069
11
0.287997
21
-0.211419
0
LINE
8
BLACK
6
CONTINUOUS
10
0.287997
20
-0.211419
11
0.286248
21
-0.210409
0
LINE
8
BLACK
6
CONTINUOUS
10
0.286248
20
-0.210409
11
0.285557
21
-0.208511
0
LINE
8
BLACK
6
CONTINUOUS
10
0.285557
20
-0.208511
11
0.285557
21
-0.20209
0
LINE
8
BLACK
6
CONTINUOUS
10
0.285557
20
-0.20209
11
0.275387
21
-0.20209
0
LINE
8
BLACK
6
CONTINUOUS
10
0.275387
20
-0.20209
11
0.274377
21
-0.201912
0
LINE
8
BLACK
6
CONTINUOUS
10
0.274377
20
-0.201912
11
0.272829
21
-0.200614
0
LINE
8
BLACK
6
CONTINUOUS
10
0.272829
20
-0.200614
11
0.272479
21
-0.198625
0
LINE
8
BLACK
6
CONTINUOUS
10
0.272479
20
-0.198625
11
0.273489
21
-0.196876
0
LINE
8
BLACK
6
CONTINUOUS
10
0.273489
20
-0.196876
11
0.275387
21
-0.196185
0
LINE
8
BLACK
6
CONTINUOUS
10
0.275387
20
-0.196185
11
0.285557
21
-0.196185
0
LINE
8
BLACK
6
CONTINUOUS
10
0.285557
20
-0.196185
11
0.285557
21
-0.193513
0
LINE
8
BLACK
6
CONTINUOUS
10
0.285557
20
-0.193513
11
0.285735
21
-0.192503
0
LINE
8
BLACK
6
CONTINUOUS
10
0.285735
20
-0.192503
11
0.287034
21
-0.190956
0
LINE
8
BLACK
6
CONTINUOUS
10
0.287034
20
-0.190956
11
0.289023
21
-0.190605
0
LINE
8
BLACK
6
CONTINUOUS
10
0.289023
20
-0.190605
11
0.290772
21
-0.191615
0
LINE
8
BLACK
6
CONTINUOUS
10
0.297019
20
-0.162617
11
0.297154
21
-0.162731
0
LINE
8
BLACK
6
CONTINUOUS
10
0.297154
20
-0.162731
11
0.297329
21
-0.162751
0
LINE
8
BLACK
6
CONTINUOUS
10
0.297329
20
-0.162751
11
0.301079
21
-0.164626
0
LINE
8
BLACK
6
CONTINUOUS
10
0.301079
20
-0.164626
11
0.301903
21
-0.165236
0
LINE
8
BLACK
6
CONTINUOUS
10
0.301903
20
-0.165236
11
0.302079
21
-0.165642
0
LINE
8
BLACK
6
CONTINUOUS
10
0.302079
20
-0.165642
11
0.3024
21
-0.165946
0
LINE
8
BLACK
6
CONTINUOUS
10
0.3024
20
-0.165946
11
0.304274
21
-0.169696
0
LINE
8
BLACK
6
CONTINUOUS
10
0.304274
20
-0.169696
11
0.304567
21
-0.170679
0
LINE
8
BLACK
6
CONTINUOUS
10
0.304567
20
-0.170679
11
0.304526
21
-0.17085
0
LINE
8
BLACK
6
CONTINUOUS
10
0.304526
20
-0.17085
11
0.304586
21
-0.171016
0
LINE
8
BLACK
6
CONTINUOUS
10
0.304586
20
-0.171016
11
0.304586
21
-0.175943
0
LINE
8
BLACK
6
CONTINUOUS
10
0.304586
20
-0.175943
11
0.305709
21
-0.178189
0
LINE
8
BLACK
6
CONTINUOUS
10
0.305709
20
-0.178189
11
0.307955
21
-0.179312
0
LINE
8
BLACK
6
CONTINUOUS
10
0.307955
20
-0.179312
11
0.308435
21
-0.179312
0
LINE
8
BLACK
6
CONTINUOUS
10
0.308435
20
-0.179312
11
0.310681
21
-0.178189
0
LINE
8
BLACK
6
CONTINUOUS
10
0.310681
20
-0.178189
11
0.311804
21
-0.175943
0
LINE
8
BLACK
6
CONTINUOUS
10
0.311804
20
-0.175943
11
0.311804
21
-0.169838
0
LINE
8
BLACK
6
CONTINUOUS
10
0.311804
20
-0.169838
11
0.310241
21
-0.166712
0
LINE
8
BLACK
6
CONTINUOUS
10
0.310241
20
-0.166712
11
0.309949
21
-0.165729
0
LINE
8
BLACK
6
CONTINUOUS
10
0.309949
20
-0.165729
11
0.310418
21
-0.163765
0
LINE
8
BLACK
6
CONTINUOUS
10
0.310418
20
-0.163765
11
0.31204
21
-0.162562
0
LINE
8
BLACK
6
CONTINUOUS
10
0.31204
20
-0.162562
11
0.314056
21
-0.162683
0
LINE
8
BLACK
6
CONTINUOUS
10
0.314056
20
-0.162683
11
0.315523
21
-0.164071
0
LINE
8
BLACK
6
CONTINUOUS
10
0.315523
20
-0.164071
11
0.317398
21
-0.167821
0
LINE
8
BLACK
6
CONTINUOUS
10
0.317398
20
-0.167821
11
0.31769
21
-0.168804
0
LINE
8
BLACK
6
CONTINUOUS
10
0.31769
20
-0.168804
11
0.317649
21
-0.168975
0
LINE
8
BLACK
6
CONTINUOUS
10
0.317649
20
-0.168975
11
0.317709
21
-0.169141
0
LINE
8
BLACK
6
CONTINUOUS
10
0.317709
20
-0.169141
11
0.317709
21
-0.17664
0
LINE
8
BLACK
6
CONTINUOUS
10
0.317709
20
-0.17664
11
0.317531
21
-0.17765
0
LINE
8
BLACK
6
CONTINUOUS
10
0.317531
20
-0.17765
11
0.317418
21
-0.177786
0
LINE
8
BLACK
6
CONTINUOUS
10
0.317418
20
-0.177786
11
0.317398
21
-0.177961
0
LINE
8
BLACK
6
CONTINUOUS
10
0.317398
20
-0.177961
11
0.315523
21
-0.18171
0
LINE
8
BLACK
6
CONTINUOUS
10
0.315523
20
-0.18171
11
0.314912
21
-0.182534
0
LINE
8
BLACK
6
CONTINUOUS
10
0.314912
20
-0.182534
11
0.314506
21
-0.18271
0
LINE
8
BLACK
6
CONTINUOUS
10
0.314506
20
-0.18271
11
0.314202
21
-0.183031
0
LINE
8
BLACK
6
CONTINUOUS
10
0.314202
20
-0.183031
11
0.310453
21
-0.184906
0
LINE
8
BLACK
6
CONTINUOUS
10
0.310453
20
-0.184906
11
0.30947
21
-0.185198
0
LINE
8
BLACK
6
CONTINUOUS
10
0.30947
20
-0.185198
11
0.309298
21
-0.185157
0
LINE
8
BLACK
6
CONTINUOUS
10
0.309298
20
-0.185157
11
0.309132
21
-0.185217
0
LINE
8
BLACK
6
CONTINUOUS
10
0.309132
20
-0.185217
11
0.307258
21
-0.185217
0
LINE
8
BLACK
6
CONTINUOUS
10
0.307258
20
-0.185217
11
0.306248
21
-0.185039
0
LINE
8
BLACK
6
CONTINUOUS
10
0.306248
20
-0.185039
11
0.306112
21
-0.184926
0
LINE
8
BLACK
6
CONTINUOUS
10
0.306112
20
-0.184926
11
0.305937
21
-0.184906
0
LINE
8
BLACK
6
CONTINUOUS
10
0.305937
20
-0.184906
11
0.302188
21
-0.183031
0
LINE
8
BLACK
6
CONTINUOUS
10
0.302188
20
-0.183031
11
0.301364
21
-0.18242
0
LINE
8
BLACK
6
CONTINUOUS
10
0.301364
20
-0.18242
11
0.301188
21
-0.182014
0
LINE
8
BLACK
6
CONTINUOUS
10
0.301188
20
-0.182014
11
0.300867
21
-0.18171
0
LINE
8
BLACK
6
CONTINUOUS
10
0.300867
20
-0.18171
11
0.298992
21
-0.177961
0
LINE
8
BLACK
6
CONTINUOUS
10
0.298992
20
-0.177961
11
0.2987
21
-0.176978
0
LINE
8
BLACK
6
CONTINUOUS
10
0.2987
20
-0.176978
11
0.298741
21
-0.176806
0
LINE
8
BLACK
6
CONTINUOUS
10
0.298741
20
-0.176806
11
0.298681
21
-0.17664
0
LINE
8
BLACK
6
CONTINUOUS
10
0.298681
20
-0.17664
11
0.298681
21
-0.171713
0
LINE
8
BLACK
6
CONTINUOUS
10
0.298681
20
-0.171713
11
0.297558
21
-0.169467
0
LINE
8
BLACK
6
CONTINUOUS
10
0.297558
20
-0.169467
11
0.295312
21
-0.168345
0
LINE
8
BLACK
6
CONTINUOUS
10
0.295312
20
-0.168345
11
0.294831
21
-0.168345
0
LINE
8
BLACK
6
CONTINUOUS
10
0.294831
20
-0.168345
11
0.292586
21
-0.169467
0
LINE
8
BLACK
6
CONTINUOUS
10
0.292586
20
-0.169467
11
0.291463
21
-0.171713
0
LINE
8
BLACK
6
CONTINUOUS
10
0.291463
20
-0.171713
11
0.291463
21
-0.175943
0
LINE
8
BLACK
6
CONTINUOUS
10
0.291463
20
-0.175943
11
0.293026
21
-0.179069
0
LINE
8
BLACK
6
CONTINUOUS
10
0.293026
20
-0.179069
11
0.293318
21
-0.180052
0
LINE
8
BLACK
6
CONTINUOUS
10
0.293318
20
-0.180052
11
0.292849
21
-0.182017
0
LINE
8
BLACK
6
CONTINUOUS
10
0.292849
20
-0.182017
11
0.291226
21
-0.18322
0
LINE
8
BLACK
6
CONTINUOUS
10
0.291226
20
-0.18322
11
0.28921
21
-0.183099
0
LINE
8
BLACK
6
CONTINUOUS
10
0.28921
20
-0.183099
11
0.287744
21
-0.18171
0
LINE
8
BLACK
6
CONTINUOUS
10
0.287744
20
-0.18171
11
0.285869
21
-0.177961
0
LINE
8
BLACK
6
CONTINUOUS
10
0.285869
20
-0.177961
11
0.285577
21
-0.176978
0
LINE
8
BLACK
6
CONTINUOUS
10
0.285577
20
-0.176978
11
0.285618
21
-0.176806
0
LINE
8
BLACK
6
CONTINUOUS
10
0.285618
20
-0.176806
11
0.285557
21
-0.17664
0
LINE
8
BLACK
6
CONTINUOUS
10
0.285557
20
-0.17664
11
0.285557
21
-0.171016
0
LINE
8
BLACK
6
CONTINUOUS
10
0.285557
20
-0.171016
11
0.285735
21
-0.170006
0
LINE
8
BLACK
6
CONTINUOUS
10
0.285735
20
-0.170006
11
0.285849
21
-0.169871
0
LINE
8
BLACK
6
CONTINUOUS
10
0.285849
20
-0.169871
11
0.285869
21
-0.169696
0
LINE
8
BLACK
6
CONTINUOUS
10
0.285869
20
-0.169696
11
0.287744
21
-0.165946
0
LINE
8
BLACK
6
CONTINUOUS
10
0.287744
20
-0.165946
11
0.288355
21
-0.165122
0
LINE
8
BLACK
6
CONTINUOUS
10
0.288355
20
-0.165122
11
0.28876
21
-0.164947
0
LINE
8
BLACK
6
CONTINUOUS
10
0.28876
20
-0.164947
11
0.289064
21
-0.164626
0
LINE
8
BLACK
6
CONTINUOUS
10
0.289064
20
-0.164626
11
0.292814
21
-0.162751
0
LINE
8
BLACK
6
CONTINUOUS
10
0.292814
20
-0.162751
11
0.293797
21
-0.162458
0
LINE
8
BLACK
6
CONTINUOUS
10
0.293797
20
-0.162458
11
0.293968
21
-0.162499
0
LINE
8
BLACK
6
CONTINUOUS
10
0.293968
20
-0.162499
11
0.294134
21
-0.162439
0
LINE
8
BLACK
6
CONTINUOUS
10
0.294134
20
-0.162439
11
0.296009
21
-0.162439
0
LINE
8
BLACK
6
CONTINUOUS
10
0.296009
20
-0.162439
11
0.297019
21
-0.162617
0
LINE
8
BLACK
6
CONTINUOUS
10
0.310142
20
-0.128871
11
0.310277
21
-0.128985
0
LINE
8
BLACK
6
CONTINUOUS
10
0.310277
20
-0.128985
11
0.310453
21
-0.129005
0
LINE
8
BLACK
6
CONTINUOUS
10
0.310453
20
-0.129005
11
0.314202
21
-0.13088
0
LINE
8
BLACK
6
CONTINUOUS
10
0.314202
20
-0.13088
11
0.315026
21
-0.131491
0
LINE
8
BLACK
6
CONTINUOUS
10
0.315026
20
-0.131491
11
0.315202
21
-0.131896
0
LINE
8
BLACK
6
CONTINUOUS
10
0.315202
20
-0.131896
11
0.315523
21
-0.1322
0
LINE
8
BLACK
6
CONTINUOUS
10
0.315523
20
-0.1322
11
0.317398
21
-0.13595
0
LINE
8
BLACK
6
CONTINUOUS
10
0.317398
20
-0.13595
11
0.31769
21
-0.136933
0
LINE
8
BLACK
6
CONTINUOUS
10
0.31769
20
-0.136933
11
0.317649
21
-0.137104
0
LINE
8
BLACK
6
CONTINUOUS
10
0.317649
20
-0.137104
11
0.317709
21
-0.13727
0
LINE
8
BLACK
6
CONTINUOUS
10
0.317709
20
-0.13727
11
0.317709
21
-0.144769
0
LINE
8
BLACK
6
CONTINUOUS
10
0.317709
20
-0.144769
11
0.317531
21
-0.145779
0
LINE
8
BLACK
6
CONTINUOUS
10
0.317531
20
-0.145779
11
0.317418
21
-0.145915
0
LINE
8
BLACK
6
CONTINUOUS
10
0.317418
20
-0.145915
11
0.317398
21
-0.14609
0
LINE
8
BLACK
6
CONTINUOUS
10
0.317398
20
-0.14609
11
0.315523
21
-0.149839
0
LINE
8
BLACK
6
CONTINUOUS
10
0.315523
20
-0.149839
11
0.314912
21
-0.150663
0
LINE
8
BLACK
6
CONTINUOUS
10
0.314912
20
-0.150663
11
0.313059
21
-0.151466
0
LINE
8
BLACK
6
CONTINUOUS
10
0.313059
20
-0.151466
11
0.311123
21
-0.150891
0
LINE
8
BLACK
6
CONTINUOUS
10
0.311123
20
-0.150891
11
0.31001
21
-0.149205
0
LINE
8
BLACK
6
CONTINUOUS
10
0.31001
20
-0.149205
11
0.310241
21
-0.147198
0
LINE
8
BLACK
6
CONTINUOUS
10
0.310241
20
-0.147198
11
0.311804
21
-0.144072
0
LINE
8
BLACK
6
CONTINUOUS
10
0.311804
20
-0.144072
11
0.311804
21
-0.137967
0
LINE
8
BLACK
6
CONTINUOUS
10
0.311804
20
-0.137967
11
0.310681
21
-0.135722
0
LINE
8
BLACK
6
CONTINUOUS
10
0.310681
20
-0.135722
11
0.308435
21
-0.134599
0
LINE
8
BLACK
6
CONTINUOUS
10
0.308435
20
-0.134599
11
0.304054
21
-0.134599
0
LINE
8
BLACK
6
CONTINUOUS
10
0.304054
20
-0.134599
11
0.300779
21
-0.150973
0
LINE
8
BLACK
6
CONTINUOUS
10
0.300779
20
-0.150973
11
0.300406
21
-0.151928
0
LINE
8
BLACK
6
CONTINUOUS
10
0.300406
20
-0.151928
11
0.300026
21
-0.152233
0
LINE
8
BLACK
6
CONTINUOUS
10
0.300026
20
-0.152233
11
0.299782
21
-0.152656
0
LINE
8
BLACK
6
CONTINUOUS
10
0.299782
20
-0.152656
11
0.299262
21
-0.152845
0
LINE
8
BLACK
6
CONTINUOUS
10
0.299262
20
-0.152845
11
0.29883
21
-0.153191
0
LINE
8
BLACK
6
CONTINUOUS
10
0.29883
20
-0.153191
11
0.298342
21
-0.15318
0
LINE
8
BLACK
6
CONTINUOUS
10
0.298342
20
-0.15318
11
0.297884
21
-0.153346
0
LINE
8
BLACK
6
CONTINUOUS
10
0.297884
20
-0.153346
11
0.294134
21
-0.153346
0
LINE
8
BLACK
6
CONTINUOUS
10
0.294134
20
-0.153346
11
0.293124
21
-0.153168
0
LINE
8
BLACK
6
CONTINUOUS
10
0.293124
20
-0.153168
11
0.292989
21
-0.153055
0
LINE
8
BLACK
6
CONTINUOUS
10
0.292989
20
-0.153055
11
0.292814
21
-0.153035
0
LINE
8
BLACK
6
CONTINUOUS
10
0.292814
20
-0.153035
11
0.289064
21
-0.15116
0
LINE
8
BLACK
6
CONTINUOUS
10
0.289064
20
-0.15116
11
0.288241
21
-0.150549
0
LINE
8
BLACK
6
CONTINUOUS
10
0.288241
20
-0.150549
11
0.288065
21
-0.150143
0
LINE
8
BLACK
6
CONTINUOUS
10
0.288065
20
-0.150143
11
0.287744
21
-0.149839
0
LINE
8
BLACK
6
CONTINUOUS
10
0.287744
20
-0.149839
11
0.285869
21
-0.14609
0
LINE
8
BLACK
6
CONTINUOUS
10
0.285869
20
-0.14609
11
0.285577
21
-0.145107
0
LINE
8
BLACK
6
CONTINUOUS
10
0.285577
20
-0.145107
11
0.285618
21
-0.144935
0
LINE
8
BLACK
6
CONTINUOUS
10
0.285618
20
-0.144935
11
0.285557
21
-0.144769
0
LINE
8
BLACK
6
CONTINUOUS
10
0.285557
20
-0.144769
11
0.285557
21
-0.13727
0
LINE
8
BLACK
6
CONTINUOUS
10
0.285557
20
-0.13727
11
0.285735
21
-0.13626
0
LINE
8
BLACK
6
CONTINUOUS
10
0.285735
20
-0.13626
11
0.285849
21
-0.136125
0
LINE
8
BLACK
6
CONTINUOUS
10
0.285849
20
-0.136125
11
0.285869
21
-0.13595
0
LINE
8
BLACK
6
CONTINUOUS
10
0.285869
20
-0.13595
11
0.287744
21
-0.1322
0
LINE
8
BLACK
6
CONTINUOUS
10
0.287744
20
-0.1322
11
0.288355
21
-0.131377
0
LINE
8
BLACK
6
CONTINUOUS
10
0.288355
20
-0.131377
11
0.28876
21
-0.131201
0
LINE
8
BLACK
6
CONTINUOUS
10
0.28876
20
-0.131201
11
0.289064
21
-0.13088
0
LINE
8
BLACK
6
CONTINUOUS
10
0.289064
20
-0.13088
11
0.292814
21
-0.129005
0
LINE
8
BLACK
6
CONTINUOUS
10
0.292814
20
-0.129005
11
0.293797
21
-0.128713
0
LINE
8
BLACK
6
CONTINUOUS
10
0.293797
20
-0.128713
11
0.293968
21
-0.128754
0
LINE
8
BLACK
6
CONTINUOUS
10
0.293968
20
-0.128754
11
0.294134
21
-0.128693
0
LINE
8
BLACK
6
CONTINUOUS
10
0.294134
20
-0.128693
11
0.309132
21
-0.128693
0
LINE
8
BLACK
6
CONTINUOUS
10
0.309132
20
-0.128693
11
0.310142
21
-0.128871
0
LINE
8
BLACK
6
CONTINUOUS
10
0.292586
20
-0.135722
11
0.291463
21
-0.137967
0
LINE
8
BLACK
6
CONTINUOUS
10
0.291463
20
-0.137967
11
0.291463
21
-0.144072
0
LINE
8
BLACK
6
CONTINUOUS
10
0.291463
20
-0.144072
11
0.292586
21
-0.146318
0
LINE
8
BLACK
6
CONTINUOUS
10
0.292586
20
-0.146318
11
0.294831
21
-0.147441
0
LINE
8
BLACK
6
CONTINUOUS
10
0.294831
20
-0.147441
11
0.295463
21
-0.147441
0
LINE
8
BLACK
6
CONTINUOUS
10
0.295463
20
-0.147441
11
0.298031
21
-0.134599
0
LINE
8
BLACK
6
CONTINUOUS
10
0.298031
20
-0.134599
11
0.294831
21
-0.134599
0
LINE
8
BLACK
6
CONTINUOUS
10
0.294831
20
-0.134599
11
0.292586
21
-0.135722
0
LINE
8
BLACK
6
CONTINUOUS
10
0.277649
20
-0.0960022
11
0.278339
21
-0.0979002
0
LINE
8
BLACK
6
CONTINUOUS
10
0.278339
20
-0.0979002
11
0.278339
21
-0.106196
0
LINE
8
BLACK
6
CONTINUOUS
10
0.278339
20
-0.106196
11
0.314757
21
-0.106196
0
LINE
8
BLACK
6
CONTINUOUS
10
0.314757
20
-0.106196
11
0.315767
21
-0.106374
0
LINE
8
BLACK
6
CONTINUOUS
10
0.315767
20
-0.106374
11
0.317314
21
-0.107672
0
LINE
8
BLACK
6
CONTINUOUS
10
0.317314
20
-0.107672
11
0.317665
21
-0.109662
0
LINE
8
BLACK
6
CONTINUOUS
10
0.317665
20
-0.109662
11
0.316655
21
-0.111411
0
LINE
8
BLACK
6
CONTINUOUS
10
0.316655
20
-0.111411
11
0.314757
21
-0.112102
0
LINE
8
BLACK
6
CONTINUOUS
10
0.314757
20
-0.112102
11
0.278339
21
-0.112102
0
LINE
8
BLACK
6
CONTINUOUS
10
0.278339
20
-0.112102
11
0.278339
21
-0.120397
0
LINE
8
BLACK
6
CONTINUOUS
10
0.278339
20
-0.120397
11
0.278161
21
-0.121407
0
LINE
8
BLACK
6
CONTINUOUS
10
0.278161
20
-0.121407
11
0.276863
21
-0.122955
0
LINE
8
BLACK
6
CONTINUOUS
10
0.276863
20
-0.122955
11
0.274874
21
-0.123305
0
LINE
8
BLACK
6
CONTINUOUS
10
0.274874
20
-0.123305
11
0.273125
21
-0.122295
0
LINE
8
BLACK
6
CONTINUOUS
10
0.273125
20
-0.122295
11
0.272434
21
-0.120397
0
LINE
8
BLACK
6
CONTINUOUS
10
0.272434
20
-0.120397
11
0.272434
21
-0.0979002
0
LINE
8
BLACK
6
CONTINUOUS
10
0.272434
20
-0.0979002
11
0.272612
21
-0.0968903
0
LINE
8
BLACK
6
CONTINUOUS
10
0.272612
20
-0.0968903
11
0.27391
21
-0.0953431
0
LINE
8
BLACK
6
CONTINUOUS
10
0.27391
20
-0.0953431
11
0.275899
21
-0.0949923
0
LINE
8
BLACK
6
CONTINUOUS
10
0.275899
20
-0.0949923
11
0.277649
21
-0.0960022
  0
ENDSEC
  0
EOF
