  0
SECTION
  2
HEADER
  9
$ANGBASE
  50
0.0
  9
$ANGDIR
  70
1
  9
$MEASUREMENT
  70
0
  0
ENDSEC
  0
SECTION
  2
TABLES
  0
TABLE
  2
LTYPE
  70
4
  0
LTYPE
  5
40F
  2
CONTINUOUS
  70
0
  3
Solid line
  72
65
  73
0
  40
0.0
  0
LTYPE
  5
410
  2
DASHDOT
 70
0
  3
Dash Dot ____ _ ____ _
 72
65
 73
4
 40
2.0
 49
1.25
 49
-0.25
 49
0.25
 49
-0.25
  0
LTYPE
  5
411
  2
DASHED
 70
0
  3
Dashed __ __ __ __ __
 72
65
 73
2
 40
0.75
 49
0.5
 49
-0.25
  0
LTYPE
  5
43B
  2
DOTTED
 70
0
  3
Dotted .  .  .  .
 72
65
 73
2
 40
0.2
 49
0.0
 49
-0.2
  0
ENDTAB
  0
TABLE
  2
STYLE
  70
4
  0
STYLE
  2
KICAD
  70
0
  40
0
  41
1
  42
1
  50
0
  71
0
  3
isocp.shx
  0
STYLE
  2
KICADB
  70
0
  40
0
  41
1
  42
1
  50
0
  71
0
  3
isocp.shx
  0
STYLE
  2
KICADI
  70
0
  40
0
  41
1
  42
1
  50
15
  71
0
  3
isocp.shx
  0
STYLE
  2
KICADBI
  70
0
  40
0
  41
1
  42
1
  50
15
  71
0
  3
isocp.shx
  0
ENDTAB
  0
TABLE
  2
LAYER
  70
1
  0
LAYER
  2
BLACK
  70
0
  62
7
  6
CONTINUOUS
  0
ENDTAB
  0
ENDSEC
  0
SECTION
  2
ENTITIES
0
LINE
8
BLACK
6
CONTINUOUS
10
4.37301
20
-4.3398
11
4.37706
21
-4.32638
0
LINE
8
BLACK
6
CONTINUOUS
10
4.37706
20
-4.32638
11
4.38258
21
-4.31349
0
LINE
8
BLACK
6
CONTINUOUS
10
4.38258
20
-4.31349
11
4.38951
21
-4.3013
0
LINE
8
BLACK
6
CONTINUOUS
10
4.38951
20
-4.3013
11
4.39775
21
-4.28995
0
LINE
8
BLACK
6
CONTINUOUS
10
4.39775
20
-4.28995
11
4.40721
21
-4.2796
0
LINE
8
BLACK
6
CONTINUOUS
10
4.40721
20
-4.2796
11
4.41776
21
-4.27036
0
LINE
8
BLACK
6
CONTINUOUS
10
4.41776
20
-4.27036
11
4.42927
21
-4.26236
0
LINE
8
BLACK
6
CONTINUOUS
10
4.42927
20
-4.26236
11
4.44161
21
-4.25569
0
LINE
8
BLACK
6
CONTINUOUS
10
4.44161
20
-4.25569
11
4.45461
21
-4.25044
0
LINE
8
BLACK
6
CONTINUOUS
10
4.45461
20
-4.25044
11
4.46812
21
-4.24667
0
LINE
8
BLACK
6
CONTINUOUS
10
4.46812
20
-4.24667
11
4.48196
21
-4.24442
0
LINE
8
BLACK
6
CONTINUOUS
10
4.48196
20
-4.24442
11
4.49596
21
-4.24374
0
LINE
8
BLACK
6
CONTINUOUS
10
4.49596
20
-4.24374
11
4.50996
21
-4.24462
0
LINE
8
BLACK
6
CONTINUOUS
10
4.50996
20
-4.24462
11
4.52377
21
-4.24705
0
LINE
8
BLACK
6
CONTINUOUS
10
4.52377
20
-4.24705
11
4.53722
21
-4.25101
0
LINE
8
BLACK
6
CONTINUOUS
10
4.53722
20
-4.25101
11
4.55015
21
-4.25645
0
LINE
8
BLACK
6
CONTINUOUS
10
4.55015
20
-4.25645
11
4.56239
21
-4.26329
0
LINE
8
BLACK
6
CONTINUOUS
10
4.56239
20
-4.26329
11
4.57379
21
-4.27145
0
LINE
8
BLACK
6
CONTINUOUS
10
4.57379
20
-4.27145
11
4.58421
21
-4.28083
0
LINE
8
BLACK
6
CONTINUOUS
10
4.58421
20
-4.28083
11
4.59352
21
-4.29132
0
LINE
8
BLACK
6
CONTINUOUS
10
4.59352
20
-4.29132
11
4.6016
21
-4.30278
0
LINE
8
BLACK
6
CONTINUOUS
10
4.6016
20
-4.30278
11
4.60836
21
-4.31507
0
LINE
8
BLACK
6
CONTINUOUS
10
4.60836
20
-4.31507
11
4.6137
21
-4.32803
0
LINE
8
BLACK
6
CONTINUOUS
10
4.6137
20
-4.32803
11
4.61756
21
-4.34151
0
LINE
8
BLACK
6
CONTINUOUS
10
4.61756
20
-4.34151
11
4.6199
21
-4.35534
0
LINE
8
BLACK
6
CONTINUOUS
10
4.6199
20
-4.35534
11
4.62069
21
-4.36934
0
LINE
8
BLACK
6
CONTINUOUS
10
4.62069
20
-4.36934
11
4.62064
21
-4.37284
0
LINE
8
BLACK
6
CONTINUOUS
10
4.62064
20
-4.37284
11
4.61946
21
-4.38682
0
LINE
8
BLACK
6
CONTINUOUS
10
4.61946
20
-4.38682
11
4.61674
21
-4.40057
0
LINE
8
BLACK
6
CONTINUOUS
10
4.61674
20
-4.40057
11
4.6125
21
-4.41394
0
LINE
8
BLACK
6
CONTINUOUS
10
4.6125
20
-4.41394
11
4.6068
21
-4.42675
0
LINE
8
BLACK
6
CONTINUOUS
10
4.6068
20
-4.42675
11
4.5997
21
-4.43884
0
LINE
8
BLACK
6
CONTINUOUS
10
4.5997
20
-4.43884
11
4.5913
21
-4.45007
0
LINE
8
BLACK
6
CONTINUOUS
10
4.5913
20
-4.45007
11
4.5817
21
-4.46029
0
LINE
8
BLACK
6
CONTINUOUS
10
4.5817
20
-4.46029
11
4.57102
21
-4.46938
0
LINE
8
BLACK
6
CONTINUOUS
10
4.57102
20
-4.46938
11
4.5594
21
-4.47722
0
LINE
8
BLACK
6
CONTINUOUS
10
4.5594
20
-4.47722
11
4.54697
21
-4.48372
0
LINE
8
BLACK
6
CONTINUOUS
10
4.54697
20
-4.48372
11
4.5339
21
-4.48879
0
LINE
8
BLACK
6
CONTINUOUS
10
4.5339
20
-4.48879
11
4.52034
21
-4.49237
0
LINE
8
BLACK
6
CONTINUOUS
10
4.52034
20
-4.49237
11
4.50647
21
-4.49442
0
LINE
8
BLACK
6
CONTINUOUS
10
4.50647
20
-4.49442
11
4.49246
21
-4.49491
0
LINE
8
BLACK
6
CONTINUOUS
10
4.49246
20
-4.49491
11
4.47847
21
-4.49383
0
LINE
8
BLACK
6
CONTINUOUS
10
4.47847
20
-4.49383
11
4.4647
21
-4.49121
0
LINE
8
BLACK
6
CONTINUOUS
10
4.4647
20
-4.49121
11
4.45131
21
-4.48706
0
LINE
8
BLACK
6
CONTINUOUS
10
4.45131
20
-4.48706
11
4.43846
21
-4.48145
0
LINE
8
BLACK
6
CONTINUOUS
10
4.43846
20
-4.48145
11
4.42631
21
-4.47443
0
LINE
8
BLACK
6
CONTINUOUS
10
4.42631
20
-4.47443
11
4.41503
21
-4.46611
0
LINE
8
BLACK
6
CONTINUOUS
10
4.41503
20
-4.46611
11
4.40474
21
-4.45659
0
LINE
8
BLACK
6
CONTINUOUS
10
4.40474
20
-4.45659
11
4.39557
21
-4.44597
0
LINE
8
BLACK
6
CONTINUOUS
10
4.39557
20
-4.44597
11
4.38765
21
-4.4344
0
LINE
8
BLACK
6
CONTINUOUS
10
4.38765
20
-4.4344
11
4.38107
21
-4.42202
0
LINE
8
BLACK
6
CONTINUOUS
10
4.38107
20
-4.42202
11
4.37591
21
-4.40898
0
LINE
8
BLACK
6
CONTINUOUS
10
4.37591
20
-4.40898
11
4.37223
21
-4.39545
0
LINE
8
BLACK
6
CONTINUOUS
10
4.37223
20
-4.39545
11
4.37009
21
-4.38159
0
LINE
8
BLACK
6
CONTINUOUS
10
4.37009
20
-4.38159
11
4.3695
21
-4.36758
0
LINE
8
BLACK
6
CONTINUOUS
10
4.3695
20
-4.36758
11
4.36962
21
-4.36586
0
LINE
8
BLACK
6
CONTINUOUS
10
4.36962
20
-4.36586
11
4.37048
21
-4.35359
0
LINE
8
BLACK
6
CONTINUOUS
10
4.37048
20
-4.35359
11
4.37301
21
-4.3398
0
LINE
8
BLACK
6
CONTINUOUS
10
4.38648
20
-4.39123
11
4.38972
21
-4.40357
0
LINE
8
BLACK
6
CONTINUOUS
10
4.38972
20
-4.40357
11
4.39435
21
-4.41546
0
LINE
8
BLACK
6
CONTINUOUS
10
4.39435
20
-4.41546
11
4.40032
21
-4.42673
0
LINE
8
BLACK
6
CONTINUOUS
10
4.40032
20
-4.42673
11
4.40755
21
-4.43724
0
LINE
8
BLACK
6
CONTINUOUS
10
4.40755
20
-4.43724
11
4.41593
21
-4.44685
0
LINE
8
BLACK
6
CONTINUOUS
10
4.41593
20
-4.44685
11
4.42537
21
-4.45543
0
LINE
8
BLACK
6
CONTINUOUS
10
4.42537
20
-4.45543
11
4.43572
21
-4.46288
0
LINE
8
BLACK
6
CONTINUOUS
10
4.43572
20
-4.46288
11
4.44687
21
-4.46908
0
LINE
8
BLACK
6
CONTINUOUS
10
4.44687
20
-4.46908
11
4.45865
21
-4.47396
0
LINE
8
BLACK
6
CONTINUOUS
10
4.45865
20
-4.47396
11
4.47092
21
-4.47746
0
LINE
8
BLACK
6
CONTINUOUS
10
4.47092
20
-4.47746
11
4.48351
21
-4.47952
0
LINE
8
BLACK
6
CONTINUOUS
10
4.48351
20
-4.47952
11
4.49625
21
-4.48012
0
LINE
8
BLACK
6
CONTINUOUS
10
4.49625
20
-4.48012
11
4.50897
21
-4.47925
0
LINE
8
BLACK
6
CONTINUOUS
10
4.50897
20
-4.47925
11
4.52151
21
-4.47693
0
LINE
8
BLACK
6
CONTINUOUS
10
4.52151
20
-4.47693
11
4.5337
21
-4.47318
0
LINE
8
BLACK
6
CONTINUOUS
10
4.5337
20
-4.47318
11
4.54538
21
-4.46805
0
LINE
8
BLACK
6
CONTINUOUS
10
4.54538
20
-4.46805
11
4.55639
21
-4.46161
0
LINE
8
BLACK
6
CONTINUOUS
10
4.55639
20
-4.46161
11
4.56659
21
-4.45396
0
LINE
8
BLACK
6
CONTINUOUS
10
4.56659
20
-4.45396
11
4.57585
21
-4.44518
0
LINE
8
BLACK
6
CONTINUOUS
10
4.57585
20
-4.44518
11
4.58403
21
-4.43539
0
LINE
8
BLACK
6
CONTINUOUS
10
4.58403
20
-4.43539
11
4.59103
21
-4.42473
0
LINE
8
BLACK
6
CONTINUOUS
10
4.59103
20
-4.42473
11
4.59676
21
-4.41334
0
LINE
8
BLACK
6
CONTINUOUS
10
4.59676
20
-4.41334
11
4.60114
21
-4.40136
0
LINE
8
BLACK
6
CONTINUOUS
10
4.60114
20
-4.40136
11
4.60412
21
-4.38896
0
LINE
8
BLACK
6
CONTINUOUS
10
4.60412
20
-4.38896
11
4.60565
21
-4.37629
0
LINE
8
BLACK
6
CONTINUOUS
10
4.60565
20
-4.37629
11
4.60587
21
-4.36934
0
LINE
8
BLACK
6
CONTINUOUS
10
4.60587
20
-4.36934
11
4.60514
21
-4.3566
0
LINE
8
BLACK
6
CONTINUOUS
10
4.60514
20
-4.3566
11
4.60295
21
-4.34404
0
LINE
8
BLACK
6
CONTINUOUS
10
4.60295
20
-4.34404
11
4.59932
21
-4.33181
0
LINE
8
BLACK
6
CONTINUOUS
10
4.59932
20
-4.33181
11
4.59432
21
-4.32008
0
LINE
8
BLACK
6
CONTINUOUS
10
4.59432
20
-4.32008
11
4.588
21
-4.309
0
LINE
8
BLACK
6
CONTINUOUS
10
4.588
20
-4.309
11
4.58045
21
-4.29872
0
LINE
8
BLACK
6
CONTINUOUS
10
4.58045
20
-4.29872
11
4.57177
21
-4.28937
0
LINE
8
BLACK
6
CONTINUOUS
10
4.57177
20
-4.28937
11
4.56207
21
-4.28109
0
LINE
8
BLACK
6
CONTINUOUS
10
4.56207
20
-4.28109
11
4.55148
21
-4.27398
0
LINE
8
BLACK
6
CONTINUOUS
10
4.55148
20
-4.27398
11
4.54015
21
-4.26813
0
LINE
8
BLACK
6
CONTINUOUS
10
4.54015
20
-4.26813
11
4.52822
21
-4.26362
0
LINE
8
BLACK
6
CONTINUOUS
10
4.52822
20
-4.26362
11
4.51585
21
-4.26051
0
LINE
8
BLACK
6
CONTINUOUS
10
4.51585
20
-4.26051
11
4.5032
21
-4.25885
0
LINE
8
BLACK
6
CONTINUOUS
10
4.5032
20
-4.25885
11
4.49045
21
-4.25865
0
LINE
8
BLACK
6
CONTINUOUS
10
4.49045
20
-4.25865
11
4.47775
21
-4.25991
0
LINE
8
BLACK
6
CONTINUOUS
10
4.47775
20
-4.25991
11
4.46529
21
-4.26263
0
LINE
8
BLACK
6
CONTINUOUS
10
4.46529
20
-4.26263
11
4.45323
21
-4.26676
0
LINE
8
BLACK
6
CONTINUOUS
10
4.45323
20
-4.26676
11
4.44171
21
-4.27225
0
LINE
8
BLACK
6
CONTINUOUS
10
4.44171
20
-4.27225
11
4.43091
21
-4.27903
0
LINE
8
BLACK
6
CONTINUOUS
10
4.43091
20
-4.27903
11
4.42095
21
-4.28701
0
LINE
8
BLACK
6
CONTINUOUS
10
4.42095
20
-4.28701
11
4.41198
21
-4.29607
0
LINE
8
BLACK
6
CONTINUOUS
10
4.41198
20
-4.29607
11
4.40411
21
-4.30611
0
LINE
8
BLACK
6
CONTINUOUS
10
4.40411
20
-4.30611
11
4.39745
21
-4.31698
0
LINE
8
BLACK
6
CONTINUOUS
10
4.39745
20
-4.31698
11
4.39208
21
-4.32855
0
LINE
8
BLACK
6
CONTINUOUS
10
4.39208
20
-4.32855
11
4.38807
21
-4.34066
0
LINE
8
BLACK
6
CONTINUOUS
10
4.38807
20
-4.34066
11
4.38549
21
-4.35315
0
LINE
8
BLACK
6
CONTINUOUS
10
4.38549
20
-4.35315
11
4.38435
21
-4.36586
0
LINE
8
BLACK
6
CONTINUOUS
10
4.38435
20
-4.36586
11
4.38469
21
-4.37861
0
LINE
8
BLACK
6
CONTINUOUS
10
4.38469
20
-4.37861
11
4.38648
21
-4.39123
0
LINE
8
BLACK
6
CONTINUOUS
10
4.37301
20
-2.7398
11
4.37706
21
-2.72638
0
LINE
8
BLACK
6
CONTINUOUS
10
4.37706
20
-2.72638
11
4.38258
21
-2.71349
0
LINE
8
BLACK
6
CONTINUOUS
10
4.38258
20
-2.71349
11
4.38951
21
-2.7013
0
LINE
8
BLACK
6
CONTINUOUS
10
4.38951
20
-2.7013
11
4.39775
21
-2.68995
0
LINE
8
BLACK
6
CONTINUOUS
10
4.39775
20
-2.68995
11
4.40721
21
-2.6796
0
LINE
8
BLACK
6
CONTINUOUS
10
4.40721
20
-2.6796
11
4.41776
21
-2.67036
0
LINE
8
BLACK
6
CONTINUOUS
10
4.41776
20
-2.67036
11
4.42927
21
-2.66236
0
LINE
8
BLACK
6
CONTINUOUS
10
4.42927
20
-2.66236
11
4.44161
21
-2.65569
0
LINE
8
BLACK
6
CONTINUOUS
10
4.44161
20
-2.65569
11
4.45461
21
-2.65044
0
LINE
8
BLACK
6
CONTINUOUS
10
4.45461
20
-2.65044
11
4.46812
21
-2.64667
0
LINE
8
BLACK
6
CONTINUOUS
10
4.46812
20
-2.64667
11
4.48196
21
-2.64442
0
LINE
8
BLACK
6
CONTINUOUS
10
4.48196
20
-2.64442
11
4.49596
21
-2.64374
0
LINE
8
BLACK
6
CONTINUOUS
10
4.49596
20
-2.64374
11
4.50996
21
-2.64462
0
LINE
8
BLACK
6
CONTINUOUS
10
4.50996
20
-2.64462
11
4.52377
21
-2.64705
0
LINE
8
BLACK
6
CONTINUOUS
10
4.52377
20
-2.64705
11
4.53722
21
-2.65101
0
LINE
8
BLACK
6
CONTINUOUS
10
4.53722
20
-2.65101
11
4.55015
21
-2.65645
0
LINE
8
BLACK
6
CONTINUOUS
10
4.55015
20
-2.65645
11
4.56239
21
-2.66329
0
LINE
8
BLACK
6
CONTINUOUS
10
4.56239
20
-2.66329
11
4.57379
21
-2.67145
0
LINE
8
BLACK
6
CONTINUOUS
10
4.57379
20
-2.67145
11
4.58421
21
-2.68083
0
LINE
8
BLACK
6
CONTINUOUS
10
4.58421
20
-2.68083
11
4.59352
21
-2.69132
0
LINE
8
BLACK
6
CONTINUOUS
10
4.59352
20
-2.69132
11
4.6016
21
-2.70278
0
LINE
8
BLACK
6
CONTINUOUS
10
4.6016
20
-2.70278
11
4.60836
21
-2.71507
0
LINE
8
BLACK
6
CONTINUOUS
10
4.60836
20
-2.71507
11
4.6137
21
-2.72803
0
LINE
8
BLACK
6
CONTINUOUS
10
4.6137
20
-2.72803
11
4.61756
21
-2.74151
0
LINE
8
BLACK
6
CONTINUOUS
10
4.61756
20
-2.74151
11
4.6199
21
-2.75534
0
LINE
8
BLACK
6
CONTINUOUS
10
4.6199
20
-2.75534
11
4.62069
21
-2.76934
0
LINE
8
BLACK
6
CONTINUOUS
10
4.62069
20
-2.76934
11
4.62064
21
-2.77284
0
LINE
8
BLACK
6
CONTINUOUS
10
4.62064
20
-2.77284
11
4.61946
21
-2.78682
0
LINE
8
BLACK
6
CONTINUOUS
10
4.61946
20
-2.78682
11
4.61674
21
-2.80057
0
LINE
8
BLACK
6
CONTINUOUS
10
4.61674
20
-2.80057
11
4.6125
21
-2.81394
0
LINE
8
BLACK
6
CONTINUOUS
10
4.6125
20
-2.81394
11
4.6068
21
-2.82675
0
LINE
8
BLACK
6
CONTINUOUS
10
4.6068
20
-2.82675
11
4.5997
21
-2.83884
0
LINE
8
BLACK
6
CONTINUOUS
10
4.5997
20
-2.83884
11
4.5913
21
-2.85007
0
LINE
8
BLACK
6
CONTINUOUS
10
4.5913
20
-2.85007
11
4.5817
21
-2.86029
0
LINE
8
BLACK
6
CONTINUOUS
10
4.5817
20
-2.86029
11
4.57102
21
-2.86938
0
LINE
8
BLACK
6
CONTINUOUS
10
4.57102
20
-2.86938
11
4.5594
21
-2.87722
0
LINE
8
BLACK
6
CONTINUOUS
10
4.5594
20
-2.87722
11
4.54697
21
-2.88372
0
LINE
8
BLACK
6
CONTINUOUS
10
4.54697
20
-2.88372
11
4.5339
21
-2.88879
0
LINE
8
BLACK
6
CONTINUOUS
10
4.5339
20
-2.88879
11
4.52034
21
-2.89237
0
LINE
8
BLACK
6
CONTINUOUS
10
4.52034
20
-2.89237
11
4.50647
21
-2.89442
0
LINE
8
BLACK
6
CONTINUOUS
10
4.50647
20
-2.89442
11
4.49246
21
-2.89491
0
LINE
8
BLACK
6
CONTINUOUS
10
4.49246
20
-2.89491
11
4.47847
21
-2.89383
0
LINE
8
BLACK
6
CONTINUOUS
10
4.47847
20
-2.89383
11
4.4647
21
-2.89121
0
LINE
8
BLACK
6
CONTINUOUS
10
4.4647
20
-2.89121
11
4.45131
21
-2.88706
0
LINE
8
BLACK
6
CONTINUOUS
10
4.45131
20
-2.88706
11
4.43846
21
-2.88145
0
LINE
8
BLACK
6
CONTINUOUS
10
4.43846
20
-2.88145
11
4.42631
21
-2.87443
0
LINE
8
BLACK
6
CONTINUOUS
10
4.42631
20
-2.87443
11
4.41503
21
-2.86611
0
LINE
8
BLACK
6
CONTINUOUS
10
4.41503
20
-2.86611
11
4.40474
21
-2.85659
0
LINE
8
BLACK
6
CONTINUOUS
10
4.40474
20
-2.85659
11
4.39557
21
-2.84597
0
LINE
8
BLACK
6
CONTINUOUS
10
4.39557
20
-2.84597
11
4.38765
21
-2.8344
0
LINE
8
BLACK
6
CONTINUOUS
10
4.38765
20
-2.8344
11
4.38107
21
-2.82202
0
LINE
8
BLACK
6
CONTINUOUS
10
4.38107
20
-2.82202
11
4.37591
21
-2.80898
0
LINE
8
BLACK
6
CONTINUOUS
10
4.37591
20
-2.80898
11
4.37223
21
-2.79545
0
LINE
8
BLACK
6
CONTINUOUS
10
4.37223
20
-2.79545
11
4.37009
21
-2.78159
0
LINE
8
BLACK
6
CONTINUOUS
10
4.37009
20
-2.78159
11
4.3695
21
-2.76758
0
LINE
8
BLACK
6
CONTINUOUS
10
4.3695
20
-2.76758
11
4.36962
21
-2.76586
0
LINE
8
BLACK
6
CONTINUOUS
10
4.36962
20
-2.76586
11
4.37048
21
-2.75359
0
LINE
8
BLACK
6
CONTINUOUS
10
4.37048
20
-2.75359
11
4.37301
21
-2.7398
0
LINE
8
BLACK
6
CONTINUOUS
10
4.38648
20
-2.79123
11
4.38972
21
-2.80357
0
LINE
8
BLACK
6
CONTINUOUS
10
4.38972
20
-2.80357
11
4.39435
21
-2.81546
0
LINE
8
BLACK
6
CONTINUOUS
10
4.39435
20
-2.81546
11
4.40032
21
-2.82673
0
LINE
8
BLACK
6
CONTINUOUS
10
4.40032
20
-2.82673
11
4.40755
21
-2.83724
0
LINE
8
BLACK
6
CONTINUOUS
10
4.40755
20
-2.83724
11
4.41593
21
-2.84685
0
LINE
8
BLACK
6
CONTINUOUS
10
4.41593
20
-2.84685
11
4.42537
21
-2.85543
0
LINE
8
BLACK
6
CONTINUOUS
10
4.42537
20
-2.85543
11
4.43572
21
-2.86288
0
LINE
8
BLACK
6
CONTINUOUS
10
4.43572
20
-2.86288
11
4.44687
21
-2.86908
0
LINE
8
BLACK
6
CONTINUOUS
10
4.44687
20
-2.86908
11
4.45865
21
-2.87396
0
LINE
8
BLACK
6
CONTINUOUS
10
4.45865
20
-2.87396
11
4.47092
21
-2.87746
0
LINE
8
BLACK
6
CONTINUOUS
10
4.47092
20
-2.87746
11
4.48351
21
-2.87952
0
LINE
8
BLACK
6
CONTINUOUS
10
4.48351
20
-2.87952
11
4.49625
21
-2.88012
0
LINE
8
BLACK
6
CONTINUOUS
10
4.49625
20
-2.88012
11
4.50897
21
-2.87925
0
LINE
8
BLACK
6
CONTINUOUS
10
4.50897
20
-2.87925
11
4.52151
21
-2.87693
0
LINE
8
BLACK
6
CONTINUOUS
10
4.52151
20
-2.87693
11
4.5337
21
-2.87318
0
LINE
8
BLACK
6
CONTINUOUS
10
4.5337
20
-2.87318
11
4.54538
21
-2.86805
0
LINE
8
BLACK
6
CONTINUOUS
10
4.54538
20
-2.86805
11
4.55639
21
-2.86161
0
LINE
8
BLACK
6
CONTINUOUS
10
4.55639
20
-2.86161
11
4.56659
21
-2.85396
0
LINE
8
BLACK
6
CONTINUOUS
10
4.56659
20
-2.85396
11
4.57585
21
-2.84518
0
LINE
8
BLACK
6
CONTINUOUS
10
4.57585
20
-2.84518
11
4.58403
21
-2.83539
0
LINE
8
BLACK
6
CONTINUOUS
10
4.58403
20
-2.83539
11
4.59103
21
-2.82473
0
LINE
8
BLACK
6
CONTINUOUS
10
4.59103
20
-2.82473
11
4.59676
21
-2.81334
0
LINE
8
BLACK
6
CONTINUOUS
10
4.59676
20
-2.81334
11
4.60114
21
-2.80136
0
LINE
8
BLACK
6
CONTINUOUS
10
4.60114
20
-2.80136
11
4.60412
21
-2.78896
0
LINE
8
BLACK
6
CONTINUOUS
10
4.60412
20
-2.78896
11
4.60565
21
-2.77629
0
LINE
8
BLACK
6
CONTINUOUS
10
4.60565
20
-2.77629
11
4.60587
21
-2.76934
0
LINE
8
BLACK
6
CONTINUOUS
10
4.60587
20
-2.76934
11
4.60514
21
-2.7566
0
LINE
8
BLACK
6
CONTINUOUS
10
4.60514
20
-2.7566
11
4.60295
21
-2.74404
0
LINE
8
BLACK
6
CONTINUOUS
10
4.60295
20
-2.74404
11
4.59932
21
-2.73181
0
LINE
8
BLACK
6
CONTINUOUS
10
4.59932
20
-2.73181
11
4.59432
21
-2.72008
0
LINE
8
BLACK
6
CONTINUOUS
10
4.59432
20
-2.72008
11
4.588
21
-2.709
0
LINE
8
BLACK
6
CONTINUOUS
10
4.588
20
-2.709
11
4.58045
21
-2.69872
0
LINE
8
BLACK
6
CONTINUOUS
10
4.58045
20
-2.69872
11
4.57177
21
-2.68937
0
LINE
8
BLACK
6
CONTINUOUS
10
4.57177
20
-2.68937
11
4.56207
21
-2.68109
0
LINE
8
BLACK
6
CONTINUOUS
10
4.56207
20
-2.68109
11
4.55148
21
-2.67398
0
LINE
8
BLACK
6
CONTINUOUS
10
4.55148
20
-2.67398
11
4.54015
21
-2.66813
0
LINE
8
BLACK
6
CONTINUOUS
10
4.54015
20
-2.66813
11
4.52822
21
-2.66362
0
LINE
8
BLACK
6
CONTINUOUS
10
4.52822
20
-2.66362
11
4.51585
21
-2.66051
0
LINE
8
BLACK
6
CONTINUOUS
10
4.51585
20
-2.66051
11
4.5032
21
-2.65885
0
LINE
8
BLACK
6
CONTINUOUS
10
4.5032
20
-2.65885
11
4.49045
21
-2.65865
0
LINE
8
BLACK
6
CONTINUOUS
10
4.49045
20
-2.65865
11
4.47775
21
-2.65991
0
LINE
8
BLACK
6
CONTINUOUS
10
4.47775
20
-2.65991
11
4.46529
21
-2.66263
0
LINE
8
BLACK
6
CONTINUOUS
10
4.46529
20
-2.66263
11
4.45323
21
-2.66676
0
LINE
8
BLACK
6
CONTINUOUS
10
4.45323
20
-2.66676
11
4.44171
21
-2.67225
0
LINE
8
BLACK
6
CONTINUOUS
10
4.44171
20
-2.67225
11
4.43091
21
-2.67903
0
LINE
8
BLACK
6
CONTINUOUS
10
4.43091
20
-2.67903
11
4.42095
21
-2.68701
0
LINE
8
BLACK
6
CONTINUOUS
10
4.42095
20
-2.68701
11
4.41198
21
-2.69607
0
LINE
8
BLACK
6
CONTINUOUS
10
4.41198
20
-2.69607
11
4.40411
21
-2.70611
0
LINE
8
BLACK
6
CONTINUOUS
10
4.40411
20
-2.70611
11
4.39745
21
-2.71698
0
LINE
8
BLACK
6
CONTINUOUS
10
4.39745
20
-2.71698
11
4.39208
21
-2.72855
0
LINE
8
BLACK
6
CONTINUOUS
10
4.39208
20
-2.72855
11
4.38807
21
-2.74066
0
LINE
8
BLACK
6
CONTINUOUS
10
4.38807
20
-2.74066
11
4.38549
21
-2.75315
0
LINE
8
BLACK
6
CONTINUOUS
10
4.38549
20
-2.75315
11
4.38435
21
-2.76586
0
LINE
8
BLACK
6
CONTINUOUS
10
4.38435
20
-2.76586
11
4.38469
21
-2.77861
0
LINE
8
BLACK
6
CONTINUOUS
10
4.38469
20
-2.77861
11
4.38648
21
-2.79123
  0
ENDSEC
  0
EOF
