  0
SECTION
  2
HEADER
  9
$ANGBASE
  50
0.0
  9
$ANGDIR
  70
1
  9
$MEASUREMENT
  70
0
  0
ENDSEC
  0
SECTION
  2
TABLES
  0
TABLE
  2
LTYPE
  70
4
  0
LTYPE
  5
40F
  2
CONTINUOUS
  70
0
  3
Solid line
  72
65
  73
0
  40
0.0
  0
LTYPE
  5
410
  2
DASHDOT
 70
0
  3
Dash Dot ____ _ ____ _
 72
65
 73
4
 40
2.0
 49
1.25
 49
-0.25
 49
0.25
 49
-0.25
  0
LTYPE
  5
411
  2
DASHED
 70
0
  3
Dashed __ __ __ __ __
 72
65
 73
2
 40
0.75
 49
0.5
 49
-0.25
  0
LTYPE
  5
43B
  2
DOTTED
 70
0
  3
Dotted .  .  .  .
 72
65
 73
2
 40
0.2
 49
0.0
 49
-0.2
  0
ENDTAB
  0
TABLE
  2
STYLE
  70
4
  0
STYLE
  2
KICAD
  70
0
  40
0
  41
1
  42
1
  50
0
  71
0
  3
isocp.shx
  0
STYLE
  2
KICADB
  70
0
  40
0
  41
1
  42
1
  50
0
  71
0
  3
isocp.shx
  0
STYLE
  2
KICADI
  70
0
  40
0
  41
1
  42
1
  50
15
  71
0
  3
isocp.shx
  0
STYLE
  2
KICADBI
  70
0
  40
0
  41
1
  42
1
  50
15
  71
0
  3
isocp.shx
  0
ENDTAB
  0
TABLE
  2
LAYER
  70
1
  0
LAYER
  2
BLACK
  70
0
  62
7
  6
CONTINUOUS
  0
ENDTAB
  0
ENDSEC
  0
SECTION
  2
ENTITIES
0
LINE
8
BLACK
6
CONTINUOUS
10
0.014917
20
-0.674902
11
0.0287686
21
-0.677344
0
LINE
8
BLACK
6
CONTINUOUS
10
0.0287686
20
-0.677344
11
0.0422616
21
-0.681316
0
LINE
8
BLACK
6
CONTINUOUS
10
0.0422616
20
-0.681316
11
0.0552279
21
-0.686766
0
LINE
8
BLACK
6
CONTINUOUS
10
0.0552279
20
-0.686766
11
0.0675057
21
-0.693628
0
LINE
8
BLACK
6
CONTINUOUS
10
0.0675057
20
-0.693628
11
0.0789422
21
-0.701816
0
LINE
8
BLACK
6
CONTINUOUS
10
0.0789422
20
-0.701816
11
0.0893947
21
-0.711227
0
LINE
8
BLACK
6
CONTINUOUS
10
0.0893947
20
-0.711227
11
0.098733
21
-0.721745
0
LINE
8
BLACK
6
CONTINUOUS
10
0.098733
20
-0.721745
11
0.106841
21
-0.733239
0
LINE
8
BLACK
6
CONTINUOUS
10
0.106841
20
-0.733239
11
0.113617
21
-0.745564
0
LINE
8
BLACK
6
CONTINUOUS
10
0.113617
20
-0.745564
11
0.118977
21
-0.758568
0
LINE
8
BLACK
6
CONTINUOUS
10
0.118977
20
-0.758568
11
0.122853
21
-0.772088
0
LINE
8
BLACK
6
CONTINUOUS
10
0.122853
20
-0.772088
11
0.125199
21
-0.785957
0
LINE
8
BLACK
6
CONTINUOUS
10
0.125199
20
-0.785957
11
0.125984
21
-0.8
0
LINE
8
BLACK
6
CONTINUOUS
10
0.125984
20
-0.8
11
0.125935
21
-0.803518
0
LINE
8
BLACK
6
CONTINUOUS
10
0.125935
20
-0.803518
11
0.124758
21
-0.817534
0
LINE
8
BLACK
6
CONTINUOUS
10
0.124758
20
-0.817534
11
0.122026
21
-0.831331
0
LINE
8
BLACK
6
CONTINUOUS
10
0.122026
20
-0.831331
11
0.117773
21
-0.844738
0
LINE
8
BLACK
6
CONTINUOUS
10
0.117773
20
-0.844738
11
0.112052
21
-0.857587
0
LINE
8
BLACK
6
CONTINUOUS
10
0.112052
20
-0.857587
11
0.104935
21
-0.869719
0
LINE
8
BLACK
6
CONTINUOUS
10
0.104935
20
-0.869719
11
0.0965095
21
-0.880981
0
LINE
8
BLACK
6
CONTINUOUS
10
0.0965095
20
-0.880981
11
0.0868812
21
-0.891234
0
LINE
8
BLACK
6
CONTINUOUS
10
0.0868812
20
-0.891234
11
0.07617
21
-0.90035
0
LINE
8
BLACK
6
CONTINUOUS
10
0.07617
20
-0.90035
11
0.0645093
21
-0.908215
0
LINE
8
BLACK
6
CONTINUOUS
10
0.0645093
20
-0.908215
11
0.0520446
21
-0.914732
0
LINE
8
BLACK
6
CONTINUOUS
10
0.0520446
20
-0.914732
11
0.0389313
21
-0.919818
0
LINE
8
BLACK
6
CONTINUOUS
10
0.0389313
20
-0.919818
11
0.0253326
21
-0.923411
0
LINE
8
BLACK
6
CONTINUOUS
10
0.0253326
20
-0.923411
11
0.0114183
21
-0.925466
0
LINE
8
BLACK
6
CONTINUOUS
10
0.0114183
20
-0.925466
11
-0.00263843
21
-0.925957
0
LINE
8
BLACK
6
CONTINUOUS
10
-0.00263843
20
-0.925957
11
-0.0166622
21
-0.924878
0
LINE
8
BLACK
6
CONTINUOUS
10
-0.0166622
20
-0.924878
11
-0.0304783
21
-0.922242
0
LINE
8
BLACK
6
CONTINUOUS
10
-0.0304783
20
-0.922242
11
-0.0439146
21
-0.918083
0
LINE
8
BLACK
6
CONTINUOUS
10
-0.0439146
20
-0.918083
11
-0.0568035
21
-0.912452
0
LINE
8
BLACK
6
CONTINUOUS
10
-0.0568035
20
-0.912452
11
-0.0689843
21
-0.905419
0
LINE
8
BLACK
6
CONTINUOUS
10
-0.0689843
20
-0.905419
11
-0.0803054
21
-0.897073
0
LINE
8
BLACK
6
CONTINUOUS
10
-0.0803054
20
-0.897073
11
-0.0906255
21
-0.887516
0
LINE
8
BLACK
6
CONTINUOUS
10
-0.0906255
20
-0.887516
11
-0.099816
21
-0.876869
0
LINE
8
BLACK
6
CONTINUOUS
10
-0.099816
20
-0.876869
11
-0.107762
21
-0.865263
0
LINE
8
BLACK
6
CONTINUOUS
10
-0.107762
20
-0.865263
11
-0.114366
21
-0.852844
0
LINE
8
BLACK
6
CONTINUOUS
10
-0.114366
20
-0.852844
11
-0.119543
21
-0.839767
0
LINE
8
BLACK
6
CONTINUOUS
10
-0.119543
20
-0.839767
11
-0.123231
21
-0.826194
0
LINE
8
BLACK
6
CONTINUOUS
10
-0.123231
20
-0.826194
11
-0.125383
21
-0.812294
0
LINE
8
BLACK
6
CONTINUOUS
10
-0.125383
20
-0.812294
11
-0.125972
21
-0.798241
0
LINE
8
BLACK
6
CONTINUOUS
10
-0.125972
20
-0.798241
11
-0.124991
21
-0.78421
0
LINE
8
BLACK
6
CONTINUOUS
10
-0.124991
20
-0.78421
11
-0.122452
21
-0.770376
0
LINE
8
BLACK
6
CONTINUOUS
10
-0.122452
20
-0.770376
11
-0.118386
21
-0.756911
0
LINE
8
BLACK
6
CONTINUOUS
10
-0.118386
20
-0.756911
11
-0.112846
21
-0.743983
0
LINE
8
BLACK
6
CONTINUOUS
10
-0.112846
20
-0.743983
11
-0.105898
21
-0.731753
0
LINE
8
BLACK
6
CONTINUOUS
10
-0.105898
20
-0.731753
11
-0.0976308
21
-0.720374
0
LINE
8
BLACK
6
CONTINUOUS
10
-0.0976308
20
-0.720374
11
-0.0881466
21
-0.709988
0
LINE
8
BLACK
6
CONTINUOUS
10
-0.0881466
20
-0.709988
11
-0.0775637
21
-0.700723
0
LINE
8
BLACK
6
CONTINUOUS
10
-0.0775637
20
-0.700723
11
-0.066014
21
-0.692696
0
LINE
8
BLACK
6
CONTINUOUS
10
-0.066014
20
-0.692696
11
-0.0536415
21
-0.686006
0
LINE
8
BLACK
6
CONTINUOUS
10
-0.0536415
20
-0.686006
11
-0.0406004
21
-0.680737
0
LINE
8
BLACK
6
CONTINUOUS
10
-0.0406004
20
-0.680737
11
-0.0270533
21
-0.676955
0
LINE
8
BLACK
6
CONTINUOUS
10
-0.0270533
20
-0.676955
11
-0.0131689
21
-0.674706
0
LINE
8
BLACK
6
CONTINUOUS
10
-0.0131689
20
-0.674706
11
0.000879528
21
-0.674019
0
LINE
8
BLACK
6
CONTINUOUS
10
0.000879528
20
-0.674019
11
0.014917
21
-0.674902
0
LINE
8
BLACK
6
CONTINUOUS
10
1.61492
20
-0.674902
11
1.62877
21
-0.677344
0
LINE
8
BLACK
6
CONTINUOUS
10
1.62877
20
-0.677344
11
1.64226
21
-0.681316
0
LINE
8
BLACK
6
CONTINUOUS
10
1.64226
20
-0.681316
11
1.65523
21
-0.686766
0
LINE
8
BLACK
6
CONTINUOUS
10
1.65523
20
-0.686766
11
1.66751
21
-0.693628
0
LINE
8
BLACK
6
CONTINUOUS
10
1.66751
20
-0.693628
11
1.67894
21
-0.701816
0
LINE
8
BLACK
6
CONTINUOUS
10
1.67894
20
-0.701816
11
1.68939
21
-0.711227
0
LINE
8
BLACK
6
CONTINUOUS
10
1.68939
20
-0.711227
11
1.69873
21
-0.721745
0
LINE
8
BLACK
6
CONTINUOUS
10
1.69873
20
-0.721745
11
1.70684
21
-0.733239
0
LINE
8
BLACK
6
CONTINUOUS
10
1.70684
20
-0.733239
11
1.71362
21
-0.745564
0
LINE
8
BLACK
6
CONTINUOUS
10
1.71362
20
-0.745564
11
1.71898
21
-0.758568
0
LINE
8
BLACK
6
CONTINUOUS
10
1.71898
20
-0.758568
11
1.72285
21
-0.772088
0
LINE
8
BLACK
6
CONTINUOUS
10
1.72285
20
-0.772088
11
1.7252
21
-0.785957
0
LINE
8
BLACK
6
CONTINUOUS
10
1.7252
20
-0.785957
11
1.72598
21
-0.8
0
LINE
8
BLACK
6
CONTINUOUS
10
1.72598
20
-0.8
11
1.72594
21
-0.803518
0
LINE
8
BLACK
6
CONTINUOUS
10
1.72594
20
-0.803518
11
1.72476
21
-0.817534
0
LINE
8
BLACK
6
CONTINUOUS
10
1.72476
20
-0.817534
11
1.72203
21
-0.831331
0
LINE
8
BLACK
6
CONTINUOUS
10
1.72203
20
-0.831331
11
1.71777
21
-0.844738
0
LINE
8
BLACK
6
CONTINUOUS
10
1.71777
20
-0.844738
11
1.71205
21
-0.857587
0
LINE
8
BLACK
6
CONTINUOUS
10
1.71205
20
-0.857587
11
1.70493
21
-0.869719
0
LINE
8
BLACK
6
CONTINUOUS
10
1.70493
20
-0.869719
11
1.69651
21
-0.880981
0
LINE
8
BLACK
6
CONTINUOUS
10
1.69651
20
-0.880981
11
1.68688
21
-0.891234
0
LINE
8
BLACK
6
CONTINUOUS
10
1.68688
20
-0.891234
11
1.67617
21
-0.90035
0
LINE
8
BLACK
6
CONTINUOUS
10
1.67617
20
-0.90035
11
1.66451
21
-0.908215
0
LINE
8
BLACK
6
CONTINUOUS
10
1.66451
20
-0.908215
11
1.65204
21
-0.914732
0
LINE
8
BLACK
6
CONTINUOUS
10
1.65204
20
-0.914732
11
1.63893
21
-0.919818
0
LINE
8
BLACK
6
CONTINUOUS
10
1.63893
20
-0.919818
11
1.62533
21
-0.923411
0
LINE
8
BLACK
6
CONTINUOUS
10
1.62533
20
-0.923411
11
1.61142
21
-0.925466
0
LINE
8
BLACK
6
CONTINUOUS
10
1.61142
20
-0.925466
11
1.59736
21
-0.925957
0
LINE
8
BLACK
6
CONTINUOUS
10
1.59736
20
-0.925957
11
1.58334
21
-0.924878
0
LINE
8
BLACK
6
CONTINUOUS
10
1.58334
20
-0.924878
11
1.56952
21
-0.922242
0
LINE
8
BLACK
6
CONTINUOUS
10
1.56952
20
-0.922242
11
1.55609
21
-0.918083
0
LINE
8
BLACK
6
CONTINUOUS
10
1.55609
20
-0.918083
11
1.5432
21
-0.912452
0
LINE
8
BLACK
6
CONTINUOUS
10
1.5432
20
-0.912452
11
1.53102
21
-0.905419
0
LINE
8
BLACK
6
CONTINUOUS
10
1.53102
20
-0.905419
11
1.51969
21
-0.897073
0
LINE
8
BLACK
6
CONTINUOUS
10
1.51969
20
-0.897073
11
1.50937
21
-0.887516
0
LINE
8
BLACK
6
CONTINUOUS
10
1.50937
20
-0.887516
11
1.50018
21
-0.876869
0
LINE
8
BLACK
6
CONTINUOUS
10
1.50018
20
-0.876869
11
1.49224
21
-0.865263
0
LINE
8
BLACK
6
CONTINUOUS
10
1.49224
20
-0.865263
11
1.48563
21
-0.852844
0
LINE
8
BLACK
6
CONTINUOUS
10
1.48563
20
-0.852844
11
1.48046
21
-0.839767
0
LINE
8
BLACK
6
CONTINUOUS
10
1.48046
20
-0.839767
11
1.47677
21
-0.826194
0
LINE
8
BLACK
6
CONTINUOUS
10
1.47677
20
-0.826194
11
1.47462
21
-0.812294
0
LINE
8
BLACK
6
CONTINUOUS
10
1.47462
20
-0.812294
11
1.47403
21
-0.798241
0
LINE
8
BLACK
6
CONTINUOUS
10
1.47403
20
-0.798241
11
1.47501
21
-0.78421
0
LINE
8
BLACK
6
CONTINUOUS
10
1.47501
20
-0.78421
11
1.47755
21
-0.770376
0
LINE
8
BLACK
6
CONTINUOUS
10
1.47755
20
-0.770376
11
1.48161
21
-0.756911
0
LINE
8
BLACK
6
CONTINUOUS
10
1.48161
20
-0.756911
11
1.48715
21
-0.743983
0
LINE
8
BLACK
6
CONTINUOUS
10
1.48715
20
-0.743983
11
1.4941
21
-0.731753
0
LINE
8
BLACK
6
CONTINUOUS
10
1.4941
20
-0.731753
11
1.50237
21
-0.720374
0
LINE
8
BLACK
6
CONTINUOUS
10
1.50237
20
-0.720374
11
1.51185
21
-0.709988
0
LINE
8
BLACK
6
CONTINUOUS
10
1.51185
20
-0.709988
11
1.52244
21
-0.700723
0
LINE
8
BLACK
6
CONTINUOUS
10
1.52244
20
-0.700723
11
1.53399
21
-0.692696
0
LINE
8
BLACK
6
CONTINUOUS
10
1.53399
20
-0.692696
11
1.54636
21
-0.686006
0
LINE
8
BLACK
6
CONTINUOUS
10
1.54636
20
-0.686006
11
1.5594
21
-0.680737
0
LINE
8
BLACK
6
CONTINUOUS
10
1.5594
20
-0.680737
11
1.57295
21
-0.676955
0
LINE
8
BLACK
6
CONTINUOUS
10
1.57295
20
-0.676955
11
1.58683
21
-0.674706
0
LINE
8
BLACK
6
CONTINUOUS
10
1.58683
20
-0.674706
11
1.60088
21
-0.674019
0
LINE
8
BLACK
6
CONTINUOUS
10
1.60088
20
-0.674019
11
1.61492
21
-0.674902
0
LINE
8
BLACK
6
CONTINUOUS
10
0.397659
20
-0.433434
11
0.400213
21
-0.435141
0
LINE
8
BLACK
6
CONTINUOUS
10
0.400213
20
-0.435141
11
0.40192
21
-0.437695
0
LINE
8
BLACK
6
CONTINUOUS
10
0.40192
20
-0.437695
11
0.40252
21
-0.440709
0
LINE
8
BLACK
6
CONTINUOUS
10
0.40252
20
-0.440709
11
0.40252
21
-0.539528
0
LINE
8
BLACK
6
CONTINUOUS
10
0.40252
20
-0.539528
11
0.40192
21
-0.542541
0
LINE
8
BLACK
6
CONTINUOUS
10
0.40192
20
-0.542541
11
0.400213
21
-0.545095
0
LINE
8
BLACK
6
CONTINUOUS
10
0.400213
20
-0.545095
11
0.397659
21
-0.546802
0
LINE
8
BLACK
6
CONTINUOUS
10
0.397659
20
-0.546802
11
0.394646
21
-0.547402
0
LINE
8
BLACK
6
CONTINUOUS
10
0.394646
20
-0.547402
11
0.355276
21
-0.547402
0
LINE
8
BLACK
6
CONTINUOUS
10
0.355276
20
-0.547402
11
0.352262
21
-0.546802
0
LINE
8
BLACK
6
CONTINUOUS
10
0.352262
20
-0.546802
11
0.349708
21
-0.545095
0
LINE
8
BLACK
6
CONTINUOUS
10
0.349708
20
-0.545095
11
0.348001
21
-0.542541
0
LINE
8
BLACK
6
CONTINUOUS
10
0.348001
20
-0.542541
11
0.347402
21
-0.539528
0
LINE
8
BLACK
6
CONTINUOUS
10
0.347402
20
-0.539528
11
0.347402
21
-0.440709
0
LINE
8
BLACK
6
CONTINUOUS
10
0.347402
20
-0.440709
11
0.348001
21
-0.437695
0
LINE
8
BLACK
6
CONTINUOUS
10
0.348001
20
-0.437695
11
0.349708
21
-0.435141
0
LINE
8
BLACK
6
CONTINUOUS
10
0.349708
20
-0.435141
11
0.352262
21
-0.433434
0
LINE
8
BLACK
6
CONTINUOUS
10
0.352262
20
-0.433434
11
0.355276
21
-0.432835
0
LINE
8
BLACK
6
CONTINUOUS
10
0.355276
20
-0.432835
11
0.394646
21
-0.432835
0
LINE
8
BLACK
6
CONTINUOUS
10
0.394646
20
-0.432835
11
0.397659
21
-0.433434
0
LINE
8
BLACK
6
CONTINUOUS
10
0.597659
20
-0.433434
11
0.600213
21
-0.435141
0
LINE
8
BLACK
6
CONTINUOUS
10
0.600213
20
-0.435141
11
0.60192
21
-0.437695
0
LINE
8
BLACK
6
CONTINUOUS
10
0.60192
20
-0.437695
11
0.60252
21
-0.440709
0
LINE
8
BLACK
6
CONTINUOUS
10
0.60252
20
-0.440709
11
0.60252
21
-0.539528
0
LINE
8
BLACK
6
CONTINUOUS
10
0.60252
20
-0.539528
11
0.60192
21
-0.542541
0
LINE
8
BLACK
6
CONTINUOUS
10
0.60192
20
-0.542541
11
0.600213
21
-0.545095
0
LINE
8
BLACK
6
CONTINUOUS
10
0.600213
20
-0.545095
11
0.597659
21
-0.546802
0
LINE
8
BLACK
6
CONTINUOUS
10
0.597659
20
-0.546802
11
0.594646
21
-0.547402
0
LINE
8
BLACK
6
CONTINUOUS
10
0.594646
20
-0.547402
11
0.555276
21
-0.547402
0
LINE
8
BLACK
6
CONTINUOUS
10
0.555276
20
-0.547402
11
0.552262
21
-0.546802
0
LINE
8
BLACK
6
CONTINUOUS
10
0.552262
20
-0.546802
11
0.549708
21
-0.545095
0
LINE
8
BLACK
6
CONTINUOUS
10
0.549708
20
-0.545095
11
0.548001
21
-0.542541
0
LINE
8
BLACK
6
CONTINUOUS
10
0.548001
20
-0.542541
11
0.547402
21
-0.539528
0
LINE
8
BLACK
6
CONTINUOUS
10
0.547402
20
-0.539528
11
0.547402
21
-0.440709
0
LINE
8
BLACK
6
CONTINUOUS
10
0.547402
20
-0.440709
11
0.548001
21
-0.437695
0
LINE
8
BLACK
6
CONTINUOUS
10
0.548001
20
-0.437695
11
0.549708
21
-0.435141
0
LINE
8
BLACK
6
CONTINUOUS
10
0.549708
20
-0.435141
11
0.552262
21
-0.433434
0
LINE
8
BLACK
6
CONTINUOUS
10
0.552262
20
-0.433434
11
0.555276
21
-0.432835
0
LINE
8
BLACK
6
CONTINUOUS
10
0.555276
20
-0.432835
11
0.594646
21
-0.432835
0
LINE
8
BLACK
6
CONTINUOUS
10
0.594646
20
-0.432835
11
0.597659
21
-0.433434
0
LINE
8
BLACK
6
CONTINUOUS
10
0.497659
20
-0.303119
11
0.500213
21
-0.304826
0
LINE
8
BLACK
6
CONTINUOUS
10
0.500213
20
-0.304826
11
0.50192
21
-0.30738
0
LINE
8
BLACK
6
CONTINUOUS
10
0.50192
20
-0.30738
11
0.50252
21
-0.310394
0
LINE
8
BLACK
6
CONTINUOUS
10
0.50252
20
-0.310394
11
0.50252
21
-0.409213
0
LINE
8
BLACK
6
CONTINUOUS
10
0.50252
20
-0.409213
11
0.50192
21
-0.412226
0
LINE
8
BLACK
6
CONTINUOUS
10
0.50192
20
-0.412226
11
0.500213
21
-0.41478
0
LINE
8
BLACK
6
CONTINUOUS
10
0.500213
20
-0.41478
11
0.497659
21
-0.416487
0
LINE
8
BLACK
6
CONTINUOUS
10
0.497659
20
-0.416487
11
0.494646
21
-0.417087
0
LINE
8
BLACK
6
CONTINUOUS
10
0.494646
20
-0.417087
11
0.455276
21
-0.417087
0
LINE
8
BLACK
6
CONTINUOUS
10
0.455276
20
-0.417087
11
0.452262
21
-0.416487
0
LINE
8
BLACK
6
CONTINUOUS
10
0.452262
20
-0.416487
11
0.449708
21
-0.41478
0
LINE
8
BLACK
6
CONTINUOUS
10
0.449708
20
-0.41478
11
0.448001
21
-0.412226
0
LINE
8
BLACK
6
CONTINUOUS
10
0.448001
20
-0.412226
11
0.447402
21
-0.409213
0
LINE
8
BLACK
6
CONTINUOUS
10
0.447402
20
-0.409213
11
0.447402
21
-0.310394
0
LINE
8
BLACK
6
CONTINUOUS
10
0.447402
20
-0.310394
11
0.448001
21
-0.30738
0
LINE
8
BLACK
6
CONTINUOUS
10
0.448001
20
-0.30738
11
0.449708
21
-0.304826
0
LINE
8
BLACK
6
CONTINUOUS
10
0.449708
20
-0.304826
11
0.452262
21
-0.303119
0
LINE
8
BLACK
6
CONTINUOUS
10
0.452262
20
-0.303119
11
0.455276
21
-0.30252
0
LINE
8
BLACK
6
CONTINUOUS
10
0.455276
20
-0.30252
11
0.494646
21
-0.30252
0
LINE
8
BLACK
6
CONTINUOUS
10
0.494646
20
-0.30252
11
0.497659
21
-0.303119
0
LINE
8
BLACK
6
CONTINUOUS
10
0.0011235
20
-0.296977
11
0.00367799
21
-0.298684
0
LINE
8
BLACK
6
CONTINUOUS
10
0.00367799
20
-0.298684
11
0.00538488
21
-0.301239
0
LINE
8
BLACK
6
CONTINUOUS
10
0.00538488
20
-0.301239
11
0.00598425
21
-0.304252
0
LINE
8
BLACK
6
CONTINUOUS
10
0.00598425
20
-0.304252
11
0.00598425
21
-0.364252
0
LINE
8
BLACK
6
CONTINUOUS
10
0.00598425
20
-0.364252
11
0.00538488
21
-0.367265
0
LINE
8
BLACK
6
CONTINUOUS
10
0.00538488
20
-0.367265
11
0.00367799
21
-0.36982
0
LINE
8
BLACK
6
CONTINUOUS
10
0.00367799
20
-0.36982
11
0.0011235
21
-0.371527
0
LINE
8
BLACK
6
CONTINUOUS
10
0.0011235
20
-0.371527
11
-0.00188976
21
-0.372126
0
LINE
8
BLACK
6
CONTINUOUS
10
-0.00188976
20
-0.372126
11
-0.0618898
21
-0.372126
0
LINE
8
BLACK
6
CONTINUOUS
10
-0.0618898
20
-0.372126
11
-0.064903
21
-0.371527
0
LINE
8
BLACK
6
CONTINUOUS
10
-0.064903
20
-0.371527
11
-0.0674575
21
-0.36982
0
LINE
8
BLACK
6
CONTINUOUS
10
-0.0674575
20
-0.36982
11
-0.0691644
21
-0.367265
0
LINE
8
BLACK
6
CONTINUOUS
10
-0.0691644
20
-0.367265
11
-0.0697638
21
-0.364252
0
LINE
8
BLACK
6
CONTINUOUS
10
-0.0697638
20
-0.364252
11
-0.0697638
21
-0.304252
0
LINE
8
BLACK
6
CONTINUOUS
10
-0.0697638
20
-0.304252
11
-0.0691644
21
-0.301239
0
LINE
8
BLACK
6
CONTINUOUS
10
-0.0691644
20
-0.301239
11
-0.0674575
21
-0.298684
0
LINE
8
BLACK
6
CONTINUOUS
10
-0.0674575
20
-0.298684
11
-0.064903
21
-0.296977
0
LINE
8
BLACK
6
CONTINUOUS
10
-0.064903
20
-0.296977
11
-0.0618898
21
-0.296378
0
LINE
8
BLACK
6
CONTINUOUS
10
-0.0618898
20
-0.296378
11
-0.00188976
21
-0.296378
0
LINE
8
BLACK
6
CONTINUOUS
10
-0.00188976
20
-0.296378
11
0.0011235
21
-0.296977
0
LINE
8
BLACK
6
CONTINUOUS
10
0.0011235
20
-0.196977
11
0.00367799
21
-0.198684
0
LINE
8
BLACK
6
CONTINUOUS
10
0.00367799
20
-0.198684
11
0.00538488
21
-0.201239
0
LINE
8
BLACK
6
CONTINUOUS
10
0.00538488
20
-0.201239
11
0.00598425
21
-0.204252
0
LINE
8
BLACK
6
CONTINUOUS
10
0.00598425
20
-0.204252
11
0.00598425
21
-0.264252
0
LINE
8
BLACK
6
CONTINUOUS
10
0.00598425
20
-0.264252
11
0.00538488
21
-0.267265
0
LINE
8
BLACK
6
CONTINUOUS
10
0.00538488
20
-0.267265
11
0.00367799
21
-0.26982
0
LINE
8
BLACK
6
CONTINUOUS
10
0.00367799
20
-0.26982
11
0.0011235
21
-0.271527
0
LINE
8
BLACK
6
CONTINUOUS
10
0.0011235
20
-0.271527
11
-0.00188976
21
-0.272126
0
LINE
8
BLACK
6
CONTINUOUS
10
-0.00188976
20
-0.272126
11
-0.0618898
21
-0.272126
0
LINE
8
BLACK
6
CONTINUOUS
10
-0.0618898
20
-0.272126
11
-0.064903
21
-0.271527
0
LINE
8
BLACK
6
CONTINUOUS
10
-0.064903
20
-0.271527
11
-0.0674575
21
-0.26982
0
LINE
8
BLACK
6
CONTINUOUS
10
-0.0674575
20
-0.26982
11
-0.0691644
21
-0.267265
0
LINE
8
BLACK
6
CONTINUOUS
10
-0.0691644
20
-0.267265
11
-0.0697638
21
-0.264252
0
LINE
8
BLACK
6
CONTINUOUS
10
-0.0697638
20
-0.264252
11
-0.0697638
21
-0.204252
0
LINE
8
BLACK
6
CONTINUOUS
10
-0.0697638
20
-0.204252
11
-0.0691644
21
-0.201239
0
LINE
8
BLACK
6
CONTINUOUS
10
-0.0691644
20
-0.201239
11
-0.0674575
21
-0.198684
0
LINE
8
BLACK
6
CONTINUOUS
10
-0.0674575
20
-0.198684
11
-0.064903
21
-0.196977
0
LINE
8
BLACK
6
CONTINUOUS
10
-0.064903
20
-0.196977
11
-0.0618898
21
-0.196378
0
LINE
8
BLACK
6
CONTINUOUS
10
-0.0618898
20
-0.196378
11
-0.00188976
21
-0.196378
0
LINE
8
BLACK
6
CONTINUOUS
10
-0.00188976
20
-0.196378
11
0.0011235
21
-0.196977
0
LINE
8
BLACK
6
CONTINUOUS
10
0.014917
20
0.125098
11
0.0287686
21
0.122656
0
LINE
8
BLACK
6
CONTINUOUS
10
0.0287686
20
0.122656
11
0.0422616
21
0.118684
0
LINE
8
BLACK
6
CONTINUOUS
10
0.0422616
20
0.118684
11
0.0552279
21
0.113234
0
LINE
8
BLACK
6
CONTINUOUS
10
0.0552279
20
0.113234
11
0.0675057
21
0.106372
0
LINE
8
BLACK
6
CONTINUOUS
10
0.0675057
20
0.106372
11
0.0789422
21
0.0981843
0
LINE
8
BLACK
6
CONTINUOUS
10
0.0789422
20
0.0981843
11
0.0893947
21
0.0887728
0
LINE
8
BLACK
6
CONTINUOUS
10
0.0893947
20
0.0887728
11
0.098733
21
0.0782548
0
LINE
8
BLACK
6
CONTINUOUS
10
0.098733
20
0.0782548
11
0.106841
21
0.0667615
0
LINE
8
BLACK
6
CONTINUOUS
10
0.106841
20
0.0667615
11
0.113617
21
0.054436
0
LINE
8
BLACK
6
CONTINUOUS
10
0.113617
20
0.054436
11
0.118977
21
0.041432
0
LINE
8
BLACK
6
CONTINUOUS
10
0.118977
20
0.041432
11
0.122853
21
0.0279116
0
LINE
8
BLACK
6
CONTINUOUS
10
0.122853
20
0.0279116
11
0.125199
21
0.0140433
0
LINE
8
BLACK
6
CONTINUOUS
10
0.125199
20
0.0140433
11
0.125984
21
0
0
LINE
8
BLACK
6
CONTINUOUS
10
0.125984
20
0
11
0.125935
21
-0.00351768
0
LINE
8
BLACK
6
CONTINUOUS
10
0.125935
20
-0.00351768
11
0.124758
21
-0.0175336
0
LINE
8
BLACK
6
CONTINUOUS
10
0.124758
20
-0.0175336
11
0.122026
21
-0.031331
0
LINE
8
BLACK
6
CONTINUOUS
10
0.122026
20
-0.031331
11
0.117773
21
-0.0447379
0
LINE
8
BLACK
6
CONTINUOUS
10
0.117773
20
-0.0447379
11
0.112052
21
-0.0575871
0
LINE
8
BLACK
6
CONTINUOUS
10
0.112052
20
-0.0575871
11
0.104935
21
-0.0697186
0
LINE
8
BLACK
6
CONTINUOUS
10
0.104935
20
-0.0697186
11
0.0965095
21
-0.0809811
0
LINE
8
BLACK
6
CONTINUOUS
10
0.0965095
20
-0.0809811
11
0.0868812
21
-0.0912343
0
LINE
8
BLACK
6
CONTINUOUS
10
0.0868812
20
-0.0912343
11
0.07617
21
-0.10035
0
LINE
8
BLACK
6
CONTINUOUS
10
0.07617
20
-0.10035
11
0.0645093
21
-0.108215
0
LINE
8
BLACK
6
CONTINUOUS
10
0.0645093
20
-0.108215
11
0.0520446
21
-0.114732
0
LINE
8
BLACK
6
CONTINUOUS
10
0.0520446
20
-0.114732
11
0.0389313
21
-0.119818
0
LINE
8
BLACK
6
CONTINUOUS
10
0.0389313
20
-0.119818
11
0.0253326
21
-0.123411
0
LINE
8
BLACK
6
CONTINUOUS
10
0.0253326
20
-0.123411
11
0.0114183
21
-0.125466
0
LINE
8
BLACK
6
CONTINUOUS
10
0.0114183
20
-0.125466
11
-0.00263843
21
-0.125957
0
LINE
8
BLACK
6
CONTINUOUS
10
-0.00263843
20
-0.125957
11
-0.0166622
21
-0.124878
0
LINE
8
BLACK
6
CONTINUOUS
10
-0.0166622
20
-0.124878
11
-0.0304783
21
-0.122242
0
LINE
8
BLACK
6
CONTINUOUS
10
-0.0304783
20
-0.122242
11
-0.0439146
21
-0.118083
0
LINE
8
BLACK
6
CONTINUOUS
10
-0.0439146
20
-0.118083
11
-0.0568035
21
-0.112452
0
LINE
8
BLACK
6
CONTINUOUS
10
-0.0568035
20
-0.112452
11
-0.0689843
21
-0.105419
0
LINE
8
BLACK
6
CONTINUOUS
10
-0.0689843
20
-0.105419
11
-0.0803054
21
-0.0970725
0
LINE
8
BLACK
6
CONTINUOUS
10
-0.0803054
20
-0.0970725
11
-0.0906255
21
-0.087516
0
LINE
8
BLACK
6
CONTINUOUS
10
-0.0906255
20
-0.087516
11
-0.099816
21
-0.0768687
0
LINE
8
BLACK
6
CONTINUOUS
10
-0.099816
20
-0.0768687
11
-0.107762
21
-0.0652632
0
LINE
8
BLACK
6
CONTINUOUS
10
-0.107762
20
-0.0652632
11
-0.114366
21
-0.0528444
0
LINE
8
BLACK
6
CONTINUOUS
10
-0.114366
20
-0.0528444
11
-0.119543
21
-0.0397668
0
LINE
8
BLACK
6
CONTINUOUS
10
-0.119543
20
-0.0397668
11
-0.123231
21
-0.0261936
0
LINE
8
BLACK
6
CONTINUOUS
10
-0.123231
20
-0.0261936
11
-0.125383
21
-0.0122939
0
LINE
8
BLACK
6
CONTINUOUS
10
-0.125383
20
-0.0122939
11
-0.125972
21
0.00175902
0
LINE
8
BLACK
6
CONTINUOUS
10
-0.125972
20
0.00175902
11
-0.124991
21
0.01579
0
LINE
8
BLACK
6
CONTINUOUS
10
-0.124991
20
0.01579
11
-0.122452
21
0.0296242
0
LINE
8
BLACK
6
CONTINUOUS
10
-0.122452
20
0.0296242
11
-0.118386
21
0.0430891
0
LINE
8
BLACK
6
CONTINUOUS
10
-0.118386
20
0.0430891
11
-0.112846
21
0.056017
0
LINE
8
BLACK
6
CONTINUOUS
10
-0.112846
20
0.056017
11
-0.105898
21
0.0682467
0
LINE
8
BLACK
6
CONTINUOUS
10
-0.105898
20
0.0682467
11
-0.0976308
21
0.0796257
0
LINE
8
BLACK
6
CONTINUOUS
10
-0.0976308
20
0.0796257
11
-0.0881466
21
0.0900123
0
LINE
8
BLACK
6
CONTINUOUS
10
-0.0881466
20
0.0900123
11
-0.0775637
21
0.0992769
0
LINE
8
BLACK
6
CONTINUOUS
10
-0.0775637
20
0.0992769
11
-0.066014
21
0.107304
0
LINE
8
BLACK
6
CONTINUOUS
10
-0.066014
20
0.107304
11
-0.0536415
21
0.113994
0
LINE
8
BLACK
6
CONTINUOUS
10
-0.0536415
20
0.113994
11
-0.0406004
21
0.119263
0
LINE
8
BLACK
6
CONTINUOUS
10
-0.0406004
20
0.119263
11
-0.0270533
21
0.123045
0
LINE
8
BLACK
6
CONTINUOUS
10
-0.0270533
20
0.123045
11
-0.0131689
21
0.125294
0
LINE
8
BLACK
6
CONTINUOUS
10
-0.0131689
20
0.125294
11
0.000879528
21
0.125981
0
LINE
8
BLACK
6
CONTINUOUS
10
0.000879528
20
0.125981
11
0.014917
21
0.125098
0
LINE
8
BLACK
6
CONTINUOUS
10
1.61492
20
0.125098
11
1.62877
21
0.122656
0
LINE
8
BLACK
6
CONTINUOUS
10
1.62877
20
0.122656
11
1.64226
21
0.118684
0
LINE
8
BLACK
6
CONTINUOUS
10
1.64226
20
0.118684
11
1.65523
21
0.113234
0
LINE
8
BLACK
6
CONTINUOUS
10
1.65523
20
0.113234
11
1.66751
21
0.106372
0
LINE
8
BLACK
6
CONTINUOUS
10
1.66751
20
0.106372
11
1.67894
21
0.0981843
0
LINE
8
BLACK
6
CONTINUOUS
10
1.67894
20
0.0981843
11
1.68939
21
0.0887728
0
LINE
8
BLACK
6
CONTINUOUS
10
1.68939
20
0.0887728
11
1.69873
21
0.0782548
0
LINE
8
BLACK
6
CONTINUOUS
10
1.69873
20
0.0782548
11
1.70684
21
0.0667615
0
LINE
8
BLACK
6
CONTINUOUS
10
1.70684
20
0.0667615
11
1.71362
21
0.054436
0
LINE
8
BLACK
6
CONTINUOUS
10
1.71362
20
0.054436
11
1.71898
21
0.041432
0
LINE
8
BLACK
6
CONTINUOUS
10
1.71898
20
0.041432
11
1.72285
21
0.0279116
0
LINE
8
BLACK
6
CONTINUOUS
10
1.72285
20
0.0279116
11
1.7252
21
0.0140433
0
LINE
8
BLACK
6
CONTINUOUS
10
1.7252
20
0.0140433
11
1.72598
21
0
0
LINE
8
BLACK
6
CONTINUOUS
10
1.72598
20
0
11
1.72594
21
-0.00351768
0
LINE
8
BLACK
6
CONTINUOUS
10
1.72594
20
-0.00351768
11
1.72476
21
-0.0175336
0
LINE
8
BLACK
6
CONTINUOUS
10
1.72476
20
-0.0175336
11
1.72203
21
-0.031331
0
LINE
8
BLACK
6
CONTINUOUS
10
1.72203
20
-0.031331
11
1.71777
21
-0.0447379
0
LINE
8
BLACK
6
CONTINUOUS
10
1.71777
20
-0.0447379
11
1.71205
21
-0.0575871
0
LINE
8
BLACK
6
CONTINUOUS
10
1.71205
20
-0.0575871
11
1.70493
21
-0.0697186
0
LINE
8
BLACK
6
CONTINUOUS
10
1.70493
20
-0.0697186
11
1.69651
21
-0.0809811
0
LINE
8
BLACK
6
CONTINUOUS
10
1.69651
20
-0.0809811
11
1.68688
21
-0.0912343
0
LINE
8
BLACK
6
CONTINUOUS
10
1.68688
20
-0.0912343
11
1.67617
21
-0.10035
0
LINE
8
BLACK
6
CONTINUOUS
10
1.67617
20
-0.10035
11
1.66451
21
-0.108215
0
LINE
8
BLACK
6
CONTINUOUS
10
1.66451
20
-0.108215
11
1.65204
21
-0.114732
0
LINE
8
BLACK
6
CONTINUOUS
10
1.65204
20
-0.114732
11
1.63893
21
-0.119818
0
LINE
8
BLACK
6
CONTINUOUS
10
1.63893
20
-0.119818
11
1.62533
21
-0.123411
0
LINE
8
BLACK
6
CONTINUOUS
10
1.62533
20
-0.123411
11
1.61142
21
-0.125466
0
LINE
8
BLACK
6
CONTINUOUS
10
1.61142
20
-0.125466
11
1.59736
21
-0.125957
0
LINE
8
BLACK
6
CONTINUOUS
10
1.59736
20
-0.125957
11
1.58334
21
-0.124878
0
LINE
8
BLACK
6
CONTINUOUS
10
1.58334
20
-0.124878
11
1.56952
21
-0.122242
0
LINE
8
BLACK
6
CONTINUOUS
10
1.56952
20
-0.122242
11
1.55609
21
-0.118083
0
LINE
8
BLACK
6
CONTINUOUS
10
1.55609
20
-0.118083
11
1.5432
21
-0.112452
0
LINE
8
BLACK
6
CONTINUOUS
10
1.5432
20
-0.112452
11
1.53102
21
-0.105419
0
LINE
8
BLACK
6
CONTINUOUS
10
1.53102
20
-0.105419
11
1.51969
21
-0.0970725
0
LINE
8
BLACK
6
CONTINUOUS
10
1.51969
20
-0.0970725
11
1.50937
21
-0.087516
0
LINE
8
BLACK
6
CONTINUOUS
10
1.50937
20
-0.087516
11
1.50018
21
-0.0768687
0
LINE
8
BLACK
6
CONTINUOUS
10
1.50018
20
-0.0768687
11
1.49224
21
-0.0652632
0
LINE
8
BLACK
6
CONTINUOUS
10
1.49224
20
-0.0652632
11
1.48563
21
-0.0528444
0
LINE
8
BLACK
6
CONTINUOUS
10
1.48563
20
-0.0528444
11
1.48046
21
-0.0397668
0
LINE
8
BLACK
6
CONTINUOUS
10
1.48046
20
-0.0397668
11
1.47677
21
-0.0261936
0
LINE
8
BLACK
6
CONTINUOUS
10
1.47677
20
-0.0261936
11
1.47462
21
-0.0122939
0
LINE
8
BLACK
6
CONTINUOUS
10
1.47462
20
-0.0122939
11
1.47403
21
0.00175902
0
LINE
8
BLACK
6
CONTINUOUS
10
1.47403
20
0.00175902
11
1.47501
21
0.01579
0
LINE
8
BLACK
6
CONTINUOUS
10
1.47501
20
0.01579
11
1.47755
21
0.0296242
0
LINE
8
BLACK
6
CONTINUOUS
10
1.47755
20
0.0296242
11
1.48161
21
0.0430891
0
LINE
8
BLACK
6
CONTINUOUS
10
1.48161
20
0.0430891
11
1.48715
21
0.056017
0
LINE
8
BLACK
6
CONTINUOUS
10
1.48715
20
0.056017
11
1.4941
21
0.0682467
0
LINE
8
BLACK
6
CONTINUOUS
10
1.4941
20
0.0682467
11
1.50237
21
0.0796257
0
LINE
8
BLACK
6
CONTINUOUS
10
1.50237
20
0.0796257
11
1.51185
21
0.0900123
0
LINE
8
BLACK
6
CONTINUOUS
10
1.51185
20
0.0900123
11
1.52244
21
0.0992769
0
LINE
8
BLACK
6
CONTINUOUS
10
1.52244
20
0.0992769
11
1.53399
21
0.107304
0
LINE
8
BLACK
6
CONTINUOUS
10
1.53399
20
0.107304
11
1.54636
21
0.113994
0
LINE
8
BLACK
6
CONTINUOUS
10
1.54636
20
0.113994
11
1.5594
21
0.119263
0
LINE
8
BLACK
6
CONTINUOUS
10
1.5594
20
0.119263
11
1.57295
21
0.123045
0
LINE
8
BLACK
6
CONTINUOUS
10
1.57295
20
0.123045
11
1.58683
21
0.125294
0
LINE
8
BLACK
6
CONTINUOUS
10
1.58683
20
0.125294
11
1.60088
21
0.125981
0
LINE
8
BLACK
6
CONTINUOUS
10
1.60088
20
0.125981
11
1.61492
21
0.125098
  0
ENDSEC
  0
EOF
