  0
SECTION
  2
HEADER
  9
$ANGBASE
  50
0.0
  9
$ANGDIR
  70
1
  9
$MEASUREMENT
  70
0
  0
ENDSEC
  0
SECTION
  2
TABLES
  0
TABLE
  2
LTYPE
  70
4
  0
LTYPE
  5
40F
  2
CONTINUOUS
  70
0
  3
Solid line
  72
65
  73
0
  40
0.0
  0
LTYPE
  5
410
  2
DASHDOT
 70
0
  3
Dash Dot ____ _ ____ _
 72
65
 73
4
 40
2.0
 49
1.25
 49
-0.25
 49
0.25
 49
-0.25
  0
LTYPE
  5
411
  2
DASHED
 70
0
  3
Dashed __ __ __ __ __
 72
65
 73
2
 40
0.75
 49
0.5
 49
-0.25
  0
LTYPE
  5
43B
  2
DOTTED
 70
0
  3
Dotted .  .  .  .
 72
65
 73
2
 40
0.2
 49
0.0
 49
-0.2
  0
ENDTAB
  0
TABLE
  2
STYLE
  70
4
  0
STYLE
  2
KICAD
  70
0
  40
0
  41
1
  42
1
  50
0
  71
0
  3
isocp.shx
  0
STYLE
  2
KICADB
  70
0
  40
0
  41
1
  42
1
  50
0
  71
0
  3
isocp.shx
  0
STYLE
  2
KICADI
  70
0
  40
0
  41
1
  42
1
  50
15
  71
0
  3
isocp.shx
  0
STYLE
  2
KICADBI
  70
0
  40
0
  41
1
  42
1
  50
15
  71
0
  3
isocp.shx
  0
ENDTAB
  0
TABLE
  2
LAYER
  70
1
  0
LAYER
  2
BLACK
  70
0
  62
7
  6
CONTINUOUS
  0
ENDTAB
  0
ENDSEC
  0
SECTION
  2
ENTITIES
0
LINE
8
BLACK
6
CONTINUOUS
10
0.571142
20
-0.56114
11
0.572066
21
-0.561277
0
LINE
8
BLACK
6
CONTINUOUS
10
0.572066
20
-0.561277
11
0.572122
21
-0.56134
0
LINE
8
BLACK
6
CONTINUOUS
10
0.572122
20
-0.56134
11
0.572206
21
-0.561357
0
LINE
8
BLACK
6
CONTINUOUS
10
0.572206
20
-0.561357
11
0.572786
21
-0.562089
0
LINE
8
BLACK
6
CONTINUOUS
10
0.572786
20
-0.562089
11
0.573406
21
-0.562788
0
LINE
8
BLACK
6
CONTINUOUS
10
0.573406
20
-0.562788
11
0.573408
21
-0.562873
0
LINE
8
BLACK
6
CONTINUOUS
10
0.573408
20
-0.562873
11
0.573461
21
-0.562939
0
LINE
8
BLACK
6
CONTINUOUS
10
0.573461
20
-0.562939
11
0.586584
21
-0.60231
0
LINE
8
BLACK
6
CONTINUOUS
10
0.586584
20
-0.60231
11
0.586735
21
-0.603324
0
LINE
8
BLACK
6
CONTINUOUS
10
0.586735
20
-0.603324
11
0.585993
21
-0.605202
0
LINE
8
BLACK
6
CONTINUOUS
10
0.585993
20
-0.605202
11
0.584216
21
-0.606164
0
LINE
8
BLACK
6
CONTINUOUS
10
0.584216
20
-0.606164
11
0.582238
21
-0.605759
0
LINE
8
BLACK
6
CONTINUOUS
10
0.582238
20
-0.605759
11
0.580982
21
-0.604177
0
LINE
8
BLACK
6
CONTINUOUS
10
0.580982
20
-0.604177
11
0.577906
21
-0.594947
0
LINE
8
BLACK
6
CONTINUOUS
10
0.577906
20
-0.594947
11
0.563414
21
-0.594947
0
LINE
8
BLACK
6
CONTINUOUS
10
0.563414
20
-0.594947
11
0.560338
21
-0.604177
0
LINE
8
BLACK
6
CONTINUOUS
10
0.560338
20
-0.604177
11
0.559849
21
-0.605079
0
LINE
8
BLACK
6
CONTINUOUS
10
0.559849
20
-0.605079
11
0.558129
21
-0.606136
0
LINE
8
BLACK
6
CONTINUOUS
10
0.558129
20
-0.606136
11
0.556131
21
-0.60584
0
LINE
8
BLACK
6
CONTINUOUS
10
0.556131
20
-0.60584
11
0.55479
21
-0.604329
0
LINE
8
BLACK
6
CONTINUOUS
10
0.55479
20
-0.604329
11
0.554735
21
-0.60231
0
LINE
8
BLACK
6
CONTINUOUS
10
0.554735
20
-0.60231
11
0.567859
21
-0.562939
0
LINE
8
BLACK
6
CONTINUOUS
10
0.567859
20
-0.562939
11
0.568347
21
-0.562038
0
LINE
8
BLACK
6
CONTINUOUS
10
0.568347
20
-0.562038
11
0.568419
21
-0.561993
0
LINE
8
BLACK
6
CONTINUOUS
10
0.568419
20
-0.561993
11
0.568451
21
-0.561914
0
LINE
8
BLACK
6
CONTINUOUS
10
0.568451
20
-0.561914
11
0.569272
21
-0.561469
0
LINE
8
BLACK
6
CONTINUOUS
10
0.569272
20
-0.561469
11
0.570068
21
-0.56098
0
LINE
8
BLACK
6
CONTINUOUS
10
0.570068
20
-0.56098
11
0.570152
21
-0.560993
0
LINE
8
BLACK
6
CONTINUOUS
10
0.570152
20
-0.560993
11
0.570227
21
-0.560952
0
LINE
8
BLACK
6
CONTINUOUS
10
0.570227
20
-0.560952
11
0.571142
21
-0.56114
0
LINE
8
BLACK
6
CONTINUOUS
10
0.565383
20
-0.589042
11
0.575937
21
-0.589042
0
LINE
8
BLACK
6
CONTINUOUS
10
0.575937
20
-0.589042
11
0.57066
21
-0.573211
0
LINE
8
BLACK
6
CONTINUOUS
10
0.57066
20
-0.573211
11
0.565383
21
-0.589042
0
LINE
8
BLACK
6
CONTINUOUS
10
0.376071
20
-0.561975
11
0.376762
21
-0.563873
0
LINE
8
BLACK
6
CONTINUOUS
10
0.376762
20
-0.563873
11
0.376762
21
-0.579242
0
LINE
8
BLACK
6
CONTINUOUS
10
0.376762
20
-0.579242
11
0.394219
21
-0.561785
0
LINE
8
BLACK
6
CONTINUOUS
10
0.394219
20
-0.561785
11
0.395059
21
-0.561197
0
LINE
8
BLACK
6
CONTINUOUS
10
0.395059
20
-0.561197
11
0.397071
21
-0.561021
0
LINE
8
BLACK
6
CONTINUOUS
10
0.397071
20
-0.561021
11
0.398725
21
-0.56218
0
LINE
8
BLACK
6
CONTINUOUS
10
0.398725
20
-0.56218
11
0.399248
21
-0.564131
0
LINE
8
BLACK
6
CONTINUOUS
10
0.399248
20
-0.564131
11
0.398395
21
-0.565961
0
LINE
8
BLACK
6
CONTINUOUS
10
0.398395
20
-0.565961
11
0.383333
21
-0.581023
0
LINE
8
BLACK
6
CONTINUOUS
10
0.383333
20
-0.581023
11
0.398669
21
-0.601472
0
LINE
8
BLACK
6
CONTINUOUS
10
0.398669
20
-0.601472
11
0.399132
21
-0.602386
0
LINE
8
BLACK
6
CONTINUOUS
10
0.399132
20
-0.602386
11
0.399022
21
-0.604403
0
LINE
8
BLACK
6
CONTINUOUS
10
0.399022
20
-0.604403
11
0.397641
21
-0.605877
0
LINE
8
BLACK
6
CONTINUOUS
10
0.397641
20
-0.605877
11
0.395636
21
-0.606119
0
LINE
8
BLACK
6
CONTINUOUS
10
0.395636
20
-0.606119
11
0.393944
21
-0.605015
0
LINE
8
BLACK
6
CONTINUOUS
10
0.393944
20
-0.605015
11
0.379114
21
-0.585241
0
LINE
8
BLACK
6
CONTINUOUS
10
0.379114
20
-0.585241
11
0.376762
21
-0.587594
0
LINE
8
BLACK
6
CONTINUOUS
10
0.376762
20
-0.587594
11
0.376762
21
-0.603243
0
LINE
8
BLACK
6
CONTINUOUS
10
0.376762
20
-0.603243
11
0.376584
21
-0.604253
0
LINE
8
BLACK
6
CONTINUOUS
10
0.376584
20
-0.604253
11
0.375286
21
-0.6058
0
LINE
8
BLACK
6
CONTINUOUS
10
0.375286
20
-0.6058
11
0.373297
21
-0.606151
0
LINE
8
BLACK
6
CONTINUOUS
10
0.373297
20
-0.606151
11
0.371548
21
-0.605141
0
LINE
8
BLACK
6
CONTINUOUS
10
0.371548
20
-0.605141
11
0.370857
21
-0.603243
0
LINE
8
BLACK
6
CONTINUOUS
10
0.370857
20
-0.603243
11
0.370857
21
-0.563873
0
LINE
8
BLACK
6
CONTINUOUS
10
0.370857
20
-0.563873
11
0.371035
21
-0.562863
0
LINE
8
BLACK
6
CONTINUOUS
10
0.371035
20
-0.562863
11
0.372333
21
-0.561316
0
LINE
8
BLACK
6
CONTINUOUS
10
0.372333
20
-0.561316
11
0.374322
21
-0.560965
0
LINE
8
BLACK
6
CONTINUOUS
10
0.374322
20
-0.560965
11
0.376071
21
-0.561975
0
LINE
8
BLACK
6
CONTINUOUS
10
0.347402
20
-0.477323
11
0.347402
21
-0.537165
0
LINE
8
BLACK
6
CONTINUOUS
10
0.347402
20
-0.537165
11
0.34671
21
-0.538836
0
LINE
8
BLACK
6
CONTINUOUS
10
0.34671
20
-0.538836
11
0.345039
21
-0.539528
0
LINE
8
BLACK
6
CONTINUOUS
10
0.345039
20
-0.539528
11
0.343369
21
-0.538836
0
LINE
8
BLACK
6
CONTINUOUS
10
0.343369
20
-0.538836
11
0.342677
21
-0.537165
0
LINE
8
BLACK
6
CONTINUOUS
10
0.342677
20
-0.537165
11
0.342677
21
-0.479685
0
LINE
8
BLACK
6
CONTINUOUS
10
0.342677
20
-0.479685
11
0.322598
21
-0.479685
0
LINE
8
BLACK
6
CONTINUOUS
10
0.322598
20
-0.479685
11
0.320928
21
-0.478993
0
LINE
8
BLACK
6
CONTINUOUS
10
0.320928
20
-0.478993
11
0.320236
21
-0.477323
0
LINE
8
BLACK
6
CONTINUOUS
10
0.320236
20
-0.477323
11
0.320236
21
-0.372598
0
LINE
8
BLACK
6
CONTINUOUS
10
0.320236
20
-0.372598
11
0.320928
21
-0.370928
0
LINE
8
BLACK
6
CONTINUOUS
10
0.320928
20
-0.370928
11
0.322598
21
-0.370236
0
LINE
8
BLACK
6
CONTINUOUS
10
0.322598
20
-0.370236
11
0.445039
21
-0.370236
0
LINE
8
BLACK
6
CONTINUOUS
10
0.445039
20
-0.370236
11
0.44671
21
-0.370928
0
LINE
8
BLACK
6
CONTINUOUS
10
0.44671
20
-0.370928
11
0.447402
21
-0.372598
0
LINE
8
BLACK
6
CONTINUOUS
10
0.447402
20
-0.372598
11
0.44671
21
-0.374269
0
LINE
8
BLACK
6
CONTINUOUS
10
0.44671
20
-0.374269
11
0.445039
21
-0.374961
0
LINE
8
BLACK
6
CONTINUOUS
10
0.445039
20
-0.374961
11
0.324961
21
-0.374961
0
LINE
8
BLACK
6
CONTINUOUS
10
0.324961
20
-0.374961
11
0.324961
21
-0.474961
0
LINE
8
BLACK
6
CONTINUOUS
10
0.324961
20
-0.474961
11
0.345039
21
-0.474961
0
LINE
8
BLACK
6
CONTINUOUS
10
0.345039
20
-0.474961
11
0.34671
21
-0.475653
0
LINE
8
BLACK
6
CONTINUOUS
10
0.34671
20
-0.475653
11
0.347402
21
-0.477323
0
LINE
8
BLACK
6
CONTINUOUS
10
0.54671
20
-0.475653
11
0.547402
21
-0.477323
0
LINE
8
BLACK
6
CONTINUOUS
10
0.547402
20
-0.477323
11
0.54671
21
-0.478993
0
LINE
8
BLACK
6
CONTINUOUS
10
0.54671
20
-0.478993
11
0.545039
21
-0.479685
0
LINE
8
BLACK
6
CONTINUOUS
10
0.545039
20
-0.479685
11
0.404882
21
-0.479685
0
LINE
8
BLACK
6
CONTINUOUS
10
0.404882
20
-0.479685
11
0.403212
21
-0.478993
0
LINE
8
BLACK
6
CONTINUOUS
10
0.403212
20
-0.478993
11
0.40252
21
-0.477323
0
LINE
8
BLACK
6
CONTINUOUS
10
0.40252
20
-0.477323
11
0.403212
21
-0.475653
0
LINE
8
BLACK
6
CONTINUOUS
10
0.403212
20
-0.475653
11
0.404882
21
-0.474961
0
LINE
8
BLACK
6
CONTINUOUS
10
0.404882
20
-0.474961
11
0.545039
21
-0.474961
0
LINE
8
BLACK
6
CONTINUOUS
10
0.545039
20
-0.474961
11
0.54671
21
-0.475653
0
LINE
8
BLACK
6
CONTINUOUS
10
0.503212
20
-0.374269
11
0.50252
21
-0.372598
0
LINE
8
BLACK
6
CONTINUOUS
10
0.50252
20
-0.372598
11
0.503212
21
-0.370928
0
LINE
8
BLACK
6
CONTINUOUS
10
0.503212
20
-0.370928
11
0.504882
21
-0.370236
0
LINE
8
BLACK
6
CONTINUOUS
10
0.504882
20
-0.370236
11
0.627323
21
-0.370236
0
LINE
8
BLACK
6
CONTINUOUS
10
0.627323
20
-0.370236
11
0.628993
21
-0.370928
0
LINE
8
BLACK
6
CONTINUOUS
10
0.628993
20
-0.370928
11
0.629685
21
-0.372598
0
LINE
8
BLACK
6
CONTINUOUS
10
0.629685
20
-0.372598
11
0.629685
21
-0.477323
0
LINE
8
BLACK
6
CONTINUOUS
10
0.629685
20
-0.477323
11
0.628993
21
-0.478993
0
LINE
8
BLACK
6
CONTINUOUS
10
0.628993
20
-0.478993
11
0.627323
21
-0.479685
0
LINE
8
BLACK
6
CONTINUOUS
10
0.627323
20
-0.479685
11
0.625653
21
-0.478993
0
LINE
8
BLACK
6
CONTINUOUS
10
0.625653
20
-0.478993
11
0.624961
21
-0.477323
0
LINE
8
BLACK
6
CONTINUOUS
10
0.624961
20
-0.477323
11
0.624961
21
-0.374961
0
LINE
8
BLACK
6
CONTINUOUS
10
0.624961
20
-0.374961
11
0.504882
21
-0.374961
0
LINE
8
BLACK
6
CONTINUOUS
10
0.504882
20
-0.374961
11
0.503212
21
-0.374269
0
LINE
8
BLACK
6
CONTINUOUS
10
0.464099
20
-0.426148
11
0.46479
21
-0.428046
0
LINE
8
BLACK
6
CONTINUOUS
10
0.46479
20
-0.428046
11
0.46479
21
-0.456168
0
LINE
8
BLACK
6
CONTINUOUS
10
0.46479
20
-0.456168
11
0.464637
21
-0.457037
0
LINE
8
BLACK
6
CONTINUOUS
10
0.464637
20
-0.457037
11
0.464638
21
-0.457102
0
LINE
8
BLACK
6
CONTINUOUS
10
0.464638
20
-0.457102
11
0.462764
21
-0.462726
0
LINE
8
BLACK
6
CONTINUOUS
10
0.462764
20
-0.462726
11
0.462275
21
-0.463628
0
LINE
8
BLACK
6
CONTINUOUS
10
0.462275
20
-0.463628
11
0.462125
21
-0.46372
0
LINE
8
BLACK
6
CONTINUOUS
10
0.462125
20
-0.46372
11
0.46205
21
-0.46388
0
LINE
8
BLACK
6
CONTINUOUS
10
0.46205
20
-0.46388
11
0.458301
21
-0.46763
0
LINE
8
BLACK
6
CONTINUOUS
10
0.458301
20
-0.46763
11
0.457461
21
-0.468218
0
LINE
8
BLACK
6
CONTINUOUS
10
0.457461
20
-0.468218
11
0.457285
21
-0.468233
0
LINE
8
BLACK
6
CONTINUOUS
10
0.457285
20
-0.468233
11
0.457147
21
-0.468343
0
LINE
8
BLACK
6
CONTINUOUS
10
0.457147
20
-0.468343
11
0.451522
21
-0.470218
0
LINE
8
BLACK
6
CONTINUOUS
10
0.451522
20
-0.470218
11
0.450649
21
-0.470347
0
LINE
8
BLACK
6
CONTINUOUS
10
0.450649
20
-0.470347
11
0.450589
21
-0.470369
0
LINE
8
BLACK
6
CONTINUOUS
10
0.450589
20
-0.470369
11
0.446839
21
-0.470369
0
LINE
8
BLACK
6
CONTINUOUS
10
0.446839
20
-0.470369
11
0.445829
21
-0.470191
0
LINE
8
BLACK
6
CONTINUOUS
10
0.445829
20
-0.470191
11
0.444282
21
-0.468893
0
LINE
8
BLACK
6
CONTINUOUS
10
0.444282
20
-0.468893
11
0.443931
21
-0.466904
0
LINE
8
BLACK
6
CONTINUOUS
10
0.443931
20
-0.466904
11
0.444941
21
-0.465155
0
LINE
8
BLACK
6
CONTINUOUS
10
0.444941
20
-0.465155
11
0.446839
21
-0.464464
0
LINE
8
BLACK
6
CONTINUOUS
10
0.446839
20
-0.464464
11
0.45011
21
-0.464464
0
LINE
8
BLACK
6
CONTINUOUS
10
0.45011
20
-0.464464
11
0.454618
21
-0.462961
0
LINE
8
BLACK
6
CONTINUOUS
10
0.454618
20
-0.462961
11
0.457382
21
-0.460197
0
LINE
8
BLACK
6
CONTINUOUS
10
0.457382
20
-0.460197
11
0.458884
21
-0.455689
0
LINE
8
BLACK
6
CONTINUOUS
10
0.458884
20
-0.455689
11
0.458884
21
-0.428046
0
LINE
8
BLACK
6
CONTINUOUS
10
0.458884
20
-0.428046
11
0.459063
21
-0.427037
0
LINE
8
BLACK
6
CONTINUOUS
10
0.459063
20
-0.427037
11
0.460361
21
-0.425489
0
LINE
8
BLACK
6
CONTINUOUS
10
0.460361
20
-0.425489
11
0.46235
21
-0.425139
0
LINE
8
BLACK
6
CONTINUOUS
10
0.46235
20
-0.425139
11
0.464099
21
-0.426148
0
LINE
8
BLACK
6
CONTINUOUS
10
0.490304
20
-0.425168
11
0.490471
21
-0.425139
0
LINE
8
BLACK
6
CONTINUOUS
10
0.490471
20
-0.425139
11
0.491214
21
-0.425567
0
LINE
8
BLACK
6
CONTINUOUS
10
0.491214
20
-0.425567
11
0.491998
21
-0.425911
0
LINE
8
BLACK
6
CONTINUOUS
10
0.491998
20
-0.425911
11
0.492074
21
-0.426064
0
LINE
8
BLACK
6
CONTINUOUS
10
0.492074
20
-0.426064
11
0.492221
21
-0.426148
0
LINE
8
BLACK
6
CONTINUOUS
10
0.492221
20
-0.426148
11
0.492514
21
-0.426953
0
LINE
8
BLACK
6
CONTINUOUS
10
0.492514
20
-0.426953
11
0.492894
21
-0.427722
0
LINE
8
BLACK
6
CONTINUOUS
10
0.492894
20
-0.427722
11
0.492853
21
-0.427887
0
LINE
8
BLACK
6
CONTINUOUS
10
0.492853
20
-0.427887
11
0.492911
21
-0.428046
0
LINE
8
BLACK
6
CONTINUOUS
10
0.492911
20
-0.428046
11
0.492911
21
-0.464464
0
LINE
8
BLACK
6
CONTINUOUS
10
0.492911
20
-0.464464
11
0.501207
21
-0.464464
0
LINE
8
BLACK
6
CONTINUOUS
10
0.501207
20
-0.464464
11
0.502217
21
-0.464642
0
LINE
8
BLACK
6
CONTINUOUS
10
0.502217
20
-0.464642
11
0.503764
21
-0.46594
0
LINE
8
BLACK
6
CONTINUOUS
10
0.503764
20
-0.46594
11
0.504115
21
-0.467929
0
LINE
8
BLACK
6
CONTINUOUS
10
0.504115
20
-0.467929
11
0.503105
21
-0.469678
0
LINE
8
BLACK
6
CONTINUOUS
10
0.503105
20
-0.469678
11
0.501207
21
-0.470369
0
LINE
8
BLACK
6
CONTINUOUS
10
0.501207
20
-0.470369
11
0.47871
21
-0.470369
0
LINE
8
BLACK
6
CONTINUOUS
10
0.47871
20
-0.470369
11
0.4777
21
-0.470191
0
LINE
8
BLACK
6
CONTINUOUS
10
0.4777
20
-0.470191
11
0.476153
21
-0.468893
0
LINE
8
BLACK
6
CONTINUOUS
10
0.476153
20
-0.468893
11
0.475802
21
-0.466904
0
LINE
8
BLACK
6
CONTINUOUS
10
0.475802
20
-0.466904
11
0.476812
21
-0.465155
0
LINE
8
BLACK
6
CONTINUOUS
10
0.476812
20
-0.465155
11
0.47871
21
-0.464464
0
LINE
8
BLACK
6
CONTINUOUS
10
0.47871
20
-0.464464
11
0.487006
21
-0.464464
0
LINE
8
BLACK
6
CONTINUOUS
10
0.487006
20
-0.464464
11
0.487006
21
-0.43705
0
LINE
8
BLACK
6
CONTINUOUS
10
0.487006
20
-0.43705
11
0.484548
21
-0.439508
0
LINE
8
BLACK
6
CONTINUOUS
10
0.484548
20
-0.439508
11
0.483825
21
-0.440015
0
LINE
8
BLACK
6
CONTINUOUS
10
0.483825
20
-0.440015
11
0.48378
21
-0.440061
0
LINE
8
BLACK
6
CONTINUOUS
10
0.48378
20
-0.440061
11
0.480031
21
-0.441936
0
LINE
8
BLACK
6
CONTINUOUS
10
0.480031
20
-0.441936
11
0.479048
21
-0.442228
0
LINE
8
BLACK
6
CONTINUOUS
10
0.479048
20
-0.442228
11
0.477083
21
-0.441759
0
LINE
8
BLACK
6
CONTINUOUS
10
0.477083
20
-0.441759
11
0.47588
21
-0.440137
0
LINE
8
BLACK
6
CONTINUOUS
10
0.47588
20
-0.440137
11
0.476001
21
-0.438121
0
LINE
8
BLACK
6
CONTINUOUS
10
0.476001
20
-0.438121
11
0.47739
21
-0.436654
0
LINE
8
BLACK
6
CONTINUOUS
10
0.47739
20
-0.436654
11
0.480711
21
-0.434994
0
LINE
8
BLACK
6
CONTINUOUS
10
0.480711
20
-0.434994
11
0.483915
21
-0.43179
0
LINE
8
BLACK
6
CONTINUOUS
10
0.483915
20
-0.43179
11
0.487502
21
-0.426409
0
LINE
8
BLACK
6
CONTINUOUS
10
0.487502
20
-0.426409
11
0.48821
21
-0.425667
0
LINE
8
BLACK
6
CONTINUOUS
10
0.48821
20
-0.425667
11
0.488373
21
-0.425619
0
LINE
8
BLACK
6
CONTINUOUS
10
0.488373
20
-0.425619
11
0.488482
21
-0.425489
0
LINE
8
BLACK
6
CONTINUOUS
10
0.488482
20
-0.425489
11
0.489326
21
-0.425341
0
LINE
8
BLACK
6
CONTINUOUS
10
0.489326
20
-0.425341
11
0.490149
21
-0.4251
0
LINE
8
BLACK
6
CONTINUOUS
10
0.490149
20
-0.4251
11
0.490304
21
-0.425168
0
LINE
8
BLACK
6
CONTINUOUS
10
1.33088
20
0.102642
11
1.33146
21
0.102681
0
LINE
8
BLACK
6
CONTINUOUS
10
1.33146
20
0.102681
11
1.33233
21
0.102253
0
LINE
8
BLACK
6
CONTINUOUS
10
1.33233
20
0.102253
11
1.33327
21
0.102002
0
LINE
8
BLACK
6
CONTINUOUS
10
1.33327
20
0.102002
11
1.33368
21
0.10159
0
LINE
8
BLACK
6
CONTINUOUS
10
1.33368
20
0.10159
11
1.3342
21
0.101332
0
LINE
8
BLACK
6
CONTINUOUS
10
1.3342
20
0.101332
11
1.33474
21
0.100526
0
LINE
8
BLACK
6
CONTINUOUS
10
1.33474
20
0.100526
11
1.33543
21
0.0998407
0
LINE
8
BLACK
6
CONTINUOUS
10
1.33543
20
0.0998407
11
1.33558
21
0.0992772
0
LINE
8
BLACK
6
CONTINUOUS
10
1.33558
20
0.0992772
11
1.3359
21
0.0987924
0
LINE
8
BLACK
6
CONTINUOUS
10
1.3359
20
0.0987924
11
1.33597
21
0.0978246
0
LINE
8
BLACK
6
CONTINUOUS
10
1.33597
20
0.0978246
11
1.33622
21
0.0968879
0
LINE
8
BLACK
6
CONTINUOUS
10
1.33622
20
0.0968879
11
1.33607
21
0.0963244
0
LINE
8
BLACK
6
CONTINUOUS
10
1.33607
20
0.0963244
11
1.33611
21
0.0957423
0
LINE
8
BLACK
6
CONTINUOUS
10
1.33611
20
0.0957423
11
1.33568
21
0.0948719
0
LINE
8
BLACK
6
CONTINUOUS
10
1.33568
20
0.0948719
11
1.33543
21
0.0939352
0
LINE
8
BLACK
6
CONTINUOUS
10
1.33543
20
0.0939352
11
1.33502
21
0.0935227
0
LINE
8
BLACK
6
CONTINUOUS
10
1.33502
20
0.0935227
11
1.33476
21
0.0929991
0
LINE
8
BLACK
6
CONTINUOUS
10
1.33476
20
0.0929991
11
1.32039
21
0.0765804
0
LINE
8
BLACK
6
CONTINUOUS
10
1.32039
20
0.0765804
11
1.32658
21
0.073486
0
LINE
8
BLACK
6
CONTINUOUS
10
1.32658
20
0.073486
11
1.32729
21
0.0728552
0
LINE
8
BLACK
6
CONTINUOUS
10
1.32729
20
0.0728552
11
1.32812
21
0.0723798
0
LINE
8
BLACK
6
CONTINUOUS
10
1.32812
20
0.0723798
11
1.3313
21
0.0691927
0
LINE
8
BLACK
6
CONTINUOUS
10
1.3313
20
0.0691927
11
1.33178
21
0.0683693
0
LINE
8
BLACK
6
CONTINUOUS
10
1.33178
20
0.0683693
11
1.33241
21
0.0676579
0
LINE
8
BLACK
6
CONTINUOUS
10
1.33241
20
0.0676579
11
1.3356
21
0.0612837
0
LINE
8
BLACK
6
CONTINUOUS
10
1.3356
20
0.0612837
11
1.33587
21
0.0599538
0
LINE
8
BLACK
6
CONTINUOUS
10
1.33587
20
0.0599538
11
1.33622
21
0.0586427
0
LINE
8
BLACK
6
CONTINUOUS
10
1.33622
20
0.0586427
11
1.33622
21
0.0427072
0
LINE
8
BLACK
6
CONTINUOUS
10
1.33622
20
0.0427072
11
1.33587
21
0.0413961
0
LINE
8
BLACK
6
CONTINUOUS
10
1.33587
20
0.0413961
11
1.3356
21
0.0400661
0
LINE
8
BLACK
6
CONTINUOUS
10
1.3356
20
0.0400661
11
1.33241
21
0.0336919
0
LINE
8
BLACK
6
CONTINUOUS
10
1.33241
20
0.0336919
11
1.33178
21
0.0329806
0
LINE
8
BLACK
6
CONTINUOUS
10
1.33178
20
0.0329806
11
1.3313
21
0.0321572
0
LINE
8
BLACK
6
CONTINUOUS
10
1.3313
20
0.0321572
11
1.32812
21
0.0289701
0
LINE
8
BLACK
6
CONTINUOUS
10
1.32812
20
0.0289701
11
1.32729
21
0.0284946
0
LINE
8
BLACK
6
CONTINUOUS
10
1.32729
20
0.0284946
11
1.32658
21
0.0278638
0
LINE
8
BLACK
6
CONTINUOUS
10
1.32658
20
0.0278638
11
1.32021
21
0.0246767
0
LINE
8
BLACK
6
CONTINUOUS
10
1.32021
20
0.0246767
11
1.31888
21
0.0244046
0
LINE
8
BLACK
6
CONTINUOUS
10
1.31888
20
0.0244046
11
1.31757
21
0.0240533
0
LINE
8
BLACK
6
CONTINUOUS
10
1.31757
20
0.0240533
11
1.29844
21
0.0240533
0
LINE
8
BLACK
6
CONTINUOUS
10
1.29844
20
0.0240533
11
1.29713
21
0.0244046
0
LINE
8
BLACK
6
CONTINUOUS
10
1.29713
20
0.0244046
11
1.2958
21
0.0246767
0
LINE
8
BLACK
6
CONTINUOUS
10
1.2958
20
0.0246767
11
1.28943
21
0.0278638
0
LINE
8
BLACK
6
CONTINUOUS
10
1.28943
20
0.0278638
11
1.28872
21
0.0284946
0
LINE
8
BLACK
6
CONTINUOUS
10
1.28872
20
0.0284946
11
1.28789
21
0.0289701
0
LINE
8
BLACK
6
CONTINUOUS
10
1.28789
20
0.0289701
11
1.28471
21
0.0321572
0
LINE
8
BLACK
6
CONTINUOUS
10
1.28471
20
0.0321572
11
1.28318
21
0.0348046
0
LINE
8
BLACK
6
CONTINUOUS
10
1.28318
20
0.0348046
11
1.28318
21
0.0378615
0
LINE
8
BLACK
6
CONTINUOUS
10
1.28318
20
0.0378615
11
1.28471
21
0.0405089
0
LINE
8
BLACK
6
CONTINUOUS
10
1.28471
20
0.0405089
11
1.28735
21
0.0420373
0
LINE
8
BLACK
6
CONTINUOUS
10
1.28735
20
0.0420373
11
1.29041
21
0.0420373
0
LINE
8
BLACK
6
CONTINUOUS
10
1.29041
20
0.0420373
11
1.29306
21
0.0405088
0
LINE
8
BLACK
6
CONTINUOUS
10
1.29306
20
0.0405088
11
1.29557
21
0.0379993
0
LINE
8
BLACK
6
CONTINUOUS
10
1.29557
20
0.0379993
11
1.29984
21
0.0358643
0
LINE
8
BLACK
6
CONTINUOUS
10
1.29984
20
0.0358643
11
1.31617
21
0.0358643
0
LINE
8
BLACK
6
CONTINUOUS
10
1.31617
20
0.0358643
11
1.32044
21
0.0379993
0
LINE
8
BLACK
6
CONTINUOUS
10
1.32044
20
0.0379993
11
1.32227
21
0.0398311
0
LINE
8
BLACK
6
CONTINUOUS
10
1.32227
20
0.0398311
11
1.32441
21
0.0441013
0
LINE
8
BLACK
6
CONTINUOUS
10
1.32441
20
0.0441013
11
1.32441
21
0.0572485
0
LINE
8
BLACK
6
CONTINUOUS
10
1.32441
20
0.0572485
11
1.32227
21
0.0615187
0
LINE
8
BLACK
6
CONTINUOUS
10
1.32227
20
0.0615187
11
1.32044
21
0.0633505
0
LINE
8
BLACK
6
CONTINUOUS
10
1.32044
20
0.0633505
11
1.31617
21
0.0654856
0
LINE
8
BLACK
6
CONTINUOUS
10
1.31617
20
0.0654856
11
1.30801
21
0.0654856
0
LINE
8
BLACK
6
CONTINUOUS
10
1.30801
20
0.0654856
11
1.30744
21
0.0656366
0
LINE
8
BLACK
6
CONTINUOUS
10
1.30744
20
0.0656366
11
1.30686
21
0.0655978
0
LINE
8
BLACK
6
CONTINUOUS
10
1.30686
20
0.0655978
11
1.30599
21
0.0660257
0
LINE
8
BLACK
6
CONTINUOUS
10
1.30599
20
0.0660257
11
1.30505
21
0.0662768
0
LINE
8
BLACK
6
CONTINUOUS
10
1.30505
20
0.0662768
11
1.30464
21
0.0666893
0
LINE
8
BLACK
6
CONTINUOUS
10
1.30464
20
0.0666893
11
1.30412
21
0.0669468
0
LINE
8
BLACK
6
CONTINUOUS
10
1.30412
20
0.0669468
11
1.30358
21
0.0677526
0
LINE
8
BLACK
6
CONTINUOUS
10
1.30358
20
0.0677526
11
1.30289
21
0.0684383
0
LINE
8
BLACK
6
CONTINUOUS
10
1.30289
20
0.0684383
11
1.30274
21
0.0690019
0
LINE
8
BLACK
6
CONTINUOUS
10
1.30274
20
0.0690019
11
1.30242
21
0.0694866
0
LINE
8
BLACK
6
CONTINUOUS
10
1.30242
20
0.0694866
11
1.30235
21
0.0704544
0
LINE
8
BLACK
6
CONTINUOUS
10
1.30235
20
0.0704544
11
1.3021
21
0.0713911
0
LINE
8
BLACK
6
CONTINUOUS
10
1.3021
20
0.0713911
11
1.30225
21
0.0719546
0
LINE
8
BLACK
6
CONTINUOUS
10
1.30225
20
0.0719546
11
1.30221
21
0.0725367
0
LINE
8
BLACK
6
CONTINUOUS
10
1.30221
20
0.0725367
11
1.30264
21
0.0734071
0
LINE
8
BLACK
6
CONTINUOUS
10
1.30264
20
0.0734071
11
1.30289
21
0.0743439
0
LINE
8
BLACK
6
CONTINUOUS
10
1.30289
20
0.0743439
11
1.3033
21
0.0747564
0
LINE
8
BLACK
6
CONTINUOUS
10
1.3033
20
0.0747564
11
1.30356
21
0.0752799
0
LINE
8
BLACK
6
CONTINUOUS
10
1.30356
20
0.0752799
11
1.3173
21
0.0909824
0
LINE
8
BLACK
6
CONTINUOUS
10
1.3173
20
0.0909824
11
1.28888
21
0.0909824
0
LINE
8
BLACK
6
CONTINUOUS
10
1.28888
20
0.0909824
11
1.28593
21
0.0917736
0
LINE
8
BLACK
6
CONTINUOUS
10
1.28593
20
0.0917736
11
1.28377
21
0.0939352
0
LINE
8
BLACK
6
CONTINUOUS
10
1.28377
20
0.0939352
11
1.28298
21
0.0968879
0
LINE
8
BLACK
6
CONTINUOUS
10
1.28298
20
0.0968879
11
1.28377
21
0.0998407
0
LINE
8
BLACK
6
CONTINUOUS
10
1.28377
20
0.0998407
11
1.28593
21
0.102002
0
LINE
8
BLACK
6
CONTINUOUS
10
1.28593
20
0.102002
11
1.28888
21
0.102793
0
LINE
8
BLACK
6
CONTINUOUS
10
1.28888
20
0.102793
11
1.33031
21
0.102793
0
LINE
8
BLACK
6
CONTINUOUS
10
1.33031
20
0.102793
11
1.33088
21
0.102642
0
LINE
8
BLACK
6
CONTINUOUS
10
0.743654
20
0.102002
11
0.745815
21
0.0998407
0
LINE
8
BLACK
6
CONTINUOUS
10
0.745815
20
0.0998407
11
0.746607
21
0.0968879
0
LINE
8
BLACK
6
CONTINUOUS
10
0.746607
20
0.0968879
11
0.746607
21
0.0299588
0
LINE
8
BLACK
6
CONTINUOUS
10
0.746607
20
0.0299588
11
0.745815
21
0.027006
0
LINE
8
BLACK
6
CONTINUOUS
10
0.745815
20
0.027006
11
0.743654
21
0.0248444
0
LINE
8
BLACK
6
CONTINUOUS
10
0.743654
20
0.0248444
11
0.740701
21
0.0240533
0
LINE
8
BLACK
6
CONTINUOUS
10
0.740701
20
0.0240533
11
0.737748
21
0.0248444
0
LINE
8
BLACK
6
CONTINUOUS
10
0.737748
20
0.0248444
11
0.735587
21
0.027006
0
LINE
8
BLACK
6
CONTINUOUS
10
0.735587
20
0.027006
11
0.734796
21
0.0299588
0
LINE
8
BLACK
6
CONTINUOUS
10
0.734796
20
0.0299588
11
0.734796
21
0.0968879
0
LINE
8
BLACK
6
CONTINUOUS
10
0.734796
20
0.0968879
11
0.735587
21
0.0998407
0
LINE
8
BLACK
6
CONTINUOUS
10
0.735587
20
0.0998407
11
0.737748
21
0.102002
0
LINE
8
BLACK
6
CONTINUOUS
10
0.737748
20
0.102002
11
0.740701
21
0.102793
0
LINE
8
BLACK
6
CONTINUOUS
10
0.740701
20
0.102793
11
0.743654
21
0.102002
0
LINE
8
BLACK
6
CONTINUOUS
10
0.939612
20
0.102442
11
0.940943
21
0.10217
0
LINE
8
BLACK
6
CONTINUOUS
10
0.940943
20
0.10217
11
0.947317
21
0.0989828
0
LINE
8
BLACK
6
CONTINUOUS
10
0.947317
20
0.0989828
11
0.948028
21
0.098352
0
LINE
8
BLACK
6
CONTINUOUS
10
0.948028
20
0.098352
11
0.948851
21
0.0978766
0
LINE
8
BLACK
6
CONTINUOUS
10
0.948851
20
0.0978766
11
0.955226
21
0.0915024
0
LINE
8
BLACK
6
CONTINUOUS
10
0.955226
20
0.0915024
11
0.955251
21
0.091458
0
LINE
8
BLACK
6
CONTINUOUS
10
0.955251
20
0.091458
11
0.955295
21
0.0914316
0
LINE
8
BLACK
6
CONTINUOUS
10
0.955295
20
0.0914316
11
0.956014
21
0.0901374
0
LINE
8
BLACK
6
CONTINUOUS
10
0.956014
20
0.0901374
11
0.956754
21
0.0888551
0
LINE
8
BLACK
6
CONTINUOUS
10
0.956754
20
0.0888551
11
0.956754
21
0.0888037
0
LINE
8
BLACK
6
CONTINUOUS
10
0.956754
20
0.0888037
11
0.956779
21
0.0887589
0
LINE
8
BLACK
6
CONTINUOUS
10
0.956779
20
0.0887589
11
0.959966
21
0.0760105
0
LINE
8
BLACK
6
CONTINUOUS
10
0.959966
20
0.0760105
11
0.959954
21
0.075282
0
LINE
8
BLACK
6
CONTINUOUS
10
0.959954
20
0.075282
11
0.960142
21
0.0745782
0
LINE
8
BLACK
6
CONTINUOUS
10
0.960142
20
0.0745782
11
0.960142
21
0.0522685
0
LINE
8
BLACK
6
CONTINUOUS
10
0.960142
20
0.0522685
11
0.959954
21
0.0515647
0
LINE
8
BLACK
6
CONTINUOUS
10
0.959954
20
0.0515647
11
0.959966
21
0.0508362
0
LINE
8
BLACK
6
CONTINUOUS
10
0.959966
20
0.0508362
11
0.956779
21
0.0380878
0
LINE
8
BLACK
6
CONTINUOUS
10
0.956779
20
0.0380878
11
0.956754
21
0.038043
0
LINE
8
BLACK
6
CONTINUOUS
10
0.956754
20
0.038043
11
0.956754
21
0.0379916
0
LINE
8
BLACK
6
CONTINUOUS
10
0.956754
20
0.0379916
11
0.956014
21
0.0367093
0
LINE
8
BLACK
6
CONTINUOUS
10
0.956014
20
0.0367093
11
0.955295
21
0.0354151
0
LINE
8
BLACK
6
CONTINUOUS
10
0.955295
20
0.0354151
11
0.955251
21
0.0353887
0
LINE
8
BLACK
6
CONTINUOUS
10
0.955251
20
0.0353887
11
0.955226
21
0.0353443
0
LINE
8
BLACK
6
CONTINUOUS
10
0.955226
20
0.0353443
11
0.948851
21
0.02897
0
LINE
8
BLACK
6
CONTINUOUS
10
0.948851
20
0.02897
11
0.948028
21
0.0284946
0
LINE
8
BLACK
6
CONTINUOUS
10
0.948028
20
0.0284946
11
0.947317
21
0.0278638
0
LINE
8
BLACK
6
CONTINUOUS
10
0.947317
20
0.0278638
11
0.940942
21
0.0246767
0
LINE
8
BLACK
6
CONTINUOUS
10
0.940942
20
0.0246767
11
0.939613
21
0.0244046
0
LINE
8
BLACK
6
CONTINUOUS
10
0.939613
20
0.0244046
11
0.938301
21
0.0240533
0
LINE
8
BLACK
6
CONTINUOUS
10
0.938301
20
0.0240533
11
0.925553
21
0.0240533
0
LINE
8
BLACK
6
CONTINUOUS
10
0.925553
20
0.0240533
11
0.924242
21
0.0244046
0
LINE
8
BLACK
6
CONTINUOUS
10
0.924242
20
0.0244046
11
0.922912
21
0.0246767
0
LINE
8
BLACK
6
CONTINUOUS
10
0.922912
20
0.0246767
11
0.916538
21
0.0278638
0
LINE
8
BLACK
6
CONTINUOUS
10
0.916538
20
0.0278638
11
0.915826
21
0.0284946
0
LINE
8
BLACK
6
CONTINUOUS
10
0.915826
20
0.0284946
11
0.915003
21
0.02897
0
LINE
8
BLACK
6
CONTINUOUS
10
0.915003
20
0.02897
11
0.908629
21
0.0353443
0
LINE
8
BLACK
6
CONTINUOUS
10
0.908629
20
0.0353443
11
0.908603
21
0.0353887
0
LINE
8
BLACK
6
CONTINUOUS
10
0.908603
20
0.0353887
11
0.908559
21
0.0354151
0
LINE
8
BLACK
6
CONTINUOUS
10
0.908559
20
0.0354151
11
0.907841
21
0.0367093
0
LINE
8
BLACK
6
CONTINUOUS
10
0.907841
20
0.0367093
11
0.9071
21
0.0379916
0
LINE
8
BLACK
6
CONTINUOUS
10
0.9071
20
0.0379916
11
0.9071
21
0.038043
0
LINE
8
BLACK
6
CONTINUOUS
10
0.9071
20
0.038043
11
0.907075
21
0.0380878
0
LINE
8
BLACK
6
CONTINUOUS
10
0.907075
20
0.0380878
11
0.903888
21
0.0508362
0
LINE
8
BLACK
6
CONTINUOUS
10
0.903888
20
0.0508362
11
0.903901
21
0.0515647
0
LINE
8
BLACK
6
CONTINUOUS
10
0.903901
20
0.0515647
11
0.903712
21
0.0522685
0
LINE
8
BLACK
6
CONTINUOUS
10
0.903712
20
0.0522685
11
0.903712
21
0.0745782
0
LINE
8
BLACK
6
CONTINUOUS
10
0.903712
20
0.0745782
11
0.903901
21
0.075282
0
LINE
8
BLACK
6
CONTINUOUS
10
0.903901
20
0.075282
11
0.903888
21
0.0760105
0
LINE
8
BLACK
6
CONTINUOUS
10
0.903888
20
0.0760105
11
0.907075
21
0.0887589
0
LINE
8
BLACK
6
CONTINUOUS
10
0.907075
20
0.0887589
11
0.9071
21
0.0888037
0
LINE
8
BLACK
6
CONTINUOUS
10
0.9071
20
0.0888037
11
0.9071
21
0.0888551
0
LINE
8
BLACK
6
CONTINUOUS
10
0.9071
20
0.0888551
11
0.907841
21
0.0901374
0
LINE
8
BLACK
6
CONTINUOUS
10
0.907841
20
0.0901374
11
0.908559
21
0.0914316
0
LINE
8
BLACK
6
CONTINUOUS
10
0.908559
20
0.0914316
11
0.908603
21
0.091458
0
LINE
8
BLACK
6
CONTINUOUS
10
0.908603
20
0.091458
11
0.908629
21
0.0915024
0
LINE
8
BLACK
6
CONTINUOUS
10
0.908629
20
0.0915024
11
0.915003
21
0.0978766
0
LINE
8
BLACK
6
CONTINUOUS
10
0.915003
20
0.0978766
11
0.915826
21
0.098352
0
LINE
8
BLACK
6
CONTINUOUS
10
0.915826
20
0.098352
11
0.916538
21
0.0989828
0
LINE
8
BLACK
6
CONTINUOUS
10
0.916538
20
0.0989828
11
0.922912
21
0.10217
0
LINE
8
BLACK
6
CONTINUOUS
10
0.922912
20
0.10217
11
0.924242
21
0.102442
0
LINE
8
BLACK
6
CONTINUOUS
10
0.924242
20
0.102442
11
0.925553
21
0.102793
0
LINE
8
BLACK
6
CONTINUOUS
10
0.925553
20
0.102793
11
0.938301
21
0.102793
0
LINE
8
BLACK
6
CONTINUOUS
10
0.938301
20
0.102793
11
0.939612
21
0.102442
0
LINE
8
BLACK
6
CONTINUOUS
10
0.926947
20
0.0909824
11
0.922677
21
0.0888473
0
LINE
8
BLACK
6
CONTINUOUS
10
0.922677
20
0.0888473
11
0.918137
21
0.0843074
0
LINE
8
BLACK
6
CONTINUOUS
10
0.918137
20
0.0843074
11
0.915523
21
0.0738512
0
LINE
8
BLACK
6
CONTINUOUS
10
0.915523
20
0.0738512
11
0.915523
21
0.0529955
0
LINE
8
BLACK
6
CONTINUOUS
10
0.915523
20
0.0529955
11
0.918137
21
0.0425393
0
LINE
8
BLACK
6
CONTINUOUS
10
0.918137
20
0.0425393
11
0.922677
21
0.0379993
0
LINE
8
BLACK
6
CONTINUOUS
10
0.922677
20
0.0379993
11
0.926947
21
0.0358643
0
LINE
8
BLACK
6
CONTINUOUS
10
0.926947
20
0.0358643
11
0.936907
21
0.0358643
0
LINE
8
BLACK
6
CONTINUOUS
10
0.936907
20
0.0358643
11
0.941177
21
0.0379993
0
LINE
8
BLACK
6
CONTINUOUS
10
0.941177
20
0.0379993
11
0.945717
21
0.0425393
0
LINE
8
BLACK
6
CONTINUOUS
10
0.945717
20
0.0425393
11
0.948331
21
0.0529955
0
LINE
8
BLACK
6
CONTINUOUS
10
0.948331
20
0.0529955
11
0.948331
21
0.0738512
0
LINE
8
BLACK
6
CONTINUOUS
10
0.948331
20
0.0738512
11
0.945717
21
0.0843074
0
LINE
8
BLACK
6
CONTINUOUS
10
0.945717
20
0.0843074
11
0.941177
21
0.0888473
0
LINE
8
BLACK
6
CONTINUOUS
10
0.941177
20
0.0888473
11
0.936907
21
0.0909824
0
LINE
8
BLACK
6
CONTINUOUS
10
0.936907
20
0.0909824
11
0.926947
21
0.0909824
0
LINE
8
BLACK
6
CONTINUOUS
10
0.985874
20
0.102002
11
0.988035
21
0.0998407
0
LINE
8
BLACK
6
CONTINUOUS
10
0.988035
20
0.0998407
11
0.988826
21
0.0968879
0
LINE
8
BLACK
6
CONTINUOUS
10
0.988826
20
0.0968879
11
0.988826
21
0.0358643
0
LINE
8
BLACK
6
CONTINUOUS
10
0.988826
20
0.0358643
11
1.01479
21
0.0358643
0
LINE
8
BLACK
6
CONTINUOUS
10
1.01479
20
0.0358643
11
1.01774
21
0.0350731
0
LINE
8
BLACK
6
CONTINUOUS
10
1.01774
20
0.0350731
11
1.01991
21
0.0329115
0
LINE
8
BLACK
6
CONTINUOUS
10
1.01991
20
0.0329115
11
1.0207
21
0.0299588
0
LINE
8
BLACK
6
CONTINUOUS
10
1.0207
20
0.0299588
11
1.01991
21
0.027006
0
LINE
8
BLACK
6
CONTINUOUS
10
1.01991
20
0.027006
11
1.01774
21
0.0248444
0
LINE
8
BLACK
6
CONTINUOUS
10
1.01774
20
0.0248444
11
1.01479
21
0.0240533
0
LINE
8
BLACK
6
CONTINUOUS
10
1.01479
20
0.0240533
11
0.982921
21
0.0240533
0
LINE
8
BLACK
6
CONTINUOUS
10
0.982921
20
0.0240533
11
0.979968
21
0.0248444
0
LINE
8
BLACK
6
CONTINUOUS
10
0.979968
20
0.0248444
11
0.977807
21
0.027006
0
LINE
8
BLACK
6
CONTINUOUS
10
0.977807
20
0.027006
11
0.977015
21
0.0299588
0
LINE
8
BLACK
6
CONTINUOUS
10
0.977015
20
0.0299588
11
0.977015
21
0.0968879
0
LINE
8
BLACK
6
CONTINUOUS
10
0.977015
20
0.0968879
11
0.977807
21
0.0998407
0
LINE
8
BLACK
6
CONTINUOUS
10
0.977807
20
0.0998407
11
0.979968
21
0.102002
0
LINE
8
BLACK
6
CONTINUOUS
10
0.979968
20
0.102002
11
0.982921
21
0.102793
0
LINE
8
BLACK
6
CONTINUOUS
10
0.982921
20
0.102793
11
0.985874
21
0.102002
0
LINE
8
BLACK
6
CONTINUOUS
10
1.05396
20
0.102547
11
1.0549
21
0.10249
0
LINE
8
BLACK
6
CONTINUOUS
10
1.0549
20
0.10249
11
1.06447
21
0.0993032
0
LINE
8
BLACK
6
CONTINUOUS
10
1.06447
20
0.0993032
11
1.0656
21
0.0985553
0
LINE
8
BLACK
6
CONTINUOUS
10
1.0656
20
0.0985553
11
1.06677
21
0.0978766
0
LINE
8
BLACK
6
CONTINUOUS
10
1.06677
20
0.0978766
11
1.07315
21
0.0915024
0
LINE
8
BLACK
6
CONTINUOUS
10
1.07315
20
0.0915024
11
1.07362
21
0.090679
0
LINE
8
BLACK
6
CONTINUOUS
10
1.07362
20
0.090679
11
1.07425
21
0.0899676
0
LINE
8
BLACK
6
CONTINUOUS
10
1.07425
20
0.0899676
11
1.07744
21
0.0835934
0
LINE
8
BLACK
6
CONTINUOUS
10
1.07744
20
0.0835934
11
1.07757
21
0.0829546
0
LINE
8
BLACK
6
CONTINUOUS
10
1.07757
20
0.0829546
11
1.07789
21
0.0823847
0
LINE
8
BLACK
6
CONTINUOUS
10
1.07789
20
0.0823847
11
1.08108
21
0.0696363
0
LINE
8
BLACK
6
CONTINUOUS
10
1.08108
20
0.0696363
11
1.08106
21
0.0689077
0
LINE
8
BLACK
6
CONTINUOUS
10
1.08106
20
0.0689077
11
1.08125
21
0.068204
0
LINE
8
BLACK
6
CONTINUOUS
10
1.08125
20
0.068204
11
1.08125
21
0.0586427
0
LINE
8
BLACK
6
CONTINUOUS
10
1.08125
20
0.0586427
11
1.08106
21
0.0579389
0
LINE
8
BLACK
6
CONTINUOUS
10
1.08106
20
0.0579389
11
1.08108
21
0.0572104
0
LINE
8
BLACK
6
CONTINUOUS
10
1.08108
20
0.0572104
11
1.07789
21
0.044462
0
LINE
8
BLACK
6
CONTINUOUS
10
1.07789
20
0.044462
11
1.07757
21
0.043892
0
LINE
8
BLACK
6
CONTINUOUS
10
1.07757
20
0.043892
11
1.07744
21
0.0432533
0
LINE
8
BLACK
6
CONTINUOUS
10
1.07744
20
0.0432533
11
1.07425
21
0.0368791
0
LINE
8
BLACK
6
CONTINUOUS
10
1.07425
20
0.0368791
11
1.07362
21
0.0361677
0
LINE
8
BLACK
6
CONTINUOUS
10
1.07362
20
0.0361677
11
1.07315
21
0.0353443
0
LINE
8
BLACK
6
CONTINUOUS
10
1.07315
20
0.0353443
11
1.06677
21
0.02897
0
LINE
8
BLACK
6
CONTINUOUS
10
1.06677
20
0.02897
11
1.0656
21
0.0282913
0
LINE
8
BLACK
6
CONTINUOUS
10
1.0656
20
0.0282913
11
1.06447
21
0.0275434
0
LINE
8
BLACK
6
CONTINUOUS
10
1.06447
20
0.0275434
11
1.0549
21
0.0243563
0
LINE
8
BLACK
6
CONTINUOUS
10
1.0549
20
0.0243563
11
1.05396
21
0.0242993
0
LINE
8
BLACK
6
CONTINUOUS
10
1.05396
20
0.0242993
11
1.05304
21
0.0240533
0
LINE
8
BLACK
6
CONTINUOUS
10
1.05304
20
0.0240533
11
1.0371
21
0.0240533
0
LINE
8
BLACK
6
CONTINUOUS
10
1.0371
20
0.0240533
11
1.03415
21
0.0248444
0
LINE
8
BLACK
6
CONTINUOUS
10
1.03415
20
0.0248444
11
1.03199
21
0.027006
0
LINE
8
BLACK
6
CONTINUOUS
10
1.03199
20
0.027006
11
1.0312
21
0.0299588
0
LINE
8
BLACK
6
CONTINUOUS
10
1.0312
20
0.0299588
11
1.0312
21
0.0968879
0
LINE
8
BLACK
6
CONTINUOUS
10
1.0312
20
0.0968879
11
1.03199
21
0.0998407
0
LINE
8
BLACK
6
CONTINUOUS
10
1.03199
20
0.0998407
11
1.03415
21
0.102002
0
LINE
8
BLACK
6
CONTINUOUS
10
1.03415
20
0.102002
11
1.0371
21
0.102793
0
LINE
8
BLACK
6
CONTINUOUS
10
1.0371
20
0.102793
11
1.05304
21
0.102793
0
LINE
8
BLACK
6
CONTINUOUS
10
1.05304
20
0.102793
11
1.05396
21
0.102547
0
LINE
8
BLACK
6
CONTINUOUS
10
1.04301
20
0.0909824
11
1.04301
21
0.0358643
0
LINE
8
BLACK
6
CONTINUOUS
10
1.04301
20
0.0358643
11
1.05208
21
0.0358643
0
LINE
8
BLACK
6
CONTINUOUS
10
1.05208
20
0.0358643
11
1.05941
21
0.0383075
0
LINE
8
BLACK
6
CONTINUOUS
10
1.05941
20
0.0383075
11
1.06412
21
0.0430183
0
LINE
8
BLACK
6
CONTINUOUS
10
1.06412
20
0.0430183
11
1.06659
21
0.0479556
0
LINE
8
BLACK
6
CONTINUOUS
10
1.06659
20
0.0479556
11
1.06944
21
0.0593696
0
LINE
8
BLACK
6
CONTINUOUS
10
1.06944
20
0.0593696
11
1.06944
21
0.067477
0
LINE
8
BLACK
6
CONTINUOUS
10
1.06944
20
0.067477
11
1.06659
21
0.0788911
0
LINE
8
BLACK
6
CONTINUOUS
10
1.06659
20
0.0788911
11
1.06412
21
0.0838284
0
LINE
8
BLACK
6
CONTINUOUS
10
1.06412
20
0.0838284
11
1.05941
21
0.0885392
0
LINE
8
BLACK
6
CONTINUOUS
10
1.05941
20
0.0885392
11
1.05208
21
0.0909824
0
LINE
8
BLACK
6
CONTINUOUS
10
1.05208
20
0.0909824
11
1.04301
21
0.0909824
0
LINE
8
BLACK
6
CONTINUOUS
10
0.883886
20
0.102002
11
0.886048
21
0.0998407
0
LINE
8
BLACK
6
CONTINUOUS
10
0.886048
20
0.0998407
11
0.886839
21
0.0968879
0
LINE
8
BLACK
6
CONTINUOUS
10
0.886839
20
0.0968879
11
0.886839
21
0.0299588
0
LINE
8
BLACK
6
CONTINUOUS
10
0.886839
20
0.0299588
11
0.886048
21
0.027006
0
LINE
8
BLACK
6
CONTINUOUS
10
0.886048
20
0.027006
11
0.883886
21
0.0248444
0
LINE
8
BLACK
6
CONTINUOUS
10
0.883886
20
0.0248444
11
0.880934
21
0.0240533
0
LINE
8
BLACK
6
CONTINUOUS
10
0.880934
20
0.0240533
11
0.877981
21
0.0248444
0
LINE
8
BLACK
6
CONTINUOUS
10
0.877981
20
0.0248444
11
0.875819
21
0.027006
0
LINE
8
BLACK
6
CONTINUOUS
10
0.875819
20
0.027006
11
0.875028
21
0.0299588
0
LINE
8
BLACK
6
CONTINUOUS
10
0.875028
20
0.0299588
11
0.875028
21
0.0591114
0
LINE
8
BLACK
6
CONTINUOUS
10
0.875028
20
0.0591114
11
0.848594
21
0.0591114
0
LINE
8
BLACK
6
CONTINUOUS
10
0.848594
20
0.0591114
11
0.848594
21
0.0299588
0
LINE
8
BLACK
6
CONTINUOUS
10
0.848594
20
0.0299588
11
0.847803
21
0.027006
0
LINE
8
BLACK
6
CONTINUOUS
10
0.847803
20
0.027006
11
0.845641
21
0.0248444
0
LINE
8
BLACK
6
CONTINUOUS
10
0.845641
20
0.0248444
11
0.842688
21
0.0240533
0
LINE
8
BLACK
6
CONTINUOUS
10
0.842688
20
0.0240533
11
0.839736
21
0.0248444
0
LINE
8
BLACK
6
CONTINUOUS
10
0.839736
20
0.0248444
11
0.837574
21
0.027006
0
LINE
8
BLACK
6
CONTINUOUS
10
0.837574
20
0.027006
11
0.836783
21
0.0299588
0
LINE
8
BLACK
6
CONTINUOUS
10
0.836783
20
0.0299588
11
0.836783
21
0.0968879
0
LINE
8
BLACK
6
CONTINUOUS
10
0.836783
20
0.0968879
11
0.837574
21
0.0998407
0
LINE
8
BLACK
6
CONTINUOUS
10
0.837574
20
0.0998407
11
0.839736
21
0.102002
0
LINE
8
BLACK
6
CONTINUOUS
10
0.839736
20
0.102002
11
0.842688
21
0.102793
0
LINE
8
BLACK
6
CONTINUOUS
10
0.842688
20
0.102793
11
0.845641
21
0.102002
0
LINE
8
BLACK
6
CONTINUOUS
10
0.845641
20
0.102002
11
0.847803
21
0.0998407
0
LINE
8
BLACK
6
CONTINUOUS
10
0.847803
20
0.0998407
11
0.848594
21
0.0968879
0
LINE
8
BLACK
6
CONTINUOUS
10
0.848594
20
0.0968879
11
0.848594
21
0.0709224
0
LINE
8
BLACK
6
CONTINUOUS
10
0.848594
20
0.0709224
11
0.875028
21
0.0709224
0
LINE
8
BLACK
6
CONTINUOUS
10
0.875028
20
0.0709224
11
0.875028
21
0.0968879
0
LINE
8
BLACK
6
CONTINUOUS
10
0.875028
20
0.0968879
11
0.875819
21
0.0998407
0
LINE
8
BLACK
6
CONTINUOUS
10
0.875819
20
0.0998407
11
0.877981
21
0.102002
0
LINE
8
BLACK
6
CONTINUOUS
10
0.877981
20
0.102002
11
0.880934
21
0.102793
0
LINE
8
BLACK
6
CONTINUOUS
10
0.880934
20
0.102793
11
0.883886
21
0.102002
0
LINE
8
BLACK
6
CONTINUOUS
10
0.81377
20
0.102002
11
0.815932
21
0.0998407
0
LINE
8
BLACK
6
CONTINUOUS
10
0.815932
20
0.0998407
11
0.816723
21
0.0968879
0
LINE
8
BLACK
6
CONTINUOUS
10
0.816723
20
0.0968879
11
0.816723
21
0.0299588
0
LINE
8
BLACK
6
CONTINUOUS
10
0.816723
20
0.0299588
11
0.816719
21
0.0299457
0
LINE
8
BLACK
6
CONTINUOUS
10
0.816719
20
0.0299457
11
0.816723
21
0.0299325
0
LINE
8
BLACK
6
CONTINUOUS
10
0.816723
20
0.0299325
11
0.816323
21
0.0284667
0
LINE
8
BLACK
6
CONTINUOUS
10
0.816323
20
0.0284667
11
0.815932
21
0.027006
0
LINE
8
BLACK
6
CONTINUOUS
10
0.815932
20
0.027006
11
0.815922
21
0.0269964
0
LINE
8
BLACK
6
CONTINUOUS
10
0.815922
20
0.0269964
11
0.815919
21
0.0269833
0
LINE
8
BLACK
6
CONTINUOUS
10
0.815919
20
0.0269833
11
0.81484
21
0.0259139
0
LINE
8
BLACK
6
CONTINUOUS
10
0.81484
20
0.0259139
11
0.81377
21
0.0248444
0
LINE
8
BLACK
6
CONTINUOUS
10
0.81377
20
0.0248444
11
0.813757
21
0.0248409
0
LINE
8
BLACK
6
CONTINUOUS
10
0.813757
20
0.0248409
11
0.813747
21
0.0248313
0
LINE
8
BLACK
6
CONTINUOUS
10
0.813747
20
0.0248313
11
0.812278
21
0.0244446
0
LINE
8
BLACK
6
CONTINUOUS
10
0.812278
20
0.0244446
11
0.810817
21
0.0240533
0
LINE
8
BLACK
6
CONTINUOUS
10
0.810817
20
0.0240533
11
0.810804
21
0.0240568
0
LINE
8
BLACK
6
CONTINUOUS
10
0.810804
20
0.0240568
11
0.810791
21
0.0240533
0
LINE
8
BLACK
6
CONTINUOUS
10
0.810791
20
0.0240533
11
0.809325
21
0.0244531
0
LINE
8
BLACK
6
CONTINUOUS
10
0.809325
20
0.0244531
11
0.807865
21
0.0248444
0
LINE
8
BLACK
6
CONTINUOUS
10
0.807865
20
0.0248444
11
0.807855
21
0.0248541
0
LINE
8
BLACK
6
CONTINUOUS
10
0.807855
20
0.0248541
11
0.807842
21
0.0248576
0
LINE
8
BLACK
6
CONTINUOUS
10
0.807842
20
0.0248576
11
0.806775
21
0.0259344
0
LINE
8
BLACK
6
CONTINUOUS
10
0.806775
20
0.0259344
11
0.805703
21
0.027006
0
LINE
8
BLACK
6
CONTINUOUS
10
0.805703
20
0.027006
11
0.805699
21
0.0270192
0
LINE
8
BLACK
6
CONTINUOUS
10
0.805699
20
0.0270192
11
0.80569
21
0.0270288
0
LINE
8
BLACK
6
CONTINUOUS
10
0.80569
20
0.0270288
11
0.778478
21
0.0746504
0
LINE
8
BLACK
6
CONTINUOUS
10
0.778478
20
0.0746504
11
0.778478
21
0.0299588
0
LINE
8
BLACK
6
CONTINUOUS
10
0.778478
20
0.0299588
11
0.777686
21
0.027006
0
LINE
8
BLACK
6
CONTINUOUS
10
0.777686
20
0.027006
11
0.775525
21
0.0248444
0
LINE
8
BLACK
6
CONTINUOUS
10
0.775525
20
0.0248444
11
0.772572
21
0.0240533
0
LINE
8
BLACK
6
CONTINUOUS
10
0.772572
20
0.0240533
11
0.769619
21
0.0248444
0
LINE
8
BLACK
6
CONTINUOUS
10
0.769619
20
0.0248444
11
0.767458
21
0.027006
0
LINE
8
BLACK
6
CONTINUOUS
10
0.767458
20
0.027006
11
0.766667
21
0.0299588
0
LINE
8
BLACK
6
CONTINUOUS
10
0.766667
20
0.0299588
11
0.766667
21
0.0968879
0
LINE
8
BLACK
6
CONTINUOUS
10
0.766667
20
0.0968879
11
0.76667
21
0.096901
0
LINE
8
BLACK
6
CONTINUOUS
10
0.76667
20
0.096901
11
0.766667
21
0.0969142
0
LINE
8
BLACK
6
CONTINUOUS
10
0.766667
20
0.0969142
11
0.767066
21
0.09838
0
LINE
8
BLACK
6
CONTINUOUS
10
0.767066
20
0.09838
11
0.767458
21
0.0998407
0
LINE
8
BLACK
6
CONTINUOUS
10
0.767458
20
0.0998407
11
0.767467
21
0.0998503
0
LINE
8
BLACK
6
CONTINUOUS
10
0.767467
20
0.0998503
11
0.767471
21
0.0998634
0
LINE
8
BLACK
6
CONTINUOUS
10
0.767471
20
0.0998634
11
0.768548
21
0.100931
0
LINE
8
BLACK
6
CONTINUOUS
10
0.768548
20
0.100931
11
0.769619
21
0.102002
0
LINE
8
BLACK
6
CONTINUOUS
10
0.769619
20
0.102002
11
0.769633
21
0.102006
0
LINE
8
BLACK
6
CONTINUOUS
10
0.769633
20
0.102006
11
0.769642
21
0.102015
0
LINE
8
BLACK
6
CONTINUOUS
10
0.769642
20
0.102015
11
0.771107
21
0.102401
0
LINE
8
BLACK
6
CONTINUOUS
10
0.771107
20
0.102401
11
0.772572
21
0.102793
0
LINE
8
BLACK
6
CONTINUOUS
10
0.772572
20
0.102793
11
0.772585
21
0.10279
0
LINE
8
BLACK
6
CONTINUOUS
10
0.772585
20
0.10279
11
0.772598
21
0.102793
0
LINE
8
BLACK
6
CONTINUOUS
10
0.772598
20
0.102793
11
0.774064
21
0.102394
0
LINE
8
BLACK
6
CONTINUOUS
10
0.774064
20
0.102394
11
0.775525
21
0.102002
0
LINE
8
BLACK
6
CONTINUOUS
10
0.775525
20
0.102002
11
0.775535
21
0.101993
0
LINE
8
BLACK
6
CONTINUOUS
10
0.775535
20
0.101993
11
0.775548
21
0.101989
0
LINE
8
BLACK
6
CONTINUOUS
10
0.775548
20
0.101989
11
0.776615
21
0.100912
0
LINE
8
BLACK
6
CONTINUOUS
10
0.776615
20
0.100912
11
0.777686
21
0.0998407
0
LINE
8
BLACK
6
CONTINUOUS
10
0.777686
20
0.0998407
11
0.77769
21
0.0998275
0
LINE
8
BLACK
6
CONTINUOUS
10
0.77769
20
0.0998275
11
0.7777
21
0.0998179
0
LINE
8
BLACK
6
CONTINUOUS
10
0.7777
20
0.0998179
11
0.804912
21
0.0521964
0
LINE
8
BLACK
6
CONTINUOUS
10
0.804912
20
0.0521964
11
0.804912
21
0.0968879
0
LINE
8
BLACK
6
CONTINUOUS
10
0.804912
20
0.0968879
11
0.805703
21
0.0998407
0
LINE
8
BLACK
6
CONTINUOUS
10
0.805703
20
0.0998407
11
0.807865
21
0.102002
0
LINE
8
BLACK
6
CONTINUOUS
10
0.807865
20
0.102002
11
0.810817
21
0.102793
0
LINE
8
BLACK
6
CONTINUOUS
10
0.810817
20
0.102793
11
0.81377
21
0.102002
0
LINE
8
BLACK
6
CONTINUOUS
10
1.25195
20
0.102442
11
1.25328
21
0.10217
0
LINE
8
BLACK
6
CONTINUOUS
10
1.25328
20
0.10217
11
1.25965
21
0.0989828
0
LINE
8
BLACK
6
CONTINUOUS
10
1.25965
20
0.0989828
11
1.26036
21
0.098352
0
LINE
8
BLACK
6
CONTINUOUS
10
1.26036
20
0.098352
11
1.26119
21
0.0978766
0
LINE
8
BLACK
6
CONTINUOUS
10
1.26119
20
0.0978766
11
1.26437
21
0.0946895
0
LINE
8
BLACK
6
CONTINUOUS
10
1.26437
20
0.0946895
11
1.26485
21
0.0938661
0
LINE
8
BLACK
6
CONTINUOUS
10
1.26485
20
0.0938661
11
1.26548
21
0.0931547
0
LINE
8
BLACK
6
CONTINUOUS
10
1.26548
20
0.0931547
11
1.26867
21
0.0867805
0
LINE
8
BLACK
6
CONTINUOUS
10
1.26867
20
0.0867805
11
1.2688
21
0.0861417
0
LINE
8
BLACK
6
CONTINUOUS
10
1.2688
20
0.0861417
11
1.26911
21
0.0855718
0
LINE
8
BLACK
6
CONTINUOUS
10
1.26911
20
0.0855718
11
1.2723
21
0.0728234
0
LINE
8
BLACK
6
CONTINUOUS
10
1.2723
20
0.0728234
11
1.27229
21
0.0720949
0
LINE
8
BLACK
6
CONTINUOUS
10
1.27229
20
0.0720949
11
1.27248
21
0.0713911
0
LINE
8
BLACK
6
CONTINUOUS
10
1.27248
20
0.0713911
11
1.27248
21
0.0554556
0
LINE
8
BLACK
6
CONTINUOUS
10
1.27248
20
0.0554556
11
1.27229
21
0.0547519
0
LINE
8
BLACK
6
CONTINUOUS
10
1.27229
20
0.0547519
11
1.2723
21
0.0540233
0
LINE
8
BLACK
6
CONTINUOUS
10
1.2723
20
0.0540233
11
1.26911
21
0.0412749
0
LINE
8
BLACK
6
CONTINUOUS
10
1.26911
20
0.0412749
11
1.2688
21
0.0407049
0
LINE
8
BLACK
6
CONTINUOUS
10
1.2688
20
0.0407049
11
1.26867
21
0.0400661
0
LINE
8
BLACK
6
CONTINUOUS
10
1.26867
20
0.0400661
11
1.26548
21
0.0336919
0
LINE
8
BLACK
6
CONTINUOUS
10
1.26548
20
0.0336919
11
1.26485
21
0.0329806
0
LINE
8
BLACK
6
CONTINUOUS
10
1.26485
20
0.0329806
11
1.26437
21
0.0321572
0
LINE
8
BLACK
6
CONTINUOUS
10
1.26437
20
0.0321572
11
1.26119
21
0.0289701
0
LINE
8
BLACK
6
CONTINUOUS
10
1.26119
20
0.0289701
11
1.26036
21
0.0284946
0
LINE
8
BLACK
6
CONTINUOUS
10
1.26036
20
0.0284946
11
1.25965
21
0.0278638
0
LINE
8
BLACK
6
CONTINUOUS
10
1.25965
20
0.0278638
11
1.25328
21
0.0246767
0
LINE
8
BLACK
6
CONTINUOUS
10
1.25328
20
0.0246767
11
1.25195
21
0.0244046
0
LINE
8
BLACK
6
CONTINUOUS
10
1.25195
20
0.0244046
11
1.25064
21
0.0240533
0
LINE
8
BLACK
6
CONTINUOUS
10
1.25064
20
0.0240533
11
1.24426
21
0.0240533
0
LINE
8
BLACK
6
CONTINUOUS
10
1.24426
20
0.0240533
11
1.24295
21
0.0244046
0
LINE
8
BLACK
6
CONTINUOUS
10
1.24295
20
0.0244046
11
1.24162
21
0.0246767
0
LINE
8
BLACK
6
CONTINUOUS
10
1.24162
20
0.0246767
11
1.23525
21
0.0278638
0
LINE
8
BLACK
6
CONTINUOUS
10
1.23525
20
0.0278638
11
1.23454
21
0.0284946
0
LINE
8
BLACK
6
CONTINUOUS
10
1.23454
20
0.0284946
11
1.23371
21
0.0289701
0
LINE
8
BLACK
6
CONTINUOUS
10
1.23371
20
0.0289701
11
1.23053
21
0.0321572
0
LINE
8
BLACK
6
CONTINUOUS
10
1.23053
20
0.0321572
11
1.23005
21
0.0329806
0
LINE
8
BLACK
6
CONTINUOUS
10
1.23005
20
0.0329806
11
1.22942
21
0.033692
0
LINE
8
BLACK
6
CONTINUOUS
10
1.22942
20
0.033692
11
1.22623
21
0.0400661
0
LINE
8
BLACK
6
CONTINUOUS
10
1.22623
20
0.0400661
11
1.2261
21
0.0407049
0
LINE
8
BLACK
6
CONTINUOUS
10
1.2261
20
0.0407049
11
1.22579
21
0.0412748
0
LINE
8
BLACK
6
CONTINUOUS
10
1.22579
20
0.0412748
11
1.2226
21
0.0540233
0
LINE
8
BLACK
6
CONTINUOUS
10
1.2226
20
0.0540233
11
1.22261
21
0.0547518
0
LINE
8
BLACK
6
CONTINUOUS
10
1.22261
20
0.0547518
11
1.22242
21
0.0554556
0
LINE
8
BLACK
6
CONTINUOUS
10
1.22242
20
0.0554556
11
1.22242
21
0.0713911
0
LINE
8
BLACK
6
CONTINUOUS
10
1.22242
20
0.0713911
11
1.22261
21
0.0720949
0
LINE
8
BLACK
6
CONTINUOUS
10
1.22261
20
0.0720949
11
1.2226
21
0.0728234
0
LINE
8
BLACK
6
CONTINUOUS
10
1.2226
20
0.0728234
11
1.22579
21
0.0855718
0
LINE
8
BLACK
6
CONTINUOUS
10
1.22579
20
0.0855718
11
1.2261
21
0.0861418
0
LINE
8
BLACK
6
CONTINUOUS
10
1.2261
20
0.0861418
11
1.22623
21
0.0867805
0
LINE
8
BLACK
6
CONTINUOUS
10
1.22623
20
0.0867805
11
1.22942
21
0.0931547
0
LINE
8
BLACK
6
CONTINUOUS
10
1.22942
20
0.0931547
11
1.23005
21
0.0938661
0
LINE
8
BLACK
6
CONTINUOUS
10
1.23005
20
0.0938661
11
1.23053
21
0.0946895
0
LINE
8
BLACK
6
CONTINUOUS
10
1.23053
20
0.0946895
11
1.23371
21
0.0978766
0
LINE
8
BLACK
6
CONTINUOUS
10
1.23371
20
0.0978766
11
1.23454
21
0.098352
0
LINE
8
BLACK
6
CONTINUOUS
10
1.23454
20
0.098352
11
1.23525
21
0.0989828
0
LINE
8
BLACK
6
CONTINUOUS
10
1.23525
20
0.0989828
11
1.24162
21
0.10217
0
LINE
8
BLACK
6
CONTINUOUS
10
1.24162
20
0.10217
11
1.24295
21
0.102442
0
LINE
8
BLACK
6
CONTINUOUS
10
1.24295
20
0.102442
11
1.24426
21
0.102793
0
LINE
8
BLACK
6
CONTINUOUS
10
1.24426
20
0.102793
11
1.25064
21
0.102793
0
LINE
8
BLACK
6
CONTINUOUS
10
1.25064
20
0.102793
11
1.25195
21
0.102442
0
LINE
8
BLACK
6
CONTINUOUS
10
1.24566
20
0.0909824
11
1.24139
21
0.0888473
0
LINE
8
BLACK
6
CONTINUOUS
10
1.24139
20
0.0888473
11
1.23956
21
0.0870155
0
LINE
8
BLACK
6
CONTINUOUS
10
1.23956
20
0.0870155
11
1.23709
21
0.0820783
0
LINE
8
BLACK
6
CONTINUOUS
10
1.23709
20
0.0820783
11
1.23423
21
0.0706641
0
LINE
8
BLACK
6
CONTINUOUS
10
1.23423
20
0.0706641
11
1.23423
21
0.0561826
0
LINE
8
BLACK
6
CONTINUOUS
10
1.23423
20
0.0561826
11
1.23709
21
0.0447684
0
LINE
8
BLACK
6
CONTINUOUS
10
1.23709
20
0.0447684
11
1.23956
21
0.0398312
0
LINE
8
BLACK
6
CONTINUOUS
10
1.23956
20
0.0398312
11
1.24139
21
0.0379993
0
LINE
8
BLACK
6
CONTINUOUS
10
1.24139
20
0.0379993
11
1.24566
21
0.0358643
0
LINE
8
BLACK
6
CONTINUOUS
10
1.24566
20
0.0358643
11
1.24924
21
0.0358643
0
LINE
8
BLACK
6
CONTINUOUS
10
1.24924
20
0.0358643
11
1.25351
21
0.0379993
0
LINE
8
BLACK
6
CONTINUOUS
10
1.25351
20
0.0379993
11
1.25535
21
0.0398311
0
LINE
8
BLACK
6
CONTINUOUS
10
1.25535
20
0.0398311
11
1.25781
21
0.0447685
0
LINE
8
BLACK
6
CONTINUOUS
10
1.25781
20
0.0447685
11
1.26067
21
0.0561826
0
LINE
8
BLACK
6
CONTINUOUS
10
1.26067
20
0.0561826
11
1.26067
21
0.0706641
0
LINE
8
BLACK
6
CONTINUOUS
10
1.26067
20
0.0706641
11
1.25781
21
0.0820781
0
LINE
8
BLACK
6
CONTINUOUS
10
1.25781
20
0.0820781
11
1.25535
21
0.0870155
0
LINE
8
BLACK
6
CONTINUOUS
10
1.25535
20
0.0870155
11
1.25351
21
0.0888473
0
LINE
8
BLACK
6
CONTINUOUS
10
1.25351
20
0.0888473
11
1.24924
21
0.0909824
0
LINE
8
BLACK
6
CONTINUOUS
10
1.24924
20
0.0909824
11
1.24566
21
0.0909824
0
LINE
8
BLACK
6
CONTINUOUS
10
1.13885
20
0.102002
11
1.14102
21
0.0998407
0
LINE
8
BLACK
6
CONTINUOUS
10
1.14102
20
0.0998407
11
1.14181
21
0.0968879
0
LINE
8
BLACK
6
CONTINUOUS
10
1.14181
20
0.0968879
11
1.14102
21
0.0939352
0
LINE
8
BLACK
6
CONTINUOUS
10
1.14102
20
0.0939352
11
1.13885
21
0.0917736
0
LINE
8
BLACK
6
CONTINUOUS
10
1.13885
20
0.0917736
11
1.1359
21
0.0909824
0
LINE
8
BLACK
6
CONTINUOUS
10
1.1359
20
0.0909824
11
1.10994
21
0.0909824
0
LINE
8
BLACK
6
CONTINUOUS
10
1.10994
20
0.0909824
11
1.10994
21
0.0709224
0
LINE
8
BLACK
6
CONTINUOUS
10
1.10994
20
0.0709224
11
1.12634
21
0.0709224
0
LINE
8
BLACK
6
CONTINUOUS
10
1.12634
20
0.0709224
11
1.12929
21
0.0701312
0
LINE
8
BLACK
6
CONTINUOUS
10
1.12929
20
0.0701312
11
1.13145
21
0.0679696
0
LINE
8
BLACK
6
CONTINUOUS
10
1.13145
20
0.0679696
11
1.13225
21
0.0650169
0
LINE
8
BLACK
6
CONTINUOUS
10
1.13225
20
0.0650169
11
1.13145
21
0.0620641
0
LINE
8
BLACK
6
CONTINUOUS
10
1.13145
20
0.0620641
11
1.12929
21
0.0599026
0
LINE
8
BLACK
6
CONTINUOUS
10
1.12929
20
0.0599026
11
1.12634
21
0.0591114
0
LINE
8
BLACK
6
CONTINUOUS
10
1.12634
20
0.0591114
11
1.10994
21
0.0591114
0
LINE
8
BLACK
6
CONTINUOUS
10
1.10994
20
0.0591114
11
1.10994
21
0.0358643
0
LINE
8
BLACK
6
CONTINUOUS
10
1.10994
20
0.0358643
11
1.1359
21
0.0358643
0
LINE
8
BLACK
6
CONTINUOUS
10
1.1359
20
0.0358643
11
1.13885
21
0.0350731
0
LINE
8
BLACK
6
CONTINUOUS
10
1.13885
20
0.0350731
11
1.14102
21
0.0329115
0
LINE
8
BLACK
6
CONTINUOUS
10
1.14102
20
0.0329115
11
1.14181
21
0.0299588
0
LINE
8
BLACK
6
CONTINUOUS
10
1.14181
20
0.0299588
11
1.14102
21
0.027006
0
LINE
8
BLACK
6
CONTINUOUS
10
1.14102
20
0.027006
11
1.13885
21
0.0248444
0
LINE
8
BLACK
6
CONTINUOUS
10
1.13885
20
0.0248444
11
1.1359
21
0.0240533
0
LINE
8
BLACK
6
CONTINUOUS
10
1.1359
20
0.0240533
11
1.10403
21
0.0240533
0
LINE
8
BLACK
6
CONTINUOUS
10
1.10403
20
0.0240533
11
1.10108
21
0.0248444
0
LINE
8
BLACK
6
CONTINUOUS
10
1.10108
20
0.0248444
11
1.09892
21
0.027006
0
LINE
8
BLACK
6
CONTINUOUS
10
1.09892
20
0.027006
11
1.09813
21
0.0299588
0
LINE
8
BLACK
6
CONTINUOUS
10
1.09813
20
0.0299588
11
1.09813
21
0.0968879
0
LINE
8
BLACK
6
CONTINUOUS
10
1.09813
20
0.0968879
11
1.09892
21
0.0998407
0
LINE
8
BLACK
6
CONTINUOUS
10
1.09892
20
0.0998407
11
1.10108
21
0.102002
0
LINE
8
BLACK
6
CONTINUOUS
10
1.10108
20
0.102002
11
1.10403
21
0.102793
0
LINE
8
BLACK
6
CONTINUOUS
10
1.10403
20
0.102793
11
1.1359
21
0.102793
0
LINE
8
BLACK
6
CONTINUOUS
10
1.1359
20
0.102793
11
1.13885
21
0.102002
0
LINE
8
BLACK
6
CONTINUOUS
10
1.19139
20
0.102442
11
1.19272
21
0.10217
0
LINE
8
BLACK
6
CONTINUOUS
10
1.19272
20
0.10217
11
1.1991
21
0.0989828
0
LINE
8
BLACK
6
CONTINUOUS
10
1.1991
20
0.0989828
11
1.19981
21
0.098352
0
LINE
8
BLACK
6
CONTINUOUS
10
1.19981
20
0.098352
11
1.20063
21
0.0978766
0
LINE
8
BLACK
6
CONTINUOUS
10
1.20063
20
0.0978766
11
1.20382
21
0.0946895
0
LINE
8
BLACK
6
CONTINUOUS
10
1.20382
20
0.0946895
11
1.20429
21
0.0938661
0
LINE
8
BLACK
6
CONTINUOUS
10
1.20429
20
0.0938661
11
1.20493
21
0.0931547
0
LINE
8
BLACK
6
CONTINUOUS
10
1.20493
20
0.0931547
11
1.20811
21
0.0867805
0
LINE
8
BLACK
6
CONTINUOUS
10
1.20811
20
0.0867805
11
1.20839
21
0.0854506
0
LINE
8
BLACK
6
CONTINUOUS
10
1.20839
20
0.0854506
11
1.20874
21
0.0841395
0
LINE
8
BLACK
6
CONTINUOUS
10
1.20874
20
0.0841395
11
1.20874
21
0.0745782
0
LINE
8
BLACK
6
CONTINUOUS
10
1.20874
20
0.0745782
11
1.20839
21
0.073267
0
LINE
8
BLACK
6
CONTINUOUS
10
1.20839
20
0.073267
11
1.20811
21
0.0719372
0
LINE
8
BLACK
6
CONTINUOUS
10
1.20811
20
0.0719372
11
1.20493
21
0.065563
0
LINE
8
BLACK
6
CONTINUOUS
10
1.20493
20
0.065563
11
1.20429
21
0.0648515
0
LINE
8
BLACK
6
CONTINUOUS
10
1.20429
20
0.0648515
11
1.20382
21
0.0640281
0
LINE
8
BLACK
6
CONTINUOUS
10
1.20382
20
0.0640281
11
1.20063
21
0.0608411
0
LINE
8
BLACK
6
CONTINUOUS
10
1.20063
20
0.0608411
11
1.19981
21
0.0603657
0
LINE
8
BLACK
6
CONTINUOUS
10
1.19981
20
0.0603657
11
1.1991
21
0.0597348
0
LINE
8
BLACK
6
CONTINUOUS
10
1.1991
20
0.0597348
11
1.19272
21
0.0565478
0
LINE
8
BLACK
6
CONTINUOUS
10
1.19272
20
0.0565478
11
1.19159
21
0.0563157
0
LINE
8
BLACK
6
CONTINUOUS
10
1.19159
20
0.0563157
11
1.20767
21
0.0333454
0
LINE
8
BLACK
6
CONTINUOUS
10
1.20767
20
0.0333454
11
1.20871
21
0.0304726
0
LINE
8
BLACK
6
CONTINUOUS
10
1.20871
20
0.0304726
11
1.20818
21
0.0274622
0
LINE
8
BLACK
6
CONTINUOUS
10
1.20818
20
0.0274622
11
1.20622
21
0.0251208
0
LINE
8
BLACK
6
CONTINUOUS
10
1.20622
20
0.0251208
11
1.20334
21
0.0240756
0
LINE
8
BLACK
6
CONTINUOUS
10
1.20334
20
0.0240756
11
1.20033
21
0.0246069
0
LINE
8
BLACK
6
CONTINUOUS
10
1.20033
20
0.0246069
11
1.19799
21
0.0265722
0
LINE
8
BLACK
6
CONTINUOUS
10
1.19799
20
0.0265722
11
1.17745
21
0.0559243
0
LINE
8
BLACK
6
CONTINUOUS
10
1.17745
20
0.0559243
11
1.17049
21
0.0559243
0
LINE
8
BLACK
6
CONTINUOUS
10
1.17049
20
0.0559243
11
1.17049
21
0.0299588
0
LINE
8
BLACK
6
CONTINUOUS
10
1.17049
20
0.0299588
11
1.1697
21
0.027006
0
LINE
8
BLACK
6
CONTINUOUS
10
1.1697
20
0.027006
11
1.16754
21
0.0248444
0
LINE
8
BLACK
6
CONTINUOUS
10
1.16754
20
0.0248444
11
1.16459
21
0.0240533
0
LINE
8
BLACK
6
CONTINUOUS
10
1.16459
20
0.0240533
11
1.16163
21
0.0248444
0
LINE
8
BLACK
6
CONTINUOUS
10
1.16163
20
0.0248444
11
1.15947
21
0.027006
0
LINE
8
BLACK
6
CONTINUOUS
10
1.15947
20
0.027006
11
1.15868
21
0.0299588
0
LINE
8
BLACK
6
CONTINUOUS
10
1.15868
20
0.0299588
11
1.15868
21
0.0968879
0
LINE
8
BLACK
6
CONTINUOUS
10
1.15868
20
0.0968879
11
1.15947
21
0.0998407
0
LINE
8
BLACK
6
CONTINUOUS
10
1.15947
20
0.0998407
11
1.16163
21
0.102002
0
LINE
8
BLACK
6
CONTINUOUS
10
1.16163
20
0.102002
11
1.16459
21
0.102793
0
LINE
8
BLACK
6
CONTINUOUS
10
1.16459
20
0.102793
11
1.19008
21
0.102793
0
LINE
8
BLACK
6
CONTINUOUS
10
1.19008
20
0.102793
11
1.19139
21
0.102442
0
LINE
8
BLACK
6
CONTINUOUS
10
1.17049
20
0.0909824
11
1.17049
21
0.0677353
0
LINE
8
BLACK
6
CONTINUOUS
10
1.17049
20
0.0677353
11
1.18869
21
0.0677353
0
LINE
8
BLACK
6
CONTINUOUS
10
1.18869
20
0.0677353
11
1.19296
21
0.0698704
0
LINE
8
BLACK
6
CONTINUOUS
10
1.19296
20
0.0698704
11
1.19479
21
0.0717022
0
LINE
8
BLACK
6
CONTINUOUS
10
1.19479
20
0.0717022
11
1.19693
21
0.0759723
0
LINE
8
BLACK
6
CONTINUOUS
10
1.19693
20
0.0759723
11
1.19693
21
0.0827454
0
LINE
8
BLACK
6
CONTINUOUS
10
1.19693
20
0.0827454
11
1.19479
21
0.0870155
0
LINE
8
BLACK
6
CONTINUOUS
10
1.19479
20
0.0870155
11
1.19296
21
0.0888473
0
LINE
8
BLACK
6
CONTINUOUS
10
1.19296
20
0.0888473
11
1.18869
21
0.0909824
0
LINE
8
BLACK
6
CONTINUOUS
10
1.18869
20
0.0909824
11
1.17049
21
0.0909824
0
LINE
8
BLACK
6
CONTINUOUS
10
0.70058
20
0.102442
11
0.70191
21
0.10217
0
LINE
8
BLACK
6
CONTINUOUS
10
0.70191
20
0.10217
11
0.708284
21
0.0989828
0
LINE
8
BLACK
6
CONTINUOUS
10
0.708284
20
0.0989828
11
0.708996
21
0.098352
0
LINE
8
BLACK
6
CONTINUOUS
10
0.708996
20
0.098352
11
0.709819
21
0.0978766
0
LINE
8
BLACK
6
CONTINUOUS
10
0.709819
20
0.0978766
11
0.713006
21
0.0946895
0
LINE
8
BLACK
6
CONTINUOUS
10
0.713006
20
0.0946895
11
0.713481
21
0.0938661
0
LINE
8
BLACK
6
CONTINUOUS
10
0.713481
20
0.0938661
11
0.714112
21
0.0931547
0
LINE
8
BLACK
6
CONTINUOUS
10
0.714112
20
0.0931547
11
0.717299
21
0.0867805
0
LINE
8
BLACK
6
CONTINUOUS
10
0.717299
20
0.0867805
11
0.717571
21
0.0854506
0
LINE
8
BLACK
6
CONTINUOUS
10
0.717571
20
0.0854506
11
0.717923
21
0.0841395
0
LINE
8
BLACK
6
CONTINUOUS
10
0.717923
20
0.0841395
11
0.717923
21
0.0745782
0
LINE
8
BLACK
6
CONTINUOUS
10
0.717923
20
0.0745782
11
0.717571
21
0.0732671
0
LINE
8
BLACK
6
CONTINUOUS
10
0.717571
20
0.0732671
11
0.717299
21
0.0719372
0
LINE
8
BLACK
6
CONTINUOUS
10
0.717299
20
0.0719372
11
0.714112
21
0.065563
0
LINE
8
BLACK
6
CONTINUOUS
10
0.714112
20
0.065563
11
0.713481
21
0.0648516
0
LINE
8
BLACK
6
CONTINUOUS
10
0.713481
20
0.0648516
11
0.713006
21
0.0640281
0
LINE
8
BLACK
6
CONTINUOUS
10
0.713006
20
0.0640281
11
0.709819
21
0.0608411
0
LINE
8
BLACK
6
CONTINUOUS
10
0.709819
20
0.0608411
11
0.708995
21
0.0603657
0
LINE
8
BLACK
6
CONTINUOUS
10
0.708995
20
0.0603657
11
0.708284
21
0.0597348
0
LINE
8
BLACK
6
CONTINUOUS
10
0.708284
20
0.0597348
11
0.70191
21
0.0565478
0
LINE
8
BLACK
6
CONTINUOUS
10
0.70191
20
0.0565478
11
0.70058
21
0.0562756
0
LINE
8
BLACK
6
CONTINUOUS
10
0.70058
20
0.0562756
11
0.699269
21
0.0559243
0
LINE
8
BLACK
6
CONTINUOUS
10
0.699269
20
0.0559243
11
0.679678
21
0.0559243
0
LINE
8
BLACK
6
CONTINUOUS
10
0.679678
20
0.0559243
11
0.679678
21
0.0299588
0
LINE
8
BLACK
6
CONTINUOUS
10
0.679678
20
0.0299588
11
0.678886
21
0.027006
0
LINE
8
BLACK
6
CONTINUOUS
10
0.678886
20
0.027006
11
0.676725
21
0.0248444
0
LINE
8
BLACK
6
CONTINUOUS
10
0.676725
20
0.0248444
11
0.673772
21
0.0240533
0
LINE
8
BLACK
6
CONTINUOUS
10
0.673772
20
0.0240533
11
0.670819
21
0.0248444
0
LINE
8
BLACK
6
CONTINUOUS
10
0.670819
20
0.0248444
11
0.668658
21
0.027006
0
LINE
8
BLACK
6
CONTINUOUS
10
0.668658
20
0.027006
11
0.667866
21
0.0299588
0
LINE
8
BLACK
6
CONTINUOUS
10
0.667866
20
0.0299588
11
0.667866
21
0.0968879
0
LINE
8
BLACK
6
CONTINUOUS
10
0.667866
20
0.0968879
11
0.668658
21
0.0998407
0
LINE
8
BLACK
6
CONTINUOUS
10
0.668658
20
0.0998407
11
0.670819
21
0.102002
0
LINE
8
BLACK
6
CONTINUOUS
10
0.670819
20
0.102002
11
0.673772
21
0.102793
0
LINE
8
BLACK
6
CONTINUOUS
10
0.673772
20
0.102793
11
0.699269
21
0.102793
0
LINE
8
BLACK
6
CONTINUOUS
10
0.699269
20
0.102793
11
0.70058
21
0.102442
0
LINE
8
BLACK
6
CONTINUOUS
10
0.679678
20
0.0909824
11
0.679678
21
0.0677353
0
LINE
8
BLACK
6
CONTINUOUS
10
0.679678
20
0.0677353
11
0.697875
21
0.0677353
0
LINE
8
BLACK
6
CONTINUOUS
10
0.697875
20
0.0677353
11
0.702145
21
0.0698704
0
LINE
8
BLACK
6
CONTINUOUS
10
0.702145
20
0.0698704
11
0.703977
21
0.0717022
0
LINE
8
BLACK
6
CONTINUOUS
10
0.703977
20
0.0717022
11
0.706112
21
0.0759723
0
LINE
8
BLACK
6
CONTINUOUS
10
0.706112
20
0.0759723
11
0.706112
21
0.0827454
0
LINE
8
BLACK
6
CONTINUOUS
10
0.706112
20
0.0827454
11
0.703977
21
0.0870155
0
LINE
8
BLACK
6
CONTINUOUS
10
0.703977
20
0.0870155
11
0.702145
21
0.0888473
0
LINE
8
BLACK
6
CONTINUOUS
10
0.702145
20
0.0888473
11
0.697875
21
0.0909824
0
LINE
8
BLACK
6
CONTINUOUS
10
0.697875
20
0.0909824
11
0.679678
21
0.0909824
0
LINE
8
BLACK
6
CONTINUOUS
10
1.37325
20
0.102512
11
1.37361
21
0.10249
0
LINE
8
BLACK
6
CONTINUOUS
10
1.37361
20
0.10249
11
1.3746
21
0.101837
0
LINE
8
BLACK
6
CONTINUOUS
10
1.3746
20
0.101837
11
1.37567
21
0.101306
0
LINE
8
BLACK
6
CONTINUOUS
10
1.37567
20
0.101306
11
1.37586
21
0.101005
0
LINE
8
BLACK
6
CONTINUOUS
10
1.37586
20
0.101005
11
1.37617
21
0.100806
0
LINE
8
BLACK
6
CONTINUOUS
10
1.37617
20
0.100806
11
1.3767
21
0.0997452
0
LINE
8
BLACK
6
CONTINUOUS
10
1.3767
20
0.0997452
11
1.37735
21
0.0987554
0
LINE
8
BLACK
6
CONTINUOUS
10
1.37735
20
0.0987554
11
1.39966
21
0.0318263
0
LINE
8
BLACK
6
CONTINUOUS
10
1.39966
20
0.0318263
11
1.39984
21
0.0287748
0
LINE
8
BLACK
6
CONTINUOUS
10
1.39984
20
0.0287748
11
1.39848
21
0.0260407
0
LINE
8
BLACK
6
CONTINUOUS
10
1.39848
20
0.0260407
11
1.39592
21
0.0243563
0
LINE
8
BLACK
6
CONTINUOUS
10
1.39592
20
0.0243563
11
1.39287
21
0.0241732
0
LINE
8
BLACK
6
CONTINUOUS
10
1.39287
20
0.0241732
11
1.39014
21
0.0255403
0
LINE
8
BLACK
6
CONTINUOUS
10
1.39014
20
0.0255403
11
1.38845
21
0.0280913
0
LINE
8
BLACK
6
CONTINUOUS
10
1.38845
20
0.0280913
11
1.38343
21
0.0431759
0
LINE
8
BLACK
6
CONTINUOUS
10
1.38343
20
0.0431759
11
1.36007
21
0.0431759
0
LINE
8
BLACK
6
CONTINUOUS
10
1.36007
20
0.0431759
11
1.35504
21
0.0280913
0
LINE
8
BLACK
6
CONTINUOUS
10
1.35504
20
0.0280913
11
1.35336
21
0.0255403
0
LINE
8
BLACK
6
CONTINUOUS
10
1.35336
20
0.0255403
11
1.35062
21
0.0241731
0
LINE
8
BLACK
6
CONTINUOUS
10
1.35062
20
0.0241731
11
1.34757
21
0.0243563
0
LINE
8
BLACK
6
CONTINUOUS
10
1.34757
20
0.0243563
11
1.34502
21
0.0260406
0
LINE
8
BLACK
6
CONTINUOUS
10
1.34502
20
0.0260406
11
1.34365
21
0.0287748
0
LINE
8
BLACK
6
CONTINUOUS
10
1.34365
20
0.0287748
11
1.34384
21
0.0318263
0
LINE
8
BLACK
6
CONTINUOUS
10
1.34384
20
0.0318263
11
1.36614
21
0.0987554
0
LINE
8
BLACK
6
CONTINUOUS
10
1.36614
20
0.0987554
11
1.3668
21
0.0997451
0
LINE
8
BLACK
6
CONTINUOUS
10
1.3668
20
0.0997451
11
1.36733
21
0.100806
0
LINE
8
BLACK
6
CONTINUOUS
10
1.36733
20
0.100806
11
1.36763
21
0.101005
0
LINE
8
BLACK
6
CONTINUOUS
10
1.36763
20
0.101005
11
1.36783
21
0.101306
0
LINE
8
BLACK
6
CONTINUOUS
10
1.36783
20
0.101306
11
1.36889
21
0.101837
0
LINE
8
BLACK
6
CONTINUOUS
10
1.36889
20
0.101837
11
1.36988
21
0.10249
0
LINE
8
BLACK
6
CONTINUOUS
10
1.36988
20
0.10249
11
1.37024
21
0.102512
0
LINE
8
BLACK
6
CONTINUOUS
10
1.37024
20
0.102512
11
1.37056
21
0.102674
0
LINE
8
BLACK
6
CONTINUOUS
10
1.37056
20
0.102674
11
1.37175
21
0.102602
0
LINE
8
BLACK
6
CONTINUOUS
10
1.37175
20
0.102602
11
1.37293
21
0.102674
0
LINE
8
BLACK
6
CONTINUOUS
10
1.37293
20
0.102674
11
1.37325
21
0.102512
0
LINE
8
BLACK
6
CONTINUOUS
10
1.36401
20
0.0549869
11
1.37949
21
0.0549869
0
LINE
8
BLACK
6
CONTINUOUS
10
1.37949
20
0.0549869
11
1.37175
21
0.0782131
0
LINE
8
BLACK
6
CONTINUOUS
10
1.37175
20
0.0782131
11
1.36401
21
0.0549869
0
LINE
8
BLACK
6
CONTINUOUS
10
0.436057
20
0.103918
11
0.437387
21
0.103645
0
LINE
8
BLACK
6
CONTINUOUS
10
0.437387
20
0.103645
11
0.443011
21
0.100833
0
LINE
8
BLACK
6
CONTINUOUS
10
0.443011
20
0.100833
11
0.443723
21
0.100202
0
LINE
8
BLACK
6
CONTINUOUS
10
0.443723
20
0.100202
11
0.444546
21
0.099727
0
LINE
8
BLACK
6
CONTINUOUS
10
0.444546
20
0.099727
11
0.447358
21
0.0969149
0
LINE
8
BLACK
6
CONTINUOUS
10
0.447358
20
0.0969149
11
0.447833
21
0.0960915
0
LINE
8
BLACK
6
CONTINUOUS
10
0.447833
20
0.0960915
11
0.448464
21
0.0953801
0
LINE
8
BLACK
6
CONTINUOUS
10
0.448464
20
0.0953801
11
0.451276
21
0.0897558
0
LINE
8
BLACK
6
CONTINUOUS
10
0.451276
20
0.0897558
11
0.451549
21
0.0884258
0
LINE
8
BLACK
6
CONTINUOUS
10
0.451549
20
0.0884258
11
0.4519
21
0.0871148
0
LINE
8
BLACK
6
CONTINUOUS
10
0.4519
20
0.0871148
11
0.4519
21
0.0814905
0
LINE
8
BLACK
6
CONTINUOUS
10
0.4519
20
0.0814905
11
0.451549
21
0.0801794
0
LINE
8
BLACK
6
CONTINUOUS
10
0.451549
20
0.0801794
11
0.451276
21
0.0788494
0
LINE
8
BLACK
6
CONTINUOUS
10
0.451276
20
0.0788494
11
0.448464
21
0.0732251
0
LINE
8
BLACK
6
CONTINUOUS
10
0.448464
20
0.0732251
11
0.447833
21
0.0725137
0
LINE
8
BLACK
6
CONTINUOUS
10
0.447833
20
0.0725137
11
0.447358
21
0.0716903
0
LINE
8
BLACK
6
CONTINUOUS
10
0.447358
20
0.0716903
11
0.447304
21
0.0716366
0
LINE
8
BLACK
6
CONTINUOUS
10
0.447304
20
0.0716366
11
0.447358
21
0.0716056
0
LINE
8
BLACK
6
CONTINUOUS
10
0.447358
20
0.0716056
11
0.45017
21
0.0687934
0
LINE
8
BLACK
6
CONTINUOUS
10
0.45017
20
0.0687934
11
0.450646
21
0.06797
0
LINE
8
BLACK
6
CONTINUOUS
10
0.450646
20
0.06797
11
0.451276
21
0.0672586
0
LINE
8
BLACK
6
CONTINUOUS
10
0.451276
20
0.0672586
11
0.454089
21
0.0616343
0
LINE
8
BLACK
6
CONTINUOUS
10
0.454089
20
0.0616343
11
0.454361
21
0.0603045
0
LINE
8
BLACK
6
CONTINUOUS
10
0.454361
20
0.0603045
11
0.454712
21
0.0589933
0
LINE
8
BLACK
6
CONTINUOUS
10
0.454712
20
0.0589933
11
0.454712
21
0.0505568
0
LINE
8
BLACK
6
CONTINUOUS
10
0.454712
20
0.0505568
11
0.454361
21
0.0492456
0
LINE
8
BLACK
6
CONTINUOUS
10
0.454361
20
0.0492456
11
0.454089
21
0.0479158
0
LINE
8
BLACK
6
CONTINUOUS
10
0.454089
20
0.0479158
11
0.451276
21
0.0422915
0
LINE
8
BLACK
6
CONTINUOUS
10
0.451276
20
0.0422915
11
0.450646
21
0.0415801
0
LINE
8
BLACK
6
CONTINUOUS
10
0.450646
20
0.0415801
11
0.45017
21
0.0407567
0
LINE
8
BLACK
6
CONTINUOUS
10
0.45017
20
0.0407567
11
0.447358
21
0.0379445
0
LINE
8
BLACK
6
CONTINUOUS
10
0.447358
20
0.0379445
11
0.446535
21
0.0374691
0
LINE
8
BLACK
6
CONTINUOUS
10
0.446535
20
0.0374691
11
0.445823
21
0.0368383
0
LINE
8
BLACK
6
CONTINUOUS
10
0.445823
20
0.0368383
11
0.440199
21
0.0340262
0
LINE
8
BLACK
6
CONTINUOUS
10
0.440199
20
0.0340262
11
0.438869
21
0.033754
0
LINE
8
BLACK
6
CONTINUOUS
10
0.438869
20
0.033754
11
0.437558
21
0.0334027
0
LINE
8
BLACK
6
CONTINUOUS
10
0.437558
20
0.0334027
11
0.415061
21
0.0334027
0
LINE
8
BLACK
6
CONTINUOUS
10
0.415061
20
0.0334027
11
0.412108
21
0.0341939
0
LINE
8
BLACK
6
CONTINUOUS
10
0.412108
20
0.0341939
11
0.409946
21
0.0363555
0
LINE
8
BLACK
6
CONTINUOUS
10
0.409946
20
0.0363555
11
0.409155
21
0.0393082
0
LINE
8
BLACK
6
CONTINUOUS
10
0.409155
20
0.0393082
11
0.409155
21
0.0983633
0
LINE
8
BLACK
6
CONTINUOUS
10
0.409155
20
0.0983633
11
0.409946
21
0.101316
0
LINE
8
BLACK
6
CONTINUOUS
10
0.409946
20
0.101316
11
0.412108
21
0.103478
0
LINE
8
BLACK
6
CONTINUOUS
10
0.412108
20
0.103478
11
0.415061
21
0.104269
0
LINE
8
BLACK
6
CONTINUOUS
10
0.415061
20
0.104269
11
0.434746
21
0.104269
0
LINE
8
BLACK
6
CONTINUOUS
10
0.434746
20
0.104269
11
0.436057
21
0.103918
0
LINE
8
BLACK
6
CONTINUOUS
10
0.420966
20
0.0643363
11
0.420966
21
0.0452137
0
LINE
8
BLACK
6
CONTINUOUS
10
0.420966
20
0.0452137
11
0.436164
21
0.0452137
0
LINE
8
BLACK
6
CONTINUOUS
10
0.436164
20
0.0452137
11
0.439684
21
0.0469739
0
LINE
8
BLACK
6
CONTINUOUS
10
0.439684
20
0.0469739
11
0.441141
21
0.0484307
0
LINE
8
BLACK
6
CONTINUOUS
10
0.441141
20
0.0484307
11
0.442901
21
0.0519509
0
LINE
8
BLACK
6
CONTINUOUS
10
0.442901
20
0.0519509
11
0.442901
21
0.0575992
0
LINE
8
BLACK
6
CONTINUOUS
10
0.442901
20
0.0575992
11
0.441141
21
0.0611194
0
LINE
8
BLACK
6
CONTINUOUS
10
0.441141
20
0.0611194
11
0.439992
21
0.0622681
0
LINE
8
BLACK
6
CONTINUOUS
10
0.439992
20
0.0622681
11
0.433787
21
0.0643363
0
LINE
8
BLACK
6
CONTINUOUS
10
0.433787
20
0.0643363
11
0.420966
21
0.0643363
0
LINE
8
BLACK
6
CONTINUOUS
10
0.420966
20
0.0924578
11
0.420966
21
0.0761474
0
LINE
8
BLACK
6
CONTINUOUS
10
0.420966
20
0.0761474
11
0.433352
21
0.0761474
0
LINE
8
BLACK
6
CONTINUOUS
10
0.433352
20
0.0761474
11
0.436872
21
0.0779075
0
LINE
8
BLACK
6
CONTINUOUS
10
0.436872
20
0.0779075
11
0.438329
21
0.0793643
0
LINE
8
BLACK
6
CONTINUOUS
10
0.438329
20
0.0793643
11
0.440089
21
0.0828846
0
LINE
8
BLACK
6
CONTINUOUS
10
0.440089
20
0.0828846
11
0.440089
21
0.0857207
0
LINE
8
BLACK
6
CONTINUOUS
10
0.440089
20
0.0857207
11
0.438329
21
0.0892409
0
LINE
8
BLACK
6
CONTINUOUS
10
0.438329
20
0.0892409
11
0.436872
21
0.0906977
0
LINE
8
BLACK
6
CONTINUOUS
10
0.436872
20
0.0906977
11
0.433352
21
0.0924578
0
LINE
8
BLACK
6
CONTINUOUS
10
0.433352
20
0.0924578
11
0.420966
21
0.0924578
0
LINE
8
BLACK
6
CONTINUOUS
10
0.476318
20
0.0502481
11
0.477069
21
0.0500469
0
LINE
8
BLACK
6
CONTINUOUS
10
0.477069
20
0.0500469
11
0.477618
21
0.0494971
0
LINE
8
BLACK
6
CONTINUOUS
10
0.477618
20
0.0494971
11
0.478292
21
0.0491084
0
LINE
8
BLACK
6
CONTINUOUS
10
0.478292
20
0.0491084
11
0.481104
21
0.0462963
0
LINE
8
BLACK
6
CONTINUOUS
10
0.481104
20
0.0462963
11
0.481104
21
0.0462962
0
LINE
8
BLACK
6
CONTINUOUS
10
0.481104
20
0.0462962
11
0.481104
21
0.0462962
0
LINE
8
BLACK
6
CONTINUOUS
10
0.481104
20
0.0462962
11
0.481597
21
0.0454425
0
LINE
8
BLACK
6
CONTINUOUS
10
0.481597
20
0.0454425
11
0.482632
21
0.0436489
0
LINE
8
BLACK
6
CONTINUOUS
10
0.482632
20
0.0436489
11
0.482632
21
0.0405919
0
LINE
8
BLACK
6
CONTINUOUS
10
0.482632
20
0.0405919
11
0.482375
21
0.0401462
0
LINE
8
BLACK
6
CONTINUOUS
10
0.482375
20
0.0401462
11
0.481179
21
0.0380741
0
LINE
8
BLACK
6
CONTINUOUS
10
0.481179
20
0.0380741
11
0.481104
21
0.0379446
0
LINE
8
BLACK
6
CONTINUOUS
10
0.481104
20
0.0379446
11
0.478292
21
0.0351324
0
LINE
8
BLACK
6
CONTINUOUS
10
0.478292
20
0.0351324
11
0.477618
21
0.0347437
0
LINE
8
BLACK
6
CONTINUOUS
10
0.477618
20
0.0347437
11
0.477069
21
0.0341939
0
LINE
8
BLACK
6
CONTINUOUS
10
0.477069
20
0.0341939
11
0.476318
21
0.0339927
0
LINE
8
BLACK
6
CONTINUOUS
10
0.476318
20
0.0339927
11
0.475644
21
0.0336039
0
LINE
8
BLACK
6
CONTINUOUS
10
0.475644
20
0.0336039
11
0.474867
21
0.0336039
0
LINE
8
BLACK
6
CONTINUOUS
10
0.474867
20
0.0336039
11
0.474116
21
0.0334027
0
LINE
8
BLACK
6
CONTINUOUS
10
0.474116
20
0.0334027
11
0.473365
21
0.0336039
0
LINE
8
BLACK
6
CONTINUOUS
10
0.473365
20
0.0336039
11
0.472587
21
0.0336039
0
LINE
8
BLACK
6
CONTINUOUS
10
0.472587
20
0.0336039
11
0.471914
21
0.0339927
0
LINE
8
BLACK
6
CONTINUOUS
10
0.471914
20
0.0339927
11
0.471163
21
0.0341939
0
LINE
8
BLACK
6
CONTINUOUS
10
0.471163
20
0.0341939
11
0.470613
21
0.0347437
0
LINE
8
BLACK
6
CONTINUOUS
10
0.470613
20
0.0347437
11
0.46994
21
0.0351324
0
LINE
8
BLACK
6
CONTINUOUS
10
0.46994
20
0.0351324
11
0.46994
21
0.0351324
0
LINE
8
BLACK
6
CONTINUOUS
10
0.46994
20
0.0351324
11
0.467128
21
0.0379446
0
LINE
8
BLACK
6
CONTINUOUS
10
0.467128
20
0.0379446
11
0.465857
21
0.0401462
0
LINE
8
BLACK
6
CONTINUOUS
10
0.465857
20
0.0401462
11
0.465599
21
0.0405919
0
LINE
8
BLACK
6
CONTINUOUS
10
0.465599
20
0.0405919
11
0.465599
21
0.0436489
0
LINE
8
BLACK
6
CONTINUOUS
10
0.465599
20
0.0436489
11
0.466635
21
0.0454425
0
LINE
8
BLACK
6
CONTINUOUS
10
0.466635
20
0.0454425
11
0.467128
21
0.0462962
0
LINE
8
BLACK
6
CONTINUOUS
10
0.467128
20
0.0462962
11
0.46994
21
0.0491083
0
LINE
8
BLACK
6
CONTINUOUS
10
0.46994
20
0.0491083
11
0.470613
21
0.0494971
0
LINE
8
BLACK
6
CONTINUOUS
10
0.470613
20
0.0494971
11
0.471163
21
0.0500469
0
LINE
8
BLACK
6
CONTINUOUS
10
0.471163
20
0.0500469
11
0.471914
21
0.0502481
0
LINE
8
BLACK
6
CONTINUOUS
10
0.471914
20
0.0502481
11
0.472587
21
0.0506368
0
LINE
8
BLACK
6
CONTINUOUS
10
0.472587
20
0.0506368
11
0.473365
21
0.0506368
0
LINE
8
BLACK
6
CONTINUOUS
10
0.473365
20
0.0506368
11
0.474116
21
0.050838
0
LINE
8
BLACK
6
CONTINUOUS
10
0.474116
20
0.050838
11
0.474867
21
0.0506368
0
LINE
8
BLACK
6
CONTINUOUS
10
0.474867
20
0.0506368
11
0.475644
21
0.0506368
0
LINE
8
BLACK
6
CONTINUOUS
10
0.475644
20
0.0506368
11
0.476318
21
0.0502481
0
LINE
8
BLACK
6
CONTINUOUS
10
0.523233
20
0.0842325
11
0.524563
21
0.0839604
0
LINE
8
BLACK
6
CONTINUOUS
10
0.524563
20
0.0839604
11
0.530188
21
0.0811482
0
LINE
8
BLACK
6
CONTINUOUS
10
0.530188
20
0.0811482
11
0.532475
21
0.07912
0
LINE
8
BLACK
6
CONTINUOUS
10
0.532475
20
0.07912
11
0.533442
21
0.07622
0
LINE
8
BLACK
6
CONTINUOUS
10
0.533442
20
0.07622
11
0.532829
21
0.0732251
0
LINE
8
BLACK
6
CONTINUOUS
10
0.532829
20
0.0732251
11
0.530801
21
0.0709379
0
LINE
8
BLACK
6
CONTINUOUS
10
0.530801
20
0.0709379
11
0.5279
21
0.0699712
0
LINE
8
BLACK
6
CONTINUOUS
10
0.5279
20
0.0699712
11
0.524906
21
0.0705841
0
LINE
8
BLACK
6
CONTINUOUS
10
0.524906
20
0.0705841
11
0.520528
21
0.0727728
0
LINE
8
BLACK
6
CONTINUOUS
10
0.520528
20
0.0727728
11
0.512068
21
0.0727728
0
LINE
8
BLACK
6
CONTINUOUS
10
0.512068
20
0.0727728
11
0.508548
21
0.0710127
0
LINE
8
BLACK
6
CONTINUOUS
10
0.508548
20
0.0710127
11
0.507091
21
0.0695558
0
LINE
8
BLACK
6
CONTINUOUS
10
0.507091
20
0.0695558
11
0.505331
21
0.0660356
0
LINE
8
BLACK
6
CONTINUOUS
10
0.505331
20
0.0660356
11
0.505331
21
0.0519509
0
LINE
8
BLACK
6
CONTINUOUS
10
0.505331
20
0.0519509
11
0.507091
21
0.0484307
0
LINE
8
BLACK
6
CONTINUOUS
10
0.507091
20
0.0484307
11
0.508548
21
0.0469739
0
LINE
8
BLACK
6
CONTINUOUS
10
0.508548
20
0.0469739
11
0.512068
21
0.0452137
0
LINE
8
BLACK
6
CONTINUOUS
10
0.512068
20
0.0452137
11
0.520528
21
0.0452137
0
LINE
8
BLACK
6
CONTINUOUS
10
0.520528
20
0.0452137
11
0.524906
21
0.0474024
0
LINE
8
BLACK
6
CONTINUOUS
10
0.524906
20
0.0474024
11
0.5279
21
0.0480153
0
LINE
8
BLACK
6
CONTINUOUS
10
0.5279
20
0.0480153
11
0.530801
21
0.0470486
0
LINE
8
BLACK
6
CONTINUOUS
10
0.530801
20
0.0470486
11
0.532829
21
0.0447614
0
LINE
8
BLACK
6
CONTINUOUS
10
0.532829
20
0.0447614
11
0.533442
21
0.0417666
0
LINE
8
BLACK
6
CONTINUOUS
10
0.533442
20
0.0417666
11
0.532475
21
0.0388665
0
LINE
8
BLACK
6
CONTINUOUS
10
0.532475
20
0.0388665
11
0.530188
21
0.0368383
0
LINE
8
BLACK
6
CONTINUOUS
10
0.530188
20
0.0368383
11
0.524563
21
0.0340262
0
LINE
8
BLACK
6
CONTINUOUS
10
0.524563
20
0.0340262
11
0.523233
21
0.033754
0
LINE
8
BLACK
6
CONTINUOUS
10
0.523233
20
0.033754
11
0.521922
21
0.0334027
0
LINE
8
BLACK
6
CONTINUOUS
10
0.521922
20
0.0334027
11
0.510674
21
0.0334027
0
LINE
8
BLACK
6
CONTINUOUS
10
0.510674
20
0.0334027
11
0.509363
21
0.033754
0
LINE
8
BLACK
6
CONTINUOUS
10
0.509363
20
0.033754
11
0.508033
21
0.0340262
0
LINE
8
BLACK
6
CONTINUOUS
10
0.508033
20
0.0340262
11
0.502408
21
0.0368383
0
LINE
8
BLACK
6
CONTINUOUS
10
0.502408
20
0.0368383
11
0.501697
21
0.0374691
0
LINE
8
BLACK
6
CONTINUOUS
10
0.501697
20
0.0374691
11
0.500874
21
0.0379445
0
LINE
8
BLACK
6
CONTINUOUS
10
0.500874
20
0.0379445
11
0.498062
21
0.0407567
0
LINE
8
BLACK
6
CONTINUOUS
10
0.498062
20
0.0407567
11
0.497586
21
0.0415801
0
LINE
8
BLACK
6
CONTINUOUS
10
0.497586
20
0.0415801
11
0.496955
21
0.0422915
0
LINE
8
BLACK
6
CONTINUOUS
10
0.496955
20
0.0422915
11
0.494143
21
0.0479158
0
LINE
8
BLACK
6
CONTINUOUS
10
0.494143
20
0.0479158
11
0.493871
21
0.0492457
0
LINE
8
BLACK
6
CONTINUOUS
10
0.493871
20
0.0492457
11
0.49352
21
0.0505568
0
LINE
8
BLACK
6
CONTINUOUS
10
0.49352
20
0.0505568
11
0.49352
21
0.0674297
0
LINE
8
BLACK
6
CONTINUOUS
10
0.49352
20
0.0674297
11
0.493871
21
0.0687409
0
LINE
8
BLACK
6
CONTINUOUS
10
0.493871
20
0.0687409
11
0.494143
21
0.0700707
0
LINE
8
BLACK
6
CONTINUOUS
10
0.494143
20
0.0700707
11
0.496955
21
0.075695
0
LINE
8
BLACK
6
CONTINUOUS
10
0.496955
20
0.075695
11
0.497586
21
0.0764065
0
LINE
8
BLACK
6
CONTINUOUS
10
0.497586
20
0.0764065
11
0.498062
21
0.0772299
0
LINE
8
BLACK
6
CONTINUOUS
10
0.498062
20
0.0772299
11
0.500874
21
0.080042
0
LINE
8
BLACK
6
CONTINUOUS
10
0.500874
20
0.080042
11
0.501697
21
0.0805174
0
LINE
8
BLACK
6
CONTINUOUS
10
0.501697
20
0.0805174
11
0.502408
21
0.0811482
0
LINE
8
BLACK
6
CONTINUOUS
10
0.502408
20
0.0811482
11
0.508033
21
0.0839604
0
LINE
8
BLACK
6
CONTINUOUS
10
0.508033
20
0.0839604
11
0.509363
21
0.0842325
0
LINE
8
BLACK
6
CONTINUOUS
10
0.509363
20
0.0842325
11
0.510674
21
0.0845838
0
LINE
8
BLACK
6
CONTINUOUS
10
0.510674
20
0.0845838
11
0.521922
21
0.0845838
0
LINE
8
BLACK
6
CONTINUOUS
10
0.521922
20
0.0845838
11
0.523233
21
0.0842325
0
LINE
8
BLACK
6
CONTINUOUS
10
0.319588
20
0.103478
11
0.32175
21
0.101316
0
LINE
8
BLACK
6
CONTINUOUS
10
0.32175
20
0.101316
11
0.322541
21
0.0983633
0
LINE
8
BLACK
6
CONTINUOUS
10
0.322541
20
0.0983633
11
0.322541
21
0.0452137
0
LINE
8
BLACK
6
CONTINUOUS
10
0.322541
20
0.0452137
11
0.344757
21
0.0452137
0
LINE
8
BLACK
6
CONTINUOUS
10
0.344757
20
0.0452137
11
0.34771
21
0.0444226
0
LINE
8
BLACK
6
CONTINUOUS
10
0.34771
20
0.0444226
11
0.349871
21
0.042261
0
LINE
8
BLACK
6
CONTINUOUS
10
0.349871
20
0.042261
11
0.350359
21
0.0404409
0
LINE
8
BLACK
6
CONTINUOUS
10
0.350359
20
0.0404409
11
0.350403
21
0.0411757
0
LINE
8
BLACK
6
CONTINUOUS
10
0.350403
20
0.0411757
11
0.370088
21
0.100231
0
LINE
8
BLACK
6
CONTINUOUS
10
0.370088
20
0.100231
11
0.370742
21
0.101221
0
LINE
8
BLACK
6
CONTINUOUS
10
0.370742
20
0.101221
11
0.371272
21
0.102281
0
LINE
8
BLACK
6
CONTINUOUS
10
0.371272
20
0.102281
11
0.371573
21
0.10248
0
LINE
8
BLACK
6
CONTINUOUS
10
0.371573
20
0.10248
11
0.371772
21
0.102782
0
LINE
8
BLACK
6
CONTINUOUS
10
0.371772
20
0.102782
11
0.372834
21
0.103312
0
LINE
8
BLACK
6
CONTINUOUS
10
0.372834
20
0.103312
11
0.373823
21
0.103966
0
LINE
8
BLACK
6
CONTINUOUS
10
0.373823
20
0.103966
11
0.374184
21
0.103987
0
LINE
8
BLACK
6
CONTINUOUS
10
0.374184
20
0.103987
11
0.374507
21
0.104149
0
LINE
8
BLACK
6
CONTINUOUS
10
0.374507
20
0.104149
11
0.375691
21
0.104078
0
LINE
8
BLACK
6
CONTINUOUS
10
0.375691
20
0.104078
11
0.376875
21
0.104149
0
LINE
8
BLACK
6
CONTINUOUS
10
0.376875
20
0.104149
11
0.377198
21
0.103987
0
LINE
8
BLACK
6
CONTINUOUS
10
0.377198
20
0.103987
11
0.377558
21
0.103966
0
LINE
8
BLACK
6
CONTINUOUS
10
0.377558
20
0.103966
11
0.378548
21
0.103312
0
LINE
8
BLACK
6
CONTINUOUS
10
0.378548
20
0.103312
11
0.379609
21
0.102782
0
LINE
8
BLACK
6
CONTINUOUS
10
0.379609
20
0.102782
11
0.379808
21
0.102481
0
LINE
8
BLACK
6
CONTINUOUS
10
0.379808
20
0.102481
11
0.380109
21
0.102281
0
LINE
8
BLACK
6
CONTINUOUS
10
0.380109
20
0.102281
11
0.38064
21
0.10122
0
LINE
8
BLACK
6
CONTINUOUS
10
0.38064
20
0.10122
11
0.381293
21
0.100231
0
LINE
8
BLACK
6
CONTINUOUS
10
0.381293
20
0.100231
11
0.400978
21
0.0411757
0
LINE
8
BLACK
6
CONTINUOUS
10
0.400978
20
0.0411757
11
0.401161
21
0.0381243
0
LINE
8
BLACK
6
CONTINUOUS
10
0.401161
20
0.0381243
11
0.399794
21
0.0353901
0
LINE
8
BLACK
6
CONTINUOUS
10
0.399794
20
0.0353901
11
0.397243
21
0.0337057
0
LINE
8
BLACK
6
CONTINUOUS
10
0.397243
20
0.0337057
11
0.394192
21
0.0335226
0
LINE
8
BLACK
6
CONTINUOUS
10
0.394192
20
0.0335226
11
0.391458
21
0.0348897
0
LINE
8
BLACK
6
CONTINUOUS
10
0.391458
20
0.0348897
11
0.389773
21
0.0374407
0
LINE
8
BLACK
6
CONTINUOUS
10
0.389773
20
0.0374407
11
0.385495
21
0.0502756
0
LINE
8
BLACK
6
CONTINUOUS
10
0.385495
20
0.0502756
11
0.365886
21
0.0502756
0
LINE
8
BLACK
6
CONTINUOUS
10
0.365886
20
0.0502756
11
0.361608
21
0.0374407
0
LINE
8
BLACK
6
CONTINUOUS
10
0.361608
20
0.0374407
11
0.359924
21
0.0348897
0
LINE
8
BLACK
6
CONTINUOUS
10
0.359924
20
0.0348897
11
0.35719
21
0.0335226
0
LINE
8
BLACK
6
CONTINUOUS
10
0.35719
20
0.0335226
11
0.354138
21
0.0337058
0
LINE
8
BLACK
6
CONTINUOUS
10
0.354138
20
0.0337058
11
0.351587
21
0.0353901
0
LINE
8
BLACK
6
CONTINUOUS
10
0.351587
20
0.0353901
11
0.350302
21
0.0379611
0
LINE
8
BLACK
6
CONTINUOUS
10
0.350302
20
0.0379611
11
0.349871
21
0.0363555
0
LINE
8
BLACK
6
CONTINUOUS
10
0.349871
20
0.0363555
11
0.34771
21
0.0341939
0
LINE
8
BLACK
6
CONTINUOUS
10
0.34771
20
0.0341939
11
0.344757
21
0.0334027
0
LINE
8
BLACK
6
CONTINUOUS
10
0.344757
20
0.0334027
11
0.316636
21
0.0334027
0
LINE
8
BLACK
6
CONTINUOUS
10
0.316636
20
0.0334027
11
0.313683
21
0.0341939
0
LINE
8
BLACK
6
CONTINUOUS
10
0.313683
20
0.0341939
11
0.311521
21
0.0363555
0
LINE
8
BLACK
6
CONTINUOUS
10
0.311521
20
0.0363555
11
0.31073
21
0.0393082
0
LINE
8
BLACK
6
CONTINUOUS
10
0.31073
20
0.0393082
11
0.31073
21
0.0983633
0
LINE
8
BLACK
6
CONTINUOUS
10
0.31073
20
0.0983633
11
0.311521
21
0.101316
0
LINE
8
BLACK
6
CONTINUOUS
10
0.311521
20
0.101316
11
0.313683
21
0.103478
0
LINE
8
BLACK
6
CONTINUOUS
10
0.313683
20
0.103478
11
0.316636
21
0.104269
0
LINE
8
BLACK
6
CONTINUOUS
10
0.316636
20
0.104269
11
0.319588
21
0.103478
0
LINE
8
BLACK
6
CONTINUOUS
10
0.369823
20
0.0620866
11
0.381558
21
0.0620866
0
LINE
8
BLACK
6
CONTINUOUS
10
0.381558
20
0.0620866
11
0.375691
21
0.0796885
0
LINE
8
BLACK
6
CONTINUOUS
10
0.375691
20
0.0796885
11
0.369823
21
0.0620866
0
LINE
8
BLACK
6
CONTINUOUS
10
0.28975
20
0.103938
11
0.291011
21
0.103715
0
LINE
8
BLACK
6
CONTINUOUS
10
0.291011
20
0.103715
11
0.291213
21
0.103546
0
LINE
8
BLACK
6
CONTINUOUS
10
0.291213
20
0.103546
11
0.291467
21
0.103478
0
LINE
8
BLACK
6
CONTINUOUS
10
0.291467
20
0.103478
11
0.292372
21
0.102573
0
LINE
8
BLACK
6
CONTINUOUS
10
0.292372
20
0.102573
11
0.293353
21
0.101749
0
LINE
8
BLACK
6
CONTINUOUS
10
0.293353
20
0.101749
11
0.293442
21
0.101502
0
LINE
8
BLACK
6
CONTINUOUS
10
0.293442
20
0.101502
11
0.293628
21
0.101316
0
LINE
8
BLACK
6
CONTINUOUS
10
0.293628
20
0.101316
11
0.29396
21
0.100079
0
LINE
8
BLACK
6
CONTINUOUS
10
0.29396
20
0.100079
11
0.294397
21
0.0988763
0
LINE
8
BLACK
6
CONTINUOUS
10
0.294397
20
0.0988763
11
0.294351
21
0.0986174
0
LINE
8
BLACK
6
CONTINUOUS
10
0.294351
20
0.0986174
11
0.29442
21
0.0983633
0
LINE
8
BLACK
6
CONTINUOUS
10
0.29442
20
0.0983633
11
0.29442
21
0.0393082
0
LINE
8
BLACK
6
CONTINUOUS
10
0.29442
20
0.0393082
11
0.293628
21
0.0363555
0
LINE
8
BLACK
6
CONTINUOUS
10
0.293628
20
0.0363555
11
0.291467
21
0.0341939
0
LINE
8
BLACK
6
CONTINUOUS
10
0.291467
20
0.0341939
11
0.288514
21
0.0334027
0
LINE
8
BLACK
6
CONTINUOUS
10
0.288514
20
0.0334027
11
0.285561
21
0.0341939
0
LINE
8
BLACK
6
CONTINUOUS
10
0.285561
20
0.0341939
11
0.2834
21
0.0363555
0
LINE
8
BLACK
6
CONTINUOUS
10
0.2834
20
0.0363555
11
0.282609
21
0.0393082
0
LINE
8
BLACK
6
CONTINUOUS
10
0.282609
20
0.0393082
11
0.282609
21
0.0717439
0
LINE
8
BLACK
6
CONTINUOUS
10
0.282609
20
0.0717439
11
0.27418
21
0.0536837
0
LINE
8
BLACK
6
CONTINUOUS
10
0.27418
20
0.0536837
11
0.273846
21
0.0532848
0
LINE
8
BLACK
6
CONTINUOUS
10
0.273846
20
0.0532848
11
0.273668
21
0.0527952
0
LINE
8
BLACK
6
CONTINUOUS
10
0.273668
20
0.0527952
11
0.272878
21
0.0521321
0
LINE
8
BLACK
6
CONTINUOUS
10
0.272878
20
0.0521321
11
0.272215
21
0.0513426
0
LINE
8
BLACK
6
CONTINUOUS
10
0.272215
20
0.0513426
11
0.271725
21
0.0511646
0
LINE
8
BLACK
6
CONTINUOUS
10
0.271725
20
0.0511646
11
0.271326
21
0.0508296
0
LINE
8
BLACK
6
CONTINUOUS
10
0.271326
20
0.0508296
11
0.270311
21
0.0506502
0
LINE
8
BLACK
6
CONTINUOUS
10
0.270311
20
0.0506502
11
0.269342
21
0.0502979
0
LINE
8
BLACK
6
CONTINUOUS
10
0.269342
20
0.0502979
11
0.268829
21
0.0503885
0
LINE
8
BLACK
6
CONTINUOUS
10
0.268829
20
0.0503885
11
0.268316
21
0.0502979
0
LINE
8
BLACK
6
CONTINUOUS
10
0.268316
20
0.0502979
11
0.267347
21
0.0506503
0
LINE
8
BLACK
6
CONTINUOUS
10
0.267347
20
0.0506503
11
0.266332
21
0.0508296
0
LINE
8
BLACK
6
CONTINUOUS
10
0.266332
20
0.0508296
11
0.265933
21
0.0511645
0
LINE
8
BLACK
6
CONTINUOUS
10
0.265933
20
0.0511645
11
0.265443
21
0.0513426
0
LINE
8
BLACK
6
CONTINUOUS
10
0.265443
20
0.0513426
11
0.26478
21
0.0521323
0
LINE
8
BLACK
6
CONTINUOUS
10
0.26478
20
0.0521323
11
0.263991
21
0.0527953
0
LINE
8
BLACK
6
CONTINUOUS
10
0.263991
20
0.0527953
11
0.263813
21
0.0532848
0
LINE
8
BLACK
6
CONTINUOUS
10
0.263813
20
0.0532848
11
0.263478
21
0.0536837
0
LINE
8
BLACK
6
CONTINUOUS
10
0.263478
20
0.0536837
11
0.255049
21
0.0717439
0
LINE
8
BLACK
6
CONTINUOUS
10
0.255049
20
0.0717439
11
0.255049
21
0.0393082
0
LINE
8
BLACK
6
CONTINUOUS
10
0.255049
20
0.0393082
11
0.254258
21
0.0363555
0
LINE
8
BLACK
6
CONTINUOUS
10
0.254258
20
0.0363555
11
0.252097
21
0.0341939
0
LINE
8
BLACK
6
CONTINUOUS
10
0.252097
20
0.0341939
11
0.249144
21
0.0334027
0
LINE
8
BLACK
6
CONTINUOUS
10
0.249144
20
0.0334027
11
0.246191
21
0.0341939
0
LINE
8
BLACK
6
CONTINUOUS
10
0.246191
20
0.0341939
11
0.24403
21
0.0363555
0
LINE
8
BLACK
6
CONTINUOUS
10
0.24403
20
0.0363555
11
0.243238
21
0.0393082
0
LINE
8
BLACK
6
CONTINUOUS
10
0.243238
20
0.0393082
11
0.243238
21
0.0983633
0
LINE
8
BLACK
6
CONTINUOUS
10
0.243238
20
0.0983633
11
0.243307
21
0.0986174
0
LINE
8
BLACK
6
CONTINUOUS
10
0.243307
20
0.0986174
11
0.243261
21
0.0988763
0
LINE
8
BLACK
6
CONTINUOUS
10
0.243261
20
0.0988763
11
0.243698
21
0.100079
0
LINE
8
BLACK
6
CONTINUOUS
10
0.243698
20
0.100079
11
0.24403
21
0.101316
0
LINE
8
BLACK
6
CONTINUOUS
10
0.24403
20
0.101316
11
0.244216
21
0.101502
0
LINE
8
BLACK
6
CONTINUOUS
10
0.244216
20
0.101502
11
0.244305
21
0.101749
0
LINE
8
BLACK
6
CONTINUOUS
10
0.244305
20
0.101749
11
0.245286
21
0.102572
0
LINE
8
BLACK
6
CONTINUOUS
10
0.245286
20
0.102572
11
0.246191
21
0.103478
0
LINE
8
BLACK
6
CONTINUOUS
10
0.246191
20
0.103478
11
0.246445
21
0.103546
0
LINE
8
BLACK
6
CONTINUOUS
10
0.246445
20
0.103546
11
0.246647
21
0.103715
0
LINE
8
BLACK
6
CONTINUOUS
10
0.246647
20
0.103715
11
0.247907
21
0.103937
0
LINE
8
BLACK
6
CONTINUOUS
10
0.247907
20
0.103937
11
0.249144
21
0.104269
0
LINE
8
BLACK
6
CONTINUOUS
10
0.249144
20
0.104269
11
0.249398
21
0.104201
0
LINE
8
BLACK
6
CONTINUOUS
10
0.249398
20
0.104201
11
0.249657
21
0.104247
0
LINE
8
BLACK
6
CONTINUOUS
10
0.249657
20
0.104247
11
0.25086
21
0.103809
0
LINE
8
BLACK
6
CONTINUOUS
10
0.25086
20
0.103809
11
0.252097
21
0.103478
0
LINE
8
BLACK
6
CONTINUOUS
10
0.252097
20
0.103478
11
0.252283
21
0.103292
0
LINE
8
BLACK
6
CONTINUOUS
10
0.252283
20
0.103292
11
0.25253
21
0.103202
0
LINE
8
BLACK
6
CONTINUOUS
10
0.25253
20
0.103202
11
0.253353
21
0.102221
0
LINE
8
BLACK
6
CONTINUOUS
10
0.253353
20
0.102221
11
0.254258
21
0.101316
0
LINE
8
BLACK
6
CONTINUOUS
10
0.254258
20
0.101316
11
0.254326
21
0.101062
0
LINE
8
BLACK
6
CONTINUOUS
10
0.254326
20
0.101062
11
0.254495
21
0.100861
0
LINE
8
BLACK
6
CONTINUOUS
10
0.254495
20
0.100861
11
0.268829
21
0.0701459
0
LINE
8
BLACK
6
CONTINUOUS
10
0.268829
20
0.0701459
11
0.283163
21
0.100861
0
LINE
8
BLACK
6
CONTINUOUS
10
0.283163
20
0.100861
11
0.283332
21
0.101062
0
LINE
8
BLACK
6
CONTINUOUS
10
0.283332
20
0.101062
11
0.2834
21
0.101316
0
LINE
8
BLACK
6
CONTINUOUS
10
0.2834
20
0.101316
11
0.284305
21
0.102221
0
LINE
8
BLACK
6
CONTINUOUS
10
0.284305
20
0.102221
11
0.285128
21
0.103202
0
LINE
8
BLACK
6
CONTINUOUS
10
0.285128
20
0.103202
11
0.285375
21
0.103292
0
LINE
8
BLACK
6
CONTINUOUS
10
0.285375
20
0.103292
11
0.285561
21
0.103478
0
LINE
8
BLACK
6
CONTINUOUS
10
0.285561
20
0.103478
11
0.286798
21
0.103809
0
LINE
8
BLACK
6
CONTINUOUS
10
0.286798
20
0.103809
11
0.288001
21
0.104247
0
LINE
8
BLACK
6
CONTINUOUS
10
0.288001
20
0.104247
11
0.28826
21
0.104201
0
LINE
8
BLACK
6
CONTINUOUS
10
0.28826
20
0.104201
11
0.288514
21
0.104269
0
LINE
8
BLACK
6
CONTINUOUS
10
0.288514
20
0.104269
11
0.28975
21
0.103938
0
LINE
8
BLACK
6
CONTINUOUS
10
0.578579
20
0.0844731
11
0.579003
21
0.0845241
0
LINE
8
BLACK
6
CONTINUOUS
10
0.579003
20
0.0845241
11
0.580035
21
0.0840829
0
LINE
8
BLACK
6
CONTINUOUS
10
0.580035
20
0.0840829
11
0.581118
21
0.0837926
0
LINE
8
BLACK
6
CONTINUOUS
10
0.581118
20
0.0837926
11
0.581421
21
0.0834902
0
LINE
8
BLACK
6
CONTINUOUS
10
0.581421
20
0.0834902
11
0.581814
21
0.0833219
0
LINE
8
BLACK
6
CONTINUOUS
10
0.581814
20
0.0833219
11
0.582486
21
0.0824243
0
LINE
8
BLACK
6
CONTINUOUS
10
0.582486
20
0.0824243
11
0.58328
21
0.0816311
0
LINE
8
BLACK
6
CONTINUOUS
10
0.58328
20
0.0816311
11
0.58339
21
0.0812178
0
LINE
8
BLACK
6
CONTINUOUS
10
0.58339
20
0.0812178
11
0.583647
21
0.0808755
0
LINE
8
BLACK
6
CONTINUOUS
10
0.583647
20
0.0808755
11
0.583781
21
0.0797618
0
LINE
8
BLACK
6
CONTINUOUS
10
0.583781
20
0.0797618
11
0.584071
21
0.0786783
0
LINE
8
BLACK
6
CONTINUOUS
10
0.584071
20
0.0786783
11
0.58396
21
0.0782652
0
LINE
8
BLACK
6
CONTINUOUS
10
0.58396
20
0.0782652
11
0.584011
21
0.0778404
0
LINE
8
BLACK
6
CONTINUOUS
10
0.584011
20
0.0778404
11
0.58357
21
0.0768089
0
LINE
8
BLACK
6
CONTINUOUS
10
0.58357
20
0.0768089
11
0.58328
21
0.0757256
0
LINE
8
BLACK
6
CONTINUOUS
10
0.58328
20
0.0757256
11
0.582977
21
0.0754231
0
LINE
8
BLACK
6
CONTINUOUS
10
0.582977
20
0.0754231
11
0.582809
21
0.0750298
0
LINE
8
BLACK
6
CONTINUOUS
10
0.582809
20
0.0750298
11
0.559382
21
0.0452137
0
LINE
8
BLACK
6
CONTINUOUS
10
0.559382
20
0.0452137
11
0.578165
21
0.0452137
0
LINE
8
BLACK
6
CONTINUOUS
10
0.578165
20
0.0452137
11
0.581118
21
0.0444226
0
LINE
8
BLACK
6
CONTINUOUS
10
0.581118
20
0.0444226
11
0.58328
21
0.042261
0
LINE
8
BLACK
6
CONTINUOUS
10
0.58328
20
0.042261
11
0.584071
21
0.0393082
0
LINE
8
BLACK
6
CONTINUOUS
10
0.584071
20
0.0393082
11
0.58328
21
0.0363555
0
LINE
8
BLACK
6
CONTINUOUS
10
0.58328
20
0.0363555
11
0.581118
21
0.0341939
0
LINE
8
BLACK
6
CONTINUOUS
10
0.581118
20
0.0341939
11
0.578165
21
0.0334027
0
LINE
8
BLACK
6
CONTINUOUS
10
0.578165
20
0.0334027
11
0.547232
21
0.0334027
0
LINE
8
BLACK
6
CONTINUOUS
10
0.547232
20
0.0334027
11
0.546819
21
0.0335134
0
LINE
8
BLACK
6
CONTINUOUS
10
0.546819
20
0.0335134
11
0.546394
21
0.0334624
0
LINE
8
BLACK
6
CONTINUOUS
10
0.546394
20
0.0334624
11
0.545362
21
0.0339036
0
LINE
8
BLACK
6
CONTINUOUS
10
0.545362
20
0.0339036
11
0.544279
21
0.0341939
0
LINE
8
BLACK
6
CONTINUOUS
10
0.544279
20
0.0341939
11
0.543976
21
0.0344964
0
LINE
8
BLACK
6
CONTINUOUS
10
0.543976
20
0.0344964
11
0.543583
21
0.0346646
0
LINE
8
BLACK
6
CONTINUOUS
10
0.543583
20
0.0346646
11
0.542911
21
0.0355622
0
LINE
8
BLACK
6
CONTINUOUS
10
0.542911
20
0.0355622
11
0.542117
21
0.0363555
0
LINE
8
BLACK
6
CONTINUOUS
10
0.542117
20
0.0363555
11
0.542007
21
0.0367687
0
LINE
8
BLACK
6
CONTINUOUS
10
0.542007
20
0.0367687
11
0.54175
21
0.037111
0
LINE
8
BLACK
6
CONTINUOUS
10
0.54175
20
0.037111
11
0.541616
21
0.0382247
0
LINE
8
BLACK
6
CONTINUOUS
10
0.541616
20
0.0382247
11
0.541326
21
0.0393082
0
LINE
8
BLACK
6
CONTINUOUS
10
0.541326
20
0.0393082
11
0.541437
21
0.0397214
0
LINE
8
BLACK
6
CONTINUOUS
10
0.541437
20
0.0397214
11
0.541386
21
0.0401462
0
LINE
8
BLACK
6
CONTINUOUS
10
0.541386
20
0.0401462
11
0.541827
21
0.0411776
0
LINE
8
BLACK
6
CONTINUOUS
10
0.541827
20
0.0411776
11
0.542117
21
0.042261
0
LINE
8
BLACK
6
CONTINUOUS
10
0.542117
20
0.042261
11
0.54242
21
0.0425635
0
LINE
8
BLACK
6
CONTINUOUS
10
0.54242
20
0.0425635
11
0.542588
21
0.0429568
0
LINE
8
BLACK
6
CONTINUOUS
10
0.542588
20
0.0429568
11
0.566015
21
0.0727728
0
LINE
8
BLACK
6
CONTINUOUS
10
0.566015
20
0.0727728
11
0.547232
21
0.0727728
0
LINE
8
BLACK
6
CONTINUOUS
10
0.547232
20
0.0727728
11
0.544279
21
0.073564
0
LINE
8
BLACK
6
CONTINUOUS
10
0.544279
20
0.073564
11
0.542117
21
0.0757256
0
LINE
8
BLACK
6
CONTINUOUS
10
0.542117
20
0.0757256
11
0.541326
21
0.0786783
0
LINE
8
BLACK
6
CONTINUOUS
10
0.541326
20
0.0786783
11
0.542117
21
0.0816311
0
LINE
8
BLACK
6
CONTINUOUS
10
0.542117
20
0.0816311
11
0.544279
21
0.0837926
0
LINE
8
BLACK
6
CONTINUOUS
10
0.544279
20
0.0837926
11
0.547232
21
0.0845838
0
LINE
8
BLACK
6
CONTINUOUS
10
0.547232
20
0.0845838
11
0.578165
21
0.0845838
0
LINE
8
BLACK
6
CONTINUOUS
10
0.578165
20
0.0845838
11
0.578579
21
0.0844731
  0
ENDSEC
  0
EOF
