  0
SECTION
  2
HEADER
  9
$ANGBASE
  50
0.0
  9
$ANGDIR
  70
1
  9
$MEASUREMENT
  70
0
  0
ENDSEC
  0
SECTION
  2
TABLES
  0
TABLE
  2
LTYPE
  70
4
  0
LTYPE
  5
40F
  2
CONTINUOUS
  70
0
  3
Solid line
  72
65
  73
0
  40
0.0
  0
LTYPE
  5
410
  2
DASHDOT
 70
0
  3
Dash Dot ____ _ ____ _
 72
65
 73
4
 40
2.0
 49
1.25
 49
-0.25
 49
0.25
 49
-0.25
  0
LTYPE
  5
411
  2
DASHED
 70
0
  3
Dashed __ __ __ __ __
 72
65
 73
2
 40
0.75
 49
0.5
 49
-0.25
  0
LTYPE
  5
43B
  2
DOTTED
 70
0
  3
Dotted .  .  .  .
 72
65
 73
2
 40
0.2
 49
0.0
 49
-0.2
  0
ENDTAB
  0
TABLE
  2
STYLE
  70
4
  0
STYLE
  2
KICAD
  70
0
  40
0
  41
1
  42
1
  50
0
  71
0
  3
isocp.shx
  0
STYLE
  2
KICADB
  70
0
  40
0
  41
1
  42
1
  50
0
  71
0
  3
isocp.shx
  0
STYLE
  2
KICADI
  70
0
  40
0
  41
1
  42
1
  50
15
  71
0
  3
isocp.shx
  0
STYLE
  2
KICADBI
  70
0
  40
0
  41
1
  42
1
  50
15
  71
0
  3
isocp.shx
  0
ENDTAB
  0
TABLE
  2
LAYER
  70
1
  0
LAYER
  2
BLACK
  70
0
  62
7
  6
CONTINUOUS
  0
ENDTAB
  0
ENDSEC
  0
SECTION
  2
ENTITIES
0
LINE
8
BLACK
6
CONTINUOUS
10
-0.0885108
20
0.030507
11
-0.0860681
21
0.030507
0
LINE
8
BLACK
6
CONTINUOUS
10
-0.0860681
20
0.030507
11
-0.0836589
21
0.030105
0
LINE
8
BLACK
6
CONTINUOUS
10
-0.0836589
20
0.030105
11
-0.0812247
21
0.0299032
0
LINE
8
BLACK
6
CONTINUOUS
10
-0.0812247
20
0.0299032
11
-0.0788568
21
0.0293036
0
LINE
8
BLACK
6
CONTINUOUS
10
-0.0788568
20
0.0293036
11
-0.0764477
21
0.0289016
0
LINE
8
BLACK
6
CONTINUOUS
10
-0.0764477
20
0.0289016
11
-0.0741377
21
0.0281086
0
LINE
8
BLACK
6
CONTINUOUS
10
-0.0741377
20
0.0281086
11
-0.0717697
21
0.0275089
0
LINE
8
BLACK
6
CONTINUOUS
10
-0.0717697
20
0.0275089
11
-0.0695328
21
0.0265277
0
LINE
8
BLACK
6
CONTINUOUS
10
-0.0695328
20
0.0265277
11
-0.0672227
21
0.0257346
0
LINE
8
BLACK
6
CONTINUOUS
10
-0.0672227
20
0.0257346
11
-0.0650747
21
0.0245722
0
LINE
8
BLACK
6
CONTINUOUS
10
-0.0650747
20
0.0245722
11
-0.0628378
21
0.023591
0
LINE
8
BLACK
6
CONTINUOUS
10
-0.0628378
20
0.023591
11
-0.0607929
21
0.022255
0
LINE
8
BLACK
6
CONTINUOUS
10
-0.0607929
20
0.022255
11
-0.0586448
21
0.0210925
0
LINE
8
BLACK
6
CONTINUOUS
10
-0.0586448
20
0.0210925
11
-0.0567174
21
0.0195923
0
LINE
8
BLACK
6
CONTINUOUS
10
-0.0567174
20
0.0195923
11
-0.0546725
21
0.0182563
0
LINE
8
BLACK
6
CONTINUOUS
10
-0.0546725
20
0.0182563
11
-0.0528754
21
0.016602
0
LINE
8
BLACK
6
CONTINUOUS
10
-0.0528754
20
0.016602
11
-0.050948
21
0.0151018
0
LINE
8
BLACK
6
CONTINUOUS
10
-0.050948
20
0.0151018
11
-0.0492937
21
0.0133048
0
LINE
8
BLACK
6
CONTINUOUS
10
-0.0492937
20
0.0133048
11
-0.0474966
21
0.0116505
0
LINE
8
BLACK
6
CONTINUOUS
10
-0.0474966
20
0.0116505
11
-0.0459965
21
0.00972303
0
LINE
8
BLACK
6
CONTINUOUS
10
-0.0459965
20
0.00972303
11
-0.0443421
21
0.00792594
0
LINE
8
BLACK
6
CONTINUOUS
10
-0.0443421
20
0.00792594
11
-0.0430061
21
0.0058811
0
LINE
8
BLACK
6
CONTINUOUS
10
-0.0430061
20
0.0058811
11
-0.0415059
21
0.00395362
0
LINE
8
BLACK
6
CONTINUOUS
10
-0.0415059
20
0.00395362
11
-0.0403435
21
0.00180555
0
LINE
8
BLACK
6
CONTINUOUS
10
-0.0403435
20
0.00180555
11
-0.0390074
21
-0.000239331
0
LINE
8
BLACK
6
CONTINUOUS
10
-0.0390074
20
-0.000239331
11
-0.0380263
21
-0.00247622
0
LINE
8
BLACK
6
CONTINUOUS
10
-0.0380263
20
-0.00247622
11
-0.0368638
21
-0.00462429
0
LINE
8
BLACK
6
CONTINUOUS
10
-0.0368638
20
-0.00462429
11
-0.0360707
21
-0.00693433
0
LINE
8
BLACK
6
CONTINUOUS
10
-0.0360707
20
-0.00693433
11
-0.0350895
21
-0.0091713
0
LINE
8
BLACK
6
CONTINUOUS
10
-0.0350895
20
-0.0091713
11
-0.0344899
21
-0.0115393
0
LINE
8
BLACK
6
CONTINUOUS
10
-0.0344899
20
-0.0115393
11
-0.0336969
21
-0.0138493
0
LINE
8
BLACK
6
CONTINUOUS
10
-0.0336969
20
-0.0138493
11
-0.0332948
21
-0.0162583
0
LINE
8
BLACK
6
CONTINUOUS
10
-0.0332948
20
-0.0162583
11
-0.0326952
21
-0.0186263
0
LINE
8
BLACK
6
CONTINUOUS
10
-0.0326952
20
-0.0186263
11
-0.0324935
21
-0.0210605
0
LINE
8
BLACK
6
CONTINUOUS
10
-0.0324935
20
-0.0210605
11
-0.0320915
21
-0.0234697
0
LINE
8
BLACK
6
CONTINUOUS
10
-0.0320915
20
-0.0234697
11
-0.0320915
21
-0.0259124
0
LINE
8
BLACK
6
CONTINUOUS
10
-0.0320915
20
-0.0259124
11
-0.0318898
21
-0.0283465
0
LINE
8
BLACK
6
CONTINUOUS
10
-0.0318898
20
-0.0283465
11
-0.0318898
21
-0.540157
0
LINE
8
BLACK
6
CONTINUOUS
10
-0.0318898
20
-0.540157
11
-0.0326952
21
-0.549878
0
LINE
8
BLACK
6
CONTINUOUS
10
-0.0326952
20
-0.549878
11
-0.0350895
21
-0.559333
0
LINE
8
BLACK
6
CONTINUOUS
10
-0.0350895
20
-0.559333
11
-0.0390074
21
-0.568265
0
LINE
8
BLACK
6
CONTINUOUS
10
-0.0390074
20
-0.568265
11
-0.0439025
21
-0.575757
0
LINE
8
BLACK
6
CONTINUOUS
10
-0.0439025
20
-0.575757
11
-0.0439025
21
-0.57653
0
LINE
8
BLACK
6
CONTINUOUS
10
-0.0439025
20
-0.57653
11
-0.0455079
21
-0.586151
0
LINE
8
BLACK
6
CONTINUOUS
10
-0.0455079
20
-0.586151
11
-0.0486748
21
-0.595376
0
LINE
8
BLACK
6
CONTINUOUS
10
-0.0486748
20
-0.595376
11
-0.0533169
21
-0.603954
0
LINE
8
BLACK
6
CONTINUOUS
10
-0.0533169
20
-0.603954
11
-0.0593076
21
-0.61165
0
LINE
8
BLACK
6
CONTINUOUS
10
-0.0593076
20
-0.61165
11
-0.0664835
21
-0.618256
0
LINE
8
BLACK
6
CONTINUOUS
10
-0.0664835
20
-0.618256
11
-0.0746488
21
-0.623591
0
LINE
8
BLACK
6
CONTINUOUS
10
-0.0746488
20
-0.623591
11
-0.0835807
21
-0.627509
0
LINE
8
BLACK
6
CONTINUOUS
10
-0.0835807
20
-0.627509
11
-0.0930357
21
-0.629903
0
LINE
8
BLACK
6
CONTINUOUS
10
-0.0930357
20
-0.629903
11
-0.102756
21
-0.630709
0
LINE
8
BLACK
6
CONTINUOUS
10
-0.102756
20
-0.630709
11
-0.614567
21
-0.630709
0
LINE
8
BLACK
6
CONTINUOUS
10
-0.614567
20
-0.630709
11
-0.617001
21
-0.630507
0
LINE
8
BLACK
6
CONTINUOUS
10
-0.617001
20
-0.630507
11
-0.619444
21
-0.630507
0
LINE
8
BLACK
6
CONTINUOUS
10
-0.619444
20
-0.630507
11
-0.621853
21
-0.630105
0
LINE
8
BLACK
6
CONTINUOUS
10
-0.621853
20
-0.630105
11
-0.624287
21
-0.629903
0
LINE
8
BLACK
6
CONTINUOUS
10
-0.624287
20
-0.629903
11
-0.626655
21
-0.629304
0
LINE
8
BLACK
6
CONTINUOUS
10
-0.626655
20
-0.629304
11
-0.629064
21
-0.628902
0
LINE
8
BLACK
6
CONTINUOUS
10
-0.629064
20
-0.628902
11
-0.631374
21
-0.628109
0
LINE
8
BLACK
6
CONTINUOUS
10
-0.631374
20
-0.628109
11
-0.633742
21
-0.627509
0
LINE
8
BLACK
6
CONTINUOUS
10
-0.633742
20
-0.627509
11
-0.635979
21
-0.626528
0
LINE
8
BLACK
6
CONTINUOUS
10
-0.635979
20
-0.626528
11
-0.638289
21
-0.625735
0
LINE
8
BLACK
6
CONTINUOUS
10
-0.638289
20
-0.625735
11
-0.640437
21
-0.624572
0
LINE
8
BLACK
6
CONTINUOUS
10
-0.640437
20
-0.624572
11
-0.642674
21
-0.623591
0
LINE
8
BLACK
6
CONTINUOUS
10
-0.642674
20
-0.623591
11
-0.644719
21
-0.622255
0
LINE
8
BLACK
6
CONTINUOUS
10
-0.644719
20
-0.622255
11
-0.646867
21
-0.621093
0
LINE
8
BLACK
6
CONTINUOUS
10
-0.646867
20
-0.621093
11
-0.648794
21
-0.619592
0
LINE
8
BLACK
6
CONTINUOUS
10
-0.648794
20
-0.619592
11
-0.650839
21
-0.618256
0
LINE
8
BLACK
6
CONTINUOUS
10
-0.650839
20
-0.618256
11
-0.652636
21
-0.616602
0
LINE
8
BLACK
6
CONTINUOUS
10
-0.652636
20
-0.616602
11
-0.654564
21
-0.615102
0
LINE
8
BLACK
6
CONTINUOUS
10
-0.654564
20
-0.615102
11
-0.656218
21
-0.613305
0
LINE
8
BLACK
6
CONTINUOUS
10
-0.656218
20
-0.613305
11
-0.658015
21
-0.61165
0
LINE
8
BLACK
6
CONTINUOUS
10
-0.658015
20
-0.61165
11
-0.659515
21
-0.609723
0
LINE
8
BLACK
6
CONTINUOUS
10
-0.659515
20
-0.609723
11
-0.66117
21
-0.607926
0
LINE
8
BLACK
6
CONTINUOUS
10
-0.66117
20
-0.607926
11
-0.662506
21
-0.605881
0
LINE
8
BLACK
6
CONTINUOUS
10
-0.662506
20
-0.605881
11
-0.664006
21
-0.603954
0
LINE
8
BLACK
6
CONTINUOUS
10
-0.664006
20
-0.603954
11
-0.665168
21
-0.601806
0
LINE
8
BLACK
6
CONTINUOUS
10
-0.665168
20
-0.601806
11
-0.666504
21
-0.599761
0
LINE
8
BLACK
6
CONTINUOUS
10
-0.666504
20
-0.599761
11
-0.667486
21
-0.597524
0
LINE
8
BLACK
6
CONTINUOUS
10
-0.667486
20
-0.597524
11
-0.668648
21
-0.595376
0
LINE
8
BLACK
6
CONTINUOUS
10
-0.668648
20
-0.595376
11
-0.669441
21
-0.593066
0
LINE
8
BLACK
6
CONTINUOUS
10
-0.669441
20
-0.593066
11
-0.670422
21
-0.590829
0
LINE
8
BLACK
6
CONTINUOUS
10
-0.670422
20
-0.590829
11
-0.671022
21
-0.588461
0
LINE
8
BLACK
6
CONTINUOUS
10
-0.671022
20
-0.588461
11
-0.671815
21
-0.586151
0
LINE
8
BLACK
6
CONTINUOUS
10
-0.671815
20
-0.586151
11
-0.672217
21
-0.583742
0
LINE
8
BLACK
6
CONTINUOUS
10
-0.672217
20
-0.583742
11
-0.672817
21
-0.581374
0
LINE
8
BLACK
6
CONTINUOUS
10
-0.672817
20
-0.581374
11
-0.673018
21
-0.578939
0
LINE
8
BLACK
6
CONTINUOUS
10
-0.673018
20
-0.578939
11
-0.67342
21
-0.57653
0
LINE
8
BLACK
6
CONTINUOUS
10
-0.67342
20
-0.57653
11
-0.67342
21
-0.574088
0
LINE
8
BLACK
6
CONTINUOUS
10
-0.67342
20
-0.574088
11
-0.673622
21
-0.571654
0
LINE
8
BLACK
6
CONTINUOUS
10
-0.673622
20
-0.571654
11
-0.673622
21
-0.0598425
0
LINE
8
BLACK
6
CONTINUOUS
10
-0.673622
20
-0.0598425
11
-0.672817
21
-0.0501224
0
LINE
8
BLACK
6
CONTINUOUS
10
-0.672817
20
-0.0501224
11
-0.670422
21
-0.0406674
0
LINE
8
BLACK
6
CONTINUOUS
10
-0.670422
20
-0.0406674
11
-0.666504
21
-0.0317354
0
LINE
8
BLACK
6
CONTINUOUS
10
-0.666504
20
-0.0317354
11
-0.661609
21
-0.024243
0
LINE
8
BLACK
6
CONTINUOUS
10
-0.661609
20
-0.024243
11
-0.661609
21
-0.0234697
0
LINE
8
BLACK
6
CONTINUOUS
10
-0.661609
20
-0.0234697
11
-0.660004
21
-0.0138493
0
LINE
8
BLACK
6
CONTINUOUS
10
-0.660004
20
-0.0138493
11
-0.656837
21
-0.00462429
0
LINE
8
BLACK
6
CONTINUOUS
10
-0.656837
20
-0.00462429
11
-0.652195
21
0.00395362
0
LINE
8
BLACK
6
CONTINUOUS
10
-0.652195
20
0.00395362
11
-0.646204
21
0.0116505
0
LINE
8
BLACK
6
CONTINUOUS
10
-0.646204
20
0.0116505
11
-0.639028
21
0.0182563
0
LINE
8
BLACK
6
CONTINUOUS
10
-0.639028
20
0.0182563
11
-0.630863
21
0.023591
0
LINE
8
BLACK
6
CONTINUOUS
10
-0.630863
20
0.023591
11
-0.621931
21
0.0275089
0
LINE
8
BLACK
6
CONTINUOUS
10
-0.621931
20
0.0275089
11
-0.612476
21
0.0299032
0
LINE
8
BLACK
6
CONTINUOUS
10
-0.612476
20
0.0299032
11
-0.602756
21
0.0307087
0
LINE
8
BLACK
6
CONTINUOUS
10
-0.602756
20
0.0307087
11
-0.0909449
21
0.0307087
0
LINE
8
BLACK
6
CONTINUOUS
10
-0.0909449
20
0.0307087
11
-0.0885108
21
0.030507
0
LINE
8
BLACK
6
CONTINUOUS
10
-0.555512
20
-0.0874016
11
-0.555512
21
-0.512598
0
LINE
8
BLACK
6
CONTINUOUS
10
-0.555512
20
-0.512598
11
-0.15
21
-0.512598
0
LINE
8
BLACK
6
CONTINUOUS
10
-0.15
20
-0.512598
11
-0.15
21
-0.0874016
0
LINE
8
BLACK
6
CONTINUOUS
10
-0.15
20
-0.0874016
11
-0.555512
21
-0.0874016
  0
ENDSEC
  0
EOF
