  0
SECTION
  2
HEADER
  9
$ANGBASE
  50
0.0
  9
$ANGDIR
  70
1
  9
$MEASUREMENT
  70
0
  0
ENDSEC
  0
SECTION
  2
TABLES
  0
TABLE
  2
LTYPE
  70
4
  0
LTYPE
  5
40F
  2
CONTINUOUS
  70
0
  3
Solid line
  72
65
  73
0
  40
0.0
  0
LTYPE
  5
410
  2
DASHDOT
 70
0
  3
Dash Dot ____ _ ____ _
 72
65
 73
4
 40
2.0
 49
1.25
 49
-0.25
 49
0.25
 49
-0.25
  0
LTYPE
  5
411
  2
DASHED
 70
0
  3
Dashed __ __ __ __ __
 72
65
 73
2
 40
0.75
 49
0.5
 49
-0.25
  0
LTYPE
  5
43B
  2
DOTTED
 70
0
  3
Dotted .  .  .  .
 72
65
 73
2
 40
0.2
 49
0.0
 49
-0.2
  0
ENDTAB
  0
TABLE
  2
STYLE
  70
4
  0
STYLE
  2
KICAD
  70
0
  40
0
  41
1
  42
1
  50
0
  71
0
  3
isocp.shx
  0
STYLE
  2
KICADB
  70
0
  40
0
  41
1
  42
1
  50
0
  71
0
  3
isocp.shx
  0
STYLE
  2
KICADI
  70
0
  40
0
  41
1
  42
1
  50
15
  71
0
  3
isocp.shx
  0
STYLE
  2
KICADBI
  70
0
  40
0
  41
1
  42
1
  50
15
  71
0
  3
isocp.shx
  0
ENDTAB
  0
TABLE
  2
LAYER
  70
1
  0
LAYER
  2
BLACK
  70
0
  62
7
  6
CONTINUOUS
  0
ENDTAB
  0
ENDSEC
  0
SECTION
  2
ENTITIES
0
LINE
8
BLACK
6
CONTINUOUS
10
-0.11711
20
-0.0482319
11
-0.115702
21
-0.0482319
0
LINE
8
BLACK
6
CONTINUOUS
10
-0.115702
20
-0.0482319
11
-0.114351
21
-0.0486285
0
LINE
8
BLACK
6
CONTINUOUS
10
-0.114351
20
-0.0486285
11
-0.112958
21
-0.0488289
0
LINE
8
BLACK
6
CONTINUOUS
10
-0.112958
20
-0.0488289
11
-0.111678
21
-0.0494137
0
LINE
8
BLACK
6
CONTINUOUS
10
-0.111678
20
-0.0494137
11
-0.110326
21
-0.0498104
0
LINE
8
BLACK
6
CONTINUOUS
10
-0.110326
20
-0.0498104
11
-0.109142
21
-0.0505716
0
LINE
8
BLACK
6
CONTINUOUS
10
-0.109142
20
-0.0505716
11
-0.107861
21
-0.0511564
0
LINE
8
BLACK
6
CONTINUOUS
10
-0.107861
20
-0.0511564
11
-0.106797
21
-0.0520783
0
LINE
8
BLACK
6
CONTINUOUS
10
-0.106797
20
-0.0520783
11
-0.105613
21
-0.0528396
0
LINE
8
BLACK
6
CONTINUOUS
10
-0.105613
20
-0.0528396
11
-0.104691
21
-0.0539036
0
LINE
8
BLACK
6
CONTINUOUS
10
-0.104691
20
-0.0539036
11
-0.103627
21
-0.0548256
0
LINE
8
BLACK
6
CONTINUOUS
10
-0.103627
20
-0.0548256
11
-0.102866
21
-0.05601
0
LINE
8
BLACK
6
CONTINUOUS
10
-0.102866
20
-0.05601
11
-0.101944
21
-0.057074
0
LINE
8
BLACK
6
CONTINUOUS
10
-0.101944
20
-0.057074
11
-0.101359
21
-0.0583546
0
LINE
8
BLACK
6
CONTINUOUS
10
-0.101359
20
-0.0583546
11
-0.100598
21
-0.0595391
0
LINE
8
BLACK
6
CONTINUOUS
10
-0.100598
20
-0.0595391
11
-0.100201
21
-0.0608901
0
LINE
8
BLACK
6
CONTINUOUS
10
-0.100201
20
-0.0608901
11
-0.0996163
21
-0.0621706
0
LINE
8
BLACK
6
CONTINUOUS
10
-0.0996163
20
-0.0621706
11
-0.099416
21
-0.063564
0
LINE
8
BLACK
6
CONTINUOUS
10
-0.099416
20
-0.063564
11
-0.0990193
21
-0.0649151
0
LINE
8
BLACK
6
CONTINUOUS
10
-0.0990193
20
-0.0649151
11
-0.0990193
21
-0.0663231
0
LINE
8
BLACK
6
CONTINUOUS
10
-0.0990193
20
-0.0663231
11
-0.0988189
21
-0.0677165
0
LINE
8
BLACK
6
CONTINUOUS
10
-0.0988189
20
-0.0677165
11
-0.0988189
21
-0.56378
0
LINE
8
BLACK
6
CONTINUOUS
10
-0.0988189
20
-0.56378
11
-0.0990193
21
-0.565173
0
LINE
8
BLACK
6
CONTINUOUS
10
-0.0990193
20
-0.565173
11
-0.0990193
21
-0.566581
0
LINE
8
BLACK
6
CONTINUOUS
10
-0.0990193
20
-0.566581
11
-0.099416
21
-0.567932
0
LINE
8
BLACK
6
CONTINUOUS
10
-0.099416
20
-0.567932
11
-0.0996163
21
-0.569325
0
LINE
8
BLACK
6
CONTINUOUS
10
-0.0996163
20
-0.569325
11
-0.100201
21
-0.570606
0
LINE
8
BLACK
6
CONTINUOUS
10
-0.100201
20
-0.570606
11
-0.100598
21
-0.571957
0
LINE
8
BLACK
6
CONTINUOUS
10
-0.100598
20
-0.571957
11
-0.101359
21
-0.573141
0
LINE
8
BLACK
6
CONTINUOUS
10
-0.101359
20
-0.573141
11
-0.101944
21
-0.574422
0
LINE
8
BLACK
6
CONTINUOUS
10
-0.101944
20
-0.574422
11
-0.102866
21
-0.575486
0
LINE
8
BLACK
6
CONTINUOUS
10
-0.102866
20
-0.575486
11
-0.103627
21
-0.57667
0
LINE
8
BLACK
6
CONTINUOUS
10
-0.103627
20
-0.57667
11
-0.104691
21
-0.577592
0
LINE
8
BLACK
6
CONTINUOUS
10
-0.104691
20
-0.577592
11
-0.105613
21
-0.578656
0
LINE
8
BLACK
6
CONTINUOUS
10
-0.105613
20
-0.578656
11
-0.106797
21
-0.579418
0
LINE
8
BLACK
6
CONTINUOUS
10
-0.106797
20
-0.579418
11
-0.107861
21
-0.58034
0
LINE
8
BLACK
6
CONTINUOUS
10
-0.107861
20
-0.58034
11
-0.109142
21
-0.580924
0
LINE
8
BLACK
6
CONTINUOUS
10
-0.109142
20
-0.580924
11
-0.110326
21
-0.581686
0
LINE
8
BLACK
6
CONTINUOUS
10
-0.110326
20
-0.581686
11
-0.111678
21
-0.582082
0
LINE
8
BLACK
6
CONTINUOUS
10
-0.111678
20
-0.582082
11
-0.112958
21
-0.582667
0
LINE
8
BLACK
6
CONTINUOUS
10
-0.112958
20
-0.582667
11
-0.114351
21
-0.582867
0
LINE
8
BLACK
6
CONTINUOUS
10
-0.114351
20
-0.582867
11
-0.115702
21
-0.583264
0
LINE
8
BLACK
6
CONTINUOUS
10
-0.115702
20
-0.583264
11
-0.11711
21
-0.583264
0
LINE
8
BLACK
6
CONTINUOUS
10
-0.11711
20
-0.583264
11
-0.118504
21
-0.583465
0
LINE
8
BLACK
6
CONTINUOUS
10
-0.118504
20
-0.583465
11
-0.598819
21
-0.583465
0
LINE
8
BLACK
6
CONTINUOUS
10
-0.598819
20
-0.583465
11
-0.600212
21
-0.583264
0
LINE
8
BLACK
6
CONTINUOUS
10
-0.600212
20
-0.583264
11
-0.60162
21
-0.583264
0
LINE
8
BLACK
6
CONTINUOUS
10
-0.60162
20
-0.583264
11
-0.602971
21
-0.582867
0
LINE
8
BLACK
6
CONTINUOUS
10
-0.602971
20
-0.582867
11
-0.604365
21
-0.582667
0
LINE
8
BLACK
6
CONTINUOUS
10
-0.604365
20
-0.582667
11
-0.605645
21
-0.582082
0
LINE
8
BLACK
6
CONTINUOUS
10
-0.605645
20
-0.582082
11
-0.606996
21
-0.581686
0
LINE
8
BLACK
6
CONTINUOUS
10
-0.606996
20
-0.581686
11
-0.608181
21
-0.580924
0
LINE
8
BLACK
6
CONTINUOUS
10
-0.608181
20
-0.580924
11
-0.609461
21
-0.58034
0
LINE
8
BLACK
6
CONTINUOUS
10
-0.609461
20
-0.58034
11
-0.610525
21
-0.579418
0
LINE
8
BLACK
6
CONTINUOUS
10
-0.610525
20
-0.579418
11
-0.61171
21
-0.578656
0
LINE
8
BLACK
6
CONTINUOUS
10
-0.61171
20
-0.578656
11
-0.612632
21
-0.577592
0
LINE
8
BLACK
6
CONTINUOUS
10
-0.612632
20
-0.577592
11
-0.613696
21
-0.57667
0
LINE
8
BLACK
6
CONTINUOUS
10
-0.613696
20
-0.57667
11
-0.614457
21
-0.575486
0
LINE
8
BLACK
6
CONTINUOUS
10
-0.614457
20
-0.575486
11
-0.615379
21
-0.574422
0
LINE
8
BLACK
6
CONTINUOUS
10
-0.615379
20
-0.574422
11
-0.615964
21
-0.573141
0
LINE
8
BLACK
6
CONTINUOUS
10
-0.615964
20
-0.573141
11
-0.616725
21
-0.571957
0
LINE
8
BLACK
6
CONTINUOUS
10
-0.616725
20
-0.571957
11
-0.617122
21
-0.570606
0
LINE
8
BLACK
6
CONTINUOUS
10
-0.617122
20
-0.570606
11
-0.617707
21
-0.569325
0
LINE
8
BLACK
6
CONTINUOUS
10
-0.617707
20
-0.569325
11
-0.617907
21
-0.567932
0
LINE
8
BLACK
6
CONTINUOUS
10
-0.617907
20
-0.567932
11
-0.618304
21
-0.566581
0
LINE
8
BLACK
6
CONTINUOUS
10
-0.618304
20
-0.566581
11
-0.618304
21
-0.565173
0
LINE
8
BLACK
6
CONTINUOUS
10
-0.618304
20
-0.565173
11
-0.618504
21
-0.56378
0
LINE
8
BLACK
6
CONTINUOUS
10
-0.618504
20
-0.56378
11
-0.618504
21
-0.0677165
0
LINE
8
BLACK
6
CONTINUOUS
10
-0.618504
20
-0.0677165
11
-0.618304
21
-0.0663231
0
LINE
8
BLACK
6
CONTINUOUS
10
-0.618304
20
-0.0663231
11
-0.618304
21
-0.0649151
0
LINE
8
BLACK
6
CONTINUOUS
10
-0.618304
20
-0.0649151
11
-0.617907
21
-0.063564
0
LINE
8
BLACK
6
CONTINUOUS
10
-0.617907
20
-0.063564
11
-0.617707
21
-0.0621706
0
LINE
8
BLACK
6
CONTINUOUS
10
-0.617707
20
-0.0621706
11
-0.617122
21
-0.0608901
0
LINE
8
BLACK
6
CONTINUOUS
10
-0.617122
20
-0.0608901
11
-0.616725
21
-0.0595391
0
LINE
8
BLACK
6
CONTINUOUS
10
-0.616725
20
-0.0595391
11
-0.615964
21
-0.0583546
0
LINE
8
BLACK
6
CONTINUOUS
10
-0.615964
20
-0.0583546
11
-0.615379
21
-0.057074
0
LINE
8
BLACK
6
CONTINUOUS
10
-0.615379
20
-0.057074
11
-0.614457
21
-0.05601
0
LINE
8
BLACK
6
CONTINUOUS
10
-0.614457
20
-0.05601
11
-0.613696
21
-0.0548256
0
LINE
8
BLACK
6
CONTINUOUS
10
-0.613696
20
-0.0548256
11
-0.612632
21
-0.0539036
0
LINE
8
BLACK
6
CONTINUOUS
10
-0.612632
20
-0.0539036
11
-0.61171
21
-0.0528396
0
LINE
8
BLACK
6
CONTINUOUS
10
-0.61171
20
-0.0528396
11
-0.610525
21
-0.0520783
0
LINE
8
BLACK
6
CONTINUOUS
10
-0.610525
20
-0.0520783
11
-0.609461
21
-0.0511564
0
LINE
8
BLACK
6
CONTINUOUS
10
-0.609461
20
-0.0511564
11
-0.608181
21
-0.0505716
0
LINE
8
BLACK
6
CONTINUOUS
10
-0.608181
20
-0.0505716
11
-0.606996
21
-0.0498104
0
LINE
8
BLACK
6
CONTINUOUS
10
-0.606996
20
-0.0498104
11
-0.605645
21
-0.0494137
0
LINE
8
BLACK
6
CONTINUOUS
10
-0.605645
20
-0.0494137
11
-0.604365
21
-0.0488289
0
LINE
8
BLACK
6
CONTINUOUS
10
-0.604365
20
-0.0488289
11
-0.602971
21
-0.0486285
0
LINE
8
BLACK
6
CONTINUOUS
10
-0.602971
20
-0.0486285
11
-0.60162
21
-0.0482319
0
LINE
8
BLACK
6
CONTINUOUS
10
-0.60162
20
-0.0482319
11
-0.600212
21
-0.0482319
0
LINE
8
BLACK
6
CONTINUOUS
10
-0.600212
20
-0.0482319
11
-0.598819
21
-0.0480315
0
LINE
8
BLACK
6
CONTINUOUS
10
-0.598819
20
-0.0480315
11
-0.118504
21
-0.0480315
0
LINE
8
BLACK
6
CONTINUOUS
10
-0.118504
20
-0.0480315
11
-0.11711
21
-0.0482319
0
LINE
8
BLACK
6
CONTINUOUS
10
-0.579134
20
-0.0874016
11
-0.579134
21
-0.544094
0
LINE
8
BLACK
6
CONTINUOUS
10
-0.579134
20
-0.544094
11
-0.138189
21
-0.544094
0
LINE
8
BLACK
6
CONTINUOUS
10
-0.138189
20
-0.544094
11
-0.138189
21
-0.0874016
0
LINE
8
BLACK
6
CONTINUOUS
10
-0.138189
20
-0.0874016
11
-0.579134
21
-0.0874016
  0
ENDSEC
  0
EOF
