  0
SECTION
  2
HEADER
  9
$ANGBASE
  50
0.0
  9
$ANGDIR
  70
1
  9
$MEASUREMENT
  70
0
  0
ENDSEC
  0
SECTION
  2
TABLES
  0
TABLE
  2
LTYPE
  70
4
  0
LTYPE
  5
40F
  2
CONTINUOUS
  70
0
  3
Solid line
  72
65
  73
0
  40
0.0
  0
LTYPE
  5
410
  2
DASHDOT
 70
0
  3
Dash Dot ____ _ ____ _
 72
65
 73
4
 40
2.0
 49
1.25
 49
-0.25
 49
0.25
 49
-0.25
  0
LTYPE
  5
411
  2
DASHED
 70
0
  3
Dashed __ __ __ __ __
 72
65
 73
2
 40
0.75
 49
0.5
 49
-0.25
  0
LTYPE
  5
43B
  2
DOTTED
 70
0
  3
Dotted .  .  .  .
 72
65
 73
2
 40
0.2
 49
0.0
 49
-0.2
  0
ENDTAB
  0
TABLE
  2
STYLE
  70
4
  0
STYLE
  2
KICAD
  70
0
  40
0
  41
1
  42
1
  50
0
  71
0
  3
isocp.shx
  0
STYLE
  2
KICADB
  70
0
  40
0
  41
1
  42
1
  50
0
  71
0
  3
isocp.shx
  0
STYLE
  2
KICADI
  70
0
  40
0
  41
1
  42
1
  50
15
  71
0
  3
isocp.shx
  0
STYLE
  2
KICADBI
  70
0
  40
0
  41
1
  42
1
  50
15
  71
0
  3
isocp.shx
  0
ENDTAB
  0
TABLE
  2
LAYER
  70
1
  0
LAYER
  2
BLACK
  70
0
  62
7
  6
CONTINUOUS
  0
ENDTAB
  0
ENDSEC
  0
SECTION
  2
ENTITIES
0
LINE
8
BLACK
6
CONTINUOUS
10
5.80066
20
-2.98033
11
5.80271
21
-2.98055
0
LINE
8
BLACK
6
CONTINUOUS
10
5.80271
20
-2.98055
11
5.80477
21
-2.98058
0
LINE
8
BLACK
6
CONTINUOUS
10
5.80477
20
-2.98058
11
5.80751
21
-2.98107
0
LINE
8
BLACK
6
CONTINUOUS
10
5.80751
20
-2.98107
11
5.81028
21
-2.98136
0
LINE
8
BLACK
6
CONTINUOUS
10
5.81028
20
-2.98136
11
5.81227
21
-2.98191
0
LINE
8
BLACK
6
CONTINUOUS
10
5.81227
20
-2.98191
11
5.8143
21
-2.98227
0
LINE
8
BLACK
6
CONTINUOUS
10
5.8143
20
-2.98227
11
5.81692
21
-2.9832
0
LINE
8
BLACK
6
CONTINUOUS
10
5.81692
20
-2.9832
11
5.8196
21
-2.98395
0
LINE
8
BLACK
6
CONTINUOUS
10
5.8196
20
-2.98395
11
5.82148
21
-2.98482
0
LINE
8
BLACK
6
CONTINUOUS
10
5.82148
20
-2.98482
11
5.82342
21
-2.9855
0
LINE
8
BLACK
6
CONTINUOUS
10
5.82342
20
-2.9855
11
5.82586
21
-2.98685
0
LINE
8
BLACK
6
CONTINUOUS
10
5.82586
20
-2.98685
11
5.82838
21
-2.98802
0
LINE
8
BLACK
6
CONTINUOUS
10
5.82838
20
-2.98802
11
5.83009
21
-2.98918
0
LINE
8
BLACK
6
CONTINUOUS
10
5.83009
20
-2.98918
11
5.83189
21
-2.99018
0
LINE
8
BLACK
6
CONTINUOUS
10
5.83189
20
-2.99018
11
5.83408
21
-2.99191
0
LINE
8
BLACK
6
CONTINUOUS
10
5.83408
20
-2.99191
11
5.83638
21
-2.99348
0
LINE
8
BLACK
6
CONTINUOUS
10
5.83638
20
-2.99348
11
5.83787
21
-2.9949
0
LINE
8
BLACK
6
CONTINUOUS
10
5.83787
20
-2.9949
11
5.83949
21
-2.99618
0
LINE
8
BLACK
6
CONTINUOUS
10
5.83949
20
-2.99618
11
5.84136
21
-2.99824
0
LINE
8
BLACK
6
CONTINUOUS
10
5.84136
20
-2.99824
11
5.84337
21
-3.00016
0
LINE
8
BLACK
6
CONTINUOUS
10
5.84337
20
-3.00016
11
5.84461
21
-3.00181
0
LINE
8
BLACK
6
CONTINUOUS
10
5.84461
20
-3.00181
11
5.846
21
-3.00334
0
LINE
8
BLACK
6
CONTINUOUS
10
5.846
20
-3.00334
11
5.84751
21
-3.00567
0
LINE
8
BLACK
6
CONTINUOUS
10
5.84751
20
-3.00567
11
5.84918
21
-3.0079
0
LINE
8
BLACK
6
CONTINUOUS
10
5.84918
20
-3.0079
11
5.85014
21
-3.00973
0
LINE
8
BLACK
6
CONTINUOUS
10
5.85014
20
-3.00973
11
5.85126
21
-3.01146
0
LINE
8
BLACK
6
CONTINUOUS
10
5.85126
20
-3.01146
11
5.85237
21
-3.01402
0
LINE
8
BLACK
6
CONTINUOUS
10
5.85237
20
-3.01402
11
5.85365
21
-3.01649
0
LINE
8
BLACK
6
CONTINUOUS
10
5.85365
20
-3.01649
11
5.85429
21
-3.01845
0
LINE
8
BLACK
6
CONTINUOUS
10
5.85429
20
-3.01845
11
5.85512
21
-3.02034
0
LINE
8
BLACK
6
CONTINUOUS
10
5.85512
20
-3.02034
11
5.8558
21
-3.02304
0
LINE
8
BLACK
6
CONTINUOUS
10
5.8558
20
-3.02304
11
5.85666
21
-3.02568
0
LINE
8
BLACK
6
CONTINUOUS
10
5.85666
20
-3.02568
11
5.85697
21
-3.02772
0
LINE
8
BLACK
6
CONTINUOUS
10
5.85697
20
-3.02772
11
5.85747
21
-3.02972
0
LINE
8
BLACK
6
CONTINUOUS
10
5.85747
20
-3.02972
11
5.8577
21
-3.0325
0
LINE
8
BLACK
6
CONTINUOUS
10
5.8577
20
-3.0325
11
5.85812
21
-3.03525
0
LINE
8
BLACK
6
CONTINUOUS
10
5.85812
20
-3.03525
11
5.8581
21
-3.03731
0
LINE
8
BLACK
6
CONTINUOUS
10
5.8581
20
-3.03731
11
5.85827
21
-3.03937
0
LINE
8
BLACK
6
CONTINUOUS
10
5.85827
20
-3.03937
11
5.85827
21
-3.55118
0
LINE
8
BLACK
6
CONTINUOUS
10
5.85827
20
-3.55118
11
5.85825
21
-3.55262
0
LINE
8
BLACK
6
CONTINUOUS
10
5.85825
20
-3.55262
11
5.85722
21
-3.56225
0
LINE
8
BLACK
6
CONTINUOUS
10
5.85722
20
-3.56225
11
5.85464
21
-3.57157
0
LINE
8
BLACK
6
CONTINUOUS
10
5.85464
20
-3.57157
11
5.85056
21
-3.58035
0
LINE
8
BLACK
6
CONTINUOUS
10
5.85056
20
-3.58035
11
5.84621
21
-3.58672
0
LINE
8
BLACK
6
CONTINUOUS
10
5.84621
20
-3.58672
11
5.84619
21
-3.58823
0
LINE
8
BLACK
6
CONTINUOUS
10
5.84619
20
-3.58823
11
5.8445
21
-3.59776
0
LINE
8
BLACK
6
CONTINUOUS
10
5.8445
20
-3.59776
11
5.84127
21
-3.60689
0
LINE
8
BLACK
6
CONTINUOUS
10
5.84127
20
-3.60689
11
5.83659
21
-3.61536
0
LINE
8
BLACK
6
CONTINUOUS
10
5.83659
20
-3.61536
11
5.83059
21
-3.62295
0
LINE
8
BLACK
6
CONTINUOUS
10
5.83059
20
-3.62295
11
5.82343
21
-3.62947
0
LINE
8
BLACK
6
CONTINUOUS
10
5.82343
20
-3.62947
11
5.81531
21
-3.63472
0
LINE
8
BLACK
6
CONTINUOUS
10
5.81531
20
-3.63472
11
5.80643
21
-3.63858
0
LINE
8
BLACK
6
CONTINUOUS
10
5.80643
20
-3.63858
11
5.79705
21
-3.64094
0
LINE
8
BLACK
6
CONTINUOUS
10
5.79705
20
-3.64094
11
5.7874
21
-3.64173
0
LINE
8
BLACK
6
CONTINUOUS
10
5.7874
20
-3.64173
11
5.27559
21
-3.64173
0
LINE
8
BLACK
6
CONTINUOUS
10
5.27559
20
-3.64173
11
5.27415
21
-3.64171
0
LINE
8
BLACK
6
CONTINUOUS
10
5.27415
20
-3.64171
11
5.2721
21
-3.6415
0
LINE
8
BLACK
6
CONTINUOUS
10
5.2721
20
-3.6415
11
5.27003
21
-3.64147
0
LINE
8
BLACK
6
CONTINUOUS
10
5.27003
20
-3.64147
11
5.26729
21
-3.64098
0
LINE
8
BLACK
6
CONTINUOUS
10
5.26729
20
-3.64098
11
5.26452
21
-3.64069
0
LINE
8
BLACK
6
CONTINUOUS
10
5.26452
20
-3.64069
11
5.26254
21
-3.64013
0
LINE
8
BLACK
6
CONTINUOUS
10
5.26254
20
-3.64013
11
5.26051
21
-3.63977
0
LINE
8
BLACK
6
CONTINUOUS
10
5.26051
20
-3.63977
11
5.25788
21
-3.63884
0
LINE
8
BLACK
6
CONTINUOUS
10
5.25788
20
-3.63884
11
5.2552
21
-3.6381
0
LINE
8
BLACK
6
CONTINUOUS
10
5.2552
20
-3.6381
11
5.25333
21
-3.63723
0
LINE
8
BLACK
6
CONTINUOUS
10
5.25333
20
-3.63723
11
5.25138
21
-3.63654
0
LINE
8
BLACK
6
CONTINUOUS
10
5.25138
20
-3.63654
11
5.24895
21
-3.6352
0
LINE
8
BLACK
6
CONTINUOUS
10
5.24895
20
-3.6352
11
5.24642
21
-3.63403
0
LINE
8
BLACK
6
CONTINUOUS
10
5.24642
20
-3.63403
11
5.24472
21
-3.63286
0
LINE
8
BLACK
6
CONTINUOUS
10
5.24472
20
-3.63286
11
5.24291
21
-3.63187
0
LINE
8
BLACK
6
CONTINUOUS
10
5.24291
20
-3.63187
11
5.24073
21
-3.63014
0
LINE
8
BLACK
6
CONTINUOUS
10
5.24073
20
-3.63014
11
5.23843
21
-3.62857
0
LINE
8
BLACK
6
CONTINUOUS
10
5.23843
20
-3.62857
11
5.23693
21
-3.62715
0
LINE
8
BLACK
6
CONTINUOUS
10
5.23693
20
-3.62715
11
5.23532
21
-3.62587
0
LINE
8
BLACK
6
CONTINUOUS
10
5.23532
20
-3.62587
11
5.23344
21
-3.62381
0
LINE
8
BLACK
6
CONTINUOUS
10
5.23344
20
-3.62381
11
5.23143
21
-3.62189
0
LINE
8
BLACK
6
CONTINUOUS
10
5.23143
20
-3.62189
11
5.23019
21
-3.62024
0
LINE
8
BLACK
6
CONTINUOUS
10
5.23019
20
-3.62024
11
5.2288
21
-3.61871
0
LINE
8
BLACK
6
CONTINUOUS
10
5.2288
20
-3.61871
11
5.22729
21
-3.61637
0
LINE
8
BLACK
6
CONTINUOUS
10
5.22729
20
-3.61637
11
5.22562
21
-3.61415
0
LINE
8
BLACK
6
CONTINUOUS
10
5.22562
20
-3.61415
11
5.22467
21
-3.61232
0
LINE
8
BLACK
6
CONTINUOUS
10
5.22467
20
-3.61232
11
5.22355
21
-3.61058
0
LINE
8
BLACK
6
CONTINUOUS
10
5.22355
20
-3.61058
11
5.22244
21
-3.60803
0
LINE
8
BLACK
6
CONTINUOUS
10
5.22244
20
-3.60803
11
5.22115
21
-3.60556
0
LINE
8
BLACK
6
CONTINUOUS
10
5.22115
20
-3.60556
11
5.22051
21
-3.6036
0
LINE
8
BLACK
6
CONTINUOUS
10
5.22051
20
-3.6036
11
5.21969
21
-3.60171
0
LINE
8
BLACK
6
CONTINUOUS
10
5.21969
20
-3.60171
11
5.21901
21
-3.59901
0
LINE
8
BLACK
6
CONTINUOUS
10
5.21901
20
-3.59901
11
5.21814
21
-3.59636
0
LINE
8
BLACK
6
CONTINUOUS
10
5.21814
20
-3.59636
11
5.21783
21
-3.59432
0
LINE
8
BLACK
6
CONTINUOUS
10
5.21783
20
-3.59432
11
5.21733
21
-3.59232
0
LINE
8
BLACK
6
CONTINUOUS
10
5.21733
20
-3.59232
11
5.2171
21
-3.58955
0
LINE
8
BLACK
6
CONTINUOUS
10
5.2171
20
-3.58955
11
5.21668
21
-3.5868
0
LINE
8
BLACK
6
CONTINUOUS
10
5.21668
20
-3.5868
11
5.2167
21
-3.58473
0
LINE
8
BLACK
6
CONTINUOUS
10
5.2167
20
-3.58473
11
5.21654
21
-3.58268
0
LINE
8
BLACK
6
CONTINUOUS
10
5.21654
20
-3.58268
11
5.21654
21
-3.07087
0
LINE
8
BLACK
6
CONTINUOUS
10
5.21654
20
-3.07087
11
5.21655
21
-3.06942
0
LINE
8
BLACK
6
CONTINUOUS
10
5.21655
20
-3.06942
11
5.21758
21
-3.0598
0
LINE
8
BLACK
6
CONTINUOUS
10
5.21758
20
-3.0598
11
5.22017
21
-3.05047
0
LINE
8
BLACK
6
CONTINUOUS
10
5.22017
20
-3.05047
11
5.22424
21
-3.0417
0
LINE
8
BLACK
6
CONTINUOUS
10
5.22424
20
-3.0417
11
5.22859
21
-3.03532
0
LINE
8
BLACK
6
CONTINUOUS
10
5.22859
20
-3.03532
11
5.22861
21
-3.03381
0
LINE
8
BLACK
6
CONTINUOUS
10
5.22861
20
-3.03381
11
5.23031
21
-3.02428
0
LINE
8
BLACK
6
CONTINUOUS
10
5.23031
20
-3.02428
11
5.23354
21
-3.01516
0
LINE
8
BLACK
6
CONTINUOUS
10
5.23354
20
-3.01516
11
5.23821
21
-3.00669
0
LINE
8
BLACK
6
CONTINUOUS
10
5.23821
20
-3.00669
11
5.24421
21
-2.99909
0
LINE
8
BLACK
6
CONTINUOUS
10
5.24421
20
-2.99909
11
5.25137
21
-2.99258
0
LINE
8
BLACK
6
CONTINUOUS
10
5.25137
20
-2.99258
11
5.2595
21
-2.98732
0
LINE
8
BLACK
6
CONTINUOUS
10
5.2595
20
-2.98732
11
5.26837
21
-2.98347
0
LINE
8
BLACK
6
CONTINUOUS
10
5.26837
20
-2.98347
11
5.27776
21
-2.98111
0
LINE
8
BLACK
6
CONTINUOUS
10
5.27776
20
-2.98111
11
5.2874
21
-2.98031
0
LINE
8
BLACK
6
CONTINUOUS
10
5.2874
20
-2.98031
11
5.79921
21
-2.98031
0
LINE
8
BLACK
6
CONTINUOUS
10
5.79921
20
-2.98031
11
5.80066
21
-2.98033
0
LINE
8
BLACK
6
CONTINUOUS
10
5.33465
20
-3.09843
11
5.33465
21
-3.52362
0
LINE
8
BLACK
6
CONTINUOUS
10
5.33465
20
-3.52362
11
5.74016
21
-3.52362
0
LINE
8
BLACK
6
CONTINUOUS
10
5.74016
20
-3.52362
11
5.74016
21
-3.09843
0
LINE
8
BLACK
6
CONTINUOUS
10
5.74016
20
-3.09843
11
5.33465
21
-3.09843
  0
ENDSEC
  0
EOF
