  0
SECTION
  2
HEADER
  9
$ANGBASE
  50
0.0
  9
$ANGDIR
  70
1
  9
$MEASUREMENT
  70
0
  0
ENDSEC
  0
SECTION
  2
TABLES
  0
TABLE
  2
LTYPE
  70
4
  0
LTYPE
  5
40F
  2
CONTINUOUS
  70
0
  3
Solid line
  72
65
  73
0
  40
0.0
  0
LTYPE
  5
410
  2
DASHDOT
 70
0
  3
Dash Dot ____ _ ____ _
 72
65
 73
4
 40
2.0
 49
1.25
 49
-0.25
 49
0.25
 49
-0.25
  0
LTYPE
  5
411
  2
DASHED
 70
0
  3
Dashed __ __ __ __ __
 72
65
 73
2
 40
0.75
 49
0.5
 49
-0.25
  0
LTYPE
  5
43B
  2
DOTTED
 70
0
  3
Dotted .  .  .  .
 72
65
 73
2
 40
0.2
 49
0.0
 49
-0.2
  0
ENDTAB
  0
TABLE
  2
STYLE
  70
4
  0
STYLE
  2
KICAD
  70
0
  40
0
  41
1
  42
1
  50
0
  71
0
  3
isocp.shx
  0
STYLE
  2
KICADB
  70
0
  40
0
  41
1
  42
1
  50
0
  71
0
  3
isocp.shx
  0
STYLE
  2
KICADI
  70
0
  40
0
  41
1
  42
1
  50
15
  71
0
  3
isocp.shx
  0
STYLE
  2
KICADBI
  70
0
  40
0
  41
1
  42
1
  50
15
  71
0
  3
isocp.shx
  0
ENDTAB
  0
TABLE
  2
LAYER
  70
1
  0
LAYER
  2
BLACK
  70
0
  62
7
  6
CONTINUOUS
  0
ENDTAB
  0
ENDSEC
  0
SECTION
  2
ENTITIES
0
LINE
8
BLACK
6
CONTINUOUS
10
5.77189
20
-3.05906
11
5.77322
21
-3.05926
0
LINE
8
BLACK
6
CONTINUOUS
10
5.77322
20
-3.05926
11
5.77456
21
-3.05927
0
LINE
8
BLACK
6
CONTINUOUS
10
5.77456
20
-3.05927
11
5.77596
21
-3.05969
0
LINE
8
BLACK
6
CONTINUOUS
10
5.77596
20
-3.05969
11
5.77741
21
-3.05992
0
LINE
8
BLACK
6
CONTINUOUS
10
5.77741
20
-3.05992
11
5.77862
21
-3.06049
0
LINE
8
BLACK
6
CONTINUOUS
10
5.77862
20
-3.06049
11
5.77991
21
-3.06087
0
LINE
8
BLACK
6
CONTINUOUS
10
5.77991
20
-3.06087
11
5.78114
21
-3.06167
0
LINE
8
BLACK
6
CONTINUOUS
10
5.78114
20
-3.06167
11
5.78246
21
-3.06229
0
LINE
8
BLACK
6
CONTINUOUS
10
5.78246
20
-3.06229
11
5.78347
21
-3.06318
0
LINE
8
BLACK
6
CONTINUOUS
10
5.78347
20
-3.06318
11
5.78459
21
-3.06391
0
LINE
8
BLACK
6
CONTINUOUS
10
5.78459
20
-3.06391
11
5.78555
21
-3.06501
0
LINE
8
BLACK
6
CONTINUOUS
10
5.78555
20
-3.06501
11
5.78664
21
-3.06598
0
LINE
8
BLACK
6
CONTINUOUS
10
5.78664
20
-3.06598
11
5.78736
21
-3.06712
0
LINE
8
BLACK
6
CONTINUOUS
10
5.78736
20
-3.06712
11
5.78824
21
-3.06813
0
LINE
8
BLACK
6
CONTINUOUS
10
5.78824
20
-3.06813
11
5.78884
21
-3.06947
0
LINE
8
BLACK
6
CONTINUOUS
10
5.78884
20
-3.06947
11
5.78962
21
-3.0707
0
LINE
8
BLACK
6
CONTINUOUS
10
5.78962
20
-3.0707
11
5.78999
21
-3.07199
0
LINE
8
BLACK
6
CONTINUOUS
10
5.78999
20
-3.07199
11
5.79055
21
-3.07322
0
LINE
8
BLACK
6
CONTINUOUS
10
5.79055
20
-3.07322
11
5.79075
21
-3.07466
0
LINE
8
BLACK
6
CONTINUOUS
10
5.79075
20
-3.07466
11
5.79116
21
-3.07607
0
LINE
8
BLACK
6
CONTINUOUS
10
5.79116
20
-3.07607
11
5.79115
21
-3.07741
0
LINE
8
BLACK
6
CONTINUOUS
10
5.79115
20
-3.07741
11
5.79134
21
-3.07874
0
LINE
8
BLACK
6
CONTINUOUS
10
5.79134
20
-3.07874
11
5.79134
21
-3.5748
0
LINE
8
BLACK
6
CONTINUOUS
10
5.79134
20
-3.5748
11
5.79134
21
-3.57504
0
LINE
8
BLACK
6
CONTINUOUS
10
5.79134
20
-3.57504
11
5.79113
21
-3.57637
0
LINE
8
BLACK
6
CONTINUOUS
10
5.79113
20
-3.57637
11
5.79112
21
-3.57771
0
LINE
8
BLACK
6
CONTINUOUS
10
5.79112
20
-3.57771
11
5.7907
21
-3.57911
0
LINE
8
BLACK
6
CONTINUOUS
10
5.7907
20
-3.57911
11
5.79048
21
-3.58056
0
LINE
8
BLACK
6
CONTINUOUS
10
5.79048
20
-3.58056
11
5.78991
21
-3.58177
0
LINE
8
BLACK
6
CONTINUOUS
10
5.78991
20
-3.58177
11
5.78952
21
-3.58306
0
LINE
8
BLACK
6
CONTINUOUS
10
5.78952
20
-3.58306
11
5.78873
21
-3.58429
0
LINE
8
BLACK
6
CONTINUOUS
10
5.78873
20
-3.58429
11
5.78811
21
-3.58561
0
LINE
8
BLACK
6
CONTINUOUS
10
5.78811
20
-3.58561
11
5.78722
21
-3.58662
0
LINE
8
BLACK
6
CONTINUOUS
10
5.78722
20
-3.58662
11
5.78649
21
-3.58774
0
LINE
8
BLACK
6
CONTINUOUS
10
5.78649
20
-3.58774
11
5.78538
21
-3.5887
0
LINE
8
BLACK
6
CONTINUOUS
10
5.78538
20
-3.5887
11
5.78441
21
-3.58979
0
LINE
8
BLACK
6
CONTINUOUS
10
5.78441
20
-3.58979
11
5.78328
21
-3.59051
0
LINE
8
BLACK
6
CONTINUOUS
10
5.78328
20
-3.59051
11
5.78226
21
-3.59139
0
LINE
8
BLACK
6
CONTINUOUS
10
5.78226
20
-3.59139
11
5.78093
21
-3.59199
0
LINE
8
BLACK
6
CONTINUOUS
10
5.78093
20
-3.59199
11
5.77969
21
-3.59277
0
LINE
8
BLACK
6
CONTINUOUS
10
5.77969
20
-3.59277
11
5.7784
21
-3.59314
0
LINE
8
BLACK
6
CONTINUOUS
10
5.7784
20
-3.59314
11
5.77718
21
-3.5937
0
LINE
8
BLACK
6
CONTINUOUS
10
5.77718
20
-3.5937
11
5.77573
21
-3.5939
0
LINE
8
BLACK
6
CONTINUOUS
10
5.77573
20
-3.5939
11
5.77433
21
-3.59431
0
LINE
8
BLACK
6
CONTINUOUS
10
5.77433
20
-3.59431
11
5.77298
21
-3.5943
0
LINE
8
BLACK
6
CONTINUOUS
10
5.77298
20
-3.5943
11
5.77165
21
-3.59449
0
LINE
8
BLACK
6
CONTINUOUS
10
5.77165
20
-3.59449
11
5.29134
21
-3.59449
0
LINE
8
BLACK
6
CONTINUOUS
10
5.29134
20
-3.59449
11
5.2911
21
-3.59449
0
LINE
8
BLACK
6
CONTINUOUS
10
5.2911
20
-3.59449
11
5.28977
21
-3.59428
0
LINE
8
BLACK
6
CONTINUOUS
10
5.28977
20
-3.59428
11
5.28843
21
-3.59427
0
LINE
8
BLACK
6
CONTINUOUS
10
5.28843
20
-3.59427
11
5.28703
21
-3.59385
0
LINE
8
BLACK
6
CONTINUOUS
10
5.28703
20
-3.59385
11
5.28558
21
-3.59363
0
LINE
8
BLACK
6
CONTINUOUS
10
5.28558
20
-3.59363
11
5.28437
21
-3.59306
0
LINE
8
BLACK
6
CONTINUOUS
10
5.28437
20
-3.59306
11
5.28308
21
-3.59267
0
LINE
8
BLACK
6
CONTINUOUS
10
5.28308
20
-3.59267
11
5.28185
21
-3.59188
0
LINE
8
BLACK
6
CONTINUOUS
10
5.28185
20
-3.59188
11
5.28053
21
-3.59126
0
LINE
8
BLACK
6
CONTINUOUS
10
5.28053
20
-3.59126
11
5.27952
21
-3.59037
0
LINE
8
BLACK
6
CONTINUOUS
10
5.27952
20
-3.59037
11
5.2784
21
-3.58964
0
LINE
8
BLACK
6
CONTINUOUS
10
5.2784
20
-3.58964
11
5.27744
21
-3.58853
0
LINE
8
BLACK
6
CONTINUOUS
10
5.27744
20
-3.58853
11
5.27635
21
-3.58756
0
LINE
8
BLACK
6
CONTINUOUS
10
5.27635
20
-3.58756
11
5.27563
21
-3.58643
0
LINE
8
BLACK
6
CONTINUOUS
10
5.27563
20
-3.58643
11
5.27475
21
-3.58541
0
LINE
8
BLACK
6
CONTINUOUS
10
5.27475
20
-3.58541
11
5.27415
21
-3.58408
0
LINE
8
BLACK
6
CONTINUOUS
10
5.27415
20
-3.58408
11
5.27337
21
-3.58284
0
LINE
8
BLACK
6
CONTINUOUS
10
5.27337
20
-3.58284
11
5.273
21
-3.58155
0
LINE
8
BLACK
6
CONTINUOUS
10
5.273
20
-3.58155
11
5.27244
21
-3.58033
0
LINE
8
BLACK
6
CONTINUOUS
10
5.27244
20
-3.58033
11
5.27224
21
-3.57888
0
LINE
8
BLACK
6
CONTINUOUS
10
5.27224
20
-3.57888
11
5.27184
21
-3.57747
0
LINE
8
BLACK
6
CONTINUOUS
10
5.27184
20
-3.57747
11
5.27184
21
-3.57613
0
LINE
8
BLACK
6
CONTINUOUS
10
5.27184
20
-3.57613
11
5.27165
21
-3.5748
0
LINE
8
BLACK
6
CONTINUOUS
10
5.27165
20
-3.5748
11
5.27165
21
-3.07874
0
LINE
8
BLACK
6
CONTINUOUS
10
5.27165
20
-3.07874
11
5.27165
21
-3.0785
0
LINE
8
BLACK
6
CONTINUOUS
10
5.27165
20
-3.0785
11
5.27186
21
-3.07717
0
LINE
8
BLACK
6
CONTINUOUS
10
5.27186
20
-3.07717
11
5.27187
21
-3.07583
0
LINE
8
BLACK
6
CONTINUOUS
10
5.27187
20
-3.07583
11
5.27229
21
-3.07443
0
LINE
8
BLACK
6
CONTINUOUS
10
5.27229
20
-3.07443
11
5.27251
21
-3.07298
0
LINE
8
BLACK
6
CONTINUOUS
10
5.27251
20
-3.07298
11
5.27308
21
-3.07177
0
LINE
8
BLACK
6
CONTINUOUS
10
5.27308
20
-3.07177
11
5.27347
21
-3.07048
0
LINE
8
BLACK
6
CONTINUOUS
10
5.27347
20
-3.07048
11
5.27426
21
-3.06926
0
LINE
8
BLACK
6
CONTINUOUS
10
5.27426
20
-3.06926
11
5.27489
21
-3.06793
0
LINE
8
BLACK
6
CONTINUOUS
10
5.27489
20
-3.06793
11
5.27577
21
-3.06693
0
LINE
8
BLACK
6
CONTINUOUS
10
5.27577
20
-3.06693
11
5.2765
21
-3.0658
0
LINE
8
BLACK
6
CONTINUOUS
10
5.2765
20
-3.0658
11
5.27761
21
-3.06485
0
LINE
8
BLACK
6
CONTINUOUS
10
5.27761
20
-3.06485
11
5.27858
21
-3.06375
0
LINE
8
BLACK
6
CONTINUOUS
10
5.27858
20
-3.06375
11
5.27972
21
-3.06303
0
LINE
8
BLACK
6
CONTINUOUS
10
5.27972
20
-3.06303
11
5.28073
21
-3.06216
0
LINE
8
BLACK
6
CONTINUOUS
10
5.28073
20
-3.06216
11
5.28206
21
-3.06155
0
LINE
8
BLACK
6
CONTINUOUS
10
5.28206
20
-3.06155
11
5.2833
21
-3.06077
0
LINE
8
BLACK
6
CONTINUOUS
10
5.2833
20
-3.06077
11
5.28459
21
-3.0604
0
LINE
8
BLACK
6
CONTINUOUS
10
5.28459
20
-3.0604
11
5.28581
21
-3.05985
0
LINE
8
BLACK
6
CONTINUOUS
10
5.28581
20
-3.05985
11
5.28726
21
-3.05964
0
LINE
8
BLACK
6
CONTINUOUS
10
5.28726
20
-3.05964
11
5.28867
21
-3.05924
0
LINE
8
BLACK
6
CONTINUOUS
10
5.28867
20
-3.05924
11
5.29001
21
-3.05925
0
LINE
8
BLACK
6
CONTINUOUS
10
5.29001
20
-3.05925
11
5.29134
21
-3.05906
0
LINE
8
BLACK
6
CONTINUOUS
10
5.29134
20
-3.05906
11
5.77165
21
-3.05906
0
LINE
8
BLACK
6
CONTINUOUS
10
5.77165
20
-3.05906
11
5.77189
21
-3.05906
0
LINE
8
BLACK
6
CONTINUOUS
10
5.31102
20
-3.09843
11
5.31102
21
-3.55512
0
LINE
8
BLACK
6
CONTINUOUS
10
5.31102
20
-3.55512
11
5.75197
21
-3.55512
0
LINE
8
BLACK
6
CONTINUOUS
10
5.75197
20
-3.55512
11
5.75197
21
-3.09843
0
LINE
8
BLACK
6
CONTINUOUS
10
5.75197
20
-3.09843
11
5.31102
21
-3.09843
  0
ENDSEC
  0
EOF
