  0
SECTION
  2
HEADER
  9
$ANGBASE
  50
0.0
  9
$ANGDIR
  70
1
  9
$MEASUREMENT
  70
0
  0
ENDSEC
  0
SECTION
  2
TABLES
  0
TABLE
  2
LTYPE
  70
4
  0
LTYPE
  5
40F
  2
CONTINUOUS
  70
0
  3
Solid line
  72
65
  73
0
  40
0.0
  0
LTYPE
  5
410
  2
DASHDOT
 70
0
  3
Dash Dot ____ _ ____ _
 72
65
 73
4
 40
2.0
 49
1.25
 49
-0.25
 49
0.25
 49
-0.25
  0
LTYPE
  5
411
  2
DASHED
 70
0
  3
Dashed __ __ __ __ __
 72
65
 73
2
 40
0.75
 49
0.5
 49
-0.25
  0
LTYPE
  5
43B
  2
DOTTED
 70
0
  3
Dotted .  .  .  .
 72
65
 73
2
 40
0.2
 49
0.0
 49
-0.2
  0
ENDTAB
  0
TABLE
  2
STYLE
  70
4
  0
STYLE
  2
KICAD
  70
0
  40
0
  41
1
  42
1
  50
0
  71
0
  3
isocp.shx
  0
STYLE
  2
KICADB
  70
0
  40
0
  41
1
  42
1
  50
0
  71
0
  3
isocp.shx
  0
STYLE
  2
KICADI
  70
0
  40
0
  41
1
  42
1
  50
15
  71
0
  3
isocp.shx
  0
STYLE
  2
KICADBI
  70
0
  40
0
  41
1
  42
1
  50
15
  71
0
  3
isocp.shx
  0
ENDTAB
  0
TABLE
  2
LAYER
  70
1
  0
LAYER
  2
BLACK
  70
0
  62
7
  6
CONTINUOUS
  0
ENDTAB
  0
ENDSEC
  0
SECTION
  2
ENTITIES
0
LINE
8
BLACK
6
CONTINUOUS
10
0.239162
20
-0.865843
11
0.241324
21
-0.868005
0
LINE
8
BLACK
6
CONTINUOUS
10
0.241324
20
-0.868005
11
0.242115
21
-0.870958
0
LINE
8
BLACK
6
CONTINUOUS
10
0.242115
20
-0.870958
11
0.242115
21
-0.930013
0
LINE
8
BLACK
6
CONTINUOUS
10
0.242115
20
-0.930013
11
0.241324
21
-0.932966
0
LINE
8
BLACK
6
CONTINUOUS
10
0.241324
20
-0.932966
11
0.239162
21
-0.935127
0
LINE
8
BLACK
6
CONTINUOUS
10
0.239162
20
-0.935127
11
0.236209
21
-0.935918
0
LINE
8
BLACK
6
CONTINUOUS
10
0.236209
20
-0.935918
11
0.213712
21
-0.935918
0
LINE
8
BLACK
6
CONTINUOUS
10
0.213712
20
-0.935918
11
0.212401
21
-0.935567
0
LINE
8
BLACK
6
CONTINUOUS
10
0.212401
20
-0.935567
11
0.211071
21
-0.935295
0
LINE
8
BLACK
6
CONTINUOUS
10
0.211071
20
-0.935295
11
0.205447
21
-0.932483
0
LINE
8
BLACK
6
CONTINUOUS
10
0.205447
20
-0.932483
11
0.204735
21
-0.931852
0
LINE
8
BLACK
6
CONTINUOUS
10
0.204735
20
-0.931852
11
0.203912
21
-0.931377
0
LINE
8
BLACK
6
CONTINUOUS
10
0.203912
20
-0.931377
11
0.2011
21
-0.928564
0
LINE
8
BLACK
6
CONTINUOUS
10
0.2011
20
-0.928564
11
0.200624
21
-0.927741
0
LINE
8
BLACK
6
CONTINUOUS
10
0.200624
20
-0.927741
11
0.199994
21
-0.92703
0
LINE
8
BLACK
6
CONTINUOUS
10
0.199994
20
-0.92703
11
0.197181
21
-0.921405
0
LINE
8
BLACK
6
CONTINUOUS
10
0.197181
20
-0.921405
11
0.196909
21
-0.920075
0
LINE
8
BLACK
6
CONTINUOUS
10
0.196909
20
-0.920075
11
0.196558
21
-0.918764
0
LINE
8
BLACK
6
CONTINUOUS
10
0.196558
20
-0.918764
11
0.196558
21
-0.910328
0
LINE
8
BLACK
6
CONTINUOUS
10
0.196558
20
-0.910328
11
0.196909
21
-0.909017
0
LINE
8
BLACK
6
CONTINUOUS
10
0.196909
20
-0.909017
11
0.197181
21
-0.907687
0
LINE
8
BLACK
6
CONTINUOUS
10
0.197181
20
-0.907687
11
0.199994
21
-0.902063
0
LINE
8
BLACK
6
CONTINUOUS
10
0.199994
20
-0.902063
11
0.200624
21
-0.901351
0
LINE
8
BLACK
6
CONTINUOUS
10
0.200624
20
-0.901351
11
0.2011
21
-0.900528
0
LINE
8
BLACK
6
CONTINUOUS
10
0.2011
20
-0.900528
11
0.203912
21
-0.897716
0
LINE
8
BLACK
6
CONTINUOUS
10
0.203912
20
-0.897716
11
0.203966
21
-0.897685
0
LINE
8
BLACK
6
CONTINUOUS
10
0.203966
20
-0.897685
11
0.203912
21
-0.897631
0
LINE
8
BLACK
6
CONTINUOUS
10
0.203912
20
-0.897631
11
0.203436
21
-0.896807
0
LINE
8
BLACK
6
CONTINUOUS
10
0.203436
20
-0.896807
11
0.202806
21
-0.896096
0
LINE
8
BLACK
6
CONTINUOUS
10
0.202806
20
-0.896096
11
0.199994
21
-0.890472
0
LINE
8
BLACK
6
CONTINUOUS
10
0.199994
20
-0.890472
11
0.199721
21
-0.889142
0
LINE
8
BLACK
6
CONTINUOUS
10
0.199721
20
-0.889142
11
0.19937
21
-0.887831
0
LINE
8
BLACK
6
CONTINUOUS
10
0.19937
20
-0.887831
11
0.19937
21
-0.882206
0
LINE
8
BLACK
6
CONTINUOUS
10
0.19937
20
-0.882206
11
0.199721
21
-0.880895
0
LINE
8
BLACK
6
CONTINUOUS
10
0.199721
20
-0.880895
11
0.199994
21
-0.879565
0
LINE
8
BLACK
6
CONTINUOUS
10
0.199994
20
-0.879565
11
0.202806
21
-0.873941
0
LINE
8
BLACK
6
CONTINUOUS
10
0.202806
20
-0.873941
11
0.203436
21
-0.87323
0
LINE
8
BLACK
6
CONTINUOUS
10
0.203436
20
-0.87323
11
0.203912
21
-0.872406
0
LINE
8
BLACK
6
CONTINUOUS
10
0.203912
20
-0.872406
11
0.206724
21
-0.869594
0
LINE
8
BLACK
6
CONTINUOUS
10
0.206724
20
-0.869594
11
0.207547
21
-0.869119
0
LINE
8
BLACK
6
CONTINUOUS
10
0.207547
20
-0.869119
11
0.208259
21
-0.868488
0
LINE
8
BLACK
6
CONTINUOUS
10
0.208259
20
-0.868488
11
0.213883
21
-0.865676
0
LINE
8
BLACK
6
CONTINUOUS
10
0.213883
20
-0.865676
11
0.215213
21
-0.865404
0
LINE
8
BLACK
6
CONTINUOUS
10
0.215213
20
-0.865404
11
0.216524
21
-0.865052
0
LINE
8
BLACK
6
CONTINUOUS
10
0.216524
20
-0.865052
11
0.236209
21
-0.865052
0
LINE
8
BLACK
6
CONTINUOUS
10
0.236209
20
-0.865052
11
0.239162
21
-0.865843
0
LINE
8
BLACK
6
CONTINUOUS
10
0.211278
20
-0.907053
11
0.210129
21
-0.908202
0
LINE
8
BLACK
6
CONTINUOUS
10
0.210129
20
-0.908202
11
0.208369
21
-0.911722
0
LINE
8
BLACK
6
CONTINUOUS
10
0.208369
20
-0.911722
11
0.208369
21
-0.91737
0
LINE
8
BLACK
6
CONTINUOUS
10
0.208369
20
-0.91737
11
0.210129
21
-0.92089
0
LINE
8
BLACK
6
CONTINUOUS
10
0.210129
20
-0.92089
11
0.211586
21
-0.922347
0
LINE
8
BLACK
6
CONTINUOUS
10
0.211586
20
-0.922347
11
0.215106
21
-0.924107
0
LINE
8
BLACK
6
CONTINUOUS
10
0.215106
20
-0.924107
11
0.230304
21
-0.924107
0
LINE
8
BLACK
6
CONTINUOUS
10
0.230304
20
-0.924107
11
0.230304
21
-0.904985
0
LINE
8
BLACK
6
CONTINUOUS
10
0.230304
20
-0.904985
11
0.217483
21
-0.904985
0
LINE
8
BLACK
6
CONTINUOUS
10
0.217483
20
-0.904985
11
0.211278
21
-0.907053
0
LINE
8
BLACK
6
CONTINUOUS
10
0.214398
20
-0.878623
11
0.212941
21
-0.88008
0
LINE
8
BLACK
6
CONTINUOUS
10
0.212941
20
-0.88008
11
0.211181
21
-0.8836
0
LINE
8
BLACK
6
CONTINUOUS
10
0.211181
20
-0.8836
11
0.211181
21
-0.886437
0
LINE
8
BLACK
6
CONTINUOUS
10
0.211181
20
-0.886437
11
0.212941
21
-0.889957
0
LINE
8
BLACK
6
CONTINUOUS
10
0.212941
20
-0.889957
11
0.214398
21
-0.891414
0
LINE
8
BLACK
6
CONTINUOUS
10
0.214398
20
-0.891414
11
0.217918
21
-0.893174
0
LINE
8
BLACK
6
CONTINUOUS
10
0.217918
20
-0.893174
11
0.230304
21
-0.893174
0
LINE
8
BLACK
6
CONTINUOUS
10
0.230304
20
-0.893174
11
0.230304
21
-0.876863
0
LINE
8
BLACK
6
CONTINUOUS
10
0.230304
20
-0.876863
11
0.217918
21
-0.876863
0
LINE
8
BLACK
6
CONTINUOUS
10
0.217918
20
-0.876863
11
0.214398
21
-0.878623
0
LINE
8
BLACK
6
CONTINUOUS
10
0.337587
20
-0.865843
11
0.339749
21
-0.868005
0
LINE
8
BLACK
6
CONTINUOUS
10
0.339749
20
-0.868005
11
0.34054
21
-0.870958
0
LINE
8
BLACK
6
CONTINUOUS
10
0.34054
20
-0.870958
11
0.34054
21
-0.930013
0
LINE
8
BLACK
6
CONTINUOUS
10
0.34054
20
-0.930013
11
0.339749
21
-0.932966
0
LINE
8
BLACK
6
CONTINUOUS
10
0.339749
20
-0.932966
11
0.337587
21
-0.935127
0
LINE
8
BLACK
6
CONTINUOUS
10
0.337587
20
-0.935127
11
0.334634
21
-0.935918
0
LINE
8
BLACK
6
CONTINUOUS
10
0.334634
20
-0.935918
11
0.306513
21
-0.935918
0
LINE
8
BLACK
6
CONTINUOUS
10
0.306513
20
-0.935918
11
0.30356
21
-0.935127
0
LINE
8
BLACK
6
CONTINUOUS
10
0.30356
20
-0.935127
11
0.301399
21
-0.932966
0
LINE
8
BLACK
6
CONTINUOUS
10
0.301399
20
-0.932966
11
0.300968
21
-0.93136
0
LINE
8
BLACK
6
CONTINUOUS
10
0.300968
20
-0.93136
11
0.299683
21
-0.933931
0
LINE
8
BLACK
6
CONTINUOUS
10
0.299683
20
-0.933931
11
0.297132
21
-0.935615
0
LINE
8
BLACK
6
CONTINUOUS
10
0.297132
20
-0.935615
11
0.29408
21
-0.935799
0
LINE
8
BLACK
6
CONTINUOUS
10
0.29408
20
-0.935799
11
0.291346
21
-0.934431
0
LINE
8
BLACK
6
CONTINUOUS
10
0.291346
20
-0.934431
11
0.289662
21
-0.93188
0
LINE
8
BLACK
6
CONTINUOUS
10
0.289662
20
-0.93188
11
0.285384
21
-0.919046
0
LINE
8
BLACK
6
CONTINUOUS
10
0.285384
20
-0.919046
11
0.265775
21
-0.919046
0
LINE
8
BLACK
6
CONTINUOUS
10
0.265775
20
-0.919046
11
0.261497
21
-0.93188
0
LINE
8
BLACK
6
CONTINUOUS
10
0.261497
20
-0.93188
11
0.259812
21
-0.934431
0
LINE
8
BLACK
6
CONTINUOUS
10
0.259812
20
-0.934431
11
0.257078
21
-0.935799
0
LINE
8
BLACK
6
CONTINUOUS
10
0.257078
20
-0.935799
11
0.254027
21
-0.935615
0
LINE
8
BLACK
6
CONTINUOUS
10
0.254027
20
-0.935615
11
0.251476
21
-0.933931
0
LINE
8
BLACK
6
CONTINUOUS
10
0.251476
20
-0.933931
11
0.250109
21
-0.931197
0
LINE
8
BLACK
6
CONTINUOUS
10
0.250109
20
-0.931197
11
0.250292
21
-0.928145
0
LINE
8
BLACK
6
CONTINUOUS
10
0.250292
20
-0.928145
11
0.269977
21
-0.86909
0
LINE
8
BLACK
6
CONTINUOUS
10
0.269977
20
-0.86909
11
0.27063
21
-0.868101
0
LINE
8
BLACK
6
CONTINUOUS
10
0.27063
20
-0.868101
11
0.271161
21
-0.86704
0
LINE
8
BLACK
6
CONTINUOUS
10
0.271161
20
-0.86704
11
0.271462
21
-0.866841
0
LINE
8
BLACK
6
CONTINUOUS
10
0.271462
20
-0.866841
11
0.271661
21
-0.866539
0
LINE
8
BLACK
6
CONTINUOUS
10
0.271661
20
-0.866539
11
0.272722
21
-0.866009
0
LINE
8
BLACK
6
CONTINUOUS
10
0.272722
20
-0.866009
11
0.273712
21
-0.865355
0
LINE
8
BLACK
6
CONTINUOUS
10
0.273712
20
-0.865355
11
0.274072
21
-0.865334
0
LINE
8
BLACK
6
CONTINUOUS
10
0.274072
20
-0.865334
11
0.274395
21
-0.865172
0
LINE
8
BLACK
6
CONTINUOUS
10
0.274395
20
-0.865172
11
0.275579
21
-0.865243
0
LINE
8
BLACK
6
CONTINUOUS
10
0.275579
20
-0.865243
11
0.276763
21
-0.865172
0
LINE
8
BLACK
6
CONTINUOUS
10
0.276763
20
-0.865172
11
0.277086
21
-0.865334
0
LINE
8
BLACK
6
CONTINUOUS
10
0.277086
20
-0.865334
11
0.277447
21
-0.865355
0
LINE
8
BLACK
6
CONTINUOUS
10
0.277447
20
-0.865355
11
0.278437
21
-0.866009
0
LINE
8
BLACK
6
CONTINUOUS
10
0.278437
20
-0.866009
11
0.279497
21
-0.866539
0
LINE
8
BLACK
6
CONTINUOUS
10
0.279497
20
-0.866539
11
0.279696
21
-0.866841
0
LINE
8
BLACK
6
CONTINUOUS
10
0.279696
20
-0.866841
11
0.279998
21
-0.86704
0
LINE
8
BLACK
6
CONTINUOUS
10
0.279998
20
-0.86704
11
0.280528
21
-0.868101
0
LINE
8
BLACK
6
CONTINUOUS
10
0.280528
20
-0.868101
11
0.281182
21
-0.86909
0
LINE
8
BLACK
6
CONTINUOUS
10
0.281182
20
-0.86909
11
0.300867
21
-0.928145
0
LINE
8
BLACK
6
CONTINUOUS
10
0.300867
20
-0.928145
11
0.300911
21
-0.92888
0
LINE
8
BLACK
6
CONTINUOUS
10
0.300911
20
-0.92888
11
0.301399
21
-0.92706
0
LINE
8
BLACK
6
CONTINUOUS
10
0.301399
20
-0.92706
11
0.30356
21
-0.924899
0
LINE
8
BLACK
6
CONTINUOUS
10
0.30356
20
-0.924899
11
0.306513
21
-0.924107
0
LINE
8
BLACK
6
CONTINUOUS
10
0.306513
20
-0.924107
11
0.328729
21
-0.924107
0
LINE
8
BLACK
6
CONTINUOUS
10
0.328729
20
-0.924107
11
0.328729
21
-0.870958
0
LINE
8
BLACK
6
CONTINUOUS
10
0.328729
20
-0.870958
11
0.32952
21
-0.868005
0
LINE
8
BLACK
6
CONTINUOUS
10
0.32952
20
-0.868005
11
0.331682
21
-0.865843
0
LINE
8
BLACK
6
CONTINUOUS
10
0.331682
20
-0.865843
11
0.334634
21
-0.865052
0
LINE
8
BLACK
6
CONTINUOUS
10
0.334634
20
-0.865052
11
0.337587
21
-0.865843
0
LINE
8
BLACK
6
CONTINUOUS
10
0.269712
20
-0.907235
11
0.281447
21
-0.907235
0
LINE
8
BLACK
6
CONTINUOUS
10
0.281447
20
-0.907235
11
0.275579
21
-0.889633
0
LINE
8
BLACK
6
CONTINUOUS
10
0.275579
20
-0.889633
11
0.269712
21
-0.907235
0
LINE
8
BLACK
6
CONTINUOUS
10
0.403362
20
-0.865384
11
0.404623
21
-0.865606
0
LINE
8
BLACK
6
CONTINUOUS
10
0.404623
20
-0.865606
11
0.404825
21
-0.865775
0
LINE
8
BLACK
6
CONTINUOUS
10
0.404825
20
-0.865775
11
0.405079
21
-0.865843
0
LINE
8
BLACK
6
CONTINUOUS
10
0.405079
20
-0.865843
11
0.405984
21
-0.866749
0
LINE
8
BLACK
6
CONTINUOUS
10
0.405984
20
-0.866749
11
0.406964
21
-0.867572
0
LINE
8
BLACK
6
CONTINUOUS
10
0.406964
20
-0.867572
11
0.407054
21
-0.867819
0
LINE
8
BLACK
6
CONTINUOUS
10
0.407054
20
-0.867819
11
0.40724
21
-0.868005
0
LINE
8
BLACK
6
CONTINUOUS
10
0.40724
20
-0.868005
11
0.407572
21
-0.869242
0
LINE
8
BLACK
6
CONTINUOUS
10
0.407572
20
-0.869242
11
0.408009
21
-0.870445
0
LINE
8
BLACK
6
CONTINUOUS
10
0.408009
20
-0.870445
11
0.407963
21
-0.870704
0
LINE
8
BLACK
6
CONTINUOUS
10
0.407963
20
-0.870704
11
0.408031
21
-0.870958
0
LINE
8
BLACK
6
CONTINUOUS
10
0.408031
20
-0.870958
11
0.408031
21
-0.930013
0
LINE
8
BLACK
6
CONTINUOUS
10
0.408031
20
-0.930013
11
0.40724
21
-0.932966
0
LINE
8
BLACK
6
CONTINUOUS
10
0.40724
20
-0.932966
11
0.405079
21
-0.935127
0
LINE
8
BLACK
6
CONTINUOUS
10
0.405079
20
-0.935127
11
0.402126
21
-0.935918
0
LINE
8
BLACK
6
CONTINUOUS
10
0.402126
20
-0.935918
11
0.399173
21
-0.935127
0
LINE
8
BLACK
6
CONTINUOUS
10
0.399173
20
-0.935127
11
0.397012
21
-0.932966
0
LINE
8
BLACK
6
CONTINUOUS
10
0.397012
20
-0.932966
11
0.39622
21
-0.930013
0
LINE
8
BLACK
6
CONTINUOUS
10
0.39622
20
-0.930013
11
0.39622
21
-0.897577
0
LINE
8
BLACK
6
CONTINUOUS
10
0.39622
20
-0.897577
11
0.387792
21
-0.915637
0
LINE
8
BLACK
6
CONTINUOUS
10
0.387792
20
-0.915637
11
0.387457
21
-0.916036
0
LINE
8
BLACK
6
CONTINUOUS
10
0.387457
20
-0.916036
11
0.387279
21
-0.916526
0
LINE
8
BLACK
6
CONTINUOUS
10
0.387279
20
-0.916526
11
0.38649
21
-0.917189
0
LINE
8
BLACK
6
CONTINUOUS
10
0.38649
20
-0.917189
11
0.385827
21
-0.917979
0
LINE
8
BLACK
6
CONTINUOUS
10
0.385827
20
-0.917979
11
0.385337
21
-0.918156
0
LINE
8
BLACK
6
CONTINUOUS
10
0.385337
20
-0.918156
11
0.384938
21
-0.918492
0
LINE
8
BLACK
6
CONTINUOUS
10
0.384938
20
-0.918492
11
0.383923
21
-0.918671
0
LINE
8
BLACK
6
CONTINUOUS
10
0.383923
20
-0.918671
11
0.382954
21
-0.919023
0
LINE
8
BLACK
6
CONTINUOUS
10
0.382954
20
-0.919023
11
0.382441
21
-0.918933
0
LINE
8
BLACK
6
CONTINUOUS
10
0.382441
20
-0.918933
11
0.381928
21
-0.919023
0
LINE
8
BLACK
6
CONTINUOUS
10
0.381928
20
-0.919023
11
0.380959
21
-0.918671
0
LINE
8
BLACK
6
CONTINUOUS
10
0.380959
20
-0.918671
11
0.379944
21
-0.918491
0
LINE
8
BLACK
6
CONTINUOUS
10
0.379944
20
-0.918491
11
0.379545
21
-0.918157
0
LINE
8
BLACK
6
CONTINUOUS
10
0.379545
20
-0.918157
11
0.379055
21
-0.917979
0
LINE
8
BLACK
6
CONTINUOUS
10
0.379055
20
-0.917979
11
0.378392
21
-0.917189
0
LINE
8
BLACK
6
CONTINUOUS
10
0.378392
20
-0.917189
11
0.377602
21
-0.916526
0
LINE
8
BLACK
6
CONTINUOUS
10
0.377602
20
-0.916526
11
0.377424
21
-0.916036
0
LINE
8
BLACK
6
CONTINUOUS
10
0.377424
20
-0.916036
11
0.377089
21
-0.915637
0
LINE
8
BLACK
6
CONTINUOUS
10
0.377089
20
-0.915637
11
0.368661
21
-0.897577
0
LINE
8
BLACK
6
CONTINUOUS
10
0.368661
20
-0.897577
11
0.368661
21
-0.930013
0
LINE
8
BLACK
6
CONTINUOUS
10
0.368661
20
-0.930013
11
0.36787
21
-0.932966
0
LINE
8
BLACK
6
CONTINUOUS
10
0.36787
20
-0.932966
11
0.365709
21
-0.935127
0
LINE
8
BLACK
6
CONTINUOUS
10
0.365709
20
-0.935127
11
0.362756
21
-0.935918
0
LINE
8
BLACK
6
CONTINUOUS
10
0.362756
20
-0.935918
11
0.359803
21
-0.935127
0
LINE
8
BLACK
6
CONTINUOUS
10
0.359803
20
-0.935127
11
0.357642
21
-0.932966
0
LINE
8
BLACK
6
CONTINUOUS
10
0.357642
20
-0.932966
11
0.35685
21
-0.930013
0
LINE
8
BLACK
6
CONTINUOUS
10
0.35685
20
-0.930013
11
0.35685
21
-0.870958
0
LINE
8
BLACK
6
CONTINUOUS
10
0.35685
20
-0.870958
11
0.356918
21
-0.870704
0
LINE
8
BLACK
6
CONTINUOUS
10
0.356918
20
-0.870704
11
0.356873
21
-0.870445
0
LINE
8
BLACK
6
CONTINUOUS
10
0.356873
20
-0.870445
11
0.35731
21
-0.869242
0
LINE
8
BLACK
6
CONTINUOUS
10
0.35731
20
-0.869242
11
0.357642
21
-0.868005
0
LINE
8
BLACK
6
CONTINUOUS
10
0.357642
20
-0.868005
11
0.357828
21
-0.867819
0
LINE
8
BLACK
6
CONTINUOUS
10
0.357828
20
-0.867819
11
0.357917
21
-0.867572
0
LINE
8
BLACK
6
CONTINUOUS
10
0.357917
20
-0.867572
11
0.358898
21
-0.866749
0
LINE
8
BLACK
6
CONTINUOUS
10
0.358898
20
-0.866749
11
0.359803
21
-0.865843
0
LINE
8
BLACK
6
CONTINUOUS
10
0.359803
20
-0.865843
11
0.360057
21
-0.865775
0
LINE
8
BLACK
6
CONTINUOUS
10
0.360057
20
-0.865775
11
0.360259
21
-0.865606
0
LINE
8
BLACK
6
CONTINUOUS
10
0.360259
20
-0.865606
11
0.361519
21
-0.865384
0
LINE
8
BLACK
6
CONTINUOUS
10
0.361519
20
-0.865384
11
0.362756
21
-0.865052
0
LINE
8
BLACK
6
CONTINUOUS
10
0.362756
20
-0.865052
11
0.36301
21
-0.86512
0
LINE
8
BLACK
6
CONTINUOUS
10
0.36301
20
-0.86512
11
0.363269
21
-0.865075
0
LINE
8
BLACK
6
CONTINUOUS
10
0.363269
20
-0.865075
11
0.364472
21
-0.865512
0
LINE
8
BLACK
6
CONTINUOUS
10
0.364472
20
-0.865512
11
0.365709
21
-0.865843
0
LINE
8
BLACK
6
CONTINUOUS
10
0.365709
20
-0.865843
11
0.365895
21
-0.866029
0
LINE
8
BLACK
6
CONTINUOUS
10
0.365895
20
-0.866029
11
0.366142
21
-0.866119
0
LINE
8
BLACK
6
CONTINUOUS
10
0.366142
20
-0.866119
11
0.366965
21
-0.8671
0
LINE
8
BLACK
6
CONTINUOUS
10
0.366965
20
-0.8671
11
0.36787
21
-0.868005
0
LINE
8
BLACK
6
CONTINUOUS
10
0.36787
20
-0.868005
11
0.367938
21
-0.868259
0
LINE
8
BLACK
6
CONTINUOUS
10
0.367938
20
-0.868259
11
0.368107
21
-0.86846
0
LINE
8
BLACK
6
CONTINUOUS
10
0.368107
20
-0.86846
11
0.382441
21
-0.899175
0
LINE
8
BLACK
6
CONTINUOUS
10
0.382441
20
-0.899175
11
0.396775
21
-0.86846
0
LINE
8
BLACK
6
CONTINUOUS
10
0.396775
20
-0.86846
11
0.396944
21
-0.868259
0
LINE
8
BLACK
6
CONTINUOUS
10
0.396944
20
-0.868259
11
0.397012
21
-0.868005
0
LINE
8
BLACK
6
CONTINUOUS
10
0.397012
20
-0.868005
11
0.397917
21
-0.8671
0
LINE
8
BLACK
6
CONTINUOUS
10
0.397917
20
-0.8671
11
0.39874
21
-0.866119
0
LINE
8
BLACK
6
CONTINUOUS
10
0.39874
20
-0.866119
11
0.398987
21
-0.866029
0
LINE
8
BLACK
6
CONTINUOUS
10
0.398987
20
-0.866029
11
0.399173
21
-0.865843
0
LINE
8
BLACK
6
CONTINUOUS
10
0.399173
20
-0.865843
11
0.40041
21
-0.865512
0
LINE
8
BLACK
6
CONTINUOUS
10
0.40041
20
-0.865512
11
0.401613
21
-0.865075
0
LINE
8
BLACK
6
CONTINUOUS
10
0.401613
20
-0.865075
11
0.401872
21
-0.86512
0
LINE
8
BLACK
6
CONTINUOUS
10
0.401872
20
-0.86512
11
0.402126
21
-0.865052
0
LINE
8
BLACK
6
CONTINUOUS
10
0.402126
20
-0.865052
11
0.403362
21
-0.865384
0
LINE
8
BLACK
6
CONTINUOUS
10
0.0205096
20
-0.683684
11
0.0338744
21
-0.686852
0
LINE
8
BLACK
6
CONTINUOUS
10
0.0338744
20
-0.686852
11
0.0467811
21
-0.691549
0
LINE
8
BLACK
6
CONTINUOUS
10
0.0467811
20
-0.691549
11
0.0590551
21
-0.697714
0
LINE
8
BLACK
6
CONTINUOUS
10
0.0590551
20
-0.697714
11
0.0705306
21
-0.705261
0
LINE
8
BLACK
6
CONTINUOUS
10
0.0705306
20
-0.705261
11
0.0810522
21
-0.71409
0
LINE
8
BLACK
6
CONTINUOUS
10
0.0810522
20
-0.71409
11
0.0904777
21
-0.72408
0
LINE
8
BLACK
6
CONTINUOUS
10
0.0904777
20
-0.72408
11
0.0986796
21
-0.735097
0
LINE
8
BLACK
6
CONTINUOUS
10
0.0986796
20
-0.735097
11
0.105547
21
-0.746992
0
LINE
8
BLACK
6
CONTINUOUS
10
0.105547
20
-0.746992
11
0.110987
21
-0.759604
0
LINE
8
BLACK
6
CONTINUOUS
10
0.110987
20
-0.759604
11
0.114927
21
-0.772762
0
LINE
8
BLACK
6
CONTINUOUS
10
0.114927
20
-0.772762
11
0.117312
21
-0.786288
0
LINE
8
BLACK
6
CONTINUOUS
10
0.117312
20
-0.786288
11
0.11811
21
-0.8
0
LINE
8
BLACK
6
CONTINUOUS
10
0.11811
20
-0.8
11
0.117312
21
-0.813712
0
LINE
8
BLACK
6
CONTINUOUS
10
0.117312
20
-0.813712
11
0.114927
21
-0.827238
0
LINE
8
BLACK
6
CONTINUOUS
10
0.114927
20
-0.827238
11
0.110987
21
-0.840396
0
LINE
8
BLACK
6
CONTINUOUS
10
0.110987
20
-0.840396
11
0.105547
21
-0.853008
0
LINE
8
BLACK
6
CONTINUOUS
10
0.105547
20
-0.853008
11
0.0986796
21
-0.864903
0
LINE
8
BLACK
6
CONTINUOUS
10
0.0986796
20
-0.864903
11
0.0904777
21
-0.87592
0
LINE
8
BLACK
6
CONTINUOUS
10
0.0904777
20
-0.87592
11
0.0810522
21
-0.88591
0
LINE
8
BLACK
6
CONTINUOUS
10
0.0810522
20
-0.88591
11
0.0705306
21
-0.894739
0
LINE
8
BLACK
6
CONTINUOUS
10
0.0705306
20
-0.894739
11
0.0590551
21
-0.902286
0
LINE
8
BLACK
6
CONTINUOUS
10
0.0590551
20
-0.902286
11
0.0467811
21
-0.908451
0
LINE
8
BLACK
6
CONTINUOUS
10
0.0467811
20
-0.908451
11
0.0338744
21
-0.913148
0
LINE
8
BLACK
6
CONTINUOUS
10
0.0338744
20
-0.913148
11
0.0205096
21
-0.916316
0
LINE
8
BLACK
6
CONTINUOUS
10
0.0205096
20
-0.916316
11
0.00686748
21
-0.91791
0
LINE
8
BLACK
6
CONTINUOUS
10
0.00686748
20
-0.91791
11
-0.00686748
21
-0.91791
0
LINE
8
BLACK
6
CONTINUOUS
10
-0.00686748
20
-0.91791
11
-0.0205096
21
-0.916316
0
LINE
8
BLACK
6
CONTINUOUS
10
-0.0205096
20
-0.916316
11
-0.0338744
21
-0.913148
0
LINE
8
BLACK
6
CONTINUOUS
10
-0.0338744
20
-0.913148
11
-0.0467811
21
-0.908451
0
LINE
8
BLACK
6
CONTINUOUS
10
-0.0467811
20
-0.908451
11
-0.0590551
21
-0.902286
0
LINE
8
BLACK
6
CONTINUOUS
10
-0.0590551
20
-0.902286
11
-0.0705306
21
-0.894739
0
LINE
8
BLACK
6
CONTINUOUS
10
-0.0705306
20
-0.894739
11
-0.0810522
21
-0.88591
0
LINE
8
BLACK
6
CONTINUOUS
10
-0.0810522
20
-0.88591
11
-0.0904777
21
-0.87592
0
LINE
8
BLACK
6
CONTINUOUS
10
-0.0904777
20
-0.87592
11
-0.0986796
21
-0.864903
0
LINE
8
BLACK
6
CONTINUOUS
10
-0.0986796
20
-0.864903
11
-0.105547
21
-0.853008
0
LINE
8
BLACK
6
CONTINUOUS
10
-0.105547
20
-0.853008
11
-0.110987
21
-0.840396
0
LINE
8
BLACK
6
CONTINUOUS
10
-0.110987
20
-0.840396
11
-0.114927
21
-0.827238
0
LINE
8
BLACK
6
CONTINUOUS
10
-0.114927
20
-0.827238
11
-0.117312
21
-0.813712
0
LINE
8
BLACK
6
CONTINUOUS
10
-0.117312
20
-0.813712
11
-0.11811
21
-0.8
0
LINE
8
BLACK
6
CONTINUOUS
10
-0.11811
20
-0.8
11
-0.117312
21
-0.786288
0
LINE
8
BLACK
6
CONTINUOUS
10
-0.117312
20
-0.786288
11
-0.114927
21
-0.772762
0
LINE
8
BLACK
6
CONTINUOUS
10
-0.114927
20
-0.772762
11
-0.110987
21
-0.759604
0
LINE
8
BLACK
6
CONTINUOUS
10
-0.110987
20
-0.759604
11
-0.105547
21
-0.746992
0
LINE
8
BLACK
6
CONTINUOUS
10
-0.105547
20
-0.746992
11
-0.0986796
21
-0.735097
0
LINE
8
BLACK
6
CONTINUOUS
10
-0.0986796
20
-0.735097
11
-0.0904777
21
-0.72408
0
LINE
8
BLACK
6
CONTINUOUS
10
-0.0904777
20
-0.72408
11
-0.0810522
21
-0.71409
0
LINE
8
BLACK
6
CONTINUOUS
10
-0.0810522
20
-0.71409
11
-0.0705306
21
-0.705261
0
LINE
8
BLACK
6
CONTINUOUS
10
-0.0705306
20
-0.705261
11
-0.0590551
21
-0.697714
0
LINE
8
BLACK
6
CONTINUOUS
10
-0.0590551
20
-0.697714
11
-0.0467811
21
-0.691549
0
LINE
8
BLACK
6
CONTINUOUS
10
-0.0467811
20
-0.691549
11
-0.0338744
21
-0.686852
0
LINE
8
BLACK
6
CONTINUOUS
10
-0.0338744
20
-0.686852
11
-0.0205096
21
-0.683684
0
LINE
8
BLACK
6
CONTINUOUS
10
-0.0205096
20
-0.683684
11
-0.00686748
21
-0.68209
0
LINE
8
BLACK
6
CONTINUOUS
10
-0.00686748
20
-0.68209
11
0.00686748
21
-0.68209
0
LINE
8
BLACK
6
CONTINUOUS
10
0.00686748
20
-0.68209
11
0.0205096
21
-0.683684
0
LINE
8
BLACK
6
CONTINUOUS
10
1.62051
20
-0.683684
11
1.63387
21
-0.686852
0
LINE
8
BLACK
6
CONTINUOUS
10
1.63387
20
-0.686852
11
1.64678
21
-0.691549
0
LINE
8
BLACK
6
CONTINUOUS
10
1.64678
20
-0.691549
11
1.65906
21
-0.697714
0
LINE
8
BLACK
6
CONTINUOUS
10
1.65906
20
-0.697714
11
1.67053
21
-0.705261
0
LINE
8
BLACK
6
CONTINUOUS
10
1.67053
20
-0.705261
11
1.68105
21
-0.71409
0
LINE
8
BLACK
6
CONTINUOUS
10
1.68105
20
-0.71409
11
1.69048
21
-0.72408
0
LINE
8
BLACK
6
CONTINUOUS
10
1.69048
20
-0.72408
11
1.69868
21
-0.735097
0
LINE
8
BLACK
6
CONTINUOUS
10
1.69868
20
-0.735097
11
1.70555
21
-0.746992
0
LINE
8
BLACK
6
CONTINUOUS
10
1.70555
20
-0.746992
11
1.71099
21
-0.759604
0
LINE
8
BLACK
6
CONTINUOUS
10
1.71099
20
-0.759604
11
1.71493
21
-0.772762
0
LINE
8
BLACK
6
CONTINUOUS
10
1.71493
20
-0.772762
11
1.71731
21
-0.786288
0
LINE
8
BLACK
6
CONTINUOUS
10
1.71731
20
-0.786288
11
1.71811
21
-0.8
0
LINE
8
BLACK
6
CONTINUOUS
10
1.71811
20
-0.8
11
1.71731
21
-0.813712
0
LINE
8
BLACK
6
CONTINUOUS
10
1.71731
20
-0.813712
11
1.71493
21
-0.827238
0
LINE
8
BLACK
6
CONTINUOUS
10
1.71493
20
-0.827238
11
1.71099
21
-0.840396
0
LINE
8
BLACK
6
CONTINUOUS
10
1.71099
20
-0.840396
11
1.70555
21
-0.853008
0
LINE
8
BLACK
6
CONTINUOUS
10
1.70555
20
-0.853008
11
1.69868
21
-0.864903
0
LINE
8
BLACK
6
CONTINUOUS
10
1.69868
20
-0.864903
11
1.69048
21
-0.87592
0
LINE
8
BLACK
6
CONTINUOUS
10
1.69048
20
-0.87592
11
1.68105
21
-0.88591
0
LINE
8
BLACK
6
CONTINUOUS
10
1.68105
20
-0.88591
11
1.67053
21
-0.894739
0
LINE
8
BLACK
6
CONTINUOUS
10
1.67053
20
-0.894739
11
1.65906
21
-0.902286
0
LINE
8
BLACK
6
CONTINUOUS
10
1.65906
20
-0.902286
11
1.64678
21
-0.908451
0
LINE
8
BLACK
6
CONTINUOUS
10
1.64678
20
-0.908451
11
1.63387
21
-0.913148
0
LINE
8
BLACK
6
CONTINUOUS
10
1.63387
20
-0.913148
11
1.62051
21
-0.916316
0
LINE
8
BLACK
6
CONTINUOUS
10
1.62051
20
-0.916316
11
1.60687
21
-0.91791
0
LINE
8
BLACK
6
CONTINUOUS
10
1.60687
20
-0.91791
11
1.59313
21
-0.91791
0
LINE
8
BLACK
6
CONTINUOUS
10
1.59313
20
-0.91791
11
1.57949
21
-0.916316
0
LINE
8
BLACK
6
CONTINUOUS
10
1.57949
20
-0.916316
11
1.56613
21
-0.913148
0
LINE
8
BLACK
6
CONTINUOUS
10
1.56613
20
-0.913148
11
1.55322
21
-0.908451
0
LINE
8
BLACK
6
CONTINUOUS
10
1.55322
20
-0.908451
11
1.54094
21
-0.902286
0
LINE
8
BLACK
6
CONTINUOUS
10
1.54094
20
-0.902286
11
1.52947
21
-0.894739
0
LINE
8
BLACK
6
CONTINUOUS
10
1.52947
20
-0.894739
11
1.51895
21
-0.88591
0
LINE
8
BLACK
6
CONTINUOUS
10
1.51895
20
-0.88591
11
1.50952
21
-0.87592
0
LINE
8
BLACK
6
CONTINUOUS
10
1.50952
20
-0.87592
11
1.50132
21
-0.864903
0
LINE
8
BLACK
6
CONTINUOUS
10
1.50132
20
-0.864903
11
1.49445
21
-0.853008
0
LINE
8
BLACK
6
CONTINUOUS
10
1.49445
20
-0.853008
11
1.48901
21
-0.840396
0
LINE
8
BLACK
6
CONTINUOUS
10
1.48901
20
-0.840396
11
1.48507
21
-0.827238
0
LINE
8
BLACK
6
CONTINUOUS
10
1.48507
20
-0.827238
11
1.48269
21
-0.813712
0
LINE
8
BLACK
6
CONTINUOUS
10
1.48269
20
-0.813712
11
1.48189
21
-0.8
0
LINE
8
BLACK
6
CONTINUOUS
10
1.48189
20
-0.8
11
1.48269
21
-0.786288
0
LINE
8
BLACK
6
CONTINUOUS
10
1.48269
20
-0.786288
11
1.48507
21
-0.772762
0
LINE
8
BLACK
6
CONTINUOUS
10
1.48507
20
-0.772762
11
1.48901
21
-0.759604
0
LINE
8
BLACK
6
CONTINUOUS
10
1.48901
20
-0.759604
11
1.49445
21
-0.746992
0
LINE
8
BLACK
6
CONTINUOUS
10
1.49445
20
-0.746992
11
1.50132
21
-0.735097
0
LINE
8
BLACK
6
CONTINUOUS
10
1.50132
20
-0.735097
11
1.50952
21
-0.72408
0
LINE
8
BLACK
6
CONTINUOUS
10
1.50952
20
-0.72408
11
1.51895
21
-0.71409
0
LINE
8
BLACK
6
CONTINUOUS
10
1.51895
20
-0.71409
11
1.52947
21
-0.705261
0
LINE
8
BLACK
6
CONTINUOUS
10
1.52947
20
-0.705261
11
1.54094
21
-0.697714
0
LINE
8
BLACK
6
CONTINUOUS
10
1.54094
20
-0.697714
11
1.55322
21
-0.691549
0
LINE
8
BLACK
6
CONTINUOUS
10
1.55322
20
-0.691549
11
1.56613
21
-0.686852
0
LINE
8
BLACK
6
CONTINUOUS
10
1.56613
20
-0.686852
11
1.57949
21
-0.683684
0
LINE
8
BLACK
6
CONTINUOUS
10
1.57949
20
-0.683684
11
1.59313
21
-0.68209
0
LINE
8
BLACK
6
CONTINUOUS
10
1.59313
20
-0.68209
11
1.60687
21
-0.68209
0
LINE
8
BLACK
6
CONTINUOUS
10
1.60687
20
-0.68209
11
1.62051
21
-0.683684
0
LINE
8
BLACK
6
CONTINUOUS
10
0.245669
20
-0.646457
11
0.228296
21
-0.646457
0
LINE
8
BLACK
6
CONTINUOUS
10
0.228296
20
-0.646457
11
0.227367
21
-0.647386
0
LINE
8
BLACK
6
CONTINUOUS
10
0.227367
20
-0.647386
11
0.222977
21
-0.649623
0
LINE
8
BLACK
6
CONTINUOUS
10
0.222977
20
-0.649623
11
0.21811
21
-0.650394
0
LINE
8
BLACK
6
CONTINUOUS
10
0.21811
20
-0.650394
11
0.213244
21
-0.649623
0
LINE
8
BLACK
6
CONTINUOUS
10
0.213244
20
-0.649623
11
0.208854
21
-0.647386
0
LINE
8
BLACK
6
CONTINUOUS
10
0.208854
20
-0.647386
11
0.207924
21
-0.646457
0
LINE
8
BLACK
6
CONTINUOUS
10
0.207924
20
-0.646457
11
0.166929
21
-0.646457
0
LINE
8
BLACK
6
CONTINUOUS
10
0.166929
20
-0.646457
11
0.166929
21
-0.49685
0
LINE
8
BLACK
6
CONTINUOUS
10
0.166929
20
-0.49685
11
0.245669
21
-0.49685
0
LINE
8
BLACK
6
CONTINUOUS
10
0.245669
20
-0.49685
11
0.245669
21
-0.646457
0
LINE
8
BLACK
6
CONTINUOUS
10
0.893942
20
-0.301732
11
0.895772
21
-0.303845
0
LINE
8
BLACK
6
CONTINUOUS
10
0.895772
20
-0.303845
11
0.89622
21
-0.305906
0
LINE
8
BLACK
6
CONTINUOUS
10
0.89622
20
-0.305906
11
0.89622
21
-0.492835
0
LINE
8
BLACK
6
CONTINUOUS
10
0.89622
20
-0.492835
11
0.895433
21
-0.495517
0
LINE
8
BLACK
6
CONTINUOUS
10
0.895433
20
-0.495517
11
0.893321
21
-0.497347
0
LINE
8
BLACK
6
CONTINUOUS
10
0.893321
20
-0.497347
11
0.89126
21
-0.497795
0
LINE
8
BLACK
6
CONTINUOUS
10
0.89126
20
-0.497795
11
0.704331
21
-0.497795
0
LINE
8
BLACK
6
CONTINUOUS
10
0.704331
20
-0.497795
11
0.701649
21
-0.497008
0
LINE
8
BLACK
6
CONTINUOUS
10
0.701649
20
-0.497008
11
0.699818
21
-0.494895
0
LINE
8
BLACK
6
CONTINUOUS
10
0.699818
20
-0.494895
11
0.69937
21
-0.492835
0
LINE
8
BLACK
6
CONTINUOUS
10
0.69937
20
-0.492835
11
0.69937
21
-0.305906
0
LINE
8
BLACK
6
CONTINUOUS
10
0.69937
20
-0.305906
11
0.700158
21
-0.303224
0
LINE
8
BLACK
6
CONTINUOUS
10
0.700158
20
-0.303224
11
0.70227
21
-0.301393
0
LINE
8
BLACK
6
CONTINUOUS
10
0.70227
20
-0.301393
11
0.704331
21
-0.300945
0
LINE
8
BLACK
6
CONTINUOUS
10
0.704331
20
-0.300945
11
0.89126
21
-0.300945
0
LINE
8
BLACK
6
CONTINUOUS
10
0.89126
20
-0.300945
11
0.893942
21
-0.301732
0
LINE
8
BLACK
6
CONTINUOUS
10
0.247638
20
-0.303937
11
0.180017
21
-0.303937
0
LINE
8
BLACK
6
CONTINUOUS
10
0.180017
20
-0.303937
11
0.144135
21
-0.33982
0
LINE
8
BLACK
6
CONTINUOUS
10
0.144135
20
-0.33982
11
0.143016
21
-0.340522
0
LINE
8
BLACK
6
CONTINUOUS
10
0.143016
20
-0.340522
11
0.141983
21
-0.341346
0
LINE
8
BLACK
6
CONTINUOUS
10
0.141983
20
-0.341346
11
0.141547
21
-0.341446
0
LINE
8
BLACK
6
CONTINUOUS
10
0.141547
20
-0.341446
11
0.141168
21
-0.341684
0
LINE
8
BLACK
6
CONTINUOUS
10
0.141168
20
-0.341684
11
0.139855
21
-0.341832
0
LINE
8
BLACK
6
CONTINUOUS
10
0.139855
20
-0.341832
11
0.138567
21
-0.342126
0
LINE
8
BLACK
6
CONTINUOUS
10
0.138567
20
-0.342126
11
-0.00188976
21
-0.342126
0
LINE
8
BLACK
6
CONTINUOUS
10
-0.00188976
20
-0.342126
11
-0.00188976
21
-0.364252
0
LINE
8
BLACK
6
CONTINUOUS
10
-0.00188976
20
-0.364252
11
-0.0618898
21
-0.364252
0
LINE
8
BLACK
6
CONTINUOUS
10
-0.0618898
20
-0.364252
11
-0.0618898
21
-0.304252
0
LINE
8
BLACK
6
CONTINUOUS
10
-0.0618898
20
-0.304252
11
-0.00188976
21
-0.304252
0
LINE
8
BLACK
6
CONTINUOUS
10
-0.00188976
20
-0.304252
11
-0.00188976
21
-0.326378
0
LINE
8
BLACK
6
CONTINUOUS
10
-0.00188976
20
-0.326378
11
0.135305
21
-0.326378
0
LINE
8
BLACK
6
CONTINUOUS
10
0.135305
20
-0.326378
11
0.168898
21
-0.292786
0
LINE
8
BLACK
6
CONTINUOUS
10
0.168898
20
-0.292786
11
0.168898
21
-0.154331
0
LINE
8
BLACK
6
CONTINUOUS
10
0.168898
20
-0.154331
11
0.247638
21
-0.154331
0
LINE
8
BLACK
6
CONTINUOUS
10
0.247638
20
-0.154331
11
0.247638
21
-0.303937
0
LINE
8
BLACK
6
CONTINUOUS
10
-0.00188976
20
-0.264252
11
-0.0618898
21
-0.264252
0
LINE
8
BLACK
6
CONTINUOUS
10
-0.0618898
20
-0.264252
11
-0.0618898
21
-0.204252
0
LINE
8
BLACK
6
CONTINUOUS
10
-0.0618898
20
-0.204252
11
-0.00188976
21
-0.204252
0
LINE
8
BLACK
6
CONTINUOUS
10
-0.00188976
20
-0.204252
11
-0.00188976
21
-0.264252
0
LINE
8
BLACK
6
CONTINUOUS
10
0.0205096
20
0.116316
11
0.0338744
21
0.113148
0
LINE
8
BLACK
6
CONTINUOUS
10
0.0338744
20
0.113148
11
0.0467811
21
0.108451
0
LINE
8
BLACK
6
CONTINUOUS
10
0.0467811
20
0.108451
11
0.0590551
21
0.102286
0
LINE
8
BLACK
6
CONTINUOUS
10
0.0590551
20
0.102286
11
0.0705306
21
0.094739
0
LINE
8
BLACK
6
CONTINUOUS
10
0.0705306
20
0.094739
11
0.0810522
21
0.0859103
0
LINE
8
BLACK
6
CONTINUOUS
10
0.0810522
20
0.0859103
11
0.0904777
21
0.0759198
0
LINE
8
BLACK
6
CONTINUOUS
10
0.0904777
20
0.0759198
11
0.0986796
21
0.0649026
0
LINE
8
BLACK
6
CONTINUOUS
10
0.0986796
20
0.0649026
11
0.105547
21
0.0530078
0
LINE
8
BLACK
6
CONTINUOUS
10
0.105547
20
0.0530078
11
0.110987
21
0.0403961
0
LINE
8
BLACK
6
CONTINUOUS
10
0.110987
20
0.0403961
11
0.114927
21
0.0272381
0
LINE
8
BLACK
6
CONTINUOUS
10
0.114927
20
0.0272381
11
0.117312
21
0.0137118
0
LINE
8
BLACK
6
CONTINUOUS
10
0.117312
20
0.0137118
11
0.11811
21
0
0
LINE
8
BLACK
6
CONTINUOUS
10
0.11811
20
0
11
0.117312
21
-0.0137118
0
LINE
8
BLACK
6
CONTINUOUS
10
0.117312
20
-0.0137118
11
0.114927
21
-0.0272381
0
LINE
8
BLACK
6
CONTINUOUS
10
0.114927
20
-0.0272381
11
0.110987
21
-0.0403961
0
LINE
8
BLACK
6
CONTINUOUS
10
0.110987
20
-0.0403961
11
0.105547
21
-0.0530078
0
LINE
8
BLACK
6
CONTINUOUS
10
0.105547
20
-0.0530078
11
0.0986796
21
-0.0649026
0
LINE
8
BLACK
6
CONTINUOUS
10
0.0986796
20
-0.0649026
11
0.0904777
21
-0.0759198
0
LINE
8
BLACK
6
CONTINUOUS
10
0.0904777
20
-0.0759198
11
0.0810522
21
-0.0859103
0
LINE
8
BLACK
6
CONTINUOUS
10
0.0810522
20
-0.0859103
11
0.0705306
21
-0.094739
0
LINE
8
BLACK
6
CONTINUOUS
10
0.0705306
20
-0.094739
11
0.0590551
21
-0.102286
0
LINE
8
BLACK
6
CONTINUOUS
10
0.0590551
20
-0.102286
11
0.0467811
21
-0.108451
0
LINE
8
BLACK
6
CONTINUOUS
10
0.0467811
20
-0.108451
11
0.0338744
21
-0.113148
0
LINE
8
BLACK
6
CONTINUOUS
10
0.0338744
20
-0.113148
11
0.0205096
21
-0.116316
0
LINE
8
BLACK
6
CONTINUOUS
10
0.0205096
20
-0.116316
11
0.00686748
21
-0.11791
0
LINE
8
BLACK
6
CONTINUOUS
10
0.00686748
20
-0.11791
11
-0.00686748
21
-0.11791
0
LINE
8
BLACK
6
CONTINUOUS
10
-0.00686748
20
-0.11791
11
-0.0205096
21
-0.116316
0
LINE
8
BLACK
6
CONTINUOUS
10
-0.0205096
20
-0.116316
11
-0.0338744
21
-0.113148
0
LINE
8
BLACK
6
CONTINUOUS
10
-0.0338744
20
-0.113148
11
-0.0467811
21
-0.108451
0
LINE
8
BLACK
6
CONTINUOUS
10
-0.0467811
20
-0.108451
11
-0.0590551
21
-0.102286
0
LINE
8
BLACK
6
CONTINUOUS
10
-0.0590551
20
-0.102286
11
-0.0705306
21
-0.094739
0
LINE
8
BLACK
6
CONTINUOUS
10
-0.0705306
20
-0.094739
11
-0.0810522
21
-0.0859103
0
LINE
8
BLACK
6
CONTINUOUS
10
-0.0810522
20
-0.0859103
11
-0.0904777
21
-0.0759198
0
LINE
8
BLACK
6
CONTINUOUS
10
-0.0904777
20
-0.0759198
11
-0.0986796
21
-0.0649026
0
LINE
8
BLACK
6
CONTINUOUS
10
-0.0986796
20
-0.0649026
11
-0.105547
21
-0.0530078
0
LINE
8
BLACK
6
CONTINUOUS
10
-0.105547
20
-0.0530078
11
-0.110987
21
-0.0403961
0
LINE
8
BLACK
6
CONTINUOUS
10
-0.110987
20
-0.0403961
11
-0.114927
21
-0.0272381
0
LINE
8
BLACK
6
CONTINUOUS
10
-0.114927
20
-0.0272381
11
-0.117312
21
-0.0137118
0
LINE
8
BLACK
6
CONTINUOUS
10
-0.117312
20
-0.0137118
11
-0.11811
21
0
0
LINE
8
BLACK
6
CONTINUOUS
10
-0.11811
20
0
11
-0.117312
21
0.0137118
0
LINE
8
BLACK
6
CONTINUOUS
10
-0.117312
20
0.0137118
11
-0.114927
21
0.0272381
0
LINE
8
BLACK
6
CONTINUOUS
10
-0.114927
20
0.0272381
11
-0.110987
21
0.0403961
0
LINE
8
BLACK
6
CONTINUOUS
10
-0.110987
20
0.0403961
11
-0.105547
21
0.0530078
0
LINE
8
BLACK
6
CONTINUOUS
10
-0.105547
20
0.0530078
11
-0.0986796
21
0.0649026
0
LINE
8
BLACK
6
CONTINUOUS
10
-0.0986796
20
0.0649026
11
-0.0904777
21
0.0759198
0
LINE
8
BLACK
6
CONTINUOUS
10
-0.0904777
20
0.0759198
11
-0.0810522
21
0.0859103
0
LINE
8
BLACK
6
CONTINUOUS
10
-0.0810522
20
0.0859103
11
-0.0705306
21
0.094739
0
LINE
8
BLACK
6
CONTINUOUS
10
-0.0705306
20
0.094739
11
-0.0590551
21
0.102286
0
LINE
8
BLACK
6
CONTINUOUS
10
-0.0590551
20
0.102286
11
-0.0467811
21
0.108451
0
LINE
8
BLACK
6
CONTINUOUS
10
-0.0467811
20
0.108451
11
-0.0338744
21
0.113148
0
LINE
8
BLACK
6
CONTINUOUS
10
-0.0338744
20
0.113148
11
-0.0205096
21
0.116316
0
LINE
8
BLACK
6
CONTINUOUS
10
-0.0205096
20
0.116316
11
-0.00686748
21
0.11791
0
LINE
8
BLACK
6
CONTINUOUS
10
-0.00686748
20
0.11791
11
0.00686748
21
0.11791
0
LINE
8
BLACK
6
CONTINUOUS
10
0.00686748
20
0.11791
11
0.0205096
21
0.116316
0
LINE
8
BLACK
6
CONTINUOUS
10
1.62051
20
0.116316
11
1.63387
21
0.113148
0
LINE
8
BLACK
6
CONTINUOUS
10
1.63387
20
0.113148
11
1.64678
21
0.108451
0
LINE
8
BLACK
6
CONTINUOUS
10
1.64678
20
0.108451
11
1.65906
21
0.102286
0
LINE
8
BLACK
6
CONTINUOUS
10
1.65906
20
0.102286
11
1.67053
21
0.094739
0
LINE
8
BLACK
6
CONTINUOUS
10
1.67053
20
0.094739
11
1.68105
21
0.0859103
0
LINE
8
BLACK
6
CONTINUOUS
10
1.68105
20
0.0859103
11
1.69048
21
0.0759198
0
LINE
8
BLACK
6
CONTINUOUS
10
1.69048
20
0.0759198
11
1.69868
21
0.0649026
0
LINE
8
BLACK
6
CONTINUOUS
10
1.69868
20
0.0649026
11
1.70555
21
0.0530078
0
LINE
8
BLACK
6
CONTINUOUS
10
1.70555
20
0.0530078
11
1.71099
21
0.0403961
0
LINE
8
BLACK
6
CONTINUOUS
10
1.71099
20
0.0403961
11
1.71493
21
0.0272381
0
LINE
8
BLACK
6
CONTINUOUS
10
1.71493
20
0.0272381
11
1.71731
21
0.0137118
0
LINE
8
BLACK
6
CONTINUOUS
10
1.71731
20
0.0137118
11
1.71811
21
0
0
LINE
8
BLACK
6
CONTINUOUS
10
1.71811
20
0
11
1.71731
21
-0.0137118
0
LINE
8
BLACK
6
CONTINUOUS
10
1.71731
20
-0.0137118
11
1.71493
21
-0.0272381
0
LINE
8
BLACK
6
CONTINUOUS
10
1.71493
20
-0.0272381
11
1.71099
21
-0.0403961
0
LINE
8
BLACK
6
CONTINUOUS
10
1.71099
20
-0.0403961
11
1.70555
21
-0.0530078
0
LINE
8
BLACK
6
CONTINUOUS
10
1.70555
20
-0.0530078
11
1.69868
21
-0.0649026
0
LINE
8
BLACK
6
CONTINUOUS
10
1.69868
20
-0.0649026
11
1.69048
21
-0.0759198
0
LINE
8
BLACK
6
CONTINUOUS
10
1.69048
20
-0.0759198
11
1.68105
21
-0.0859103
0
LINE
8
BLACK
6
CONTINUOUS
10
1.68105
20
-0.0859103
11
1.67053
21
-0.094739
0
LINE
8
BLACK
6
CONTINUOUS
10
1.67053
20
-0.094739
11
1.65906
21
-0.102286
0
LINE
8
BLACK
6
CONTINUOUS
10
1.65906
20
-0.102286
11
1.64678
21
-0.108451
0
LINE
8
BLACK
6
CONTINUOUS
10
1.64678
20
-0.108451
11
1.63387
21
-0.113148
0
LINE
8
BLACK
6
CONTINUOUS
10
1.63387
20
-0.113148
11
1.62051
21
-0.116316
0
LINE
8
BLACK
6
CONTINUOUS
10
1.62051
20
-0.116316
11
1.60687
21
-0.11791
0
LINE
8
BLACK
6
CONTINUOUS
10
1.60687
20
-0.11791
11
1.59313
21
-0.11791
0
LINE
8
BLACK
6
CONTINUOUS
10
1.59313
20
-0.11791
11
1.57949
21
-0.116316
0
LINE
8
BLACK
6
CONTINUOUS
10
1.57949
20
-0.116316
11
1.56613
21
-0.113148
0
LINE
8
BLACK
6
CONTINUOUS
10
1.56613
20
-0.113148
11
1.55322
21
-0.108451
0
LINE
8
BLACK
6
CONTINUOUS
10
1.55322
20
-0.108451
11
1.54094
21
-0.102286
0
LINE
8
BLACK
6
CONTINUOUS
10
1.54094
20
-0.102286
11
1.52947
21
-0.094739
0
LINE
8
BLACK
6
CONTINUOUS
10
1.52947
20
-0.094739
11
1.51895
21
-0.0859103
0
LINE
8
BLACK
6
CONTINUOUS
10
1.51895
20
-0.0859103
11
1.50952
21
-0.0759198
0
LINE
8
BLACK
6
CONTINUOUS
10
1.50952
20
-0.0759198
11
1.50132
21
-0.0649026
0
LINE
8
BLACK
6
CONTINUOUS
10
1.50132
20
-0.0649026
11
1.49445
21
-0.0530078
0
LINE
8
BLACK
6
CONTINUOUS
10
1.49445
20
-0.0530078
11
1.48901
21
-0.0403961
0
LINE
8
BLACK
6
CONTINUOUS
10
1.48901
20
-0.0403961
11
1.48507
21
-0.0272381
0
LINE
8
BLACK
6
CONTINUOUS
10
1.48507
20
-0.0272381
11
1.48269
21
-0.0137118
0
LINE
8
BLACK
6
CONTINUOUS
10
1.48269
20
-0.0137118
11
1.48189
21
0
0
LINE
8
BLACK
6
CONTINUOUS
10
1.48189
20
0
11
1.48269
21
0.0137118
0
LINE
8
BLACK
6
CONTINUOUS
10
1.48269
20
0.0137118
11
1.48507
21
0.0272381
0
LINE
8
BLACK
6
CONTINUOUS
10
1.48507
20
0.0272381
11
1.48901
21
0.0403961
0
LINE
8
BLACK
6
CONTINUOUS
10
1.48901
20
0.0403961
11
1.49445
21
0.0530078
0
LINE
8
BLACK
6
CONTINUOUS
10
1.49445
20
0.0530078
11
1.50132
21
0.0649026
0
LINE
8
BLACK
6
CONTINUOUS
10
1.50132
20
0.0649026
11
1.50952
21
0.0759198
0
LINE
8
BLACK
6
CONTINUOUS
10
1.50952
20
0.0759198
11
1.51895
21
0.0859103
0
LINE
8
BLACK
6
CONTINUOUS
10
1.51895
20
0.0859103
11
1.52947
21
0.094739
0
LINE
8
BLACK
6
CONTINUOUS
10
1.52947
20
0.094739
11
1.54094
21
0.102286
0
LINE
8
BLACK
6
CONTINUOUS
10
1.54094
20
0.102286
11
1.55322
21
0.108451
0
LINE
8
BLACK
6
CONTINUOUS
10
1.55322
20
0.108451
11
1.56613
21
0.113148
0
LINE
8
BLACK
6
CONTINUOUS
10
1.56613
20
0.113148
11
1.57949
21
0.116316
0
LINE
8
BLACK
6
CONTINUOUS
10
1.57949
20
0.116316
11
1.59313
21
0.11791
0
LINE
8
BLACK
6
CONTINUOUS
10
1.59313
20
0.11791
11
1.60687
21
0.11791
0
LINE
8
BLACK
6
CONTINUOUS
10
1.60687
20
0.11791
11
1.62051
21
0.116316
0
CIRCLE
8
BLACK
10
0
20
0
40
0.00688976
0
CIRCLE
8
BLACK
10
1.6
20
0
40
0.00688976
0
CIRCLE
8
BLACK
10
0
20
-0.8
40
0.00688976
0
CIRCLE
8
BLACK
10
1.6
20
-0.8
40
0.00688976
0
CIRCLE
8
BLACK
10
-0.0318898
20
-0.234252
40
0.00688976
0
CIRCLE
8
BLACK
10
-0.0318898
20
-0.334252
40
0.00688976
0
CIRCLE
8
BLACK
10
0.720079
20
-0.321654
40
0.00787402
0
CIRCLE
8
BLACK
10
0.21811
20
-0.634646
40
0.00787402
  0
ENDSEC
  0
EOF
