  0
SECTION
  2
HEADER
  9
$ANGBASE
  50
0.0
  9
$ANGDIR
  70
1
  9
$MEASUREMENT
  70
0
  0
ENDSEC
  0
SECTION
  2
TABLES
  0
TABLE
  2
LTYPE
  70
4
  0
LTYPE
  5
40F
  2
CONTINUOUS
  70
0
  3
Solid line
  72
65
  73
0
  40
0.0
  0
LTYPE
  5
410
  2
DASHDOT
 70
0
  3
Dash Dot ____ _ ____ _
 72
65
 73
4
 40
2.0
 49
1.25
 49
-0.25
 49
0.25
 49
-0.25
  0
LTYPE
  5
411
  2
DASHED
 70
0
  3
Dashed __ __ __ __ __
 72
65
 73
2
 40
0.75
 49
0.5
 49
-0.25
  0
LTYPE
  5
43B
  2
DOTTED
 70
0
  3
Dotted .  .  .  .
 72
65
 73
2
 40
0.2
 49
0.0
 49
-0.2
  0
ENDTAB
  0
TABLE
  2
STYLE
  70
4
  0
STYLE
  2
KICAD
  70
0
  40
0
  41
1
  42
1
  50
0
  71
0
  3
isocp.shx
  0
STYLE
  2
KICADB
  70
0
  40
0
  41
1
  42
1
  50
0
  71
0
  3
isocp.shx
  0
STYLE
  2
KICADI
  70
0
  40
0
  41
1
  42
1
  50
15
  71
0
  3
isocp.shx
  0
STYLE
  2
KICADBI
  70
0
  40
0
  41
1
  42
1
  50
15
  71
0
  3
isocp.shx
  0
ENDTAB
  0
TABLE
  2
LAYER
  70
1
  0
LAYER
  2
BLACK
  70
0
  62
7
  6
CONTINUOUS
  0
ENDTAB
  0
ENDSEC
  0
SECTION
  2
ENTITIES
0
LINE
8
BLACK
6
CONTINUOUS
10
-0.118263
20
-0.048033
11
-0.116937
21
-0.0482395
0
LINE
8
BLACK
6
CONTINUOUS
10
-0.116937
20
-0.0482395
11
-0.115594
21
-0.0482477
0
LINE
8
BLACK
6
CONTINUOUS
10
-0.115594
20
-0.0482477
11
-0.114193
21
-0.0486667
0
LINE
8
BLACK
6
CONTINUOUS
10
-0.114193
20
-0.0486667
11
-0.112749
21
-0.0488917
0
LINE
8
BLACK
6
CONTINUOUS
10
-0.112749
20
-0.0488917
11
-0.111533
21
-0.0494622
0
LINE
8
BLACK
6
CONTINUOUS
10
-0.111533
20
-0.0494622
11
-0.110247
21
-0.0498469
0
LINE
8
BLACK
6
CONTINUOUS
10
-0.110247
20
-0.0498469
11
-0.10902
21
-0.0506422
0
LINE
8
BLACK
6
CONTINUOUS
10
-0.10902
20
-0.0506422
11
-0.107696
21
-0.0512636
0
LINE
8
BLACK
6
CONTINUOUS
10
-0.107696
20
-0.0512636
11
-0.10669
21
-0.0521523
0
LINE
8
BLACK
6
CONTINUOUS
10
-0.10669
20
-0.0521523
11
-0.105563
21
-0.0528826
0
LINE
8
BLACK
6
CONTINUOUS
10
-0.105563
20
-0.0528826
11
-0.104609
21
-0.0539904
0
LINE
8
BLACK
6
CONTINUOUS
10
-0.104609
20
-0.0539904
11
-0.103513
21
-0.0549583
0
LINE
8
BLACK
6
CONTINUOUS
10
-0.103513
20
-0.0549583
11
-0.102797
21
-0.0560937
0
LINE
8
BLACK
6
CONTINUOUS
10
-0.102797
20
-0.0560937
11
-0.10192
21
-0.0571108
0
LINE
8
BLACK
6
CONTINUOUS
10
-0.10192
20
-0.0571108
11
-0.101315
21
-0.0584419
0
LINE
8
BLACK
6
CONTINUOUS
10
-0.101315
20
-0.0584419
11
-0.100535
21
-0.0596785
0
LINE
8
BLACK
6
CONTINUOUS
10
-0.100535
20
-0.0596785
11
-0.100166
21
-0.0609694
0
LINE
8
BLACK
6
CONTINUOUS
10
-0.100166
20
-0.0609694
11
-0.0996101
21
-0.0621916
0
LINE
8
BLACK
6
CONTINUOUS
10
-0.0996101
20
-0.0621916
11
-0.0994028
21
-0.0636391
0
LINE
8
BLACK
6
CONTINUOUS
10
-0.0994028
20
-0.0636391
11
-0.099001
21
-0.065045
0
LINE
8
BLACK
6
CONTINUOUS
10
-0.099001
20
-0.065045
11
-0.0990092
21
-0.0663875
0
LINE
8
BLACK
6
CONTINUOUS
10
-0.0990092
20
-0.0663875
11
-0.0988189
21
-0.0677165
0
LINE
8
BLACK
6
CONTINUOUS
10
-0.0988189
20
-0.0677165
11
-0.0988189
21
-0.56378
0
LINE
8
BLACK
6
CONTINUOUS
10
-0.0988189
20
-0.56378
11
-0.0988204
21
-0.56402
0
LINE
8
BLACK
6
CONTINUOUS
10
-0.0988204
20
-0.56402
11
-0.0990269
21
-0.565347
0
LINE
8
BLACK
6
CONTINUOUS
10
-0.0990269
20
-0.565347
11
-0.0990351
21
-0.566689
0
LINE
8
BLACK
6
CONTINUOUS
10
-0.0990351
20
-0.566689
11
-0.0994541
21
-0.56809
0
LINE
8
BLACK
6
CONTINUOUS
10
-0.0994541
20
-0.56809
11
-0.0996791
21
-0.569535
0
LINE
8
BLACK
6
CONTINUOUS
10
-0.0996791
20
-0.569535
11
-0.10025
21
-0.57075
0
LINE
8
BLACK
6
CONTINUOUS
10
-0.10025
20
-0.57075
11
-0.100634
21
-0.572036
0
LINE
8
BLACK
6
CONTINUOUS
10
-0.100634
20
-0.572036
11
-0.10143
21
-0.573264
0
LINE
8
BLACK
6
CONTINUOUS
10
-0.10143
20
-0.573264
11
-0.102051
21
-0.574587
0
LINE
8
BLACK
6
CONTINUOUS
10
-0.102051
20
-0.574587
11
-0.10294
21
-0.575593
0
LINE
8
BLACK
6
CONTINUOUS
10
-0.10294
20
-0.575593
11
-0.10367
21
-0.57672
0
LINE
8
BLACK
6
CONTINUOUS
10
-0.10367
20
-0.57672
11
-0.104778
21
-0.577675
0
LINE
8
BLACK
6
CONTINUOUS
10
-0.104778
20
-0.577675
11
-0.105746
21
-0.57877
0
LINE
8
BLACK
6
CONTINUOUS
10
-0.105746
20
-0.57877
11
-0.106881
21
-0.579487
0
LINE
8
BLACK
6
CONTINUOUS
10
-0.106881
20
-0.579487
11
-0.107898
21
-0.580363
0
LINE
8
BLACK
6
CONTINUOUS
10
-0.107898
20
-0.580363
11
-0.109229
21
-0.580968
0
LINE
8
BLACK
6
CONTINUOUS
10
-0.109229
20
-0.580968
11
-0.110466
21
-0.581749
0
LINE
8
BLACK
6
CONTINUOUS
10
-0.110466
20
-0.581749
11
-0.111757
21
-0.582118
0
LINE
8
BLACK
6
CONTINUOUS
10
-0.111757
20
-0.582118
11
-0.112979
21
-0.582673
0
LINE
8
BLACK
6
CONTINUOUS
10
-0.112979
20
-0.582673
11
-0.114426
21
-0.582881
0
LINE
8
BLACK
6
CONTINUOUS
10
-0.114426
20
-0.582881
11
-0.115832
21
-0.583282
0
LINE
8
BLACK
6
CONTINUOUS
10
-0.115832
20
-0.583282
11
-0.117175
21
-0.583274
0
LINE
8
BLACK
6
CONTINUOUS
10
-0.117175
20
-0.583274
11
-0.118504
21
-0.583465
0
LINE
8
BLACK
6
CONTINUOUS
10
-0.118504
20
-0.583465
11
-0.598819
21
-0.583465
0
LINE
8
BLACK
6
CONTINUOUS
10
-0.598819
20
-0.583465
11
-0.599059
21
-0.583463
0
LINE
8
BLACK
6
CONTINUOUS
10
-0.599059
20
-0.583463
11
-0.600386
21
-0.583257
0
LINE
8
BLACK
6
CONTINUOUS
10
-0.600386
20
-0.583257
11
-0.601729
21
-0.583248
0
LINE
8
BLACK
6
CONTINUOUS
10
-0.601729
20
-0.583248
11
-0.60313
21
-0.582829
0
LINE
8
BLACK
6
CONTINUOUS
10
-0.60313
20
-0.582829
11
-0.604574
21
-0.582604
0
LINE
8
BLACK
6
CONTINUOUS
10
-0.604574
20
-0.582604
11
-0.605789
21
-0.582034
0
LINE
8
BLACK
6
CONTINUOUS
10
-0.605789
20
-0.582034
11
-0.607076
21
-0.581649
0
LINE
8
BLACK
6
CONTINUOUS
10
-0.607076
20
-0.581649
11
-0.608303
21
-0.580854
0
LINE
8
BLACK
6
CONTINUOUS
10
-0.608303
20
-0.580854
11
-0.609626
21
-0.580232
0
LINE
8
BLACK
6
CONTINUOUS
10
-0.609626
20
-0.580232
11
-0.610633
21
-0.579344
0
LINE
8
BLACK
6
CONTINUOUS
10
-0.610633
20
-0.579344
11
-0.611759
21
-0.578613
0
LINE
8
BLACK
6
CONTINUOUS
10
-0.611759
20
-0.578613
11
-0.612714
21
-0.577506
0
LINE
8
BLACK
6
CONTINUOUS
10
-0.612714
20
-0.577506
11
-0.61381
21
-0.576538
0
LINE
8
BLACK
6
CONTINUOUS
10
-0.61381
20
-0.576538
11
-0.614526
21
-0.575402
0
LINE
8
BLACK
6
CONTINUOUS
10
-0.614526
20
-0.575402
11
-0.615403
21
-0.574385
0
LINE
8
BLACK
6
CONTINUOUS
10
-0.615403
20
-0.574385
11
-0.616008
21
-0.573054
0
LINE
8
BLACK
6
CONTINUOUS
10
-0.616008
20
-0.573054
11
-0.616788
21
-0.571818
0
LINE
8
BLACK
6
CONTINUOUS
10
-0.616788
20
-0.571818
11
-0.617157
21
-0.570527
0
LINE
8
BLACK
6
CONTINUOUS
10
-0.617157
20
-0.570527
11
-0.617713
21
-0.569304
0
LINE
8
BLACK
6
CONTINUOUS
10
-0.617713
20
-0.569304
11
-0.61792
21
-0.567857
0
LINE
8
BLACK
6
CONTINUOUS
10
-0.61792
20
-0.567857
11
-0.618322
21
-0.566451
0
LINE
8
BLACK
6
CONTINUOUS
10
-0.618322
20
-0.566451
11
-0.618314
21
-0.565109
0
LINE
8
BLACK
6
CONTINUOUS
10
-0.618314
20
-0.565109
11
-0.618504
21
-0.56378
0
LINE
8
BLACK
6
CONTINUOUS
10
-0.618504
20
-0.56378
11
-0.618504
21
-0.0677165
0
LINE
8
BLACK
6
CONTINUOUS
10
-0.618504
20
-0.0677165
11
-0.618502
21
-0.067476
0
LINE
8
BLACK
6
CONTINUOUS
10
-0.618502
20
-0.067476
11
-0.618296
21
-0.0661494
0
LINE
8
BLACK
6
CONTINUOUS
10
-0.618296
20
-0.0661494
11
-0.618288
21
-0.0648069
0
LINE
8
BLACK
6
CONTINUOUS
10
-0.618288
20
-0.0648069
11
-0.617869
21
-0.0634059
0
LINE
8
BLACK
6
CONTINUOUS
10
-0.617869
20
-0.0634059
11
-0.617644
21
-0.0619612
0
LINE
8
BLACK
6
CONTINUOUS
10
-0.617644
20
-0.0619612
11
-0.617073
21
-0.060746
0
LINE
8
BLACK
6
CONTINUOUS
10
-0.617073
20
-0.060746
11
-0.616689
21
-0.0594596
0
LINE
8
BLACK
6
CONTINUOUS
10
-0.616689
20
-0.0594596
11
-0.615893
21
-0.0582325
0
LINE
8
BLACK
6
CONTINUOUS
10
-0.615893
20
-0.0582325
11
-0.615272
21
-0.056909
0
LINE
8
BLACK
6
CONTINUOUS
10
-0.615272
20
-0.056909
11
-0.614383
21
-0.0559028
0
LINE
8
BLACK
6
CONTINUOUS
10
-0.614383
20
-0.0559028
11
-0.613653
21
-0.0547761
0
LINE
8
BLACK
6
CONTINUOUS
10
-0.613653
20
-0.0547761
11
-0.612545
21
-0.0538215
0
LINE
8
BLACK
6
CONTINUOUS
10
-0.612545
20
-0.0538215
11
-0.611577
21
-0.0527256
0
LINE
8
BLACK
6
CONTINUOUS
10
-0.611577
20
-0.0527256
11
-0.610442
21
-0.0520092
0
LINE
8
BLACK
6
CONTINUOUS
10
-0.610442
20
-0.0520092
11
-0.609425
21
-0.0511328
0
LINE
8
BLACK
6
CONTINUOUS
10
-0.609425
20
-0.0511328
11
-0.608094
21
-0.0505276
0
LINE
8
BLACK
6
CONTINUOUS
10
-0.608094
20
-0.0505276
11
-0.606857
21
-0.0497474
0
LINE
8
BLACK
6
CONTINUOUS
10
-0.606857
20
-0.0497474
11
-0.605566
21
-0.0493784
0
LINE
8
BLACK
6
CONTINUOUS
10
-0.605566
20
-0.0493784
11
-0.604344
21
-0.0488227
0
LINE
8
BLACK
6
CONTINUOUS
10
-0.604344
20
-0.0488227
11
-0.602896
21
-0.0486154
0
LINE
8
BLACK
6
CONTINUOUS
10
-0.602896
20
-0.0486154
11
-0.60149
21
-0.0482136
0
LINE
8
BLACK
6
CONTINUOUS
10
-0.60149
20
-0.0482136
11
-0.600148
21
-0.0482218
0
LINE
8
BLACK
6
CONTINUOUS
10
-0.600148
20
-0.0482218
11
-0.598819
21
-0.0480315
0
LINE
8
BLACK
6
CONTINUOUS
10
-0.598819
20
-0.0480315
11
-0.118504
21
-0.0480315
0
LINE
8
BLACK
6
CONTINUOUS
10
-0.118504
20
-0.0480315
11
-0.118263
21
-0.048033
0
LINE
8
BLACK
6
CONTINUOUS
10
-0.579134
20
-0.0874016
11
-0.579134
21
-0.544094
0
LINE
8
BLACK
6
CONTINUOUS
10
-0.579134
20
-0.544094
11
-0.138189
21
-0.544094
0
LINE
8
BLACK
6
CONTINUOUS
10
-0.138189
20
-0.544094
11
-0.138189
21
-0.0874016
0
LINE
8
BLACK
6
CONTINUOUS
10
-0.138189
20
-0.0874016
11
-0.579134
21
-0.0874016
  0
ENDSEC
  0
EOF
