  0
SECTION
  2
HEADER
  9
$ANGBASE
  50
0.0
  9
$ANGDIR
  70
1
  9
$MEASUREMENT
  70
0
  0
ENDSEC
  0
SECTION
  2
TABLES
  0
TABLE
  2
LTYPE
  70
4
  0
LTYPE
  5
40F
  2
CONTINUOUS
  70
0
  3
Solid line
  72
65
  73
0
  40
0.0
  0
LTYPE
  5
410
  2
DASHDOT
 70
0
  3
Dash Dot ____ _ ____ _
 72
65
 73
4
 40
2.0
 49
1.25
 49
-0.25
 49
0.25
 49
-0.25
  0
LTYPE
  5
411
  2
DASHED
 70
0
  3
Dashed __ __ __ __ __
 72
65
 73
2
 40
0.75
 49
0.5
 49
-0.25
  0
LTYPE
  5
43B
  2
DOTTED
 70
0
  3
Dotted .  .  .  .
 72
65
 73
2
 40
0.2
 49
0.0
 49
-0.2
  0
ENDTAB
  0
TABLE
  2
STYLE
  70
4
  0
STYLE
  2
KICAD
  70
0
  40
0
  41
1
  42
1
  50
0
  71
0
  3
isocp.shx
  0
STYLE
  2
KICADB
  70
0
  40
0
  41
1
  42
1
  50
0
  71
0
  3
isocp.shx
  0
STYLE
  2
KICADI
  70
0
  40
0
  41
1
  42
1
  50
15
  71
0
  3
isocp.shx
  0
STYLE
  2
KICADBI
  70
0
  40
0
  41
1
  42
1
  50
15
  71
0
  3
isocp.shx
  0
ENDTAB
  0
TABLE
  2
LAYER
  70
1
  0
LAYER
  2
BLACK
  70
0
  62
7
  6
CONTINUOUS
  0
ENDTAB
  0
ENDSEC
  0
SECTION
  2
ENTITIES
0
LINE
8
BLACK
6
CONTINUOUS
10
0.212401
20
-0.935577
11
0.211071
21
-0.935305
0
LINE
8
BLACK
6
CONTINUOUS
10
0.211071
20
-0.935305
11
0.205447
21
-0.932492
0
LINE
8
BLACK
6
CONTINUOUS
10
0.205447
20
-0.932492
11
0.204735
21
-0.931862
0
LINE
8
BLACK
6
CONTINUOUS
10
0.204735
20
-0.931862
11
0.203912
21
-0.931386
0
LINE
8
BLACK
6
CONTINUOUS
10
0.203912
20
-0.931386
11
0.2011
21
-0.928574
0
LINE
8
BLACK
6
CONTINUOUS
10
0.2011
20
-0.928574
11
0.200624
21
-0.927751
0
LINE
8
BLACK
6
CONTINUOUS
10
0.200624
20
-0.927751
11
0.199994
21
-0.927039
0
LINE
8
BLACK
6
CONTINUOUS
10
0.199994
20
-0.927039
11
0.197181
21
-0.921415
0
LINE
8
BLACK
6
CONTINUOUS
10
0.197181
20
-0.921415
11
0.196909
21
-0.920085
0
LINE
8
BLACK
6
CONTINUOUS
10
0.196909
20
-0.920085
11
0.196558
21
-0.918774
0
LINE
8
BLACK
6
CONTINUOUS
10
0.196558
20
-0.918774
11
0.196558
21
-0.910337
0
LINE
8
BLACK
6
CONTINUOUS
10
0.196558
20
-0.910337
11
0.196909
21
-0.909026
0
LINE
8
BLACK
6
CONTINUOUS
10
0.196909
20
-0.909026
11
0.197181
21
-0.907696
0
LINE
8
BLACK
6
CONTINUOUS
10
0.197181
20
-0.907696
11
0.199994
21
-0.902072
0
LINE
8
BLACK
6
CONTINUOUS
10
0.199994
20
-0.902072
11
0.200624
21
-0.901361
0
LINE
8
BLACK
6
CONTINUOUS
10
0.200624
20
-0.901361
11
0.2011
21
-0.900537
0
LINE
8
BLACK
6
CONTINUOUS
10
0.2011
20
-0.900537
11
0.203912
21
-0.897725
0
LINE
8
BLACK
6
CONTINUOUS
10
0.203912
20
-0.897725
11
0.203966
21
-0.897694
0
LINE
8
BLACK
6
CONTINUOUS
10
0.203966
20
-0.897694
11
0.203912
21
-0.89764
0
LINE
8
BLACK
6
CONTINUOUS
10
0.203912
20
-0.89764
11
0.203436
21
-0.896817
0
LINE
8
BLACK
6
CONTINUOUS
10
0.203436
20
-0.896817
11
0.202806
21
-0.896106
0
LINE
8
BLACK
6
CONTINUOUS
10
0.202806
20
-0.896106
11
0.199994
21
-0.890481
0
LINE
8
BLACK
6
CONTINUOUS
10
0.199994
20
-0.890481
11
0.199721
21
-0.889151
0
LINE
8
BLACK
6
CONTINUOUS
10
0.199721
20
-0.889151
11
0.19937
21
-0.88784
0
LINE
8
BLACK
6
CONTINUOUS
10
0.19937
20
-0.88784
11
0.19937
21
-0.882216
0
LINE
8
BLACK
6
CONTINUOUS
10
0.19937
20
-0.882216
11
0.199721
21
-0.880905
0
LINE
8
BLACK
6
CONTINUOUS
10
0.199721
20
-0.880905
11
0.199994
21
-0.879575
0
LINE
8
BLACK
6
CONTINUOUS
10
0.199994
20
-0.879575
11
0.202806
21
-0.873951
0
LINE
8
BLACK
6
CONTINUOUS
10
0.202806
20
-0.873951
11
0.203436
21
-0.873239
0
LINE
8
BLACK
6
CONTINUOUS
10
0.203436
20
-0.873239
11
0.203912
21
-0.872416
0
LINE
8
BLACK
6
CONTINUOUS
10
0.203912
20
-0.872416
11
0.206724
21
-0.869604
0
LINE
8
BLACK
6
CONTINUOUS
10
0.206724
20
-0.869604
11
0.207548
21
-0.869128
0
LINE
8
BLACK
6
CONTINUOUS
10
0.207548
20
-0.869128
11
0.208259
21
-0.868497
0
LINE
8
BLACK
6
CONTINUOUS
10
0.208259
20
-0.868497
11
0.213883
21
-0.865685
0
LINE
8
BLACK
6
CONTINUOUS
10
0.213883
20
-0.865685
11
0.215213
21
-0.865413
0
LINE
8
BLACK
6
CONTINUOUS
10
0.215213
20
-0.865413
11
0.216524
21
-0.865062
0
LINE
8
BLACK
6
CONTINUOUS
10
0.216524
20
-0.865062
11
0.236209
21
-0.865062
0
LINE
8
BLACK
6
CONTINUOUS
10
0.236209
20
-0.865062
11
0.239162
21
-0.865853
0
LINE
8
BLACK
6
CONTINUOUS
10
0.239162
20
-0.865853
11
0.241324
21
-0.868015
0
LINE
8
BLACK
6
CONTINUOUS
10
0.241324
20
-0.868015
11
0.242115
21
-0.870967
0
LINE
8
BLACK
6
CONTINUOUS
10
0.242115
20
-0.870967
11
0.242115
21
-0.930022
0
LINE
8
BLACK
6
CONTINUOUS
10
0.242115
20
-0.930022
11
0.241324
21
-0.932975
0
LINE
8
BLACK
6
CONTINUOUS
10
0.241324
20
-0.932975
11
0.239162
21
-0.935137
0
LINE
8
BLACK
6
CONTINUOUS
10
0.239162
20
-0.935137
11
0.236209
21
-0.935928
0
LINE
8
BLACK
6
CONTINUOUS
10
0.236209
20
-0.935928
11
0.213712
21
-0.935928
0
LINE
8
BLACK
6
CONTINUOUS
10
0.213712
20
-0.935928
11
0.212401
21
-0.935577
0
LINE
8
BLACK
6
CONTINUOUS
10
0.217483
20
-0.904994
11
0.211278
21
-0.907063
0
LINE
8
BLACK
6
CONTINUOUS
10
0.211278
20
-0.907063
11
0.210129
21
-0.908211
0
LINE
8
BLACK
6
CONTINUOUS
10
0.210129
20
-0.908211
11
0.208369
21
-0.911732
0
LINE
8
BLACK
6
CONTINUOUS
10
0.208369
20
-0.911732
11
0.208369
21
-0.91738
0
LINE
8
BLACK
6
CONTINUOUS
10
0.208369
20
-0.91738
11
0.210129
21
-0.9209
0
LINE
8
BLACK
6
CONTINUOUS
10
0.210129
20
-0.9209
11
0.211586
21
-0.922357
0
LINE
8
BLACK
6
CONTINUOUS
10
0.211586
20
-0.922357
11
0.215106
21
-0.924117
0
LINE
8
BLACK
6
CONTINUOUS
10
0.215106
20
-0.924117
11
0.230304
21
-0.924117
0
LINE
8
BLACK
6
CONTINUOUS
10
0.230304
20
-0.924117
11
0.230304
21
-0.904994
0
LINE
8
BLACK
6
CONTINUOUS
10
0.230304
20
-0.904994
11
0.217483
21
-0.904994
0
LINE
8
BLACK
6
CONTINUOUS
10
0.217918
20
-0.876873
11
0.214398
21
-0.878633
0
LINE
8
BLACK
6
CONTINUOUS
10
0.214398
20
-0.878633
11
0.212941
21
-0.88009
0
LINE
8
BLACK
6
CONTINUOUS
10
0.212941
20
-0.88009
11
0.211181
21
-0.88361
0
LINE
8
BLACK
6
CONTINUOUS
10
0.211181
20
-0.88361
11
0.211181
21
-0.886446
0
LINE
8
BLACK
6
CONTINUOUS
10
0.211181
20
-0.886446
11
0.212941
21
-0.889966
0
LINE
8
BLACK
6
CONTINUOUS
10
0.212941
20
-0.889966
11
0.214398
21
-0.891423
0
LINE
8
BLACK
6
CONTINUOUS
10
0.214398
20
-0.891423
11
0.217918
21
-0.893183
0
LINE
8
BLACK
6
CONTINUOUS
10
0.217918
20
-0.893183
11
0.230304
21
-0.893183
0
LINE
8
BLACK
6
CONTINUOUS
10
0.230304
20
-0.893183
11
0.230304
21
-0.876873
0
LINE
8
BLACK
6
CONTINUOUS
10
0.230304
20
-0.876873
11
0.217918
21
-0.876873
0
LINE
8
BLACK
6
CONTINUOUS
10
0.30356
20
-0.935137
11
0.301399
21
-0.932975
0
LINE
8
BLACK
6
CONTINUOUS
10
0.301399
20
-0.932975
11
0.300968
21
-0.93137
0
LINE
8
BLACK
6
CONTINUOUS
10
0.300968
20
-0.93137
11
0.299683
21
-0.933941
0
LINE
8
BLACK
6
CONTINUOUS
10
0.299683
20
-0.933941
11
0.297132
21
-0.935625
0
LINE
8
BLACK
6
CONTINUOUS
10
0.297132
20
-0.935625
11
0.29408
21
-0.935808
0
LINE
8
BLACK
6
CONTINUOUS
10
0.29408
20
-0.935808
11
0.291346
21
-0.934441
0
LINE
8
BLACK
6
CONTINUOUS
10
0.291346
20
-0.934441
11
0.289662
21
-0.93189
0
LINE
8
BLACK
6
CONTINUOUS
10
0.289662
20
-0.93189
11
0.285384
21
-0.919055
0
LINE
8
BLACK
6
CONTINUOUS
10
0.285384
20
-0.919055
11
0.265775
21
-0.919055
0
LINE
8
BLACK
6
CONTINUOUS
10
0.265775
20
-0.919055
11
0.261497
21
-0.93189
0
LINE
8
BLACK
6
CONTINUOUS
10
0.261497
20
-0.93189
11
0.259812
21
-0.934441
0
LINE
8
BLACK
6
CONTINUOUS
10
0.259812
20
-0.934441
11
0.257078
21
-0.935808
0
LINE
8
BLACK
6
CONTINUOUS
10
0.257078
20
-0.935808
11
0.254027
21
-0.935625
0
LINE
8
BLACK
6
CONTINUOUS
10
0.254027
20
-0.935625
11
0.251476
21
-0.933941
0
LINE
8
BLACK
6
CONTINUOUS
10
0.251476
20
-0.933941
11
0.250109
21
-0.931206
0
LINE
8
BLACK
6
CONTINUOUS
10
0.250109
20
-0.931206
11
0.250292
21
-0.928155
0
LINE
8
BLACK
6
CONTINUOUS
10
0.250292
20
-0.928155
11
0.269977
21
-0.8691
0
LINE
8
BLACK
6
CONTINUOUS
10
0.269977
20
-0.8691
11
0.27063
21
-0.86811
0
LINE
8
BLACK
6
CONTINUOUS
10
0.27063
20
-0.86811
11
0.271161
21
-0.867049
0
LINE
8
BLACK
6
CONTINUOUS
10
0.271161
20
-0.867049
11
0.271462
21
-0.86685
0
LINE
8
BLACK
6
CONTINUOUS
10
0.271462
20
-0.86685
11
0.271661
21
-0.866549
0
LINE
8
BLACK
6
CONTINUOUS
10
0.271661
20
-0.866549
11
0.272722
21
-0.866018
0
LINE
8
BLACK
6
CONTINUOUS
10
0.272722
20
-0.866018
11
0.273712
21
-0.865365
0
LINE
8
BLACK
6
CONTINUOUS
10
0.273712
20
-0.865365
11
0.274072
21
-0.865343
0
LINE
8
BLACK
6
CONTINUOUS
10
0.274072
20
-0.865343
11
0.274395
21
-0.865182
0
LINE
8
BLACK
6
CONTINUOUS
10
0.274395
20
-0.865182
11
0.275579
21
-0.865253
0
LINE
8
BLACK
6
CONTINUOUS
10
0.275579
20
-0.865253
11
0.276763
21
-0.865182
0
LINE
8
BLACK
6
CONTINUOUS
10
0.276763
20
-0.865182
11
0.277086
21
-0.865343
0
LINE
8
BLACK
6
CONTINUOUS
10
0.277086
20
-0.865343
11
0.277447
21
-0.865365
0
LINE
8
BLACK
6
CONTINUOUS
10
0.277447
20
-0.865365
11
0.278437
21
-0.866019
0
LINE
8
BLACK
6
CONTINUOUS
10
0.278437
20
-0.866019
11
0.279497
21
-0.866549
0
LINE
8
BLACK
6
CONTINUOUS
10
0.279497
20
-0.866549
11
0.279696
21
-0.86685
0
LINE
8
BLACK
6
CONTINUOUS
10
0.279696
20
-0.86685
11
0.279998
21
-0.867049
0
LINE
8
BLACK
6
CONTINUOUS
10
0.279998
20
-0.867049
11
0.280528
21
-0.86811
0
LINE
8
BLACK
6
CONTINUOUS
10
0.280528
20
-0.86811
11
0.281182
21
-0.8691
0
LINE
8
BLACK
6
CONTINUOUS
10
0.281182
20
-0.8691
11
0.300867
21
-0.928155
0
LINE
8
BLACK
6
CONTINUOUS
10
0.300867
20
-0.928155
11
0.300911
21
-0.92889
0
LINE
8
BLACK
6
CONTINUOUS
10
0.300911
20
-0.92889
11
0.301399
21
-0.92707
0
LINE
8
BLACK
6
CONTINUOUS
10
0.301399
20
-0.92707
11
0.30356
21
-0.924908
0
LINE
8
BLACK
6
CONTINUOUS
10
0.30356
20
-0.924908
11
0.306513
21
-0.924117
0
LINE
8
BLACK
6
CONTINUOUS
10
0.306513
20
-0.924117
11
0.328729
21
-0.924117
0
LINE
8
BLACK
6
CONTINUOUS
10
0.328729
20
-0.924117
11
0.328729
21
-0.870967
0
LINE
8
BLACK
6
CONTINUOUS
10
0.328729
20
-0.870967
11
0.32952
21
-0.868015
0
LINE
8
BLACK
6
CONTINUOUS
10
0.32952
20
-0.868015
11
0.331682
21
-0.865853
0
LINE
8
BLACK
6
CONTINUOUS
10
0.331682
20
-0.865853
11
0.334634
21
-0.865062
0
LINE
8
BLACK
6
CONTINUOUS
10
0.334634
20
-0.865062
11
0.337587
21
-0.865853
0
LINE
8
BLACK
6
CONTINUOUS
10
0.337587
20
-0.865853
11
0.339749
21
-0.868015
0
LINE
8
BLACK
6
CONTINUOUS
10
0.339749
20
-0.868015
11
0.34054
21
-0.870967
0
LINE
8
BLACK
6
CONTINUOUS
10
0.34054
20
-0.870967
11
0.34054
21
-0.930022
0
LINE
8
BLACK
6
CONTINUOUS
10
0.34054
20
-0.930022
11
0.339749
21
-0.932975
0
LINE
8
BLACK
6
CONTINUOUS
10
0.339749
20
-0.932975
11
0.337587
21
-0.935137
0
LINE
8
BLACK
6
CONTINUOUS
10
0.337587
20
-0.935137
11
0.334634
21
-0.935928
0
LINE
8
BLACK
6
CONTINUOUS
10
0.334634
20
-0.935928
11
0.306513
21
-0.935928
0
LINE
8
BLACK
6
CONTINUOUS
10
0.306513
20
-0.935928
11
0.30356
21
-0.935137
0
LINE
8
BLACK
6
CONTINUOUS
10
0.269712
20
-0.907244
11
0.281447
21
-0.907244
0
LINE
8
BLACK
6
CONTINUOUS
10
0.281447
20
-0.907244
11
0.275579
21
-0.889642
0
LINE
8
BLACK
6
CONTINUOUS
10
0.275579
20
-0.889642
11
0.269712
21
-0.907244
0
LINE
8
BLACK
6
CONTINUOUS
10
0.403362
20
-0.865393
11
0.404623
21
-0.865616
0
LINE
8
BLACK
6
CONTINUOUS
10
0.404623
20
-0.865616
11
0.404825
21
-0.865785
0
LINE
8
BLACK
6
CONTINUOUS
10
0.404825
20
-0.865785
11
0.405079
21
-0.865853
0
LINE
8
BLACK
6
CONTINUOUS
10
0.405079
20
-0.865853
11
0.405984
21
-0.866758
0
LINE
8
BLACK
6
CONTINUOUS
10
0.405984
20
-0.866758
11
0.406964
21
-0.867581
0
LINE
8
BLACK
6
CONTINUOUS
10
0.406964
20
-0.867581
11
0.407054
21
-0.867829
0
LINE
8
BLACK
6
CONTINUOUS
10
0.407054
20
-0.867829
11
0.40724
21
-0.868015
0
LINE
8
BLACK
6
CONTINUOUS
10
0.40724
20
-0.868015
11
0.407572
21
-0.869251
0
LINE
8
BLACK
6
CONTINUOUS
10
0.407572
20
-0.869251
11
0.408009
21
-0.870454
0
LINE
8
BLACK
6
CONTINUOUS
10
0.408009
20
-0.870454
11
0.407963
21
-0.870713
0
LINE
8
BLACK
6
CONTINUOUS
10
0.407963
20
-0.870713
11
0.408031
21
-0.870967
0
LINE
8
BLACK
6
CONTINUOUS
10
0.408031
20
-0.870967
11
0.408031
21
-0.930022
0
LINE
8
BLACK
6
CONTINUOUS
10
0.408031
20
-0.930022
11
0.40724
21
-0.932975
0
LINE
8
BLACK
6
CONTINUOUS
10
0.40724
20
-0.932975
11
0.405079
21
-0.935137
0
LINE
8
BLACK
6
CONTINUOUS
10
0.405079
20
-0.935137
11
0.402126
21
-0.935928
0
LINE
8
BLACK
6
CONTINUOUS
10
0.402126
20
-0.935928
11
0.399173
21
-0.935137
0
LINE
8
BLACK
6
CONTINUOUS
10
0.399173
20
-0.935137
11
0.397012
21
-0.932975
0
LINE
8
BLACK
6
CONTINUOUS
10
0.397012
20
-0.932975
11
0.39622
21
-0.930022
0
LINE
8
BLACK
6
CONTINUOUS
10
0.39622
20
-0.930022
11
0.39622
21
-0.897587
0
LINE
8
BLACK
6
CONTINUOUS
10
0.39622
20
-0.897587
11
0.387792
21
-0.915647
0
LINE
8
BLACK
6
CONTINUOUS
10
0.387792
20
-0.915647
11
0.387457
21
-0.916046
0
LINE
8
BLACK
6
CONTINUOUS
10
0.387457
20
-0.916046
11
0.387279
21
-0.916535
0
LINE
8
BLACK
6
CONTINUOUS
10
0.387279
20
-0.916535
11
0.38649
21
-0.917199
0
LINE
8
BLACK
6
CONTINUOUS
10
0.38649
20
-0.917199
11
0.385827
21
-0.917988
0
LINE
8
BLACK
6
CONTINUOUS
10
0.385827
20
-0.917988
11
0.385337
21
-0.918166
0
LINE
8
BLACK
6
CONTINUOUS
10
0.385337
20
-0.918166
11
0.384938
21
-0.918501
0
LINE
8
BLACK
6
CONTINUOUS
10
0.384938
20
-0.918501
11
0.383923
21
-0.91868
0
LINE
8
BLACK
6
CONTINUOUS
10
0.383923
20
-0.91868
11
0.382954
21
-0.919033
0
LINE
8
BLACK
6
CONTINUOUS
10
0.382954
20
-0.919033
11
0.382441
21
-0.918942
0
LINE
8
BLACK
6
CONTINUOUS
10
0.382441
20
-0.918942
11
0.381928
21
-0.919033
0
LINE
8
BLACK
6
CONTINUOUS
10
0.381928
20
-0.919033
11
0.380959
21
-0.91868
0
LINE
8
BLACK
6
CONTINUOUS
10
0.380959
20
-0.91868
11
0.379944
21
-0.918501
0
LINE
8
BLACK
6
CONTINUOUS
10
0.379944
20
-0.918501
11
0.379545
21
-0.918166
0
LINE
8
BLACK
6
CONTINUOUS
10
0.379545
20
-0.918166
11
0.379055
21
-0.917988
0
LINE
8
BLACK
6
CONTINUOUS
10
0.379055
20
-0.917988
11
0.378392
21
-0.917198
0
LINE
8
BLACK
6
CONTINUOUS
10
0.378392
20
-0.917198
11
0.377602
21
-0.916535
0
LINE
8
BLACK
6
CONTINUOUS
10
0.377602
20
-0.916535
11
0.377424
21
-0.916046
0
LINE
8
BLACK
6
CONTINUOUS
10
0.377424
20
-0.916046
11
0.377089
21
-0.915647
0
LINE
8
BLACK
6
CONTINUOUS
10
0.377089
20
-0.915647
11
0.368661
21
-0.897587
0
LINE
8
BLACK
6
CONTINUOUS
10
0.368661
20
-0.897587
11
0.368661
21
-0.930022
0
LINE
8
BLACK
6
CONTINUOUS
10
0.368661
20
-0.930022
11
0.36787
21
-0.932975
0
LINE
8
BLACK
6
CONTINUOUS
10
0.36787
20
-0.932975
11
0.365709
21
-0.935137
0
LINE
8
BLACK
6
CONTINUOUS
10
0.365709
20
-0.935137
11
0.362756
21
-0.935928
0
LINE
8
BLACK
6
CONTINUOUS
10
0.362756
20
-0.935928
11
0.359803
21
-0.935137
0
LINE
8
BLACK
6
CONTINUOUS
10
0.359803
20
-0.935137
11
0.357642
21
-0.932975
0
LINE
8
BLACK
6
CONTINUOUS
10
0.357642
20
-0.932975
11
0.35685
21
-0.930022
0
LINE
8
BLACK
6
CONTINUOUS
10
0.35685
20
-0.930022
11
0.35685
21
-0.870967
0
LINE
8
BLACK
6
CONTINUOUS
10
0.35685
20
-0.870967
11
0.356918
21
-0.870713
0
LINE
8
BLACK
6
CONTINUOUS
10
0.356918
20
-0.870713
11
0.356873
21
-0.870454
0
LINE
8
BLACK
6
CONTINUOUS
10
0.356873
20
-0.870454
11
0.35731
21
-0.869251
0
LINE
8
BLACK
6
CONTINUOUS
10
0.35731
20
-0.869251
11
0.357642
21
-0.868015
0
LINE
8
BLACK
6
CONTINUOUS
10
0.357642
20
-0.868015
11
0.357828
21
-0.867829
0
LINE
8
BLACK
6
CONTINUOUS
10
0.357828
20
-0.867829
11
0.357917
21
-0.867582
0
LINE
8
BLACK
6
CONTINUOUS
10
0.357917
20
-0.867582
11
0.358898
21
-0.866758
0
LINE
8
BLACK
6
CONTINUOUS
10
0.358898
20
-0.866758
11
0.359803
21
-0.865853
0
LINE
8
BLACK
6
CONTINUOUS
10
0.359803
20
-0.865853
11
0.360057
21
-0.865785
0
LINE
8
BLACK
6
CONTINUOUS
10
0.360057
20
-0.865785
11
0.360259
21
-0.865616
0
LINE
8
BLACK
6
CONTINUOUS
10
0.360259
20
-0.865616
11
0.361519
21
-0.865393
0
LINE
8
BLACK
6
CONTINUOUS
10
0.361519
20
-0.865393
11
0.362756
21
-0.865062
0
LINE
8
BLACK
6
CONTINUOUS
10
0.362756
20
-0.865062
11
0.36301
21
-0.86513
0
LINE
8
BLACK
6
CONTINUOUS
10
0.36301
20
-0.86513
11
0.363269
21
-0.865084
0
LINE
8
BLACK
6
CONTINUOUS
10
0.363269
20
-0.865084
11
0.364472
21
-0.865522
0
LINE
8
BLACK
6
CONTINUOUS
10
0.364472
20
-0.865522
11
0.365709
21
-0.865853
0
LINE
8
BLACK
6
CONTINUOUS
10
0.365709
20
-0.865853
11
0.365895
21
-0.866039
0
LINE
8
BLACK
6
CONTINUOUS
10
0.365895
20
-0.866039
11
0.366142
21
-0.866129
0
LINE
8
BLACK
6
CONTINUOUS
10
0.366142
20
-0.866129
11
0.366965
21
-0.867109
0
LINE
8
BLACK
6
CONTINUOUS
10
0.366965
20
-0.867109
11
0.36787
21
-0.868015
0
LINE
8
BLACK
6
CONTINUOUS
10
0.36787
20
-0.868015
11
0.367938
21
-0.868269
0
LINE
8
BLACK
6
CONTINUOUS
10
0.367938
20
-0.868269
11
0.368107
21
-0.86847
0
LINE
8
BLACK
6
CONTINUOUS
10
0.368107
20
-0.86847
11
0.382441
21
-0.899185
0
LINE
8
BLACK
6
CONTINUOUS
10
0.382441
20
-0.899185
11
0.396775
21
-0.86847
0
LINE
8
BLACK
6
CONTINUOUS
10
0.396775
20
-0.86847
11
0.396944
21
-0.868269
0
LINE
8
BLACK
6
CONTINUOUS
10
0.396944
20
-0.868269
11
0.397012
21
-0.868015
0
LINE
8
BLACK
6
CONTINUOUS
10
0.397012
20
-0.868015
11
0.397917
21
-0.867109
0
LINE
8
BLACK
6
CONTINUOUS
10
0.397917
20
-0.867109
11
0.39874
21
-0.866129
0
LINE
8
BLACK
6
CONTINUOUS
10
0.39874
20
-0.866129
11
0.398987
21
-0.866039
0
LINE
8
BLACK
6
CONTINUOUS
10
0.398987
20
-0.866039
11
0.399173
21
-0.865853
0
LINE
8
BLACK
6
CONTINUOUS
10
0.399173
20
-0.865853
11
0.40041
21
-0.865522
0
LINE
8
BLACK
6
CONTINUOUS
10
0.40041
20
-0.865522
11
0.401613
21
-0.865084
0
LINE
8
BLACK
6
CONTINUOUS
10
0.401613
20
-0.865084
11
0.401872
21
-0.86513
0
LINE
8
BLACK
6
CONTINUOUS
10
0.401872
20
-0.86513
11
0.402126
21
-0.865062
0
LINE
8
BLACK
6
CONTINUOUS
10
0.402126
20
-0.865062
11
0.403362
21
-0.865393
0
LINE
8
BLACK
6
CONTINUOUS
10
0.0086502
20
-0.682207
11
0.0221317
21
-0.683982
0
LINE
8
BLACK
6
CONTINUOUS
10
0.0221317
20
-0.683982
11
0.0353198
21
-0.687294
0
LINE
8
BLACK
6
CONTINUOUS
10
0.0353198
20
-0.687294
11
0.0480398
21
-0.692101
0
LINE
8
BLACK
6
CONTINUOUS
10
0.0480398
20
-0.692101
11
0.060123
21
-0.698338
0
LINE
8
BLACK
6
CONTINUOUS
10
0.060123
20
-0.698338
11
0.0714093
21
-0.705922
0
LINE
8
BLACK
6
CONTINUOUS
10
0.0714093
20
-0.705922
11
0.0817492
21
-0.714753
0
LINE
8
BLACK
6
CONTINUOUS
10
0.0817492
20
-0.714753
11
0.0910055
21
-0.724714
0
LINE
8
BLACK
6
CONTINUOUS
10
0.0910055
20
-0.724714
11
0.0990556
21
-0.735673
0
LINE
8
BLACK
6
CONTINUOUS
10
0.0990556
20
-0.735673
11
0.105793
21
-0.747484
0
LINE
8
BLACK
6
CONTINUOUS
10
0.105793
20
-0.747484
11
0.111128
21
-0.759992
0
LINE
8
BLACK
6
CONTINUOUS
10
0.111128
20
-0.759992
11
0.11499
21
-0.773029
0
LINE
8
BLACK
6
CONTINUOUS
10
0.11499
20
-0.773029
11
0.117327
21
-0.786425
0
LINE
8
BLACK
6
CONTINUOUS
10
0.117327
20
-0.786425
11
0.11811
21
-0.8
0
LINE
8
BLACK
6
CONTINUOUS
10
0.11811
20
-0.8
11
0.117877
21
-0.807416
0
LINE
8
BLACK
6
CONTINUOUS
10
0.117877
20
-0.807416
11
0.116244
21
-0.820916
0
LINE
8
BLACK
6
CONTINUOUS
10
0.116244
20
-0.820916
11
0.113069
21
-0.834138
0
LINE
8
BLACK
6
CONTINUOUS
10
0.113069
20
-0.834138
11
0.108396
21
-0.846907
0
LINE
8
BLACK
6
CONTINUOUS
10
0.108396
20
-0.846907
11
0.102286
21
-0.859055
0
LINE
8
BLACK
6
CONTINUOUS
10
0.102286
20
-0.859055
11
0.0948209
21
-0.87042
0
LINE
8
BLACK
6
CONTINUOUS
10
0.0948209
20
-0.87042
11
0.0860987
21
-0.880852
0
LINE
8
BLACK
6
CONTINUOUS
10
0.0860987
20
-0.880852
11
0.0762352
21
-0.890212
0
LINE
8
BLACK
6
CONTINUOUS
10
0.0762352
20
-0.890212
11
0.0653612
21
-0.898377
0
LINE
8
BLACK
6
CONTINUOUS
10
0.0653612
20
-0.898377
11
0.0536209
21
-0.905237
0
LINE
8
BLACK
6
CONTINUOUS
10
0.0536209
20
-0.905237
11
0.0411699
21
-0.910703
0
LINE
8
BLACK
6
CONTINUOUS
10
0.0411699
20
-0.910703
11
0.0281732
21
-0.914701
0
LINE
8
BLACK
6
CONTINUOUS
10
0.0281732
20
-0.914701
11
0.0148031
21
-0.917179
0
LINE
8
BLACK
6
CONTINUOUS
10
0.0148031
20
-0.917179
11
0.00123681
21
-0.918104
0
LINE
8
BLACK
6
CONTINUOUS
10
0.00123681
20
-0.918104
11
-0.0123459
21
-0.917463
0
LINE
8
BLACK
6
CONTINUOUS
10
-0.0123459
20
-0.917463
11
-0.025765
21
-0.915266
0
LINE
8
BLACK
6
CONTINUOUS
10
-0.025765
20
-0.915266
11
-0.0388425
21
-0.911541
0
LINE
8
BLACK
6
CONTINUOUS
10
-0.0388425
20
-0.911541
11
-0.0514052
21
-0.906337
0
LINE
8
BLACK
6
CONTINUOUS
10
-0.0514052
20
-0.906337
11
-0.0632866
21
-0.899724
0
LINE
8
BLACK
6
CONTINUOUS
10
-0.0632866
20
-0.899724
11
-0.0743292
21
-0.891789
0
LINE
8
BLACK
6
CONTINUOUS
10
-0.0743292
20
-0.891789
11
-0.0843865
21
-0.882637
0
LINE
8
BLACK
6
CONTINUOUS
10
-0.0843865
20
-0.882637
11
-0.0933254
21
-0.872391
0
LINE
8
BLACK
6
CONTINUOUS
10
-0.0933254
20
-0.872391
11
-0.101027
21
-0.861184
0
LINE
8
BLACK
6
CONTINUOUS
10
-0.101027
20
-0.861184
11
-0.10739
21
-0.849167
0
LINE
8
BLACK
6
CONTINUOUS
10
-0.10739
20
-0.849167
11
-0.11233
21
-0.836498
0
LINE
8
BLACK
6
CONTINUOUS
10
-0.11233
20
-0.836498
11
-0.11578
21
-0.823345
0
LINE
8
BLACK
6
CONTINUOUS
10
-0.11578
20
-0.823345
11
-0.117696
21
-0.809883
0
LINE
8
BLACK
6
CONTINUOUS
10
-0.117696
20
-0.809883
11
-0.118052
21
-0.79629
0
LINE
8
BLACK
6
CONTINUOUS
10
-0.118052
20
-0.79629
11
-0.116843
21
-0.782746
0
LINE
8
BLACK
6
CONTINUOUS
10
-0.116843
20
-0.782746
11
-0.114086
21
-0.769431
0
LINE
8
BLACK
6
CONTINUOUS
10
-0.114086
20
-0.769431
11
-0.109816
21
-0.756521
0
LINE
8
BLACK
6
CONTINUOUS
10
-0.109816
20
-0.756521
11
-0.104091
21
-0.744187
0
LINE
8
BLACK
6
CONTINUOUS
10
-0.104091
20
-0.744187
11
-0.0969861
21
-0.732593
0
LINE
8
BLACK
6
CONTINUOUS
10
-0.0969861
20
-0.732593
11
-0.0885958
21
-0.721892
0
LINE
8
BLACK
6
CONTINUOUS
10
-0.0885958
20
-0.721892
11
-0.0790312
21
-0.712227
0
LINE
8
BLACK
6
CONTINUOUS
10
-0.0790312
20
-0.712227
11
-0.0684191
21
-0.703725
0
LINE
8
BLACK
6
CONTINUOUS
10
-0.0684191
20
-0.703725
11
-0.0569
21
-0.696499
0
LINE
8
BLACK
6
CONTINUOUS
10
-0.0569
20
-0.696499
11
-0.0446269
21
-0.690645
0
LINE
8
BLACK
6
CONTINUOUS
10
-0.0446269
20
-0.690645
11
-0.0317622
21
-0.686241
0
LINE
8
BLACK
6
CONTINUOUS
10
-0.0317622
20
-0.686241
11
-0.0184765
21
-0.683344
0
LINE
8
BLACK
6
CONTINUOUS
10
-0.0184765
20
-0.683344
11
-0.00494594
21
-0.681993
0
LINE
8
BLACK
6
CONTINUOUS
10
-0.00494594
20
-0.681993
11
0.0086502
21
-0.682207
0
LINE
8
BLACK
6
CONTINUOUS
10
1.60865
20
-0.682207
11
1.62213
21
-0.683982
0
LINE
8
BLACK
6
CONTINUOUS
10
1.62213
20
-0.683982
11
1.63532
21
-0.687294
0
LINE
8
BLACK
6
CONTINUOUS
10
1.63532
20
-0.687294
11
1.64804
21
-0.692101
0
LINE
8
BLACK
6
CONTINUOUS
10
1.64804
20
-0.692101
11
1.66012
21
-0.698338
0
LINE
8
BLACK
6
CONTINUOUS
10
1.66012
20
-0.698338
11
1.67141
21
-0.705922
0
LINE
8
BLACK
6
CONTINUOUS
10
1.67141
20
-0.705922
11
1.68175
21
-0.714753
0
LINE
8
BLACK
6
CONTINUOUS
10
1.68175
20
-0.714753
11
1.69101
21
-0.724714
0
LINE
8
BLACK
6
CONTINUOUS
10
1.69101
20
-0.724714
11
1.69906
21
-0.735673
0
LINE
8
BLACK
6
CONTINUOUS
10
1.69906
20
-0.735673
11
1.70579
21
-0.747484
0
LINE
8
BLACK
6
CONTINUOUS
10
1.70579
20
-0.747484
11
1.71113
21
-0.759992
0
LINE
8
BLACK
6
CONTINUOUS
10
1.71113
20
-0.759992
11
1.71499
21
-0.773029
0
LINE
8
BLACK
6
CONTINUOUS
10
1.71499
20
-0.773029
11
1.71733
21
-0.786425
0
LINE
8
BLACK
6
CONTINUOUS
10
1.71733
20
-0.786425
11
1.71811
21
-0.8
0
LINE
8
BLACK
6
CONTINUOUS
10
1.71811
20
-0.8
11
1.71788
21
-0.807416
0
LINE
8
BLACK
6
CONTINUOUS
10
1.71788
20
-0.807416
11
1.71624
21
-0.820916
0
LINE
8
BLACK
6
CONTINUOUS
10
1.71624
20
-0.820916
11
1.71307
21
-0.834138
0
LINE
8
BLACK
6
CONTINUOUS
10
1.71307
20
-0.834138
11
1.7084
21
-0.846907
0
LINE
8
BLACK
6
CONTINUOUS
10
1.7084
20
-0.846907
11
1.70229
21
-0.859055
0
LINE
8
BLACK
6
CONTINUOUS
10
1.70229
20
-0.859055
11
1.69482
21
-0.87042
0
LINE
8
BLACK
6
CONTINUOUS
10
1.69482
20
-0.87042
11
1.6861
21
-0.880852
0
LINE
8
BLACK
6
CONTINUOUS
10
1.6861
20
-0.880852
11
1.67624
21
-0.890212
0
LINE
8
BLACK
6
CONTINUOUS
10
1.67624
20
-0.890212
11
1.66536
21
-0.898377
0
LINE
8
BLACK
6
CONTINUOUS
10
1.66536
20
-0.898377
11
1.65362
21
-0.905237
0
LINE
8
BLACK
6
CONTINUOUS
10
1.65362
20
-0.905237
11
1.64117
21
-0.910703
0
LINE
8
BLACK
6
CONTINUOUS
10
1.64117
20
-0.910703
11
1.62817
21
-0.914701
0
LINE
8
BLACK
6
CONTINUOUS
10
1.62817
20
-0.914701
11
1.6148
21
-0.917179
0
LINE
8
BLACK
6
CONTINUOUS
10
1.6148
20
-0.917179
11
1.60124
21
-0.918104
0
LINE
8
BLACK
6
CONTINUOUS
10
1.60124
20
-0.918104
11
1.58765
21
-0.917463
0
LINE
8
BLACK
6
CONTINUOUS
10
1.58765
20
-0.917463
11
1.57424
21
-0.915266
0
LINE
8
BLACK
6
CONTINUOUS
10
1.57424
20
-0.915266
11
1.56116
21
-0.911541
0
LINE
8
BLACK
6
CONTINUOUS
10
1.56116
20
-0.911541
11
1.54859
21
-0.906337
0
LINE
8
BLACK
6
CONTINUOUS
10
1.54859
20
-0.906337
11
1.53671
21
-0.899724
0
LINE
8
BLACK
6
CONTINUOUS
10
1.53671
20
-0.899724
11
1.52567
21
-0.891789
0
LINE
8
BLACK
6
CONTINUOUS
10
1.52567
20
-0.891789
11
1.51561
21
-0.882637
0
LINE
8
BLACK
6
CONTINUOUS
10
1.51561
20
-0.882637
11
1.50667
21
-0.872391
0
LINE
8
BLACK
6
CONTINUOUS
10
1.50667
20
-0.872391
11
1.49897
21
-0.861184
0
LINE
8
BLACK
6
CONTINUOUS
10
1.49897
20
-0.861184
11
1.49261
21
-0.849167
0
LINE
8
BLACK
6
CONTINUOUS
10
1.49261
20
-0.849167
11
1.48767
21
-0.836498
0
LINE
8
BLACK
6
CONTINUOUS
10
1.48767
20
-0.836498
11
1.48422
21
-0.823345
0
LINE
8
BLACK
6
CONTINUOUS
10
1.48422
20
-0.823345
11
1.4823
21
-0.809883
0
LINE
8
BLACK
6
CONTINUOUS
10
1.4823
20
-0.809883
11
1.48195
21
-0.79629
0
LINE
8
BLACK
6
CONTINUOUS
10
1.48195
20
-0.79629
11
1.48316
21
-0.782746
0
LINE
8
BLACK
6
CONTINUOUS
10
1.48316
20
-0.782746
11
1.48591
21
-0.769431
0
LINE
8
BLACK
6
CONTINUOUS
10
1.48591
20
-0.769431
11
1.49018
21
-0.756521
0
LINE
8
BLACK
6
CONTINUOUS
10
1.49018
20
-0.756521
11
1.49591
21
-0.744187
0
LINE
8
BLACK
6
CONTINUOUS
10
1.49591
20
-0.744187
11
1.50301
21
-0.732593
0
LINE
8
BLACK
6
CONTINUOUS
10
1.50301
20
-0.732593
11
1.5114
21
-0.721892
0
LINE
8
BLACK
6
CONTINUOUS
10
1.5114
20
-0.721892
11
1.52097
21
-0.712227
0
LINE
8
BLACK
6
CONTINUOUS
10
1.52097
20
-0.712227
11
1.53158
21
-0.703725
0
LINE
8
BLACK
6
CONTINUOUS
10
1.53158
20
-0.703725
11
1.5431
21
-0.696499
0
LINE
8
BLACK
6
CONTINUOUS
10
1.5431
20
-0.696499
11
1.55537
21
-0.690645
0
LINE
8
BLACK
6
CONTINUOUS
10
1.55537
20
-0.690645
11
1.56824
21
-0.686241
0
LINE
8
BLACK
6
CONTINUOUS
10
1.56824
20
-0.686241
11
1.58152
21
-0.683344
0
LINE
8
BLACK
6
CONTINUOUS
10
1.58152
20
-0.683344
11
1.59505
21
-0.681993
0
LINE
8
BLACK
6
CONTINUOUS
10
1.59505
20
-0.681993
11
1.60865
21
-0.682207
0
LINE
8
BLACK
6
CONTINUOUS
10
0.245669
20
-0.646457
11
0.228296
21
-0.646457
0
LINE
8
BLACK
6
CONTINUOUS
10
0.228296
20
-0.646457
11
0.227367
21
-0.647386
0
LINE
8
BLACK
6
CONTINUOUS
10
0.227367
20
-0.647386
11
0.222977
21
-0.649623
0
LINE
8
BLACK
6
CONTINUOUS
10
0.222977
20
-0.649623
11
0.21811
21
-0.650394
0
LINE
8
BLACK
6
CONTINUOUS
10
0.21811
20
-0.650394
11
0.213244
21
-0.649623
0
LINE
8
BLACK
6
CONTINUOUS
10
0.213244
20
-0.649623
11
0.208854
21
-0.647386
0
LINE
8
BLACK
6
CONTINUOUS
10
0.208854
20
-0.647386
11
0.207924
21
-0.646457
0
LINE
8
BLACK
6
CONTINUOUS
10
0.207924
20
-0.646457
11
0.166929
21
-0.646457
0
LINE
8
BLACK
6
CONTINUOUS
10
0.166929
20
-0.646457
11
0.166929
21
-0.49685
0
LINE
8
BLACK
6
CONTINUOUS
10
0.166929
20
-0.49685
11
0.245669
21
-0.49685
0
LINE
8
BLACK
6
CONTINUOUS
10
0.245669
20
-0.49685
11
0.245669
21
-0.646457
0
LINE
8
BLACK
6
CONTINUOUS
10
0.893942
20
-0.301732
11
0.895772
21
-0.303845
0
LINE
8
BLACK
6
CONTINUOUS
10
0.895772
20
-0.303845
11
0.89622
21
-0.305906
0
LINE
8
BLACK
6
CONTINUOUS
10
0.89622
20
-0.305906
11
0.89622
21
-0.492835
0
LINE
8
BLACK
6
CONTINUOUS
10
0.89622
20
-0.492835
11
0.895433
21
-0.495517
0
LINE
8
BLACK
6
CONTINUOUS
10
0.895433
20
-0.495517
11
0.893321
21
-0.497347
0
LINE
8
BLACK
6
CONTINUOUS
10
0.893321
20
-0.497347
11
0.89126
21
-0.497795
0
LINE
8
BLACK
6
CONTINUOUS
10
0.89126
20
-0.497795
11
0.704331
21
-0.497795
0
LINE
8
BLACK
6
CONTINUOUS
10
0.704331
20
-0.497795
11
0.701649
21
-0.497008
0
LINE
8
BLACK
6
CONTINUOUS
10
0.701649
20
-0.497008
11
0.699818
21
-0.494895
0
LINE
8
BLACK
6
CONTINUOUS
10
0.699818
20
-0.494895
11
0.69937
21
-0.492835
0
LINE
8
BLACK
6
CONTINUOUS
10
0.69937
20
-0.492835
11
0.69937
21
-0.305906
0
LINE
8
BLACK
6
CONTINUOUS
10
0.69937
20
-0.305906
11
0.700158
21
-0.303224
0
LINE
8
BLACK
6
CONTINUOUS
10
0.700158
20
-0.303224
11
0.70227
21
-0.301393
0
LINE
8
BLACK
6
CONTINUOUS
10
0.70227
20
-0.301393
11
0.704331
21
-0.300945
0
LINE
8
BLACK
6
CONTINUOUS
10
0.704331
20
-0.300945
11
0.89126
21
-0.300945
0
LINE
8
BLACK
6
CONTINUOUS
10
0.89126
20
-0.300945
11
0.893942
21
-0.301732
0
LINE
8
BLACK
6
CONTINUOUS
10
0.247638
20
-0.303937
11
0.180017
21
-0.303937
0
LINE
8
BLACK
6
CONTINUOUS
10
0.180017
20
-0.303937
11
0.144125
21
-0.339829
0
LINE
8
BLACK
6
CONTINUOUS
10
0.144125
20
-0.339829
11
0.14301
21
-0.340527
0
LINE
8
BLACK
6
CONTINUOUS
10
0.14301
20
-0.340527
11
0.141982
21
-0.341347
0
LINE
8
BLACK
6
CONTINUOUS
10
0.141982
20
-0.341347
11
0.14154
21
-0.341448
0
LINE
8
BLACK
6
CONTINUOUS
10
0.14154
20
-0.341448
11
0.141156
21
-0.341688
0
LINE
8
BLACK
6
CONTINUOUS
10
0.141156
20
-0.341688
11
0.139849
21
-0.341834
0
LINE
8
BLACK
6
CONTINUOUS
10
0.139849
20
-0.341834
11
0.138567
21
-0.342126
0
LINE
8
BLACK
6
CONTINUOUS
10
0.138567
20
-0.342126
11
-0.00188976
21
-0.342126
0
LINE
8
BLACK
6
CONTINUOUS
10
-0.00188976
20
-0.342126
11
-0.00188976
21
-0.364252
0
LINE
8
BLACK
6
CONTINUOUS
10
-0.00188976
20
-0.364252
11
-0.0618898
21
-0.364252
0
LINE
8
BLACK
6
CONTINUOUS
10
-0.0618898
20
-0.364252
11
-0.0618898
21
-0.304252
0
LINE
8
BLACK
6
CONTINUOUS
10
-0.0618898
20
-0.304252
11
-0.00188976
21
-0.304252
0
LINE
8
BLACK
6
CONTINUOUS
10
-0.00188976
20
-0.304252
11
-0.00188976
21
-0.326378
0
LINE
8
BLACK
6
CONTINUOUS
10
-0.00188976
20
-0.326378
11
0.135305
21
-0.326378
0
LINE
8
BLACK
6
CONTINUOUS
10
0.135305
20
-0.326378
11
0.168898
21
-0.292786
0
LINE
8
BLACK
6
CONTINUOUS
10
0.168898
20
-0.292786
11
0.168898
21
-0.154331
0
LINE
8
BLACK
6
CONTINUOUS
10
0.168898
20
-0.154331
11
0.247638
21
-0.154331
0
LINE
8
BLACK
6
CONTINUOUS
10
0.247638
20
-0.154331
11
0.247638
21
-0.303937
0
LINE
8
BLACK
6
CONTINUOUS
10
-0.00188976
20
-0.264252
11
-0.0618898
21
-0.264252
0
LINE
8
BLACK
6
CONTINUOUS
10
-0.0618898
20
-0.264252
11
-0.0618898
21
-0.204252
0
LINE
8
BLACK
6
CONTINUOUS
10
-0.0618898
20
-0.204252
11
-0.00188976
21
-0.204252
0
LINE
8
BLACK
6
CONTINUOUS
10
-0.00188976
20
-0.204252
11
-0.00188976
21
-0.264252
0
LINE
8
BLACK
6
CONTINUOUS
10
0.0086502
20
0.117793
11
0.0221317
21
0.116018
0
LINE
8
BLACK
6
CONTINUOUS
10
0.0221317
20
0.116018
11
0.0353198
21
0.112706
0
LINE
8
BLACK
6
CONTINUOUS
10
0.0353198
20
0.112706
11
0.0480398
21
0.107899
0
LINE
8
BLACK
6
CONTINUOUS
10
0.0480398
20
0.107899
11
0.060123
21
0.101662
0
LINE
8
BLACK
6
CONTINUOUS
10
0.060123
20
0.101662
11
0.0714093
21
0.0940783
0
LINE
8
BLACK
6
CONTINUOUS
10
0.0714093
20
0.0940783
11
0.0817492
21
0.0852473
0
LINE
8
BLACK
6
CONTINUOUS
10
0.0817492
20
0.0852473
11
0.0910055
21
0.0752863
0
LINE
8
BLACK
6
CONTINUOUS
10
0.0910055
20
0.0752863
11
0.0990556
21
0.0643274
0
LINE
8
BLACK
6
CONTINUOUS
10
0.0990556
20
0.0643274
11
0.105793
21
0.052516
0
LINE
8
BLACK
6
CONTINUOUS
10
0.105793
20
0.052516
11
0.111128
21
0.0400084
0
LINE
8
BLACK
6
CONTINUOUS
10
0.111128
20
0.0400084
11
0.11499
21
0.0269706
0
LINE
8
BLACK
6
CONTINUOUS
10
0.11499
20
0.0269706
11
0.117327
21
0.0135752
0
LINE
8
BLACK
6
CONTINUOUS
10
0.117327
20
0.0135752
11
0.11811
21
0
0
LINE
8
BLACK
6
CONTINUOUS
10
0.11811
20
0
11
0.117877
21
-0.00741622
0
LINE
8
BLACK
6
CONTINUOUS
10
0.117877
20
-0.00741622
11
0.116244
21
-0.0209155
0
LINE
8
BLACK
6
CONTINUOUS
10
0.116244
20
-0.0209155
11
0.113069
21
-0.0341376
0
LINE
8
BLACK
6
CONTINUOUS
10
0.113069
20
-0.0341376
11
0.108396
21
-0.0469072
0
LINE
8
BLACK
6
CONTINUOUS
10
0.108396
20
-0.0469072
11
0.102286
21
-0.0590551
0
LINE
8
BLACK
6
CONTINUOUS
10
0.102286
20
-0.0590551
11
0.0948209
21
-0.0704203
0
LINE
8
BLACK
6
CONTINUOUS
10
0.0948209
20
-0.0704203
11
0.0860987
21
-0.080852
0
LINE
8
BLACK
6
CONTINUOUS
10
0.0860987
20
-0.080852
11
0.0762352
21
-0.0902121
0
LINE
8
BLACK
6
CONTINUOUS
10
0.0762352
20
-0.0902121
11
0.0653612
21
-0.0983765
0
LINE
8
BLACK
6
CONTINUOUS
10
0.0653612
20
-0.0983765
11
0.0536209
21
-0.105237
0
LINE
8
BLACK
6
CONTINUOUS
10
0.0536209
20
-0.105237
11
0.0411699
21
-0.110703
0
LINE
8
BLACK
6
CONTINUOUS
10
0.0411699
20
-0.110703
11
0.0281732
21
-0.114701
0
LINE
8
BLACK
6
CONTINUOUS
10
0.0281732
20
-0.114701
11
0.0148031
21
-0.117179
0
LINE
8
BLACK
6
CONTINUOUS
10
0.0148031
20
-0.117179
11
0.00123681
21
-0.118104
0
LINE
8
BLACK
6
CONTINUOUS
10
0.00123681
20
-0.118104
11
-0.0123459
21
-0.117463
0
LINE
8
BLACK
6
CONTINUOUS
10
-0.0123459
20
-0.117463
11
-0.025765
21
-0.115266
0
LINE
8
BLACK
6
CONTINUOUS
10
-0.025765
20
-0.115266
11
-0.0388425
21
-0.111541
0
LINE
8
BLACK
6
CONTINUOUS
10
-0.0388425
20
-0.111541
11
-0.0514052
21
-0.106337
0
LINE
8
BLACK
6
CONTINUOUS
10
-0.0514052
20
-0.106337
11
-0.0632866
21
-0.0997238
0
LINE
8
BLACK
6
CONTINUOUS
10
-0.0632866
20
-0.0997238
11
-0.0743292
21
-0.0917889
0
LINE
8
BLACK
6
CONTINUOUS
10
-0.0743292
20
-0.0917889
11
-0.0843865
21
-0.0826374
0
LINE
8
BLACK
6
CONTINUOUS
10
-0.0843865
20
-0.0826374
11
-0.0933254
21
-0.0723906
0
LINE
8
BLACK
6
CONTINUOUS
10
-0.0933254
20
-0.0723906
11
-0.101027
21
-0.0611843
0
LINE
8
BLACK
6
CONTINUOUS
10
-0.101027
20
-0.0611843
11
-0.10739
21
-0.049167
0
LINE
8
BLACK
6
CONTINUOUS
10
-0.10739
20
-0.049167
11
-0.11233
21
-0.0364981
0
LINE
8
BLACK
6
CONTINUOUS
10
-0.11233
20
-0.0364981
11
-0.11578
21
-0.0233454
0
LINE
8
BLACK
6
CONTINUOUS
10
-0.11578
20
-0.0233454
11
-0.117696
21
-0.00988323
0
LINE
8
BLACK
6
CONTINUOUS
10
-0.117696
20
-0.00988323
11
-0.118052
21
0.00370992
0
LINE
8
BLACK
6
CONTINUOUS
10
-0.118052
20
0.00370992
11
-0.116843
21
0.0172539
0
LINE
8
BLACK
6
CONTINUOUS
10
-0.116843
20
0.0172539
11
-0.114086
21
0.0305692
0
LINE
8
BLACK
6
CONTINUOUS
10
-0.114086
20
0.0305692
11
-0.109816
21
0.0434793
0
LINE
8
BLACK
6
CONTINUOUS
10
-0.109816
20
0.0434793
11
-0.104091
21
0.0558131
0
LINE
8
BLACK
6
CONTINUOUS
10
-0.104091
20
0.0558131
11
-0.0969861
21
0.0674071
0
LINE
8
BLACK
6
CONTINUOUS
10
-0.0969861
20
0.0674071
11
-0.0885958
21
0.0781077
0
LINE
8
BLACK
6
CONTINUOUS
10
-0.0885958
20
0.0781077
11
-0.0790312
21
0.087773
0
LINE
8
BLACK
6
CONTINUOUS
10
-0.0790312
20
0.087773
11
-0.0684191
21
0.0962749
0
LINE
8
BLACK
6
CONTINUOUS
10
-0.0684191
20
0.0962749
11
-0.0569
21
0.103501
0
LINE
8
BLACK
6
CONTINUOUS
10
-0.0569
20
0.103501
11
-0.0446269
21
0.109355
0
LINE
8
BLACK
6
CONTINUOUS
10
-0.0446269
20
0.109355
11
-0.0317622
21
0.113759
0
LINE
8
BLACK
6
CONTINUOUS
10
-0.0317622
20
0.113759
11
-0.0184765
21
0.116656
0
LINE
8
BLACK
6
CONTINUOUS
10
-0.0184765
20
0.116656
11
-0.00494594
21
0.118007
0
LINE
8
BLACK
6
CONTINUOUS
10
-0.00494594
20
0.118007
11
0.0086502
21
0.117793
0
LINE
8
BLACK
6
CONTINUOUS
10
1.60865
20
0.117793
11
1.62213
21
0.116018
0
LINE
8
BLACK
6
CONTINUOUS
10
1.62213
20
0.116018
11
1.63532
21
0.112706
0
LINE
8
BLACK
6
CONTINUOUS
10
1.63532
20
0.112706
11
1.64804
21
0.107899
0
LINE
8
BLACK
6
CONTINUOUS
10
1.64804
20
0.107899
11
1.66012
21
0.101662
0
LINE
8
BLACK
6
CONTINUOUS
10
1.66012
20
0.101662
11
1.67141
21
0.0940783
0
LINE
8
BLACK
6
CONTINUOUS
10
1.67141
20
0.0940783
11
1.68175
21
0.0852473
0
LINE
8
BLACK
6
CONTINUOUS
10
1.68175
20
0.0852473
11
1.69101
21
0.0752863
0
LINE
8
BLACK
6
CONTINUOUS
10
1.69101
20
0.0752863
11
1.69906
21
0.0643274
0
LINE
8
BLACK
6
CONTINUOUS
10
1.69906
20
0.0643274
11
1.70579
21
0.052516
0
LINE
8
BLACK
6
CONTINUOUS
10
1.70579
20
0.052516
11
1.71113
21
0.0400084
0
LINE
8
BLACK
6
CONTINUOUS
10
1.71113
20
0.0400084
11
1.71499
21
0.0269706
0
LINE
8
BLACK
6
CONTINUOUS
10
1.71499
20
0.0269706
11
1.71733
21
0.0135752
0
LINE
8
BLACK
6
CONTINUOUS
10
1.71733
20
0.0135752
11
1.71811
21
0
0
LINE
8
BLACK
6
CONTINUOUS
10
1.71811
20
0
11
1.71788
21
-0.00741622
0
LINE
8
BLACK
6
CONTINUOUS
10
1.71788
20
-0.00741622
11
1.71624
21
-0.0209155
0
LINE
8
BLACK
6
CONTINUOUS
10
1.71624
20
-0.0209155
11
1.71307
21
-0.0341376
0
LINE
8
BLACK
6
CONTINUOUS
10
1.71307
20
-0.0341376
11
1.7084
21
-0.0469072
0
LINE
8
BLACK
6
CONTINUOUS
10
1.7084
20
-0.0469072
11
1.70229
21
-0.0590551
0
LINE
8
BLACK
6
CONTINUOUS
10
1.70229
20
-0.0590551
11
1.69482
21
-0.0704203
0
LINE
8
BLACK
6
CONTINUOUS
10
1.69482
20
-0.0704203
11
1.6861
21
-0.080852
0
LINE
8
BLACK
6
CONTINUOUS
10
1.6861
20
-0.080852
11
1.67624
21
-0.0902121
0
LINE
8
BLACK
6
CONTINUOUS
10
1.67624
20
-0.0902121
11
1.66536
21
-0.0983765
0
LINE
8
BLACK
6
CONTINUOUS
10
1.66536
20
-0.0983765
11
1.65362
21
-0.105237
0
LINE
8
BLACK
6
CONTINUOUS
10
1.65362
20
-0.105237
11
1.64117
21
-0.110703
0
LINE
8
BLACK
6
CONTINUOUS
10
1.64117
20
-0.110703
11
1.62817
21
-0.114701
0
LINE
8
BLACK
6
CONTINUOUS
10
1.62817
20
-0.114701
11
1.6148
21
-0.117179
0
LINE
8
BLACK
6
CONTINUOUS
10
1.6148
20
-0.117179
11
1.60124
21
-0.118104
0
LINE
8
BLACK
6
CONTINUOUS
10
1.60124
20
-0.118104
11
1.58765
21
-0.117463
0
LINE
8
BLACK
6
CONTINUOUS
10
1.58765
20
-0.117463
11
1.57424
21
-0.115266
0
LINE
8
BLACK
6
CONTINUOUS
10
1.57424
20
-0.115266
11
1.56116
21
-0.111541
0
LINE
8
BLACK
6
CONTINUOUS
10
1.56116
20
-0.111541
11
1.54859
21
-0.106337
0
LINE
8
BLACK
6
CONTINUOUS
10
1.54859
20
-0.106337
11
1.53671
21
-0.0997238
0
LINE
8
BLACK
6
CONTINUOUS
10
1.53671
20
-0.0997238
11
1.52567
21
-0.0917889
0
LINE
8
BLACK
6
CONTINUOUS
10
1.52567
20
-0.0917889
11
1.51561
21
-0.0826374
0
LINE
8
BLACK
6
CONTINUOUS
10
1.51561
20
-0.0826374
11
1.50667
21
-0.0723906
0
LINE
8
BLACK
6
CONTINUOUS
10
1.50667
20
-0.0723906
11
1.49897
21
-0.0611843
0
LINE
8
BLACK
6
CONTINUOUS
10
1.49897
20
-0.0611843
11
1.49261
21
-0.049167
0
LINE
8
BLACK
6
CONTINUOUS
10
1.49261
20
-0.049167
11
1.48767
21
-0.0364981
0
LINE
8
BLACK
6
CONTINUOUS
10
1.48767
20
-0.0364981
11
1.48422
21
-0.0233454
0
LINE
8
BLACK
6
CONTINUOUS
10
1.48422
20
-0.0233454
11
1.4823
21
-0.00988323
0
LINE
8
BLACK
6
CONTINUOUS
10
1.4823
20
-0.00988323
11
1.48195
21
0.00370992
0
LINE
8
BLACK
6
CONTINUOUS
10
1.48195
20
0.00370992
11
1.48316
21
0.0172539
0
LINE
8
BLACK
6
CONTINUOUS
10
1.48316
20
0.0172539
11
1.48591
21
0.0305692
0
LINE
8
BLACK
6
CONTINUOUS
10
1.48591
20
0.0305692
11
1.49018
21
0.0434793
0
LINE
8
BLACK
6
CONTINUOUS
10
1.49018
20
0.0434793
11
1.49591
21
0.0558131
0
LINE
8
BLACK
6
CONTINUOUS
10
1.49591
20
0.0558131
11
1.50301
21
0.0674071
0
LINE
8
BLACK
6
CONTINUOUS
10
1.50301
20
0.0674071
11
1.5114
21
0.0781077
0
LINE
8
BLACK
6
CONTINUOUS
10
1.5114
20
0.0781077
11
1.52097
21
0.087773
0
LINE
8
BLACK
6
CONTINUOUS
10
1.52097
20
0.087773
11
1.53158
21
0.0962749
0
LINE
8
BLACK
6
CONTINUOUS
10
1.53158
20
0.0962749
11
1.5431
21
0.103501
0
LINE
8
BLACK
6
CONTINUOUS
10
1.5431
20
0.103501
11
1.55537
21
0.109355
0
LINE
8
BLACK
6
CONTINUOUS
10
1.55537
20
0.109355
11
1.56824
21
0.113759
0
LINE
8
BLACK
6
CONTINUOUS
10
1.56824
20
0.113759
11
1.58152
21
0.116656
0
LINE
8
BLACK
6
CONTINUOUS
10
1.58152
20
0.116656
11
1.59505
21
0.118007
0
LINE
8
BLACK
6
CONTINUOUS
10
1.59505
20
0.118007
11
1.60865
21
0.117793
0
CIRCLE
8
BLACK
10
0.720079
20
-0.321654
40
0.00787402
0
CIRCLE
8
BLACK
10
0.21811
20
-0.634646
40
0.00787402
  0
ENDSEC
  0
EOF
