  0
SECTION
  2
HEADER
  9
$ANGBASE
  50
0.0
  9
$ANGDIR
  70
1
  9
$MEASUREMENT
  70
0
  0
ENDSEC
  0
SECTION
  2
TABLES
  0
TABLE
  2
LTYPE
  70
4
  0
LTYPE
  5
40F
  2
CONTINUOUS
  70
0
  3
Solid line
  72
65
  73
0
  40
0.0
  0
LTYPE
  5
410
  2
DASHDOT
 70
0
  3
Dash Dot ____ _ ____ _
 72
65
 73
4
 40
2.0
 49
1.25
 49
-0.25
 49
0.25
 49
-0.25
  0
LTYPE
  5
411
  2
DASHED
 70
0
  3
Dashed __ __ __ __ __
 72
65
 73
2
 40
0.75
 49
0.5
 49
-0.25
  0
LTYPE
  5
43B
  2
DOTTED
 70
0
  3
Dotted .  .  .  .
 72
65
 73
2
 40
0.2
 49
0.0
 49
-0.2
  0
ENDTAB
  0
TABLE
  2
STYLE
  70
4
  0
STYLE
  2
KICAD
  70
0
  40
0
  41
1
  42
1
  50
0
  71
0
  3
isocp.shx
  0
STYLE
  2
KICADB
  70
0
  40
0
  41
1
  42
1
  50
0
  71
0
  3
isocp.shx
  0
STYLE
  2
KICADI
  70
0
  40
0
  41
1
  42
1
  50
15
  71
0
  3
isocp.shx
  0
STYLE
  2
KICADBI
  70
0
  40
0
  41
1
  42
1
  50
15
  71
0
  3
isocp.shx
  0
ENDTAB
  0
TABLE
  2
LAYER
  70
1
  0
LAYER
  2
BLACK
  70
0
  62
7
  6
CONTINUOUS
  0
ENDTAB
  0
ENDSEC
  0
SECTION
  2
ENTITIES
0
LINE
8
BLACK
6
CONTINUOUS
10
5.08785
20
-4.42468
11
5.08911
21
-4.42491
0
LINE
8
BLACK
6
CONTINUOUS
10
5.08911
20
-4.42491
11
5.08931
21
-4.42508
0
LINE
8
BLACK
6
CONTINUOUS
10
5.08931
20
-4.42508
11
5.08957
21
-4.42514
0
LINE
8
BLACK
6
CONTINUOUS
10
5.08957
20
-4.42514
11
5.09047
21
-4.42605
0
LINE
8
BLACK
6
CONTINUOUS
10
5.09047
20
-4.42605
11
5.09145
21
-4.42687
0
LINE
8
BLACK
6
CONTINUOUS
10
5.09145
20
-4.42687
11
5.09154
21
-4.42712
0
LINE
8
BLACK
6
CONTINUOUS
10
5.09154
20
-4.42712
11
5.09173
21
-4.42731
0
LINE
8
BLACK
6
CONTINUOUS
10
5.09173
20
-4.42731
11
5.09206
21
-4.42854
0
LINE
8
BLACK
6
CONTINUOUS
10
5.09206
20
-4.42854
11
5.0925
21
-4.42975
0
LINE
8
BLACK
6
CONTINUOUS
10
5.0925
20
-4.42975
11
5.09245
21
-4.43
0
LINE
8
BLACK
6
CONTINUOUS
10
5.09245
20
-4.43
11
5.09252
21
-4.43026
0
LINE
8
BLACK
6
CONTINUOUS
10
5.09252
20
-4.43026
11
5.09252
21
-4.48931
0
LINE
8
BLACK
6
CONTINUOUS
10
5.09252
20
-4.48931
11
5.09173
21
-4.49227
0
LINE
8
BLACK
6
CONTINUOUS
10
5.09173
20
-4.49227
11
5.08957
21
-4.49443
0
LINE
8
BLACK
6
CONTINUOUS
10
5.08957
20
-4.49443
11
5.08661
21
-4.49522
0
LINE
8
BLACK
6
CONTINUOUS
10
5.08661
20
-4.49522
11
5.08366
21
-4.49443
0
LINE
8
BLACK
6
CONTINUOUS
10
5.08366
20
-4.49443
11
5.0815
21
-4.49227
0
LINE
8
BLACK
6
CONTINUOUS
10
5.0815
20
-4.49227
11
5.08071
21
-4.48931
0
LINE
8
BLACK
6
CONTINUOUS
10
5.08071
20
-4.48931
11
5.08071
21
-4.45688
0
LINE
8
BLACK
6
CONTINUOUS
10
5.08071
20
-4.45688
11
5.07228
21
-4.47494
0
LINE
8
BLACK
6
CONTINUOUS
10
5.07228
20
-4.47494
11
5.07195
21
-4.47534
0
LINE
8
BLACK
6
CONTINUOUS
10
5.07195
20
-4.47534
11
5.07177
21
-4.47583
0
LINE
8
BLACK
6
CONTINUOUS
10
5.07177
20
-4.47583
11
5.07098
21
-4.47649
0
LINE
8
BLACK
6
CONTINUOUS
10
5.07098
20
-4.47649
11
5.07031
21
-4.47728
0
LINE
8
BLACK
6
CONTINUOUS
10
5.07031
20
-4.47728
11
5.06983
21
-4.47746
0
LINE
8
BLACK
6
CONTINUOUS
10
5.06983
20
-4.47746
11
5.06943
21
-4.47779
0
LINE
8
BLACK
6
CONTINUOUS
10
5.06943
20
-4.47779
11
5.06841
21
-4.47797
0
LINE
8
BLACK
6
CONTINUOUS
10
5.06841
20
-4.47797
11
5.06744
21
-4.47832
0
LINE
8
BLACK
6
CONTINUOUS
10
5.06744
20
-4.47832
11
5.06693
21
-4.47823
0
LINE
8
BLACK
6
CONTINUOUS
10
5.06693
20
-4.47823
11
5.06642
21
-4.47832
0
LINE
8
BLACK
6
CONTINUOUS
10
5.06642
20
-4.47832
11
5.06545
21
-4.47797
0
LINE
8
BLACK
6
CONTINUOUS
10
5.06545
20
-4.47797
11
5.06443
21
-4.47779
0
LINE
8
BLACK
6
CONTINUOUS
10
5.06443
20
-4.47779
11
5.06403
21
-4.47746
0
LINE
8
BLACK
6
CONTINUOUS
10
5.06403
20
-4.47746
11
5.06354
21
-4.47728
0
LINE
8
BLACK
6
CONTINUOUS
10
5.06354
20
-4.47728
11
5.06288
21
-4.47649
0
LINE
8
BLACK
6
CONTINUOUS
10
5.06288
20
-4.47649
11
5.06209
21
-4.47583
0
LINE
8
BLACK
6
CONTINUOUS
10
5.06209
20
-4.47583
11
5.06191
21
-4.47534
0
LINE
8
BLACK
6
CONTINUOUS
10
5.06191
20
-4.47534
11
5.06158
21
-4.47494
0
LINE
8
BLACK
6
CONTINUOUS
10
5.06158
20
-4.47494
11
5.05315
21
-4.45688
0
LINE
8
BLACK
6
CONTINUOUS
10
5.05315
20
-4.45688
11
5.05315
21
-4.48931
0
LINE
8
BLACK
6
CONTINUOUS
10
5.05315
20
-4.48931
11
5.05236
21
-4.49227
0
LINE
8
BLACK
6
CONTINUOUS
10
5.05236
20
-4.49227
11
5.0502
21
-4.49443
0
LINE
8
BLACK
6
CONTINUOUS
10
5.0502
20
-4.49443
11
5.04724
21
-4.49522
0
LINE
8
BLACK
6
CONTINUOUS
10
5.04724
20
-4.49522
11
5.04429
21
-4.49443
0
LINE
8
BLACK
6
CONTINUOUS
10
5.04429
20
-4.49443
11
5.04213
21
-4.49227
0
LINE
8
BLACK
6
CONTINUOUS
10
5.04213
20
-4.49227
11
5.04134
21
-4.48931
0
LINE
8
BLACK
6
CONTINUOUS
10
5.04134
20
-4.48931
11
5.04134
21
-4.43026
0
LINE
8
BLACK
6
CONTINUOUS
10
5.04134
20
-4.43026
11
5.04141
21
-4.43
0
LINE
8
BLACK
6
CONTINUOUS
10
5.04141
20
-4.43
11
5.04136
21
-4.42975
0
LINE
8
BLACK
6
CONTINUOUS
10
5.04136
20
-4.42975
11
5.0418
21
-4.42854
0
LINE
8
BLACK
6
CONTINUOUS
10
5.0418
20
-4.42854
11
5.04213
21
-4.42731
0
LINE
8
BLACK
6
CONTINUOUS
10
5.04213
20
-4.42731
11
5.04232
21
-4.42712
0
LINE
8
BLACK
6
CONTINUOUS
10
5.04232
20
-4.42712
11
5.04241
21
-4.42687
0
LINE
8
BLACK
6
CONTINUOUS
10
5.04241
20
-4.42687
11
5.04339
21
-4.42605
0
LINE
8
BLACK
6
CONTINUOUS
10
5.04339
20
-4.42605
11
5.04429
21
-4.42514
0
LINE
8
BLACK
6
CONTINUOUS
10
5.04429
20
-4.42514
11
5.04455
21
-4.42508
0
LINE
8
BLACK
6
CONTINUOUS
10
5.04455
20
-4.42508
11
5.04475
21
-4.42491
0
LINE
8
BLACK
6
CONTINUOUS
10
5.04475
20
-4.42491
11
5.04601
21
-4.42468
0
LINE
8
BLACK
6
CONTINUOUS
10
5.04601
20
-4.42468
11
5.04724
21
-4.42435
0
LINE
8
BLACK
6
CONTINUOUS
10
5.04724
20
-4.42435
11
5.0475
21
-4.42442
0
LINE
8
BLACK
6
CONTINUOUS
10
5.0475
20
-4.42442
11
5.04776
21
-4.42438
0
LINE
8
BLACK
6
CONTINUOUS
10
5.04776
20
-4.42438
11
5.04896
21
-4.42481
0
LINE
8
BLACK
6
CONTINUOUS
10
5.04896
20
-4.42481
11
5.0502
21
-4.42514
0
LINE
8
BLACK
6
CONTINUOUS
10
5.0502
20
-4.42514
11
5.05038
21
-4.42533
0
LINE
8
BLACK
6
CONTINUOUS
10
5.05038
20
-4.42533
11
5.05063
21
-4.42542
0
LINE
8
BLACK
6
CONTINUOUS
10
5.05063
20
-4.42542
11
5.05145
21
-4.4264
0
LINE
8
BLACK
6
CONTINUOUS
10
5.05145
20
-4.4264
11
5.05236
21
-4.42731
0
LINE
8
BLACK
6
CONTINUOUS
10
5.05236
20
-4.42731
11
5.05243
21
-4.42756
0
LINE
8
BLACK
6
CONTINUOUS
10
5.05243
20
-4.42756
11
5.0526
21
-4.42776
0
LINE
8
BLACK
6
CONTINUOUS
10
5.0526
20
-4.42776
11
5.06693
21
-4.45848
0
LINE
8
BLACK
6
CONTINUOUS
10
5.06693
20
-4.45848
11
5.08126
21
-4.42776
0
LINE
8
BLACK
6
CONTINUOUS
10
5.08126
20
-4.42776
11
5.08143
21
-4.42756
0
LINE
8
BLACK
6
CONTINUOUS
10
5.08143
20
-4.42756
11
5.0815
21
-4.42731
0
LINE
8
BLACK
6
CONTINUOUS
10
5.0815
20
-4.42731
11
5.08241
21
-4.4264
0
LINE
8
BLACK
6
CONTINUOUS
10
5.08241
20
-4.4264
11
5.08323
21
-4.42542
0
LINE
8
BLACK
6
CONTINUOUS
10
5.08323
20
-4.42542
11
5.08348
21
-4.42533
0
LINE
8
BLACK
6
CONTINUOUS
10
5.08348
20
-4.42533
11
5.08366
21
-4.42514
0
LINE
8
BLACK
6
CONTINUOUS
10
5.08366
20
-4.42514
11
5.0849
21
-4.42481
0
LINE
8
BLACK
6
CONTINUOUS
10
5.0849
20
-4.42481
11
5.0861
21
-4.42438
0
LINE
8
BLACK
6
CONTINUOUS
10
5.0861
20
-4.42438
11
5.08636
21
-4.42442
0
LINE
8
BLACK
6
CONTINUOUS
10
5.08636
20
-4.42442
11
5.08661
21
-4.42435
0
LINE
8
BLACK
6
CONTINUOUS
10
5.08661
20
-4.42435
11
5.08785
21
-4.42468
0
LINE
8
BLACK
6
CONTINUOUS
10
4.98805
20
-4.49443
11
4.98589
21
-4.49227
0
LINE
8
BLACK
6
CONTINUOUS
10
4.98589
20
-4.49227
11
4.98546
21
-4.49066
0
LINE
8
BLACK
6
CONTINUOUS
10
4.98546
20
-4.49066
11
4.98417
21
-4.49323
0
LINE
8
BLACK
6
CONTINUOUS
10
4.98417
20
-4.49323
11
4.98162
21
-4.49492
0
LINE
8
BLACK
6
CONTINUOUS
10
4.98162
20
-4.49492
11
4.97857
21
-4.4951
0
LINE
8
BLACK
6
CONTINUOUS
10
4.97857
20
-4.4951
11
4.97583
21
-4.49373
0
LINE
8
BLACK
6
CONTINUOUS
10
4.97583
20
-4.49373
11
4.97415
21
-4.49118
0
LINE
8
BLACK
6
CONTINUOUS
10
4.97415
20
-4.49118
11
4.96987
21
-4.47835
0
LINE
8
BLACK
6
CONTINUOUS
10
4.96987
20
-4.47835
11
4.95026
21
-4.47835
0
LINE
8
BLACK
6
CONTINUOUS
10
4.95026
20
-4.47835
11
4.94598
21
-4.49118
0
LINE
8
BLACK
6
CONTINUOUS
10
4.94598
20
-4.49118
11
4.9443
21
-4.49373
0
LINE
8
BLACK
6
CONTINUOUS
10
4.9443
20
-4.49373
11
4.94157
21
-4.4951
0
LINE
8
BLACK
6
CONTINUOUS
10
4.94157
20
-4.4951
11
4.93851
21
-4.49492
0
LINE
8
BLACK
6
CONTINUOUS
10
4.93851
20
-4.49492
11
4.93596
21
-4.49323
0
LINE
8
BLACK
6
CONTINUOUS
10
4.93596
20
-4.49323
11
4.9346
21
-4.4905
0
LINE
8
BLACK
6
CONTINUOUS
10
4.9346
20
-4.4905
11
4.93478
21
-4.48745
0
LINE
8
BLACK
6
CONTINUOUS
10
4.93478
20
-4.48745
11
4.95447
21
-4.42839
0
LINE
8
BLACK
6
CONTINUOUS
10
4.95447
20
-4.42839
11
4.95512
21
-4.4274
0
LINE
8
BLACK
6
CONTINUOUS
10
4.95512
20
-4.4274
11
4.95565
21
-4.42634
0
LINE
8
BLACK
6
CONTINUOUS
10
4.95565
20
-4.42634
11
4.95595
21
-4.42614
0
LINE
8
BLACK
6
CONTINUOUS
10
4.95595
20
-4.42614
11
4.95615
21
-4.42584
0
LINE
8
BLACK
6
CONTINUOUS
10
4.95615
20
-4.42584
11
4.95721
21
-4.42531
0
LINE
8
BLACK
6
CONTINUOUS
10
4.95721
20
-4.42531
11
4.9582
21
-4.42466
0
LINE
8
BLACK
6
CONTINUOUS
10
4.9582
20
-4.42466
11
4.95856
21
-4.42463
0
LINE
8
BLACK
6
CONTINUOUS
10
4.95856
20
-4.42463
11
4.95888
21
-4.42447
0
LINE
8
BLACK
6
CONTINUOUS
10
4.95888
20
-4.42447
11
4.96007
21
-4.42454
0
LINE
8
BLACK
6
CONTINUOUS
10
4.96007
20
-4.42454
11
4.96125
21
-4.42447
0
LINE
8
BLACK
6
CONTINUOUS
10
4.96125
20
-4.42447
11
4.96157
21
-4.42463
0
LINE
8
BLACK
6
CONTINUOUS
10
4.96157
20
-4.42463
11
4.96193
21
-4.42466
0
LINE
8
BLACK
6
CONTINUOUS
10
4.96193
20
-4.42466
11
4.96292
21
-4.42531
0
LINE
8
BLACK
6
CONTINUOUS
10
4.96292
20
-4.42531
11
4.96399
21
-4.42584
0
LINE
8
BLACK
6
CONTINUOUS
10
4.96399
20
-4.42584
11
4.96418
21
-4.42614
0
LINE
8
BLACK
6
CONTINUOUS
10
4.96418
20
-4.42614
11
4.96449
21
-4.42634
0
LINE
8
BLACK
6
CONTINUOUS
10
4.96449
20
-4.42634
11
4.96502
21
-4.4274
0
LINE
8
BLACK
6
CONTINUOUS
10
4.96502
20
-4.4274
11
4.96567
21
-4.42839
0
LINE
8
BLACK
6
CONTINUOUS
10
4.96567
20
-4.42839
11
4.98536
21
-4.48745
0
LINE
8
BLACK
6
CONTINUOUS
10
4.98536
20
-4.48745
11
4.9854
21
-4.48818
0
LINE
8
BLACK
6
CONTINUOUS
10
4.9854
20
-4.48818
11
4.98589
21
-4.48636
0
LINE
8
BLACK
6
CONTINUOUS
10
4.98589
20
-4.48636
11
4.98805
21
-4.4842
0
LINE
8
BLACK
6
CONTINUOUS
10
4.98805
20
-4.4842
11
4.991
21
-4.48341
0
LINE
8
BLACK
6
CONTINUOUS
10
4.991
20
-4.48341
11
5.01322
21
-4.48341
0
LINE
8
BLACK
6
CONTINUOUS
10
5.01322
20
-4.48341
11
5.01322
21
-4.43026
0
LINE
8
BLACK
6
CONTINUOUS
10
5.01322
20
-4.43026
11
5.01401
21
-4.42731
0
LINE
8
BLACK
6
CONTINUOUS
10
5.01401
20
-4.42731
11
5.01617
21
-4.42514
0
LINE
8
BLACK
6
CONTINUOUS
10
5.01617
20
-4.42514
11
5.01912
21
-4.42435
0
LINE
8
BLACK
6
CONTINUOUS
10
5.01912
20
-4.42435
11
5.02208
21
-4.42514
0
LINE
8
BLACK
6
CONTINUOUS
10
5.02208
20
-4.42514
11
5.02424
21
-4.42731
0
LINE
8
BLACK
6
CONTINUOUS
10
5.02424
20
-4.42731
11
5.02503
21
-4.43026
0
LINE
8
BLACK
6
CONTINUOUS
10
5.02503
20
-4.43026
11
5.02503
21
-4.48931
0
LINE
8
BLACK
6
CONTINUOUS
10
5.02503
20
-4.48931
11
5.02424
21
-4.49227
0
LINE
8
BLACK
6
CONTINUOUS
10
5.02424
20
-4.49227
11
5.02208
21
-4.49443
0
LINE
8
BLACK
6
CONTINUOUS
10
5.02208
20
-4.49443
11
5.01912
21
-4.49522
0
LINE
8
BLACK
6
CONTINUOUS
10
5.01912
20
-4.49522
11
4.991
21
-4.49522
0
LINE
8
BLACK
6
CONTINUOUS
10
4.991
20
-4.49522
11
4.98805
21
-4.49443
0
LINE
8
BLACK
6
CONTINUOUS
10
4.9542
20
-4.46654
11
4.96593
21
-4.46654
0
LINE
8
BLACK
6
CONTINUOUS
10
4.96593
20
-4.46654
11
4.96007
21
-4.44893
0
LINE
8
BLACK
6
CONTINUOUS
10
4.96007
20
-4.44893
11
4.9542
21
-4.46654
0
LINE
8
BLACK
6
CONTINUOUS
10
4.89689
20
-4.49487
11
4.89556
21
-4.4946
0
LINE
8
BLACK
6
CONTINUOUS
10
4.89556
20
-4.4946
11
4.88993
21
-4.49178
0
LINE
8
BLACK
6
CONTINUOUS
10
4.88993
20
-4.49178
11
4.88922
21
-4.49115
0
LINE
8
BLACK
6
CONTINUOUS
10
4.88922
20
-4.49115
11
4.8884
21
-4.49068
0
LINE
8
BLACK
6
CONTINUOUS
10
4.8884
20
-4.49068
11
4.88559
21
-4.48787
0
LINE
8
BLACK
6
CONTINUOUS
10
4.88559
20
-4.48787
11
4.88511
21
-4.48704
0
LINE
8
BLACK
6
CONTINUOUS
10
4.88511
20
-4.48704
11
4.88448
21
-4.48633
0
LINE
8
BLACK
6
CONTINUOUS
10
4.88448
20
-4.48633
11
4.88167
21
-4.48071
0
LINE
8
BLACK
6
CONTINUOUS
10
4.88167
20
-4.48071
11
4.8814
21
-4.47938
0
LINE
8
BLACK
6
CONTINUOUS
10
4.8814
20
-4.47938
11
4.88105
21
-4.47807
0
LINE
8
BLACK
6
CONTINUOUS
10
4.88105
20
-4.47807
11
4.88105
21
-4.46963
0
LINE
8
BLACK
6
CONTINUOUS
10
4.88105
20
-4.46963
11
4.8814
21
-4.46832
0
LINE
8
BLACK
6
CONTINUOUS
10
4.8814
20
-4.46832
11
4.88167
21
-4.46699
0
LINE
8
BLACK
6
CONTINUOUS
10
4.88167
20
-4.46699
11
4.88448
21
-4.46136
0
LINE
8
BLACK
6
CONTINUOUS
10
4.88448
20
-4.46136
11
4.88511
21
-4.46065
0
LINE
8
BLACK
6
CONTINUOUS
10
4.88511
20
-4.46065
11
4.88559
21
-4.45983
0
LINE
8
BLACK
6
CONTINUOUS
10
4.88559
20
-4.45983
11
4.8884
21
-4.45702
0
LINE
8
BLACK
6
CONTINUOUS
10
4.8884
20
-4.45702
11
4.88845
21
-4.45699
0
LINE
8
BLACK
6
CONTINUOUS
10
4.88845
20
-4.45699
11
4.8884
21
-4.45693
0
LINE
8
BLACK
6
CONTINUOUS
10
4.8884
20
-4.45693
11
4.88792
21
-4.45611
0
LINE
8
BLACK
6
CONTINUOUS
10
4.88792
20
-4.45611
11
4.88729
21
-4.4554
0
LINE
8
BLACK
6
CONTINUOUS
10
4.88729
20
-4.4554
11
4.88448
21
-4.44977
0
LINE
8
BLACK
6
CONTINUOUS
10
4.88448
20
-4.44977
11
4.88421
21
-4.44844
0
LINE
8
BLACK
6
CONTINUOUS
10
4.88421
20
-4.44844
11
4.88386
21
-4.44713
0
LINE
8
BLACK
6
CONTINUOUS
10
4.88386
20
-4.44713
11
4.88386
21
-4.44151
0
LINE
8
BLACK
6
CONTINUOUS
10
4.88386
20
-4.44151
11
4.88421
21
-4.4402
0
LINE
8
BLACK
6
CONTINUOUS
10
4.88421
20
-4.4402
11
4.88448
21
-4.43887
0
LINE
8
BLACK
6
CONTINUOUS
10
4.88448
20
-4.43887
11
4.88729
21
-4.43324
0
LINE
8
BLACK
6
CONTINUOUS
10
4.88729
20
-4.43324
11
4.88792
21
-4.43253
0
LINE
8
BLACK
6
CONTINUOUS
10
4.88792
20
-4.43253
11
4.8884
21
-4.43171
0
LINE
8
BLACK
6
CONTINUOUS
10
4.8884
20
-4.43171
11
4.89121
21
-4.42889
0
LINE
8
BLACK
6
CONTINUOUS
10
4.89121
20
-4.42889
11
4.89204
21
-4.42842
0
LINE
8
BLACK
6
CONTINUOUS
10
4.89204
20
-4.42842
11
4.89275
21
-4.42779
0
LINE
8
BLACK
6
CONTINUOUS
10
4.89275
20
-4.42779
11
4.89837
21
-4.42498
0
LINE
8
BLACK
6
CONTINUOUS
10
4.89837
20
-4.42498
11
4.8997
21
-4.4247
0
LINE
8
BLACK
6
CONTINUOUS
10
4.8997
20
-4.4247
11
4.90101
21
-4.42435
0
LINE
8
BLACK
6
CONTINUOUS
10
4.90101
20
-4.42435
11
4.9207
21
-4.42435
0
LINE
8
BLACK
6
CONTINUOUS
10
4.9207
20
-4.42435
11
4.92365
21
-4.42514
0
LINE
8
BLACK
6
CONTINUOUS
10
4.92365
20
-4.42514
11
4.92581
21
-4.42731
0
LINE
8
BLACK
6
CONTINUOUS
10
4.92581
20
-4.42731
11
4.9266
21
-4.43026
0
LINE
8
BLACK
6
CONTINUOUS
10
4.9266
20
-4.43026
11
4.9266
21
-4.48931
0
LINE
8
BLACK
6
CONTINUOUS
10
4.9266
20
-4.48931
11
4.92581
21
-4.49227
0
LINE
8
BLACK
6
CONTINUOUS
10
4.92581
20
-4.49227
11
4.92365
21
-4.49443
0
LINE
8
BLACK
6
CONTINUOUS
10
4.92365
20
-4.49443
11
4.9207
21
-4.49522
0
LINE
8
BLACK
6
CONTINUOUS
10
4.9207
20
-4.49522
11
4.8982
21
-4.49522
0
LINE
8
BLACK
6
CONTINUOUS
10
4.8982
20
-4.49522
11
4.89689
21
-4.49487
0
LINE
8
BLACK
6
CONTINUOUS
10
4.90197
20
-4.46429
11
4.89577
21
-4.46635
0
LINE
8
BLACK
6
CONTINUOUS
10
4.89577
20
-4.46635
11
4.89462
21
-4.4675
0
LINE
8
BLACK
6
CONTINUOUS
10
4.89462
20
-4.4675
11
4.89286
21
-4.47102
0
LINE
8
BLACK
6
CONTINUOUS
10
4.89286
20
-4.47102
11
4.89286
21
-4.47667
0
LINE
8
BLACK
6
CONTINUOUS
10
4.89286
20
-4.47667
11
4.89462
21
-4.48019
0
LINE
8
BLACK
6
CONTINUOUS
10
4.89462
20
-4.48019
11
4.89607
21
-4.48165
0
LINE
8
BLACK
6
CONTINUOUS
10
4.89607
20
-4.48165
11
4.89959
21
-4.48341
0
LINE
8
BLACK
6
CONTINUOUS
10
4.89959
20
-4.48341
11
4.91479
21
-4.48341
0
LINE
8
BLACK
6
CONTINUOUS
10
4.91479
20
-4.48341
11
4.91479
21
-4.46429
0
LINE
8
BLACK
6
CONTINUOUS
10
4.91479
20
-4.46429
11
4.90197
21
-4.46429
0
LINE
8
BLACK
6
CONTINUOUS
10
4.90241
20
-4.43616
11
4.89889
21
-4.43792
0
LINE
8
BLACK
6
CONTINUOUS
10
4.89889
20
-4.43792
11
4.89743
21
-4.43938
0
LINE
8
BLACK
6
CONTINUOUS
10
4.89743
20
-4.43938
11
4.89567
21
-4.4429
0
LINE
8
BLACK
6
CONTINUOUS
10
4.89567
20
-4.4429
11
4.89567
21
-4.44574
0
LINE
8
BLACK
6
CONTINUOUS
10
4.89567
20
-4.44574
11
4.89743
21
-4.44926
0
LINE
8
BLACK
6
CONTINUOUS
10
4.89743
20
-4.44926
11
4.89889
21
-4.45071
0
LINE
8
BLACK
6
CONTINUOUS
10
4.89889
20
-4.45071
11
4.90241
21
-4.45247
0
LINE
8
BLACK
6
CONTINUOUS
10
4.90241
20
-4.45247
11
4.91479
21
-4.45247
0
LINE
8
BLACK
6
CONTINUOUS
10
4.91479
20
-4.45247
11
4.91479
21
-4.43616
0
LINE
8
BLACK
6
CONTINUOUS
10
4.91479
20
-4.43616
11
4.90241
21
-4.43616
0
LINE
8
BLACK
6
CONTINUOUS
10
4.32163
20
-2.59953
11
4.3238
21
-2.59681
0
LINE
8
BLACK
6
CONTINUOUS
10
4.3238
20
-2.59681
11
4.32694
21
-2.5953
0
LINE
8
BLACK
6
CONTINUOUS
10
4.32694
20
-2.5953
11
4.32869
21
-2.5951
0
LINE
8
BLACK
6
CONTINUOUS
10
4.32869
20
-2.5951
11
4.78634
21
-2.59501
0
LINE
8
BLACK
6
CONTINUOUS
10
4.78634
20
-2.59501
11
5.34018
21
-2.59491
0
LINE
8
BLACK
6
CONTINUOUS
10
5.34018
20
-2.59491
11
5.34358
21
-2.59568
0
LINE
8
BLACK
6
CONTINUOUS
10
5.34358
20
-2.59568
11
5.3463
21
-2.59785
0
LINE
8
BLACK
6
CONTINUOUS
10
5.3463
20
-2.59785
11
5.34782
21
-2.601
0
LINE
8
BLACK
6
CONTINUOUS
10
5.34782
20
-2.601
11
5.34801
21
-2.60274
0
LINE
8
BLACK
6
CONTINUOUS
10
5.34801
20
-2.60274
11
5.34801
21
-4.53584
0
LINE
8
BLACK
6
CONTINUOUS
10
5.34801
20
-4.53584
11
5.34724
21
-4.53924
0
LINE
8
BLACK
6
CONTINUOUS
10
5.34724
20
-4.53924
11
5.34506
21
-4.54197
0
LINE
8
BLACK
6
CONTINUOUS
10
5.34506
20
-4.54197
11
5.34192
21
-4.54348
0
LINE
8
BLACK
6
CONTINUOUS
10
5.34192
20
-4.54348
11
5.34018
21
-4.54368
0
LINE
8
BLACK
6
CONTINUOUS
10
5.34018
20
-4.54368
11
5.13006
21
-4.54366
0
LINE
8
BLACK
6
CONTINUOUS
10
5.13006
20
-4.54366
11
5.12666
21
-4.54288
0
LINE
8
BLACK
6
CONTINUOUS
10
5.12666
20
-4.54288
11
5.12394
21
-4.54071
0
LINE
8
BLACK
6
CONTINUOUS
10
5.12394
20
-4.54071
11
5.12243
21
-4.53756
0
LINE
8
BLACK
6
CONTINUOUS
10
5.12243
20
-4.53756
11
5.12228
21
-4.53494
0
LINE
8
BLACK
6
CONTINUOUS
10
5.12228
20
-4.53494
11
5.1223
21
-4.53476
0
LINE
8
BLACK
6
CONTINUOUS
10
5.1223
20
-4.53476
11
5.12235
21
-4.53476
0
LINE
8
BLACK
6
CONTINUOUS
10
5.12235
20
-4.53476
11
5.12235
21
-4.39043
0
LINE
8
BLACK
6
CONTINUOUS
10
5.12235
20
-4.39043
11
4.85403
21
-4.39043
0
LINE
8
BLACK
6
CONTINUOUS
10
4.85403
20
-4.39043
11
4.85403
21
-4.53476
0
LINE
8
BLACK
6
CONTINUOUS
10
4.85403
20
-4.53476
11
4.85407
21
-4.53476
0
LINE
8
BLACK
6
CONTINUOUS
10
4.85407
20
-4.53476
11
4.85407
21
-4.53754
0
LINE
8
BLACK
6
CONTINUOUS
10
4.85407
20
-4.53754
11
4.85256
21
-4.54068
0
LINE
8
BLACK
6
CONTINUOUS
10
4.85256
20
-4.54068
11
4.84983
21
-4.54285
0
LINE
8
BLACK
6
CONTINUOUS
10
4.84983
20
-4.54285
11
4.84643
21
-4.54363
0
LINE
8
BLACK
6
CONTINUOUS
10
4.84643
20
-4.54363
11
4.32869
21
-4.54357
0
LINE
8
BLACK
6
CONTINUOUS
10
4.32869
20
-4.54357
11
4.32529
21
-4.5428
0
LINE
8
BLACK
6
CONTINUOUS
10
4.32529
20
-4.5428
11
4.32256
21
-4.54062
0
LINE
8
BLACK
6
CONTINUOUS
10
4.32256
20
-4.54062
11
4.32105
21
-4.53748
0
LINE
8
BLACK
6
CONTINUOUS
10
4.32105
20
-4.53748
11
4.32085
21
-4.53574
0
LINE
8
BLACK
6
CONTINUOUS
10
4.32085
20
-4.53574
11
4.32085
21
-2.60293
0
LINE
8
BLACK
6
CONTINUOUS
10
4.32085
20
-2.60293
11
4.32163
21
-2.59953
0
LINE
8
BLACK
6
CONTINUOUS
10
4.86775
20
-3.33934
11
4.86775
21
-3.33934
0
LINE
8
BLACK
6
CONTINUOUS
10
4.86775
20
-3.33934
11
4.86819
21
-3.34212
0
LINE
8
BLACK
6
CONTINUOUS
10
4.86819
20
-3.34212
11
4.86819
21
-3.34212
0
LINE
8
BLACK
6
CONTINUOUS
10
4.86819
20
-3.34212
11
4.86828
21
-3.34273
0
LINE
8
BLACK
6
CONTINUOUS
10
4.86828
20
-3.34273
11
4.87055
21
-3.34718
0
LINE
8
BLACK
6
CONTINUOUS
10
4.87055
20
-3.34718
11
4.87408
21
-3.35071
0
LINE
8
BLACK
6
CONTINUOUS
10
4.87408
20
-3.35071
11
4.87853
21
-3.35298
0
LINE
8
BLACK
6
CONTINUOUS
10
4.87853
20
-3.35298
11
4.88222
21
-3.35356
0
LINE
8
BLACK
6
CONTINUOUS
10
4.88222
20
-3.35356
11
4.88253
21
-3.35356
0
LINE
8
BLACK
6
CONTINUOUS
10
4.88253
20
-3.35356
11
4.90316
21
-3.35356
0
LINE
8
BLACK
6
CONTINUOUS
10
4.90316
20
-3.35356
11
4.92408
21
-3.35356
0
LINE
8
BLACK
6
CONTINUOUS
10
4.92408
20
-3.35356
11
4.92438
21
-3.35351
0
LINE
8
BLACK
6
CONTINUOUS
10
4.92438
20
-3.35351
11
4.92438
21
-3.35351
0
LINE
8
BLACK
6
CONTINUOUS
10
4.92438
20
-3.35351
11
4.92716
21
-3.35307
0
LINE
8
BLACK
6
CONTINUOUS
10
4.92716
20
-3.35307
11
4.92716
21
-3.35307
0
LINE
8
BLACK
6
CONTINUOUS
10
4.92716
20
-3.35307
11
4.92777
21
-3.35298
0
LINE
8
BLACK
6
CONTINUOUS
10
4.92777
20
-3.35298
11
4.92832
21
-3.3527
0
LINE
8
BLACK
6
CONTINUOUS
10
4.92832
20
-3.3527
11
4.92832
21
-3.3527
0
LINE
8
BLACK
6
CONTINUOUS
10
4.92832
20
-3.3527
11
4.93167
21
-3.35099
0
LINE
8
BLACK
6
CONTINUOUS
10
4.93167
20
-3.35099
11
4.93222
21
-3.35071
0
LINE
8
BLACK
6
CONTINUOUS
10
4.93222
20
-3.35071
11
4.93575
21
-3.34718
0
LINE
8
BLACK
6
CONTINUOUS
10
4.93575
20
-3.34718
11
4.93802
21
-3.34273
0
LINE
8
BLACK
6
CONTINUOUS
10
4.93802
20
-3.34273
11
4.9386
21
-3.33904
0
LINE
8
BLACK
6
CONTINUOUS
10
4.9386
20
-3.33904
11
4.9386
21
-3.23774
0
LINE
8
BLACK
6
CONTINUOUS
10
4.9386
20
-3.23774
11
4.93855
21
-3.23743
0
LINE
8
BLACK
6
CONTINUOUS
10
4.93855
20
-3.23743
11
4.93811
21
-3.23465
0
LINE
8
BLACK
6
CONTINUOUS
10
4.93811
20
-3.23465
11
4.93811
21
-3.23465
0
LINE
8
BLACK
6
CONTINUOUS
10
4.93811
20
-3.23465
11
4.93802
21
-3.23404
0
LINE
8
BLACK
6
CONTINUOUS
10
4.93802
20
-3.23404
11
4.93575
21
-3.22959
0
LINE
8
BLACK
6
CONTINUOUS
10
4.93575
20
-3.22959
11
4.93222
21
-3.22606
0
LINE
8
BLACK
6
CONTINUOUS
10
4.93222
20
-3.22606
11
4.93107
21
-3.22548
0
LINE
8
BLACK
6
CONTINUOUS
10
4.93107
20
-3.22548
11
4.92839
21
-3.22324
0
LINE
8
BLACK
6
CONTINUOUS
10
4.92839
20
-3.22324
11
4.92695
21
-3.22007
0
LINE
8
BLACK
6
CONTINUOUS
10
4.92695
20
-3.22007
11
4.92679
21
-3.21849
0
LINE
8
BLACK
6
CONTINUOUS
10
4.92679
20
-3.21849
11
4.92679
21
-3.03278
0
LINE
8
BLACK
6
CONTINUOUS
10
4.92679
20
-3.03278
11
4.92757
21
-3.02938
0
LINE
8
BLACK
6
CONTINUOUS
10
4.92757
20
-3.02938
11
4.9281
21
-3.02844
0
LINE
8
BLACK
6
CONTINUOUS
10
4.9281
20
-3.02844
11
4.929
21
-3.0271
0
LINE
8
BLACK
6
CONTINUOUS
10
4.929
20
-3.0271
11
4.93151
21
-3.02049
0
LINE
8
BLACK
6
CONTINUOUS
10
4.93151
20
-3.02049
11
4.93249
21
-3.01348
0
LINE
8
BLACK
6
CONTINUOUS
10
4.93249
20
-3.01348
11
4.9325
21
-3.0126
0
LINE
8
BLACK
6
CONTINUOUS
10
4.9325
20
-3.0126
11
4.93248
21
-3.01235
0
LINE
8
BLACK
6
CONTINUOUS
10
4.93248
20
-3.01235
11
4.93176
21
-3.00601
0
LINE
8
BLACK
6
CONTINUOUS
10
4.93176
20
-3.00601
11
4.93176
21
-3.00601
0
LINE
8
BLACK
6
CONTINUOUS
10
4.93176
20
-3.00601
11
4.93171
21
-3.00557
0
LINE
8
BLACK
6
CONTINUOUS
10
4.93171
20
-3.00557
11
4.93142
21
-3.00473
0
LINE
8
BLACK
6
CONTINUOUS
10
4.93142
20
-3.00473
11
4.92953
21
-2.99931
0
LINE
8
BLACK
6
CONTINUOUS
10
4.92953
20
-2.99931
11
4.92939
21
-2.99889
0
LINE
8
BLACK
6
CONTINUOUS
10
4.92939
20
-2.99889
11
4.92564
21
-2.9929
0
LINE
8
BLACK
6
CONTINUOUS
10
4.92564
20
-2.9929
11
4.92066
21
-2.98788
0
LINE
8
BLACK
6
CONTINUOUS
10
4.92066
20
-2.98788
11
4.91469
21
-2.98409
0
LINE
8
BLACK
6
CONTINUOUS
10
4.91469
20
-2.98409
11
4.91119
21
-2.98284
0
LINE
8
BLACK
6
CONTINUOUS
10
4.91119
20
-2.98284
11
4.90844
21
-2.98187
0
LINE
8
BLACK
6
CONTINUOUS
10
4.90844
20
-2.98187
11
4.90844
21
-2.98187
0
LINE
8
BLACK
6
CONTINUOUS
10
4.90844
20
-2.98187
11
4.90803
21
-2.98172
0
LINE
8
BLACK
6
CONTINUOUS
10
4.90803
20
-2.98172
11
4.90759
21
-2.98167
0
LINE
8
BLACK
6
CONTINUOUS
10
4.90759
20
-2.98167
11
4.90759
21
-2.98167
0
LINE
8
BLACK
6
CONTINUOUS
10
4.90759
20
-2.98167
11
4.90144
21
-2.98094
0
LINE
8
BLACK
6
CONTINUOUS
10
4.90144
20
-2.98094
11
4.90144
21
-2.98094
0
LINE
8
BLACK
6
CONTINUOUS
10
4.90144
20
-2.98094
11
4.90101
21
-2.98088
0
LINE
8
BLACK
6
CONTINUOUS
10
4.90101
20
-2.98088
11
4.89398
21
-2.98162
0
LINE
8
BLACK
6
CONTINUOUS
10
4.89398
20
-2.98162
11
4.89356
21
-2.98176
0
LINE
8
BLACK
6
CONTINUOUS
10
4.89356
20
-2.98176
11
4.89356
21
-2.98176
0
LINE
8
BLACK
6
CONTINUOUS
10
4.89356
20
-2.98176
11
4.89047
21
-2.98282
0
LINE
8
BLACK
6
CONTINUOUS
10
4.89047
20
-2.98282
11
4.88728
21
-2.9839
0
LINE
8
BLACK
6
CONTINUOUS
10
4.88728
20
-2.9839
11
4.88357
21
-2.98619
0
LINE
8
BLACK
6
CONTINUOUS
10
4.88357
20
-2.98619
11
4.88163
21
-2.98738
0
LINE
8
BLACK
6
CONTINUOUS
10
4.88163
20
-2.98738
11
4.88163
21
-2.98738
0
LINE
8
BLACK
6
CONTINUOUS
10
4.88163
20
-2.98738
11
4.88126
21
-2.98761
0
LINE
8
BLACK
6
CONTINUOUS
10
4.88126
20
-2.98761
11
4.87621
21
-2.99255
0
LINE
8
BLACK
6
CONTINUOUS
10
4.87621
20
-2.99255
11
4.87238
21
-2.9985
0
LINE
8
BLACK
6
CONTINUOUS
10
4.87238
20
-2.9985
11
4.86996
21
-3.00514
0
LINE
8
BLACK
6
CONTINUOUS
10
4.86996
20
-3.00514
11
4.86991
21
-3.00558
0
LINE
8
BLACK
6
CONTINUOUS
10
4.86991
20
-3.00558
11
4.86991
21
-3.00558
0
LINE
8
BLACK
6
CONTINUOUS
10
4.86991
20
-3.00558
11
4.86964
21
-3.00769
0
LINE
8
BLACK
6
CONTINUOUS
10
4.86964
20
-3.00769
11
4.86908
21
-3.01216
0
LINE
8
BLACK
6
CONTINUOUS
10
4.86908
20
-3.01216
11
4.86912
21
-3.01259
0
LINE
8
BLACK
6
CONTINUOUS
10
4.86912
20
-3.01259
11
4.86912
21
-3.01259
0
LINE
8
BLACK
6
CONTINUOUS
10
4.86912
20
-3.01259
11
4.86918
21
-3.01324
0
LINE
8
BLACK
6
CONTINUOUS
10
4.86918
20
-3.01324
11
4.86977
21
-3.01919
0
LINE
8
BLACK
6
CONTINUOUS
10
4.86977
20
-3.01919
11
4.872
21
-3.0259
0
LINE
8
BLACK
6
CONTINUOUS
10
4.872
20
-3.0259
11
4.87566
21
-3.03195
0
LINE
8
BLACK
6
CONTINUOUS
10
4.87566
20
-3.03195
11
4.87596
21
-3.03226
0
LINE
8
BLACK
6
CONTINUOUS
10
4.87596
20
-3.03226
11
4.87731
21
-3.03366
0
LINE
8
BLACK
6
CONTINUOUS
10
4.87731
20
-3.03366
11
4.87911
21
-3.03664
0
LINE
8
BLACK
6
CONTINUOUS
10
4.87911
20
-3.03664
11
4.87951
21
-3.0391
0
LINE
8
BLACK
6
CONTINUOUS
10
4.87951
20
-3.0391
11
4.87951
21
-3.21849
0
LINE
8
BLACK
6
CONTINUOUS
10
4.87951
20
-3.21849
11
4.87873
21
-3.22189
0
LINE
8
BLACK
6
CONTINUOUS
10
4.87873
20
-3.22189
11
4.87656
21
-3.22462
0
LINE
8
BLACK
6
CONTINUOUS
10
4.87656
20
-3.22462
11
4.87523
21
-3.22548
0
LINE
8
BLACK
6
CONTINUOUS
10
4.87523
20
-3.22548
11
4.87408
21
-3.22606
0
LINE
8
BLACK
6
CONTINUOUS
10
4.87408
20
-3.22606
11
4.87055
21
-3.22959
0
LINE
8
BLACK
6
CONTINUOUS
10
4.87055
20
-3.22959
11
4.86828
21
-3.23404
0
LINE
8
BLACK
6
CONTINUOUS
10
4.86828
20
-3.23404
11
4.8677
21
-3.23774
0
LINE
8
BLACK
6
CONTINUOUS
10
4.8677
20
-3.23774
11
4.8677
21
-3.33904
0
LINE
8
BLACK
6
CONTINUOUS
10
4.8677
20
-3.33904
11
4.86775
21
-3.33934
0
LINE
8
BLACK
6
CONTINUOUS
10
4.81403
20
-3.0878
11
4.81329
21
-3.08797
0
LINE
8
BLACK
6
CONTINUOUS
10
4.81329
20
-3.08797
11
4.81315
21
-3.08825
0
LINE
8
BLACK
6
CONTINUOUS
10
4.81315
20
-3.08825
11
4.81315
21
-3.10866
0
LINE
8
BLACK
6
CONTINUOUS
10
4.81315
20
-3.10866
11
4.82283
21
-3.10866
0
LINE
8
BLACK
6
CONTINUOUS
10
4.82283
20
-3.10866
11
4.82283
21
-3.14807
0
LINE
8
BLACK
6
CONTINUOUS
10
4.82283
20
-3.14807
11
4.84282
21
-3.14807
0
LINE
8
BLACK
6
CONTINUOUS
10
4.84282
20
-3.14807
11
4.84356
21
-3.1479
0
LINE
8
BLACK
6
CONTINUOUS
10
4.84356
20
-3.1479
11
4.8437
21
-3.14762
0
LINE
8
BLACK
6
CONTINUOUS
10
4.8437
20
-3.14762
11
4.8437
21
-3.10728
0
LINE
8
BLACK
6
CONTINUOUS
10
4.8437
20
-3.10728
11
4.84367
21
-3.10681
0
LINE
8
BLACK
6
CONTINUOUS
10
4.84367
20
-3.10681
11
4.84335
21
-3.10414
0
LINE
8
BLACK
6
CONTINUOUS
10
4.84335
20
-3.10414
11
4.8431
21
-3.10317
0
LINE
8
BLACK
6
CONTINUOUS
10
4.8431
20
-3.10317
11
4.84138
21
-3.09882
0
LINE
8
BLACK
6
CONTINUOUS
10
4.84138
20
-3.09882
11
4.84086
21
-3.0979
0
LINE
8
BLACK
6
CONTINUOUS
10
4.84086
20
-3.0979
11
4.83805
21
-3.09419
0
LINE
8
BLACK
6
CONTINUOUS
10
4.83805
20
-3.09419
11
4.8373
21
-3.09345
0
LINE
8
BLACK
6
CONTINUOUS
10
4.8373
20
-3.09345
11
4.8336
21
-3.09063
0
LINE
8
BLACK
6
CONTINUOUS
10
4.8336
20
-3.09063
11
4.83268
21
-3.09012
0
LINE
8
BLACK
6
CONTINUOUS
10
4.83268
20
-3.09012
11
4.82833
21
-3.08839
0
LINE
8
BLACK
6
CONTINUOUS
10
4.82833
20
-3.08839
11
4.82736
21
-3.08815
0
LINE
8
BLACK
6
CONTINUOUS
10
4.82736
20
-3.08815
11
4.82469
21
-3.08782
0
LINE
8
BLACK
6
CONTINUOUS
10
4.82469
20
-3.08782
11
4.82422
21
-3.0878
0
LINE
8
BLACK
6
CONTINUOUS
10
4.82422
20
-3.0878
11
4.81403
21
-3.0878
0
LINE
8
BLACK
6
CONTINUOUS
10
4.73811
20
-3.23465
11
4.73811
21
-3.23465
0
LINE
8
BLACK
6
CONTINUOUS
10
4.73811
20
-3.23465
11
4.73802
21
-3.23404
0
LINE
8
BLACK
6
CONTINUOUS
10
4.73802
20
-3.23404
11
4.73575
21
-3.22959
0
LINE
8
BLACK
6
CONTINUOUS
10
4.73575
20
-3.22959
11
4.73222
21
-3.22606
0
LINE
8
BLACK
6
CONTINUOUS
10
4.73222
20
-3.22606
11
4.72777
21
-3.22379
0
LINE
8
BLACK
6
CONTINUOUS
10
4.72777
20
-3.22379
11
4.72408
21
-3.22321
0
LINE
8
BLACK
6
CONTINUOUS
10
4.72408
20
-3.22321
11
4.72377
21
-3.22321
0
LINE
8
BLACK
6
CONTINUOUS
10
4.72377
20
-3.22321
11
4.70313
21
-3.22321
0
LINE
8
BLACK
6
CONTINUOUS
10
4.70313
20
-3.22321
11
4.68222
21
-3.22321
0
LINE
8
BLACK
6
CONTINUOUS
10
4.68222
20
-3.22321
11
4.68192
21
-3.22326
0
LINE
8
BLACK
6
CONTINUOUS
10
4.68192
20
-3.22326
11
4.68192
21
-3.22326
0
LINE
8
BLACK
6
CONTINUOUS
10
4.68192
20
-3.22326
11
4.67914
21
-3.2237
0
LINE
8
BLACK
6
CONTINUOUS
10
4.67914
20
-3.2237
11
4.67914
21
-3.2237
0
LINE
8
BLACK
6
CONTINUOUS
10
4.67914
20
-3.2237
11
4.67853
21
-3.22379
0
LINE
8
BLACK
6
CONTINUOUS
10
4.67853
20
-3.22379
11
4.67798
21
-3.22407
0
LINE
8
BLACK
6
CONTINUOUS
10
4.67798
20
-3.22407
11
4.67798
21
-3.22407
0
LINE
8
BLACK
6
CONTINUOUS
10
4.67798
20
-3.22407
11
4.67691
21
-3.22462
0
LINE
8
BLACK
6
CONTINUOUS
10
4.67691
20
-3.22462
11
4.67408
21
-3.22606
0
LINE
8
BLACK
6
CONTINUOUS
10
4.67408
20
-3.22606
11
4.67055
21
-3.22959
0
LINE
8
BLACK
6
CONTINUOUS
10
4.67055
20
-3.22959
11
4.66828
21
-3.23404
0
LINE
8
BLACK
6
CONTINUOUS
10
4.66828
20
-3.23404
11
4.6677
21
-3.23774
0
LINE
8
BLACK
6
CONTINUOUS
10
4.6677
20
-3.23774
11
4.6677
21
-3.33904
0
LINE
8
BLACK
6
CONTINUOUS
10
4.6677
20
-3.33904
11
4.66775
21
-3.33934
0
LINE
8
BLACK
6
CONTINUOUS
10
4.66775
20
-3.33934
11
4.66775
21
-3.33934
0
LINE
8
BLACK
6
CONTINUOUS
10
4.66775
20
-3.33934
11
4.66819
21
-3.34212
0
LINE
8
BLACK
6
CONTINUOUS
10
4.66819
20
-3.34212
11
4.66819
21
-3.34212
0
LINE
8
BLACK
6
CONTINUOUS
10
4.66819
20
-3.34212
11
4.66828
21
-3.34273
0
LINE
8
BLACK
6
CONTINUOUS
10
4.66828
20
-3.34273
11
4.67055
21
-3.34718
0
LINE
8
BLACK
6
CONTINUOUS
10
4.67055
20
-3.34718
11
4.67408
21
-3.35071
0
LINE
8
BLACK
6
CONTINUOUS
10
4.67408
20
-3.35071
11
4.67463
21
-3.35099
0
LINE
8
BLACK
6
CONTINUOUS
10
4.67463
20
-3.35099
11
4.67523
21
-3.3513
0
LINE
8
BLACK
6
CONTINUOUS
10
4.67523
20
-3.3513
11
4.67791
21
-3.35353
0
LINE
8
BLACK
6
CONTINUOUS
10
4.67791
20
-3.35353
11
4.67935
21
-3.35671
0
LINE
8
BLACK
6
CONTINUOUS
10
4.67935
20
-3.35671
11
4.67951
21
-3.35828
0
LINE
8
BLACK
6
CONTINUOUS
10
4.67951
20
-3.35828
11
4.67951
21
-3.48455
0
LINE
8
BLACK
6
CONTINUOUS
10
4.67951
20
-3.48455
11
4.67944
21
-3.48557
0
LINE
8
BLACK
6
CONTINUOUS
10
4.67944
20
-3.48557
11
4.67937
21
-3.4861
0
LINE
8
BLACK
6
CONTINUOUS
10
4.67937
20
-3.4861
11
4.67937
21
-3.48611
0
LINE
8
BLACK
6
CONTINUOUS
10
4.67937
20
-3.48611
11
4.6793
21
-3.48661
0
LINE
8
BLACK
6
CONTINUOUS
10
4.6793
20
-3.48661
11
4.67937
21
-3.48712
0
LINE
8
BLACK
6
CONTINUOUS
10
4.67937
20
-3.48712
11
4.67951
21
-3.48816
0
LINE
8
BLACK
6
CONTINUOUS
10
4.67951
20
-3.48816
11
4.67957
21
-3.48862
0
LINE
8
BLACK
6
CONTINUOUS
10
4.67957
20
-3.48862
11
4.68012
21
-3.49279
0
LINE
8
BLACK
6
CONTINUOUS
10
4.68012
20
-3.49279
11
4.68031
21
-3.49326
0
LINE
8
BLACK
6
CONTINUOUS
10
4.68031
20
-3.49326
11
4.68031
21
-3.49326
0
LINE
8
BLACK
6
CONTINUOUS
10
4.68031
20
-3.49326
11
4.68033
21
-3.4933
0
LINE
8
BLACK
6
CONTINUOUS
10
4.68033
20
-3.4933
11
4.68034
21
-3.49337
0
LINE
8
BLACK
6
CONTINUOUS
10
4.68034
20
-3.49337
11
4.68045
21
-3.49376
0
LINE
8
BLACK
6
CONTINUOUS
10
4.68045
20
-3.49376
11
4.68042
21
-3.49376
0
LINE
8
BLACK
6
CONTINUOUS
10
4.68042
20
-3.49376
11
4.68078
21
-3.49563
0
LINE
8
BLACK
6
CONTINUOUS
10
4.68078
20
-3.49563
11
4.68089
21
-3.49562
0
LINE
8
BLACK
6
CONTINUOUS
10
4.68089
20
-3.49562
11
4.68099
21
-3.4967
0
LINE
8
BLACK
6
CONTINUOUS
10
4.68099
20
-3.4967
11
4.68158
21
-3.50266
0
LINE
8
BLACK
6
CONTINUOUS
10
4.68158
20
-3.50266
11
4.68381
21
-3.50937
0
LINE
8
BLACK
6
CONTINUOUS
10
4.68381
20
-3.50937
11
4.68747
21
-3.51541
0
LINE
8
BLACK
6
CONTINUOUS
10
4.68747
20
-3.51541
11
4.69238
21
-3.5205
0
LINE
8
BLACK
6
CONTINUOUS
10
4.69238
20
-3.5205
11
4.6983
21
-3.52437
0
LINE
8
BLACK
6
CONTINUOUS
10
4.6983
20
-3.52437
11
4.69871
21
-3.52452
0
LINE
8
BLACK
6
CONTINUOUS
10
4.69871
20
-3.52452
11
4.70452
21
-3.52668
0
LINE
8
BLACK
6
CONTINUOUS
10
4.70452
20
-3.52668
11
4.70452
21
-3.52668
0
LINE
8
BLACK
6
CONTINUOUS
10
4.70452
20
-3.52668
11
4.70493
21
-3.52684
0
LINE
8
BLACK
6
CONTINUOUS
10
4.70493
20
-3.52684
11
4.70536
21
-3.52689
0
LINE
8
BLACK
6
CONTINUOUS
10
4.70536
20
-3.52689
11
4.70536
21
-3.52689
0
LINE
8
BLACK
6
CONTINUOUS
10
4.70536
20
-3.52689
11
4.71002
21
-3.52752
0
LINE
8
BLACK
6
CONTINUOUS
10
4.71002
20
-3.52752
11
4.71193
21
-3.52777
0
LINE
8
BLACK
6
CONTINUOUS
10
4.71193
20
-3.52777
11
4.71237
21
-3.52773
0
LINE
8
BLACK
6
CONTINUOUS
10
4.71237
20
-3.52773
11
4.71854
21
-3.52717
0
LINE
8
BLACK
6
CONTINUOUS
10
4.71854
20
-3.52717
11
4.71854
21
-3.52717
0
LINE
8
BLACK
6
CONTINUOUS
10
4.71854
20
-3.52717
11
4.71898
21
-3.52713
0
LINE
8
BLACK
6
CONTINUOUS
10
4.71898
20
-3.52713
11
4.72234
21
-3.52604
0
LINE
8
BLACK
6
CONTINUOUS
10
4.72234
20
-3.52604
11
4.72528
21
-3.52508
0
LINE
8
BLACK
6
CONTINUOUS
10
4.72528
20
-3.52508
11
4.72528
21
-3.52508
0
LINE
8
BLACK
6
CONTINUOUS
10
4.72528
20
-3.52508
11
4.7257
21
-3.52495
0
LINE
8
BLACK
6
CONTINUOUS
10
4.7257
20
-3.52495
11
4.72666
21
-3.52437
0
LINE
8
BLACK
6
CONTINUOUS
10
4.72666
20
-3.52437
11
4.7314
21
-3.52155
0
LINE
8
BLACK
6
CONTINUOUS
10
4.7314
20
-3.52155
11
4.7314
21
-3.52155
0
LINE
8
BLACK
6
CONTINUOUS
10
4.7314
20
-3.52155
11
4.73177
21
-3.52133
0
LINE
8
BLACK
6
CONTINUOUS
10
4.73177
20
-3.52133
11
4.73689
21
-3.51645
0
LINE
8
BLACK
6
CONTINUOUS
10
4.73689
20
-3.51645
11
4.73758
21
-3.51541
0
LINE
8
BLACK
6
CONTINUOUS
10
4.73758
20
-3.51541
11
4.74056
21
-3.51092
0
LINE
8
BLACK
6
CONTINUOUS
10
4.74056
20
-3.51092
11
4.74081
21
-3.51056
0
LINE
8
BLACK
6
CONTINUOUS
10
4.74081
20
-3.51056
11
4.74332
21
-3.50395
0
LINE
8
BLACK
6
CONTINUOUS
10
4.74332
20
-3.50395
11
4.7443
21
-3.49695
0
LINE
8
BLACK
6
CONTINUOUS
10
4.7443
20
-3.49695
11
4.74431
21
-3.49606
0
LINE
8
BLACK
6
CONTINUOUS
10
4.74431
20
-3.49606
11
4.74427
21
-3.49563
0
LINE
8
BLACK
6
CONTINUOUS
10
4.74427
20
-3.49563
11
4.74357
21
-3.48947
0
LINE
8
BLACK
6
CONTINUOUS
10
4.74357
20
-3.48947
11
4.74357
21
-3.48947
0
LINE
8
BLACK
6
CONTINUOUS
10
4.74357
20
-3.48947
11
4.74353
21
-3.48904
0
LINE
8
BLACK
6
CONTINUOUS
10
4.74353
20
-3.48904
11
4.7425
21
-3.4861
0
LINE
8
BLACK
6
CONTINUOUS
10
4.7425
20
-3.4861
11
4.74134
21
-3.48277
0
LINE
8
BLACK
6
CONTINUOUS
10
4.74134
20
-3.48277
11
4.7412
21
-3.48236
0
LINE
8
BLACK
6
CONTINUOUS
10
4.7412
20
-3.48236
11
4.73745
21
-3.47636
0
LINE
8
BLACK
6
CONTINUOUS
10
4.73745
20
-3.47636
11
4.73247
21
-3.47135
0
LINE
8
BLACK
6
CONTINUOUS
10
4.73247
20
-3.47135
11
4.73043
21
-3.47005
0
LINE
8
BLACK
6
CONTINUOUS
10
4.73043
20
-3.47005
11
4.72797
21
-3.46757
0
LINE
8
BLACK
6
CONTINUOUS
10
4.72797
20
-3.46757
11
4.72684
21
-3.46428
0
LINE
8
BLACK
6
CONTINUOUS
10
4.72684
20
-3.46428
11
4.72679
21
-3.46343
0
LINE
8
BLACK
6
CONTINUOUS
10
4.72679
20
-3.46343
11
4.72679
21
-3.35828
0
LINE
8
BLACK
6
CONTINUOUS
10
4.72679
20
-3.35828
11
4.72757
21
-3.35488
0
LINE
8
BLACK
6
CONTINUOUS
10
4.72757
20
-3.35488
11
4.72974
21
-3.35215
0
LINE
8
BLACK
6
CONTINUOUS
10
4.72974
20
-3.35215
11
4.73107
21
-3.3513
0
LINE
8
BLACK
6
CONTINUOUS
10
4.73107
20
-3.3513
11
4.73167
21
-3.35099
0
LINE
8
BLACK
6
CONTINUOUS
10
4.73167
20
-3.35099
11
4.73222
21
-3.35071
0
LINE
8
BLACK
6
CONTINUOUS
10
4.73222
20
-3.35071
11
4.73575
21
-3.34718
0
LINE
8
BLACK
6
CONTINUOUS
10
4.73575
20
-3.34718
11
4.73802
21
-3.34273
0
LINE
8
BLACK
6
CONTINUOUS
10
4.73802
20
-3.34273
11
4.7386
21
-3.33904
0
LINE
8
BLACK
6
CONTINUOUS
10
4.7386
20
-3.33904
11
4.7386
21
-3.23774
0
LINE
8
BLACK
6
CONTINUOUS
10
4.7386
20
-3.23774
11
4.7386
21
-3.23774
0
LINE
8
BLACK
6
CONTINUOUS
10
4.7386
20
-3.23774
11
4.73855
21
-3.23743
0
LINE
8
BLACK
6
CONTINUOUS
10
4.73855
20
-3.23743
11
4.73811
21
-3.23465
0
LINE
8
BLACK
6
CONTINUOUS
10
4.8136
20
-3.22835
11
4.82422
21
-3.22835
0
LINE
8
BLACK
6
CONTINUOUS
10
4.82422
20
-3.22835
11
4.82469
21
-3.22832
0
LINE
8
BLACK
6
CONTINUOUS
10
4.82469
20
-3.22832
11
4.82736
21
-3.228
0
LINE
8
BLACK
6
CONTINUOUS
10
4.82736
20
-3.228
11
4.82833
21
-3.22775
0
LINE
8
BLACK
6
CONTINUOUS
10
4.82833
20
-3.22775
11
4.83268
21
-3.22603
0
LINE
8
BLACK
6
CONTINUOUS
10
4.83268
20
-3.22603
11
4.8336
21
-3.22551
0
LINE
8
BLACK
6
CONTINUOUS
10
4.8336
20
-3.22551
11
4.8373
21
-3.2227
0
LINE
8
BLACK
6
CONTINUOUS
10
4.8373
20
-3.2227
11
4.83805
21
-3.22195
0
LINE
8
BLACK
6
CONTINUOUS
10
4.83805
20
-3.22195
11
4.84086
21
-3.21825
0
LINE
8
BLACK
6
CONTINUOUS
10
4.84086
20
-3.21825
11
4.84138
21
-3.21732
0
LINE
8
BLACK
6
CONTINUOUS
10
4.84138
20
-3.21732
11
4.8431
21
-3.21297
0
LINE
8
BLACK
6
CONTINUOUS
10
4.8431
20
-3.21297
11
4.84335
21
-3.212
0
LINE
8
BLACK
6
CONTINUOUS
10
4.84335
20
-3.212
11
4.84367
21
-3.20934
0
LINE
8
BLACK
6
CONTINUOUS
10
4.84367
20
-3.20934
11
4.8437
21
-3.20887
0
LINE
8
BLACK
6
CONTINUOUS
10
4.8437
20
-3.20887
11
4.8437
21
-3.16895
0
LINE
8
BLACK
6
CONTINUOUS
10
4.8437
20
-3.16895
11
4.84353
21
-3.16821
0
LINE
8
BLACK
6
CONTINUOUS
10
4.84353
20
-3.16821
11
4.84325
21
-3.16807
0
LINE
8
BLACK
6
CONTINUOUS
10
4.84325
20
-3.16807
11
4.82283
21
-3.16807
0
LINE
8
BLACK
6
CONTINUOUS
10
4.82283
20
-3.16807
11
4.82283
21
-3.20748
0
LINE
8
BLACK
6
CONTINUOUS
10
4.82283
20
-3.20748
11
4.81315
21
-3.20748
0
LINE
8
BLACK
6
CONTINUOUS
10
4.81315
20
-3.20748
11
4.81315
21
-3.22746
0
LINE
8
BLACK
6
CONTINUOUS
10
4.81315
20
-3.22746
11
4.81332
21
-3.22821
0
LINE
8
BLACK
6
CONTINUOUS
10
4.81332
20
-3.22821
11
4.8136
21
-3.22835
0
LINE
8
BLACK
6
CONTINUOUS
10
4.78346
20
-3.20748
11
4.78346
21
-3.16807
0
LINE
8
BLACK
6
CONTINUOUS
10
4.78346
20
-3.16807
11
4.76348
21
-3.16807
0
LINE
8
BLACK
6
CONTINUOUS
10
4.76348
20
-3.16807
11
4.76273
21
-3.16824
0
LINE
8
BLACK
6
CONTINUOUS
10
4.76273
20
-3.16824
11
4.7626
21
-3.16852
0
LINE
8
BLACK
6
CONTINUOUS
10
4.7626
20
-3.16852
11
4.7626
21
-3.20887
0
LINE
8
BLACK
6
CONTINUOUS
10
4.7626
20
-3.20887
11
4.76263
21
-3.20934
0
LINE
8
BLACK
6
CONTINUOUS
10
4.76263
20
-3.20934
11
4.76295
21
-3.212
0
LINE
8
BLACK
6
CONTINUOUS
10
4.76295
20
-3.212
11
4.7632
21
-3.21297
0
LINE
8
BLACK
6
CONTINUOUS
10
4.7632
20
-3.21297
11
4.76492
21
-3.21732
0
LINE
8
BLACK
6
CONTINUOUS
10
4.76492
20
-3.21732
11
4.76544
21
-3.21825
0
LINE
8
BLACK
6
CONTINUOUS
10
4.76544
20
-3.21825
11
4.76825
21
-3.22195
0
LINE
8
BLACK
6
CONTINUOUS
10
4.76825
20
-3.22195
11
4.769
21
-3.2227
0
LINE
8
BLACK
6
CONTINUOUS
10
4.769
20
-3.2227
11
4.7727
21
-3.22551
0
LINE
8
BLACK
6
CONTINUOUS
10
4.7727
20
-3.22551
11
4.77362
21
-3.22603
0
LINE
8
BLACK
6
CONTINUOUS
10
4.77362
20
-3.22603
11
4.77797
21
-3.22775
0
LINE
8
BLACK
6
CONTINUOUS
10
4.77797
20
-3.22775
11
4.77894
21
-3.228
0
LINE
8
BLACK
6
CONTINUOUS
10
4.77894
20
-3.228
11
4.78161
21
-3.22832
0
LINE
8
BLACK
6
CONTINUOUS
10
4.78161
20
-3.22832
11
4.78208
21
-3.22835
0
LINE
8
BLACK
6
CONTINUOUS
10
4.78208
20
-3.22835
11
4.79227
21
-3.22835
0
LINE
8
BLACK
6
CONTINUOUS
10
4.79227
20
-3.22835
11
4.79301
21
-3.22818
0
LINE
8
BLACK
6
CONTINUOUS
10
4.79301
20
-3.22818
11
4.79315
21
-3.22789
0
LINE
8
BLACK
6
CONTINUOUS
10
4.79315
20
-3.22789
11
4.79315
21
-3.20748
0
LINE
8
BLACK
6
CONTINUOUS
10
4.79315
20
-3.20748
11
4.78346
21
-3.20748
0
LINE
8
BLACK
6
CONTINUOUS
10
4.76305
20
-3.14807
11
4.78346
21
-3.14807
0
LINE
8
BLACK
6
CONTINUOUS
10
4.78346
20
-3.14807
11
4.78346
21
-3.10866
0
LINE
8
BLACK
6
CONTINUOUS
10
4.78346
20
-3.10866
11
4.79315
21
-3.10866
0
LINE
8
BLACK
6
CONTINUOUS
10
4.79315
20
-3.10866
11
4.79315
21
-3.08868
0
LINE
8
BLACK
6
CONTINUOUS
10
4.79315
20
-3.08868
11
4.79298
21
-3.08793
0
LINE
8
BLACK
6
CONTINUOUS
10
4.79298
20
-3.08793
11
4.7927
21
-3.0878
0
LINE
8
BLACK
6
CONTINUOUS
10
4.7927
20
-3.0878
11
4.78208
21
-3.0878
0
LINE
8
BLACK
6
CONTINUOUS
10
4.78208
20
-3.0878
11
4.78161
21
-3.08782
0
LINE
8
BLACK
6
CONTINUOUS
10
4.78161
20
-3.08782
11
4.77894
21
-3.08815
0
LINE
8
BLACK
6
CONTINUOUS
10
4.77894
20
-3.08815
11
4.77797
21
-3.08839
0
LINE
8
BLACK
6
CONTINUOUS
10
4.77797
20
-3.08839
11
4.77362
21
-3.09012
0
LINE
8
BLACK
6
CONTINUOUS
10
4.77362
20
-3.09012
11
4.7727
21
-3.09063
0
LINE
8
BLACK
6
CONTINUOUS
10
4.7727
20
-3.09063
11
4.769
21
-3.09345
0
LINE
8
BLACK
6
CONTINUOUS
10
4.769
20
-3.09345
11
4.76825
21
-3.09419
0
LINE
8
BLACK
6
CONTINUOUS
10
4.76825
20
-3.09419
11
4.76544
21
-3.0979
0
LINE
8
BLACK
6
CONTINUOUS
10
4.76544
20
-3.0979
11
4.76492
21
-3.09882
0
LINE
8
BLACK
6
CONTINUOUS
10
4.76492
20
-3.09882
11
4.7632
21
-3.10317
0
LINE
8
BLACK
6
CONTINUOUS
10
4.7632
20
-3.10317
11
4.76295
21
-3.10414
0
LINE
8
BLACK
6
CONTINUOUS
10
4.76295
20
-3.10414
11
4.76263
21
-3.10681
0
LINE
8
BLACK
6
CONTINUOUS
10
4.76263
20
-3.10681
11
4.7626
21
-3.10728
0
LINE
8
BLACK
6
CONTINUOUS
10
4.7626
20
-3.10728
11
4.7626
21
-3.14719
0
LINE
8
BLACK
6
CONTINUOUS
10
4.7626
20
-3.14719
11
4.76277
21
-3.14793
0
LINE
8
BLACK
6
CONTINUOUS
10
4.76277
20
-3.14793
11
4.76305
21
-3.14807
0
LINE
8
BLACK
6
CONTINUOUS
10
4.72283
20
-3.3378
11
4.71102
21
-3.3378
0
LINE
8
BLACK
6
CONTINUOUS
10
4.71102
20
-3.3378
11
4.71102
21
-3.48056
0
LINE
8
BLACK
6
CONTINUOUS
10
4.71102
20
-3.48056
11
4.7126
21
-3.48031
0
LINE
8
BLACK
6
CONTINUOUS
10
4.7126
20
-3.48031
11
4.71746
21
-3.48109
0
LINE
8
BLACK
6
CONTINUOUS
10
4.71746
20
-3.48109
11
4.72185
21
-3.48332
0
LINE
8
BLACK
6
CONTINUOUS
10
4.72185
20
-3.48332
11
4.72534
21
-3.48681
0
LINE
8
BLACK
6
CONTINUOUS
10
4.72534
20
-3.48681
11
4.72758
21
-3.4912
0
LINE
8
BLACK
6
CONTINUOUS
10
4.72758
20
-3.4912
11
4.72835
21
-3.49606
0
LINE
8
BLACK
6
CONTINUOUS
10
4.72835
20
-3.49606
11
4.72758
21
-3.50093
0
LINE
8
BLACK
6
CONTINUOUS
10
4.72758
20
-3.50093
11
4.72534
21
-3.50532
0
LINE
8
BLACK
6
CONTINUOUS
10
4.72534
20
-3.50532
11
4.72185
21
-3.5088
0
LINE
8
BLACK
6
CONTINUOUS
10
4.72185
20
-3.5088
11
4.71746
21
-3.51104
0
LINE
8
BLACK
6
CONTINUOUS
10
4.71746
20
-3.51104
11
4.7126
21
-3.51181
0
LINE
8
BLACK
6
CONTINUOUS
10
4.7126
20
-3.51181
11
4.70773
21
-3.51104
0
LINE
8
BLACK
6
CONTINUOUS
10
4.70773
20
-3.51104
11
4.70334
21
-3.5088
0
LINE
8
BLACK
6
CONTINUOUS
10
4.70334
20
-3.5088
11
4.69986
21
-3.50532
0
LINE
8
BLACK
6
CONTINUOUS
10
4.69986
20
-3.50532
11
4.69762
21
-3.50093
0
LINE
8
BLACK
6
CONTINUOUS
10
4.69762
20
-3.50093
11
4.69685
21
-3.49606
0
LINE
8
BLACK
6
CONTINUOUS
10
4.69685
20
-3.49606
11
4.69749
21
-3.49204
0
LINE
8
BLACK
6
CONTINUOUS
10
4.69749
20
-3.49204
11
4.69687
21
-3.49106
0
LINE
8
BLACK
6
CONTINUOUS
10
4.69687
20
-3.49106
11
4.69605
21
-3.49003
0
LINE
8
BLACK
6
CONTINUOUS
10
4.69605
20
-3.49003
11
4.69595
21
-3.48959
0
LINE
8
BLACK
6
CONTINUOUS
10
4.69595
20
-3.48959
11
4.69571
21
-3.4892
0
LINE
8
BLACK
6
CONTINUOUS
10
4.69571
20
-3.4892
11
4.69557
21
-3.4879
0
LINE
8
BLACK
6
CONTINUOUS
10
4.69557
20
-3.4879
11
4.69528
21
-3.48661
0
LINE
8
BLACK
6
CONTINUOUS
10
4.69528
20
-3.48661
11
4.69528
21
-3.3378
0
LINE
8
BLACK
6
CONTINUOUS
10
4.69528
20
-3.3378
11
4.68346
21
-3.3378
0
LINE
8
BLACK
6
CONTINUOUS
10
4.68346
20
-3.3378
11
4.68346
21
-3.23898
0
LINE
8
BLACK
6
CONTINUOUS
10
4.68346
20
-3.23898
11
4.72283
21
-3.23898
0
LINE
8
BLACK
6
CONTINUOUS
10
4.72283
20
-3.23898
11
4.72283
21
-3.3378
0
LINE
8
BLACK
6
CONTINUOUS
10
4.90565
20
-2.99762
11
4.91004
21
-2.99986
0
LINE
8
BLACK
6
CONTINUOUS
10
4.91004
20
-2.99986
11
4.91353
21
-3.00334
0
LINE
8
BLACK
6
CONTINUOUS
10
4.91353
20
-3.00334
11
4.91576
21
-3.00773
0
LINE
8
BLACK
6
CONTINUOUS
10
4.91576
20
-3.00773
11
4.91654
21
-3.0126
0
LINE
8
BLACK
6
CONTINUOUS
10
4.91654
20
-3.0126
11
4.91576
21
-3.01746
0
LINE
8
BLACK
6
CONTINUOUS
10
4.91576
20
-3.01746
11
4.91353
21
-3.02185
0
LINE
8
BLACK
6
CONTINUOUS
10
4.91353
20
-3.02185
11
4.91102
21
-3.02436
0
LINE
8
BLACK
6
CONTINUOUS
10
4.91102
20
-3.02436
11
4.91102
21
-3.23898
0
LINE
8
BLACK
6
CONTINUOUS
10
4.91102
20
-3.23898
11
4.92283
21
-3.23898
0
LINE
8
BLACK
6
CONTINUOUS
10
4.92283
20
-3.23898
11
4.92283
21
-3.3378
0
LINE
8
BLACK
6
CONTINUOUS
10
4.92283
20
-3.3378
11
4.88346
21
-3.3378
0
LINE
8
BLACK
6
CONTINUOUS
10
4.88346
20
-3.3378
11
4.88346
21
-3.23898
0
LINE
8
BLACK
6
CONTINUOUS
10
4.88346
20
-3.23898
11
4.89528
21
-3.23898
0
LINE
8
BLACK
6
CONTINUOUS
10
4.89528
20
-3.23898
11
4.89528
21
-3.02725
0
LINE
8
BLACK
6
CONTINUOUS
10
4.89528
20
-3.02725
11
4.89153
21
-3.02534
0
LINE
8
BLACK
6
CONTINUOUS
10
4.89153
20
-3.02534
11
4.88805
21
-3.02185
0
LINE
8
BLACK
6
CONTINUOUS
10
4.88805
20
-3.02185
11
4.88581
21
-3.01746
0
LINE
8
BLACK
6
CONTINUOUS
10
4.88581
20
-3.01746
11
4.88504
21
-3.0126
0
LINE
8
BLACK
6
CONTINUOUS
10
4.88504
20
-3.0126
11
4.88581
21
-3.00773
0
LINE
8
BLACK
6
CONTINUOUS
10
4.88581
20
-3.00773
11
4.88805
21
-3.00334
0
LINE
8
BLACK
6
CONTINUOUS
10
4.88805
20
-3.00334
11
4.89153
21
-2.99986
0
LINE
8
BLACK
6
CONTINUOUS
10
4.89153
20
-2.99986
11
4.89592
21
-2.99762
0
LINE
8
BLACK
6
CONTINUOUS
10
4.89592
20
-2.99762
11
4.90079
21
-2.99685
0
LINE
8
BLACK
6
CONTINUOUS
10
4.90079
20
-2.99685
11
4.90565
21
-2.99762
0
CIRCLE
8
BLACK
10
4.7126
20
-3.49606
40
0.00787402
0
CIRCLE
8
BLACK
10
4.90079
20
-3.0126
40
0.00787402
  0
ENDSEC
  0
EOF
