  0
SECTION
  2
HEADER
  9
$ANGBASE
  50
0.0
  9
$ANGDIR
  70
1
  9
$MEASUREMENT
  70
0
  0
ENDSEC
  0
SECTION
  2
TABLES
  0
TABLE
  2
LTYPE
  70
4
  0
LTYPE
  5
40F
  2
CONTINUOUS
  70
0
  3
Solid line
  72
65
  73
0
  40
0.0
  0
LTYPE
  5
410
  2
DASHDOT
 70
0
  3
Dash Dot ____ _ ____ _
 72
65
 73
4
 40
2.0
 49
1.25
 49
-0.25
 49
0.25
 49
-0.25
  0
LTYPE
  5
411
  2
DASHED
 70
0
  3
Dashed __ __ __ __ __
 72
65
 73
2
 40
0.75
 49
0.5
 49
-0.25
  0
LTYPE
  5
43B
  2
DOTTED
 70
0
  3
Dotted .  .  .  .
 72
65
 73
2
 40
0.2
 49
0.0
 49
-0.2
  0
ENDTAB
  0
TABLE
  2
STYLE
  70
4
  0
STYLE
  2
KICAD
  70
0
  40
0
  41
1
  42
1
  50
0
  71
0
  3
isocp.shx
  0
STYLE
  2
KICADB
  70
0
  40
0
  41
1
  42
1
  50
0
  71
0
  3
isocp.shx
  0
STYLE
  2
KICADI
  70
0
  40
0
  41
1
  42
1
  50
15
  71
0
  3
isocp.shx
  0
STYLE
  2
KICADBI
  70
0
  40
0
  41
1
  42
1
  50
15
  71
0
  3
isocp.shx
  0
ENDTAB
  0
TABLE
  2
LAYER
  70
1
  0
LAYER
  2
BLACK
  70
0
  62
7
  6
CONTINUOUS
  0
ENDTAB
  0
ENDSEC
  0
SECTION
  2
ENTITIES
0
LINE
8
BLACK
6
CONTINUOUS
10
0.626929
20
-0.374961
11
0.626929
21
-0.474961
0
LINE
8
BLACK
6
CONTINUOUS
10
0.626929
20
-0.474961
11
0.626353
21
-0.476353
0
LINE
8
BLACK
6
CONTINUOUS
10
0.626353
20
-0.476353
11
0.624961
21
-0.476929
0
LINE
8
BLACK
6
CONTINUOUS
10
0.624961
20
-0.476929
11
0.589528
21
-0.476929
0
LINE
8
BLACK
6
CONTINUOUS
10
0.589528
20
-0.476929
11
0.589528
21
-0.524961
0
LINE
8
BLACK
6
CONTINUOUS
10
0.589528
20
-0.524961
11
0.588951
21
-0.526353
0
LINE
8
BLACK
6
CONTINUOUS
10
0.588951
20
-0.526353
11
0.587559
21
-0.526929
0
LINE
8
BLACK
6
CONTINUOUS
10
0.587559
20
-0.526929
11
0.562362
21
-0.526929
0
LINE
8
BLACK
6
CONTINUOUS
10
0.562362
20
-0.526929
11
0.56097
21
-0.526353
0
LINE
8
BLACK
6
CONTINUOUS
10
0.56097
20
-0.526353
11
0.560394
21
-0.524961
0
LINE
8
BLACK
6
CONTINUOUS
10
0.560394
20
-0.524961
11
0.560394
21
-0.476929
0
LINE
8
BLACK
6
CONTINUOUS
10
0.560394
20
-0.476929
11
0.389528
21
-0.476929
0
LINE
8
BLACK
6
CONTINUOUS
10
0.389528
20
-0.476929
11
0.389528
21
-0.524961
0
LINE
8
BLACK
6
CONTINUOUS
10
0.389528
20
-0.524961
11
0.388951
21
-0.526353
0
LINE
8
BLACK
6
CONTINUOUS
10
0.388951
20
-0.526353
11
0.387559
21
-0.526929
0
LINE
8
BLACK
6
CONTINUOUS
10
0.387559
20
-0.526929
11
0.362362
21
-0.526929
0
LINE
8
BLACK
6
CONTINUOUS
10
0.362362
20
-0.526929
11
0.36097
21
-0.526353
0
LINE
8
BLACK
6
CONTINUOUS
10
0.36097
20
-0.526353
11
0.360394
21
-0.524961
0
LINE
8
BLACK
6
CONTINUOUS
10
0.360394
20
-0.524961
11
0.360394
21
-0.475776
0
LINE
8
BLACK
6
CONTINUOUS
10
0.360394
20
-0.475776
11
0.323569
21
-0.438951
0
LINE
8
BLACK
6
CONTINUOUS
10
0.323569
20
-0.438951
11
0.322992
21
-0.437559
0
LINE
8
BLACK
6
CONTINUOUS
10
0.322992
20
-0.437559
11
0.322992
21
-0.374961
0
LINE
8
BLACK
6
CONTINUOUS
10
0.322992
20
-0.374961
11
0.323569
21
-0.373569
0
LINE
8
BLACK
6
CONTINUOUS
10
0.323569
20
-0.373569
11
0.324961
21
-0.372992
0
LINE
8
BLACK
6
CONTINUOUS
10
0.324961
20
-0.372992
11
0.460394
21
-0.372992
0
LINE
8
BLACK
6
CONTINUOUS
10
0.460394
20
-0.372992
11
0.460394
21
-0.324961
0
LINE
8
BLACK
6
CONTINUOUS
10
0.460394
20
-0.324961
11
0.46097
21
-0.323569
0
LINE
8
BLACK
6
CONTINUOUS
10
0.46097
20
-0.323569
11
0.462362
21
-0.322992
0
LINE
8
BLACK
6
CONTINUOUS
10
0.462362
20
-0.322992
11
0.487559
21
-0.322992
0
LINE
8
BLACK
6
CONTINUOUS
10
0.487559
20
-0.322992
11
0.488951
21
-0.323569
0
LINE
8
BLACK
6
CONTINUOUS
10
0.488951
20
-0.323569
11
0.489528
21
-0.324961
0
LINE
8
BLACK
6
CONTINUOUS
10
0.489528
20
-0.324961
11
0.489528
21
-0.372992
0
LINE
8
BLACK
6
CONTINUOUS
10
0.489528
20
-0.372992
11
0.624961
21
-0.372992
0
LINE
8
BLACK
6
CONTINUOUS
10
0.624961
20
-0.372992
11
0.626353
21
-0.373569
0
LINE
8
BLACK
6
CONTINUOUS
10
0.626353
20
-0.373569
11
0.626929
21
-0.374961
0
LINE
8
BLACK
6
CONTINUOUS
10
0.564331
20
-0.476929
11
0.564331
21
-0.522992
0
LINE
8
BLACK
6
CONTINUOUS
10
0.564331
20
-0.522992
11
0.585591
21
-0.522992
0
LINE
8
BLACK
6
CONTINUOUS
10
0.585591
20
-0.522992
11
0.585591
21
-0.476929
0
LINE
8
BLACK
6
CONTINUOUS
10
0.585591
20
-0.476929
11
0.564331
21
-0.476929
0
LINE
8
BLACK
6
CONTINUOUS
10
0.364331
20
-0.476929
11
0.364331
21
-0.522992
0
LINE
8
BLACK
6
CONTINUOUS
10
0.364331
20
-0.522992
11
0.385591
21
-0.522992
0
LINE
8
BLACK
6
CONTINUOUS
10
0.385591
20
-0.522992
11
0.385591
21
-0.476929
0
LINE
8
BLACK
6
CONTINUOUS
10
0.385591
20
-0.476929
11
0.364331
21
-0.476929
0
LINE
8
BLACK
6
CONTINUOUS
10
0.326929
20
-0.436744
11
0.363178
21
-0.472992
0
LINE
8
BLACK
6
CONTINUOUS
10
0.363178
20
-0.472992
11
0.622992
21
-0.472992
0
LINE
8
BLACK
6
CONTINUOUS
10
0.622992
20
-0.472992
11
0.622992
21
-0.376929
0
LINE
8
BLACK
6
CONTINUOUS
10
0.622992
20
-0.376929
11
0.326929
21
-0.376929
0
LINE
8
BLACK
6
CONTINUOUS
10
0.326929
20
-0.376929
11
0.326929
21
-0.436744
0
LINE
8
BLACK
6
CONTINUOUS
10
0.464331
20
-0.326929
11
0.464331
21
-0.372992
0
LINE
8
BLACK
6
CONTINUOUS
10
0.464331
20
-0.372992
11
0.485591
21
-0.372992
0
LINE
8
BLACK
6
CONTINUOUS
10
0.485591
20
-0.372992
11
0.485591
21
-0.326929
0
LINE
8
BLACK
6
CONTINUOUS
10
0.485591
20
-0.326929
11
0.464331
21
-0.326929
0
LINE
8
BLACK
6
CONTINUOUS
10
0.490304
20
-0.400522
11
0.490471
21
-0.400493
0
LINE
8
BLACK
6
CONTINUOUS
10
0.490471
20
-0.400493
11
0.491214
21
-0.400921
0
LINE
8
BLACK
6
CONTINUOUS
10
0.491214
20
-0.400921
11
0.491998
21
-0.401266
0
LINE
8
BLACK
6
CONTINUOUS
10
0.491998
20
-0.401266
11
0.492074
21
-0.401418
0
LINE
8
BLACK
6
CONTINUOUS
10
0.492074
20
-0.401418
11
0.492221
21
-0.401503
0
LINE
8
BLACK
6
CONTINUOUS
10
0.492221
20
-0.401503
11
0.492514
21
-0.402308
0
LINE
8
BLACK
6
CONTINUOUS
10
0.492514
20
-0.402308
11
0.492894
21
-0.403076
0
LINE
8
BLACK
6
CONTINUOUS
10
0.492894
20
-0.403076
11
0.492853
21
-0.403241
0
LINE
8
BLACK
6
CONTINUOUS
10
0.492853
20
-0.403241
11
0.492911
21
-0.403401
0
LINE
8
BLACK
6
CONTINUOUS
10
0.492911
20
-0.403401
11
0.492911
21
-0.439818
0
LINE
8
BLACK
6
CONTINUOUS
10
0.492911
20
-0.439818
11
0.501207
21
-0.439818
0
LINE
8
BLACK
6
CONTINUOUS
10
0.501207
20
-0.439818
11
0.502217
21
-0.439996
0
LINE
8
BLACK
6
CONTINUOUS
10
0.502217
20
-0.439996
11
0.503764
21
-0.441294
0
LINE
8
BLACK
6
CONTINUOUS
10
0.503764
20
-0.441294
11
0.504115
21
-0.443284
0
LINE
8
BLACK
6
CONTINUOUS
10
0.504115
20
-0.443284
11
0.503105
21
-0.445033
0
LINE
8
BLACK
6
CONTINUOUS
10
0.503105
20
-0.445033
11
0.501207
21
-0.445724
0
LINE
8
BLACK
6
CONTINUOUS
10
0.501207
20
-0.445724
11
0.47871
21
-0.445724
0
LINE
8
BLACK
6
CONTINUOUS
10
0.47871
20
-0.445724
11
0.4777
21
-0.445546
0
LINE
8
BLACK
6
CONTINUOUS
10
0.4777
20
-0.445546
11
0.476153
21
-0.444247
0
LINE
8
BLACK
6
CONTINUOUS
10
0.476153
20
-0.444247
11
0.475802
21
-0.442258
0
LINE
8
BLACK
6
CONTINUOUS
10
0.475802
20
-0.442258
11
0.476812
21
-0.440509
0
LINE
8
BLACK
6
CONTINUOUS
10
0.476812
20
-0.440509
11
0.47871
21
-0.439818
0
LINE
8
BLACK
6
CONTINUOUS
10
0.47871
20
-0.439818
11
0.487006
21
-0.439818
0
LINE
8
BLACK
6
CONTINUOUS
10
0.487006
20
-0.439818
11
0.487006
21
-0.412404
0
LINE
8
BLACK
6
CONTINUOUS
10
0.487006
20
-0.412404
11
0.484548
21
-0.414863
0
LINE
8
BLACK
6
CONTINUOUS
10
0.484548
20
-0.414863
11
0.483825
21
-0.415369
0
LINE
8
BLACK
6
CONTINUOUS
10
0.483825
20
-0.415369
11
0.48378
21
-0.415416
0
LINE
8
BLACK
6
CONTINUOUS
10
0.48378
20
-0.415416
11
0.480031
21
-0.41729
0
LINE
8
BLACK
6
CONTINUOUS
10
0.480031
20
-0.41729
11
0.479048
21
-0.417583
0
LINE
8
BLACK
6
CONTINUOUS
10
0.479048
20
-0.417583
11
0.477083
21
-0.417114
0
LINE
8
BLACK
6
CONTINUOUS
10
0.477083
20
-0.417114
11
0.47588
21
-0.415491
0
LINE
8
BLACK
6
CONTINUOUS
10
0.47588
20
-0.415491
11
0.476001
21
-0.413475
0
LINE
8
BLACK
6
CONTINUOUS
10
0.476001
20
-0.413475
11
0.47739
21
-0.412008
0
LINE
8
BLACK
6
CONTINUOUS
10
0.47739
20
-0.412008
11
0.480711
21
-0.410348
0
LINE
8
BLACK
6
CONTINUOUS
10
0.480711
20
-0.410348
11
0.483915
21
-0.407144
0
LINE
8
BLACK
6
CONTINUOUS
10
0.483915
20
-0.407144
11
0.487502
21
-0.401763
0
LINE
8
BLACK
6
CONTINUOUS
10
0.487502
20
-0.401763
11
0.48821
21
-0.401021
0
LINE
8
BLACK
6
CONTINUOUS
10
0.48821
20
-0.401021
11
0.488373
21
-0.400974
0
LINE
8
BLACK
6
CONTINUOUS
10
0.488373
20
-0.400974
11
0.488482
21
-0.400844
0
LINE
8
BLACK
6
CONTINUOUS
10
0.488482
20
-0.400844
11
0.489326
21
-0.400695
0
LINE
8
BLACK
6
CONTINUOUS
10
0.489326
20
-0.400695
11
0.490149
21
-0.400454
0
LINE
8
BLACK
6
CONTINUOUS
10
0.490149
20
-0.400454
11
0.490304
21
-0.400522
0
LINE
8
BLACK
6
CONTINUOUS
10
0.464099
20
-0.401503
11
0.46479
21
-0.403401
0
LINE
8
BLACK
6
CONTINUOUS
10
0.46479
20
-0.403401
11
0.46479
21
-0.431522
0
LINE
8
BLACK
6
CONTINUOUS
10
0.46479
20
-0.431522
11
0.464637
21
-0.432392
0
LINE
8
BLACK
6
CONTINUOUS
10
0.464637
20
-0.432392
11
0.464638
21
-0.432456
0
LINE
8
BLACK
6
CONTINUOUS
10
0.464638
20
-0.432456
11
0.462764
21
-0.43808
0
LINE
8
BLACK
6
CONTINUOUS
10
0.462764
20
-0.43808
11
0.462275
21
-0.438982
0
LINE
8
BLACK
6
CONTINUOUS
10
0.462275
20
-0.438982
11
0.462125
21
-0.439074
0
LINE
8
BLACK
6
CONTINUOUS
10
0.462125
20
-0.439074
11
0.46205
21
-0.439234
0
LINE
8
BLACK
6
CONTINUOUS
10
0.46205
20
-0.439234
11
0.458301
21
-0.442984
0
LINE
8
BLACK
6
CONTINUOUS
10
0.458301
20
-0.442984
11
0.457461
21
-0.443572
0
LINE
8
BLACK
6
CONTINUOUS
10
0.457461
20
-0.443572
11
0.457285
21
-0.443588
0
LINE
8
BLACK
6
CONTINUOUS
10
0.457285
20
-0.443588
11
0.457147
21
-0.443697
0
LINE
8
BLACK
6
CONTINUOUS
10
0.457147
20
-0.443697
11
0.451522
21
-0.445572
0
LINE
8
BLACK
6
CONTINUOUS
10
0.451522
20
-0.445572
11
0.450649
21
-0.445702
0
LINE
8
BLACK
6
CONTINUOUS
10
0.450649
20
-0.445702
11
0.450589
21
-0.445724
0
LINE
8
BLACK
6
CONTINUOUS
10
0.450589
20
-0.445724
11
0.446839
21
-0.445724
0
LINE
8
BLACK
6
CONTINUOUS
10
0.446839
20
-0.445724
11
0.445829
21
-0.445546
0
LINE
8
BLACK
6
CONTINUOUS
10
0.445829
20
-0.445546
11
0.444282
21
-0.444247
0
LINE
8
BLACK
6
CONTINUOUS
10
0.444282
20
-0.444247
11
0.443931
21
-0.442258
0
LINE
8
BLACK
6
CONTINUOUS
10
0.443931
20
-0.442258
11
0.444941
21
-0.440509
0
LINE
8
BLACK
6
CONTINUOUS
10
0.444941
20
-0.440509
11
0.446839
21
-0.439818
0
LINE
8
BLACK
6
CONTINUOUS
10
0.446839
20
-0.439818
11
0.45011
21
-0.439818
0
LINE
8
BLACK
6
CONTINUOUS
10
0.45011
20
-0.439818
11
0.454618
21
-0.438315
0
LINE
8
BLACK
6
CONTINUOUS
10
0.454618
20
-0.438315
11
0.457382
21
-0.435552
0
LINE
8
BLACK
6
CONTINUOUS
10
0.457382
20
-0.435552
11
0.458884
21
-0.431043
0
LINE
8
BLACK
6
CONTINUOUS
10
0.458884
20
-0.431043
11
0.458884
21
-0.403401
0
LINE
8
BLACK
6
CONTINUOUS
10
0.458884
20
-0.403401
11
0.459063
21
-0.402391
0
LINE
8
BLACK
6
CONTINUOUS
10
0.459063
20
-0.402391
11
0.460361
21
-0.400844
0
LINE
8
BLACK
6
CONTINUOUS
10
0.460361
20
-0.400844
11
0.46235
21
-0.400493
0
LINE
8
BLACK
6
CONTINUOUS
10
0.46235
20
-0.400493
11
0.464099
21
-0.401503
0
LINE
8
BLACK
6
CONTINUOUS
10
1.47792
20
-0.770466
11
1.48197
21
-0.757042
0
LINE
8
BLACK
6
CONTINUOUS
10
1.48197
20
-0.757042
11
1.4875
21
-0.744154
0
LINE
8
BLACK
6
CONTINUOUS
10
1.4875
20
-0.744154
11
1.49442
21
-0.731961
0
LINE
8
BLACK
6
CONTINUOUS
10
1.49442
20
-0.731961
11
1.50267
21
-0.720617
0
LINE
8
BLACK
6
CONTINUOUS
10
1.50267
20
-0.720617
11
1.51212
21
-0.710262
0
LINE
8
BLACK
6
CONTINUOUS
10
1.51212
20
-0.710262
11
1.52267
21
-0.701026
0
LINE
8
BLACK
6
CONTINUOUS
10
1.52267
20
-0.701026
11
1.53419
21
-0.693023
0
LINE
8
BLACK
6
CONTINUOUS
10
1.53419
20
-0.693023
11
1.54652
21
-0.686354
0
LINE
8
BLACK
6
CONTINUOUS
10
1.54652
20
-0.686354
11
1.55952
21
-0.681101
0
LINE
8
BLACK
6
CONTINUOUS
10
1.55952
20
-0.681101
11
1.57303
21
-0.67733
0
LINE
8
BLACK
6
CONTINUOUS
10
1.57303
20
-0.67733
11
1.58687
21
-0.675088
0
LINE
8
BLACK
6
CONTINUOUS
10
1.58687
20
-0.675088
11
1.60088
21
-0.674403
0
LINE
8
BLACK
6
CONTINUOUS
10
1.60088
20
-0.674403
11
1.61487
21
-0.675284
0
LINE
8
BLACK
6
CONTINUOUS
10
1.61487
20
-0.675284
11
1.62868
21
-0.677719
0
LINE
8
BLACK
6
CONTINUOUS
10
1.62868
20
-0.677719
11
1.64213
21
-0.681678
0
LINE
8
BLACK
6
CONTINUOUS
10
1.64213
20
-0.681678
11
1.65506
21
-0.687111
0
LINE
8
BLACK
6
CONTINUOUS
10
1.65506
20
-0.687111
11
1.6673
21
-0.693952
0
LINE
8
BLACK
6
CONTINUOUS
10
1.6673
20
-0.693952
11
1.6787
21
-0.702115
0
LINE
8
BLACK
6
CONTINUOUS
10
1.6787
20
-0.702115
11
1.68912
21
-0.711498
0
LINE
8
BLACK
6
CONTINUOUS
10
1.68912
20
-0.711498
11
1.69843
21
-0.721984
0
LINE
8
BLACK
6
CONTINUOUS
10
1.69843
20
-0.721984
11
1.70651
21
-0.733442
0
LINE
8
BLACK
6
CONTINUOUS
10
1.70651
20
-0.733442
11
1.71327
21
-0.74573
0
LINE
8
BLACK
6
CONTINUOUS
10
1.71327
20
-0.74573
11
1.71861
21
-0.758694
0
LINE
8
BLACK
6
CONTINUOUS
10
1.71861
20
-0.758694
11
1.72248
21
-0.772174
0
LINE
8
BLACK
6
CONTINUOUS
10
1.72248
20
-0.772174
11
1.72482
21
-0.785999
0
LINE
8
BLACK
6
CONTINUOUS
10
1.72482
20
-0.785999
11
1.7256
21
-0.8
0
LINE
8
BLACK
6
CONTINUOUS
10
1.7256
20
-0.8
11
1.72555
21
-0.803507
0
LINE
8
BLACK
6
CONTINUOUS
10
1.72555
20
-0.803507
11
1.72438
21
-0.81748
0
LINE
8
BLACK
6
CONTINUOUS
10
1.72438
20
-0.81748
11
1.72165
21
-0.831235
0
LINE
8
BLACK
6
CONTINUOUS
10
1.72165
20
-0.831235
11
1.71741
21
-0.844601
0
LINE
8
BLACK
6
CONTINUOUS
10
1.71741
20
-0.844601
11
1.71171
21
-0.857411
0
LINE
8
BLACK
6
CONTINUOUS
10
1.71171
20
-0.857411
11
1.70461
21
-0.869506
0
LINE
8
BLACK
6
CONTINUOUS
10
1.70461
20
-0.869506
11
1.69622
21
-0.880734
0
LINE
8
BLACK
6
CONTINUOUS
10
1.69622
20
-0.880734
11
1.68662
21
-0.890956
0
LINE
8
BLACK
6
CONTINUOUS
10
1.68662
20
-0.890956
11
1.67594
21
-0.900044
0
LINE
8
BLACK
6
CONTINUOUS
10
1.67594
20
-0.900044
11
1.66431
21
-0.907885
0
LINE
8
BLACK
6
CONTINUOUS
10
1.66431
20
-0.907885
11
1.65189
21
-0.914382
0
LINE
8
BLACK
6
CONTINUOUS
10
1.65189
20
-0.914382
11
1.63881
21
-0.919453
0
LINE
8
BLACK
6
CONTINUOUS
10
1.63881
20
-0.919453
11
1.62526
21
-0.923035
0
LINE
8
BLACK
6
CONTINUOUS
10
1.62526
20
-0.923035
11
1.61138
21
-0.925083
0
LINE
8
BLACK
6
CONTINUOUS
10
1.61138
20
-0.925083
11
1.59737
21
-0.925572
0
LINE
8
BLACK
6
CONTINUOUS
10
1.59737
20
-0.925572
11
1.58339
21
-0.924497
0
LINE
8
BLACK
6
CONTINUOUS
10
1.58339
20
-0.924497
11
1.56961
21
-0.921869
0
LINE
8
BLACK
6
CONTINUOUS
10
1.56961
20
-0.921869
11
1.55622
21
-0.917723
0
LINE
8
BLACK
6
CONTINUOUS
10
1.55622
20
-0.917723
11
1.54337
21
-0.912109
0
LINE
8
BLACK
6
CONTINUOUS
10
1.54337
20
-0.912109
11
1.53123
21
-0.905098
0
LINE
8
BLACK
6
CONTINUOUS
10
1.53123
20
-0.905098
11
1.51994
21
-0.896776
0
LINE
8
BLACK
6
CONTINUOUS
10
1.51994
20
-0.896776
11
1.50965
21
-0.887249
0
LINE
8
BLACK
6
CONTINUOUS
10
1.50965
20
-0.887249
11
1.50049
21
-0.876634
0
LINE
8
BLACK
6
CONTINUOUS
10
1.50049
20
-0.876634
11
1.49257
21
-0.865064
0
LINE
8
BLACK
6
CONTINUOUS
10
1.49257
20
-0.865064
11
1.48598
21
-0.852683
0
LINE
8
BLACK
6
CONTINUOUS
10
1.48598
20
-0.852683
11
1.48082
21
-0.839646
0
LINE
8
BLACK
6
CONTINUOUS
10
1.48082
20
-0.839646
11
1.47714
21
-0.826114
0
LINE
8
BLACK
6
CONTINUOUS
10
1.47714
20
-0.826114
11
1.475
21
-0.812256
0
LINE
8
BLACK
6
CONTINUOUS
10
1.475
20
-0.812256
11
1.47441
21
-0.798246
0
LINE
8
BLACK
6
CONTINUOUS
10
1.47441
20
-0.798246
11
1.47453
21
-0.79652
0
LINE
8
BLACK
6
CONTINUOUS
10
1.47453
20
-0.79652
11
1.47539
21
-0.784258
0
LINE
8
BLACK
6
CONTINUOUS
10
1.47539
20
-0.784258
11
1.47792
21
-0.770466
0
LINE
8
BLACK
6
CONTINUOUS
10
1.4914
20
-0.821898
11
1.49463
21
-0.834235
0
LINE
8
BLACK
6
CONTINUOUS
10
1.49463
20
-0.834235
11
1.49927
21
-0.846119
0
LINE
8
BLACK
6
CONTINUOUS
10
1.49927
20
-0.846119
11
1.50524
21
-0.857391
0
LINE
8
BLACK
6
CONTINUOUS
10
1.50524
20
-0.857391
11
1.51246
21
-0.867902
0
LINE
8
BLACK
6
CONTINUOUS
10
1.51246
20
-0.867902
11
1.52085
21
-0.877514
0
LINE
8
BLACK
6
CONTINUOUS
10
1.52085
20
-0.877514
11
1.53028
21
-0.886098
0
LINE
8
BLACK
6
CONTINUOUS
10
1.53028
20
-0.886098
11
1.54064
21
-0.893541
0
LINE
8
BLACK
6
CONTINUOUS
10
1.54064
20
-0.893541
11
1.55178
21
-0.899744
0
LINE
8
BLACK
6
CONTINUOUS
10
1.55178
20
-0.899744
11
1.56357
21
-0.904625
0
LINE
8
BLACK
6
CONTINUOUS
10
1.56357
20
-0.904625
11
1.57583
21
-0.908119
0
LINE
8
BLACK
6
CONTINUOUS
10
1.57583
20
-0.908119
11
1.58842
21
-0.910181
0
LINE
8
BLACK
6
CONTINUOUS
10
1.58842
20
-0.910181
11
1.60116
21
-0.910781
0
LINE
8
BLACK
6
CONTINUOUS
10
1.60116
20
-0.910781
11
1.61389
21
-0.909914
0
LINE
8
BLACK
6
CONTINUOUS
10
1.61389
20
-0.909914
11
1.62643
21
-0.907589
0
LINE
8
BLACK
6
CONTINUOUS
10
1.62643
20
-0.907589
11
1.63862
21
-0.903839
0
LINE
8
BLACK
6
CONTINUOUS
10
1.63862
20
-0.903839
11
1.6503
21
-0.898712
0
LINE
8
BLACK
6
CONTINUOUS
10
1.6503
20
-0.898712
11
1.66131
21
-0.892277
0
LINE
8
BLACK
6
CONTINUOUS
10
1.66131
20
-0.892277
11
1.67151
21
-0.884619
0
LINE
8
BLACK
6
CONTINUOUS
10
1.67151
20
-0.884619
11
1.68076
21
-0.875839
0
LINE
8
BLACK
6
CONTINUOUS
10
1.68076
20
-0.875839
11
1.68894
21
-0.866054
0
LINE
8
BLACK
6
CONTINUOUS
10
1.68894
20
-0.866054
11
1.69594
21
-0.855394
0
LINE
8
BLACK
6
CONTINUOUS
10
1.69594
20
-0.855394
11
1.70168
21
-0.843999
0
LINE
8
BLACK
6
CONTINUOUS
10
1.70168
20
-0.843999
11
1.70606
21
-0.832021
0
LINE
8
BLACK
6
CONTINUOUS
10
1.70606
20
-0.832021
11
1.70904
21
-0.819619
0
LINE
8
BLACK
6
CONTINUOUS
10
1.70904
20
-0.819619
11
1.71057
21
-0.806956
0
LINE
8
BLACK
6
CONTINUOUS
10
1.71057
20
-0.806956
11
1.71079
21
-0.8
0
LINE
8
BLACK
6
CONTINUOUS
10
1.71079
20
-0.8
11
1.71005
21
-0.787266
0
LINE
8
BLACK
6
CONTINUOUS
10
1.71005
20
-0.787266
11
1.70786
21
-0.774702
0
LINE
8
BLACK
6
CONTINUOUS
10
1.70786
20
-0.774702
11
1.70424
21
-0.762472
0
LINE
8
BLACK
6
CONTINUOUS
10
1.70424
20
-0.762472
11
1.69923
21
-0.75074
0
LINE
8
BLACK
6
CONTINUOUS
10
1.69923
20
-0.75074
11
1.69291
21
-0.739661
0
LINE
8
BLACK
6
CONTINUOUS
10
1.69291
20
-0.739661
11
1.68536
21
-0.729381
0
LINE
8
BLACK
6
CONTINUOUS
10
1.68536
20
-0.729381
11
1.67668
21
-0.720038
0
LINE
8
BLACK
6
CONTINUOUS
10
1.67668
20
-0.720038
11
1.66698
21
-0.711754
0
LINE
8
BLACK
6
CONTINUOUS
10
1.66698
20
-0.711754
11
1.6564
21
-0.704641
0
LINE
8
BLACK
6
CONTINUOUS
10
1.6564
20
-0.704641
11
1.64506
21
-0.698791
0
LINE
8
BLACK
6
CONTINUOUS
10
1.64506
20
-0.698791
11
1.63313
21
-0.694282
0
LINE
8
BLACK
6
CONTINUOUS
10
1.63313
20
-0.694282
11
1.62076
21
-0.691175
0
LINE
8
BLACK
6
CONTINUOUS
10
1.62076
20
-0.691175
11
1.60811
21
-0.68951
0
LINE
8
BLACK
6
CONTINUOUS
10
1.60811
20
-0.68951
11
1.59536
21
-0.68931
0
LINE
8
BLACK
6
CONTINUOUS
10
1.59536
20
-0.68931
11
1.58267
21
-0.690577
0
LINE
8
BLACK
6
CONTINUOUS
10
1.58267
20
-0.690577
11
1.57021
21
-0.693294
0
LINE
8
BLACK
6
CONTINUOUS
10
1.57021
20
-0.693294
11
1.55814
21
-0.697425
0
LINE
8
BLACK
6
CONTINUOUS
10
1.55814
20
-0.697425
11
1.54663
21
-0.702916
0
LINE
8
BLACK
6
CONTINUOUS
10
1.54663
20
-0.702916
11
1.53582
21
-0.709694
0
LINE
8
BLACK
6
CONTINUOUS
10
1.53582
20
-0.709694
11
1.52587
21
-0.717669
0
LINE
8
BLACK
6
CONTINUOUS
10
1.52587
20
-0.717669
11
1.5169
21
-0.726735
0
LINE
8
BLACK
6
CONTINUOUS
10
1.5169
20
-0.726735
11
1.50903
21
-0.736772
0
LINE
8
BLACK
6
CONTINUOUS
10
1.50903
20
-0.736772
11
1.50236
21
-0.747647
0
LINE
8
BLACK
6
CONTINUOUS
10
1.50236
20
-0.747647
11
1.49699
21
-0.759216
0
LINE
8
BLACK
6
CONTINUOUS
10
1.49699
20
-0.759216
11
1.49299
21
-0.771326
0
LINE
8
BLACK
6
CONTINUOUS
10
1.49299
20
-0.771326
11
1.4904
21
-0.783816
0
LINE
8
BLACK
6
CONTINUOUS
10
1.4904
20
-0.783816
11
1.48927
21
-0.79652
0
LINE
8
BLACK
6
CONTINUOUS
10
1.48927
20
-0.79652
11
1.4896
21
-0.80927
0
LINE
8
BLACK
6
CONTINUOUS
10
1.4896
20
-0.80927
11
1.4914
21
-0.821898
0
LINE
8
BLACK
6
CONTINUOUS
10
-0.122078
20
-0.770466
11
-0.118025
21
-0.757042
0
LINE
8
BLACK
6
CONTINUOUS
10
-0.118025
20
-0.757042
11
-0.112501
21
-0.744154
0
LINE
8
BLACK
6
CONTINUOUS
10
-0.112501
20
-0.744154
11
-0.105575
21
-0.731961
0
LINE
8
BLACK
6
CONTINUOUS
10
-0.105575
20
-0.731961
11
-0.097333
21
-0.720617
0
LINE
8
BLACK
6
CONTINUOUS
10
-0.097333
20
-0.720617
11
-0.0878777
21
-0.710262
0
LINE
8
BLACK
6
CONTINUOUS
10
-0.0878777
20
-0.710262
11
-0.0773271
21
-0.701026
0
LINE
8
BLACK
6
CONTINUOUS
10
-0.0773271
20
-0.701026
11
-0.0658126
21
-0.693023
0
LINE
8
BLACK
6
CONTINUOUS
10
-0.0658126
20
-0.693023
11
-0.0534779
21
-0.686354
0
LINE
8
BLACK
6
CONTINUOUS
10
-0.0534779
20
-0.686354
11
-0.0404766
21
-0.681101
0
LINE
8
BLACK
6
CONTINUOUS
10
-0.0404766
20
-0.681101
11
-0.0269707
21
-0.67733
0
LINE
8
BLACK
6
CONTINUOUS
10
-0.0269707
20
-0.67733
11
-0.0131288
21
-0.675088
0
LINE
8
BLACK
6
CONTINUOUS
10
-0.0131288
20
-0.675088
11
0.00087685
21
-0.674403
0
LINE
8
BLACK
6
CONTINUOUS
10
0.00087685
20
-0.674403
11
0.0148715
21
-0.675284
0
LINE
8
BLACK
6
CONTINUOUS
10
0.0148715
20
-0.675284
11
0.0286809
21
-0.677719
0
LINE
8
BLACK
6
CONTINUOUS
10
0.0286809
20
-0.677719
11
0.0421327
21
-0.681678
0
LINE
8
BLACK
6
CONTINUOUS
10
0.0421327
20
-0.681678
11
0.0550594
21
-0.687111
0
LINE
8
BLACK
6
CONTINUOUS
10
0.0550594
20
-0.687111
11
0.0672998
21
-0.693952
0
LINE
8
BLACK
6
CONTINUOUS
10
0.0672998
20
-0.693952
11
0.0787015
21
-0.702115
0
LINE
8
BLACK
6
CONTINUOUS
10
0.0787015
20
-0.702115
11
0.0891221
21
-0.711498
0
LINE
8
BLACK
6
CONTINUOUS
10
0.0891221
20
-0.711498
11
0.0984319
21
-0.721984
0
LINE
8
BLACK
6
CONTINUOUS
10
0.0984319
20
-0.721984
11
0.106515
21
-0.733442
0
LINE
8
BLACK
6
CONTINUOUS
10
0.106515
20
-0.733442
11
0.11327
21
-0.74573
0
LINE
8
BLACK
6
CONTINUOUS
10
0.11327
20
-0.74573
11
0.118614
21
-0.758694
0
LINE
8
BLACK
6
CONTINUOUS
10
0.118614
20
-0.758694
11
0.122479
21
-0.772174
0
LINE
8
BLACK
6
CONTINUOUS
10
0.122479
20
-0.772174
11
0.124817
21
-0.785999
0
LINE
8
BLACK
6
CONTINUOUS
10
0.124817
20
-0.785999
11
0.1256
21
-0.8
0
LINE
8
BLACK
6
CONTINUOUS
10
0.1256
20
-0.8
11
0.125551
21
-0.803507
0
LINE
8
BLACK
6
CONTINUOUS
10
0.125551
20
-0.803507
11
0.124378
21
-0.81748
0
LINE
8
BLACK
6
CONTINUOUS
10
0.124378
20
-0.81748
11
0.121654
21
-0.831235
0
LINE
8
BLACK
6
CONTINUOUS
10
0.121654
20
-0.831235
11
0.117414
21
-0.844601
0
LINE
8
BLACK
6
CONTINUOUS
10
0.117414
20
-0.844601
11
0.111711
21
-0.857411
0
LINE
8
BLACK
6
CONTINUOUS
10
0.111711
20
-0.857411
11
0.104615
21
-0.869506
0
LINE
8
BLACK
6
CONTINUOUS
10
0.104615
20
-0.869506
11
0.0962152
21
-0.880734
0
LINE
8
BLACK
6
CONTINUOUS
10
0.0962152
20
-0.880734
11
0.0866162
21
-0.890956
0
LINE
8
BLACK
6
CONTINUOUS
10
0.0866162
20
-0.890956
11
0.0759376
21
-0.900044
0
LINE
8
BLACK
6
CONTINUOUS
10
0.0759376
20
-0.900044
11
0.0643126
21
-0.907885
0
LINE
8
BLACK
6
CONTINUOUS
10
0.0643126
20
-0.907885
11
0.0518859
21
-0.914382
0
LINE
8
BLACK
6
CONTINUOUS
10
0.0518859
20
-0.914382
11
0.0388125
21
-0.919453
0
LINE
8
BLACK
6
CONTINUOUS
10
0.0388125
20
-0.919453
11
0.0252554
21
-0.923035
0
LINE
8
BLACK
6
CONTINUOUS
10
0.0252554
20
-0.923035
11
0.0113835
21
-0.925083
0
LINE
8
BLACK
6
CONTINUOUS
10
0.0113835
20
-0.925083
11
-0.00263035
21
-0.925572
0
LINE
8
BLACK
6
CONTINUOUS
10
-0.00263035
20
-0.925572
11
-0.0166114
21
-0.924497
0
LINE
8
BLACK
6
CONTINUOUS
10
-0.0166114
20
-0.924497
11
-0.0303854
21
-0.921869
0
LINE
8
BLACK
6
CONTINUOUS
10
-0.0303854
20
-0.921869
11
-0.0437806
21
-0.917723
0
LINE
8
BLACK
6
CONTINUOUS
10
-0.0437806
20
-0.917723
11
-0.0566302
21
-0.912109
0
LINE
8
BLACK
6
CONTINUOUS
10
-0.0566302
20
-0.912109
11
-0.0687739
21
-0.905098
0
LINE
8
BLACK
6
CONTINUOUS
10
-0.0687739
20
-0.905098
11
-0.0800605
21
-0.896776
0
LINE
8
BLACK
6
CONTINUOUS
10
-0.0800605
20
-0.896776
11
-0.0903491
21
-0.887249
0
LINE
8
BLACK
6
CONTINUOUS
10
-0.0903491
20
-0.887249
11
-0.0995116
21
-0.876634
0
LINE
8
BLACK
6
CONTINUOUS
10
-0.0995116
20
-0.876634
11
-0.107434
21
-0.865064
0
LINE
8
BLACK
6
CONTINUOUS
10
-0.107434
20
-0.865064
11
-0.114017
21
-0.852683
0
LINE
8
BLACK
6
CONTINUOUS
10
-0.114017
20
-0.852683
11
-0.119179
21
-0.839646
0
LINE
8
BLACK
6
CONTINUOUS
10
-0.119179
20
-0.839646
11
-0.122855
21
-0.826114
0
LINE
8
BLACK
6
CONTINUOUS
10
-0.122855
20
-0.826114
11
-0.125001
21
-0.812256
0
LINE
8
BLACK
6
CONTINUOUS
10
-0.125001
20
-0.812256
11
-0.125588
21
-0.798246
0
LINE
8
BLACK
6
CONTINUOUS
10
-0.125588
20
-0.798246
11
-0.125467
21
-0.79652
0
LINE
8
BLACK
6
CONTINUOUS
10
-0.125467
20
-0.79652
11
-0.12461
21
-0.784258
0
LINE
8
BLACK
6
CONTINUOUS
10
-0.12461
20
-0.784258
11
-0.122078
21
-0.770466
0
LINE
8
BLACK
6
CONTINUOUS
10
-0.108602
20
-0.821898
11
-0.105365
21
-0.834235
0
LINE
8
BLACK
6
CONTINUOUS
10
-0.105365
20
-0.834235
11
-0.100732
21
-0.846119
0
LINE
8
BLACK
6
CONTINUOUS
10
-0.100732
20
-0.846119
11
-0.0947636
21
-0.857391
0
LINE
8
BLACK
6
CONTINUOUS
10
-0.0947636
20
-0.857391
11
-0.0875393
21
-0.867902
0
LINE
8
BLACK
6
CONTINUOUS
10
-0.0875393
20
-0.867902
11
-0.0791546
21
-0.877514
0
LINE
8
BLACK
6
CONTINUOUS
10
-0.0791546
20
-0.877514
11
-0.0697208
21
-0.886098
0
LINE
8
BLACK
6
CONTINUOUS
10
-0.0697208
20
-0.886098
11
-0.0593629
21
-0.893541
0
LINE
8
BLACK
6
CONTINUOUS
10
-0.0593629
20
-0.893541
11
-0.0482181
21
-0.899744
0
LINE
8
BLACK
6
CONTINUOUS
10
-0.0482181
20
-0.899744
11
-0.0364343
21
-0.904625
0
LINE
8
BLACK
6
CONTINUOUS
10
-0.0364343
20
-0.904625
11
-0.0241675
21
-0.908119
0
LINE
8
BLACK
6
CONTINUOUS
10
-0.0241675
20
-0.908119
11
-0.0115804
21
-0.910181
0
LINE
8
BLACK
6
CONTINUOUS
10
-0.0115804
20
-0.910181
11
0.00116016
21
-0.910781
0
LINE
8
BLACK
6
CONTINUOUS
10
0.00116016
20
-0.910781
11
0.0138854
21
-0.909914
0
LINE
8
BLACK
6
CONTINUOUS
10
0.0138854
20
-0.909914
11
0.0264265
21
-0.907589
0
LINE
8
BLACK
6
CONTINUOUS
10
0.0264265
20
-0.907589
11
0.0386174
21
-0.903839
0
LINE
8
BLACK
6
CONTINUOUS
10
0.0386174
20
-0.903839
11
0.0502965
21
-0.898712
0
LINE
8
BLACK
6
CONTINUOUS
10
0.0502965
20
-0.898712
11
0.0613088
21
-0.892277
0
LINE
8
BLACK
6
CONTINUOUS
10
0.0613088
20
-0.892277
11
0.0715086
21
-0.884619
0
LINE
8
BLACK
6
CONTINUOUS
10
0.0715086
20
-0.884619
11
0.0807606
21
-0.875839
0
LINE
8
BLACK
6
CONTINUOUS
10
0.0807606
20
-0.875839
11
0.0889421
21
-0.866054
0
LINE
8
BLACK
6
CONTINUOUS
10
0.0889421
20
-0.866054
11
0.0959447
21
-0.855394
0
LINE
8
BLACK
6
CONTINUOUS
10
0.0959447
20
-0.855394
11
0.101676
21
-0.843999
0
LINE
8
BLACK
6
CONTINUOUS
10
0.101676
20
-0.843999
11
0.106059
21
-0.832021
0
LINE
8
BLACK
6
CONTINUOUS
10
0.106059
20
-0.832021
11
0.109036
21
-0.819619
0
LINE
8
BLACK
6
CONTINUOUS
10
0.109036
20
-0.819619
11
0.110569
21
-0.806956
0
LINE
8
BLACK
6
CONTINUOUS
10
0.110569
20
-0.806956
11
0.110787
21
-0.8
0
LINE
8
BLACK
6
CONTINUOUS
10
0.110787
20
-0.8
11
0.110053
21
-0.787266
0
LINE
8
BLACK
6
CONTINUOUS
10
0.110053
20
-0.787266
11
0.10786
21
-0.774702
0
LINE
8
BLACK
6
CONTINUOUS
10
0.10786
20
-0.774702
11
0.104238
21
-0.762472
0
LINE
8
BLACK
6
CONTINUOUS
10
0.104238
20
-0.762472
11
0.0992336
21
-0.75074
0
LINE
8
BLACK
6
CONTINUOUS
10
0.0992336
20
-0.75074
11
0.0929142
21
-0.739661
0
LINE
8
BLACK
6
CONTINUOUS
10
0.0929142
20
-0.739661
11
0.0853632
21
-0.729381
0
LINE
8
BLACK
6
CONTINUOUS
10
0.0853632
20
-0.729381
11
0.0766808
21
-0.720038
0
LINE
8
BLACK
6
CONTINUOUS
10
0.0766808
20
-0.720038
11
0.066982
21
-0.711754
0
LINE
8
BLACK
6
CONTINUOUS
10
0.066982
20
-0.711754
11
0.0563954
21
-0.704641
0
LINE
8
BLACK
6
CONTINUOUS
10
0.0563954
20
-0.704641
11
0.0450613
21
-0.698791
0
LINE
8
BLACK
6
CONTINUOUS
10
0.0450613
20
-0.698791
11
0.03313
21
-0.694282
0
LINE
8
BLACK
6
CONTINUOUS
10
0.03313
20
-0.694282
11
0.0207595
21
-0.691175
0
LINE
8
BLACK
6
CONTINUOUS
10
0.0207595
20
-0.691175
11
0.00811386
21
-0.68951
0
LINE
8
BLACK
6
CONTINUOUS
10
0.00811386
20
-0.68951
11
-0.00463929
21
-0.68931
0
LINE
8
BLACK
6
CONTINUOUS
10
-0.00463929
20
-0.68931
11
-0.017331
21
-0.690577
0
LINE
8
BLACK
6
CONTINUOUS
10
-0.017331
20
-0.690577
11
-0.029793
21
-0.693294
0
LINE
8
BLACK
6
CONTINUOUS
10
-0.029793
20
-0.693294
11
-0.04186
21
-0.697425
0
LINE
8
BLACK
6
CONTINUOUS
10
-0.04186
20
-0.697425
11
-0.0533722
21
-0.702916
0
LINE
8
BLACK
6
CONTINUOUS
10
-0.0533722
20
-0.702916
11
-0.0641771
21
-0.709694
0
LINE
8
BLACK
6
CONTINUOUS
10
-0.0641771
20
-0.709694
11
-0.0741313
21
-0.717669
0
LINE
8
BLACK
6
CONTINUOUS
10
-0.0741313
20
-0.717669
11
-0.0831029
21
-0.726735
0
LINE
8
BLACK
6
CONTINUOUS
10
-0.0831029
20
-0.726735
11
-0.090973
21
-0.736772
0
LINE
8
BLACK
6
CONTINUOUS
10
-0.090973
20
-0.736772
11
-0.0976374
21
-0.747647
0
LINE
8
BLACK
6
CONTINUOUS
10
-0.0976374
20
-0.747647
11
-0.103008
21
-0.759216
0
LINE
8
BLACK
6
CONTINUOUS
10
-0.103008
20
-0.759216
11
-0.107012
21
-0.771326
0
LINE
8
BLACK
6
CONTINUOUS
10
-0.107012
20
-0.771326
11
-0.109599
21
-0.783816
0
LINE
8
BLACK
6
CONTINUOUS
10
-0.109599
20
-0.783816
11
-0.110733
21
-0.79652
0
LINE
8
BLACK
6
CONTINUOUS
10
-0.110733
20
-0.79652
11
-0.110399
21
-0.80927
0
LINE
8
BLACK
6
CONTINUOUS
10
-0.110399
20
-0.80927
11
-0.108602
21
-0.821898
0
LINE
8
BLACK
6
CONTINUOUS
10
1.47792
20
0.0295339
11
1.48197
21
0.0429577
0
LINE
8
BLACK
6
CONTINUOUS
10
1.48197
20
0.0429577
11
1.4875
21
0.0558462
0
LINE
8
BLACK
6
CONTINUOUS
10
1.4875
20
0.0558462
11
1.49442
21
0.0680385
0
LINE
8
BLACK
6
CONTINUOUS
10
1.49442
20
0.0680385
11
1.50267
21
0.0793829
0
LINE
8
BLACK
6
CONTINUOUS
10
1.50267
20
0.0793829
11
1.51212
21
0.0897378
0
LINE
8
BLACK
6
CONTINUOUS
10
1.51212
20
0.0897378
11
1.52267
21
0.0989741
0
LINE
8
BLACK
6
CONTINUOUS
10
1.52267
20
0.0989741
11
1.53419
21
0.106977
0
LINE
8
BLACK
6
CONTINUOUS
10
1.53419
20
0.106977
11
1.54652
21
0.113646
0
LINE
8
BLACK
6
CONTINUOUS
10
1.54652
20
0.113646
11
1.55952
21
0.118899
0
LINE
8
BLACK
6
CONTINUOUS
10
1.55952
20
0.118899
11
1.57303
21
0.12267
0
LINE
8
BLACK
6
CONTINUOUS
10
1.57303
20
0.12267
11
1.58687
21
0.124912
0
LINE
8
BLACK
6
CONTINUOUS
10
1.58687
20
0.124912
11
1.60088
21
0.125597
0
LINE
8
BLACK
6
CONTINUOUS
10
1.60088
20
0.125597
11
1.61487
21
0.124716
0
LINE
8
BLACK
6
CONTINUOUS
10
1.61487
20
0.124716
11
1.62868
21
0.122281
0
LINE
8
BLACK
6
CONTINUOUS
10
1.62868
20
0.122281
11
1.64213
21
0.118322
0
LINE
8
BLACK
6
CONTINUOUS
10
1.64213
20
0.118322
11
1.65506
21
0.112889
0
LINE
8
BLACK
6
CONTINUOUS
10
1.65506
20
0.112889
11
1.6673
21
0.106048
0
LINE
8
BLACK
6
CONTINUOUS
10
1.6673
20
0.106048
11
1.6787
21
0.0978848
0
LINE
8
BLACK
6
CONTINUOUS
10
1.6787
20
0.0978848
11
1.68912
21
0.088502
0
LINE
8
BLACK
6
CONTINUOUS
10
1.68912
20
0.088502
11
1.69843
21
0.0780161
0
LINE
8
BLACK
6
CONTINUOUS
10
1.69843
20
0.0780161
11
1.70651
21
0.0665579
0
LINE
8
BLACK
6
CONTINUOUS
10
1.70651
20
0.0665579
11
1.71327
21
0.05427
0
LINE
8
BLACK
6
CONTINUOUS
10
1.71327
20
0.05427
11
1.71861
21
0.0413057
0
LINE
8
BLACK
6
CONTINUOUS
10
1.71861
20
0.0413057
11
1.72248
21
0.0278265
0
LINE
8
BLACK
6
CONTINUOUS
10
1.72248
20
0.0278265
11
1.72482
21
0.0140005
0
LINE
8
BLACK
6
CONTINUOUS
10
1.72482
20
0.0140005
11
1.7256
21
0
0
LINE
8
BLACK
6
CONTINUOUS
10
1.7256
20
0
11
1.72555
21
-0.00350697
0
LINE
8
BLACK
6
CONTINUOUS
10
1.72555
20
-0.00350697
11
1.72438
21
-0.0174802
0
LINE
8
BLACK
6
CONTINUOUS
10
1.72438
20
-0.0174802
11
1.72165
21
-0.0312354
0
LINE
8
BLACK
6
CONTINUOUS
10
1.72165
20
-0.0312354
11
1.71741
21
-0.0446014
0
LINE
8
BLACK
6
CONTINUOUS
10
1.71741
20
-0.0446014
11
1.71171
21
-0.0574115
0
LINE
8
BLACK
6
CONTINUOUS
10
1.71171
20
-0.0574115
11
1.70461
21
-0.069506
0
LINE
8
BLACK
6
CONTINUOUS
10
1.70461
20
-0.069506
11
1.69622
21
-0.0807341
0
LINE
8
BLACK
6
CONTINUOUS
10
1.69622
20
-0.0807341
11
1.68662
21
-0.090956
0
LINE
8
BLACK
6
CONTINUOUS
10
1.68662
20
-0.090956
11
1.67594
21
-0.100044
0
LINE
8
BLACK
6
CONTINUOUS
10
1.67594
20
-0.100044
11
1.66431
21
-0.107885
0
LINE
8
BLACK
6
CONTINUOUS
10
1.66431
20
-0.107885
11
1.65189
21
-0.114382
0
LINE
8
BLACK
6
CONTINUOUS
10
1.65189
20
-0.114382
11
1.63881
21
-0.119453
0
LINE
8
BLACK
6
CONTINUOUS
10
1.63881
20
-0.119453
11
1.62526
21
-0.123035
0
LINE
8
BLACK
6
CONTINUOUS
10
1.62526
20
-0.123035
11
1.61138
21
-0.125083
0
LINE
8
BLACK
6
CONTINUOUS
10
1.61138
20
-0.125083
11
1.59737
21
-0.125572
0
LINE
8
BLACK
6
CONTINUOUS
10
1.59737
20
-0.125572
11
1.58339
21
-0.124497
0
LINE
8
BLACK
6
CONTINUOUS
10
1.58339
20
-0.124497
11
1.56961
21
-0.121869
0
LINE
8
BLACK
6
CONTINUOUS
10
1.56961
20
-0.121869
11
1.55622
21
-0.117723
0
LINE
8
BLACK
6
CONTINUOUS
10
1.55622
20
-0.117723
11
1.54337
21
-0.112109
0
LINE
8
BLACK
6
CONTINUOUS
10
1.54337
20
-0.112109
11
1.53123
21
-0.105098
0
LINE
8
BLACK
6
CONTINUOUS
10
1.53123
20
-0.105098
11
1.51994
21
-0.0967765
0
LINE
8
BLACK
6
CONTINUOUS
10
1.51994
20
-0.0967765
11
1.50965
21
-0.0872491
0
LINE
8
BLACK
6
CONTINUOUS
10
1.50965
20
-0.0872491
11
1.50049
21
-0.0766343
0
LINE
8
BLACK
6
CONTINUOUS
10
1.50049
20
-0.0766343
11
1.49257
21
-0.0650642
0
LINE
8
BLACK
6
CONTINUOUS
10
1.49257
20
-0.0650642
11
1.48598
21
-0.0526832
0
LINE
8
BLACK
6
CONTINUOUS
10
1.48598
20
-0.0526832
11
1.48082
21
-0.0396455
0
LINE
8
BLACK
6
CONTINUOUS
10
1.48082
20
-0.0396455
11
1.47714
21
-0.0261137
0
LINE
8
BLACK
6
CONTINUOUS
10
1.47714
20
-0.0261137
11
1.475
21
-0.0122564
0
LINE
8
BLACK
6
CONTINUOUS
10
1.475
20
-0.0122564
11
1.47441
21
0.00175366
0
LINE
8
BLACK
6
CONTINUOUS
10
1.47441
20
0.00175366
11
1.47453
21
0.00347992
0
LINE
8
BLACK
6
CONTINUOUS
10
1.47453
20
0.00347992
11
1.47539
21
0.0157419
0
LINE
8
BLACK
6
CONTINUOUS
10
1.47539
20
0.0157419
11
1.47792
21
0.0295339
0
LINE
8
BLACK
6
CONTINUOUS
10
1.4914
20
-0.021898
11
1.49463
21
-0.0342352
0
LINE
8
BLACK
6
CONTINUOUS
10
1.49463
20
-0.0342352
11
1.49927
21
-0.0461187
0
LINE
8
BLACK
6
CONTINUOUS
10
1.49927
20
-0.0461187
11
1.50524
21
-0.0573909
0
LINE
8
BLACK
6
CONTINUOUS
10
1.50524
20
-0.0573909
11
1.51246
21
-0.0679024
0
LINE
8
BLACK
6
CONTINUOUS
10
1.51246
20
-0.0679024
11
1.52085
21
-0.0775139
0
LINE
8
BLACK
6
CONTINUOUS
10
1.52085
20
-0.0775139
11
1.53028
21
-0.086098
0
LINE
8
BLACK
6
CONTINUOUS
10
1.53028
20
-0.086098
11
1.54064
21
-0.0935409
0
LINE
8
BLACK
6
CONTINUOUS
10
1.54064
20
-0.0935409
11
1.55178
21
-0.099744
0
LINE
8
BLACK
6
CONTINUOUS
10
1.55178
20
-0.099744
11
1.56357
21
-0.104625
0
LINE
8
BLACK
6
CONTINUOUS
10
1.56357
20
-0.104625
11
1.57583
21
-0.108119
0
LINE
8
BLACK
6
CONTINUOUS
10
1.57583
20
-0.108119
11
1.58842
21
-0.110181
0
LINE
8
BLACK
6
CONTINUOUS
10
1.58842
20
-0.110181
11
1.60116
21
-0.110781
0
LINE
8
BLACK
6
CONTINUOUS
10
1.60116
20
-0.110781
11
1.61389
21
-0.109914
0
LINE
8
BLACK
6
CONTINUOUS
10
1.61389
20
-0.109914
11
1.62643
21
-0.107589
0
LINE
8
BLACK
6
CONTINUOUS
10
1.62643
20
-0.107589
11
1.63862
21
-0.103839
0
LINE
8
BLACK
6
CONTINUOUS
10
1.63862
20
-0.103839
11
1.6503
21
-0.0987123
0
LINE
8
BLACK
6
CONTINUOUS
10
1.6503
20
-0.0987123
11
1.66131
21
-0.0922772
0
LINE
8
BLACK
6
CONTINUOUS
10
1.66131
20
-0.0922772
11
1.67151
21
-0.084619
0
LINE
8
BLACK
6
CONTINUOUS
10
1.67151
20
-0.084619
11
1.68076
21
-0.0758392
0
LINE
8
BLACK
6
CONTINUOUS
10
1.68076
20
-0.0758392
11
1.68894
21
-0.0660542
0
LINE
8
BLACK
6
CONTINUOUS
10
1.68894
20
-0.0660542
11
1.69594
21
-0.0553937
0
LINE
8
BLACK
6
CONTINUOUS
10
1.69594
20
-0.0553937
11
1.70168
21
-0.043999
0
LINE
8
BLACK
6
CONTINUOUS
10
1.70168
20
-0.043999
11
1.70606
21
-0.0320211
0
LINE
8
BLACK
6
CONTINUOUS
10
1.70606
20
-0.0320211
11
1.70904
21
-0.0196188
0
LINE
8
BLACK
6
CONTINUOUS
10
1.70904
20
-0.0196188
11
1.71057
21
-0.00695642
0
LINE
8
BLACK
6
CONTINUOUS
10
1.71057
20
-0.00695642
11
1.71079
21
0
0
LINE
8
BLACK
6
CONTINUOUS
10
1.71079
20
0
11
1.71005
21
0.0127336
0
LINE
8
BLACK
6
CONTINUOUS
10
1.71005
20
0.0127336
11
1.70786
21
0.0252984
0
LINE
8
BLACK
6
CONTINUOUS
10
1.70786
20
0.0252984
11
1.70424
21
0.0375279
0
LINE
8
BLACK
6
CONTINUOUS
10
1.70424
20
0.0375279
11
1.69923
21
0.04926
0
LINE
8
BLACK
6
CONTINUOUS
10
1.69923
20
0.04926
11
1.69291
21
0.0603392
0
LINE
8
BLACK
6
CONTINUOUS
10
1.69291
20
0.0603392
11
1.68536
21
0.0706186
0
LINE
8
BLACK
6
CONTINUOUS
10
1.68536
20
0.0706186
11
1.67668
21
0.079962
0
LINE
8
BLACK
6
CONTINUOUS
10
1.67668
20
0.079962
11
1.66698
21
0.0882455
0
LINE
8
BLACK
6
CONTINUOUS
10
1.66698
20
0.0882455
11
1.6564
21
0.0953594
0
LINE
8
BLACK
6
CONTINUOUS
10
1.6564
20
0.0953594
11
1.64506
21
0.101209
0
LINE
8
BLACK
6
CONTINUOUS
10
1.64506
20
0.101209
11
1.63313
21
0.105718
0
LINE
8
BLACK
6
CONTINUOUS
10
1.63313
20
0.105718
11
1.62076
21
0.108825
0
LINE
8
BLACK
6
CONTINUOUS
10
1.62076
20
0.108825
11
1.60811
21
0.11049
0
LINE
8
BLACK
6
CONTINUOUS
10
1.60811
20
0.11049
11
1.59536
21
0.11069
0
LINE
8
BLACK
6
CONTINUOUS
10
1.59536
20
0.11069
11
1.58267
21
0.109423
0
LINE
8
BLACK
6
CONTINUOUS
10
1.58267
20
0.109423
11
1.57021
21
0.106706
0
LINE
8
BLACK
6
CONTINUOUS
10
1.57021
20
0.106706
11
1.55814
21
0.102575
0
LINE
8
BLACK
6
CONTINUOUS
10
1.55814
20
0.102575
11
1.54663
21
0.0970838
0
LINE
8
BLACK
6
CONTINUOUS
10
1.54663
20
0.0970838
11
1.53582
21
0.0903059
0
LINE
8
BLACK
6
CONTINUOUS
10
1.53582
20
0.0903059
11
1.52587
21
0.0823311
0
LINE
8
BLACK
6
CONTINUOUS
10
1.52587
20
0.0823311
11
1.5169
21
0.073265
0
LINE
8
BLACK
6
CONTINUOUS
10
1.5169
20
0.073265
11
1.50903
21
0.0632279
0
LINE
8
BLACK
6
CONTINUOUS
10
1.50903
20
0.0632279
11
1.50236
21
0.0523527
0
LINE
8
BLACK
6
CONTINUOUS
10
1.50236
20
0.0523527
11
1.49699
21
0.0407836
0
LINE
8
BLACK
6
CONTINUOUS
10
1.49699
20
0.0407836
11
1.49299
21
0.0286739
0
LINE
8
BLACK
6
CONTINUOUS
10
1.49299
20
0.0286739
11
1.4904
21
0.0161842
0
LINE
8
BLACK
6
CONTINUOUS
10
1.4904
20
0.0161842
11
1.48927
21
0.00347992
0
LINE
8
BLACK
6
CONTINUOUS
10
1.48927
20
0.00347992
11
1.4896
21
-0.00927047
0
LINE
8
BLACK
6
CONTINUOUS
10
1.4896
20
-0.00927047
11
1.4914
21
-0.021898
0
LINE
8
BLACK
6
CONTINUOUS
10
-0.122078
20
0.0295339
11
-0.118025
21
0.0429577
0
LINE
8
BLACK
6
CONTINUOUS
10
-0.118025
20
0.0429577
11
-0.112501
21
0.0558462
0
LINE
8
BLACK
6
CONTINUOUS
10
-0.112501
20
0.0558462
11
-0.105575
21
0.0680385
0
LINE
8
BLACK
6
CONTINUOUS
10
-0.105575
20
0.0680385
11
-0.097333
21
0.0793829
0
LINE
8
BLACK
6
CONTINUOUS
10
-0.097333
20
0.0793829
11
-0.0878777
21
0.0897378
0
LINE
8
BLACK
6
CONTINUOUS
10
-0.0878777
20
0.0897378
11
-0.0773271
21
0.0989741
0
LINE
8
BLACK
6
CONTINUOUS
10
-0.0773271
20
0.0989741
11
-0.0658126
21
0.106977
0
LINE
8
BLACK
6
CONTINUOUS
10
-0.0658126
20
0.106977
11
-0.0534779
21
0.113646
0
LINE
8
BLACK
6
CONTINUOUS
10
-0.0534779
20
0.113646
11
-0.0404766
21
0.118899
0
LINE
8
BLACK
6
CONTINUOUS
10
-0.0404766
20
0.118899
11
-0.0269707
21
0.12267
0
LINE
8
BLACK
6
CONTINUOUS
10
-0.0269707
20
0.12267
11
-0.0131288
21
0.124912
0
LINE
8
BLACK
6
CONTINUOUS
10
-0.0131288
20
0.124912
11
0.00087685
21
0.125597
0
LINE
8
BLACK
6
CONTINUOUS
10
0.00087685
20
0.125597
11
0.0148715
21
0.124716
0
LINE
8
BLACK
6
CONTINUOUS
10
0.0148715
20
0.124716
11
0.0286809
21
0.122281
0
LINE
8
BLACK
6
CONTINUOUS
10
0.0286809
20
0.122281
11
0.0421327
21
0.118322
0
LINE
8
BLACK
6
CONTINUOUS
10
0.0421327
20
0.118322
11
0.0550594
21
0.112889
0
LINE
8
BLACK
6
CONTINUOUS
10
0.0550594
20
0.112889
11
0.0672998
21
0.106048
0
LINE
8
BLACK
6
CONTINUOUS
10
0.0672998
20
0.106048
11
0.0787015
21
0.0978848
0
LINE
8
BLACK
6
CONTINUOUS
10
0.0787015
20
0.0978848
11
0.0891221
21
0.088502
0
LINE
8
BLACK
6
CONTINUOUS
10
0.0891221
20
0.088502
11
0.0984319
21
0.0780161
0
LINE
8
BLACK
6
CONTINUOUS
10
0.0984319
20
0.0780161
11
0.106515
21
0.0665579
0
LINE
8
BLACK
6
CONTINUOUS
10
0.106515
20
0.0665579
11
0.11327
21
0.05427
0
LINE
8
BLACK
6
CONTINUOUS
10
0.11327
20
0.05427
11
0.118614
21
0.0413057
0
LINE
8
BLACK
6
CONTINUOUS
10
0.118614
20
0.0413057
11
0.122479
21
0.0278265
0
LINE
8
BLACK
6
CONTINUOUS
10
0.122479
20
0.0278265
11
0.124817
21
0.0140005
0
LINE
8
BLACK
6
CONTINUOUS
10
0.124817
20
0.0140005
11
0.1256
21
0
0
LINE
8
BLACK
6
CONTINUOUS
10
0.1256
20
0
11
0.125551
21
-0.00350697
0
LINE
8
BLACK
6
CONTINUOUS
10
0.125551
20
-0.00350697
11
0.124378
21
-0.0174802
0
LINE
8
BLACK
6
CONTINUOUS
10
0.124378
20
-0.0174802
11
0.121654
21
-0.0312354
0
LINE
8
BLACK
6
CONTINUOUS
10
0.121654
20
-0.0312354
11
0.117414
21
-0.0446014
0
LINE
8
BLACK
6
CONTINUOUS
10
0.117414
20
-0.0446014
11
0.111711
21
-0.0574115
0
LINE
8
BLACK
6
CONTINUOUS
10
0.111711
20
-0.0574115
11
0.104615
21
-0.069506
0
LINE
8
BLACK
6
CONTINUOUS
10
0.104615
20
-0.069506
11
0.0962152
21
-0.0807341
0
LINE
8
BLACK
6
CONTINUOUS
10
0.0962152
20
-0.0807341
11
0.0866162
21
-0.090956
0
LINE
8
BLACK
6
CONTINUOUS
10
0.0866162
20
-0.090956
11
0.0759376
21
-0.100044
0
LINE
8
BLACK
6
CONTINUOUS
10
0.0759376
20
-0.100044
11
0.0643126
21
-0.107885
0
LINE
8
BLACK
6
CONTINUOUS
10
0.0643126
20
-0.107885
11
0.0518859
21
-0.114382
0
LINE
8
BLACK
6
CONTINUOUS
10
0.0518859
20
-0.114382
11
0.0388125
21
-0.119453
0
LINE
8
BLACK
6
CONTINUOUS
10
0.0388125
20
-0.119453
11
0.0252554
21
-0.123035
0
LINE
8
BLACK
6
CONTINUOUS
10
0.0252554
20
-0.123035
11
0.0113835
21
-0.125083
0
LINE
8
BLACK
6
CONTINUOUS
10
0.0113835
20
-0.125083
11
-0.00263035
21
-0.125572
0
LINE
8
BLACK
6
CONTINUOUS
10
-0.00263035
20
-0.125572
11
-0.0166114
21
-0.124497
0
LINE
8
BLACK
6
CONTINUOUS
10
-0.0166114
20
-0.124497
11
-0.0303854
21
-0.121869
0
LINE
8
BLACK
6
CONTINUOUS
10
-0.0303854
20
-0.121869
11
-0.0437806
21
-0.117723
0
LINE
8
BLACK
6
CONTINUOUS
10
-0.0437806
20
-0.117723
11
-0.0566302
21
-0.112109
0
LINE
8
BLACK
6
CONTINUOUS
10
-0.0566302
20
-0.112109
11
-0.0687739
21
-0.105098
0
LINE
8
BLACK
6
CONTINUOUS
10
-0.0687739
20
-0.105098
11
-0.0800605
21
-0.0967765
0
LINE
8
BLACK
6
CONTINUOUS
10
-0.0800605
20
-0.0967765
11
-0.0903491
21
-0.0872491
0
LINE
8
BLACK
6
CONTINUOUS
10
-0.0903491
20
-0.0872491
11
-0.0995116
21
-0.0766343
0
LINE
8
BLACK
6
CONTINUOUS
10
-0.0995116
20
-0.0766343
11
-0.107434
21
-0.0650642
0
LINE
8
BLACK
6
CONTINUOUS
10
-0.107434
20
-0.0650642
11
-0.114017
21
-0.0526832
0
LINE
8
BLACK
6
CONTINUOUS
10
-0.114017
20
-0.0526832
11
-0.119179
21
-0.0396455
0
LINE
8
BLACK
6
CONTINUOUS
10
-0.119179
20
-0.0396455
11
-0.122855
21
-0.0261137
0
LINE
8
BLACK
6
CONTINUOUS
10
-0.122855
20
-0.0261137
11
-0.125001
21
-0.0122564
0
LINE
8
BLACK
6
CONTINUOUS
10
-0.125001
20
-0.0122564
11
-0.125588
21
0.00175366
0
LINE
8
BLACK
6
CONTINUOUS
10
-0.125588
20
0.00175366
11
-0.125467
21
0.00347992
0
LINE
8
BLACK
6
CONTINUOUS
10
-0.125467
20
0.00347992
11
-0.12461
21
0.0157419
0
LINE
8
BLACK
6
CONTINUOUS
10
-0.12461
20
0.0157419
11
-0.122078
21
0.0295339
0
LINE
8
BLACK
6
CONTINUOUS
10
-0.108602
20
-0.021898
11
-0.105365
21
-0.0342352
0
LINE
8
BLACK
6
CONTINUOUS
10
-0.105365
20
-0.0342352
11
-0.100732
21
-0.0461187
0
LINE
8
BLACK
6
CONTINUOUS
10
-0.100732
20
-0.0461187
11
-0.0947636
21
-0.0573909
0
LINE
8
BLACK
6
CONTINUOUS
10
-0.0947636
20
-0.0573909
11
-0.0875393
21
-0.0679024
0
LINE
8
BLACK
6
CONTINUOUS
10
-0.0875393
20
-0.0679024
11
-0.0791546
21
-0.0775139
0
LINE
8
BLACK
6
CONTINUOUS
10
-0.0791546
20
-0.0775139
11
-0.0697208
21
-0.086098
0
LINE
8
BLACK
6
CONTINUOUS
10
-0.0697208
20
-0.086098
11
-0.0593629
21
-0.0935409
0
LINE
8
BLACK
6
CONTINUOUS
10
-0.0593629
20
-0.0935409
11
-0.0482181
21
-0.099744
0
LINE
8
BLACK
6
CONTINUOUS
10
-0.0482181
20
-0.099744
11
-0.0364343
21
-0.104625
0
LINE
8
BLACK
6
CONTINUOUS
10
-0.0364343
20
-0.104625
11
-0.0241675
21
-0.108119
0
LINE
8
BLACK
6
CONTINUOUS
10
-0.0241675
20
-0.108119
11
-0.0115804
21
-0.110181
0
LINE
8
BLACK
6
CONTINUOUS
10
-0.0115804
20
-0.110181
11
0.00116016
21
-0.110781
0
LINE
8
BLACK
6
CONTINUOUS
10
0.00116016
20
-0.110781
11
0.0138854
21
-0.109914
0
LINE
8
BLACK
6
CONTINUOUS
10
0.0138854
20
-0.109914
11
0.0264265
21
-0.107589
0
LINE
8
BLACK
6
CONTINUOUS
10
0.0264265
20
-0.107589
11
0.0386174
21
-0.103839
0
LINE
8
BLACK
6
CONTINUOUS
10
0.0386174
20
-0.103839
11
0.0502965
21
-0.0987123
0
LINE
8
BLACK
6
CONTINUOUS
10
0.0502965
20
-0.0987123
11
0.0613088
21
-0.0922772
0
LINE
8
BLACK
6
CONTINUOUS
10
0.0613088
20
-0.0922772
11
0.0715086
21
-0.084619
0
LINE
8
BLACK
6
CONTINUOUS
10
0.0715086
20
-0.084619
11
0.0807606
21
-0.0758392
0
LINE
8
BLACK
6
CONTINUOUS
10
0.0807606
20
-0.0758392
11
0.0889421
21
-0.0660542
0
LINE
8
BLACK
6
CONTINUOUS
10
0.0889421
20
-0.0660542
11
0.0959447
21
-0.0553937
0
LINE
8
BLACK
6
CONTINUOUS
10
0.0959447
20
-0.0553937
11
0.101676
21
-0.043999
0
LINE
8
BLACK
6
CONTINUOUS
10
0.101676
20
-0.043999
11
0.106059
21
-0.0320211
0
LINE
8
BLACK
6
CONTINUOUS
10
0.106059
20
-0.0320211
11
0.109036
21
-0.0196188
0
LINE
8
BLACK
6
CONTINUOUS
10
0.109036
20
-0.0196188
11
0.110569
21
-0.00695642
0
LINE
8
BLACK
6
CONTINUOUS
10
0.110569
20
-0.00695642
11
0.110787
21
0
0
LINE
8
BLACK
6
CONTINUOUS
10
0.110787
20
0
11
0.110053
21
0.0127336
0
LINE
8
BLACK
6
CONTINUOUS
10
0.110053
20
0.0127336
11
0.10786
21
0.0252984
0
LINE
8
BLACK
6
CONTINUOUS
10
0.10786
20
0.0252984
11
0.104238
21
0.0375279
0
LINE
8
BLACK
6
CONTINUOUS
10
0.104238
20
0.0375279
11
0.0992336
21
0.04926
0
LINE
8
BLACK
6
CONTINUOUS
10
0.0992336
20
0.04926
11
0.0929142
21
0.0603392
0
LINE
8
BLACK
6
CONTINUOUS
10
0.0929142
20
0.0603392
11
0.0853632
21
0.0706186
0
LINE
8
BLACK
6
CONTINUOUS
10
0.0853632
20
0.0706186
11
0.0766808
21
0.079962
0
LINE
8
BLACK
6
CONTINUOUS
10
0.0766808
20
0.079962
11
0.066982
21
0.0882455
0
LINE
8
BLACK
6
CONTINUOUS
10
0.066982
20
0.0882455
11
0.0563954
21
0.0953594
0
LINE
8
BLACK
6
CONTINUOUS
10
0.0563954
20
0.0953594
11
0.0450613
21
0.101209
0
LINE
8
BLACK
6
CONTINUOUS
10
0.0450613
20
0.101209
11
0.03313
21
0.105718
0
LINE
8
BLACK
6
CONTINUOUS
10
0.03313
20
0.105718
11
0.0207595
21
0.108825
0
LINE
8
BLACK
6
CONTINUOUS
10
0.0207595
20
0.108825
11
0.00811386
21
0.11049
0
LINE
8
BLACK
6
CONTINUOUS
10
0.00811386
20
0.11049
11
-0.00463929
21
0.11069
0
LINE
8
BLACK
6
CONTINUOUS
10
-0.00463929
20
0.11069
11
-0.017331
21
0.109423
0
LINE
8
BLACK
6
CONTINUOUS
10
-0.017331
20
0.109423
11
-0.029793
21
0.106706
0
LINE
8
BLACK
6
CONTINUOUS
10
-0.029793
20
0.106706
11
-0.04186
21
0.102575
0
LINE
8
BLACK
6
CONTINUOUS
10
-0.04186
20
0.102575
11
-0.0533722
21
0.0970838
0
LINE
8
BLACK
6
CONTINUOUS
10
-0.0533722
20
0.0970838
11
-0.0641771
21
0.0903059
0
LINE
8
BLACK
6
CONTINUOUS
10
-0.0641771
20
0.0903059
11
-0.0741313
21
0.0823311
0
LINE
8
BLACK
6
CONTINUOUS
10
-0.0741313
20
0.0823311
11
-0.0831029
21
0.073265
0
LINE
8
BLACK
6
CONTINUOUS
10
-0.0831029
20
0.073265
11
-0.090973
21
0.0632279
0
LINE
8
BLACK
6
CONTINUOUS
10
-0.090973
20
0.0632279
11
-0.0976374
21
0.0523527
0
LINE
8
BLACK
6
CONTINUOUS
10
-0.0976374
20
0.0523527
11
-0.103008
21
0.0407836
0
LINE
8
BLACK
6
CONTINUOUS
10
-0.103008
20
0.0407836
11
-0.107012
21
0.0286739
0
LINE
8
BLACK
6
CONTINUOUS
10
-0.107012
20
0.0286739
11
-0.109599
21
0.0161842
0
LINE
8
BLACK
6
CONTINUOUS
10
-0.109599
20
0.0161842
11
-0.110733
21
0.00347992
0
LINE
8
BLACK
6
CONTINUOUS
10
-0.110733
20
0.00347992
11
-0.110399
21
-0.00927047
0
LINE
8
BLACK
6
CONTINUOUS
10
-0.110399
20
-0.00927047
11
-0.108602
21
-0.021898
  0
ENDSEC
  0
EOF
