  0
SECTION
  2
HEADER
  9
$ANGBASE
  50
0.0
  9
$ANGDIR
  70
1
  9
$MEASUREMENT
  70
0
  0
ENDSEC
  0
SECTION
  2
TABLES
  0
TABLE
  2
LTYPE
  70
4
  0
LTYPE
  5
40F
  2
CONTINUOUS
  70
0
  3
Solid line
  72
65
  73
0
  40
0.0
  0
LTYPE
  5
410
  2
DASHDOT
 70
0
  3
Dash Dot ____ _ ____ _
 72
65
 73
4
 40
2.0
 49
1.25
 49
-0.25
 49
0.25
 49
-0.25
  0
LTYPE
  5
411
  2
DASHED
 70
0
  3
Dashed __ __ __ __ __
 72
65
 73
2
 40
0.75
 49
0.5
 49
-0.25
  0
LTYPE
  5
43B
  2
DOTTED
 70
0
  3
Dotted .  .  .  .
 72
65
 73
2
 40
0.2
 49
0.0
 49
-0.2
  0
ENDTAB
  0
TABLE
  2
STYLE
  70
4
  0
STYLE
  2
KICAD
  70
0
  40
0
  41
1
  42
1
  50
0
  71
0
  3
isocp.shx
  0
STYLE
  2
KICADB
  70
0
  40
0
  41
1
  42
1
  50
0
  71
0
  3
isocp.shx
  0
STYLE
  2
KICADI
  70
0
  40
0
  41
1
  42
1
  50
15
  71
0
  3
isocp.shx
  0
STYLE
  2
KICADBI
  70
0
  40
0
  41
1
  42
1
  50
15
  71
0
  3
isocp.shx
  0
ENDTAB
  0
TABLE
  2
LAYER
  70
1
  0
LAYER
  2
BLACK
  70
0
  62
7
  6
CONTINUOUS
  0
ENDTAB
  0
ENDSEC
  0
SECTION
  2
ENTITIES
0
LINE
8
BLACK
6
CONTINUOUS
10
0.226368
20
-0.493965
11
0.226497
21
-0.493942
0
LINE
8
BLACK
6
CONTINUOUS
10
0.226497
20
-0.493942
11
0.226611
21
-0.494008
0
LINE
8
BLACK
6
CONTINUOUS
10
0.226611
20
-0.494008
11
0.226994
21
-0.494076
0
LINE
8
BLACK
6
CONTINUOUS
10
0.226994
20
-0.494076
11
0.227582
21
-0.494569
0
LINE
8
BLACK
6
CONTINUOUS
10
0.227582
20
-0.494569
11
0.228246
21
-0.494952
0
LINE
8
BLACK
6
CONTINUOUS
10
0.228246
20
-0.494952
11
0.228337
21
-0.495203
0
LINE
8
BLACK
6
CONTINUOUS
10
0.228337
20
-0.495203
11
0.228541
21
-0.495374
0
LINE
8
BLACK
6
CONTINUOUS
10
0.228541
20
-0.495374
11
0.228675
21
-0.49613
0
LINE
8
BLACK
6
CONTINUOUS
10
0.228675
20
-0.49613
11
0.228937
21
-0.49685
0
LINE
8
BLACK
6
CONTINUOUS
10
0.228937
20
-0.49685
11
0.228937
21
-0.519488
0
LINE
8
BLACK
6
CONTINUOUS
10
0.228937
20
-0.519488
11
0.245669
21
-0.519488
0
LINE
8
BLACK
6
CONTINUOUS
10
0.245669
20
-0.519488
11
0.246053
21
-0.519556
0
LINE
8
BLACK
6
CONTINUOUS
10
0.246053
20
-0.519556
11
0.246182
21
-0.519533
0
LINE
8
BLACK
6
CONTINUOUS
10
0.246182
20
-0.519533
11
0.246296
21
-0.519599
0
LINE
8
BLACK
6
CONTINUOUS
10
0.246296
20
-0.519599
11
0.246679
21
-0.519666
0
LINE
8
BLACK
6
CONTINUOUS
10
0.246679
20
-0.519666
11
0.247267
21
-0.520159
0
LINE
8
BLACK
6
CONTINUOUS
10
0.247267
20
-0.520159
11
0.247931
21
-0.520543
0
LINE
8
BLACK
6
CONTINUOUS
10
0.247931
20
-0.520543
11
0.248022
21
-0.520793
0
LINE
8
BLACK
6
CONTINUOUS
10
0.248022
20
-0.520793
11
0.248226
21
-0.520965
0
LINE
8
BLACK
6
CONTINUOUS
10
0.248226
20
-0.520965
11
0.24836
21
-0.52172
0
LINE
8
BLACK
6
CONTINUOUS
10
0.24836
20
-0.52172
11
0.248622
21
-0.522441
0
LINE
8
BLACK
6
CONTINUOUS
10
0.248622
20
-0.522441
11
0.248622
21
-0.620866
0
LINE
8
BLACK
6
CONTINUOUS
10
0.248622
20
-0.620866
11
0.248554
21
-0.62125
0
LINE
8
BLACK
6
CONTINUOUS
10
0.248554
20
-0.62125
11
0.248577
21
-0.621379
0
LINE
8
BLACK
6
CONTINUOUS
10
0.248577
20
-0.621379
11
0.248512
21
-0.621493
0
LINE
8
BLACK
6
CONTINUOUS
10
0.248512
20
-0.621493
11
0.248444
21
-0.621876
0
LINE
8
BLACK
6
CONTINUOUS
10
0.248444
20
-0.621876
11
0.247951
21
-0.622464
0
LINE
8
BLACK
6
CONTINUOUS
10
0.247951
20
-0.622464
11
0.247567
21
-0.623128
0
LINE
8
BLACK
6
CONTINUOUS
10
0.247567
20
-0.623128
11
0.247317
21
-0.623219
0
LINE
8
BLACK
6
CONTINUOUS
10
0.247317
20
-0.623219
11
0.247146
21
-0.623423
0
LINE
8
BLACK
6
CONTINUOUS
10
0.247146
20
-0.623423
11
0.24639
21
-0.623557
0
LINE
8
BLACK
6
CONTINUOUS
10
0.24639
20
-0.623557
11
0.245669
21
-0.623819
0
LINE
8
BLACK
6
CONTINUOUS
10
0.245669
20
-0.623819
11
0.228937
21
-0.623819
0
LINE
8
BLACK
6
CONTINUOUS
10
0.228937
20
-0.623819
11
0.228937
21
-0.646457
0
LINE
8
BLACK
6
CONTINUOUS
10
0.228937
20
-0.646457
11
0.228869
21
-0.64684
0
LINE
8
BLACK
6
CONTINUOUS
10
0.228869
20
-0.64684
11
0.228892
21
-0.646969
0
LINE
8
BLACK
6
CONTINUOUS
10
0.228892
20
-0.646969
11
0.228827
21
-0.647083
0
LINE
8
BLACK
6
CONTINUOUS
10
0.228827
20
-0.647083
11
0.228759
21
-0.647467
0
LINE
8
BLACK
6
CONTINUOUS
10
0.228759
20
-0.647467
11
0.228266
21
-0.648054
0
LINE
8
BLACK
6
CONTINUOUS
10
0.228266
20
-0.648054
11
0.227882
21
-0.648719
0
LINE
8
BLACK
6
CONTINUOUS
10
0.227882
20
-0.648719
11
0.227632
21
-0.64881
0
LINE
8
BLACK
6
CONTINUOUS
10
0.227632
20
-0.64881
11
0.227461
21
-0.649014
0
LINE
8
BLACK
6
CONTINUOUS
10
0.227461
20
-0.649014
11
0.226705
21
-0.649147
0
LINE
8
BLACK
6
CONTINUOUS
10
0.226705
20
-0.649147
11
0.225984
21
-0.649409
0
LINE
8
BLACK
6
CONTINUOUS
10
0.225984
20
-0.649409
11
0.186614
21
-0.649409
0
LINE
8
BLACK
6
CONTINUOUS
10
0.186614
20
-0.649409
11
0.186231
21
-0.649342
0
LINE
8
BLACK
6
CONTINUOUS
10
0.186231
20
-0.649342
11
0.186101
21
-0.649365
0
LINE
8
BLACK
6
CONTINUOUS
10
0.186101
20
-0.649365
11
0.185988
21
-0.649299
0
LINE
8
BLACK
6
CONTINUOUS
10
0.185988
20
-0.649299
11
0.185604
21
-0.649231
0
LINE
8
BLACK
6
CONTINUOUS
10
0.185604
20
-0.649231
11
0.185017
21
-0.648738
0
LINE
8
BLACK
6
CONTINUOUS
10
0.185017
20
-0.648738
11
0.184352
21
-0.648355
0
LINE
8
BLACK
6
CONTINUOUS
10
0.184352
20
-0.648355
11
0.184261
21
-0.648104
0
LINE
8
BLACK
6
CONTINUOUS
10
0.184261
20
-0.648104
11
0.184057
21
-0.647933
0
LINE
8
BLACK
6
CONTINUOUS
10
0.184057
20
-0.647933
11
0.183924
21
-0.647178
0
LINE
8
BLACK
6
CONTINUOUS
10
0.183924
20
-0.647178
11
0.183661
21
-0.646457
0
LINE
8
BLACK
6
CONTINUOUS
10
0.183661
20
-0.646457
11
0.183661
21
-0.623819
0
LINE
8
BLACK
6
CONTINUOUS
10
0.183661
20
-0.623819
11
0.166929
21
-0.623819
0
LINE
8
BLACK
6
CONTINUOUS
10
0.166929
20
-0.623819
11
0.166546
21
-0.623751
0
LINE
8
BLACK
6
CONTINUOUS
10
0.166546
20
-0.623751
11
0.166416
21
-0.623774
0
LINE
8
BLACK
6
CONTINUOUS
10
0.166416
20
-0.623774
11
0.166303
21
-0.623708
0
LINE
8
BLACK
6
CONTINUOUS
10
0.166303
20
-0.623708
11
0.165919
21
-0.623641
0
LINE
8
BLACK
6
CONTINUOUS
10
0.165919
20
-0.623641
11
0.165332
21
-0.623148
0
LINE
8
BLACK
6
CONTINUOUS
10
0.165332
20
-0.623148
11
0.164667
21
-0.622764
0
LINE
8
BLACK
6
CONTINUOUS
10
0.164667
20
-0.622764
11
0.164576
21
-0.622514
0
LINE
8
BLACK
6
CONTINUOUS
10
0.164576
20
-0.622514
11
0.164372
21
-0.622343
0
LINE
8
BLACK
6
CONTINUOUS
10
0.164372
20
-0.622343
11
0.164239
21
-0.621587
0
LINE
8
BLACK
6
CONTINUOUS
10
0.164239
20
-0.621587
11
0.163976
21
-0.620866
0
LINE
8
BLACK
6
CONTINUOUS
10
0.163976
20
-0.620866
11
0.163976
21
-0.522441
0
LINE
8
BLACK
6
CONTINUOUS
10
0.163976
20
-0.522441
11
0.164044
21
-0.522057
0
LINE
8
BLACK
6
CONTINUOUS
10
0.164044
20
-0.522057
11
0.164021
21
-0.521928
0
LINE
8
BLACK
6
CONTINUOUS
10
0.164021
20
-0.521928
11
0.164087
21
-0.521815
0
LINE
8
BLACK
6
CONTINUOUS
10
0.164087
20
-0.521815
11
0.164154
21
-0.521431
0
LINE
8
BLACK
6
CONTINUOUS
10
0.164154
20
-0.521431
11
0.164648
21
-0.520843
0
LINE
8
BLACK
6
CONTINUOUS
10
0.164648
20
-0.520843
11
0.165031
21
-0.520179
0
LINE
8
BLACK
6
CONTINUOUS
10
0.165031
20
-0.520179
11
0.165281
21
-0.520088
0
LINE
8
BLACK
6
CONTINUOUS
10
0.165281
20
-0.520088
11
0.165453
21
-0.519884
0
LINE
8
BLACK
6
CONTINUOUS
10
0.165453
20
-0.519884
11
0.166208
21
-0.519751
0
LINE
8
BLACK
6
CONTINUOUS
10
0.166208
20
-0.519751
11
0.166929
21
-0.519488
0
LINE
8
BLACK
6
CONTINUOUS
10
0.166929
20
-0.519488
11
0.183661
21
-0.519488
0
LINE
8
BLACK
6
CONTINUOUS
10
0.183661
20
-0.519488
11
0.183661
21
-0.49685
0
LINE
8
BLACK
6
CONTINUOUS
10
0.183661
20
-0.49685
11
0.183729
21
-0.496467
0
LINE
8
BLACK
6
CONTINUOUS
10
0.183729
20
-0.496467
11
0.183706
21
-0.496338
0
LINE
8
BLACK
6
CONTINUOUS
10
0.183706
20
-0.496338
11
0.183772
21
-0.496224
0
LINE
8
BLACK
6
CONTINUOUS
10
0.183772
20
-0.496224
11
0.183839
21
-0.49584
0
LINE
8
BLACK
6
CONTINUOUS
10
0.183839
20
-0.49584
11
0.184333
21
-0.495253
0
LINE
8
BLACK
6
CONTINUOUS
10
0.184333
20
-0.495253
11
0.184716
21
-0.494588
0
LINE
8
BLACK
6
CONTINUOUS
10
0.184716
20
-0.494588
11
0.184967
21
-0.494497
0
LINE
8
BLACK
6
CONTINUOUS
10
0.184967
20
-0.494497
11
0.185138
21
-0.494293
0
LINE
8
BLACK
6
CONTINUOUS
10
0.185138
20
-0.494293
11
0.185893
21
-0.49416
0
LINE
8
BLACK
6
CONTINUOUS
10
0.185893
20
-0.49416
11
0.186614
21
-0.493898
0
LINE
8
BLACK
6
CONTINUOUS
10
0.186614
20
-0.493898
11
0.225984
21
-0.493898
0
LINE
8
BLACK
6
CONTINUOUS
10
0.225984
20
-0.493898
11
0.226368
21
-0.493965
0
LINE
8
BLACK
6
CONTINUOUS
10
0.20396
20
-0.613184
11
0.203389
21
-0.613421
0
LINE
8
BLACK
6
CONTINUOUS
10
0.203389
20
-0.613421
11
0.202921
21
-0.613826
0
LINE
8
BLACK
6
CONTINUOUS
10
0.202921
20
-0.613826
11
0.197859
21
-0.615513
0
LINE
8
BLACK
6
CONTINUOUS
10
0.197859
20
-0.615513
11
0.197423
21
-0.615482
0
LINE
8
BLACK
6
CONTINUOUS
10
0.197423
20
-0.615482
11
0.197019
21
-0.61565
0
LINE
8
BLACK
6
CONTINUOUS
10
0.197019
20
-0.61565
11
0.193645
21
-0.61565
0
LINE
8
BLACK
6
CONTINUOUS
10
0.193645
20
-0.61565
11
0.193073
21
-0.615413
0
LINE
8
BLACK
6
CONTINUOUS
10
0.193073
20
-0.615413
11
0.192456
21
-0.615369
0
LINE
8
BLACK
6
CONTINUOUS
10
0.192456
20
-0.615369
11
0.189567
21
-0.613924
0
LINE
8
BLACK
6
CONTINUOUS
10
0.189567
20
-0.613924
11
0.189567
21
-0.643504
0
LINE
8
BLACK
6
CONTINUOUS
10
0.189567
20
-0.643504
11
0.223031
21
-0.643504
0
LINE
8
BLACK
6
CONTINUOUS
10
0.223031
20
-0.643504
11
0.223031
21
-0.615358
0
LINE
8
BLACK
6
CONTINUOUS
10
0.223031
20
-0.615358
11
0.222328
21
-0.61565
0
LINE
8
BLACK
6
CONTINUOUS
10
0.222328
20
-0.61565
11
0.220449
21
-0.614871
0
LINE
8
BLACK
6
CONTINUOUS
10
0.220449
20
-0.614871
11
0.219671
21
-0.612992
0
LINE
8
BLACK
6
CONTINUOUS
10
0.219671
20
-0.612992
11
0.219671
21
-0.597473
0
LINE
8
BLACK
6
CONTINUOUS
10
0.219671
20
-0.597473
11
0.20396
21
-0.613184
0
LINE
8
BLACK
6
CONTINUOUS
10
0.228937
20
-0.574606
11
0.228937
21
-0.617913
0
LINE
8
BLACK
6
CONTINUOUS
10
0.228937
20
-0.617913
11
0.242717
21
-0.617913
0
LINE
8
BLACK
6
CONTINUOUS
10
0.242717
20
-0.617913
11
0.242717
21
-0.574606
0
LINE
8
BLACK
6
CONTINUOUS
10
0.242717
20
-0.574606
11
0.228937
21
-0.574606
0
LINE
8
BLACK
6
CONTINUOUS
10
0.169882
20
-0.574606
11
0.169882
21
-0.617913
0
LINE
8
BLACK
6
CONTINUOUS
10
0.169882
20
-0.617913
11
0.183661
21
-0.617913
0
LINE
8
BLACK
6
CONTINUOUS
10
0.183661
20
-0.617913
11
0.183661
21
-0.574606
0
LINE
8
BLACK
6
CONTINUOUS
10
0.183661
20
-0.574606
11
0.169882
21
-0.574606
0
LINE
8
BLACK
6
CONTINUOUS
10
0.222328
20
-0.561656
11
0.208113
21
-0.561656
0
LINE
8
BLACK
6
CONTINUOUS
10
0.208113
20
-0.561656
11
0.208113
21
-0.572497
0
LINE
8
BLACK
6
CONTINUOUS
10
0.208113
20
-0.572497
11
0.207876
21
-0.573069
0
LINE
8
BLACK
6
CONTINUOUS
10
0.207876
20
-0.573069
11
0.207832
21
-0.573686
0
LINE
8
BLACK
6
CONTINUOUS
10
0.207832
20
-0.573686
11
0.206145
21
-0.57706
0
LINE
8
BLACK
6
CONTINUOUS
10
0.206145
20
-0.57706
11
0.205815
21
-0.577347
0
LINE
8
BLACK
6
CONTINUOUS
10
0.205815
20
-0.577347
11
0.205647
21
-0.577751
0
LINE
8
BLACK
6
CONTINUOUS
10
0.205647
20
-0.577751
11
0.20396
21
-0.579438
0
LINE
8
BLACK
6
CONTINUOUS
10
0.20396
20
-0.579438
11
0.203556
21
-0.579606
0
LINE
8
BLACK
6
CONTINUOUS
10
0.203556
20
-0.579606
11
0.203269
21
-0.579936
0
LINE
8
BLACK
6
CONTINUOUS
10
0.203269
20
-0.579936
11
0.199895
21
-0.581623
0
LINE
8
BLACK
6
CONTINUOUS
10
0.199895
20
-0.581623
11
0.199278
21
-0.581667
0
LINE
8
BLACK
6
CONTINUOUS
10
0.199278
20
-0.581667
11
0.198706
21
-0.581904
0
LINE
8
BLACK
6
CONTINUOUS
10
0.198706
20
-0.581904
11
0.193645
21
-0.581904
0
LINE
8
BLACK
6
CONTINUOUS
10
0.193645
20
-0.581904
11
0.193073
21
-0.581667
0
LINE
8
BLACK
6
CONTINUOUS
10
0.193073
20
-0.581667
11
0.192456
21
-0.581623
0
LINE
8
BLACK
6
CONTINUOUS
10
0.192456
20
-0.581623
11
0.189567
21
-0.580179
0
LINE
8
BLACK
6
CONTINUOUS
10
0.189567
20
-0.580179
11
0.189567
21
-0.590378
0
LINE
8
BLACK
6
CONTINUOUS
10
0.189567
20
-0.590378
11
0.19027
21
-0.590087
0
LINE
8
BLACK
6
CONTINUOUS
10
0.19027
20
-0.590087
11
0.192149
21
-0.590866
0
LINE
8
BLACK
6
CONTINUOUS
10
0.192149
20
-0.590866
11
0.192927
21
-0.592745
0
LINE
8
BLACK
6
CONTINUOUS
10
0.192927
20
-0.592745
11
0.192149
21
-0.594624
0
LINE
8
BLACK
6
CONTINUOUS
10
0.192149
20
-0.594624
11
0.190767
21
-0.596006
0
LINE
8
BLACK
6
CONTINUOUS
10
0.190767
20
-0.596006
11
0.189567
21
-0.598406
0
LINE
8
BLACK
6
CONTINUOUS
10
0.189567
20
-0.598406
11
0.189567
21
-0.605644
0
LINE
8
BLACK
6
CONTINUOUS
10
0.189567
20
-0.605644
11
0.190767
21
-0.608043
0
LINE
8
BLACK
6
CONTINUOUS
10
0.190767
20
-0.608043
11
0.191844
21
-0.609121
0
LINE
8
BLACK
6
CONTINUOUS
10
0.191844
20
-0.609121
11
0.194272
21
-0.610335
0
LINE
8
BLACK
6
CONTINUOUS
10
0.194272
20
-0.610335
11
0.196588
21
-0.610335
0
LINE
8
BLACK
6
CONTINUOUS
10
0.196588
20
-0.610335
11
0.200645
21
-0.608982
0
LINE
8
BLACK
6
CONTINUOUS
10
0.200645
20
-0.608982
11
0.220449
21
-0.589178
0
LINE
8
BLACK
6
CONTINUOUS
10
0.220449
20
-0.589178
11
0.222328
21
-0.5884
0
LINE
8
BLACK
6
CONTINUOUS
10
0.222328
20
-0.5884
11
0.223031
21
-0.588691
0
LINE
8
BLACK
6
CONTINUOUS
10
0.223031
20
-0.588691
11
0.223031
21
-0.561365
0
LINE
8
BLACK
6
CONTINUOUS
10
0.223031
20
-0.561365
11
0.222328
21
-0.561656
0
LINE
8
BLACK
6
CONTINUOUS
10
0.189567
20
-0.561656
11
0.189567
21
-0.571898
0
LINE
8
BLACK
6
CONTINUOUS
10
0.189567
20
-0.571898
11
0.190767
21
-0.574298
0
LINE
8
BLACK
6
CONTINUOUS
10
0.190767
20
-0.574298
11
0.191844
21
-0.575375
0
LINE
8
BLACK
6
CONTINUOUS
10
0.191844
20
-0.575375
11
0.194272
21
-0.576589
0
LINE
8
BLACK
6
CONTINUOUS
10
0.194272
20
-0.576589
11
0.198079
21
-0.576589
0
LINE
8
BLACK
6
CONTINUOUS
10
0.198079
20
-0.576589
11
0.200507
21
-0.575375
0
LINE
8
BLACK
6
CONTINUOUS
10
0.200507
20
-0.575375
11
0.201584
21
-0.574298
0
LINE
8
BLACK
6
CONTINUOUS
10
0.201584
20
-0.574298
11
0.202798
21
-0.57187
0
LINE
8
BLACK
6
CONTINUOUS
10
0.202798
20
-0.57187
11
0.202798
21
-0.561656
0
LINE
8
BLACK
6
CONTINUOUS
10
0.202798
20
-0.561656
11
0.189567
21
-0.561656
0
LINE
8
BLACK
6
CONTINUOUS
10
0.228937
20
-0.525394
11
0.228937
21
-0.568701
0
LINE
8
BLACK
6
CONTINUOUS
10
0.228937
20
-0.568701
11
0.242717
21
-0.568701
0
LINE
8
BLACK
6
CONTINUOUS
10
0.242717
20
-0.568701
11
0.242717
21
-0.525394
0
LINE
8
BLACK
6
CONTINUOUS
10
0.242717
20
-0.525394
11
0.228937
21
-0.525394
0
LINE
8
BLACK
6
CONTINUOUS
10
0.169882
20
-0.525394
11
0.169882
21
-0.568701
0
LINE
8
BLACK
6
CONTINUOUS
10
0.169882
20
-0.568701
11
0.183661
21
-0.568701
0
LINE
8
BLACK
6
CONTINUOUS
10
0.183661
20
-0.568701
11
0.183661
21
-0.525394
0
LINE
8
BLACK
6
CONTINUOUS
10
0.183661
20
-0.525394
11
0.169882
21
-0.525394
0
LINE
8
BLACK
6
CONTINUOUS
10
0.222328
20
-0.539722
11
0.189567
21
-0.539722
0
LINE
8
BLACK
6
CONTINUOUS
10
0.189567
20
-0.539722
11
0.189567
21
-0.556341
0
LINE
8
BLACK
6
CONTINUOUS
10
0.189567
20
-0.556341
11
0.222328
21
-0.556341
0
LINE
8
BLACK
6
CONTINUOUS
10
0.222328
20
-0.556341
11
0.223031
21
-0.556633
0
LINE
8
BLACK
6
CONTINUOUS
10
0.223031
20
-0.556633
11
0.223031
21
-0.53943
0
LINE
8
BLACK
6
CONTINUOUS
10
0.223031
20
-0.53943
11
0.222328
21
-0.539722
0
LINE
8
BLACK
6
CONTINUOUS
10
0.189567
20
-0.499803
11
0.189567
21
-0.534407
0
LINE
8
BLACK
6
CONTINUOUS
10
0.189567
20
-0.534407
11
0.222328
21
-0.534407
0
LINE
8
BLACK
6
CONTINUOUS
10
0.222328
20
-0.534407
11
0.223031
21
-0.534698
0
LINE
8
BLACK
6
CONTINUOUS
10
0.223031
20
-0.534698
11
0.223031
21
-0.499803
0
LINE
8
BLACK
6
CONTINUOUS
10
0.223031
20
-0.499803
11
0.189567
21
-0.499803
0
LINE
8
BLACK
6
CONTINUOUS
10
0.290676
20
-0.343471
11
0.291367
21
-0.345369
0
LINE
8
BLACK
6
CONTINUOUS
10
0.291367
20
-0.345369
11
0.291367
21
-0.348041
0
LINE
8
BLACK
6
CONTINUOUS
10
0.291367
20
-0.348041
11
0.309036
21
-0.348041
0
LINE
8
BLACK
6
CONTINUOUS
10
0.309036
20
-0.348041
11
0.310046
21
-0.348219
0
LINE
8
BLACK
6
CONTINUOUS
10
0.310046
20
-0.348219
11
0.310181
21
-0.348332
0
LINE
8
BLACK
6
CONTINUOUS
10
0.310181
20
-0.348332
11
0.310357
21
-0.348353
0
LINE
8
BLACK
6
CONTINUOUS
10
0.310357
20
-0.348353
11
0.314106
21
-0.350227
0
LINE
8
BLACK
6
CONTINUOUS
10
0.314106
20
-0.350227
11
0.31493
21
-0.350838
0
LINE
8
BLACK
6
CONTINUOUS
10
0.31493
20
-0.350838
11
0.315106
21
-0.351244
0
LINE
8
BLACK
6
CONTINUOUS
10
0.315106
20
-0.351244
11
0.315427
21
-0.351548
0
LINE
8
BLACK
6
CONTINUOUS
10
0.315427
20
-0.351548
11
0.317302
21
-0.355297
0
LINE
8
BLACK
6
CONTINUOUS
10
0.317302
20
-0.355297
11
0.317594
21
-0.35628
0
LINE
8
BLACK
6
CONTINUOUS
10
0.317594
20
-0.35628
11
0.317553
21
-0.356452
0
LINE
8
BLACK
6
CONTINUOUS
10
0.317553
20
-0.356452
11
0.317613
21
-0.356618
0
LINE
8
BLACK
6
CONTINUOUS
10
0.317613
20
-0.356618
11
0.317613
21
-0.360367
0
LINE
8
BLACK
6
CONTINUOUS
10
0.317613
20
-0.360367
11
0.317435
21
-0.361377
0
LINE
8
BLACK
6
CONTINUOUS
10
0.317435
20
-0.361377
11
0.316137
21
-0.362925
0
LINE
8
BLACK
6
CONTINUOUS
10
0.316137
20
-0.362925
11
0.314148
21
-0.363275
0
LINE
8
BLACK
6
CONTINUOUS
10
0.314148
20
-0.363275
11
0.312399
21
-0.362265
0
LINE
8
BLACK
6
CONTINUOUS
10
0.312399
20
-0.362265
11
0.311708
21
-0.360367
0
LINE
8
BLACK
6
CONTINUOUS
10
0.311708
20
-0.360367
11
0.311708
21
-0.357315
0
LINE
8
BLACK
6
CONTINUOUS
10
0.311708
20
-0.357315
11
0.310585
21
-0.355069
0
LINE
8
BLACK
6
CONTINUOUS
10
0.310585
20
-0.355069
11
0.308339
21
-0.353946
0
LINE
8
BLACK
6
CONTINUOUS
10
0.308339
20
-0.353946
11
0.291367
21
-0.353946
0
LINE
8
BLACK
6
CONTINUOUS
10
0.291367
20
-0.353946
11
0.291367
21
-0.360367
0
LINE
8
BLACK
6
CONTINUOUS
10
0.291367
20
-0.360367
11
0.291189
21
-0.361377
0
LINE
8
BLACK
6
CONTINUOUS
10
0.291189
20
-0.361377
11
0.28989
21
-0.362925
0
LINE
8
BLACK
6
CONTINUOUS
10
0.28989
20
-0.362925
11
0.287901
21
-0.363275
0
LINE
8
BLACK
6
CONTINUOUS
10
0.287901
20
-0.363275
11
0.286152
21
-0.362265
0
LINE
8
BLACK
6
CONTINUOUS
10
0.286152
20
-0.362265
11
0.285461
21
-0.360367
0
LINE
8
BLACK
6
CONTINUOUS
10
0.285461
20
-0.360367
11
0.285461
21
-0.353946
0
LINE
8
BLACK
6
CONTINUOUS
10
0.285461
20
-0.353946
11
0.275291
21
-0.353946
0
LINE
8
BLACK
6
CONTINUOUS
10
0.275291
20
-0.353946
11
0.274281
21
-0.353768
0
LINE
8
BLACK
6
CONTINUOUS
10
0.274281
20
-0.353768
11
0.272733
21
-0.35247
0
LINE
8
BLACK
6
CONTINUOUS
10
0.272733
20
-0.35247
11
0.272383
21
-0.350481
0
LINE
8
BLACK
6
CONTINUOUS
10
0.272383
20
-0.350481
11
0.273393
21
-0.348732
0
LINE
8
BLACK
6
CONTINUOUS
10
0.273393
20
-0.348732
11
0.275291
21
-0.348041
0
LINE
8
BLACK
6
CONTINUOUS
10
0.275291
20
-0.348041
11
0.285461
21
-0.348041
0
LINE
8
BLACK
6
CONTINUOUS
10
0.285461
20
-0.348041
11
0.285461
21
-0.345369
0
LINE
8
BLACK
6
CONTINUOUS
10
0.285461
20
-0.345369
11
0.285639
21
-0.344359
0
LINE
8
BLACK
6
CONTINUOUS
10
0.285639
20
-0.344359
11
0.286938
21
-0.342812
0
LINE
8
BLACK
6
CONTINUOUS
10
0.286938
20
-0.342812
11
0.288927
21
-0.342461
0
LINE
8
BLACK
6
CONTINUOUS
10
0.288927
20
-0.342461
11
0.290676
21
-0.343471
0
LINE
8
BLACK
6
CONTINUOUS
10
0.315671
20
-0.312598
11
0.317218
21
-0.313897
0
LINE
8
BLACK
6
CONTINUOUS
10
0.317218
20
-0.313897
11
0.317569
21
-0.315886
0
LINE
8
BLACK
6
CONTINUOUS
10
0.317569
20
-0.315886
11
0.316559
21
-0.317635
0
LINE
8
BLACK
6
CONTINUOUS
10
0.316559
20
-0.317635
11
0.314661
21
-0.318326
0
LINE
8
BLACK
6
CONTINUOUS
10
0.314661
20
-0.318326
11
0.293387
21
-0.318326
0
LINE
8
BLACK
6
CONTINUOUS
10
0.293387
20
-0.318326
11
0.292715
21
-0.318997
0
LINE
8
BLACK
6
CONTINUOUS
10
0.292715
20
-0.318997
11
0.291367
21
-0.321694
0
LINE
8
BLACK
6
CONTINUOUS
10
0.291367
20
-0.321694
11
0.291367
21
-0.325925
0
LINE
8
BLACK
6
CONTINUOUS
10
0.291367
20
-0.325925
11
0.29249
21
-0.32817
0
LINE
8
BLACK
6
CONTINUOUS
10
0.29249
20
-0.32817
11
0.294735
21
-0.329293
0
LINE
8
BLACK
6
CONTINUOUS
10
0.294735
20
-0.329293
11
0.314661
21
-0.329293
0
LINE
8
BLACK
6
CONTINUOUS
10
0.314661
20
-0.329293
11
0.315671
21
-0.329471
0
LINE
8
BLACK
6
CONTINUOUS
10
0.315671
20
-0.329471
11
0.317218
21
-0.33077
0
LINE
8
BLACK
6
CONTINUOUS
10
0.317218
20
-0.33077
11
0.317569
21
-0.332759
0
LINE
8
BLACK
6
CONTINUOUS
10
0.317569
20
-0.332759
11
0.316559
21
-0.334508
0
LINE
8
BLACK
6
CONTINUOUS
10
0.316559
20
-0.334508
11
0.314661
21
-0.335199
0
LINE
8
BLACK
6
CONTINUOUS
10
0.314661
20
-0.335199
11
0.294038
21
-0.335199
0
LINE
8
BLACK
6
CONTINUOUS
10
0.294038
20
-0.335199
11
0.293028
21
-0.335021
0
LINE
8
BLACK
6
CONTINUOUS
10
0.293028
20
-0.335021
11
0.292893
21
-0.334907
0
LINE
8
BLACK
6
CONTINUOUS
10
0.292893
20
-0.334907
11
0.292718
21
-0.334887
0
LINE
8
BLACK
6
CONTINUOUS
10
0.292718
20
-0.334887
11
0.288968
21
-0.333012
0
LINE
8
BLACK
6
CONTINUOUS
10
0.288968
20
-0.333012
11
0.288145
21
-0.332401
0
LINE
8
BLACK
6
CONTINUOUS
10
0.288145
20
-0.332401
11
0.287969
21
-0.331996
0
LINE
8
BLACK
6
CONTINUOUS
10
0.287969
20
-0.331996
11
0.287648
21
-0.331692
0
LINE
8
BLACK
6
CONTINUOUS
10
0.287648
20
-0.331692
11
0.285773
21
-0.327942
0
LINE
8
BLACK
6
CONTINUOUS
10
0.285773
20
-0.327942
11
0.285481
21
-0.326959
0
LINE
8
BLACK
6
CONTINUOUS
10
0.285481
20
-0.326959
11
0.285522
21
-0.326788
0
LINE
8
BLACK
6
CONTINUOUS
10
0.285522
20
-0.326788
11
0.285461
21
-0.326622
0
LINE
8
BLACK
6
CONTINUOUS
10
0.285461
20
-0.326622
11
0.285461
21
-0.320997
0
LINE
8
BLACK
6
CONTINUOUS
10
0.285461
20
-0.320997
11
0.285639
21
-0.319987
0
LINE
8
BLACK
6
CONTINUOUS
10
0.285639
20
-0.319987
11
0.285753
21
-0.319852
0
LINE
8
BLACK
6
CONTINUOUS
10
0.285753
20
-0.319852
11
0.285773
21
-0.319677
0
LINE
8
BLACK
6
CONTINUOUS
10
0.285773
20
-0.319677
11
0.286794
21
-0.317636
0
LINE
8
BLACK
6
CONTINUOUS
10
0.286794
20
-0.317636
11
0.285857
21
-0.316849
0
LINE
8
BLACK
6
CONTINUOUS
10
0.285857
20
-0.316849
11
0.285506
21
-0.31486
0
LINE
8
BLACK
6
CONTINUOUS
10
0.285506
20
-0.31486
11
0.286516
21
-0.313111
0
LINE
8
BLACK
6
CONTINUOUS
10
0.286516
20
-0.313111
11
0.288414
21
-0.31242
0
LINE
8
BLACK
6
CONTINUOUS
10
0.288414
20
-0.31242
11
0.314661
21
-0.31242
0
LINE
8
BLACK
6
CONTINUOUS
10
0.314661
20
-0.31242
11
0.315671
21
-0.312598
0
LINE
8
BLACK
6
CONTINUOUS
10
0.228336
20
-0.151446
11
0.228466
21
-0.151423
0
LINE
8
BLACK
6
CONTINUOUS
10
0.228466
20
-0.151423
11
0.228579
21
-0.151488
0
LINE
8
BLACK
6
CONTINUOUS
10
0.228579
20
-0.151488
11
0.228963
21
-0.151556
0
LINE
8
BLACK
6
CONTINUOUS
10
0.228963
20
-0.151556
11
0.22955
21
-0.152049
0
LINE
8
BLACK
6
CONTINUOUS
10
0.22955
20
-0.152049
11
0.230215
21
-0.152433
0
LINE
8
BLACK
6
CONTINUOUS
10
0.230215
20
-0.152433
11
0.230306
21
-0.152683
0
LINE
8
BLACK
6
CONTINUOUS
10
0.230306
20
-0.152683
11
0.23051
21
-0.152854
0
LINE
8
BLACK
6
CONTINUOUS
10
0.23051
20
-0.152854
11
0.230643
21
-0.15361
0
LINE
8
BLACK
6
CONTINUOUS
10
0.230643
20
-0.15361
11
0.230906
21
-0.154331
0
LINE
8
BLACK
6
CONTINUOUS
10
0.230906
20
-0.154331
11
0.230906
21
-0.176969
0
LINE
8
BLACK
6
CONTINUOUS
10
0.230906
20
-0.176969
11
0.247638
21
-0.176969
0
LINE
8
BLACK
6
CONTINUOUS
10
0.247638
20
-0.176969
11
0.248021
21
-0.177036
0
LINE
8
BLACK
6
CONTINUOUS
10
0.248021
20
-0.177036
11
0.248151
21
-0.177013
0
LINE
8
BLACK
6
CONTINUOUS
10
0.248151
20
-0.177013
11
0.248264
21
-0.177079
0
LINE
8
BLACK
6
CONTINUOUS
10
0.248264
20
-0.177079
11
0.248648
21
-0.177147
0
LINE
8
BLACK
6
CONTINUOUS
10
0.248648
20
-0.177147
11
0.249235
21
-0.17764
0
LINE
8
BLACK
6
CONTINUOUS
10
0.249235
20
-0.17764
11
0.2499
21
-0.178023
0
LINE
8
BLACK
6
CONTINUOUS
10
0.2499
20
-0.178023
11
0.249991
21
-0.178274
0
LINE
8
BLACK
6
CONTINUOUS
10
0.249991
20
-0.178274
11
0.250195
21
-0.178445
0
LINE
8
BLACK
6
CONTINUOUS
10
0.250195
20
-0.178445
11
0.250328
21
-0.1792
0
LINE
8
BLACK
6
CONTINUOUS
10
0.250328
20
-0.1792
11
0.250591
21
-0.179921
0
LINE
8
BLACK
6
CONTINUOUS
10
0.250591
20
-0.179921
11
0.250591
21
-0.278346
0
LINE
8
BLACK
6
CONTINUOUS
10
0.250591
20
-0.278346
11
0.250523
21
-0.27873
0
LINE
8
BLACK
6
CONTINUOUS
10
0.250523
20
-0.27873
11
0.250546
21
-0.278859
0
LINE
8
BLACK
6
CONTINUOUS
10
0.250546
20
-0.278859
11
0.25048
21
-0.278973
0
LINE
8
BLACK
6
CONTINUOUS
10
0.25048
20
-0.278973
11
0.250412
21
-0.279356
0
LINE
8
BLACK
6
CONTINUOUS
10
0.250412
20
-0.279356
11
0.249919
21
-0.279944
0
LINE
8
BLACK
6
CONTINUOUS
10
0.249919
20
-0.279944
11
0.249536
21
-0.280608
0
LINE
8
BLACK
6
CONTINUOUS
10
0.249536
20
-0.280608
11
0.249285
21
-0.280699
0
LINE
8
BLACK
6
CONTINUOUS
10
0.249285
20
-0.280699
11
0.249114
21
-0.280904
0
LINE
8
BLACK
6
CONTINUOUS
10
0.249114
20
-0.280904
11
0.248359
21
-0.281037
0
LINE
8
BLACK
6
CONTINUOUS
10
0.248359
20
-0.281037
11
0.247638
21
-0.281299
0
LINE
8
BLACK
6
CONTINUOUS
10
0.247638
20
-0.281299
11
0.230906
21
-0.281299
0
LINE
8
BLACK
6
CONTINUOUS
10
0.230906
20
-0.281299
11
0.230906
21
-0.303937
0
LINE
8
BLACK
6
CONTINUOUS
10
0.230906
20
-0.303937
11
0.230838
21
-0.304321
0
LINE
8
BLACK
6
CONTINUOUS
10
0.230838
20
-0.304321
11
0.230861
21
-0.30445
0
LINE
8
BLACK
6
CONTINUOUS
10
0.230861
20
-0.30445
11
0.230795
21
-0.304563
0
LINE
8
BLACK
6
CONTINUOUS
10
0.230795
20
-0.304563
11
0.230727
21
-0.304947
0
LINE
8
BLACK
6
CONTINUOUS
10
0.230727
20
-0.304947
11
0.230234
21
-0.305535
0
LINE
8
BLACK
6
CONTINUOUS
10
0.230234
20
-0.305535
11
0.229851
21
-0.306199
0
LINE
8
BLACK
6
CONTINUOUS
10
0.229851
20
-0.306199
11
0.2296
21
-0.30629
0
LINE
8
BLACK
6
CONTINUOUS
10
0.2296
20
-0.30629
11
0.229429
21
-0.306494
0
LINE
8
BLACK
6
CONTINUOUS
10
0.229429
20
-0.306494
11
0.228674
21
-0.306627
0
LINE
8
BLACK
6
CONTINUOUS
10
0.228674
20
-0.306627
11
0.227953
21
-0.30689
0
LINE
8
BLACK
6
CONTINUOUS
10
0.227953
20
-0.30689
11
0.188583
21
-0.30689
0
LINE
8
BLACK
6
CONTINUOUS
10
0.188583
20
-0.30689
11
0.188199
21
-0.306822
0
LINE
8
BLACK
6
CONTINUOUS
10
0.188199
20
-0.306822
11
0.18807
21
-0.306845
0
LINE
8
BLACK
6
CONTINUOUS
10
0.18807
20
-0.306845
11
0.187956
21
-0.306779
0
LINE
8
BLACK
6
CONTINUOUS
10
0.187956
20
-0.306779
11
0.187573
21
-0.306712
0
LINE
8
BLACK
6
CONTINUOUS
10
0.187573
20
-0.306712
11
0.186985
21
-0.306219
0
LINE
8
BLACK
6
CONTINUOUS
10
0.186985
20
-0.306219
11
0.186321
21
-0.305835
0
LINE
8
BLACK
6
CONTINUOUS
10
0.186321
20
-0.305835
11
0.18623
21
-0.305585
0
LINE
8
BLACK
6
CONTINUOUS
10
0.18623
20
-0.305585
11
0.186026
21
-0.305413
0
LINE
8
BLACK
6
CONTINUOUS
10
0.186026
20
-0.305413
11
0.185892
21
-0.304658
0
LINE
8
BLACK
6
CONTINUOUS
10
0.185892
20
-0.304658
11
0.18563
21
-0.303937
0
LINE
8
BLACK
6
CONTINUOUS
10
0.18563
20
-0.303937
11
0.18563
21
-0.281299
0
LINE
8
BLACK
6
CONTINUOUS
10
0.18563
20
-0.281299
11
0.168898
21
-0.281299
0
LINE
8
BLACK
6
CONTINUOUS
10
0.168898
20
-0.281299
11
0.168514
21
-0.281232
0
LINE
8
BLACK
6
CONTINUOUS
10
0.168514
20
-0.281232
11
0.168385
21
-0.281254
0
LINE
8
BLACK
6
CONTINUOUS
10
0.168385
20
-0.281254
11
0.168271
21
-0.281189
0
LINE
8
BLACK
6
CONTINUOUS
10
0.168271
20
-0.281189
11
0.167888
21
-0.281121
0
LINE
8
BLACK
6
CONTINUOUS
10
0.167888
20
-0.281121
11
0.1673
21
-0.280628
0
LINE
8
BLACK
6
CONTINUOUS
10
0.1673
20
-0.280628
11
0.166636
21
-0.280244
0
LINE
8
BLACK
6
CONTINUOUS
10
0.166636
20
-0.280244
11
0.166545
21
-0.279994
0
LINE
8
BLACK
6
CONTINUOUS
10
0.166545
20
-0.279994
11
0.16634
21
-0.279823
0
LINE
8
BLACK
6
CONTINUOUS
10
0.16634
20
-0.279823
11
0.166207
21
-0.279067
0
LINE
8
BLACK
6
CONTINUOUS
10
0.166207
20
-0.279067
11
0.165945
21
-0.278346
0
LINE
8
BLACK
6
CONTINUOUS
10
0.165945
20
-0.278346
11
0.165945
21
-0.179921
0
LINE
8
BLACK
6
CONTINUOUS
10
0.165945
20
-0.179921
11
0.166013
21
-0.179538
0
LINE
8
BLACK
6
CONTINUOUS
10
0.166013
20
-0.179538
11
0.16599
21
-0.179409
0
LINE
8
BLACK
6
CONTINUOUS
10
0.16599
20
-0.179409
11
0.166055
21
-0.179295
0
LINE
8
BLACK
6
CONTINUOUS
10
0.166055
20
-0.179295
11
0.166123
21
-0.178911
0
LINE
8
BLACK
6
CONTINUOUS
10
0.166123
20
-0.178911
11
0.166616
21
-0.178324
0
LINE
8
BLACK
6
CONTINUOUS
10
0.166616
20
-0.178324
11
0.167
21
-0.177659
0
LINE
8
BLACK
6
CONTINUOUS
10
0.167
20
-0.177659
11
0.16725
21
-0.177568
0
LINE
8
BLACK
6
CONTINUOUS
10
0.16725
20
-0.177568
11
0.167421
21
-0.177364
0
LINE
8
BLACK
6
CONTINUOUS
10
0.167421
20
-0.177364
11
0.168177
21
-0.177231
0
LINE
8
BLACK
6
CONTINUOUS
10
0.168177
20
-0.177231
11
0.168898
21
-0.176969
0
LINE
8
BLACK
6
CONTINUOUS
10
0.168898
20
-0.176969
11
0.18563
21
-0.176969
0
LINE
8
BLACK
6
CONTINUOUS
10
0.18563
20
-0.176969
11
0.18563
21
-0.154331
0
LINE
8
BLACK
6
CONTINUOUS
10
0.18563
20
-0.154331
11
0.185698
21
-0.153947
0
LINE
8
BLACK
6
CONTINUOUS
10
0.185698
20
-0.153947
11
0.185675
21
-0.153818
0
LINE
8
BLACK
6
CONTINUOUS
10
0.185675
20
-0.153818
11
0.18574
21
-0.153704
0
LINE
8
BLACK
6
CONTINUOUS
10
0.18574
20
-0.153704
11
0.185808
21
-0.153321
0
LINE
8
BLACK
6
CONTINUOUS
10
0.185808
20
-0.153321
11
0.186301
21
-0.152733
0
LINE
8
BLACK
6
CONTINUOUS
10
0.186301
20
-0.152733
11
0.186685
21
-0.152069
0
LINE
8
BLACK
6
CONTINUOUS
10
0.186685
20
-0.152069
11
0.186935
21
-0.151978
0
LINE
8
BLACK
6
CONTINUOUS
10
0.186935
20
-0.151978
11
0.187106
21
-0.151774
0
LINE
8
BLACK
6
CONTINUOUS
10
0.187106
20
-0.151774
11
0.187862
21
-0.15164
0
LINE
8
BLACK
6
CONTINUOUS
10
0.187862
20
-0.15164
11
0.188583
21
-0.151378
0
LINE
8
BLACK
6
CONTINUOUS
10
0.188583
20
-0.151378
11
0.227953
21
-0.151378
0
LINE
8
BLACK
6
CONTINUOUS
10
0.227953
20
-0.151378
11
0.228336
21
-0.151446
0
LINE
8
BLACK
6
CONTINUOUS
10
0.191535
20
-0.26001
11
0.191535
21
-0.300984
0
LINE
8
BLACK
6
CONTINUOUS
10
0.191535
20
-0.300984
11
0.225
21
-0.300984
0
LINE
8
BLACK
6
CONTINUOUS
10
0.225
20
-0.300984
11
0.225
21
-0.269464
0
LINE
8
BLACK
6
CONTINUOUS
10
0.225
20
-0.269464
11
0.224297
21
-0.269755
0
LINE
8
BLACK
6
CONTINUOUS
10
0.224297
20
-0.269755
11
0.215143
21
-0.269755
0
LINE
8
BLACK
6
CONTINUOUS
10
0.215143
20
-0.269755
11
0.215143
21
-0.27216
0
LINE
8
BLACK
6
CONTINUOUS
10
0.215143
20
-0.27216
11
0.214365
21
-0.274039
0
LINE
8
BLACK
6
CONTINUOUS
10
0.214365
20
-0.274039
11
0.212486
21
-0.274817
0
LINE
8
BLACK
6
CONTINUOUS
10
0.212486
20
-0.274817
11
0.210607
21
-0.274039
0
LINE
8
BLACK
6
CONTINUOUS
10
0.210607
20
-0.274039
11
0.209828
21
-0.27216
0
LINE
8
BLACK
6
CONTINUOUS
10
0.209828
20
-0.27216
11
0.209828
21
-0.269755
0
LINE
8
BLACK
6
CONTINUOUS
10
0.209828
20
-0.269755
11
0.200675
21
-0.269755
0
LINE
8
BLACK
6
CONTINUOUS
10
0.200675
20
-0.269755
11
0.198796
21
-0.268977
0
LINE
8
BLACK
6
CONTINUOUS
10
0.198796
20
-0.268977
11
0.198017
21
-0.267098
0
LINE
8
BLACK
6
CONTINUOUS
10
0.198017
20
-0.267098
11
0.198796
21
-0.265219
0
LINE
8
BLACK
6
CONTINUOUS
10
0.198796
20
-0.265219
11
0.200675
21
-0.26444
0
LINE
8
BLACK
6
CONTINUOUS
10
0.200675
20
-0.26444
11
0.209828
21
-0.26444
0
LINE
8
BLACK
6
CONTINUOUS
10
0.209828
20
-0.26444
11
0.209828
21
-0.253912
0
LINE
8
BLACK
6
CONTINUOUS
10
0.209828
20
-0.253912
11
0.191535
21
-0.26001
0
LINE
8
BLACK
6
CONTINUOUS
10
0.230906
20
-0.232087
11
0.230906
21
-0.275394
0
LINE
8
BLACK
6
CONTINUOUS
10
0.230906
20
-0.275394
11
0.244685
21
-0.275394
0
LINE
8
BLACK
6
CONTINUOUS
10
0.244685
20
-0.275394
11
0.244685
21
-0.232087
0
LINE
8
BLACK
6
CONTINUOUS
10
0.244685
20
-0.232087
11
0.230906
21
-0.232087
0
LINE
8
BLACK
6
CONTINUOUS
10
0.17185
20
-0.232087
11
0.17185
21
-0.275394
0
LINE
8
BLACK
6
CONTINUOUS
10
0.17185
20
-0.275394
11
0.18563
21
-0.275394
0
LINE
8
BLACK
6
CONTINUOUS
10
0.18563
20
-0.275394
11
0.18563
21
-0.260625
0
LINE
8
BLACK
6
CONTINUOUS
10
0.18563
20
-0.260625
11
0.184655
21
-0.259502
0
LINE
8
BLACK
6
CONTINUOUS
10
0.184655
20
-0.259502
11
0.1848
21
-0.257473
0
LINE
8
BLACK
6
CONTINUOUS
10
0.1848
20
-0.257473
11
0.18563
21
-0.256753
0
LINE
8
BLACK
6
CONTINUOUS
10
0.18563
20
-0.256753
11
0.18563
21
-0.232087
0
LINE
8
BLACK
6
CONTINUOUS
10
0.18563
20
-0.232087
11
0.17185
21
-0.232087
0
LINE
8
BLACK
6
CONTINUOUS
10
0.224297
20
-0.219137
11
0.210082
21
-0.219137
0
LINE
8
BLACK
6
CONTINUOUS
10
0.210082
20
-0.219137
11
0.210082
21
-0.229977
0
LINE
8
BLACK
6
CONTINUOUS
10
0.210082
20
-0.229977
11
0.209845
21
-0.230549
0
LINE
8
BLACK
6
CONTINUOUS
10
0.209845
20
-0.230549
11
0.209801
21
-0.231166
0
LINE
8
BLACK
6
CONTINUOUS
10
0.209801
20
-0.231166
11
0.208114
21
-0.234541
0
LINE
8
BLACK
6
CONTINUOUS
10
0.208114
20
-0.234541
11
0.207783
21
-0.234827
0
LINE
8
BLACK
6
CONTINUOUS
10
0.207783
20
-0.234827
11
0.207616
21
-0.235231
0
LINE
8
BLACK
6
CONTINUOUS
10
0.207616
20
-0.235231
11
0.205929
21
-0.236918
0
LINE
8
BLACK
6
CONTINUOUS
10
0.205929
20
-0.236918
11
0.205525
21
-0.237086
0
LINE
8
BLACK
6
CONTINUOUS
10
0.205525
20
-0.237086
11
0.205238
21
-0.237416
0
LINE
8
BLACK
6
CONTINUOUS
10
0.205238
20
-0.237416
11
0.201863
21
-0.239104
0
LINE
8
BLACK
6
CONTINUOUS
10
0.201863
20
-0.239104
11
0.201246
21
-0.239147
0
LINE
8
BLACK
6
CONTINUOUS
10
0.201246
20
-0.239147
11
0.200675
21
-0.239384
0
LINE
8
BLACK
6
CONTINUOUS
10
0.200675
20
-0.239384
11
0.195613
21
-0.239384
0
LINE
8
BLACK
6
CONTINUOUS
10
0.195613
20
-0.239384
11
0.195042
21
-0.239147
0
LINE
8
BLACK
6
CONTINUOUS
10
0.195042
20
-0.239147
11
0.194425
21
-0.239104
0
LINE
8
BLACK
6
CONTINUOUS
10
0.194425
20
-0.239104
11
0.191535
21
-0.237659
0
LINE
8
BLACK
6
CONTINUOUS
10
0.191535
20
-0.237659
11
0.191535
21
-0.254407
0
LINE
8
BLACK
6
CONTINUOUS
10
0.191535
20
-0.254407
11
0.211646
21
-0.247704
0
LINE
8
BLACK
6
CONTINUOUS
10
0.211646
20
-0.247704
11
0.212082
21
-0.247735
0
LINE
8
BLACK
6
CONTINUOUS
10
0.212082
20
-0.247735
11
0.212486
21
-0.247567
0
LINE
8
BLACK
6
CONTINUOUS
10
0.212486
20
-0.247567
11
0.213057
21
-0.247804
0
LINE
8
BLACK
6
CONTINUOUS
10
0.213057
20
-0.247804
11
0.213674
21
-0.247848
0
LINE
8
BLACK
6
CONTINUOUS
10
0.213674
20
-0.247848
11
0.213961
21
-0.248178
0
LINE
8
BLACK
6
CONTINUOUS
10
0.213961
20
-0.248178
11
0.214365
21
-0.248346
0
LINE
8
BLACK
6
CONTINUOUS
10
0.214365
20
-0.248346
11
0.214602
21
-0.248917
0
LINE
8
BLACK
6
CONTINUOUS
10
0.214602
20
-0.248917
11
0.215007
21
-0.249385
0
LINE
8
BLACK
6
CONTINUOUS
10
0.215007
20
-0.249385
11
0.214976
21
-0.249821
0
LINE
8
BLACK
6
CONTINUOUS
10
0.214976
20
-0.249821
11
0.215143
21
-0.250225
0
LINE
8
BLACK
6
CONTINUOUS
10
0.215143
20
-0.250225
11
0.215143
21
-0.26444
0
LINE
8
BLACK
6
CONTINUOUS
10
0.215143
20
-0.26444
11
0.224297
21
-0.26444
0
LINE
8
BLACK
6
CONTINUOUS
10
0.224297
20
-0.26444
11
0.225
21
-0.264732
0
LINE
8
BLACK
6
CONTINUOUS
10
0.225
20
-0.264732
11
0.225
21
-0.218845
0
LINE
8
BLACK
6
CONTINUOUS
10
0.225
20
-0.218845
11
0.224297
21
-0.219137
0
LINE
8
BLACK
6
CONTINUOUS
10
0.191535
20
-0.219137
11
0.191535
21
-0.229378
0
LINE
8
BLACK
6
CONTINUOUS
10
0.191535
20
-0.229378
11
0.192735
21
-0.231778
0
LINE
8
BLACK
6
CONTINUOUS
10
0.192735
20
-0.231778
11
0.193813
21
-0.232855
0
LINE
8
BLACK
6
CONTINUOUS
10
0.193813
20
-0.232855
11
0.19624
21
-0.234069
0
LINE
8
BLACK
6
CONTINUOUS
10
0.19624
20
-0.234069
11
0.200048
21
-0.234069
0
LINE
8
BLACK
6
CONTINUOUS
10
0.200048
20
-0.234069
11
0.202475
21
-0.232855
0
LINE
8
BLACK
6
CONTINUOUS
10
0.202475
20
-0.232855
11
0.203553
21
-0.231778
0
LINE
8
BLACK
6
CONTINUOUS
10
0.203553
20
-0.231778
11
0.204767
21
-0.22935
0
LINE
8
BLACK
6
CONTINUOUS
10
0.204767
20
-0.22935
11
0.204767
21
-0.219137
0
LINE
8
BLACK
6
CONTINUOUS
10
0.204767
20
-0.219137
11
0.191535
21
-0.219137
0
LINE
8
BLACK
6
CONTINUOUS
10
0.230906
20
-0.182874
11
0.230906
21
-0.226181
0
LINE
8
BLACK
6
CONTINUOUS
10
0.230906
20
-0.226181
11
0.244685
21
-0.226181
0
LINE
8
BLACK
6
CONTINUOUS
10
0.244685
20
-0.226181
11
0.244685
21
-0.182874
0
LINE
8
BLACK
6
CONTINUOUS
10
0.244685
20
-0.182874
11
0.230906
21
-0.182874
0
LINE
8
BLACK
6
CONTINUOUS
10
0.17185
20
-0.182874
11
0.17185
21
-0.226181
0
LINE
8
BLACK
6
CONTINUOUS
10
0.17185
20
-0.226181
11
0.18563
21
-0.226181
0
LINE
8
BLACK
6
CONTINUOUS
10
0.18563
20
-0.226181
11
0.18563
21
-0.182874
0
LINE
8
BLACK
6
CONTINUOUS
10
0.18563
20
-0.182874
11
0.17185
21
-0.182874
0
LINE
8
BLACK
6
CONTINUOUS
10
0.224297
20
-0.197202
11
0.191535
21
-0.197202
0
LINE
8
BLACK
6
CONTINUOUS
10
0.191535
20
-0.197202
11
0.191535
21
-0.213822
0
LINE
8
BLACK
6
CONTINUOUS
10
0.191535
20
-0.213822
11
0.224297
21
-0.213822
0
LINE
8
BLACK
6
CONTINUOUS
10
0.224297
20
-0.213822
11
0.225
21
-0.214113
0
LINE
8
BLACK
6
CONTINUOUS
10
0.225
20
-0.214113
11
0.225
21
-0.196911
0
LINE
8
BLACK
6
CONTINUOUS
10
0.225
20
-0.196911
11
0.224297
21
-0.197202
0
LINE
8
BLACK
6
CONTINUOUS
10
0.191535
20
-0.157283
11
0.191535
21
-0.191887
0
LINE
8
BLACK
6
CONTINUOUS
10
0.191535
20
-0.191887
11
0.224297
21
-0.191887
0
LINE
8
BLACK
6
CONTINUOUS
10
0.224297
20
-0.191887
11
0.225
21
-0.192178
0
LINE
8
BLACK
6
CONTINUOUS
10
0.225
20
-0.192178
11
0.225
21
-0.157283
0
LINE
8
BLACK
6
CONTINUOUS
10
0.225
20
-0.157283
11
0.191535
21
-0.157283
0
LINE
8
BLACK
6
CONTINUOUS
10
0.277664
20
-0.291922
11
0.27793
21
-0.291899
0
LINE
8
BLACK
6
CONTINUOUS
10
0.27793
20
-0.291899
11
0.278558
21
-0.292339
0
LINE
8
BLACK
6
CONTINUOUS
10
0.278558
20
-0.292339
11
0.279253
21
-0.292663
0
LINE
8
BLACK
6
CONTINUOUS
10
0.279253
20
-0.292663
11
0.281128
21
-0.294537
0
LINE
8
BLACK
6
CONTINUOUS
10
0.281128
20
-0.294537
11
0.281351
21
-0.294856
0
LINE
8
BLACK
6
CONTINUOUS
10
0.281351
20
-0.294856
11
0.281459
21
-0.294932
0
LINE
8
BLACK
6
CONTINUOUS
10
0.281459
20
-0.294932
11
0.281493
21
-0.295059
0
LINE
8
BLACK
6
CONTINUOUS
10
0.281493
20
-0.295059
11
0.281498
21
-0.295065
0
LINE
8
BLACK
6
CONTINUOUS
10
0.281498
20
-0.295065
11
0.281597
21
-0.295149
0
LINE
8
BLACK
6
CONTINUOUS
10
0.281597
20
-0.295149
11
0.281611
21
-0.295227
0
LINE
8
BLACK
6
CONTINUOUS
10
0.281611
20
-0.295227
11
0.281716
21
-0.295378
0
LINE
8
BLACK
6
CONTINUOUS
10
0.281716
20
-0.295378
11
0.281783
21
-0.296142
0
LINE
8
BLACK
6
CONTINUOUS
10
0.281783
20
-0.296142
11
0.281982
21
-0.296883
0
LINE
8
BLACK
6
CONTINUOUS
10
0.281982
20
-0.296883
11
0.281925
21
-0.297005
0
LINE
8
BLACK
6
CONTINUOUS
10
0.281925
20
-0.297005
11
0.281948
21
-0.297138
0
LINE
8
BLACK
6
CONTINUOUS
10
0.281948
20
-0.297138
11
0.28188
21
-0.297255
0
LINE
8
BLACK
6
CONTINUOUS
10
0.28188
20
-0.297255
11
0.281892
21
-0.29739
0
LINE
8
BLACK
6
CONTINUOUS
10
0.281892
20
-0.29739
11
0.281452
21
-0.298018
0
LINE
8
BLACK
6
CONTINUOUS
10
0.281452
20
-0.298018
11
0.281128
21
-0.298713
0
LINE
8
BLACK
6
CONTINUOUS
10
0.281128
20
-0.298713
11
0.279253
21
-0.300588
0
LINE
8
BLACK
6
CONTINUOUS
10
0.279253
20
-0.300588
11
0.278934
21
-0.300811
0
LINE
8
BLACK
6
CONTINUOUS
10
0.278934
20
-0.300811
11
0.278859
21
-0.300919
0
LINE
8
BLACK
6
CONTINUOUS
10
0.278859
20
-0.300919
11
0.278732
21
-0.300953
0
LINE
8
BLACK
6
CONTINUOUS
10
0.278732
20
-0.300953
11
0.278413
21
-0.301176
0
LINE
8
BLACK
6
CONTINUOUS
10
0.278413
20
-0.301176
11
0.277649
21
-0.301243
0
LINE
8
BLACK
6
CONTINUOUS
10
0.277649
20
-0.301243
11
0.276908
21
-0.301442
0
LINE
8
BLACK
6
CONTINUOUS
10
0.276908
20
-0.301442
11
0.276667
21
-0.301329
0
LINE
8
BLACK
6
CONTINUOUS
10
0.276667
20
-0.301329
11
0.276401
21
-0.301352
0
LINE
8
BLACK
6
CONTINUOUS
10
0.276401
20
-0.301352
11
0.275773
21
-0.300912
0
LINE
8
BLACK
6
CONTINUOUS
10
0.275773
20
-0.300912
11
0.275077
21
-0.300588
0
LINE
8
BLACK
6
CONTINUOUS
10
0.275077
20
-0.300588
11
0.273203
21
-0.298713
0
LINE
8
BLACK
6
CONTINUOUS
10
0.273203
20
-0.298713
11
0.272979
21
-0.298394
0
LINE
8
BLACK
6
CONTINUOUS
10
0.272979
20
-0.298394
11
0.272872
21
-0.298319
0
LINE
8
BLACK
6
CONTINUOUS
10
0.272872
20
-0.298319
11
0.272838
21
-0.298192
0
LINE
8
BLACK
6
CONTINUOUS
10
0.272838
20
-0.298192
11
0.272833
21
-0.298185
0
LINE
8
BLACK
6
CONTINUOUS
10
0.272833
20
-0.298185
11
0.272733
21
-0.298102
0
LINE
8
BLACK
6
CONTINUOUS
10
0.272733
20
-0.298102
11
0.27272
21
-0.298023
0
LINE
8
BLACK
6
CONTINUOUS
10
0.27272
20
-0.298023
11
0.272614
21
-0.297873
0
LINE
8
BLACK
6
CONTINUOUS
10
0.272614
20
-0.297873
11
0.272548
21
-0.297109
0
LINE
8
BLACK
6
CONTINUOUS
10
0.272548
20
-0.297109
11
0.272349
21
-0.296368
0
LINE
8
BLACK
6
CONTINUOUS
10
0.272349
20
-0.296368
11
0.272406
21
-0.296246
0
LINE
8
BLACK
6
CONTINUOUS
10
0.272406
20
-0.296246
11
0.272383
21
-0.296113
0
LINE
8
BLACK
6
CONTINUOUS
10
0.272383
20
-0.296113
11
0.27245
21
-0.295996
0
LINE
8
BLACK
6
CONTINUOUS
10
0.27245
20
-0.295996
11
0.272438
21
-0.295861
0
LINE
8
BLACK
6
CONTINUOUS
10
0.272438
20
-0.295861
11
0.272879
21
-0.295233
0
LINE
8
BLACK
6
CONTINUOUS
10
0.272879
20
-0.295233
11
0.273203
21
-0.294537
0
LINE
8
BLACK
6
CONTINUOUS
10
0.273203
20
-0.294537
11
0.275077
21
-0.292663
0
LINE
8
BLACK
6
CONTINUOUS
10
0.275077
20
-0.292663
11
0.275396
21
-0.292439
0
LINE
8
BLACK
6
CONTINUOUS
10
0.275396
20
-0.292439
11
0.275472
21
-0.292332
0
LINE
8
BLACK
6
CONTINUOUS
10
0.275472
20
-0.292332
11
0.275598
21
-0.292298
0
LINE
8
BLACK
6
CONTINUOUS
10
0.275598
20
-0.292298
11
0.275918
21
-0.292074
0
LINE
8
BLACK
6
CONTINUOUS
10
0.275918
20
-0.292074
11
0.276682
21
-0.292008
0
LINE
8
BLACK
6
CONTINUOUS
10
0.276682
20
-0.292008
11
0.277423
21
-0.291809
0
LINE
8
BLACK
6
CONTINUOUS
10
0.277423
20
-0.291809
11
0.277664
21
-0.291922
0
LINE
8
BLACK
6
CONTINUOUS
10
0.315671
20
-0.293851
11
0.317218
21
-0.295149
0
LINE
8
BLACK
6
CONTINUOUS
10
0.317218
20
-0.295149
11
0.317569
21
-0.297138
0
LINE
8
BLACK
6
CONTINUOUS
10
0.317569
20
-0.297138
11
0.316559
21
-0.298887
0
LINE
8
BLACK
6
CONTINUOUS
10
0.316559
20
-0.298887
11
0.314661
21
-0.299578
0
LINE
8
BLACK
6
CONTINUOUS
10
0.314661
20
-0.299578
11
0.288414
21
-0.299578
0
LINE
8
BLACK
6
CONTINUOUS
10
0.288414
20
-0.299578
11
0.287404
21
-0.2994
0
LINE
8
BLACK
6
CONTINUOUS
10
0.287404
20
-0.2994
11
0.285857
21
-0.298102
0
LINE
8
BLACK
6
CONTINUOUS
10
0.285857
20
-0.298102
11
0.285506
21
-0.296113
0
LINE
8
BLACK
6
CONTINUOUS
10
0.285506
20
-0.296113
11
0.286516
21
-0.294363
0
LINE
8
BLACK
6
CONTINUOUS
10
0.286516
20
-0.294363
11
0.288414
21
-0.293673
0
LINE
8
BLACK
6
CONTINUOUS
10
0.288414
20
-0.293673
11
0.314661
21
-0.293673
0
LINE
8
BLACK
6
CONTINUOUS
10
0.314661
20
-0.293673
11
0.315671
21
-0.293851
0
LINE
8
BLACK
6
CONTINUOUS
10
0.686055
20
-0.240184
11
0.686225
21
-0.240173
0
LINE
8
BLACK
6
CONTINUOUS
10
0.686225
20
-0.240173
11
0.686915
21
-0.24068
0
LINE
8
BLACK
6
CONTINUOUS
10
0.686915
20
-0.24068
11
0.687657
21
-0.241109
0
LINE
8
BLACK
6
CONTINUOUS
10
0.687657
20
-0.241109
11
0.687716
21
-0.241269
0
LINE
8
BLACK
6
CONTINUOUS
10
0.687716
20
-0.241269
11
0.687852
21
-0.241369
0
LINE
8
BLACK
6
CONTINUOUS
10
0.687852
20
-0.241369
11
0.69144
21
-0.24675
0
LINE
8
BLACK
6
CONTINUOUS
10
0.69144
20
-0.24675
11
0.694644
21
-0.249954
0
LINE
8
BLACK
6
CONTINUOUS
10
0.694644
20
-0.249954
11
0.697965
21
-0.251615
0
LINE
8
BLACK
6
CONTINUOUS
10
0.697965
20
-0.251615
11
0.698788
21
-0.252226
0
LINE
8
BLACK
6
CONTINUOUS
10
0.698788
20
-0.252226
11
0.699592
21
-0.254079
0
LINE
8
BLACK
6
CONTINUOUS
10
0.699592
20
-0.254079
11
0.699016
21
-0.256015
0
LINE
8
BLACK
6
CONTINUOUS
10
0.699016
20
-0.256015
11
0.69733
21
-0.257128
0
LINE
8
BLACK
6
CONTINUOUS
10
0.69733
20
-0.257128
11
0.695324
21
-0.256897
0
LINE
8
BLACK
6
CONTINUOUS
10
0.695324
20
-0.256897
11
0.691574
21
-0.255022
0
LINE
8
BLACK
6
CONTINUOUS
10
0.691574
20
-0.255022
11
0.690865
21
-0.254496
0
LINE
8
BLACK
6
CONTINUOUS
10
0.690865
20
-0.254496
11
0.690807
21
-0.254469
0
LINE
8
BLACK
6
CONTINUOUS
10
0.690807
20
-0.254469
11
0.688348
21
-0.25201
0
LINE
8
BLACK
6
CONTINUOUS
10
0.688348
20
-0.25201
11
0.688348
21
-0.279424
0
LINE
8
BLACK
6
CONTINUOUS
10
0.688348
20
-0.279424
11
0.696644
21
-0.279424
0
LINE
8
BLACK
6
CONTINUOUS
10
0.696644
20
-0.279424
11
0.697654
21
-0.279602
0
LINE
8
BLACK
6
CONTINUOUS
10
0.697654
20
-0.279602
11
0.699201
21
-0.280901
0
LINE
8
BLACK
6
CONTINUOUS
10
0.699201
20
-0.280901
11
0.699552
21
-0.28289
0
LINE
8
BLACK
6
CONTINUOUS
10
0.699552
20
-0.28289
11
0.698542
21
-0.284639
0
LINE
8
BLACK
6
CONTINUOUS
10
0.698542
20
-0.284639
11
0.696644
21
-0.28533
0
LINE
8
BLACK
6
CONTINUOUS
10
0.696644
20
-0.28533
11
0.674147
21
-0.28533
0
LINE
8
BLACK
6
CONTINUOUS
10
0.674147
20
-0.28533
11
0.673137
21
-0.285152
0
LINE
8
BLACK
6
CONTINUOUS
10
0.673137
20
-0.285152
11
0.67159
21
-0.283854
0
LINE
8
BLACK
6
CONTINUOUS
10
0.67159
20
-0.283854
11
0.671239
21
-0.281864
0
LINE
8
BLACK
6
CONTINUOUS
10
0.671239
20
-0.281864
11
0.672249
21
-0.280115
0
LINE
8
BLACK
6
CONTINUOUS
10
0.672249
20
-0.280115
11
0.674147
21
-0.279424
0
LINE
8
BLACK
6
CONTINUOUS
10
0.674147
20
-0.279424
11
0.682443
21
-0.279424
0
LINE
8
BLACK
6
CONTINUOUS
10
0.682443
20
-0.279424
11
0.682443
21
-0.243007
0
LINE
8
BLACK
6
CONTINUOUS
10
0.682443
20
-0.243007
11
0.682621
21
-0.241997
0
LINE
8
BLACK
6
CONTINUOUS
10
0.682621
20
-0.241997
11
0.68273
21
-0.241867
0
LINE
8
BLACK
6
CONTINUOUS
10
0.68273
20
-0.241867
11
0.682749
21
-0.241698
0
LINE
8
BLACK
6
CONTINUOUS
10
0.682749
20
-0.241698
11
0.683368
21
-0.241106
0
LINE
8
BLACK
6
CONTINUOUS
10
0.683368
20
-0.241106
11
0.683919
21
-0.24045
0
LINE
8
BLACK
6
CONTINUOUS
10
0.683919
20
-0.24045
11
0.684086
21
-0.24042
0
LINE
8
BLACK
6
CONTINUOUS
10
0.684086
20
-0.24042
11
0.684209
21
-0.240303
0
LINE
8
BLACK
6
CONTINUOUS
10
0.684209
20
-0.240303
11
0.685064
21
-0.240248
0
LINE
8
BLACK
6
CONTINUOUS
10
0.685064
20
-0.240248
11
0.685908
21
-0.240099
0
LINE
8
BLACK
6
CONTINUOUS
10
0.685908
20
-0.240099
11
0.686055
21
-0.240184
0
LINE
8
BLACK
6
CONTINUOUS
10
0.77077
20
-0.240232
11
0.772317
21
-0.241531
0
LINE
8
BLACK
6
CONTINUOUS
10
0.772317
20
-0.241531
11
0.772668
21
-0.24352
0
LINE
8
BLACK
6
CONTINUOUS
10
0.772668
20
-0.24352
11
0.771658
21
-0.245269
0
LINE
8
BLACK
6
CONTINUOUS
10
0.771658
20
-0.245269
11
0.76976
21
-0.24596
0
LINE
8
BLACK
6
CONTINUOUS
10
0.76976
20
-0.24596
11
0.761464
21
-0.24596
0
LINE
8
BLACK
6
CONTINUOUS
10
0.761464
20
-0.24596
11
0.761464
21
-0.282377
0
LINE
8
BLACK
6
CONTINUOUS
10
0.761464
20
-0.282377
11
0.761286
21
-0.283387
0
LINE
8
BLACK
6
CONTINUOUS
10
0.761286
20
-0.283387
11
0.759988
21
-0.284934
0
LINE
8
BLACK
6
CONTINUOUS
10
0.759988
20
-0.284934
11
0.757999
21
-0.285285
0
LINE
8
BLACK
6
CONTINUOUS
10
0.757999
20
-0.285285
11
0.756249
21
-0.284275
0
LINE
8
BLACK
6
CONTINUOUS
10
0.756249
20
-0.284275
11
0.755559
21
-0.282377
0
LINE
8
BLACK
6
CONTINUOUS
10
0.755559
20
-0.282377
11
0.755559
21
-0.24596
0
LINE
8
BLACK
6
CONTINUOUS
10
0.755559
20
-0.24596
11
0.747263
21
-0.24596
0
LINE
8
BLACK
6
CONTINUOUS
10
0.747263
20
-0.24596
11
0.746253
21
-0.245782
0
LINE
8
BLACK
6
CONTINUOUS
10
0.746253
20
-0.245782
11
0.744706
21
-0.244483
0
LINE
8
BLACK
6
CONTINUOUS
10
0.744706
20
-0.244483
11
0.744355
21
-0.242494
0
LINE
8
BLACK
6
CONTINUOUS
10
0.744355
20
-0.242494
11
0.745365
21
-0.240745
0
LINE
8
BLACK
6
CONTINUOUS
10
0.745365
20
-0.240745
11
0.747263
21
-0.240054
0
LINE
8
BLACK
6
CONTINUOUS
10
0.747263
20
-0.240054
11
0.76976
21
-0.240054
0
LINE
8
BLACK
6
CONTINUOUS
10
0.76976
20
-0.240054
11
0.77077
21
-0.240232
0
LINE
8
BLACK
6
CONTINUOUS
10
0.734523
20
-0.240122
11
0.734652
21
-0.240099
0
LINE
8
BLACK
6
CONTINUOUS
10
0.734652
20
-0.240099
11
0.734766
21
-0.240165
0
LINE
8
BLACK
6
CONTINUOUS
10
0.734766
20
-0.240165
11
0.735149
21
-0.240232
0
LINE
8
BLACK
6
CONTINUOUS
10
0.735149
20
-0.240232
11
0.735737
21
-0.240726
0
LINE
8
BLACK
6
CONTINUOUS
10
0.735737
20
-0.240726
11
0.736401
21
-0.241109
0
LINE
8
BLACK
6
CONTINUOUS
10
0.736401
20
-0.241109
11
0.736492
21
-0.241359
0
LINE
8
BLACK
6
CONTINUOUS
10
0.736492
20
-0.241359
11
0.736697
21
-0.241531
0
LINE
8
BLACK
6
CONTINUOUS
10
0.736697
20
-0.241531
11
0.73683
21
-0.242286
0
LINE
8
BLACK
6
CONTINUOUS
10
0.73683
20
-0.242286
11
0.737092
21
-0.243007
0
LINE
8
BLACK
6
CONTINUOUS
10
0.737092
20
-0.243007
11
0.737092
21
-0.282377
0
LINE
8
BLACK
6
CONTINUOUS
10
0.737092
20
-0.282377
11
0.736914
21
-0.283387
0
LINE
8
BLACK
6
CONTINUOUS
10
0.736914
20
-0.283387
11
0.735616
21
-0.284934
0
LINE
8
BLACK
6
CONTINUOUS
10
0.735616
20
-0.284934
11
0.733627
21
-0.285285
0
LINE
8
BLACK
6
CONTINUOUS
10
0.733627
20
-0.285285
11
0.731878
21
-0.284275
0
LINE
8
BLACK
6
CONTINUOUS
10
0.731878
20
-0.284275
11
0.731187
21
-0.282377
0
LINE
8
BLACK
6
CONTINUOUS
10
0.731187
20
-0.282377
11
0.731187
21
-0.266582
0
LINE
8
BLACK
6
CONTINUOUS
10
0.731187
20
-0.266582
11
0.719141
21
-0.266582
0
LINE
8
BLACK
6
CONTINUOUS
10
0.719141
20
-0.266582
11
0.718131
21
-0.266404
0
LINE
8
BLACK
6
CONTINUOUS
10
0.718131
20
-0.266404
11
0.717996
21
-0.266291
0
LINE
8
BLACK
6
CONTINUOUS
10
0.717996
20
-0.266291
11
0.717821
21
-0.266271
0
LINE
8
BLACK
6
CONTINUOUS
10
0.717821
20
-0.266271
11
0.714071
21
-0.264396
0
LINE
8
BLACK
6
CONTINUOUS
10
0.714071
20
-0.264396
11
0.713362
21
-0.26387
0
LINE
8
BLACK
6
CONTINUOUS
10
0.713362
20
-0.26387
11
0.713304
21
-0.263843
0
LINE
8
BLACK
6
CONTINUOUS
10
0.713304
20
-0.263843
11
0.711429
21
-0.261968
0
LINE
8
BLACK
6
CONTINUOUS
10
0.711429
20
-0.261968
11
0.710923
21
-0.261245
0
LINE
8
BLACK
6
CONTINUOUS
10
0.710923
20
-0.261245
11
0.710876
21
-0.261201
0
LINE
8
BLACK
6
CONTINUOUS
10
0.710876
20
-0.261201
11
0.709001
21
-0.257451
0
LINE
8
BLACK
6
CONTINUOUS
10
0.709001
20
-0.257451
11
0.708709
21
-0.256468
0
LINE
8
BLACK
6
CONTINUOUS
10
0.708709
20
-0.256468
11
0.70875
21
-0.256296
0
LINE
8
BLACK
6
CONTINUOUS
10
0.70875
20
-0.256296
11
0.70869
21
-0.25613
0
LINE
8
BLACK
6
CONTINUOUS
10
0.70869
20
-0.25613
11
0.70869
21
-0.250506
0
LINE
8
BLACK
6
CONTINUOUS
10
0.70869
20
-0.250506
11
0.708868
21
-0.249496
0
LINE
8
BLACK
6
CONTINUOUS
10
0.708868
20
-0.249496
11
0.708981
21
-0.249361
0
LINE
8
BLACK
6
CONTINUOUS
10
0.708981
20
-0.249361
11
0.709001
21
-0.249186
0
LINE
8
BLACK
6
CONTINUOUS
10
0.709001
20
-0.249186
11
0.710876
21
-0.245436
0
LINE
8
BLACK
6
CONTINUOUS
10
0.710876
20
-0.245436
11
0.711402
21
-0.244727
0
LINE
8
BLACK
6
CONTINUOUS
10
0.711402
20
-0.244727
11
0.711429
21
-0.244669
0
LINE
8
BLACK
6
CONTINUOUS
10
0.711429
20
-0.244669
11
0.713304
21
-0.242794
0
LINE
8
BLACK
6
CONTINUOUS
10
0.713304
20
-0.242794
11
0.714027
21
-0.242288
0
LINE
8
BLACK
6
CONTINUOUS
10
0.714027
20
-0.242288
11
0.714071
21
-0.242241
0
LINE
8
BLACK
6
CONTINUOUS
10
0.714071
20
-0.242241
11
0.717821
21
-0.240366
0
LINE
8
BLACK
6
CONTINUOUS
10
0.717821
20
-0.240366
11
0.718804
21
-0.240074
0
LINE
8
BLACK
6
CONTINUOUS
10
0.718804
20
-0.240074
11
0.718975
21
-0.240115
0
LINE
8
BLACK
6
CONTINUOUS
10
0.718975
20
-0.240115
11
0.719141
21
-0.240054
0
LINE
8
BLACK
6
CONTINUOUS
10
0.719141
20
-0.240054
11
0.734139
21
-0.240054
0
LINE
8
BLACK
6
CONTINUOUS
10
0.734139
20
-0.240054
11
0.734523
21
-0.240122
0
LINE
8
BLACK
6
CONTINUOUS
10
0.719838
20
-0.24596
11
0.717141
21
-0.247309
0
LINE
8
BLACK
6
CONTINUOUS
10
0.717141
20
-0.247309
11
0.715944
21
-0.248506
0
LINE
8
BLACK
6
CONTINUOUS
10
0.715944
20
-0.248506
11
0.714595
21
-0.251203
0
LINE
8
BLACK
6
CONTINUOUS
10
0.714595
20
-0.251203
11
0.714595
21
-0.255433
0
LINE
8
BLACK
6
CONTINUOUS
10
0.714595
20
-0.255433
11
0.715944
21
-0.258131
0
LINE
8
BLACK
6
CONTINUOUS
10
0.715944
20
-0.258131
11
0.717141
21
-0.259328
0
LINE
8
BLACK
6
CONTINUOUS
10
0.717141
20
-0.259328
11
0.719838
21
-0.260677
0
LINE
8
BLACK
6
CONTINUOUS
10
0.719838
20
-0.260677
11
0.731187
21
-0.260677
0
LINE
8
BLACK
6
CONTINUOUS
10
0.731187
20
-0.260677
11
0.731187
21
-0.24596
0
LINE
8
BLACK
6
CONTINUOUS
10
0.731187
20
-0.24596
11
0.719838
21
-0.24596
0
LINE
8
BLACK
6
CONTINUOUS
10
0.308171
20
-0.256355
11
0.308307
21
-0.256469
0
LINE
8
BLACK
6
CONTINUOUS
10
0.308307
20
-0.256469
11
0.308482
21
-0.256489
0
LINE
8
BLACK
6
CONTINUOUS
10
0.308482
20
-0.256489
11
0.312232
21
-0.258364
0
LINE
8
BLACK
6
CONTINUOUS
10
0.312232
20
-0.258364
11
0.312941
21
-0.25889
0
LINE
8
BLACK
6
CONTINUOUS
10
0.312941
20
-0.25889
11
0.312999
21
-0.258917
0
LINE
8
BLACK
6
CONTINUOUS
10
0.312999
20
-0.258917
11
0.314874
21
-0.260792
0
LINE
8
BLACK
6
CONTINUOUS
10
0.314874
20
-0.260792
11
0.31538
21
-0.261515
0
LINE
8
BLACK
6
CONTINUOUS
10
0.31538
20
-0.261515
11
0.315427
21
-0.261559
0
LINE
8
BLACK
6
CONTINUOUS
10
0.315427
20
-0.261559
11
0.317302
21
-0.265309
0
LINE
8
BLACK
6
CONTINUOUS
10
0.317302
20
-0.265309
11
0.317594
21
-0.266292
0
LINE
8
BLACK
6
CONTINUOUS
10
0.317594
20
-0.266292
11
0.317553
21
-0.266463
0
LINE
8
BLACK
6
CONTINUOUS
10
0.317553
20
-0.266463
11
0.317613
21
-0.266629
0
LINE
8
BLACK
6
CONTINUOUS
10
0.317613
20
-0.266629
11
0.317613
21
-0.272253
0
LINE
8
BLACK
6
CONTINUOUS
10
0.317613
20
-0.272253
11
0.317435
21
-0.273263
0
LINE
8
BLACK
6
CONTINUOUS
10
0.317435
20
-0.273263
11
0.317322
21
-0.273399
0
LINE
8
BLACK
6
CONTINUOUS
10
0.317322
20
-0.273399
11
0.317302
21
-0.273574
0
LINE
8
BLACK
6
CONTINUOUS
10
0.317302
20
-0.273574
11
0.315427
21
-0.277324
0
LINE
8
BLACK
6
CONTINUOUS
10
0.315427
20
-0.277324
11
0.314901
21
-0.278033
0
LINE
8
BLACK
6
CONTINUOUS
10
0.314901
20
-0.278033
11
0.314874
21
-0.278091
0
LINE
8
BLACK
6
CONTINUOUS
10
0.314874
20
-0.278091
11
0.312999
21
-0.279966
0
LINE
8
BLACK
6
CONTINUOUS
10
0.312999
20
-0.279966
11
0.312276
21
-0.280472
0
LINE
8
BLACK
6
CONTINUOUS
10
0.312276
20
-0.280472
11
0.312232
21
-0.280519
0
LINE
8
BLACK
6
CONTINUOUS
10
0.312232
20
-0.280519
11
0.308482
21
-0.282394
0
LINE
8
BLACK
6
CONTINUOUS
10
0.308482
20
-0.282394
11
0.307499
21
-0.282686
0
LINE
8
BLACK
6
CONTINUOUS
10
0.307499
20
-0.282686
11
0.307327
21
-0.282645
0
LINE
8
BLACK
6
CONTINUOUS
10
0.307327
20
-0.282645
11
0.307162
21
-0.282705
0
LINE
8
BLACK
6
CONTINUOUS
10
0.307162
20
-0.282705
11
0.295913
21
-0.282705
0
LINE
8
BLACK
6
CONTINUOUS
10
0.295913
20
-0.282705
11
0.294903
21
-0.282527
0
LINE
8
BLACK
6
CONTINUOUS
10
0.294903
20
-0.282527
11
0.294768
21
-0.282414
0
LINE
8
BLACK
6
CONTINUOUS
10
0.294768
20
-0.282414
11
0.294592
21
-0.282394
0
LINE
8
BLACK
6
CONTINUOUS
10
0.294592
20
-0.282394
11
0.290843
21
-0.280519
0
LINE
8
BLACK
6
CONTINUOUS
10
0.290843
20
-0.280519
11
0.290134
21
-0.279993
0
LINE
8
BLACK
6
CONTINUOUS
10
0.290134
20
-0.279993
11
0.290076
21
-0.279966
0
LINE
8
BLACK
6
CONTINUOUS
10
0.290076
20
-0.279966
11
0.288201
21
-0.278091
0
LINE
8
BLACK
6
CONTINUOUS
10
0.288201
20
-0.278091
11
0.287694
21
-0.277368
0
LINE
8
BLACK
6
CONTINUOUS
10
0.287694
20
-0.277368
11
0.287648
21
-0.277324
0
LINE
8
BLACK
6
CONTINUOUS
10
0.287648
20
-0.277324
11
0.285773
21
-0.273574
0
LINE
8
BLACK
6
CONTINUOUS
10
0.285773
20
-0.273574
11
0.285481
21
-0.272591
0
LINE
8
BLACK
6
CONTINUOUS
10
0.285481
20
-0.272591
11
0.285522
21
-0.272419
0
LINE
8
BLACK
6
CONTINUOUS
10
0.285522
20
-0.272419
11
0.285461
21
-0.272253
0
LINE
8
BLACK
6
CONTINUOUS
10
0.285461
20
-0.272253
11
0.285461
21
-0.266629
0
LINE
8
BLACK
6
CONTINUOUS
10
0.285461
20
-0.266629
11
0.285639
21
-0.265619
0
LINE
8
BLACK
6
CONTINUOUS
10
0.285639
20
-0.265619
11
0.285753
21
-0.265484
0
LINE
8
BLACK
6
CONTINUOUS
10
0.285753
20
-0.265484
11
0.285773
21
-0.265309
0
LINE
8
BLACK
6
CONTINUOUS
10
0.285773
20
-0.265309
11
0.287648
21
-0.261559
0
LINE
8
BLACK
6
CONTINUOUS
10
0.287648
20
-0.261559
11
0.288174
21
-0.26085
0
LINE
8
BLACK
6
CONTINUOUS
10
0.288174
20
-0.26085
11
0.288201
21
-0.260792
0
LINE
8
BLACK
6
CONTINUOUS
10
0.288201
20
-0.260792
11
0.290076
21
-0.258917
0
LINE
8
BLACK
6
CONTINUOUS
10
0.290076
20
-0.258917
11
0.290799
21
-0.258411
0
LINE
8
BLACK
6
CONTINUOUS
10
0.290799
20
-0.258411
11
0.290843
21
-0.258364
0
LINE
8
BLACK
6
CONTINUOUS
10
0.290843
20
-0.258364
11
0.294592
21
-0.256489
0
LINE
8
BLACK
6
CONTINUOUS
10
0.294592
20
-0.256489
11
0.295575
21
-0.256197
0
LINE
8
BLACK
6
CONTINUOUS
10
0.295575
20
-0.256197
11
0.295747
21
-0.256238
0
LINE
8
BLACK
6
CONTINUOUS
10
0.295747
20
-0.256238
11
0.295913
21
-0.256177
0
LINE
8
BLACK
6
CONTINUOUS
10
0.295913
20
-0.256177
11
0.307162
21
-0.256177
0
LINE
8
BLACK
6
CONTINUOUS
10
0.307162
20
-0.256177
11
0.308171
21
-0.256355
0
LINE
8
BLACK
6
CONTINUOUS
10
0.29661
20
-0.262083
11
0.293913
21
-0.263432
0
LINE
8
BLACK
6
CONTINUOUS
10
0.293913
20
-0.263432
11
0.292715
21
-0.264629
0
LINE
8
BLACK
6
CONTINUOUS
10
0.292715
20
-0.264629
11
0.291367
21
-0.267326
0
LINE
8
BLACK
6
CONTINUOUS
10
0.291367
20
-0.267326
11
0.291367
21
-0.271556
0
LINE
8
BLACK
6
CONTINUOUS
10
0.291367
20
-0.271556
11
0.292715
21
-0.274254
0
LINE
8
BLACK
6
CONTINUOUS
10
0.292715
20
-0.274254
11
0.293913
21
-0.275451
0
LINE
8
BLACK
6
CONTINUOUS
10
0.293913
20
-0.275451
11
0.29661
21
-0.2768
0
LINE
8
BLACK
6
CONTINUOUS
10
0.29661
20
-0.2768
11
0.306465
21
-0.2768
0
LINE
8
BLACK
6
CONTINUOUS
10
0.306465
20
-0.2768
11
0.309162
21
-0.275451
0
LINE
8
BLACK
6
CONTINUOUS
10
0.309162
20
-0.275451
11
0.310359
21
-0.274254
0
LINE
8
BLACK
6
CONTINUOUS
10
0.310359
20
-0.274254
11
0.311708
21
-0.271556
0
LINE
8
BLACK
6
CONTINUOUS
10
0.311708
20
-0.271556
11
0.311708
21
-0.267326
0
LINE
8
BLACK
6
CONTINUOUS
10
0.311708
20
-0.267326
11
0.310359
21
-0.264629
0
LINE
8
BLACK
6
CONTINUOUS
10
0.310359
20
-0.264629
11
0.309162
21
-0.263432
0
LINE
8
BLACK
6
CONTINUOUS
10
0.309162
20
-0.263432
11
0.306465
21
-0.262083
0
LINE
8
BLACK
6
CONTINUOUS
10
0.306465
20
-0.262083
11
0.29661
21
-0.262083
0
LINE
8
BLACK
6
CONTINUOUS
10
0.315671
20
-0.21886
11
0.317218
21
-0.220158
0
LINE
8
BLACK
6
CONTINUOUS
10
0.317218
20
-0.220158
11
0.317569
21
-0.222148
0
LINE
8
BLACK
6
CONTINUOUS
10
0.317569
20
-0.222148
11
0.316559
21
-0.223897
0
LINE
8
BLACK
6
CONTINUOUS
10
0.316559
20
-0.223897
11
0.314661
21
-0.224588
0
LINE
8
BLACK
6
CONTINUOUS
10
0.314661
20
-0.224588
11
0.298866
21
-0.224588
0
LINE
8
BLACK
6
CONTINUOUS
10
0.298866
20
-0.224588
11
0.298866
21
-0.236633
0
LINE
8
BLACK
6
CONTINUOUS
10
0.298866
20
-0.236633
11
0.298688
21
-0.237643
0
LINE
8
BLACK
6
CONTINUOUS
10
0.298688
20
-0.237643
11
0.298574
21
-0.237778
0
LINE
8
BLACK
6
CONTINUOUS
10
0.298574
20
-0.237778
11
0.298554
21
-0.237953
0
LINE
8
BLACK
6
CONTINUOUS
10
0.298554
20
-0.237953
11
0.296679
21
-0.241703
0
LINE
8
BLACK
6
CONTINUOUS
10
0.296679
20
-0.241703
11
0.296153
21
-0.242412
0
LINE
8
BLACK
6
CONTINUOUS
10
0.296153
20
-0.242412
11
0.296126
21
-0.24247
0
LINE
8
BLACK
6
CONTINUOUS
10
0.296126
20
-0.24247
11
0.294251
21
-0.244345
0
LINE
8
BLACK
6
CONTINUOUS
10
0.294251
20
-0.244345
11
0.293528
21
-0.244851
0
LINE
8
BLACK
6
CONTINUOUS
10
0.293528
20
-0.244851
11
0.293484
21
-0.244898
0
LINE
8
BLACK
6
CONTINUOUS
10
0.293484
20
-0.244898
11
0.289734
21
-0.246773
0
LINE
8
BLACK
6
CONTINUOUS
10
0.289734
20
-0.246773
11
0.288751
21
-0.247065
0
LINE
8
BLACK
6
CONTINUOUS
10
0.288751
20
-0.247065
11
0.28858
21
-0.247024
0
LINE
8
BLACK
6
CONTINUOUS
10
0.28858
20
-0.247024
11
0.288414
21
-0.247085
0
LINE
8
BLACK
6
CONTINUOUS
10
0.288414
20
-0.247085
11
0.28279
21
-0.247085
0
LINE
8
BLACK
6
CONTINUOUS
10
0.28279
20
-0.247085
11
0.28178
21
-0.246907
0
LINE
8
BLACK
6
CONTINUOUS
10
0.28178
20
-0.246907
11
0.281644
21
-0.246793
0
LINE
8
BLACK
6
CONTINUOUS
10
0.281644
20
-0.246793
11
0.281469
21
-0.246773
0
LINE
8
BLACK
6
CONTINUOUS
10
0.281469
20
-0.246773
11
0.27772
21
-0.244898
0
LINE
8
BLACK
6
CONTINUOUS
10
0.27772
20
-0.244898
11
0.277011
21
-0.244372
0
LINE
8
BLACK
6
CONTINUOUS
10
0.277011
20
-0.244372
11
0.276952
21
-0.244345
0
LINE
8
BLACK
6
CONTINUOUS
10
0.276952
20
-0.244345
11
0.275077
21
-0.24247
0
LINE
8
BLACK
6
CONTINUOUS
10
0.275077
20
-0.24247
11
0.274571
21
-0.241747
0
LINE
8
BLACK
6
CONTINUOUS
10
0.274571
20
-0.241747
11
0.274524
21
-0.241703
0
LINE
8
BLACK
6
CONTINUOUS
10
0.274524
20
-0.241703
11
0.27265
21
-0.237953
0
LINE
8
BLACK
6
CONTINUOUS
10
0.27265
20
-0.237953
11
0.272357
21
-0.236971
0
LINE
8
BLACK
6
CONTINUOUS
10
0.272357
20
-0.236971
11
0.272398
21
-0.236799
0
LINE
8
BLACK
6
CONTINUOUS
10
0.272398
20
-0.236799
11
0.272338
21
-0.236633
0
LINE
8
BLACK
6
CONTINUOUS
10
0.272338
20
-0.236633
11
0.272338
21
-0.221635
0
LINE
8
BLACK
6
CONTINUOUS
10
0.272338
20
-0.221635
11
0.272405
21
-0.221251
0
LINE
8
BLACK
6
CONTINUOUS
10
0.272405
20
-0.221251
11
0.272383
21
-0.221122
0
LINE
8
BLACK
6
CONTINUOUS
10
0.272383
20
-0.221122
11
0.272448
21
-0.221008
0
LINE
8
BLACK
6
CONTINUOUS
10
0.272448
20
-0.221008
11
0.272516
21
-0.220625
0
LINE
8
BLACK
6
CONTINUOUS
10
0.272516
20
-0.220625
11
0.273009
21
-0.220037
0
LINE
8
BLACK
6
CONTINUOUS
10
0.273009
20
-0.220037
11
0.273393
21
-0.219373
0
LINE
8
BLACK
6
CONTINUOUS
10
0.273393
20
-0.219373
11
0.273643
21
-0.219282
0
LINE
8
BLACK
6
CONTINUOUS
10
0.273643
20
-0.219282
11
0.273814
21
-0.219078
0
LINE
8
BLACK
6
CONTINUOUS
10
0.273814
20
-0.219078
11
0.27457
21
-0.218944
0
LINE
8
BLACK
6
CONTINUOUS
10
0.27457
20
-0.218944
11
0.275291
21
-0.218682
0
LINE
8
BLACK
6
CONTINUOUS
10
0.275291
20
-0.218682
11
0.314661
21
-0.218682
0
LINE
8
BLACK
6
CONTINUOUS
10
0.314661
20
-0.218682
11
0.315671
21
-0.21886
0
LINE
8
BLACK
6
CONTINUOUS
10
0.278243
20
-0.224588
11
0.278243
21
-0.235936
0
LINE
8
BLACK
6
CONTINUOUS
10
0.278243
20
-0.235936
11
0.279592
21
-0.238633
0
LINE
8
BLACK
6
CONTINUOUS
10
0.279592
20
-0.238633
11
0.280789
21
-0.23983
0
LINE
8
BLACK
6
CONTINUOUS
10
0.280789
20
-0.23983
11
0.283487
21
-0.241179
0
LINE
8
BLACK
6
CONTINUOUS
10
0.283487
20
-0.241179
11
0.287717
21
-0.241179
0
LINE
8
BLACK
6
CONTINUOUS
10
0.287717
20
-0.241179
11
0.290414
21
-0.23983
0
LINE
8
BLACK
6
CONTINUOUS
10
0.290414
20
-0.23983
11
0.291611
21
-0.238633
0
LINE
8
BLACK
6
CONTINUOUS
10
0.291611
20
-0.238633
11
0.29296
21
-0.235936
0
LINE
8
BLACK
6
CONTINUOUS
10
0.29296
20
-0.235936
11
0.29296
21
-0.224588
0
LINE
8
BLACK
6
CONTINUOUS
10
0.29296
20
-0.224588
11
0.278243
21
-0.224588
0
LINE
8
BLACK
6
CONTINUOUS
10
0.290676
20
-0.191615
11
0.291367
21
-0.193513
0
LINE
8
BLACK
6
CONTINUOUS
10
0.291367
20
-0.193513
11
0.291367
21
-0.196185
0
LINE
8
BLACK
6
CONTINUOUS
10
0.291367
20
-0.196185
11
0.309036
21
-0.196185
0
LINE
8
BLACK
6
CONTINUOUS
10
0.309036
20
-0.196185
11
0.310046
21
-0.196363
0
LINE
8
BLACK
6
CONTINUOUS
10
0.310046
20
-0.196363
11
0.310181
21
-0.196476
0
LINE
8
BLACK
6
CONTINUOUS
10
0.310181
20
-0.196476
11
0.310357
21
-0.196497
0
LINE
8
BLACK
6
CONTINUOUS
10
0.310357
20
-0.196497
11
0.314106
21
-0.198371
0
LINE
8
BLACK
6
CONTINUOUS
10
0.314106
20
-0.198371
11
0.31493
21
-0.198982
0
LINE
8
BLACK
6
CONTINUOUS
10
0.31493
20
-0.198982
11
0.315106
21
-0.199388
0
LINE
8
BLACK
6
CONTINUOUS
10
0.315106
20
-0.199388
11
0.315427
21
-0.199692
0
LINE
8
BLACK
6
CONTINUOUS
10
0.315427
20
-0.199692
11
0.317302
21
-0.203441
0
LINE
8
BLACK
6
CONTINUOUS
10
0.317302
20
-0.203441
11
0.317594
21
-0.204424
0
LINE
8
BLACK
6
CONTINUOUS
10
0.317594
20
-0.204424
11
0.317553
21
-0.204596
0
LINE
8
BLACK
6
CONTINUOUS
10
0.317553
20
-0.204596
11
0.317613
21
-0.204762
0
LINE
8
BLACK
6
CONTINUOUS
10
0.317613
20
-0.204762
11
0.317613
21
-0.208511
0
LINE
8
BLACK
6
CONTINUOUS
10
0.317613
20
-0.208511
11
0.317435
21
-0.209521
0
LINE
8
BLACK
6
CONTINUOUS
10
0.317435
20
-0.209521
11
0.316137
21
-0.211069
0
LINE
8
BLACK
6
CONTINUOUS
10
0.316137
20
-0.211069
11
0.314148
21
-0.211419
0
LINE
8
BLACK
6
CONTINUOUS
10
0.314148
20
-0.211419
11
0.312399
21
-0.210409
0
LINE
8
BLACK
6
CONTINUOUS
10
0.312399
20
-0.210409
11
0.311708
21
-0.208511
0
LINE
8
BLACK
6
CONTINUOUS
10
0.311708
20
-0.208511
11
0.311708
21
-0.205459
0
LINE
8
BLACK
6
CONTINUOUS
10
0.311708
20
-0.205459
11
0.310585
21
-0.203213
0
LINE
8
BLACK
6
CONTINUOUS
10
0.310585
20
-0.203213
11
0.308339
21
-0.20209
0
LINE
8
BLACK
6
CONTINUOUS
10
0.308339
20
-0.20209
11
0.291367
21
-0.20209
0
LINE
8
BLACK
6
CONTINUOUS
10
0.291367
20
-0.20209
11
0.291367
21
-0.208511
0
LINE
8
BLACK
6
CONTINUOUS
10
0.291367
20
-0.208511
11
0.291189
21
-0.209521
0
LINE
8
BLACK
6
CONTINUOUS
10
0.291189
20
-0.209521
11
0.28989
21
-0.211069
0
LINE
8
BLACK
6
CONTINUOUS
10
0.28989
20
-0.211069
11
0.287901
21
-0.211419
0
LINE
8
BLACK
6
CONTINUOUS
10
0.287901
20
-0.211419
11
0.286152
21
-0.210409
0
LINE
8
BLACK
6
CONTINUOUS
10
0.286152
20
-0.210409
11
0.285461
21
-0.208511
0
LINE
8
BLACK
6
CONTINUOUS
10
0.285461
20
-0.208511
11
0.285461
21
-0.20209
0
LINE
8
BLACK
6
CONTINUOUS
10
0.285461
20
-0.20209
11
0.275291
21
-0.20209
0
LINE
8
BLACK
6
CONTINUOUS
10
0.275291
20
-0.20209
11
0.274281
21
-0.201912
0
LINE
8
BLACK
6
CONTINUOUS
10
0.274281
20
-0.201912
11
0.272733
21
-0.200614
0
LINE
8
BLACK
6
CONTINUOUS
10
0.272733
20
-0.200614
11
0.272383
21
-0.198625
0
LINE
8
BLACK
6
CONTINUOUS
10
0.272383
20
-0.198625
11
0.273393
21
-0.196876
0
LINE
8
BLACK
6
CONTINUOUS
10
0.273393
20
-0.196876
11
0.275291
21
-0.196185
0
LINE
8
BLACK
6
CONTINUOUS
10
0.275291
20
-0.196185
11
0.285461
21
-0.196185
0
LINE
8
BLACK
6
CONTINUOUS
10
0.285461
20
-0.196185
11
0.285461
21
-0.193513
0
LINE
8
BLACK
6
CONTINUOUS
10
0.285461
20
-0.193513
11
0.285639
21
-0.192503
0
LINE
8
BLACK
6
CONTINUOUS
10
0.285639
20
-0.192503
11
0.286938
21
-0.190956
0
LINE
8
BLACK
6
CONTINUOUS
10
0.286938
20
-0.190956
11
0.288927
21
-0.190605
0
LINE
8
BLACK
6
CONTINUOUS
10
0.288927
20
-0.190605
11
0.290676
21
-0.191615
0
LINE
8
BLACK
6
CONTINUOUS
10
0.296923
20
-0.162617
11
0.297058
21
-0.162731
0
LINE
8
BLACK
6
CONTINUOUS
10
0.297058
20
-0.162731
11
0.297234
21
-0.162751
0
LINE
8
BLACK
6
CONTINUOUS
10
0.297234
20
-0.162751
11
0.300983
21
-0.164626
0
LINE
8
BLACK
6
CONTINUOUS
10
0.300983
20
-0.164626
11
0.301807
21
-0.165236
0
LINE
8
BLACK
6
CONTINUOUS
10
0.301807
20
-0.165236
11
0.301983
21
-0.165642
0
LINE
8
BLACK
6
CONTINUOUS
10
0.301983
20
-0.165642
11
0.302304
21
-0.165946
0
LINE
8
BLACK
6
CONTINUOUS
10
0.302304
20
-0.165946
11
0.304178
21
-0.169696
0
LINE
8
BLACK
6
CONTINUOUS
10
0.304178
20
-0.169696
11
0.304471
21
-0.170679
0
LINE
8
BLACK
6
CONTINUOUS
10
0.304471
20
-0.170679
11
0.30443
21
-0.17085
0
LINE
8
BLACK
6
CONTINUOUS
10
0.30443
20
-0.17085
11
0.30449
21
-0.171016
0
LINE
8
BLACK
6
CONTINUOUS
10
0.30449
20
-0.171016
11
0.30449
21
-0.175943
0
LINE
8
BLACK
6
CONTINUOUS
10
0.30449
20
-0.175943
11
0.305613
21
-0.178189
0
LINE
8
BLACK
6
CONTINUOUS
10
0.305613
20
-0.178189
11
0.307859
21
-0.179312
0
LINE
8
BLACK
6
CONTINUOUS
10
0.307859
20
-0.179312
11
0.308339
21
-0.179312
0
LINE
8
BLACK
6
CONTINUOUS
10
0.308339
20
-0.179312
11
0.310585
21
-0.178189
0
LINE
8
BLACK
6
CONTINUOUS
10
0.310585
20
-0.178189
11
0.311708
21
-0.175943
0
LINE
8
BLACK
6
CONTINUOUS
10
0.311708
20
-0.175943
11
0.311708
21
-0.169838
0
LINE
8
BLACK
6
CONTINUOUS
10
0.311708
20
-0.169838
11
0.310145
21
-0.166712
0
LINE
8
BLACK
6
CONTINUOUS
10
0.310145
20
-0.166712
11
0.309852
21
-0.165729
0
LINE
8
BLACK
6
CONTINUOUS
10
0.309852
20
-0.165729
11
0.310322
21
-0.163765
0
LINE
8
BLACK
6
CONTINUOUS
10
0.310322
20
-0.163765
11
0.311944
21
-0.162562
0
LINE
8
BLACK
6
CONTINUOUS
10
0.311944
20
-0.162562
11
0.31396
21
-0.162683
0
LINE
8
BLACK
6
CONTINUOUS
10
0.31396
20
-0.162683
11
0.315427
21
-0.164071
0
LINE
8
BLACK
6
CONTINUOUS
10
0.315427
20
-0.164071
11
0.317302
21
-0.167821
0
LINE
8
BLACK
6
CONTINUOUS
10
0.317302
20
-0.167821
11
0.317594
21
-0.168804
0
LINE
8
BLACK
6
CONTINUOUS
10
0.317594
20
-0.168804
11
0.317553
21
-0.168975
0
LINE
8
BLACK
6
CONTINUOUS
10
0.317553
20
-0.168975
11
0.317613
21
-0.169141
0
LINE
8
BLACK
6
CONTINUOUS
10
0.317613
20
-0.169141
11
0.317613
21
-0.17664
0
LINE
8
BLACK
6
CONTINUOUS
10
0.317613
20
-0.17664
11
0.317435
21
-0.17765
0
LINE
8
BLACK
6
CONTINUOUS
10
0.317435
20
-0.17765
11
0.317322
21
-0.177786
0
LINE
8
BLACK
6
CONTINUOUS
10
0.317322
20
-0.177786
11
0.317302
21
-0.177961
0
LINE
8
BLACK
6
CONTINUOUS
10
0.317302
20
-0.177961
11
0.315427
21
-0.18171
0
LINE
8
BLACK
6
CONTINUOUS
10
0.315427
20
-0.18171
11
0.314816
21
-0.182534
0
LINE
8
BLACK
6
CONTINUOUS
10
0.314816
20
-0.182534
11
0.31441
21
-0.18271
0
LINE
8
BLACK
6
CONTINUOUS
10
0.31441
20
-0.18271
11
0.314106
21
-0.183031
0
LINE
8
BLACK
6
CONTINUOUS
10
0.314106
20
-0.183031
11
0.310357
21
-0.184906
0
LINE
8
BLACK
6
CONTINUOUS
10
0.310357
20
-0.184906
11
0.309374
21
-0.185198
0
LINE
8
BLACK
6
CONTINUOUS
10
0.309374
20
-0.185198
11
0.309202
21
-0.185157
0
LINE
8
BLACK
6
CONTINUOUS
10
0.309202
20
-0.185157
11
0.309036
21
-0.185217
0
LINE
8
BLACK
6
CONTINUOUS
10
0.309036
20
-0.185217
11
0.307162
21
-0.185217
0
LINE
8
BLACK
6
CONTINUOUS
10
0.307162
20
-0.185217
11
0.306152
21
-0.185039
0
LINE
8
BLACK
6
CONTINUOUS
10
0.306152
20
-0.185039
11
0.306016
21
-0.184926
0
LINE
8
BLACK
6
CONTINUOUS
10
0.306016
20
-0.184926
11
0.305841
21
-0.184906
0
LINE
8
BLACK
6
CONTINUOUS
10
0.305841
20
-0.184906
11
0.302092
21
-0.183031
0
LINE
8
BLACK
6
CONTINUOUS
10
0.302092
20
-0.183031
11
0.301268
21
-0.18242
0
LINE
8
BLACK
6
CONTINUOUS
10
0.301268
20
-0.18242
11
0.301092
21
-0.182014
0
LINE
8
BLACK
6
CONTINUOUS
10
0.301092
20
-0.182014
11
0.300771
21
-0.18171
0
LINE
8
BLACK
6
CONTINUOUS
10
0.300771
20
-0.18171
11
0.298896
21
-0.177961
0
LINE
8
BLACK
6
CONTINUOUS
10
0.298896
20
-0.177961
11
0.298604
21
-0.176978
0
LINE
8
BLACK
6
CONTINUOUS
10
0.298604
20
-0.176978
11
0.298645
21
-0.176806
0
LINE
8
BLACK
6
CONTINUOUS
10
0.298645
20
-0.176806
11
0.298585
21
-0.17664
0
LINE
8
BLACK
6
CONTINUOUS
10
0.298585
20
-0.17664
11
0.298585
21
-0.171713
0
LINE
8
BLACK
6
CONTINUOUS
10
0.298585
20
-0.171713
11
0.297462
21
-0.169467
0
LINE
8
BLACK
6
CONTINUOUS
10
0.297462
20
-0.169467
11
0.295216
21
-0.168345
0
LINE
8
BLACK
6
CONTINUOUS
10
0.295216
20
-0.168345
11
0.294735
21
-0.168345
0
LINE
8
BLACK
6
CONTINUOUS
10
0.294735
20
-0.168345
11
0.29249
21
-0.169467
0
LINE
8
BLACK
6
CONTINUOUS
10
0.29249
20
-0.169467
11
0.291367
21
-0.171713
0
LINE
8
BLACK
6
CONTINUOUS
10
0.291367
20
-0.171713
11
0.291367
21
-0.175943
0
LINE
8
BLACK
6
CONTINUOUS
10
0.291367
20
-0.175943
11
0.29293
21
-0.179069
0
LINE
8
BLACK
6
CONTINUOUS
10
0.29293
20
-0.179069
11
0.293222
21
-0.180052
0
LINE
8
BLACK
6
CONTINUOUS
10
0.293222
20
-0.180052
11
0.292753
21
-0.182017
0
LINE
8
BLACK
6
CONTINUOUS
10
0.292753
20
-0.182017
11
0.291131
21
-0.18322
0
LINE
8
BLACK
6
CONTINUOUS
10
0.291131
20
-0.18322
11
0.289114
21
-0.183099
0
LINE
8
BLACK
6
CONTINUOUS
10
0.289114
20
-0.183099
11
0.287648
21
-0.18171
0
LINE
8
BLACK
6
CONTINUOUS
10
0.287648
20
-0.18171
11
0.285773
21
-0.177961
0
LINE
8
BLACK
6
CONTINUOUS
10
0.285773
20
-0.177961
11
0.285481
21
-0.176978
0
LINE
8
BLACK
6
CONTINUOUS
10
0.285481
20
-0.176978
11
0.285522
21
-0.176806
0
LINE
8
BLACK
6
CONTINUOUS
10
0.285522
20
-0.176806
11
0.285461
21
-0.17664
0
LINE
8
BLACK
6
CONTINUOUS
10
0.285461
20
-0.17664
11
0.285461
21
-0.171016
0
LINE
8
BLACK
6
CONTINUOUS
10
0.285461
20
-0.171016
11
0.285639
21
-0.170006
0
LINE
8
BLACK
6
CONTINUOUS
10
0.285639
20
-0.170006
11
0.285753
21
-0.169871
0
LINE
8
BLACK
6
CONTINUOUS
10
0.285753
20
-0.169871
11
0.285773
21
-0.169696
0
LINE
8
BLACK
6
CONTINUOUS
10
0.285773
20
-0.169696
11
0.287648
21
-0.165946
0
LINE
8
BLACK
6
CONTINUOUS
10
0.287648
20
-0.165946
11
0.288259
21
-0.165122
0
LINE
8
BLACK
6
CONTINUOUS
10
0.288259
20
-0.165122
11
0.288664
21
-0.164947
0
LINE
8
BLACK
6
CONTINUOUS
10
0.288664
20
-0.164947
11
0.288968
21
-0.164626
0
LINE
8
BLACK
6
CONTINUOUS
10
0.288968
20
-0.164626
11
0.292718
21
-0.162751
0
LINE
8
BLACK
6
CONTINUOUS
10
0.292718
20
-0.162751
11
0.293701
21
-0.162458
0
LINE
8
BLACK
6
CONTINUOUS
10
0.293701
20
-0.162458
11
0.293872
21
-0.162499
0
LINE
8
BLACK
6
CONTINUOUS
10
0.293872
20
-0.162499
11
0.294038
21
-0.162439
0
LINE
8
BLACK
6
CONTINUOUS
10
0.294038
20
-0.162439
11
0.295913
21
-0.162439
0
LINE
8
BLACK
6
CONTINUOUS
10
0.295913
20
-0.162439
11
0.296923
21
-0.162617
0
LINE
8
BLACK
6
CONTINUOUS
10
0.310046
20
-0.128871
11
0.310181
21
-0.128985
0
LINE
8
BLACK
6
CONTINUOUS
10
0.310181
20
-0.128985
11
0.310357
21
-0.129005
0
LINE
8
BLACK
6
CONTINUOUS
10
0.310357
20
-0.129005
11
0.314106
21
-0.13088
0
LINE
8
BLACK
6
CONTINUOUS
10
0.314106
20
-0.13088
11
0.31493
21
-0.131491
0
LINE
8
BLACK
6
CONTINUOUS
10
0.31493
20
-0.131491
11
0.315106
21
-0.131896
0
LINE
8
BLACK
6
CONTINUOUS
10
0.315106
20
-0.131896
11
0.315427
21
-0.1322
0
LINE
8
BLACK
6
CONTINUOUS
10
0.315427
20
-0.1322
11
0.317302
21
-0.13595
0
LINE
8
BLACK
6
CONTINUOUS
10
0.317302
20
-0.13595
11
0.317594
21
-0.136933
0
LINE
8
BLACK
6
CONTINUOUS
10
0.317594
20
-0.136933
11
0.317553
21
-0.137104
0
LINE
8
BLACK
6
CONTINUOUS
10
0.317553
20
-0.137104
11
0.317613
21
-0.13727
0
LINE
8
BLACK
6
CONTINUOUS
10
0.317613
20
-0.13727
11
0.317613
21
-0.144769
0
LINE
8
BLACK
6
CONTINUOUS
10
0.317613
20
-0.144769
11
0.317435
21
-0.145779
0
LINE
8
BLACK
6
CONTINUOUS
10
0.317435
20
-0.145779
11
0.317322
21
-0.145915
0
LINE
8
BLACK
6
CONTINUOUS
10
0.317322
20
-0.145915
11
0.317302
21
-0.14609
0
LINE
8
BLACK
6
CONTINUOUS
10
0.317302
20
-0.14609
11
0.315427
21
-0.149839
0
LINE
8
BLACK
6
CONTINUOUS
10
0.315427
20
-0.149839
11
0.314816
21
-0.150663
0
LINE
8
BLACK
6
CONTINUOUS
10
0.314816
20
-0.150663
11
0.312963
21
-0.151466
0
LINE
8
BLACK
6
CONTINUOUS
10
0.312963
20
-0.151466
11
0.311027
21
-0.150891
0
LINE
8
BLACK
6
CONTINUOUS
10
0.311027
20
-0.150891
11
0.309914
21
-0.149205
0
LINE
8
BLACK
6
CONTINUOUS
10
0.309914
20
-0.149205
11
0.310145
21
-0.147198
0
LINE
8
BLACK
6
CONTINUOUS
10
0.310145
20
-0.147198
11
0.311708
21
-0.144072
0
LINE
8
BLACK
6
CONTINUOUS
10
0.311708
20
-0.144072
11
0.311708
21
-0.137967
0
LINE
8
BLACK
6
CONTINUOUS
10
0.311708
20
-0.137967
11
0.310585
21
-0.135722
0
LINE
8
BLACK
6
CONTINUOUS
10
0.310585
20
-0.135722
11
0.308339
21
-0.134599
0
LINE
8
BLACK
6
CONTINUOUS
10
0.308339
20
-0.134599
11
0.303958
21
-0.134599
0
LINE
8
BLACK
6
CONTINUOUS
10
0.303958
20
-0.134599
11
0.300683
21
-0.150973
0
LINE
8
BLACK
6
CONTINUOUS
10
0.300683
20
-0.150973
11
0.300311
21
-0.151928
0
LINE
8
BLACK
6
CONTINUOUS
10
0.300311
20
-0.151928
11
0.29993
21
-0.152233
0
LINE
8
BLACK
6
CONTINUOUS
10
0.29993
20
-0.152233
11
0.299686
21
-0.152656
0
LINE
8
BLACK
6
CONTINUOUS
10
0.299686
20
-0.152656
11
0.299166
21
-0.152845
0
LINE
8
BLACK
6
CONTINUOUS
10
0.299166
20
-0.152845
11
0.298734
21
-0.153191
0
LINE
8
BLACK
6
CONTINUOUS
10
0.298734
20
-0.153191
11
0.298246
21
-0.15318
0
LINE
8
BLACK
6
CONTINUOUS
10
0.298246
20
-0.15318
11
0.297788
21
-0.153346
0
LINE
8
BLACK
6
CONTINUOUS
10
0.297788
20
-0.153346
11
0.294038
21
-0.153346
0
LINE
8
BLACK
6
CONTINUOUS
10
0.294038
20
-0.153346
11
0.293028
21
-0.153168
0
LINE
8
BLACK
6
CONTINUOUS
10
0.293028
20
-0.153168
11
0.292893
21
-0.153055
0
LINE
8
BLACK
6
CONTINUOUS
10
0.292893
20
-0.153055
11
0.292718
21
-0.153035
0
LINE
8
BLACK
6
CONTINUOUS
10
0.292718
20
-0.153035
11
0.288968
21
-0.15116
0
LINE
8
BLACK
6
CONTINUOUS
10
0.288968
20
-0.15116
11
0.288144
21
-0.150549
0
LINE
8
BLACK
6
CONTINUOUS
10
0.288144
20
-0.150549
11
0.287969
21
-0.150143
0
LINE
8
BLACK
6
CONTINUOUS
10
0.287969
20
-0.150143
11
0.287648
21
-0.149839
0
LINE
8
BLACK
6
CONTINUOUS
10
0.287648
20
-0.149839
11
0.285773
21
-0.14609
0
LINE
8
BLACK
6
CONTINUOUS
10
0.285773
20
-0.14609
11
0.285481
21
-0.145107
0
LINE
8
BLACK
6
CONTINUOUS
10
0.285481
20
-0.145107
11
0.285522
21
-0.144935
0
LINE
8
BLACK
6
CONTINUOUS
10
0.285522
20
-0.144935
11
0.285461
21
-0.144769
0
LINE
8
BLACK
6
CONTINUOUS
10
0.285461
20
-0.144769
11
0.285461
21
-0.13727
0
LINE
8
BLACK
6
CONTINUOUS
10
0.285461
20
-0.13727
11
0.285639
21
-0.13626
0
LINE
8
BLACK
6
CONTINUOUS
10
0.285639
20
-0.13626
11
0.285753
21
-0.136125
0
LINE
8
BLACK
6
CONTINUOUS
10
0.285753
20
-0.136125
11
0.285773
21
-0.13595
0
LINE
8
BLACK
6
CONTINUOUS
10
0.285773
20
-0.13595
11
0.287648
21
-0.1322
0
LINE
8
BLACK
6
CONTINUOUS
10
0.287648
20
-0.1322
11
0.288259
21
-0.131377
0
LINE
8
BLACK
6
CONTINUOUS
10
0.288259
20
-0.131377
11
0.288664
21
-0.131201
0
LINE
8
BLACK
6
CONTINUOUS
10
0.288664
20
-0.131201
11
0.288968
21
-0.13088
0
LINE
8
BLACK
6
CONTINUOUS
10
0.288968
20
-0.13088
11
0.292718
21
-0.129005
0
LINE
8
BLACK
6
CONTINUOUS
10
0.292718
20
-0.129005
11
0.293701
21
-0.128713
0
LINE
8
BLACK
6
CONTINUOUS
10
0.293701
20
-0.128713
11
0.293872
21
-0.128754
0
LINE
8
BLACK
6
CONTINUOUS
10
0.293872
20
-0.128754
11
0.294038
21
-0.128693
0
LINE
8
BLACK
6
CONTINUOUS
10
0.294038
20
-0.128693
11
0.309036
21
-0.128693
0
LINE
8
BLACK
6
CONTINUOUS
10
0.309036
20
-0.128693
11
0.310046
21
-0.128871
0
LINE
8
BLACK
6
CONTINUOUS
10
0.294735
20
-0.134599
11
0.29249
21
-0.135722
0
LINE
8
BLACK
6
CONTINUOUS
10
0.29249
20
-0.135722
11
0.291367
21
-0.137967
0
LINE
8
BLACK
6
CONTINUOUS
10
0.291367
20
-0.137967
11
0.291367
21
-0.144072
0
LINE
8
BLACK
6
CONTINUOUS
10
0.291367
20
-0.144072
11
0.29249
21
-0.146318
0
LINE
8
BLACK
6
CONTINUOUS
10
0.29249
20
-0.146318
11
0.294735
21
-0.147441
0
LINE
8
BLACK
6
CONTINUOUS
10
0.294735
20
-0.147441
11
0.295367
21
-0.147441
0
LINE
8
BLACK
6
CONTINUOUS
10
0.295367
20
-0.147441
11
0.297935
21
-0.134599
0
LINE
8
BLACK
6
CONTINUOUS
10
0.297935
20
-0.134599
11
0.294735
21
-0.134599
0
LINE
8
BLACK
6
CONTINUOUS
10
0.277552
20
-0.0960022
11
0.278243
21
-0.0979002
0
LINE
8
BLACK
6
CONTINUOUS
10
0.278243
20
-0.0979002
11
0.278243
21
-0.106196
0
LINE
8
BLACK
6
CONTINUOUS
10
0.278243
20
-0.106196
11
0.314661
21
-0.106196
0
LINE
8
BLACK
6
CONTINUOUS
10
0.314661
20
-0.106196
11
0.315671
21
-0.106374
0
LINE
8
BLACK
6
CONTINUOUS
10
0.315671
20
-0.106374
11
0.317218
21
-0.107672
0
LINE
8
BLACK
6
CONTINUOUS
10
0.317218
20
-0.107672
11
0.317569
21
-0.109662
0
LINE
8
BLACK
6
CONTINUOUS
10
0.317569
20
-0.109662
11
0.316559
21
-0.111411
0
LINE
8
BLACK
6
CONTINUOUS
10
0.316559
20
-0.111411
11
0.314661
21
-0.112102
0
LINE
8
BLACK
6
CONTINUOUS
10
0.314661
20
-0.112102
11
0.278243
21
-0.112102
0
LINE
8
BLACK
6
CONTINUOUS
10
0.278243
20
-0.112102
11
0.278243
21
-0.120397
0
LINE
8
BLACK
6
CONTINUOUS
10
0.278243
20
-0.120397
11
0.278065
21
-0.121407
0
LINE
8
BLACK
6
CONTINUOUS
10
0.278065
20
-0.121407
11
0.276767
21
-0.122955
0
LINE
8
BLACK
6
CONTINUOUS
10
0.276767
20
-0.122955
11
0.274778
21
-0.123305
0
LINE
8
BLACK
6
CONTINUOUS
10
0.274778
20
-0.123305
11
0.273029
21
-0.122295
0
LINE
8
BLACK
6
CONTINUOUS
10
0.273029
20
-0.122295
11
0.272338
21
-0.120397
0
LINE
8
BLACK
6
CONTINUOUS
10
0.272338
20
-0.120397
11
0.272338
21
-0.0979002
0
LINE
8
BLACK
6
CONTINUOUS
10
0.272338
20
-0.0979002
11
0.272516
21
-0.0968903
0
LINE
8
BLACK
6
CONTINUOUS
10
0.272516
20
-0.0968903
11
0.273814
21
-0.0953431
0
LINE
8
BLACK
6
CONTINUOUS
10
0.273814
20
-0.0953431
11
0.275803
21
-0.0949923
0
LINE
8
BLACK
6
CONTINUOUS
10
0.275803
20
-0.0949923
11
0.277552
21
-0.0960022
  0
ENDSEC
  0
EOF
