  0
SECTION
  2
HEADER
  9
$ANGBASE
  50
0.0
  9
$ANGDIR
  70
1
  9
$MEASUREMENT
  70
0
  0
ENDSEC
  0
SECTION
  2
TABLES
  0
TABLE
  2
LTYPE
  70
4
  0
LTYPE
  5
40F
  2
CONTINUOUS
  70
0
  3
Solid line
  72
65
  73
0
  40
0.0
  0
LTYPE
  5
410
  2
DASHDOT
 70
0
  3
Dash Dot ____ _ ____ _
 72
65
 73
4
 40
2.0
 49
1.25
 49
-0.25
 49
0.25
 49
-0.25
  0
LTYPE
  5
411
  2
DASHED
 70
0
  3
Dashed __ __ __ __ __
 72
65
 73
2
 40
0.75
 49
0.5
 49
-0.25
  0
LTYPE
  5
43B
  2
DOTTED
 70
0
  3
Dotted .  .  .  .
 72
65
 73
2
 40
0.2
 49
0.0
 49
-0.2
  0
ENDTAB
  0
TABLE
  2
STYLE
  70
4
  0
STYLE
  2
KICAD
  70
0
  40
0
  41
1
  42
1
  50
0
  71
0
  3
isocp.shx
  0
STYLE
  2
KICADB
  70
0
  40
0
  41
1
  42
1
  50
0
  71
0
  3
isocp.shx
  0
STYLE
  2
KICADI
  70
0
  40
0
  41
1
  42
1
  50
15
  71
0
  3
isocp.shx
  0
STYLE
  2
KICADBI
  70
0
  40
0
  41
1
  42
1
  50
15
  71
0
  3
isocp.shx
  0
ENDTAB
  0
TABLE
  2
LAYER
  70
1
  0
LAYER
  2
BLACK
  70
0
  62
7
  6
CONTINUOUS
  0
ENDTAB
  0
ENDSEC
  0
SECTION
  2
ENTITIES
0
LINE
8
BLACK
6
CONTINUOUS
10
4.93543
20
-3.33543
11
4.93474
21
-3.3371
0
LINE
8
BLACK
6
CONTINUOUS
10
4.93474
20
-3.3371
11
4.93307
21
-3.3378
0
LINE
8
BLACK
6
CONTINUOUS
10
4.93307
20
-3.3378
11
4.9314
21
-3.3371
0
LINE
8
BLACK
6
CONTINUOUS
10
4.9314
20
-3.3371
11
4.93071
21
-3.33543
0
LINE
8
BLACK
6
CONTINUOUS
10
4.93071
20
-3.33543
11
4.93071
21
-3.27559
0
LINE
8
BLACK
6
CONTINUOUS
10
4.93071
20
-3.27559
11
4.9314
21
-3.27392
0
LINE
8
BLACK
6
CONTINUOUS
10
4.9314
20
-3.27392
11
4.93307
21
-3.27323
0
LINE
8
BLACK
6
CONTINUOUS
10
4.93307
20
-3.27323
11
4.95315
21
-3.27323
0
LINE
8
BLACK
6
CONTINUOUS
10
4.95315
20
-3.27323
11
4.95315
21
-3.17323
0
LINE
8
BLACK
6
CONTINUOUS
10
4.95315
20
-3.17323
11
4.83307
21
-3.17323
0
LINE
8
BLACK
6
CONTINUOUS
10
4.83307
20
-3.17323
11
4.8314
21
-3.17254
0
LINE
8
BLACK
6
CONTINUOUS
10
4.8314
20
-3.17254
11
4.83071
21
-3.17087
0
LINE
8
BLACK
6
CONTINUOUS
10
4.83071
20
-3.17087
11
4.8314
21
-3.1692
0
LINE
8
BLACK
6
CONTINUOUS
10
4.8314
20
-3.1692
11
4.83307
21
-3.1685
0
LINE
8
BLACK
6
CONTINUOUS
10
4.83307
20
-3.1685
11
4.95551
21
-3.1685
0
LINE
8
BLACK
6
CONTINUOUS
10
4.95551
20
-3.1685
11
4.95718
21
-3.1692
0
LINE
8
BLACK
6
CONTINUOUS
10
4.95718
20
-3.1692
11
4.95787
21
-3.17087
0
LINE
8
BLACK
6
CONTINUOUS
10
4.95787
20
-3.17087
11
4.95787
21
-3.27559
0
LINE
8
BLACK
6
CONTINUOUS
10
4.95787
20
-3.27559
11
4.95718
21
-3.27726
0
LINE
8
BLACK
6
CONTINUOUS
10
4.95718
20
-3.27726
11
4.95551
21
-3.27795
0
LINE
8
BLACK
6
CONTINUOUS
10
4.95551
20
-3.27795
11
4.93543
21
-3.27795
0
LINE
8
BLACK
6
CONTINUOUS
10
4.93543
20
-3.27795
11
4.93543
21
-3.33543
0
LINE
8
BLACK
6
CONTINUOUS
10
4.8749
20
-3.27392
11
4.87559
21
-3.27559
0
LINE
8
BLACK
6
CONTINUOUS
10
4.87559
20
-3.27559
11
4.8749
21
-3.27726
0
LINE
8
BLACK
6
CONTINUOUS
10
4.8749
20
-3.27726
11
4.87323
21
-3.27795
0
LINE
8
BLACK
6
CONTINUOUS
10
4.87323
20
-3.27795
11
4.73307
21
-3.27795
0
LINE
8
BLACK
6
CONTINUOUS
10
4.73307
20
-3.27795
11
4.7314
21
-3.27726
0
LINE
8
BLACK
6
CONTINUOUS
10
4.7314
20
-3.27726
11
4.73071
21
-3.27559
0
LINE
8
BLACK
6
CONTINUOUS
10
4.73071
20
-3.27559
11
4.7314
21
-3.27392
0
LINE
8
BLACK
6
CONTINUOUS
10
4.7314
20
-3.27392
11
4.73307
21
-3.27323
0
LINE
8
BLACK
6
CONTINUOUS
10
4.73307
20
-3.27323
11
4.87323
21
-3.27323
0
LINE
8
BLACK
6
CONTINUOUS
10
4.87323
20
-3.27323
11
4.8749
21
-3.27392
0
LINE
8
BLACK
6
CONTINUOUS
10
4.7749
20
-3.1692
11
4.77559
21
-3.17087
0
LINE
8
BLACK
6
CONTINUOUS
10
4.77559
20
-3.17087
11
4.7749
21
-3.17254
0
LINE
8
BLACK
6
CONTINUOUS
10
4.7749
20
-3.17254
11
4.77323
21
-3.17323
0
LINE
8
BLACK
6
CONTINUOUS
10
4.77323
20
-3.17323
11
4.65315
21
-3.17323
0
LINE
8
BLACK
6
CONTINUOUS
10
4.65315
20
-3.17323
11
4.65315
21
-3.27559
0
LINE
8
BLACK
6
CONTINUOUS
10
4.65315
20
-3.27559
11
4.65246
21
-3.27726
0
LINE
8
BLACK
6
CONTINUOUS
10
4.65246
20
-3.27726
11
4.65079
21
-3.27795
0
LINE
8
BLACK
6
CONTINUOUS
10
4.65079
20
-3.27795
11
4.64912
21
-3.27726
0
LINE
8
BLACK
6
CONTINUOUS
10
4.64912
20
-3.27726
11
4.64843
21
-3.27559
0
LINE
8
BLACK
6
CONTINUOUS
10
4.64843
20
-3.27559
11
4.64843
21
-3.17087
0
LINE
8
BLACK
6
CONTINUOUS
10
4.64843
20
-3.17087
11
4.64912
21
-3.1692
0
LINE
8
BLACK
6
CONTINUOUS
10
4.64912
20
-3.1692
11
4.65079
21
-3.1685
0
LINE
8
BLACK
6
CONTINUOUS
10
4.65079
20
-3.1685
11
4.77323
21
-3.1685
0
LINE
8
BLACK
6
CONTINUOUS
10
4.77323
20
-3.1685
11
4.7749
21
-3.1692
0
LINE
8
BLACK
6
CONTINUOUS
10
4.98633
20
-3.22461
11
4.98744
21
-3.22629
0
LINE
8
BLACK
6
CONTINUOUS
10
4.98744
20
-3.22629
11
4.98721
21
-3.2283
0
LINE
8
BLACK
6
CONTINUOUS
10
4.98721
20
-3.2283
11
4.98534
21
-3.23205
0
LINE
8
BLACK
6
CONTINUOUS
10
4.98534
20
-3.23205
11
4.98481
21
-3.23276
0
LINE
8
BLACK
6
CONTINUOUS
10
4.98481
20
-3.23276
11
4.98478
21
-3.23282
0
LINE
8
BLACK
6
CONTINUOUS
10
4.98478
20
-3.23282
11
4.98233
21
-3.23527
0
LINE
8
BLACK
6
CONTINUOUS
10
4.98233
20
-3.23527
11
5.00974
21
-3.23527
0
LINE
8
BLACK
6
CONTINUOUS
10
5.00974
20
-3.23527
11
5.00974
21
-3.22698
0
LINE
8
BLACK
6
CONTINUOUS
10
5.00974
20
-3.22698
11
5.00992
21
-3.22597
0
LINE
8
BLACK
6
CONTINUOUS
10
5.00992
20
-3.22597
11
5.01122
21
-3.22442
0
LINE
8
BLACK
6
CONTINUOUS
10
5.01122
20
-3.22442
11
5.0132
21
-3.22407
0
LINE
8
BLACK
6
CONTINUOUS
10
5.0132
20
-3.22407
11
5.01495
21
-3.22508
0
LINE
8
BLACK
6
CONTINUOUS
10
5.01495
20
-3.22508
11
5.01564
21
-3.22698
0
LINE
8
BLACK
6
CONTINUOUS
10
5.01564
20
-3.22698
11
5.01564
21
-3.24948
0
LINE
8
BLACK
6
CONTINUOUS
10
5.01564
20
-3.24948
11
5.01547
21
-3.25048
0
LINE
8
BLACK
6
CONTINUOUS
10
5.01547
20
-3.25048
11
5.01417
21
-3.25203
0
LINE
8
BLACK
6
CONTINUOUS
10
5.01417
20
-3.25203
11
5.01218
21
-3.25238
0
LINE
8
BLACK
6
CONTINUOUS
10
5.01218
20
-3.25238
11
5.01043
21
-3.25137
0
LINE
8
BLACK
6
CONTINUOUS
10
5.01043
20
-3.25137
11
5.00974
21
-3.24948
0
LINE
8
BLACK
6
CONTINUOUS
10
5.00974
20
-3.24948
11
5.00974
21
-3.24118
0
LINE
8
BLACK
6
CONTINUOUS
10
5.00974
20
-3.24118
11
4.97332
21
-3.24118
0
LINE
8
BLACK
6
CONTINUOUS
10
4.97332
20
-3.24118
11
4.97231
21
-3.241
0
LINE
8
BLACK
6
CONTINUOUS
10
4.97231
20
-3.241
11
4.97218
21
-3.24089
0
LINE
8
BLACK
6
CONTINUOUS
10
4.97218
20
-3.24089
11
4.97201
21
-3.24087
0
LINE
8
BLACK
6
CONTINUOUS
10
4.97201
20
-3.24087
11
4.97142
21
-3.24025
0
LINE
8
BLACK
6
CONTINUOUS
10
4.97142
20
-3.24025
11
4.97076
21
-3.2397
0
LINE
8
BLACK
6
CONTINUOUS
10
4.97076
20
-3.2397
11
4.97074
21
-3.23954
0
LINE
8
BLACK
6
CONTINUOUS
10
4.97074
20
-3.23954
11
4.97062
21
-3.23941
0
LINE
8
BLACK
6
CONTINUOUS
10
4.97062
20
-3.23941
11
4.97056
21
-3.23856
0
LINE
8
BLACK
6
CONTINUOUS
10
4.97056
20
-3.23856
11
4.97041
21
-3.23771
0
LINE
8
BLACK
6
CONTINUOUS
10
4.97041
20
-3.23771
11
4.9705
21
-3.23757
0
LINE
8
BLACK
6
CONTINUOUS
10
4.9705
20
-3.23757
11
4.97049
21
-3.2374
0
LINE
8
BLACK
6
CONTINUOUS
10
4.97049
20
-3.2374
11
4.971
21
-3.23671
0
LINE
8
BLACK
6
CONTINUOUS
10
4.971
20
-3.23671
11
4.97142
21
-3.23596
0
LINE
8
BLACK
6
CONTINUOUS
10
4.97142
20
-3.23596
11
4.97158
21
-3.23591
0
LINE
8
BLACK
6
CONTINUOUS
10
4.97158
20
-3.23591
11
4.97168
21
-3.23577
0
LINE
8
BLACK
6
CONTINUOUS
10
4.97168
20
-3.23577
11
4.97707
21
-3.23218
0
LINE
8
BLACK
6
CONTINUOUS
10
4.97707
20
-3.23218
11
4.98027
21
-3.22898
0
LINE
8
BLACK
6
CONTINUOUS
10
4.98027
20
-3.22898
11
4.98193
21
-3.22566
0
LINE
8
BLACK
6
CONTINUOUS
10
4.98193
20
-3.22566
11
4.98254
21
-3.22483
0
LINE
8
BLACK
6
CONTINUOUS
10
4.98254
20
-3.22483
11
4.98439
21
-3.22403
0
LINE
8
BLACK
6
CONTINUOUS
10
4.98439
20
-3.22403
11
4.98633
21
-3.22461
0
LINE
8
BLACK
6
CONTINUOUS
10
5.01495
20
-3.19321
11
5.01564
21
-3.19511
0
LINE
8
BLACK
6
CONTINUOUS
10
5.01564
20
-3.19511
11
5.01564
21
-3.19886
0
LINE
8
BLACK
6
CONTINUOUS
10
5.01564
20
-3.19886
11
5.01549
21
-3.19973
0
LINE
8
BLACK
6
CONTINUOUS
10
5.01549
20
-3.19973
11
5.01549
21
-3.19979
0
LINE
8
BLACK
6
CONTINUOUS
10
5.01549
20
-3.19979
11
5.01362
21
-3.20541
0
LINE
8
BLACK
6
CONTINUOUS
10
5.01362
20
-3.20541
11
5.01313
21
-3.20632
0
LINE
8
BLACK
6
CONTINUOUS
10
5.01313
20
-3.20632
11
5.01298
21
-3.20641
0
LINE
8
BLACK
6
CONTINUOUS
10
5.01298
20
-3.20641
11
5.01291
21
-3.20657
0
LINE
8
BLACK
6
CONTINUOUS
10
5.01291
20
-3.20657
11
5.00916
21
-3.21032
0
LINE
8
BLACK
6
CONTINUOUS
10
5.00916
20
-3.21032
11
5.00832
21
-3.21091
0
LINE
8
BLACK
6
CONTINUOUS
10
5.00832
20
-3.21091
11
5.00814
21
-3.21092
0
LINE
8
BLACK
6
CONTINUOUS
10
5.00814
20
-3.21092
11
5.008
21
-3.21103
0
LINE
8
BLACK
6
CONTINUOUS
10
5.008
20
-3.21103
11
5.00238
21
-3.21291
0
LINE
8
BLACK
6
CONTINUOUS
10
5.00238
20
-3.21291
11
5.0015
21
-3.21304
0
LINE
8
BLACK
6
CONTINUOUS
10
5.0015
20
-3.21304
11
5.00144
21
-3.21306
0
LINE
8
BLACK
6
CONTINUOUS
10
5.00144
20
-3.21306
11
4.97332
21
-3.21306
0
LINE
8
BLACK
6
CONTINUOUS
10
4.97332
20
-3.21306
11
4.97231
21
-3.21288
0
LINE
8
BLACK
6
CONTINUOUS
10
4.97231
20
-3.21288
11
4.97076
21
-3.21158
0
LINE
8
BLACK
6
CONTINUOUS
10
4.97076
20
-3.21158
11
4.97041
21
-3.20959
0
LINE
8
BLACK
6
CONTINUOUS
10
4.97041
20
-3.20959
11
4.97142
21
-3.20784
0
LINE
8
BLACK
6
CONTINUOUS
10
4.97142
20
-3.20784
11
4.97332
21
-3.20715
0
LINE
8
BLACK
6
CONTINUOUS
10
4.97332
20
-3.20715
11
5.00096
21
-3.20715
0
LINE
8
BLACK
6
CONTINUOUS
10
5.00096
20
-3.20715
11
5.00547
21
-3.20565
0
LINE
8
BLACK
6
CONTINUOUS
10
5.00547
20
-3.20565
11
5.00824
21
-3.20289
0
LINE
8
BLACK
6
CONTINUOUS
10
5.00824
20
-3.20289
11
5.00974
21
-3.19838
0
LINE
8
BLACK
6
CONTINUOUS
10
5.00974
20
-3.19838
11
5.00974
21
-3.19511
0
LINE
8
BLACK
6
CONTINUOUS
10
5.00974
20
-3.19511
11
5.00992
21
-3.1941
0
LINE
8
BLACK
6
CONTINUOUS
10
5.00992
20
-3.1941
11
5.01122
21
-3.19255
0
LINE
8
BLACK
6
CONTINUOUS
10
5.01122
20
-3.19255
11
5.0132
21
-3.1922
0
LINE
8
BLACK
6
CONTINUOUS
10
5.0132
20
-3.1922
11
5.01495
21
-3.19321
  0
ENDSEC
  0
EOF
