  0
SECTION
  2
HEADER
  9
$ANGBASE
  50
0.0
  9
$ANGDIR
  70
1
  9
$MEASUREMENT
  70
0
  0
ENDSEC
  0
SECTION
  2
TABLES
  0
TABLE
  2
LTYPE
  70
4
  0
LTYPE
  5
40F
  2
CONTINUOUS
  70
0
  3
Solid line
  72
65
  73
0
  40
0.0
  0
LTYPE
  5
410
  2
DASHDOT
 70
0
  3
Dash Dot ____ _ ____ _
 72
65
 73
4
 40
2.0
 49
1.25
 49
-0.25
 49
0.25
 49
-0.25
  0
LTYPE
  5
411
  2
DASHED
 70
0
  3
Dashed __ __ __ __ __
 72
65
 73
2
 40
0.75
 49
0.5
 49
-0.25
  0
LTYPE
  5
43B
  2
DOTTED
 70
0
  3
Dotted .  .  .  .
 72
65
 73
2
 40
0.2
 49
0.0
 49
-0.2
  0
ENDTAB
  0
TABLE
  2
STYLE
  70
4
  0
STYLE
  2
KICAD
  70
0
  40
0
  41
1
  42
1
  50
0
  71
0
  3
isocp.shx
  0
STYLE
  2
KICADB
  70
0
  40
0
  41
1
  42
1
  50
0
  71
0
  3
isocp.shx
  0
STYLE
  2
KICADI
  70
0
  40
0
  41
1
  42
1
  50
15
  71
0
  3
isocp.shx
  0
STYLE
  2
KICADBI
  70
0
  40
0
  41
1
  42
1
  50
15
  71
0
  3
isocp.shx
  0
ENDTAB
  0
TABLE
  2
LAYER
  70
1
  0
LAYER
  2
BLACK
  70
0
  62
7
  6
CONTINUOUS
  0
ENDTAB
  0
ENDSEC
  0
SECTION
  2
ENTITIES
0
LINE
8
BLACK
6
CONTINUOUS
10
4.62757
20
-3.38893
11
4.62944
21
-3.39081
0
LINE
8
BLACK
6
CONTINUOUS
10
4.62944
20
-3.39081
11
4.62995
21
-3.39153
0
LINE
8
BLACK
6
CONTINUOUS
10
4.62995
20
-3.39153
11
4.62999
21
-3.39157
0
LINE
8
BLACK
6
CONTINUOUS
10
4.62999
20
-3.39157
11
4.63187
21
-3.39532
0
LINE
8
BLACK
6
CONTINUOUS
10
4.63187
20
-3.39532
11
4.63216
21
-3.39631
0
LINE
8
BLACK
6
CONTINUOUS
10
4.63216
20
-3.39631
11
4.63212
21
-3.39648
0
LINE
8
BLACK
6
CONTINUOUS
10
4.63212
20
-3.39648
11
4.63218
21
-3.39664
0
LINE
8
BLACK
6
CONTINUOUS
10
4.63218
20
-3.39664
11
4.63218
21
-3.40789
0
LINE
8
BLACK
6
CONTINUOUS
10
4.63218
20
-3.40789
11
4.632
21
-3.4089
0
LINE
8
BLACK
6
CONTINUOUS
10
4.632
20
-3.4089
11
4.63189
21
-3.40904
0
LINE
8
BLACK
6
CONTINUOUS
10
4.63189
20
-3.40904
11
4.63187
21
-3.40921
0
LINE
8
BLACK
6
CONTINUOUS
10
4.63187
20
-3.40921
11
4.62999
21
-3.41296
0
LINE
8
BLACK
6
CONTINUOUS
10
4.62999
20
-3.41296
11
4.62947
21
-3.41367
0
LINE
8
BLACK
6
CONTINUOUS
10
4.62947
20
-3.41367
11
4.62944
21
-3.41373
0
LINE
8
BLACK
6
CONTINUOUS
10
4.62944
20
-3.41373
11
4.62757
21
-3.4156
0
LINE
8
BLACK
6
CONTINUOUS
10
4.62757
20
-3.4156
11
4.62684
21
-3.41611
0
LINE
8
BLACK
6
CONTINUOUS
10
4.62684
20
-3.41611
11
4.6268
21
-3.41616
0
LINE
8
BLACK
6
CONTINUOUS
10
4.6268
20
-3.41616
11
4.62305
21
-3.41803
0
LINE
8
BLACK
6
CONTINUOUS
10
4.62305
20
-3.41803
11
4.62207
21
-3.41833
0
LINE
8
BLACK
6
CONTINUOUS
10
4.62207
20
-3.41833
11
4.62189
21
-3.41828
0
LINE
8
BLACK
6
CONTINUOUS
10
4.62189
20
-3.41828
11
4.62173
21
-3.41834
0
LINE
8
BLACK
6
CONTINUOUS
10
4.62173
20
-3.41834
11
4.61235
21
-3.41834
0
LINE
8
BLACK
6
CONTINUOUS
10
4.61235
20
-3.41834
11
4.61134
21
-3.41817
0
LINE
8
BLACK
6
CONTINUOUS
10
4.61134
20
-3.41817
11
4.61121
21
-3.41805
0
LINE
8
BLACK
6
CONTINUOUS
10
4.61121
20
-3.41805
11
4.61103
21
-3.41803
0
LINE
8
BLACK
6
CONTINUOUS
10
4.61103
20
-3.41803
11
4.60728
21
-3.41616
0
LINE
8
BLACK
6
CONTINUOUS
10
4.60728
20
-3.41616
11
4.60658
21
-3.41563
0
LINE
8
BLACK
6
CONTINUOUS
10
4.60658
20
-3.41563
11
4.60652
21
-3.4156
0
LINE
8
BLACK
6
CONTINUOUS
10
4.60652
20
-3.4156
11
4.60464
21
-3.41373
0
LINE
8
BLACK
6
CONTINUOUS
10
4.60464
20
-3.41373
11
4.60414
21
-3.41301
0
LINE
8
BLACK
6
CONTINUOUS
10
4.60414
20
-3.41301
11
4.60409
21
-3.41296
0
LINE
8
BLACK
6
CONTINUOUS
10
4.60409
20
-3.41296
11
4.60221
21
-3.40921
0
LINE
8
BLACK
6
CONTINUOUS
10
4.60221
20
-3.40921
11
4.60205
21
-3.40865
0
LINE
8
BLACK
6
CONTINUOUS
10
4.60205
20
-3.40865
11
4.5918
21
-3.41761
0
LINE
8
BLACK
6
CONTINUOUS
10
4.5918
20
-3.41761
11
4.59142
21
-3.41784
0
LINE
8
BLACK
6
CONTINUOUS
10
4.59142
20
-3.41784
11
4.59133
21
-3.41795
0
LINE
8
BLACK
6
CONTINUOUS
10
4.59133
20
-3.41795
11
4.59121
21
-3.41797
0
LINE
8
BLACK
6
CONTINUOUS
10
4.59121
20
-3.41797
11
4.59092
21
-3.41814
0
LINE
8
BLACK
6
CONTINUOUS
10
4.59092
20
-3.41814
11
4.59013
21
-3.41816
0
LINE
8
BLACK
6
CONTINUOUS
10
4.59013
20
-3.41816
11
4.58934
21
-3.4183
0
LINE
8
BLACK
6
CONTINUOUS
10
4.58934
20
-3.4183
11
4.58914
21
-3.41818
0
LINE
8
BLACK
6
CONTINUOUS
10
4.58914
20
-3.41818
11
4.58891
21
-3.41819
0
LINE
8
BLACK
6
CONTINUOUS
10
4.58891
20
-3.41819
11
4.58828
21
-3.41769
0
LINE
8
BLACK
6
CONTINUOUS
10
4.58828
20
-3.41769
11
4.5876
21
-3.41729
0
LINE
8
BLACK
6
CONTINUOUS
10
4.5876
20
-3.41729
11
4.58751
21
-3.41707
0
LINE
8
BLACK
6
CONTINUOUS
10
4.58751
20
-3.41707
11
4.58733
21
-3.41692
0
LINE
8
BLACK
6
CONTINUOUS
10
4.58733
20
-3.41692
11
4.58718
21
-3.41614
0
LINE
8
BLACK
6
CONTINUOUS
10
4.58718
20
-3.41614
11
4.5869
21
-3.41539
0
LINE
8
BLACK
6
CONTINUOUS
10
4.5869
20
-3.41539
11
4.5869
21
-3.39102
0
LINE
8
BLACK
6
CONTINUOUS
10
4.5869
20
-3.39102
11
4.58708
21
-3.39001
0
LINE
8
BLACK
6
CONTINUOUS
10
4.58708
20
-3.39001
11
4.58838
21
-3.38846
0
LINE
8
BLACK
6
CONTINUOUS
10
4.58838
20
-3.38846
11
4.59037
21
-3.38811
0
LINE
8
BLACK
6
CONTINUOUS
10
4.59037
20
-3.38811
11
4.59212
21
-3.38912
0
LINE
8
BLACK
6
CONTINUOUS
10
4.59212
20
-3.38912
11
4.59281
21
-3.39102
0
LINE
8
BLACK
6
CONTINUOUS
10
4.59281
20
-3.39102
11
4.59281
21
-3.40888
0
LINE
8
BLACK
6
CONTINUOUS
10
4.59281
20
-3.40888
11
4.60291
21
-3.40005
0
LINE
8
BLACK
6
CONTINUOUS
10
4.60291
20
-3.40005
11
4.60329
21
-3.39982
0
LINE
8
BLACK
6
CONTINUOUS
10
4.60329
20
-3.39982
11
4.60338
21
-3.39971
0
LINE
8
BLACK
6
CONTINUOUS
10
4.60338
20
-3.39971
11
4.6035
21
-3.39969
0
LINE
8
BLACK
6
CONTINUOUS
10
4.6035
20
-3.39969
11
4.60379
21
-3.39952
0
LINE
8
BLACK
6
CONTINUOUS
10
4.60379
20
-3.39952
11
4.60458
21
-3.3995
0
LINE
8
BLACK
6
CONTINUOUS
10
4.60458
20
-3.3995
11
4.60537
21
-3.39936
0
LINE
8
BLACK
6
CONTINUOUS
10
4.60537
20
-3.39936
11
4.60557
21
-3.39948
0
LINE
8
BLACK
6
CONTINUOUS
10
4.60557
20
-3.39948
11
4.60581
21
-3.39947
0
LINE
8
BLACK
6
CONTINUOUS
10
4.60581
20
-3.39947
11
4.60643
21
-3.39997
0
LINE
8
BLACK
6
CONTINUOUS
10
4.60643
20
-3.39997
11
4.60712
21
-3.40037
0
LINE
8
BLACK
6
CONTINUOUS
10
4.60712
20
-3.40037
11
4.6072
21
-3.40059
0
LINE
8
BLACK
6
CONTINUOUS
10
4.6072
20
-3.40059
11
4.60738
21
-3.40074
0
LINE
8
BLACK
6
CONTINUOUS
10
4.60738
20
-3.40074
11
4.60754
21
-3.40152
0
LINE
8
BLACK
6
CONTINUOUS
10
4.60754
20
-3.40152
11
4.60781
21
-3.40227
0
LINE
8
BLACK
6
CONTINUOUS
10
4.60781
20
-3.40227
11
4.60781
21
-3.4072
0
LINE
8
BLACK
6
CONTINUOUS
10
4.60781
20
-3.4072
11
4.60916
21
-3.40989
0
LINE
8
BLACK
6
CONTINUOUS
10
4.60916
20
-3.40989
11
4.61035
21
-3.41109
0
LINE
8
BLACK
6
CONTINUOUS
10
4.61035
20
-3.41109
11
4.61305
21
-3.41244
0
LINE
8
BLACK
6
CONTINUOUS
10
4.61305
20
-3.41244
11
4.62103
21
-3.41244
0
LINE
8
BLACK
6
CONTINUOUS
10
4.62103
20
-3.41244
11
4.62373
21
-3.41109
0
LINE
8
BLACK
6
CONTINUOUS
10
4.62373
20
-3.41109
11
4.62493
21
-3.40989
0
LINE
8
BLACK
6
CONTINUOUS
10
4.62493
20
-3.40989
11
4.62627
21
-3.4072
0
LINE
8
BLACK
6
CONTINUOUS
10
4.62627
20
-3.4072
11
4.62627
21
-3.39734
0
LINE
8
BLACK
6
CONTINUOUS
10
4.62627
20
-3.39734
11
4.62493
21
-3.39464
0
LINE
8
BLACK
6
CONTINUOUS
10
4.62493
20
-3.39464
11
4.62339
21
-3.39311
0
LINE
8
BLACK
6
CONTINUOUS
10
4.62339
20
-3.39311
11
4.6228
21
-3.39227
0
LINE
8
BLACK
6
CONTINUOUS
10
4.6228
20
-3.39227
11
4.62263
21
-3.39026
0
LINE
8
BLACK
6
CONTINUOUS
10
4.62263
20
-3.39026
11
4.62378
21
-3.3886
0
LINE
8
BLACK
6
CONTINUOUS
10
4.62378
20
-3.3886
11
4.62574
21
-3.38808
0
LINE
8
BLACK
6
CONTINUOUS
10
4.62574
20
-3.38808
11
4.62757
21
-3.38893
0
LINE
8
BLACK
6
CONTINUOUS
10
4.61481
20
-3.35255
11
4.61495
21
-3.35253
0
LINE
8
BLACK
6
CONTINUOUS
10
4.61495
20
-3.35253
11
4.62244
21
-3.35441
0
LINE
8
BLACK
6
CONTINUOUS
10
4.62244
20
-3.35441
11
4.62291
21
-3.35462
0
LINE
8
BLACK
6
CONTINUOUS
10
4.62291
20
-3.35462
11
4.62305
21
-3.35463
0
LINE
8
BLACK
6
CONTINUOUS
10
4.62305
20
-3.35463
11
4.6268
21
-3.35651
0
LINE
8
BLACK
6
CONTINUOUS
10
4.6268
20
-3.35651
11
4.62751
21
-3.35703
0
LINE
8
BLACK
6
CONTINUOUS
10
4.62751
20
-3.35703
11
4.62757
21
-3.35706
0
LINE
8
BLACK
6
CONTINUOUS
10
4.62757
20
-3.35706
11
4.62944
21
-3.35894
0
LINE
8
BLACK
6
CONTINUOUS
10
4.62944
20
-3.35894
11
4.62995
21
-3.35966
0
LINE
8
BLACK
6
CONTINUOUS
10
4.62995
20
-3.35966
11
4.62999
21
-3.3597
0
LINE
8
BLACK
6
CONTINUOUS
10
4.62999
20
-3.3597
11
4.63187
21
-3.36345
0
LINE
8
BLACK
6
CONTINUOUS
10
4.63187
20
-3.36345
11
4.63216
21
-3.36444
0
LINE
8
BLACK
6
CONTINUOUS
10
4.63216
20
-3.36444
11
4.63212
21
-3.36461
0
LINE
8
BLACK
6
CONTINUOUS
10
4.63212
20
-3.36461
11
4.63218
21
-3.36477
0
LINE
8
BLACK
6
CONTINUOUS
10
4.63218
20
-3.36477
11
4.63218
21
-3.36852
0
LINE
8
BLACK
6
CONTINUOUS
10
4.63218
20
-3.36852
11
4.632
21
-3.36953
0
LINE
8
BLACK
6
CONTINUOUS
10
4.632
20
-3.36953
11
4.63189
21
-3.36967
0
LINE
8
BLACK
6
CONTINUOUS
10
4.63189
20
-3.36967
11
4.63187
21
-3.36984
0
LINE
8
BLACK
6
CONTINUOUS
10
4.63187
20
-3.36984
11
4.62999
21
-3.37359
0
LINE
8
BLACK
6
CONTINUOUS
10
4.62999
20
-3.37359
11
4.62947
21
-3.3743
0
LINE
8
BLACK
6
CONTINUOUS
10
4.62947
20
-3.3743
11
4.62944
21
-3.37436
0
LINE
8
BLACK
6
CONTINUOUS
10
4.62944
20
-3.37436
11
4.62757
21
-3.37623
0
LINE
8
BLACK
6
CONTINUOUS
10
4.62757
20
-3.37623
11
4.62684
21
-3.37674
0
LINE
8
BLACK
6
CONTINUOUS
10
4.62684
20
-3.37674
11
4.6268
21
-3.37679
0
LINE
8
BLACK
6
CONTINUOUS
10
4.6268
20
-3.37679
11
4.62305
21
-3.37866
0
LINE
8
BLACK
6
CONTINUOUS
10
4.62305
20
-3.37866
11
4.62256
21
-3.37881
0
LINE
8
BLACK
6
CONTINUOUS
10
4.62256
20
-3.37881
11
4.62244
21
-3.37889
0
LINE
8
BLACK
6
CONTINUOUS
10
4.62244
20
-3.37889
11
4.61495
21
-3.38076
0
LINE
8
BLACK
6
CONTINUOUS
10
4.61495
20
-3.38076
11
4.61436
21
-3.3808
0
LINE
8
BLACK
6
CONTINUOUS
10
4.61436
20
-3.3808
11
4.61423
21
-3.38085
0
LINE
8
BLACK
6
CONTINUOUS
10
4.61423
20
-3.38085
11
4.60486
21
-3.38085
0
LINE
8
BLACK
6
CONTINUOUS
10
4.60486
20
-3.38085
11
4.60428
21
-3.38075
0
LINE
8
BLACK
6
CONTINUOUS
10
4.60428
20
-3.38075
11
4.60414
21
-3.38076
0
LINE
8
BLACK
6
CONTINUOUS
10
4.60414
20
-3.38076
11
4.59664
21
-3.37889
0
LINE
8
BLACK
6
CONTINUOUS
10
4.59664
20
-3.37889
11
4.59617
21
-3.37868
0
LINE
8
BLACK
6
CONTINUOUS
10
4.59617
20
-3.37868
11
4.59604
21
-3.37866
0
LINE
8
BLACK
6
CONTINUOUS
10
4.59604
20
-3.37866
11
4.59229
21
-3.37679
0
LINE
8
BLACK
6
CONTINUOUS
10
4.59229
20
-3.37679
11
4.59158
21
-3.37626
0
LINE
8
BLACK
6
CONTINUOUS
10
4.59158
20
-3.37626
11
4.59152
21
-3.37623
0
LINE
8
BLACK
6
CONTINUOUS
10
4.59152
20
-3.37623
11
4.58964
21
-3.37436
0
LINE
8
BLACK
6
CONTINUOUS
10
4.58964
20
-3.37436
11
4.58914
21
-3.37364
0
LINE
8
BLACK
6
CONTINUOUS
10
4.58914
20
-3.37364
11
4.58909
21
-3.37359
0
LINE
8
BLACK
6
CONTINUOUS
10
4.58909
20
-3.37359
11
4.58722
21
-3.36984
0
LINE
8
BLACK
6
CONTINUOUS
10
4.58722
20
-3.36984
11
4.58692
21
-3.36886
0
LINE
8
BLACK
6
CONTINUOUS
10
4.58692
20
-3.36886
11
4.58697
21
-3.36869
0
LINE
8
BLACK
6
CONTINUOUS
10
4.58697
20
-3.36869
11
4.5869
21
-3.36852
0
LINE
8
BLACK
6
CONTINUOUS
10
4.5869
20
-3.36852
11
4.5869
21
-3.36477
0
LINE
8
BLACK
6
CONTINUOUS
10
4.5869
20
-3.36477
11
4.58708
21
-3.36376
0
LINE
8
BLACK
6
CONTINUOUS
10
4.58708
20
-3.36376
11
4.5872
21
-3.36363
0
LINE
8
BLACK
6
CONTINUOUS
10
4.5872
20
-3.36363
11
4.58722
21
-3.36345
0
LINE
8
BLACK
6
CONTINUOUS
10
4.58722
20
-3.36345
11
4.58909
21
-3.3597
0
LINE
8
BLACK
6
CONTINUOUS
10
4.58909
20
-3.3597
11
4.58962
21
-3.35899
0
LINE
8
BLACK
6
CONTINUOUS
10
4.58962
20
-3.35899
11
4.58964
21
-3.35894
0
LINE
8
BLACK
6
CONTINUOUS
10
4.58964
20
-3.35894
11
4.59152
21
-3.35706
0
LINE
8
BLACK
6
CONTINUOUS
10
4.59152
20
-3.35706
11
4.59224
21
-3.35655
0
LINE
8
BLACK
6
CONTINUOUS
10
4.59224
20
-3.35655
11
4.59229
21
-3.35651
0
LINE
8
BLACK
6
CONTINUOUS
10
4.59229
20
-3.35651
11
4.59604
21
-3.35463
0
LINE
8
BLACK
6
CONTINUOUS
10
4.59604
20
-3.35463
11
4.59652
21
-3.35449
0
LINE
8
BLACK
6
CONTINUOUS
10
4.59652
20
-3.35449
11
4.59664
21
-3.35441
0
LINE
8
BLACK
6
CONTINUOUS
10
4.59664
20
-3.35441
11
4.60414
21
-3.35253
0
LINE
8
BLACK
6
CONTINUOUS
10
4.60414
20
-3.35253
11
4.60473
21
-3.35249
0
LINE
8
BLACK
6
CONTINUOUS
10
4.60473
20
-3.35249
11
4.60486
21
-3.35245
0
LINE
8
BLACK
6
CONTINUOUS
10
4.60486
20
-3.35245
11
4.61423
21
-3.35245
0
LINE
8
BLACK
6
CONTINUOUS
10
4.61423
20
-3.35245
11
4.61481
21
-3.35255
0
LINE
8
BLACK
6
CONTINUOUS
10
4.60522
20
-3.35835
11
4.59839
21
-3.36006
0
LINE
8
BLACK
6
CONTINUOUS
10
4.59839
20
-3.36006
11
4.59536
21
-3.36158
0
LINE
8
BLACK
6
CONTINUOUS
10
4.59536
20
-3.36158
11
4.59416
21
-3.36277
0
LINE
8
BLACK
6
CONTINUOUS
10
4.59416
20
-3.36277
11
4.59281
21
-3.36547
0
LINE
8
BLACK
6
CONTINUOUS
10
4.59281
20
-3.36547
11
4.59281
21
-3.36783
0
LINE
8
BLACK
6
CONTINUOUS
10
4.59281
20
-3.36783
11
4.59416
21
-3.37052
0
LINE
8
BLACK
6
CONTINUOUS
10
4.59416
20
-3.37052
11
4.59536
21
-3.37172
0
LINE
8
BLACK
6
CONTINUOUS
10
4.59536
20
-3.37172
11
4.59839
21
-3.37324
0
LINE
8
BLACK
6
CONTINUOUS
10
4.59839
20
-3.37324
11
4.60522
21
-3.37494
0
LINE
8
BLACK
6
CONTINUOUS
10
4.60522
20
-3.37494
11
4.61387
21
-3.37494
0
LINE
8
BLACK
6
CONTINUOUS
10
4.61387
20
-3.37494
11
4.6207
21
-3.37324
0
LINE
8
BLACK
6
CONTINUOUS
10
4.6207
20
-3.37324
11
4.62373
21
-3.37172
0
LINE
8
BLACK
6
CONTINUOUS
10
4.62373
20
-3.37172
11
4.62493
21
-3.37052
0
LINE
8
BLACK
6
CONTINUOUS
10
4.62493
20
-3.37052
11
4.62627
21
-3.36783
0
LINE
8
BLACK
6
CONTINUOUS
10
4.62627
20
-3.36783
11
4.62627
21
-3.36547
0
LINE
8
BLACK
6
CONTINUOUS
10
4.62627
20
-3.36547
11
4.62493
21
-3.36277
0
LINE
8
BLACK
6
CONTINUOUS
10
4.62493
20
-3.36277
11
4.62373
21
-3.36158
0
LINE
8
BLACK
6
CONTINUOUS
10
4.62373
20
-3.36158
11
4.6207
21
-3.36006
0
LINE
8
BLACK
6
CONTINUOUS
10
4.6207
20
-3.36006
11
4.61387
21
-3.35835
0
LINE
8
BLACK
6
CONTINUOUS
10
4.61387
20
-3.35835
11
4.60522
21
-3.35835
0
LINE
8
BLACK
6
CONTINUOUS
10
4.60481
20
-3.31933
11
4.6161
21
-3.32821
0
LINE
8
BLACK
6
CONTINUOUS
10
4.6161
20
-3.32821
11
4.6274
21
-3.31933
0
LINE
8
BLACK
6
CONTINUOUS
10
4.6274
20
-3.31933
11
4.62831
21
-3.31885
0
LINE
8
BLACK
6
CONTINUOUS
10
4.62831
20
-3.31885
11
4.63033
21
-3.31891
0
LINE
8
BLACK
6
CONTINUOUS
10
4.63033
20
-3.31891
11
4.63183
21
-3.32026
0
LINE
8
BLACK
6
CONTINUOUS
10
4.63183
20
-3.32026
11
4.63212
21
-3.32226
0
LINE
8
BLACK
6
CONTINUOUS
10
4.63212
20
-3.32226
11
4.63105
21
-3.32398
0
LINE
8
BLACK
6
CONTINUOUS
10
4.63105
20
-3.32398
11
4.62088
21
-3.33196
0
LINE
8
BLACK
6
CONTINUOUS
10
4.62088
20
-3.33196
11
4.63105
21
-3.33995
0
LINE
8
BLACK
6
CONTINUOUS
10
4.63105
20
-3.33995
11
4.63174
21
-3.34072
0
LINE
8
BLACK
6
CONTINUOUS
10
4.63174
20
-3.34072
11
4.63215
21
-3.34269
0
LINE
8
BLACK
6
CONTINUOUS
10
4.63215
20
-3.34269
11
4.6312
21
-3.34448
0
LINE
8
BLACK
6
CONTINUOUS
10
4.6312
20
-3.34448
11
4.62932
21
-3.34523
0
LINE
8
BLACK
6
CONTINUOUS
10
4.62932
20
-3.34523
11
4.6274
21
-3.3446
0
LINE
8
BLACK
6
CONTINUOUS
10
4.6274
20
-3.3446
11
4.6161
21
-3.33572
0
LINE
8
BLACK
6
CONTINUOUS
10
4.6161
20
-3.33572
11
4.60481
21
-3.3446
0
LINE
8
BLACK
6
CONTINUOUS
10
4.60481
20
-3.3446
11
4.6039
21
-3.34508
0
LINE
8
BLACK
6
CONTINUOUS
10
4.6039
20
-3.34508
11
4.60188
21
-3.34502
0
LINE
8
BLACK
6
CONTINUOUS
10
4.60188
20
-3.34502
11
4.60038
21
-3.34367
0
LINE
8
BLACK
6
CONTINUOUS
10
4.60038
20
-3.34367
11
4.60009
21
-3.34167
0
LINE
8
BLACK
6
CONTINUOUS
10
4.60009
20
-3.34167
11
4.60116
21
-3.33995
0
LINE
8
BLACK
6
CONTINUOUS
10
4.60116
20
-3.33995
11
4.61132
21
-3.33196
0
LINE
8
BLACK
6
CONTINUOUS
10
4.61132
20
-3.33196
11
4.60116
21
-3.32398
0
LINE
8
BLACK
6
CONTINUOUS
10
4.60116
20
-3.32398
11
4.60047
21
-3.32321
0
LINE
8
BLACK
6
CONTINUOUS
10
4.60047
20
-3.32321
11
4.60006
21
-3.32123
0
LINE
8
BLACK
6
CONTINUOUS
10
4.60006
20
-3.32123
11
4.60101
21
-3.31945
0
LINE
8
BLACK
6
CONTINUOUS
10
4.60101
20
-3.31945
11
4.60289
21
-3.3187
0
LINE
8
BLACK
6
CONTINUOUS
10
4.60289
20
-3.3187
11
4.60481
21
-3.31933
0
LINE
8
BLACK
6
CONTINUOUS
10
4.95512
20
-3.17323
11
4.95512
21
-3.23583
0
LINE
8
BLACK
6
CONTINUOUS
10
4.95512
20
-3.23583
11
4.95454
21
-3.23722
0
LINE
8
BLACK
6
CONTINUOUS
10
4.95454
20
-3.23722
11
4.91772
21
-3.27404
0
LINE
8
BLACK
6
CONTINUOUS
10
4.91772
20
-3.27404
11
4.91772
21
-3.32323
0
LINE
8
BLACK
6
CONTINUOUS
10
4.91772
20
-3.32323
11
4.91714
21
-3.32462
0
LINE
8
BLACK
6
CONTINUOUS
10
4.91714
20
-3.32462
11
4.91575
21
-3.3252
0
LINE
8
BLACK
6
CONTINUOUS
10
4.91575
20
-3.3252
11
4.89055
21
-3.3252
0
LINE
8
BLACK
6
CONTINUOUS
10
4.89055
20
-3.3252
11
4.88916
21
-3.32462
0
LINE
8
BLACK
6
CONTINUOUS
10
4.88916
20
-3.32462
11
4.88858
21
-3.32323
0
LINE
8
BLACK
6
CONTINUOUS
10
4.88858
20
-3.32323
11
4.88858
21
-3.2752
0
LINE
8
BLACK
6
CONTINUOUS
10
4.88858
20
-3.2752
11
4.71772
21
-3.2752
0
LINE
8
BLACK
6
CONTINUOUS
10
4.71772
20
-3.2752
11
4.71772
21
-3.32323
0
LINE
8
BLACK
6
CONTINUOUS
10
4.71772
20
-3.32323
11
4.71714
21
-3.32462
0
LINE
8
BLACK
6
CONTINUOUS
10
4.71714
20
-3.32462
11
4.71575
21
-3.3252
0
LINE
8
BLACK
6
CONTINUOUS
10
4.71575
20
-3.3252
11
4.69055
21
-3.3252
0
LINE
8
BLACK
6
CONTINUOUS
10
4.69055
20
-3.3252
11
4.68916
21
-3.32462
0
LINE
8
BLACK
6
CONTINUOUS
10
4.68916
20
-3.32462
11
4.68858
21
-3.32323
0
LINE
8
BLACK
6
CONTINUOUS
10
4.68858
20
-3.32323
11
4.68858
21
-3.2752
0
LINE
8
BLACK
6
CONTINUOUS
10
4.68858
20
-3.2752
11
4.65315
21
-3.2752
0
LINE
8
BLACK
6
CONTINUOUS
10
4.65315
20
-3.2752
11
4.65176
21
-3.27462
0
LINE
8
BLACK
6
CONTINUOUS
10
4.65176
20
-3.27462
11
4.65118
21
-3.27323
0
LINE
8
BLACK
6
CONTINUOUS
10
4.65118
20
-3.27323
11
4.65118
21
-3.17323
0
LINE
8
BLACK
6
CONTINUOUS
10
4.65118
20
-3.17323
11
4.65176
21
-3.17184
0
LINE
8
BLACK
6
CONTINUOUS
10
4.65176
20
-3.17184
11
4.65315
21
-3.17126
0
LINE
8
BLACK
6
CONTINUOUS
10
4.65315
20
-3.17126
11
4.78858
21
-3.17126
0
LINE
8
BLACK
6
CONTINUOUS
10
4.78858
20
-3.17126
11
4.78858
21
-3.12323
0
LINE
8
BLACK
6
CONTINUOUS
10
4.78858
20
-3.12323
11
4.78916
21
-3.12184
0
LINE
8
BLACK
6
CONTINUOUS
10
4.78916
20
-3.12184
11
4.79055
21
-3.12126
0
LINE
8
BLACK
6
CONTINUOUS
10
4.79055
20
-3.12126
11
4.81575
21
-3.12126
0
LINE
8
BLACK
6
CONTINUOUS
10
4.81575
20
-3.12126
11
4.81714
21
-3.12184
0
LINE
8
BLACK
6
CONTINUOUS
10
4.81714
20
-3.12184
11
4.81772
21
-3.12323
0
LINE
8
BLACK
6
CONTINUOUS
10
4.81772
20
-3.12323
11
4.81772
21
-3.17126
0
LINE
8
BLACK
6
CONTINUOUS
10
4.81772
20
-3.17126
11
4.95315
21
-3.17126
0
LINE
8
BLACK
6
CONTINUOUS
10
4.95315
20
-3.17126
11
4.95454
21
-3.17184
0
LINE
8
BLACK
6
CONTINUOUS
10
4.95454
20
-3.17184
11
4.95512
21
-3.17323
0
LINE
8
BLACK
6
CONTINUOUS
10
4.89252
20
-3.2752
11
4.89252
21
-3.32126
0
LINE
8
BLACK
6
CONTINUOUS
10
4.89252
20
-3.32126
11
4.91378
21
-3.32126
0
LINE
8
BLACK
6
CONTINUOUS
10
4.91378
20
-3.32126
11
4.91378
21
-3.2752
0
LINE
8
BLACK
6
CONTINUOUS
10
4.91378
20
-3.2752
11
4.89252
21
-3.2752
0
LINE
8
BLACK
6
CONTINUOUS
10
4.69252
20
-3.2752
11
4.69252
21
-3.32126
0
LINE
8
BLACK
6
CONTINUOUS
10
4.69252
20
-3.32126
11
4.71378
21
-3.32126
0
LINE
8
BLACK
6
CONTINUOUS
10
4.71378
20
-3.32126
11
4.71378
21
-3.2752
0
LINE
8
BLACK
6
CONTINUOUS
10
4.71378
20
-3.2752
11
4.69252
21
-3.2752
0
LINE
8
BLACK
6
CONTINUOUS
10
4.65512
20
-3.27126
11
4.91493
21
-3.27126
0
LINE
8
BLACK
6
CONTINUOUS
10
4.91493
20
-3.27126
11
4.95118
21
-3.23501
0
LINE
8
BLACK
6
CONTINUOUS
10
4.95118
20
-3.23501
11
4.95118
21
-3.1752
0
LINE
8
BLACK
6
CONTINUOUS
10
4.95118
20
-3.1752
11
4.65512
21
-3.1752
0
LINE
8
BLACK
6
CONTINUOUS
10
4.65512
20
-3.1752
11
4.65512
21
-3.27126
0
LINE
8
BLACK
6
CONTINUOUS
10
4.79252
20
-3.1252
11
4.79252
21
-3.17126
0
LINE
8
BLACK
6
CONTINUOUS
10
4.79252
20
-3.17126
11
4.81378
21
-3.17126
0
LINE
8
BLACK
6
CONTINUOUS
10
4.81378
20
-3.17126
11
4.81378
21
-3.1252
0
LINE
8
BLACK
6
CONTINUOUS
10
4.81378
20
-3.1252
11
4.79252
21
-3.1252
0
LINE
8
BLACK
6
CONTINUOUS
10
4.78881
20
-3.19885
11
4.78898
21
-3.19883
0
LINE
8
BLACK
6
CONTINUOUS
10
4.78898
20
-3.19883
11
4.78967
21
-3.19934
0
LINE
8
BLACK
6
CONTINUOUS
10
4.78967
20
-3.19934
11
4.79041
21
-3.19977
0
LINE
8
BLACK
6
CONTINUOUS
10
4.79041
20
-3.19977
11
4.79047
21
-3.19993
0
LINE
8
BLACK
6
CONTINUOUS
10
4.79047
20
-3.19993
11
4.79061
21
-3.20003
0
LINE
8
BLACK
6
CONTINUOUS
10
4.79061
20
-3.20003
11
4.7942
21
-3.20541
0
LINE
8
BLACK
6
CONTINUOUS
10
4.7942
20
-3.20541
11
4.7974
21
-3.20862
0
LINE
8
BLACK
6
CONTINUOUS
10
4.7974
20
-3.20862
11
4.80072
21
-3.21028
0
LINE
8
BLACK
6
CONTINUOUS
10
4.80072
20
-3.21028
11
4.80154
21
-3.21089
0
LINE
8
BLACK
6
CONTINUOUS
10
4.80154
20
-3.21089
11
4.80235
21
-3.21274
0
LINE
8
BLACK
6
CONTINUOUS
10
4.80235
20
-3.21274
11
4.80177
21
-3.21468
0
LINE
8
BLACK
6
CONTINUOUS
10
4.80177
20
-3.21468
11
4.80009
21
-3.21579
0
LINE
8
BLACK
6
CONTINUOUS
10
4.80009
20
-3.21579
11
4.79808
21
-3.21556
0
LINE
8
BLACK
6
CONTINUOUS
10
4.79808
20
-3.21556
11
4.79433
21
-3.21368
0
LINE
8
BLACK
6
CONTINUOUS
10
4.79433
20
-3.21368
11
4.79362
21
-3.21316
0
LINE
8
BLACK
6
CONTINUOUS
10
4.79362
20
-3.21316
11
4.79356
21
-3.21313
0
LINE
8
BLACK
6
CONTINUOUS
10
4.79356
20
-3.21313
11
4.7911
21
-3.21067
0
LINE
8
BLACK
6
CONTINUOUS
10
4.7911
20
-3.21067
11
4.7911
21
-3.23809
0
LINE
8
BLACK
6
CONTINUOUS
10
4.7911
20
-3.23809
11
4.7994
21
-3.23809
0
LINE
8
BLACK
6
CONTINUOUS
10
4.7994
20
-3.23809
11
4.80041
21
-3.23826
0
LINE
8
BLACK
6
CONTINUOUS
10
4.80041
20
-3.23826
11
4.80196
21
-3.23956
0
LINE
8
BLACK
6
CONTINUOUS
10
4.80196
20
-3.23956
11
4.80231
21
-3.24155
0
LINE
8
BLACK
6
CONTINUOUS
10
4.80231
20
-3.24155
11
4.8013
21
-3.2433
0
LINE
8
BLACK
6
CONTINUOUS
10
4.8013
20
-3.2433
11
4.7994
21
-3.24399
0
LINE
8
BLACK
6
CONTINUOUS
10
4.7994
20
-3.24399
11
4.7769
21
-3.24399
0
LINE
8
BLACK
6
CONTINUOUS
10
4.7769
20
-3.24399
11
4.77589
21
-3.24381
0
LINE
8
BLACK
6
CONTINUOUS
10
4.77589
20
-3.24381
11
4.77435
21
-3.24251
0
LINE
8
BLACK
6
CONTINUOUS
10
4.77435
20
-3.24251
11
4.77399
21
-3.24053
0
LINE
8
BLACK
6
CONTINUOUS
10
4.77399
20
-3.24053
11
4.775
21
-3.23878
0
LINE
8
BLACK
6
CONTINUOUS
10
4.775
20
-3.23878
11
4.7769
21
-3.23809
0
LINE
8
BLACK
6
CONTINUOUS
10
4.7769
20
-3.23809
11
4.7852
21
-3.23809
0
LINE
8
BLACK
6
CONTINUOUS
10
4.7852
20
-3.23809
11
4.7852
21
-3.20167
0
LINE
8
BLACK
6
CONTINUOUS
10
4.7852
20
-3.20167
11
4.78538
21
-3.20066
0
LINE
8
BLACK
6
CONTINUOUS
10
4.78538
20
-3.20066
11
4.78549
21
-3.20053
0
LINE
8
BLACK
6
CONTINUOUS
10
4.78549
20
-3.20053
11
4.7855
21
-3.20036
0
LINE
8
BLACK
6
CONTINUOUS
10
4.7855
20
-3.20036
11
4.78612
21
-3.19977
0
LINE
8
BLACK
6
CONTINUOUS
10
4.78612
20
-3.19977
11
4.78668
21
-3.19911
0
LINE
8
BLACK
6
CONTINUOUS
10
4.78668
20
-3.19911
11
4.78684
21
-3.19908
0
LINE
8
BLACK
6
CONTINUOUS
10
4.78684
20
-3.19908
11
4.78697
21
-3.19896
0
LINE
8
BLACK
6
CONTINUOUS
10
4.78697
20
-3.19896
11
4.78782
21
-3.19891
0
LINE
8
BLACK
6
CONTINUOUS
10
4.78782
20
-3.19891
11
4.78866
21
-3.19876
0
LINE
8
BLACK
6
CONTINUOUS
10
4.78866
20
-3.19876
11
4.78881
21
-3.19885
0
LINE
8
BLACK
6
CONTINUOUS
10
4.81853
20
-3.19977
11
4.81923
21
-3.20167
0
LINE
8
BLACK
6
CONTINUOUS
10
4.81923
20
-3.20167
11
4.81923
21
-3.22931
0
LINE
8
BLACK
6
CONTINUOUS
10
4.81923
20
-3.22931
11
4.82073
21
-3.23382
0
LINE
8
BLACK
6
CONTINUOUS
10
4.82073
20
-3.23382
11
4.82349
21
-3.23658
0
LINE
8
BLACK
6
CONTINUOUS
10
4.82349
20
-3.23658
11
4.828
21
-3.23809
0
LINE
8
BLACK
6
CONTINUOUS
10
4.828
20
-3.23809
11
4.83127
21
-3.23809
0
LINE
8
BLACK
6
CONTINUOUS
10
4.83127
20
-3.23809
11
4.83228
21
-3.23826
0
LINE
8
BLACK
6
CONTINUOUS
10
4.83228
20
-3.23826
11
4.83383
21
-3.23956
0
LINE
8
BLACK
6
CONTINUOUS
10
4.83383
20
-3.23956
11
4.83418
21
-3.24155
0
LINE
8
BLACK
6
CONTINUOUS
10
4.83418
20
-3.24155
11
4.83317
21
-3.2433
0
LINE
8
BLACK
6
CONTINUOUS
10
4.83317
20
-3.2433
11
4.83127
21
-3.24399
0
LINE
8
BLACK
6
CONTINUOUS
10
4.83127
20
-3.24399
11
4.82752
21
-3.24399
0
LINE
8
BLACK
6
CONTINUOUS
10
4.82752
20
-3.24399
11
4.82665
21
-3.24384
0
LINE
8
BLACK
6
CONTINUOUS
10
4.82665
20
-3.24384
11
4.82659
21
-3.24384
0
LINE
8
BLACK
6
CONTINUOUS
10
4.82659
20
-3.24384
11
4.82096
21
-3.24197
0
LINE
8
BLACK
6
CONTINUOUS
10
4.82096
20
-3.24197
11
4.82006
21
-3.24148
0
LINE
8
BLACK
6
CONTINUOUS
10
4.82006
20
-3.24148
11
4.81997
21
-3.24133
0
LINE
8
BLACK
6
CONTINUOUS
10
4.81997
20
-3.24133
11
4.81981
21
-3.24125
0
LINE
8
BLACK
6
CONTINUOUS
10
4.81981
20
-3.24125
11
4.81606
21
-3.2375
0
LINE
8
BLACK
6
CONTINUOUS
10
4.81606
20
-3.2375
11
4.81547
21
-3.23666
0
LINE
8
BLACK
6
CONTINUOUS
10
4.81547
20
-3.23666
11
4.81546
21
-3.23649
0
LINE
8
BLACK
6
CONTINUOUS
10
4.81546
20
-3.23649
11
4.81535
21
-3.23635
0
LINE
8
BLACK
6
CONTINUOUS
10
4.81535
20
-3.23635
11
4.81347
21
-3.23072
0
LINE
8
BLACK
6
CONTINUOUS
10
4.81347
20
-3.23072
11
4.81334
21
-3.22985
0
LINE
8
BLACK
6
CONTINUOUS
10
4.81334
20
-3.22985
11
4.81332
21
-3.22979
0
LINE
8
BLACK
6
CONTINUOUS
10
4.81332
20
-3.22979
11
4.81332
21
-3.20167
0
LINE
8
BLACK
6
CONTINUOUS
10
4.81332
20
-3.20167
11
4.8135
21
-3.20066
0
LINE
8
BLACK
6
CONTINUOUS
10
4.8135
20
-3.20066
11
4.8148
21
-3.19911
0
LINE
8
BLACK
6
CONTINUOUS
10
4.8148
20
-3.19911
11
4.81679
21
-3.19876
0
LINE
8
BLACK
6
CONTINUOUS
10
4.81679
20
-3.19876
11
4.81853
21
-3.19977
0
LINE
8
BLACK
6
CONTINUOUS
10
4.60287
20
-3.28366
11
4.60398
21
-3.28535
0
LINE
8
BLACK
6
CONTINUOUS
10
4.60398
20
-3.28535
11
4.60375
21
-3.28735
0
LINE
8
BLACK
6
CONTINUOUS
10
4.60375
20
-3.28735
11
4.60187
21
-3.2911
0
LINE
8
BLACK
6
CONTINUOUS
10
4.60187
20
-3.2911
11
4.60135
21
-3.29181
0
LINE
8
BLACK
6
CONTINUOUS
10
4.60135
20
-3.29181
11
4.60132
21
-3.29187
0
LINE
8
BLACK
6
CONTINUOUS
10
4.60132
20
-3.29187
11
4.59886
21
-3.29433
0
LINE
8
BLACK
6
CONTINUOUS
10
4.59886
20
-3.29433
11
4.62627
21
-3.29433
0
LINE
8
BLACK
6
CONTINUOUS
10
4.62627
20
-3.29433
11
4.62627
21
-3.28603
0
LINE
8
BLACK
6
CONTINUOUS
10
4.62627
20
-3.28603
11
4.62645
21
-3.28502
0
LINE
8
BLACK
6
CONTINUOUS
10
4.62645
20
-3.28502
11
4.62775
21
-3.28348
0
LINE
8
BLACK
6
CONTINUOUS
10
4.62775
20
-3.28348
11
4.62974
21
-3.28313
0
LINE
8
BLACK
6
CONTINUOUS
10
4.62974
20
-3.28313
11
4.63149
21
-3.28414
0
LINE
8
BLACK
6
CONTINUOUS
10
4.63149
20
-3.28414
11
4.63218
21
-3.28603
0
LINE
8
BLACK
6
CONTINUOUS
10
4.63218
20
-3.28603
11
4.63218
21
-3.30853
0
LINE
8
BLACK
6
CONTINUOUS
10
4.63218
20
-3.30853
11
4.632
21
-3.30954
0
LINE
8
BLACK
6
CONTINUOUS
10
4.632
20
-3.30954
11
4.6307
21
-3.31109
0
LINE
8
BLACK
6
CONTINUOUS
10
4.6307
20
-3.31109
11
4.62871
21
-3.31144
0
LINE
8
BLACK
6
CONTINUOUS
10
4.62871
20
-3.31144
11
4.62697
21
-3.31043
0
LINE
8
BLACK
6
CONTINUOUS
10
4.62697
20
-3.31043
11
4.62627
21
-3.30853
0
LINE
8
BLACK
6
CONTINUOUS
10
4.62627
20
-3.30853
11
4.62627
21
-3.30023
0
LINE
8
BLACK
6
CONTINUOUS
10
4.62627
20
-3.30023
11
4.58986
21
-3.30023
0
LINE
8
BLACK
6
CONTINUOUS
10
4.58986
20
-3.30023
11
4.58885
21
-3.30006
0
LINE
8
BLACK
6
CONTINUOUS
10
4.58885
20
-3.30006
11
4.58872
21
-3.29995
0
LINE
8
BLACK
6
CONTINUOUS
10
4.58872
20
-3.29995
11
4.58855
21
-3.29993
0
LINE
8
BLACK
6
CONTINUOUS
10
4.58855
20
-3.29993
11
4.58796
21
-3.29931
0
LINE
8
BLACK
6
CONTINUOUS
10
4.58796
20
-3.29931
11
4.5873
21
-3.29876
0
LINE
8
BLACK
6
CONTINUOUS
10
4.5873
20
-3.29876
11
4.58727
21
-3.29859
0
LINE
8
BLACK
6
CONTINUOUS
10
4.58727
20
-3.29859
11
4.58715
21
-3.29847
0
LINE
8
BLACK
6
CONTINUOUS
10
4.58715
20
-3.29847
11
4.5871
21
-3.29761
0
LINE
8
BLACK
6
CONTINUOUS
10
4.5871
20
-3.29761
11
4.58695
21
-3.29677
0
LINE
8
BLACK
6
CONTINUOUS
10
4.58695
20
-3.29677
11
4.58703
21
-3.29662
0
LINE
8
BLACK
6
CONTINUOUS
10
4.58703
20
-3.29662
11
4.58702
21
-3.29645
0
LINE
8
BLACK
6
CONTINUOUS
10
4.58702
20
-3.29645
11
4.58753
21
-3.29576
0
LINE
8
BLACK
6
CONTINUOUS
10
4.58753
20
-3.29576
11
4.58796
21
-3.29502
0
LINE
8
BLACK
6
CONTINUOUS
10
4.58796
20
-3.29502
11
4.58812
21
-3.29496
0
LINE
8
BLACK
6
CONTINUOUS
10
4.58812
20
-3.29496
11
4.58822
21
-3.29482
0
LINE
8
BLACK
6
CONTINUOUS
10
4.58822
20
-3.29482
11
4.5936
21
-3.29124
0
LINE
8
BLACK
6
CONTINUOUS
10
4.5936
20
-3.29124
11
4.5968
21
-3.28803
0
LINE
8
BLACK
6
CONTINUOUS
10
4.5968
20
-3.28803
11
4.59847
21
-3.28471
0
LINE
8
BLACK
6
CONTINUOUS
10
4.59847
20
-3.28471
11
4.59908
21
-3.28389
0
LINE
8
BLACK
6
CONTINUOUS
10
4.59908
20
-3.28389
11
4.60093
21
-3.28309
0
LINE
8
BLACK
6
CONTINUOUS
10
4.60093
20
-3.28309
11
4.60287
21
-3.28366
0
LINE
8
BLACK
6
CONTINUOUS
10
4.63524
20
-3.24664
11
4.63593
21
-3.24854
0
LINE
8
BLACK
6
CONTINUOUS
10
4.63593
20
-3.24854
11
4.63593
21
-3.27853
0
LINE
8
BLACK
6
CONTINUOUS
10
4.63593
20
-3.27853
11
4.63575
21
-3.27954
0
LINE
8
BLACK
6
CONTINUOUS
10
4.63575
20
-3.27954
11
4.63445
21
-3.28109
0
LINE
8
BLACK
6
CONTINUOUS
10
4.63445
20
-3.28109
11
4.63246
21
-3.28144
0
LINE
8
BLACK
6
CONTINUOUS
10
4.63246
20
-3.28144
11
4.63072
21
-3.28043
0
LINE
8
BLACK
6
CONTINUOUS
10
4.63072
20
-3.28043
11
4.63002
21
-3.27853
0
LINE
8
BLACK
6
CONTINUOUS
10
4.63002
20
-3.27853
11
4.63002
21
-3.24854
0
LINE
8
BLACK
6
CONTINUOUS
10
4.63002
20
-3.24854
11
4.6302
21
-3.24753
0
LINE
8
BLACK
6
CONTINUOUS
10
4.6302
20
-3.24753
11
4.6315
21
-3.24598
0
LINE
8
BLACK
6
CONTINUOUS
10
4.6315
20
-3.24598
11
4.63349
21
-3.24563
0
LINE
8
BLACK
6
CONTINUOUS
10
4.63349
20
-3.24563
11
4.63524
21
-3.24664
0
LINE
8
BLACK
6
CONTINUOUS
10
4.63024
20
-3.21577
11
4.63178
21
-3.21707
0
LINE
8
BLACK
6
CONTINUOUS
10
4.63178
20
-3.21707
11
4.63214
21
-3.21905
0
LINE
8
BLACK
6
CONTINUOUS
10
4.63214
20
-3.21905
11
4.63113
21
-3.2208
0
LINE
8
BLACK
6
CONTINUOUS
10
4.63113
20
-3.2208
11
4.62923
21
-3.22149
0
LINE
8
BLACK
6
CONTINUOUS
10
4.62923
20
-3.22149
11
4.61343
21
-3.22149
0
LINE
8
BLACK
6
CONTINUOUS
10
4.61343
20
-3.22149
11
4.61343
21
-3.22638
0
LINE
8
BLACK
6
CONTINUOUS
10
4.61343
20
-3.22638
11
4.63092
21
-3.23862
0
LINE
8
BLACK
6
CONTINUOUS
10
4.63092
20
-3.23862
11
4.63165
21
-3.23934
0
LINE
8
BLACK
6
CONTINUOUS
10
4.63165
20
-3.23934
11
4.63217
21
-3.2413
0
LINE
8
BLACK
6
CONTINUOUS
10
4.63217
20
-3.2413
11
4.63132
21
-3.24313
0
LINE
8
BLACK
6
CONTINUOUS
10
4.63132
20
-3.24313
11
4.62949
21
-3.24398
0
LINE
8
BLACK
6
CONTINUOUS
10
4.62949
20
-3.24398
11
4.62753
21
-3.24346
0
LINE
8
BLACK
6
CONTINUOUS
10
4.62753
20
-3.24346
11
4.61343
21
-3.23358
0
LINE
8
BLACK
6
CONTINUOUS
10
4.61343
20
-3.23358
11
4.61325
21
-3.23455
0
LINE
8
BLACK
6
CONTINUOUS
10
4.61325
20
-3.23455
11
4.61314
21
-3.23468
0
LINE
8
BLACK
6
CONTINUOUS
10
4.61314
20
-3.23468
11
4.61312
21
-3.23486
0
LINE
8
BLACK
6
CONTINUOUS
10
4.61312
20
-3.23486
11
4.61125
21
-3.23861
0
LINE
8
BLACK
6
CONTINUOUS
10
4.61125
20
-3.23861
11
4.61072
21
-3.23932
0
LINE
8
BLACK
6
CONTINUOUS
10
4.61072
20
-3.23932
11
4.61069
21
-3.23938
0
LINE
8
BLACK
6
CONTINUOUS
10
4.61069
20
-3.23938
11
4.60882
21
-3.24125
0
LINE
8
BLACK
6
CONTINUOUS
10
4.60882
20
-3.24125
11
4.6081
21
-3.24176
0
LINE
8
BLACK
6
CONTINUOUS
10
4.6081
20
-3.24176
11
4.60805
21
-3.2418
0
LINE
8
BLACK
6
CONTINUOUS
10
4.60805
20
-3.2418
11
4.6043
21
-3.24368
0
LINE
8
BLACK
6
CONTINUOUS
10
4.6043
20
-3.24368
11
4.60332
21
-3.24397
0
LINE
8
BLACK
6
CONTINUOUS
10
4.60332
20
-3.24397
11
4.60315
21
-3.24393
0
LINE
8
BLACK
6
CONTINUOUS
10
4.60315
20
-3.24393
11
4.60298
21
-3.24399
0
LINE
8
BLACK
6
CONTINUOUS
10
4.60298
20
-3.24399
11
4.59736
21
-3.24399
0
LINE
8
BLACK
6
CONTINUOUS
10
4.59736
20
-3.24399
11
4.59635
21
-3.24381
0
LINE
8
BLACK
6
CONTINUOUS
10
4.59635
20
-3.24381
11
4.59621
21
-3.2437
0
LINE
8
BLACK
6
CONTINUOUS
10
4.59621
20
-3.2437
11
4.59604
21
-3.24368
0
LINE
8
BLACK
6
CONTINUOUS
10
4.59604
20
-3.24368
11
4.59229
21
-3.2418
0
LINE
8
BLACK
6
CONTINUOUS
10
4.59229
20
-3.2418
11
4.59158
21
-3.24128
0
LINE
8
BLACK
6
CONTINUOUS
10
4.59158
20
-3.24128
11
4.59152
21
-3.24125
0
LINE
8
BLACK
6
CONTINUOUS
10
4.59152
20
-3.24125
11
4.58964
21
-3.23938
0
LINE
8
BLACK
6
CONTINUOUS
10
4.58964
20
-3.23938
11
4.58914
21
-3.23865
0
LINE
8
BLACK
6
CONTINUOUS
10
4.58914
20
-3.23865
11
4.58909
21
-3.23861
0
LINE
8
BLACK
6
CONTINUOUS
10
4.58909
20
-3.23861
11
4.58722
21
-3.23486
0
LINE
8
BLACK
6
CONTINUOUS
10
4.58722
20
-3.23486
11
4.58692
21
-3.23388
0
LINE
8
BLACK
6
CONTINUOUS
10
4.58692
20
-3.23388
11
4.58697
21
-3.23371
0
LINE
8
BLACK
6
CONTINUOUS
10
4.58697
20
-3.23371
11
4.5869
21
-3.23354
0
LINE
8
BLACK
6
CONTINUOUS
10
4.5869
20
-3.23354
11
4.5869
21
-3.21854
0
LINE
8
BLACK
6
CONTINUOUS
10
4.5869
20
-3.21854
11
4.58697
21
-3.21816
0
LINE
8
BLACK
6
CONTINUOUS
10
4.58697
20
-3.21816
11
4.58695
21
-3.21803
0
LINE
8
BLACK
6
CONTINUOUS
10
4.58695
20
-3.21803
11
4.58702
21
-3.21792
0
LINE
8
BLACK
6
CONTINUOUS
10
4.58702
20
-3.21792
11
4.58708
21
-3.21753
0
LINE
8
BLACK
6
CONTINUOUS
10
4.58708
20
-3.21753
11
4.58758
21
-3.21694
0
LINE
8
BLACK
6
CONTINUOUS
10
4.58758
20
-3.21694
11
4.58796
21
-3.21628
0
LINE
8
BLACK
6
CONTINUOUS
10
4.58796
20
-3.21628
11
4.58821
21
-3.21619
0
LINE
8
BLACK
6
CONTINUOUS
10
4.58821
20
-3.21619
11
4.58838
21
-3.21598
0
LINE
8
BLACK
6
CONTINUOUS
10
4.58838
20
-3.21598
11
4.58914
21
-3.21585
0
LINE
8
BLACK
6
CONTINUOUS
10
4.58914
20
-3.21585
11
4.58986
21
-3.21559
0
LINE
8
BLACK
6
CONTINUOUS
10
4.58986
20
-3.21559
11
4.62923
21
-3.21559
0
LINE
8
BLACK
6
CONTINUOUS
10
4.62923
20
-3.21559
11
4.63024
21
-3.21577
0
LINE
8
BLACK
6
CONTINUOUS
10
4.59281
20
-3.22149
11
4.59281
21
-3.23284
0
LINE
8
BLACK
6
CONTINUOUS
10
4.59281
20
-3.23284
11
4.59416
21
-3.23554
0
LINE
8
BLACK
6
CONTINUOUS
10
4.59416
20
-3.23554
11
4.59536
21
-3.23674
0
LINE
8
BLACK
6
CONTINUOUS
10
4.59536
20
-3.23674
11
4.59805
21
-3.23809
0
LINE
8
BLACK
6
CONTINUOUS
10
4.59805
20
-3.23809
11
4.60228
21
-3.23809
0
LINE
8
BLACK
6
CONTINUOUS
10
4.60228
20
-3.23809
11
4.60498
21
-3.23674
0
LINE
8
BLACK
6
CONTINUOUS
10
4.60498
20
-3.23674
11
4.60618
21
-3.23554
0
LINE
8
BLACK
6
CONTINUOUS
10
4.60618
20
-3.23554
11
4.60753
21
-3.23284
0
LINE
8
BLACK
6
CONTINUOUS
10
4.60753
20
-3.23284
11
4.60753
21
-3.22149
0
LINE
8
BLACK
6
CONTINUOUS
10
4.60753
20
-3.22149
11
4.59281
21
-3.22149
0
LINE
8
BLACK
6
CONTINUOUS
10
4.62961
20
-3.18004
11
4.62974
21
-3.18001
0
LINE
8
BLACK
6
CONTINUOUS
10
4.62974
20
-3.18001
11
4.62985
21
-3.18008
0
LINE
8
BLACK
6
CONTINUOUS
10
4.62985
20
-3.18008
11
4.63024
21
-3.18015
0
LINE
8
BLACK
6
CONTINUOUS
10
4.63024
20
-3.18015
11
4.63083
21
-3.18064
0
LINE
8
BLACK
6
CONTINUOUS
10
4.63083
20
-3.18064
11
4.63149
21
-3.18102
0
LINE
8
BLACK
6
CONTINUOUS
10
4.63149
20
-3.18102
11
4.63158
21
-3.18127
0
LINE
8
BLACK
6
CONTINUOUS
10
4.63158
20
-3.18127
11
4.63178
21
-3.18144
0
LINE
8
BLACK
6
CONTINUOUS
10
4.63178
20
-3.18144
11
4.63192
21
-3.1822
0
LINE
8
BLACK
6
CONTINUOUS
10
4.63192
20
-3.1822
11
4.63218
21
-3.18292
0
LINE
8
BLACK
6
CONTINUOUS
10
4.63218
20
-3.18292
11
4.63218
21
-3.20167
0
LINE
8
BLACK
6
CONTINUOUS
10
4.63218
20
-3.20167
11
4.632
21
-3.20268
0
LINE
8
BLACK
6
CONTINUOUS
10
4.632
20
-3.20268
11
4.6307
21
-3.20423
0
LINE
8
BLACK
6
CONTINUOUS
10
4.6307
20
-3.20423
11
4.62871
21
-3.20458
0
LINE
8
BLACK
6
CONTINUOUS
10
4.62871
20
-3.20458
11
4.62697
21
-3.20357
0
LINE
8
BLACK
6
CONTINUOUS
10
4.62697
20
-3.20357
11
4.62627
21
-3.20167
0
LINE
8
BLACK
6
CONTINUOUS
10
4.62627
20
-3.20167
11
4.62627
21
-3.18587
0
LINE
8
BLACK
6
CONTINUOUS
10
4.62627
20
-3.18587
11
4.61156
21
-3.18587
0
LINE
8
BLACK
6
CONTINUOUS
10
4.61156
20
-3.18587
11
4.61156
21
-3.19604
0
LINE
8
BLACK
6
CONTINUOUS
10
4.61156
20
-3.19604
11
4.61138
21
-3.19705
0
LINE
8
BLACK
6
CONTINUOUS
10
4.61138
20
-3.19705
11
4.61008
21
-3.1986
0
LINE
8
BLACK
6
CONTINUOUS
10
4.61008
20
-3.1986
11
4.60809
21
-3.19895
0
LINE
8
BLACK
6
CONTINUOUS
10
4.60809
20
-3.19895
11
4.60634
21
-3.19794
0
LINE
8
BLACK
6
CONTINUOUS
10
4.60634
20
-3.19794
11
4.60565
21
-3.19604
0
LINE
8
BLACK
6
CONTINUOUS
10
4.60565
20
-3.19604
11
4.60565
21
-3.18587
0
LINE
8
BLACK
6
CONTINUOUS
10
4.60565
20
-3.18587
11
4.59281
21
-3.18587
0
LINE
8
BLACK
6
CONTINUOUS
10
4.59281
20
-3.18587
11
4.59281
21
-3.20167
0
LINE
8
BLACK
6
CONTINUOUS
10
4.59281
20
-3.20167
11
4.59263
21
-3.20268
0
LINE
8
BLACK
6
CONTINUOUS
10
4.59263
20
-3.20268
11
4.59133
21
-3.20423
0
LINE
8
BLACK
6
CONTINUOUS
10
4.59133
20
-3.20423
11
4.58934
21
-3.20458
0
LINE
8
BLACK
6
CONTINUOUS
10
4.58934
20
-3.20458
11
4.5876
21
-3.20357
0
LINE
8
BLACK
6
CONTINUOUS
10
4.5876
20
-3.20357
11
4.5869
21
-3.20167
0
LINE
8
BLACK
6
CONTINUOUS
10
4.5869
20
-3.20167
11
4.5869
21
-3.18292
0
LINE
8
BLACK
6
CONTINUOUS
10
4.5869
20
-3.18292
11
4.58697
21
-3.18254
0
LINE
8
BLACK
6
CONTINUOUS
10
4.58697
20
-3.18254
11
4.58695
21
-3.18241
0
LINE
8
BLACK
6
CONTINUOUS
10
4.58695
20
-3.18241
11
4.58702
21
-3.18229
0
LINE
8
BLACK
6
CONTINUOUS
10
4.58702
20
-3.18229
11
4.58708
21
-3.18191
0
LINE
8
BLACK
6
CONTINUOUS
10
4.58708
20
-3.18191
11
4.58758
21
-3.18132
0
LINE
8
BLACK
6
CONTINUOUS
10
4.58758
20
-3.18132
11
4.58796
21
-3.18066
0
LINE
8
BLACK
6
CONTINUOUS
10
4.58796
20
-3.18066
11
4.58821
21
-3.18057
0
LINE
8
BLACK
6
CONTINUOUS
10
4.58821
20
-3.18057
11
4.58838
21
-3.18036
0
LINE
8
BLACK
6
CONTINUOUS
10
4.58838
20
-3.18036
11
4.58914
21
-3.18023
0
LINE
8
BLACK
6
CONTINUOUS
10
4.58914
20
-3.18023
11
4.58986
21
-3.17997
0
LINE
8
BLACK
6
CONTINUOUS
10
4.58986
20
-3.17997
11
4.62923
21
-3.17997
0
LINE
8
BLACK
6
CONTINUOUS
10
4.62923
20
-3.17997
11
4.62961
21
-3.18004
0
LINE
8
BLACK
6
CONTINUOUS
10
4.62961
20
-3.14067
11
4.62974
21
-3.14064
0
LINE
8
BLACK
6
CONTINUOUS
10
4.62974
20
-3.14064
11
4.62985
21
-3.14071
0
LINE
8
BLACK
6
CONTINUOUS
10
4.62985
20
-3.14071
11
4.63024
21
-3.14078
0
LINE
8
BLACK
6
CONTINUOUS
10
4.63024
20
-3.14078
11
4.63083
21
-3.14127
0
LINE
8
BLACK
6
CONTINUOUS
10
4.63083
20
-3.14127
11
4.63149
21
-3.14165
0
LINE
8
BLACK
6
CONTINUOUS
10
4.63149
20
-3.14165
11
4.63158
21
-3.1419
0
LINE
8
BLACK
6
CONTINUOUS
10
4.63158
20
-3.1419
11
4.63178
21
-3.14207
0
LINE
8
BLACK
6
CONTINUOUS
10
4.63178
20
-3.14207
11
4.63192
21
-3.14283
0
LINE
8
BLACK
6
CONTINUOUS
10
4.63192
20
-3.14283
11
4.63218
21
-3.14355
0
LINE
8
BLACK
6
CONTINUOUS
10
4.63218
20
-3.14355
11
4.63218
21
-3.15292
0
LINE
8
BLACK
6
CONTINUOUS
10
4.63218
20
-3.15292
11
4.63203
21
-3.15379
0
LINE
8
BLACK
6
CONTINUOUS
10
4.63203
20
-3.15379
11
4.63203
21
-3.15386
0
LINE
8
BLACK
6
CONTINUOUS
10
4.63203
20
-3.15386
11
4.63015
21
-3.15948
0
LINE
8
BLACK
6
CONTINUOUS
10
4.63015
20
-3.15948
11
4.62967
21
-3.16038
0
LINE
8
BLACK
6
CONTINUOUS
10
4.62967
20
-3.16038
11
4.62952
21
-3.16048
0
LINE
8
BLACK
6
CONTINUOUS
10
4.62952
20
-3.16048
11
4.62944
21
-3.16064
0
LINE
8
BLACK
6
CONTINUOUS
10
4.62944
20
-3.16064
11
4.62569
21
-3.16439
0
LINE
8
BLACK
6
CONTINUOUS
10
4.62569
20
-3.16439
11
4.62497
21
-3.16489
0
LINE
8
BLACK
6
CONTINUOUS
10
4.62497
20
-3.16489
11
4.62492
21
-3.16494
0
LINE
8
BLACK
6
CONTINUOUS
10
4.62492
20
-3.16494
11
4.62117
21
-3.16681
0
LINE
8
BLACK
6
CONTINUOUS
10
4.62117
20
-3.16681
11
4.62069
21
-3.16696
0
LINE
8
BLACK
6
CONTINUOUS
10
4.62069
20
-3.16696
11
4.62057
21
-3.16704
0
LINE
8
BLACK
6
CONTINUOUS
10
4.62057
20
-3.16704
11
4.61307
21
-3.16891
0
LINE
8
BLACK
6
CONTINUOUS
10
4.61307
20
-3.16891
11
4.61248
21
-3.16895
0
LINE
8
BLACK
6
CONTINUOUS
10
4.61248
20
-3.16895
11
4.61235
21
-3.169
0
LINE
8
BLACK
6
CONTINUOUS
10
4.61235
20
-3.169
11
4.60673
21
-3.169
0
LINE
8
BLACK
6
CONTINUOUS
10
4.60673
20
-3.169
11
4.60615
21
-3.1689
0
LINE
8
BLACK
6
CONTINUOUS
10
4.60615
20
-3.1689
11
4.60601
21
-3.16891
0
LINE
8
BLACK
6
CONTINUOUS
10
4.60601
20
-3.16891
11
4.59852
21
-3.16704
0
LINE
8
BLACK
6
CONTINUOUS
10
4.59852
20
-3.16704
11
4.59805
21
-3.16683
0
LINE
8
BLACK
6
CONTINUOUS
10
4.59805
20
-3.16683
11
4.59791
21
-3.16681
0
LINE
8
BLACK
6
CONTINUOUS
10
4.59791
20
-3.16681
11
4.59416
21
-3.16494
0
LINE
8
BLACK
6
CONTINUOUS
10
4.59416
20
-3.16494
11
4.59345
21
-3.16441
0
LINE
8
BLACK
6
CONTINUOUS
10
4.59345
20
-3.16441
11
4.59339
21
-3.16439
0
LINE
8
BLACK
6
CONTINUOUS
10
4.59339
20
-3.16439
11
4.58964
21
-3.16064
0
LINE
8
BLACK
6
CONTINUOUS
10
4.58964
20
-3.16064
11
4.58906
21
-3.1598
0
LINE
8
BLACK
6
CONTINUOUS
10
4.58906
20
-3.1598
11
4.58904
21
-3.15962
0
LINE
8
BLACK
6
CONTINUOUS
10
4.58904
20
-3.15962
11
4.58893
21
-3.15948
0
LINE
8
BLACK
6
CONTINUOUS
10
4.58893
20
-3.15948
11
4.58706
21
-3.15386
0
LINE
8
BLACK
6
CONTINUOUS
10
4.58706
20
-3.15386
11
4.58693
21
-3.15299
0
LINE
8
BLACK
6
CONTINUOUS
10
4.58693
20
-3.15299
11
4.5869
21
-3.15292
0
LINE
8
BLACK
6
CONTINUOUS
10
4.5869
20
-3.15292
11
4.5869
21
-3.14355
0
LINE
8
BLACK
6
CONTINUOUS
10
4.5869
20
-3.14355
11
4.58697
21
-3.14317
0
LINE
8
BLACK
6
CONTINUOUS
10
4.58697
20
-3.14317
11
4.58695
21
-3.14304
0
LINE
8
BLACK
6
CONTINUOUS
10
4.58695
20
-3.14304
11
4.58702
21
-3.14292
0
LINE
8
BLACK
6
CONTINUOUS
10
4.58702
20
-3.14292
11
4.58708
21
-3.14254
0
LINE
8
BLACK
6
CONTINUOUS
10
4.58708
20
-3.14254
11
4.58758
21
-3.14195
0
LINE
8
BLACK
6
CONTINUOUS
10
4.58758
20
-3.14195
11
4.58796
21
-3.14129
0
LINE
8
BLACK
6
CONTINUOUS
10
4.58796
20
-3.14129
11
4.58821
21
-3.1412
0
LINE
8
BLACK
6
CONTINUOUS
10
4.58821
20
-3.1412
11
4.58838
21
-3.14099
0
LINE
8
BLACK
6
CONTINUOUS
10
4.58838
20
-3.14099
11
4.58914
21
-3.14086
0
LINE
8
BLACK
6
CONTINUOUS
10
4.58914
20
-3.14086
11
4.58986
21
-3.1406
0
LINE
8
BLACK
6
CONTINUOUS
10
4.58986
20
-3.1406
11
4.62923
21
-3.1406
0
LINE
8
BLACK
6
CONTINUOUS
10
4.62923
20
-3.1406
11
4.62961
21
-3.14067
0
LINE
8
BLACK
6
CONTINUOUS
10
4.59281
20
-3.1465
11
4.59281
21
-3.15245
0
LINE
8
BLACK
6
CONTINUOUS
10
4.59281
20
-3.15245
11
4.59431
21
-3.15695
0
LINE
8
BLACK
6
CONTINUOUS
10
4.59431
20
-3.15695
11
4.59723
21
-3.15987
0
LINE
8
BLACK
6
CONTINUOUS
10
4.59723
20
-3.15987
11
4.60026
21
-3.16139
0
LINE
8
BLACK
6
CONTINUOUS
10
4.60026
20
-3.16139
11
4.60709
21
-3.1631
0
LINE
8
BLACK
6
CONTINUOUS
10
4.60709
20
-3.1631
11
4.61199
21
-3.1631
0
LINE
8
BLACK
6
CONTINUOUS
10
4.61199
20
-3.1631
11
4.61882
21
-3.16139
0
LINE
8
BLACK
6
CONTINUOUS
10
4.61882
20
-3.16139
11
4.62185
21
-3.15987
0
LINE
8
BLACK
6
CONTINUOUS
10
4.62185
20
-3.15987
11
4.62477
21
-3.15695
0
LINE
8
BLACK
6
CONTINUOUS
10
4.62477
20
-3.15695
11
4.62627
21
-3.15245
0
LINE
8
BLACK
6
CONTINUOUS
10
4.62627
20
-3.15245
11
4.62627
21
-3.1465
0
LINE
8
BLACK
6
CONTINUOUS
10
4.62627
20
-3.1465
11
4.59281
21
-3.1465
0
LINE
8
BLACK
6
CONTINUOUS
10
4.63119
20
-3.10197
11
4.63215
21
-3.10375
0
LINE
8
BLACK
6
CONTINUOUS
10
4.63215
20
-3.10375
11
4.63174
21
-3.10573
0
LINE
8
BLACK
6
CONTINUOUS
10
4.63174
20
-3.10573
11
4.63016
21
-3.10698
0
LINE
8
BLACK
6
CONTINUOUS
10
4.63016
20
-3.10698
11
4.62093
21
-3.11006
0
LINE
8
BLACK
6
CONTINUOUS
10
4.62093
20
-3.11006
11
4.62093
21
-3.12455
0
LINE
8
BLACK
6
CONTINUOUS
10
4.62093
20
-3.12455
11
4.63016
21
-3.12763
0
LINE
8
BLACK
6
CONTINUOUS
10
4.63016
20
-3.12763
11
4.63106
21
-3.12811
0
LINE
8
BLACK
6
CONTINUOUS
10
4.63106
20
-3.12811
11
4.63212
21
-3.12984
0
LINE
8
BLACK
6
CONTINUOUS
10
4.63212
20
-3.12984
11
4.63182
21
-3.13183
0
LINE
8
BLACK
6
CONTINUOUS
10
4.63182
20
-3.13183
11
4.63031
21
-3.13317
0
LINE
8
BLACK
6
CONTINUOUS
10
4.63031
20
-3.13317
11
4.62829
21
-3.13323
0
LINE
8
BLACK
6
CONTINUOUS
10
4.62829
20
-3.13323
11
4.58892
21
-3.12011
0
LINE
8
BLACK
6
CONTINUOUS
10
4.58892
20
-3.12011
11
4.58802
21
-3.11962
0
LINE
8
BLACK
6
CONTINUOUS
10
4.58802
20
-3.11962
11
4.58798
21
-3.11954
0
LINE
8
BLACK
6
CONTINUOUS
10
4.58798
20
-3.11954
11
4.5879
21
-3.11951
0
LINE
8
BLACK
6
CONTINUOUS
10
4.5879
20
-3.11951
11
4.58745
21
-3.11869
0
LINE
8
BLACK
6
CONTINUOUS
10
4.58745
20
-3.11869
11
4.58696
21
-3.1179
0
LINE
8
BLACK
6
CONTINUOUS
10
4.58696
20
-3.1179
11
4.58698
21
-3.11781
0
LINE
8
BLACK
6
CONTINUOUS
10
4.58698
20
-3.11781
11
4.58694
21
-3.11774
0
LINE
8
BLACK
6
CONTINUOUS
10
4.58694
20
-3.11774
11
4.58712
21
-3.11682
0
LINE
8
BLACK
6
CONTINUOUS
10
4.58712
20
-3.11682
11
4.58726
21
-3.1159
0
LINE
8
BLACK
6
CONTINUOUS
10
4.58726
20
-3.1159
11
4.58732
21
-3.11584
0
LINE
8
BLACK
6
CONTINUOUS
10
4.58732
20
-3.11584
11
4.58734
21
-3.11576
0
LINE
8
BLACK
6
CONTINUOUS
10
4.58734
20
-3.11576
11
4.58807
21
-3.11518
0
LINE
8
BLACK
6
CONTINUOUS
10
4.58807
20
-3.11518
11
4.58877
21
-3.11456
0
LINE
8
BLACK
6
CONTINUOUS
10
4.58877
20
-3.11456
11
4.58886
21
-3.11456
0
LINE
8
BLACK
6
CONTINUOUS
10
4.58886
20
-3.11456
11
4.58892
21
-3.1145
0
LINE
8
BLACK
6
CONTINUOUS
10
4.58892
20
-3.1145
11
4.62829
21
-3.10138
0
LINE
8
BLACK
6
CONTINUOUS
10
4.62829
20
-3.10138
11
4.62931
21
-3.10123
0
LINE
8
BLACK
6
CONTINUOUS
10
4.62931
20
-3.10123
11
4.63119
21
-3.10197
0
LINE
8
BLACK
6
CONTINUOUS
10
4.59919
20
-3.1173
11
4.61503
21
-3.12258
0
LINE
8
BLACK
6
CONTINUOUS
10
4.61503
20
-3.12258
11
4.61503
21
-3.11203
0
LINE
8
BLACK
6
CONTINUOUS
10
4.61503
20
-3.11203
11
4.59919
21
-3.1173
0
LINE
8
BLACK
6
CONTINUOUS
10
4.62961
20
-3.0713
11
4.62974
21
-3.07128
0
LINE
8
BLACK
6
CONTINUOUS
10
4.62974
20
-3.07128
11
4.62985
21
-3.07134
0
LINE
8
BLACK
6
CONTINUOUS
10
4.62985
20
-3.07134
11
4.63024
21
-3.07141
0
LINE
8
BLACK
6
CONTINUOUS
10
4.63024
20
-3.07141
11
4.63083
21
-3.0719
0
LINE
8
BLACK
6
CONTINUOUS
10
4.63083
20
-3.0719
11
4.63149
21
-3.07229
0
LINE
8
BLACK
6
CONTINUOUS
10
4.63149
20
-3.07229
11
4.63158
21
-3.07254
0
LINE
8
BLACK
6
CONTINUOUS
10
4.63158
20
-3.07254
11
4.63178
21
-3.07271
0
LINE
8
BLACK
6
CONTINUOUS
10
4.63178
20
-3.07271
11
4.63192
21
-3.07346
0
LINE
8
BLACK
6
CONTINUOUS
10
4.63192
20
-3.07346
11
4.63218
21
-3.07418
0
LINE
8
BLACK
6
CONTINUOUS
10
4.63218
20
-3.07418
11
4.63218
21
-3.09293
0
LINE
8
BLACK
6
CONTINUOUS
10
4.63218
20
-3.09293
11
4.632
21
-3.09394
0
LINE
8
BLACK
6
CONTINUOUS
10
4.632
20
-3.09394
11
4.6307
21
-3.09549
0
LINE
8
BLACK
6
CONTINUOUS
10
4.6307
20
-3.09549
11
4.62871
21
-3.09584
0
LINE
8
BLACK
6
CONTINUOUS
10
4.62871
20
-3.09584
11
4.62697
21
-3.09483
0
LINE
8
BLACK
6
CONTINUOUS
10
4.62697
20
-3.09483
11
4.62627
21
-3.09293
0
LINE
8
BLACK
6
CONTINUOUS
10
4.62627
20
-3.09293
11
4.62627
21
-3.07714
0
LINE
8
BLACK
6
CONTINUOUS
10
4.62627
20
-3.07714
11
4.61156
21
-3.07714
0
LINE
8
BLACK
6
CONTINUOUS
10
4.61156
20
-3.07714
11
4.61156
21
-3.08731
0
LINE
8
BLACK
6
CONTINUOUS
10
4.61156
20
-3.08731
11
4.61138
21
-3.08832
0
LINE
8
BLACK
6
CONTINUOUS
10
4.61138
20
-3.08832
11
4.61008
21
-3.08987
0
LINE
8
BLACK
6
CONTINUOUS
10
4.61008
20
-3.08987
11
4.60809
21
-3.09022
0
LINE
8
BLACK
6
CONTINUOUS
10
4.60809
20
-3.09022
11
4.60634
21
-3.08921
0
LINE
8
BLACK
6
CONTINUOUS
10
4.60634
20
-3.08921
11
4.60565
21
-3.08731
0
LINE
8
BLACK
6
CONTINUOUS
10
4.60565
20
-3.08731
11
4.60565
21
-3.07714
0
LINE
8
BLACK
6
CONTINUOUS
10
4.60565
20
-3.07714
11
4.59281
21
-3.07714
0
LINE
8
BLACK
6
CONTINUOUS
10
4.59281
20
-3.07714
11
4.59281
21
-3.09293
0
LINE
8
BLACK
6
CONTINUOUS
10
4.59281
20
-3.09293
11
4.59263
21
-3.09394
0
LINE
8
BLACK
6
CONTINUOUS
10
4.59263
20
-3.09394
11
4.59133
21
-3.09549
0
LINE
8
BLACK
6
CONTINUOUS
10
4.59133
20
-3.09549
11
4.58934
21
-3.09584
0
LINE
8
BLACK
6
CONTINUOUS
10
4.58934
20
-3.09584
11
4.5876
21
-3.09483
0
LINE
8
BLACK
6
CONTINUOUS
10
4.5876
20
-3.09483
11
4.5869
21
-3.09293
0
LINE
8
BLACK
6
CONTINUOUS
10
4.5869
20
-3.09293
11
4.5869
21
-3.07418
0
LINE
8
BLACK
6
CONTINUOUS
10
4.5869
20
-3.07418
11
4.58697
21
-3.0738
0
LINE
8
BLACK
6
CONTINUOUS
10
4.58697
20
-3.0738
11
4.58695
21
-3.07367
0
LINE
8
BLACK
6
CONTINUOUS
10
4.58695
20
-3.07367
11
4.58702
21
-3.07356
0
LINE
8
BLACK
6
CONTINUOUS
10
4.58702
20
-3.07356
11
4.58708
21
-3.07317
0
LINE
8
BLACK
6
CONTINUOUS
10
4.58708
20
-3.07317
11
4.58758
21
-3.07259
0
LINE
8
BLACK
6
CONTINUOUS
10
4.58758
20
-3.07259
11
4.58796
21
-3.07192
0
LINE
8
BLACK
6
CONTINUOUS
10
4.58796
20
-3.07192
11
4.58821
21
-3.07183
0
LINE
8
BLACK
6
CONTINUOUS
10
4.58821
20
-3.07183
11
4.58838
21
-3.07163
0
LINE
8
BLACK
6
CONTINUOUS
10
4.58838
20
-3.07163
11
4.58914
21
-3.07149
0
LINE
8
BLACK
6
CONTINUOUS
10
4.58914
20
-3.07149
11
4.58986
21
-3.07123
0
LINE
8
BLACK
6
CONTINUOUS
10
4.58986
20
-3.07123
11
4.62923
21
-3.07123
0
LINE
8
BLACK
6
CONTINUOUS
10
4.62923
20
-3.07123
11
4.62961
21
-3.0713
0
LINE
8
BLACK
6
CONTINUOUS
10
4.63024
20
-3.03016
11
4.63178
21
-3.03146
0
LINE
8
BLACK
6
CONTINUOUS
10
4.63178
20
-3.03146
11
4.63214
21
-3.03345
0
LINE
8
BLACK
6
CONTINUOUS
10
4.63214
20
-3.03345
11
4.63113
21
-3.0352
0
LINE
8
BLACK
6
CONTINUOUS
10
4.63113
20
-3.0352
11
4.62923
21
-3.03589
0
LINE
8
BLACK
6
CONTINUOUS
10
4.62923
20
-3.03589
11
4.61156
21
-3.03589
0
LINE
8
BLACK
6
CONTINUOUS
10
4.61156
20
-3.03589
11
4.61156
21
-3.05248
0
LINE
8
BLACK
6
CONTINUOUS
10
4.61156
20
-3.05248
11
4.62923
21
-3.05248
0
LINE
8
BLACK
6
CONTINUOUS
10
4.62923
20
-3.05248
11
4.63024
21
-3.05266
0
LINE
8
BLACK
6
CONTINUOUS
10
4.63024
20
-3.05266
11
4.63178
21
-3.05396
0
LINE
8
BLACK
6
CONTINUOUS
10
4.63178
20
-3.05396
11
4.63214
21
-3.05595
0
LINE
8
BLACK
6
CONTINUOUS
10
4.63214
20
-3.05595
11
4.63113
21
-3.0577
0
LINE
8
BLACK
6
CONTINUOUS
10
4.63113
20
-3.0577
11
4.62923
21
-3.05839
0
LINE
8
BLACK
6
CONTINUOUS
10
4.62923
20
-3.05839
11
4.58986
21
-3.05839
0
LINE
8
BLACK
6
CONTINUOUS
10
4.58986
20
-3.05839
11
4.58885
21
-3.05821
0
LINE
8
BLACK
6
CONTINUOUS
10
4.58885
20
-3.05821
11
4.5873
21
-3.05691
0
LINE
8
BLACK
6
CONTINUOUS
10
4.5873
20
-3.05691
11
4.58695
21
-3.05492
0
LINE
8
BLACK
6
CONTINUOUS
10
4.58695
20
-3.05492
11
4.58796
21
-3.05317
0
LINE
8
BLACK
6
CONTINUOUS
10
4.58796
20
-3.05317
11
4.58986
21
-3.05248
0
LINE
8
BLACK
6
CONTINUOUS
10
4.58986
20
-3.05248
11
4.60565
21
-3.05248
0
LINE
8
BLACK
6
CONTINUOUS
10
4.60565
20
-3.05248
11
4.60565
21
-3.03589
0
LINE
8
BLACK
6
CONTINUOUS
10
4.60565
20
-3.03589
11
4.58986
21
-3.03589
0
LINE
8
BLACK
6
CONTINUOUS
10
4.58986
20
-3.03589
11
4.58885
21
-3.03571
0
LINE
8
BLACK
6
CONTINUOUS
10
4.58885
20
-3.03571
11
4.5873
21
-3.03442
0
LINE
8
BLACK
6
CONTINUOUS
10
4.5873
20
-3.03442
11
4.58695
21
-3.03243
0
LINE
8
BLACK
6
CONTINUOUS
10
4.58695
20
-3.03243
11
4.58796
21
-3.03068
0
LINE
8
BLACK
6
CONTINUOUS
10
4.58796
20
-3.03068
11
4.58986
21
-3.02999
0
LINE
8
BLACK
6
CONTINUOUS
10
4.58986
20
-3.02999
11
4.62923
21
-3.02999
0
LINE
8
BLACK
6
CONTINUOUS
10
4.62923
20
-3.02999
11
4.63024
21
-3.03016
  0
ENDSEC
  0
EOF
