  0
SECTION
  2
HEADER
  9
$ANGBASE
  50
0.0
  9
$ANGDIR
  70
1
  9
$MEASUREMENT
  70
0
  0
ENDSEC
  0
SECTION
  2
TABLES
  0
TABLE
  2
LTYPE
  70
4
  0
LTYPE
  5
40F
  2
CONTINUOUS
  70
0
  3
Solid line
  72
65
  73
0
  40
0.0
  0
LTYPE
  5
410
  2
DASHDOT
 70
0
  3
Dash Dot ____ _ ____ _
 72
65
 73
4
 40
2.0
 49
1.25
 49
-0.25
 49
0.25
 49
-0.25
  0
LTYPE
  5
411
  2
DASHED
 70
0
  3
Dashed __ __ __ __ __
 72
65
 73
2
 40
0.75
 49
0.5
 49
-0.25
  0
LTYPE
  5
43B
  2
DOTTED
 70
0
  3
Dotted .  .  .  .
 72
65
 73
2
 40
0.2
 49
0.0
 49
-0.2
  0
ENDTAB
  0
TABLE
  2
STYLE
  70
4
  0
STYLE
  2
KICAD
  70
0
  40
0
  41
1
  42
1
  50
0
  71
0
  3
isocp.shx
  0
STYLE
  2
KICADB
  70
0
  40
0
  41
1
  42
1
  50
0
  71
0
  3
isocp.shx
  0
STYLE
  2
KICADI
  70
0
  40
0
  41
1
  42
1
  50
15
  71
0
  3
isocp.shx
  0
STYLE
  2
KICADBI
  70
0
  40
0
  41
1
  42
1
  50
15
  71
0
  3
isocp.shx
  0
ENDTAB
  0
TABLE
  2
LAYER
  70
1
  0
LAYER
  2
BLACK
  70
0
  62
7
  6
CONTINUOUS
  0
ENDTAB
  0
ENDSEC
  0
SECTION
  2
ENTITIES
0
LINE
8
BLACK
6
CONTINUOUS
10
-0.089502
20
0.030691
11
-0.0874505
21
0.0304718
0
LINE
8
BLACK
6
CONTINUOUS
10
-0.0874505
20
0.0304718
11
-0.0853873
21
0.0304466
0
LINE
8
BLACK
6
CONTINUOUS
10
-0.0853873
20
0.0304466
11
-0.0826469
21
0.0299584
0
LINE
8
BLACK
6
CONTINUOUS
10
-0.0826469
20
0.0299584
11
-0.0798791
21
0.0296626
0
LINE
8
BLACK
6
CONTINUOUS
10
-0.0798791
20
0.0296626
11
-0.0778907
21
0.0291112
0
LINE
8
BLACK
6
CONTINUOUS
10
-0.0778907
20
0.0291112
11
-0.0758595
21
0.0287494
0
LINE
8
BLACK
6
CONTINUOUS
10
-0.0758595
20
0.0287494
11
-0.0732357
21
0.0278203
0
LINE
8
BLACK
6
CONTINUOUS
10
-0.0732357
20
0.0278203
11
-0.0705533
21
0.0270764
0
LINE
8
BLACK
6
CONTINUOUS
10
-0.0705533
20
0.0270764
11
-0.0686817
21
0.0262076
0
LINE
8
BLACK
6
CONTINUOUS
10
-0.0686817
20
0.0262076
11
-0.0667368
21
0.0255189
0
LINE
8
BLACK
6
CONTINUOUS
10
-0.0667368
20
0.0255189
11
-0.0642998
21
0.0241736
0
LINE
8
BLACK
6
CONTINUOUS
10
-0.0642998
20
0.0241736
11
-0.0617751
21
0.0230017
0
LINE
8
BLACK
6
CONTINUOUS
10
-0.0617751
20
0.0230017
11
-0.0600706
21
0.021839
0
LINE
8
BLACK
6
CONTINUOUS
10
-0.0600706
20
0.021839
11
-0.0582643
21
0.0208418
0
LINE
8
BLACK
6
CONTINUOUS
10
-0.0582643
20
0.0208418
11
-0.0560798
21
0.0191166
0
LINE
8
BLACK
6
CONTINUOUS
10
-0.0560798
20
0.0191166
11
-0.0537803
21
0.017548
0
LINE
8
BLACK
6
CONTINUOUS
10
-0.0537803
20
0.017548
11
-0.0522887
21
0.0161226
0
LINE
8
BLACK
6
CONTINUOUS
10
-0.0522887
20
0.0161226
11
-0.0506694
21
0.0148437
0
LINE
8
BLACK
6
CONTINUOUS
10
-0.0506694
20
0.0148437
11
-0.0487958
21
0.0127847
0
LINE
8
BLACK
6
CONTINUOUS
10
-0.0487958
20
0.0127847
11
-0.0467836
21
0.0108618
0
LINE
8
BLACK
6
CONTINUOUS
10
-0.0467836
20
0.0108618
11
-0.0455448
21
0.00921189
0
LINE
8
BLACK
6
CONTINUOUS
10
-0.0455448
20
0.00921189
11
-0.0441561
21
0.00768575
0
LINE
8
BLACK
6
CONTINUOUS
10
-0.0441561
20
0.00768575
11
-0.0426442
21
0.00534866
0
LINE
8
BLACK
6
CONTINUOUS
10
-0.0426442
20
0.00534866
11
-0.0409728
21
0.0031226
0
LINE
8
BLACK
6
CONTINUOUS
10
-0.0409728
20
0.0031226
11
-0.0400201
21
0.00129236
0
LINE
8
BLACK
6
CONTINUOUS
10
-0.0400201
20
0.00129236
11
-0.0388994
21
-0.000439921
0
LINE
8
BLACK
6
CONTINUOUS
10
-0.0388994
20
-0.000439921
11
-0.0377895
21
-0.00299256
0
LINE
8
BLACK
6
CONTINUOUS
10
-0.0377895
20
-0.00299256
11
-0.0365041
21
-0.00546169
0
LINE
8
BLACK
6
CONTINUOUS
10
-0.0365041
20
-0.00546169
11
-0.0358631
21
-0.00742283
0
LINE
8
BLACK
6
CONTINUOUS
10
-0.0358631
20
-0.00742283
11
-0.0350404
21
-0.009315
0
LINE
8
BLACK
6
CONTINUOUS
10
-0.0350404
20
-0.009315
11
-0.0343623
21
-0.0120147
0
LINE
8
BLACK
6
CONTINUOUS
10
-0.0343623
20
-0.0120147
11
-0.0334975
21
-0.0146606
0
LINE
8
BLACK
6
CONTINUOUS
10
-0.0334975
20
-0.0146606
11
-0.0331854
21
-0.0167002
0
LINE
8
BLACK
6
CONTINUOUS
10
-0.0331854
20
-0.0167002
11
-0.0326828
21
-0.0187012
0
LINE
8
BLACK
6
CONTINUOUS
10
-0.0326828
20
-0.0187012
11
-0.0324547
21
-0.0214753
0
LINE
8
BLACK
6
CONTINUOUS
10
-0.0324547
20
-0.0214753
11
-0.0320336
21
-0.024227
0
LINE
8
BLACK
6
CONTINUOUS
10
-0.0320336
20
-0.024227
11
-0.0320588
21
-0.0262901
0
LINE
8
BLACK
6
CONTINUOUS
10
-0.0320588
20
-0.0262901
11
-0.0318898
21
-0.0283465
0
LINE
8
BLACK
6
CONTINUOUS
10
-0.0318898
20
-0.0283465
11
-0.0318898
21
-0.540157
0
LINE
8
BLACK
6
CONTINUOUS
10
-0.0318898
20
-0.540157
11
-0.0319074
21
-0.5416
0
LINE
8
BLACK
6
CONTINUOUS
10
-0.0319074
20
-0.5416
11
-0.0329358
21
-0.551223
0
LINE
8
BLACK
6
CONTINUOUS
10
-0.0329358
20
-0.551223
11
-0.035522
21
-0.560549
0
LINE
8
BLACK
6
CONTINUOUS
10
-0.035522
20
-0.560549
11
-0.0395968
21
-0.569327
0
LINE
8
BLACK
6
CONTINUOUS
10
-0.0395968
20
-0.569327
11
-0.0439444
21
-0.575701
0
LINE
8
BLACK
6
CONTINUOUS
10
-0.0439444
20
-0.575701
11
-0.0439629
21
-0.577211
0
LINE
8
BLACK
6
CONTINUOUS
10
-0.0439629
20
-0.577211
11
-0.04566
21
-0.586739
0
LINE
8
BLACK
6
CONTINUOUS
10
-0.04566
20
-0.586739
11
-0.0488906
21
-0.595862
0
LINE
8
BLACK
6
CONTINUOUS
10
-0.0488906
20
-0.595862
11
-0.0535676
21
-0.604334
0
LINE
8
BLACK
6
CONTINUOUS
10
-0.0535676
20
-0.604334
11
-0.0595657
21
-0.611929
0
LINE
8
BLACK
6
CONTINUOUS
10
-0.0595657
20
-0.611929
11
-0.0667237
21
-0.618442
0
LINE
8
BLACK
6
CONTINUOUS
10
-0.0667237
20
-0.618442
11
-0.0748494
21
-0.623699
0
LINE
8
BLACK
6
CONTINUOUS
10
-0.0748494
20
-0.623699
11
-0.0837244
21
-0.627558
0
LINE
8
BLACK
6
CONTINUOUS
10
-0.0837244
20
-0.627558
11
-0.0931107
21
-0.629916
0
LINE
8
BLACK
6
CONTINUOUS
10
-0.0931107
20
-0.629916
11
-0.102756
21
-0.630709
0
LINE
8
BLACK
6
CONTINUOUS
10
-0.102756
20
-0.630709
11
-0.614567
21
-0.630709
0
LINE
8
BLACK
6
CONTINUOUS
10
-0.614567
20
-0.630709
11
-0.61601
21
-0.630691
0
LINE
8
BLACK
6
CONTINUOUS
10
-0.61601
20
-0.630691
11
-0.618061
21
-0.630472
0
LINE
8
BLACK
6
CONTINUOUS
10
-0.618061
20
-0.630472
11
-0.620124
21
-0.630447
0
LINE
8
BLACK
6
CONTINUOUS
10
-0.620124
20
-0.630447
11
-0.622865
21
-0.629958
0
LINE
8
BLACK
6
CONTINUOUS
10
-0.622865
20
-0.629958
11
-0.625633
21
-0.629663
0
LINE
8
BLACK
6
CONTINUOUS
10
-0.625633
20
-0.629663
11
-0.627621
21
-0.629111
0
LINE
8
BLACK
6
CONTINUOUS
10
-0.627621
20
-0.629111
11
-0.629652
21
-0.628749
0
LINE
8
BLACK
6
CONTINUOUS
10
-0.629652
20
-0.628749
11
-0.632276
21
-0.62782
0
LINE
8
BLACK
6
CONTINUOUS
10
-0.632276
20
-0.62782
11
-0.634959
21
-0.627076
0
LINE
8
BLACK
6
CONTINUOUS
10
-0.634959
20
-0.627076
11
-0.63683
21
-0.626208
0
LINE
8
BLACK
6
CONTINUOUS
10
-0.63683
20
-0.626208
11
-0.638775
21
-0.625519
0
LINE
8
BLACK
6
CONTINUOUS
10
-0.638775
20
-0.625519
11
-0.641212
21
-0.624174
0
LINE
8
BLACK
6
CONTINUOUS
10
-0.641212
20
-0.624174
11
-0.643737
21
-0.623002
0
LINE
8
BLACK
6
CONTINUOUS
10
-0.643737
20
-0.623002
11
-0.645441
21
-0.621839
0
LINE
8
BLACK
6
CONTINUOUS
10
-0.645441
20
-0.621839
11
-0.647248
21
-0.620842
0
LINE
8
BLACK
6
CONTINUOUS
10
-0.647248
20
-0.620842
11
-0.649432
21
-0.619117
0
LINE
8
BLACK
6
CONTINUOUS
10
-0.649432
20
-0.619117
11
-0.651732
21
-0.617548
0
LINE
8
BLACK
6
CONTINUOUS
10
-0.651732
20
-0.617548
11
-0.653223
21
-0.616123
0
LINE
8
BLACK
6
CONTINUOUS
10
-0.653223
20
-0.616123
11
-0.654842
21
-0.614844
0
LINE
8
BLACK
6
CONTINUOUS
10
-0.654842
20
-0.614844
11
-0.656716
21
-0.612785
0
LINE
8
BLACK
6
CONTINUOUS
10
-0.656716
20
-0.612785
11
-0.658728
21
-0.610862
0
LINE
8
BLACK
6
CONTINUOUS
10
-0.658728
20
-0.610862
11
-0.659967
21
-0.609212
0
LINE
8
BLACK
6
CONTINUOUS
10
-0.659967
20
-0.609212
11
-0.661356
21
-0.607686
0
LINE
8
BLACK
6
CONTINUOUS
10
-0.661356
20
-0.607686
11
-0.662868
21
-0.605349
0
LINE
8
BLACK
6
CONTINUOUS
10
-0.662868
20
-0.605349
11
-0.664539
21
-0.603123
0
LINE
8
BLACK
6
CONTINUOUS
10
-0.664539
20
-0.603123
11
-0.665492
21
-0.601292
0
LINE
8
BLACK
6
CONTINUOUS
10
-0.665492
20
-0.601292
11
-0.666612
21
-0.59956
0
LINE
8
BLACK
6
CONTINUOUS
10
-0.666612
20
-0.59956
11
-0.667722
21
-0.597007
0
LINE
8
BLACK
6
CONTINUOUS
10
-0.667722
20
-0.597007
11
-0.669008
21
-0.594538
0
LINE
8
BLACK
6
CONTINUOUS
10
-0.669008
20
-0.594538
11
-0.669649
21
-0.592577
0
LINE
8
BLACK
6
CONTINUOUS
10
-0.669649
20
-0.592577
11
-0.670471
21
-0.590685
0
LINE
8
BLACK
6
CONTINUOUS
10
-0.670471
20
-0.590685
11
-0.67115
21
-0.587985
0
LINE
8
BLACK
6
CONTINUOUS
10
-0.67115
20
-0.587985
11
-0.672014
21
-0.585339
0
LINE
8
BLACK
6
CONTINUOUS
10
-0.672014
20
-0.585339
11
-0.672326
21
-0.5833
0
LINE
8
BLACK
6
CONTINUOUS
10
-0.672326
20
-0.5833
11
-0.672829
21
-0.581299
0
LINE
8
BLACK
6
CONTINUOUS
10
-0.672829
20
-0.581299
11
-0.673057
21
-0.578525
0
LINE
8
BLACK
6
CONTINUOUS
10
-0.673057
20
-0.578525
11
-0.673478
21
-0.575773
0
LINE
8
BLACK
6
CONTINUOUS
10
-0.673478
20
-0.575773
11
-0.673453
21
-0.57371
0
LINE
8
BLACK
6
CONTINUOUS
10
-0.673453
20
-0.57371
11
-0.673622
21
-0.571654
0
LINE
8
BLACK
6
CONTINUOUS
10
-0.673622
20
-0.571654
11
-0.673622
21
-0.0598425
0
LINE
8
BLACK
6
CONTINUOUS
10
-0.673622
20
-0.0598425
11
-0.673604
21
-0.0583997
0
LINE
8
BLACK
6
CONTINUOUS
10
-0.673604
20
-0.0583997
11
-0.672576
21
-0.0487767
0
LINE
8
BLACK
6
CONTINUOUS
10
-0.672576
20
-0.0487767
11
-0.66999
21
-0.0394509
0
LINE
8
BLACK
6
CONTINUOUS
10
-0.66999
20
-0.0394509
11
-0.665915
21
-0.0306727
0
LINE
8
BLACK
6
CONTINUOUS
10
-0.665915
20
-0.0306727
11
-0.661567
21
-0.0242993
0
LINE
8
BLACK
6
CONTINUOUS
10
-0.661567
20
-0.0242993
11
-0.661549
21
-0.0227889
0
LINE
8
BLACK
6
CONTINUOUS
10
-0.661549
20
-0.0227889
11
-0.659852
21
-0.0132611
0
LINE
8
BLACK
6
CONTINUOUS
10
-0.659852
20
-0.0132611
11
-0.656621
21
-0.00413839
0
LINE
8
BLACK
6
CONTINUOUS
10
-0.656621
20
-0.00413839
11
-0.651944
21
0.00433413
0
LINE
8
BLACK
6
CONTINUOUS
10
-0.651944
20
0.00433413
11
-0.645946
21
0.0119291
0
LINE
8
BLACK
6
CONTINUOUS
10
-0.645946
20
0.0119291
11
-0.638788
21
0.0184423
0
LINE
8
BLACK
6
CONTINUOUS
10
-0.638788
20
0.0184423
11
-0.630662
21
0.023699
0
LINE
8
BLACK
6
CONTINUOUS
10
-0.630662
20
0.023699
11
-0.621787
21
0.027558
0
LINE
8
BLACK
6
CONTINUOUS
10
-0.621787
20
0.027558
11
-0.612401
21
0.0299157
0
LINE
8
BLACK
6
CONTINUOUS
10
-0.612401
20
0.0299157
11
-0.602756
21
0.0307087
0
LINE
8
BLACK
6
CONTINUOUS
10
-0.602756
20
0.0307087
11
-0.0909449
21
0.0307087
0
LINE
8
BLACK
6
CONTINUOUS
10
-0.0909449
20
0.0307087
11
-0.089502
21
0.030691
0
LINE
8
BLACK
6
CONTINUOUS
10
-0.555512
20
-0.0874016
11
-0.555512
21
-0.512598
0
LINE
8
BLACK
6
CONTINUOUS
10
-0.555512
20
-0.512598
11
-0.15
21
-0.512598
0
LINE
8
BLACK
6
CONTINUOUS
10
-0.15
20
-0.512598
11
-0.15
21
-0.0874016
0
LINE
8
BLACK
6
CONTINUOUS
10
-0.15
20
-0.0874016
11
-0.555512
21
-0.0874016
  0
ENDSEC
  0
EOF
