  0
SECTION
  2
HEADER
  9
$ANGBASE
  50
0.0
  9
$ANGDIR
  70
1
  9
$MEASUREMENT
  70
0
  0
ENDSEC
  0
SECTION
  2
TABLES
  0
TABLE
  2
LTYPE
  70
4
  0
LTYPE
  5
40F
  2
CONTINUOUS
  70
0
  3
Solid line
  72
65
  73
0
  40
0.0
  0
LTYPE
  5
410
  2
DASHDOT
 70
0
  3
Dash Dot ____ _ ____ _
 72
65
 73
4
 40
2.0
 49
1.25
 49
-0.25
 49
0.25
 49
-0.25
  0
LTYPE
  5
411
  2
DASHED
 70
0
  3
Dashed __ __ __ __ __
 72
65
 73
2
 40
0.75
 49
0.5
 49
-0.25
  0
LTYPE
  5
43B
  2
DOTTED
 70
0
  3
Dotted .  .  .  .
 72
65
 73
2
 40
0.2
 49
0.0
 49
-0.2
  0
ENDTAB
  0
TABLE
  2
STYLE
  70
4
  0
STYLE
  2
KICAD
  70
0
  40
0
  41
1
  42
1
  50
0
  71
0
  3
isocp.shx
  0
STYLE
  2
KICADB
  70
0
  40
0
  41
1
  42
1
  50
0
  71
0
  3
isocp.shx
  0
STYLE
  2
KICADI
  70
0
  40
0
  41
1
  42
1
  50
15
  71
0
  3
isocp.shx
  0
STYLE
  2
KICADBI
  70
0
  40
0
  41
1
  42
1
  50
15
  71
0
  3
isocp.shx
  0
ENDTAB
  0
TABLE
  2
LAYER
  70
1
  0
LAYER
  2
BLACK
  70
0
  62
7
  6
CONTINUOUS
  0
ENDTAB
  0
ENDSEC
  0
SECTION
  2
ENTITIES
0
LINE
8
BLACK
6
CONTINUOUS
10
0.253927
20
-0.486091
11
0.254056
21
-0.486068
0
LINE
8
BLACK
6
CONTINUOUS
10
0.254056
20
-0.486068
11
0.25417
21
-0.486134
0
LINE
8
BLACK
6
CONTINUOUS
10
0.25417
20
-0.486134
11
0.254553
21
-0.486202
0
LINE
8
BLACK
6
CONTINUOUS
10
0.254553
20
-0.486202
11
0.255141
21
-0.486695
0
LINE
8
BLACK
6
CONTINUOUS
10
0.255141
20
-0.486695
11
0.255805
21
-0.487078
0
LINE
8
BLACK
6
CONTINUOUS
10
0.255805
20
-0.487078
11
0.255896
21
-0.487329
0
LINE
8
BLACK
6
CONTINUOUS
10
0.255896
20
-0.487329
11
0.2561
21
-0.4875
0
LINE
8
BLACK
6
CONTINUOUS
10
0.2561
20
-0.4875
11
0.256234
21
-0.488256
0
LINE
8
BLACK
6
CONTINUOUS
10
0.256234
20
-0.488256
11
0.256496
21
-0.488976
0
LINE
8
BLACK
6
CONTINUOUS
10
0.256496
20
-0.488976
11
0.256496
21
-0.654331
0
LINE
8
BLACK
6
CONTINUOUS
10
0.256496
20
-0.654331
11
0.256428
21
-0.654714
0
LINE
8
BLACK
6
CONTINUOUS
10
0.256428
20
-0.654714
11
0.256451
21
-0.654843
0
LINE
8
BLACK
6
CONTINUOUS
10
0.256451
20
-0.654843
11
0.256386
21
-0.654957
0
LINE
8
BLACK
6
CONTINUOUS
10
0.256386
20
-0.654957
11
0.256318
21
-0.655341
0
LINE
8
BLACK
6
CONTINUOUS
10
0.256318
20
-0.655341
11
0.255825
21
-0.655928
0
LINE
8
BLACK
6
CONTINUOUS
10
0.255825
20
-0.655928
11
0.255441
21
-0.656593
0
LINE
8
BLACK
6
CONTINUOUS
10
0.255441
20
-0.656593
11
0.255191
21
-0.656684
0
LINE
8
BLACK
6
CONTINUOUS
10
0.255191
20
-0.656684
11
0.25502
21
-0.656888
0
LINE
8
BLACK
6
CONTINUOUS
10
0.25502
20
-0.656888
11
0.254264
21
-0.657021
0
LINE
8
BLACK
6
CONTINUOUS
10
0.254264
20
-0.657021
11
0.253543
21
-0.657283
0
LINE
8
BLACK
6
CONTINUOUS
10
0.253543
20
-0.657283
11
0.159055
21
-0.657283
0
LINE
8
BLACK
6
CONTINUOUS
10
0.159055
20
-0.657283
11
0.158672
21
-0.657216
0
LINE
8
BLACK
6
CONTINUOUS
10
0.158672
20
-0.657216
11
0.158542
21
-0.657239
0
LINE
8
BLACK
6
CONTINUOUS
10
0.158542
20
-0.657239
11
0.158429
21
-0.657173
0
LINE
8
BLACK
6
CONTINUOUS
10
0.158429
20
-0.657173
11
0.158045
21
-0.657105
0
LINE
8
BLACK
6
CONTINUOUS
10
0.158045
20
-0.657105
11
0.157457
21
-0.656612
0
LINE
8
BLACK
6
CONTINUOUS
10
0.157457
20
-0.656612
11
0.156793
21
-0.656229
0
LINE
8
BLACK
6
CONTINUOUS
10
0.156793
20
-0.656229
11
0.156702
21
-0.655978
0
LINE
8
BLACK
6
CONTINUOUS
10
0.156702
20
-0.655978
11
0.156498
21
-0.655807
0
LINE
8
BLACK
6
CONTINUOUS
10
0.156498
20
-0.655807
11
0.156365
21
-0.655051
0
LINE
8
BLACK
6
CONTINUOUS
10
0.156365
20
-0.655051
11
0.156102
21
-0.654331
0
LINE
8
BLACK
6
CONTINUOUS
10
0.156102
20
-0.654331
11
0.156102
21
-0.488976
0
LINE
8
BLACK
6
CONTINUOUS
10
0.156102
20
-0.488976
11
0.15617
21
-0.488593
0
LINE
8
BLACK
6
CONTINUOUS
10
0.15617
20
-0.488593
11
0.156147
21
-0.488464
0
LINE
8
BLACK
6
CONTINUOUS
10
0.156147
20
-0.488464
11
0.156213
21
-0.48835
0
LINE
8
BLACK
6
CONTINUOUS
10
0.156213
20
-0.48835
11
0.15628
21
-0.487966
0
LINE
8
BLACK
6
CONTINUOUS
10
0.15628
20
-0.487966
11
0.156774
21
-0.487379
0
LINE
8
BLACK
6
CONTINUOUS
10
0.156774
20
-0.487379
11
0.157157
21
-0.486714
0
LINE
8
BLACK
6
CONTINUOUS
10
0.157157
20
-0.486714
11
0.157407
21
-0.486623
0
LINE
8
BLACK
6
CONTINUOUS
10
0.157407
20
-0.486623
11
0.157579
21
-0.486419
0
LINE
8
BLACK
6
CONTINUOUS
10
0.157579
20
-0.486419
11
0.158334
21
-0.486286
0
LINE
8
BLACK
6
CONTINUOUS
10
0.158334
20
-0.486286
11
0.159055
21
-0.486024
0
LINE
8
BLACK
6
CONTINUOUS
10
0.159055
20
-0.486024
11
0.253543
21
-0.486024
0
LINE
8
BLACK
6
CONTINUOUS
10
0.253543
20
-0.486024
11
0.253927
21
-0.486091
0
LINE
8
BLACK
6
CONTINUOUS
10
0.162008
20
-0.491929
11
0.162008
21
-0.651378
0
LINE
8
BLACK
6
CONTINUOUS
10
0.162008
20
-0.651378
11
0.250591
21
-0.651378
0
LINE
8
BLACK
6
CONTINUOUS
10
0.250591
20
-0.651378
11
0.250591
21
-0.491929
0
LINE
8
BLACK
6
CONTINUOUS
10
0.250591
20
-0.491929
11
0.162008
21
-0.491929
0
LINE
8
BLACK
6
CONTINUOUS
10
0.0672876
20
-0.548335
11
0.126343
21
-0.56802
0
LINE
8
BLACK
6
CONTINUOUS
10
0.126343
20
-0.56802
11
0.127332
21
-0.568673
0
LINE
8
BLACK
6
CONTINUOUS
10
0.127332
20
-0.568673
11
0.128393
21
-0.569203
0
LINE
8
BLACK
6
CONTINUOUS
10
0.128393
20
-0.569203
11
0.128592
21
-0.569505
0
LINE
8
BLACK
6
CONTINUOUS
10
0.128592
20
-0.569505
11
0.128894
21
-0.569704
0
LINE
8
BLACK
6
CONTINUOUS
10
0.128894
20
-0.569704
11
0.129424
21
-0.570765
0
LINE
8
BLACK
6
CONTINUOUS
10
0.129424
20
-0.570765
11
0.130078
21
-0.571755
0
LINE
8
BLACK
6
CONTINUOUS
10
0.130078
20
-0.571755
11
0.130099
21
-0.572115
0
LINE
8
BLACK
6
CONTINUOUS
10
0.130099
20
-0.572115
11
0.130261
21
-0.572438
0
LINE
8
BLACK
6
CONTINUOUS
10
0.130261
20
-0.572438
11
0.13019
21
-0.573622
0
LINE
8
BLACK
6
CONTINUOUS
10
0.13019
20
-0.573622
11
0.130261
21
-0.574806
0
LINE
8
BLACK
6
CONTINUOUS
10
0.130261
20
-0.574806
11
0.130099
21
-0.575129
0
LINE
8
BLACK
6
CONTINUOUS
10
0.130099
20
-0.575129
11
0.130078
21
-0.575489
0
LINE
8
BLACK
6
CONTINUOUS
10
0.130078
20
-0.575489
11
0.129424
21
-0.576479
0
LINE
8
BLACK
6
CONTINUOUS
10
0.129424
20
-0.576479
11
0.128894
21
-0.57754
0
LINE
8
BLACK
6
CONTINUOUS
10
0.128894
20
-0.57754
11
0.128592
21
-0.577739
0
LINE
8
BLACK
6
CONTINUOUS
10
0.128592
20
-0.577739
11
0.128393
21
-0.578041
0
LINE
8
BLACK
6
CONTINUOUS
10
0.128393
20
-0.578041
11
0.127332
21
-0.578571
0
LINE
8
BLACK
6
CONTINUOUS
10
0.127332
20
-0.578571
11
0.126343
21
-0.579224
0
LINE
8
BLACK
6
CONTINUOUS
10
0.126343
20
-0.579224
11
0.0672876
21
-0.598909
0
LINE
8
BLACK
6
CONTINUOUS
10
0.0672876
20
-0.598909
11
0.0642362
21
-0.599093
0
LINE
8
BLACK
6
CONTINUOUS
10
0.0642362
20
-0.599093
11
0.061502
21
-0.597726
0
LINE
8
BLACK
6
CONTINUOUS
10
0.061502
20
-0.597726
11
0.0598177
21
-0.595175
0
LINE
8
BLACK
6
CONTINUOUS
10
0.0598177
20
-0.595175
11
0.0596345
21
-0.592123
0
LINE
8
BLACK
6
CONTINUOUS
10
0.0596345
20
-0.592123
11
0.0610016
21
-0.589389
0
LINE
8
BLACK
6
CONTINUOUS
10
0.0610016
20
-0.589389
11
0.0635526
21
-0.587705
0
LINE
8
BLACK
6
CONTINUOUS
10
0.0635526
20
-0.587705
11
0.0763875
21
-0.583426
0
LINE
8
BLACK
6
CONTINUOUS
10
0.0763875
20
-0.583426
11
0.0763875
21
-0.563818
0
LINE
8
BLACK
6
CONTINUOUS
10
0.0763875
20
-0.563818
11
0.0635526
21
-0.559539
0
LINE
8
BLACK
6
CONTINUOUS
10
0.0635526
20
-0.559539
11
0.0610016
21
-0.557855
0
LINE
8
BLACK
6
CONTINUOUS
10
0.0610016
20
-0.557855
11
0.0596345
21
-0.555121
0
LINE
8
BLACK
6
CONTINUOUS
10
0.0596345
20
-0.555121
11
0.0598177
21
-0.552069
0
LINE
8
BLACK
6
CONTINUOUS
10
0.0598177
20
-0.552069
11
0.061502
21
-0.549518
0
LINE
8
BLACK
6
CONTINUOUS
10
0.061502
20
-0.549518
11
0.0642362
21
-0.548151
0
LINE
8
BLACK
6
CONTINUOUS
10
0.0642362
20
-0.548151
11
0.0672876
21
-0.548335
0
LINE
8
BLACK
6
CONTINUOUS
10
0.0881985
20
-0.579489
11
0.1058
21
-0.573622
0
LINE
8
BLACK
6
CONTINUOUS
10
0.1058
20
-0.573622
11
0.0881985
21
-0.567755
0
LINE
8
BLACK
6
CONTINUOUS
10
0.0881985
20
-0.567755
11
0.0881985
21
-0.579489
0
LINE
8
BLACK
6
CONTINUOUS
10
-0.0993859
20
-0.364644
11
-0.0991009
21
-0.364828
0
LINE
8
BLACK
6
CONTINUOUS
10
-0.0991009
20
-0.364828
11
-0.098765
21
-0.364873
0
LINE
8
BLACK
6
CONTINUOUS
10
-0.098765
20
-0.364873
11
-0.0979519
21
-0.365566
0
LINE
8
BLACK
6
CONTINUOUS
10
-0.0979519
20
-0.365566
11
-0.0970532
21
-0.366144
0
LINE
8
BLACK
6
CONTINUOUS
10
-0.0970532
20
-0.366144
11
-0.0969124
21
-0.366452
0
LINE
8
BLACK
6
CONTINUOUS
10
-0.0969124
20
-0.366452
11
-0.0966544
21
-0.366672
0
LINE
8
BLACK
6
CONTINUOUS
10
-0.0966544
20
-0.366672
11
-0.096345
21
-0.367694
0
LINE
8
BLACK
6
CONTINUOUS
10
-0.096345
20
-0.367694
11
-0.0959013
21
-0.368666
0
LINE
8
BLACK
6
CONTINUOUS
10
-0.0959013
20
-0.368666
11
-0.0959495
21
-0.369001
0
LINE
8
BLACK
6
CONTINUOUS
10
-0.0959495
20
-0.369001
11
-0.0958513
21
-0.369326
0
LINE
8
BLACK
6
CONTINUOUS
10
-0.0958513
20
-0.369326
11
-0.0961439
21
-0.370353
0
LINE
8
BLACK
6
CONTINUOUS
10
-0.0961439
20
-0.370353
11
-0.0962959
21
-0.371411
0
LINE
8
BLACK
6
CONTINUOUS
10
-0.0962959
20
-0.371411
11
-0.0965179
21
-0.371667
0
LINE
8
BLACK
6
CONTINUOUS
10
-0.0965179
20
-0.371667
11
-0.0966107
21
-0.371993
0
LINE
8
BLACK
6
CONTINUOUS
10
-0.0966107
20
-0.371993
11
-0.0974123
21
-0.372699
0
LINE
8
BLACK
6
CONTINUOUS
10
-0.0974123
20
-0.372699
11
-0.0981118
21
-0.373506
0
LINE
8
BLACK
6
CONTINUOUS
10
-0.0981118
20
-0.373506
11
-0.098437
21
-0.373602
0
LINE
8
BLACK
6
CONTINUOUS
10
-0.098437
20
-0.373602
11
-0.0986913
21
-0.373826
0
LINE
8
BLACK
6
CONTINUOUS
10
-0.0986913
20
-0.373826
11
-0.117257
21
-0.38249
0
LINE
8
BLACK
6
CONTINUOUS
10
-0.117257
20
-0.38249
11
-0.0986913
21
-0.391153
0
LINE
8
BLACK
6
CONTINUOUS
10
-0.0986913
20
-0.391153
11
-0.0975192
21
-0.39192
0
LINE
8
BLACK
6
CONTINUOUS
10
-0.0975192
20
-0.39192
11
-0.0973383
21
-0.392207
0
LINE
8
BLACK
6
CONTINUOUS
10
-0.0973383
20
-0.392207
11
-0.0970532
21
-0.39239
0
LINE
8
BLACK
6
CONTINUOUS
10
-0.0970532
20
-0.39239
11
-0.0966095
21
-0.393362
0
LINE
8
BLACK
6
CONTINUOUS
10
-0.0966095
20
-0.393362
11
-0.0960393
21
-0.394265
0
LINE
8
BLACK
6
CONTINUOUS
10
-0.0960393
20
-0.394265
11
-0.096042
21
-0.394604
0
LINE
8
BLACK
6
CONTINUOUS
10
-0.096042
20
-0.394604
11
-0.0959013
21
-0.394913
0
LINE
8
BLACK
6
CONTINUOUS
10
-0.0959013
20
-0.394913
11
-0.0960533
21
-0.39597
0
LINE
8
BLACK
6
CONTINUOUS
10
-0.0960533
20
-0.39597
11
-0.0960621
21
-0.397038
0
LINE
8
BLACK
6
CONTINUOUS
10
-0.0960621
20
-0.397038
11
-0.0962477
21
-0.397322
0
LINE
8
BLACK
6
CONTINUOUS
10
-0.0962477
20
-0.397322
11
-0.0962959
21
-0.397657
0
LINE
8
BLACK
6
CONTINUOUS
10
-0.0962959
20
-0.397657
11
-0.0969954
21
-0.398465
0
LINE
8
BLACK
6
CONTINUOUS
10
-0.0969954
20
-0.398465
11
-0.0975804
21
-0.399359
0
LINE
8
BLACK
6
CONTINUOUS
10
-0.0975804
20
-0.399359
11
-0.0978899
21
-0.399497
0
LINE
8
BLACK
6
CONTINUOUS
10
-0.0978899
20
-0.399497
11
-0.0981118
21
-0.399753
0
LINE
8
BLACK
6
CONTINUOUS
10
-0.0981118
20
-0.399753
11
-0.0991368
21
-0.400054
0
LINE
8
BLACK
6
CONTINUOUS
10
-0.0991368
20
-0.400054
11
-0.100112
21
-0.40049
0
LINE
8
BLACK
6
CONTINUOUS
10
-0.100112
20
-0.40049
11
-0.100447
21
-0.400439
0
LINE
8
BLACK
6
CONTINUOUS
10
-0.100447
20
-0.400439
11
-0.100772
21
-0.400534
0
LINE
8
BLACK
6
CONTINUOUS
10
-0.100772
20
-0.400534
11
-0.140143
21
-0.400534
0
LINE
8
BLACK
6
CONTINUOUS
10
-0.140143
20
-0.400534
11
-0.141529
21
-0.400335
0
LINE
8
BLACK
6
CONTINUOUS
10
-0.141529
20
-0.400335
11
-0.143862
21
-0.398836
0
LINE
8
BLACK
6
CONTINUOUS
10
-0.143862
20
-0.398836
11
-0.145014
21
-0.396313
0
LINE
8
BLACK
6
CONTINUOUS
10
-0.145014
20
-0.396313
11
-0.144619
21
-0.393569
0
LINE
8
BLACK
6
CONTINUOUS
10
-0.144619
20
-0.393569
11
-0.142803
21
-0.391473
0
LINE
8
BLACK
6
CONTINUOUS
10
-0.142803
20
-0.391473
11
-0.140143
21
-0.390692
0
LINE
8
BLACK
6
CONTINUOUS
10
-0.140143
20
-0.390692
11
-0.122955
21
-0.390692
0
LINE
8
BLACK
6
CONTINUOUS
10
-0.122955
20
-0.390692
11
-0.130975
21
-0.386949
0
LINE
8
BLACK
6
CONTINUOUS
10
-0.130975
20
-0.386949
11
-0.132147
21
-0.386182
0
LINE
8
BLACK
6
CONTINUOUS
10
-0.132147
20
-0.386182
11
-0.132504
21
-0.385617
0
LINE
8
BLACK
6
CONTINUOUS
10
-0.132504
20
-0.385617
11
-0.133012
21
-0.385184
0
LINE
8
BLACK
6
CONTINUOUS
10
-0.133012
20
-0.385184
11
-0.133228
21
-0.384469
0
LINE
8
BLACK
6
CONTINUOUS
10
-0.133228
20
-0.384469
11
-0.133627
21
-0.383837
0
LINE
8
BLACK
6
CONTINUOUS
10
-0.133627
20
-0.383837
11
-0.133622
21
-0.383169
0
LINE
8
BLACK
6
CONTINUOUS
10
-0.133622
20
-0.383169
11
-0.133815
21
-0.38253
0
LINE
8
BLACK
6
CONTINUOUS
10
-0.133815
20
-0.38253
11
-0.13361
21
-0.381811
0
LINE
8
BLACK
6
CONTINUOUS
10
-0.13361
20
-0.381811
11
-0.133604
21
-0.381064
0
LINE
8
BLACK
6
CONTINUOUS
10
-0.133604
20
-0.381064
11
-0.133239
21
-0.380505
0
LINE
8
BLACK
6
CONTINUOUS
10
-0.133239
20
-0.380505
11
-0.133056
21
-0.379863
0
LINE
8
BLACK
6
CONTINUOUS
10
-0.133056
20
-0.379863
11
-0.132495
21
-0.379369
0
LINE
8
BLACK
6
CONTINUOUS
10
-0.132495
20
-0.379369
11
-0.132086
21
-0.378744
0
LINE
8
BLACK
6
CONTINUOUS
10
-0.132086
20
-0.378744
11
-0.131476
21
-0.378472
0
LINE
8
BLACK
6
CONTINUOUS
10
-0.131476
20
-0.378472
11
-0.130975
21
-0.37803
0
LINE
8
BLACK
6
CONTINUOUS
10
-0.130975
20
-0.37803
11
-0.122955
21
-0.374288
0
LINE
8
BLACK
6
CONTINUOUS
10
-0.122955
20
-0.374288
11
-0.140143
21
-0.374288
0
LINE
8
BLACK
6
CONTINUOUS
10
-0.140143
20
-0.374288
11
-0.141529
21
-0.374088
0
LINE
8
BLACK
6
CONTINUOUS
10
-0.141529
20
-0.374088
11
-0.143862
21
-0.372589
0
LINE
8
BLACK
6
CONTINUOUS
10
-0.143862
20
-0.372589
11
-0.145014
21
-0.370067
0
LINE
8
BLACK
6
CONTINUOUS
10
-0.145014
20
-0.370067
11
-0.144619
21
-0.367322
0
LINE
8
BLACK
6
CONTINUOUS
10
-0.144619
20
-0.367322
11
-0.142803
21
-0.365226
0
LINE
8
BLACK
6
CONTINUOUS
10
-0.142803
20
-0.365226
11
-0.140143
21
-0.364445
0
LINE
8
BLACK
6
CONTINUOUS
10
-0.140143
20
-0.364445
11
-0.100772
21
-0.364445
0
LINE
8
BLACK
6
CONTINUOUS
10
-0.100772
20
-0.364445
11
-0.0993859
21
-0.364644
0
LINE
8
BLACK
6
CONTINUOUS
10
-0.00188976
20
-0.364252
11
-0.0618898
21
-0.364252
0
LINE
8
BLACK
6
CONTINUOUS
10
-0.0618898
20
-0.364252
11
-0.0618898
21
-0.304252
0
LINE
8
BLACK
6
CONTINUOUS
10
-0.0618898
20
-0.304252
11
-0.00188976
21
-0.304252
0
LINE
8
BLACK
6
CONTINUOUS
10
-0.00188976
20
-0.304252
11
-0.00188976
21
-0.364252
0
LINE
8
BLACK
6
CONTINUOUS
10
-0.00188976
20
-0.264252
11
-0.0618898
21
-0.264252
0
LINE
8
BLACK
6
CONTINUOUS
10
-0.0618898
20
-0.264252
11
-0.0618898
21
-0.204252
0
LINE
8
BLACK
6
CONTINUOUS
10
-0.0618898
20
-0.204252
11
-0.00188976
21
-0.204252
0
LINE
8
BLACK
6
CONTINUOUS
10
-0.00188976
20
-0.204252
11
-0.00188976
21
-0.264252
0
LINE
8
BLACK
6
CONTINUOUS
10
0.0184937
20
-0.181367
11
0.018623
21
-0.181344
0
LINE
8
BLACK
6
CONTINUOUS
10
0.018623
20
-0.181344
11
0.0187366
21
-0.18141
0
LINE
8
BLACK
6
CONTINUOUS
10
0.0187366
20
-0.18141
11
0.0191202
21
-0.181477
0
LINE
8
BLACK
6
CONTINUOUS
10
0.0191202
20
-0.181477
11
0.0197078
21
-0.18197
0
LINE
8
BLACK
6
CONTINUOUS
10
0.0197078
20
-0.18197
11
0.0203722
21
-0.182354
0
LINE
8
BLACK
6
CONTINUOUS
10
0.0203722
20
-0.182354
11
0.0204633
21
-0.182604
0
LINE
8
BLACK
6
CONTINUOUS
10
0.0204633
20
-0.182604
11
0.0206674
21
-0.182776
0
LINE
8
BLACK
6
CONTINUOUS
10
0.0206674
20
-0.182776
11
0.0208006
21
-0.183531
0
LINE
8
BLACK
6
CONTINUOUS
10
0.0208006
20
-0.183531
11
0.021063
21
-0.184252
0
LINE
8
BLACK
6
CONTINUOUS
10
0.021063
20
-0.184252
11
0.021063
21
-0.384252
0
LINE
8
BLACK
6
CONTINUOUS
10
0.021063
20
-0.384252
11
0.0209954
21
-0.384635
0
LINE
8
BLACK
6
CONTINUOUS
10
0.0209954
20
-0.384635
11
0.0210181
21
-0.384765
0
LINE
8
BLACK
6
CONTINUOUS
10
0.0210181
20
-0.384765
11
0.0209525
21
-0.384878
0
LINE
8
BLACK
6
CONTINUOUS
10
0.0209525
20
-0.384878
11
0.0208849
21
-0.385262
0
LINE
8
BLACK
6
CONTINUOUS
10
0.0208849
20
-0.385262
11
0.0203918
21
-0.38585
0
LINE
8
BLACK
6
CONTINUOUS
10
0.0203918
20
-0.38585
11
0.0200082
21
-0.386514
0
LINE
8
BLACK
6
CONTINUOUS
10
0.0200082
20
-0.386514
11
0.0197579
21
-0.386605
0
LINE
8
BLACK
6
CONTINUOUS
10
0.0197579
20
-0.386605
11
0.0195866
21
-0.386809
0
LINE
8
BLACK
6
CONTINUOUS
10
0.0195866
20
-0.386809
11
0.018831
21
-0.386942
0
LINE
8
BLACK
6
CONTINUOUS
10
0.018831
20
-0.386942
11
0.0181102
21
-0.387205
0
LINE
8
BLACK
6
CONTINUOUS
10
0.0181102
20
-0.387205
11
-0.0818898
21
-0.387205
0
LINE
8
BLACK
6
CONTINUOUS
10
-0.0818898
20
-0.387205
11
-0.0822733
21
-0.387137
0
LINE
8
BLACK
6
CONTINUOUS
10
-0.0822733
20
-0.387137
11
-0.0824025
21
-0.38716
0
LINE
8
BLACK
6
CONTINUOUS
10
-0.0824025
20
-0.38716
11
-0.0825161
21
-0.387094
0
LINE
8
BLACK
6
CONTINUOUS
10
-0.0825161
20
-0.387094
11
-0.0828997
21
-0.387027
0
LINE
8
BLACK
6
CONTINUOUS
10
-0.0828997
20
-0.387027
11
-0.0834874
21
-0.386534
0
LINE
8
BLACK
6
CONTINUOUS
10
-0.0834874
20
-0.386534
11
-0.0841517
21
-0.38615
0
LINE
8
BLACK
6
CONTINUOUS
10
-0.0841517
20
-0.38615
11
-0.0842428
21
-0.3859
0
LINE
8
BLACK
6
CONTINUOUS
10
-0.0842428
20
-0.3859
11
-0.0844469
21
-0.385728
0
LINE
8
BLACK
6
CONTINUOUS
10
-0.0844469
20
-0.385728
11
-0.0845802
21
-0.384973
0
LINE
8
BLACK
6
CONTINUOUS
10
-0.0845802
20
-0.384973
11
-0.0848425
21
-0.384252
0
LINE
8
BLACK
6
CONTINUOUS
10
-0.0848425
20
-0.384252
11
-0.0848425
21
-0.184252
0
LINE
8
BLACK
6
CONTINUOUS
10
-0.0848425
20
-0.184252
11
-0.0847749
21
-0.183868
0
LINE
8
BLACK
6
CONTINUOUS
10
-0.0847749
20
-0.183868
11
-0.0847977
21
-0.183739
0
LINE
8
BLACK
6
CONTINUOUS
10
-0.0847977
20
-0.183739
11
-0.0847321
21
-0.183626
0
LINE
8
BLACK
6
CONTINUOUS
10
-0.0847321
20
-0.183626
11
-0.0846644
21
-0.183242
0
LINE
8
BLACK
6
CONTINUOUS
10
-0.0846644
20
-0.183242
11
-0.0841713
21
-0.182654
0
LINE
8
BLACK
6
CONTINUOUS
10
-0.0841713
20
-0.182654
11
-0.0837878
21
-0.18199
0
LINE
8
BLACK
6
CONTINUOUS
10
-0.0837878
20
-0.18199
11
-0.0835374
21
-0.181899
0
LINE
8
BLACK
6
CONTINUOUS
10
-0.0835374
20
-0.181899
11
-0.0833661
21
-0.181695
0
LINE
8
BLACK
6
CONTINUOUS
10
-0.0833661
20
-0.181695
11
-0.0826106
21
-0.181562
0
LINE
8
BLACK
6
CONTINUOUS
10
-0.0826106
20
-0.181562
11
-0.0818898
21
-0.181299
0
LINE
8
BLACK
6
CONTINUOUS
10
-0.0818898
20
-0.181299
11
0.0181102
21
-0.181299
0
LINE
8
BLACK
6
CONTINUOUS
10
0.0181102
20
-0.181299
11
0.0184937
21
-0.181367
0
LINE
8
BLACK
6
CONTINUOUS
10
-0.078937
20
-0.187205
11
-0.078937
21
-0.381299
0
LINE
8
BLACK
6
CONTINUOUS
10
-0.078937
20
-0.381299
11
0.0151575
21
-0.381299
0
LINE
8
BLACK
6
CONTINUOUS
10
0.0151575
20
-0.381299
11
0.0151575
21
-0.187205
0
LINE
8
BLACK
6
CONTINUOUS
10
0.0151575
20
-0.187205
11
-0.078937
21
-0.187205
0
LINE
8
BLACK
6
CONTINUOUS
10
-0.10196
20
-0.343961
11
-0.101601
21
-0.343935
0
LINE
8
BLACK
6
CONTINUOUS
10
-0.101601
20
-0.343935
11
-0.100681
21
-0.344438
0
LINE
8
BLACK
6
CONTINUOUS
10
-0.100681
20
-0.344438
11
-0.099698
21
-0.344804
0
LINE
8
BLACK
6
CONTINUOUS
10
-0.099698
20
-0.344804
11
-0.0994827
21
-0.345092
0
LINE
8
BLACK
6
CONTINUOUS
10
-0.0994827
20
-0.345092
11
-0.0991674
21
-0.345264
0
LINE
8
BLACK
6
CONTINUOUS
10
-0.0991674
20
-0.345264
11
-0.0972926
21
-0.347139
0
LINE
8
BLACK
6
CONTINUOUS
10
-0.0972926
20
-0.347139
11
-0.0971437
21
-0.347338
0
LINE
8
BLACK
6
CONTINUOUS
10
-0.0971437
20
-0.347338
11
-0.0970532
21
-0.347396
0
LINE
8
BLACK
6
CONTINUOUS
10
-0.0970532
20
-0.347396
11
-0.0969798
21
-0.347557
0
LINE
8
BLACK
6
CONTINUOUS
10
-0.0969798
20
-0.347557
11
-0.0964531
21
-0.34826
0
LINE
8
BLACK
6
CONTINUOUS
10
-0.0964531
20
-0.34826
11
-0.0963768
21
-0.348611
0
LINE
8
BLACK
6
CONTINUOUS
10
-0.0963768
20
-0.348611
11
-0.0961615
21
-0.348899
0
LINE
8
BLACK
6
CONTINUOUS
10
-0.0961615
20
-0.348899
11
-0.0961234
21
-0.349432
0
LINE
8
BLACK
6
CONTINUOUS
10
-0.0961234
20
-0.349432
11
-0.0959013
21
-0.349918
0
LINE
8
BLACK
6
CONTINUOUS
10
-0.0959013
20
-0.349918
11
-0.0959774
21
-0.350447
0
LINE
8
BLACK
6
CONTINUOUS
10
-0.0959774
20
-0.350447
11
-0.0958637
21
-0.35097
0
LINE
8
BLACK
6
CONTINUOUS
10
-0.0958637
20
-0.35097
11
-0.0959893
21
-0.351306
0
LINE
8
BLACK
6
CONTINUOUS
10
-0.0959893
20
-0.351306
11
-0.0959637
21
-0.351665
0
LINE
8
BLACK
6
CONTINUOUS
10
-0.0959637
20
-0.351665
11
-0.0962198
21
-0.352134
0
LINE
8
BLACK
6
CONTINUOUS
10
-0.0962198
20
-0.352134
11
-0.0962959
21
-0.352663
0
LINE
8
BLACK
6
CONTINUOUS
10
-0.0962959
20
-0.352663
11
-0.096646
21
-0.353067
0
LINE
8
BLACK
6
CONTINUOUS
10
-0.096646
20
-0.353067
11
-0.0968328
21
-0.353568
0
LINE
8
BLACK
6
CONTINUOUS
10
-0.0968328
20
-0.353568
11
-0.0971204
21
-0.353783
0
LINE
8
BLACK
6
CONTINUOUS
10
-0.0971204
20
-0.353783
11
-0.0972926
21
-0.354099
0
LINE
8
BLACK
6
CONTINUOUS
10
-0.0972926
20
-0.354099
11
-0.0991674
21
-0.355973
0
LINE
8
BLACK
6
CONTINUOUS
10
-0.0991674
20
-0.355973
11
-0.100289
21
-0.356813
0
LINE
8
BLACK
6
CONTINUOUS
10
-0.100289
20
-0.356813
11
-0.10064
21
-0.356889
0
LINE
8
BLACK
6
CONTINUOUS
10
-0.10064
20
-0.356889
11
-0.100927
21
-0.357104
0
LINE
8
BLACK
6
CONTINUOUS
10
-0.100927
20
-0.357104
11
-0.101973
21
-0.357179
0
LINE
8
BLACK
6
CONTINUOUS
10
-0.101973
20
-0.357179
11
-0.102998
21
-0.357402
0
LINE
8
BLACK
6
CONTINUOUS
10
-0.102998
20
-0.357402
11
-0.103335
21
-0.357277
0
LINE
8
BLACK
6
CONTINUOUS
10
-0.103335
20
-0.357277
11
-0.103693
21
-0.357302
0
LINE
8
BLACK
6
CONTINUOUS
10
-0.103693
20
-0.357302
11
-0.104614
21
-0.3568
0
LINE
8
BLACK
6
CONTINUOUS
10
-0.104614
20
-0.3568
11
-0.105596
21
-0.356433
0
LINE
8
BLACK
6
CONTINUOUS
10
-0.105596
20
-0.356433
11
-0.105812
21
-0.356145
0
LINE
8
BLACK
6
CONTINUOUS
10
-0.105812
20
-0.356145
11
-0.106127
21
-0.355973
0
LINE
8
BLACK
6
CONTINUOUS
10
-0.106127
20
-0.355973
11
-0.108002
21
-0.354098
0
LINE
8
BLACK
6
CONTINUOUS
10
-0.108002
20
-0.354098
11
-0.108151
21
-0.3539
0
LINE
8
BLACK
6
CONTINUOUS
10
-0.108151
20
-0.3539
11
-0.108241
21
-0.353841
0
LINE
8
BLACK
6
CONTINUOUS
10
-0.108241
20
-0.353841
11
-0.108315
21
-0.353681
0
LINE
8
BLACK
6
CONTINUOUS
10
-0.108315
20
-0.353681
11
-0.108841
21
-0.352977
0
LINE
8
BLACK
6
CONTINUOUS
10
-0.108841
20
-0.352977
11
-0.108918
21
-0.352626
0
LINE
8
BLACK
6
CONTINUOUS
10
-0.108918
20
-0.352626
11
-0.109133
21
-0.352338
0
LINE
8
BLACK
6
CONTINUOUS
10
-0.109133
20
-0.352338
11
-0.109171
21
-0.351805
0
LINE
8
BLACK
6
CONTINUOUS
10
-0.109171
20
-0.351805
11
-0.109266
21
-0.351597
0
LINE
8
BLACK
6
CONTINUOUS
10
-0.109266
20
-0.351597
11
-0.109419
21
-0.352663
0
LINE
8
BLACK
6
CONTINUOUS
10
-0.109419
20
-0.352663
11
-0.111235
21
-0.354759
0
LINE
8
BLACK
6
CONTINUOUS
10
-0.111235
20
-0.354759
11
-0.113896
21
-0.35554
0
LINE
8
BLACK
6
CONTINUOUS
10
-0.113896
20
-0.35554
11
-0.140143
21
-0.35554
0
LINE
8
BLACK
6
CONTINUOUS
10
-0.140143
20
-0.35554
11
-0.141529
21
-0.355341
0
LINE
8
BLACK
6
CONTINUOUS
10
-0.141529
20
-0.355341
11
-0.143862
21
-0.353841
0
LINE
8
BLACK
6
CONTINUOUS
10
-0.143862
20
-0.353841
11
-0.145014
21
-0.351319
0
LINE
8
BLACK
6
CONTINUOUS
10
-0.145014
20
-0.351319
11
-0.144619
21
-0.348574
0
LINE
8
BLACK
6
CONTINUOUS
10
-0.144619
20
-0.348574
11
-0.142803
21
-0.346479
0
LINE
8
BLACK
6
CONTINUOUS
10
-0.142803
20
-0.346479
11
-0.140143
21
-0.345697
0
LINE
8
BLACK
6
CONTINUOUS
10
-0.140143
20
-0.345697
11
-0.113896
21
-0.345697
0
LINE
8
BLACK
6
CONTINUOUS
10
-0.113896
20
-0.345697
11
-0.112509
21
-0.345897
0
LINE
8
BLACK
6
CONTINUOUS
10
-0.112509
20
-0.345897
11
-0.110177
21
-0.347396
0
LINE
8
BLACK
6
CONTINUOUS
10
-0.110177
20
-0.347396
11
-0.10925
21
-0.349425
0
LINE
8
BLACK
6
CONTINUOUS
10
-0.10925
20
-0.349425
11
-0.109075
21
-0.349103
0
LINE
8
BLACK
6
CONTINUOUS
10
-0.109075
20
-0.349103
11
-0.108999
21
-0.348574
0
LINE
8
BLACK
6
CONTINUOUS
10
-0.108999
20
-0.348574
11
-0.108649
21
-0.34817
0
LINE
8
BLACK
6
CONTINUOUS
10
-0.108649
20
-0.34817
11
-0.108462
21
-0.347669
0
LINE
8
BLACK
6
CONTINUOUS
10
-0.108462
20
-0.347669
11
-0.108174
21
-0.347454
0
LINE
8
BLACK
6
CONTINUOUS
10
-0.108174
20
-0.347454
11
-0.108002
21
-0.347139
0
LINE
8
BLACK
6
CONTINUOUS
10
-0.108002
20
-0.347139
11
-0.106127
21
-0.345264
0
LINE
8
BLACK
6
CONTINUOUS
10
-0.106127
20
-0.345264
11
-0.105006
21
-0.344425
0
LINE
8
BLACK
6
CONTINUOUS
10
-0.105006
20
-0.344425
11
-0.104655
21
-0.344348
0
LINE
8
BLACK
6
CONTINUOUS
10
-0.104655
20
-0.344348
11
-0.104367
21
-0.344133
0
LINE
8
BLACK
6
CONTINUOUS
10
-0.104367
20
-0.344133
11
-0.103321
21
-0.344058
0
LINE
8
BLACK
6
CONTINUOUS
10
-0.103321
20
-0.344058
11
-0.102296
21
-0.343835
0
LINE
8
BLACK
6
CONTINUOUS
10
-0.102296
20
-0.343835
11
-0.10196
21
-0.343961
0
LINE
8
BLACK
6
CONTINUOUS
10
-0.0993859
20
-0.310276
11
-0.0970532
21
-0.311775
0
LINE
8
BLACK
6
CONTINUOUS
10
-0.0970532
20
-0.311775
11
-0.0959013
21
-0.314298
0
LINE
8
BLACK
6
CONTINUOUS
10
-0.0959013
20
-0.314298
11
-0.0962959
21
-0.317042
0
LINE
8
BLACK
6
CONTINUOUS
10
-0.0962959
20
-0.317042
11
-0.0981118
21
-0.319138
0
LINE
8
BLACK
6
CONTINUOUS
10
-0.0981118
20
-0.319138
11
-0.100772
21
-0.319919
0
LINE
8
BLACK
6
CONTINUOUS
10
-0.100772
20
-0.319919
11
-0.108975
21
-0.319919
0
LINE
8
BLACK
6
CONTINUOUS
10
-0.108975
20
-0.319919
11
-0.108975
21
-0.326247
0
LINE
8
BLACK
6
CONTINUOUS
10
-0.108975
20
-0.326247
11
-0.109174
21
-0.327633
0
LINE
8
BLACK
6
CONTINUOUS
10
-0.109174
20
-0.327633
11
-0.109415
21
-0.328009
0
LINE
8
BLACK
6
CONTINUOUS
10
-0.109415
20
-0.328009
11
-0.109494
21
-0.328448
0
LINE
8
BLACK
6
CONTINUOUS
10
-0.109494
20
-0.328448
11
-0.111369
21
-0.332197
0
LINE
8
BLACK
6
CONTINUOUS
10
-0.111369
20
-0.332197
11
-0.112167
21
-0.333348
0
LINE
8
BLACK
6
CONTINUOUS
10
-0.112167
20
-0.333348
11
-0.112246
21
-0.333395
0
LINE
8
BLACK
6
CONTINUOUS
10
-0.112246
20
-0.333395
11
-0.112291
21
-0.333476
0
LINE
8
BLACK
6
CONTINUOUS
10
-0.112291
20
-0.333476
11
-0.114165
21
-0.335351
0
LINE
8
BLACK
6
CONTINUOUS
10
-0.114165
20
-0.335351
11
-0.115287
21
-0.33619
0
LINE
8
BLACK
6
CONTINUOUS
10
-0.115287
20
-0.33619
11
-0.115377
21
-0.33621
0
LINE
8
BLACK
6
CONTINUOUS
10
-0.115377
20
-0.33621
11
-0.115444
21
-0.336273
0
LINE
8
BLACK
6
CONTINUOUS
10
-0.115444
20
-0.336273
11
-0.119194
21
-0.338147
0
LINE
8
BLACK
6
CONTINUOUS
10
-0.119194
20
-0.338147
11
-0.120523
21
-0.338589
0
LINE
8
BLACK
6
CONTINUOUS
10
-0.120523
20
-0.338589
11
-0.120967
21
-0.338541
0
LINE
8
BLACK
6
CONTINUOUS
10
-0.120967
20
-0.338541
11
-0.121395
21
-0.338667
0
LINE
8
BLACK
6
CONTINUOUS
10
-0.121395
20
-0.338667
11
-0.132643
21
-0.338667
0
LINE
8
BLACK
6
CONTINUOUS
10
-0.132643
20
-0.338667
11
-0.13403
21
-0.338468
0
LINE
8
BLACK
6
CONTINUOUS
10
-0.13403
20
-0.338468
11
-0.134405
21
-0.338226
0
LINE
8
BLACK
6
CONTINUOUS
10
-0.134405
20
-0.338226
11
-0.134844
21
-0.338147
0
LINE
8
BLACK
6
CONTINUOUS
10
-0.134844
20
-0.338147
11
-0.138594
21
-0.336273
0
LINE
8
BLACK
6
CONTINUOUS
10
-0.138594
20
-0.336273
11
-0.139745
21
-0.335474
0
LINE
8
BLACK
6
CONTINUOUS
10
-0.139745
20
-0.335474
11
-0.139792
21
-0.335395
0
LINE
8
BLACK
6
CONTINUOUS
10
-0.139792
20
-0.335395
11
-0.139873
21
-0.335351
0
LINE
8
BLACK
6
CONTINUOUS
10
-0.139873
20
-0.335351
11
-0.141748
21
-0.333476
0
LINE
8
BLACK
6
CONTINUOUS
10
-0.141748
20
-0.333476
11
-0.142587
21
-0.332355
0
LINE
8
BLACK
6
CONTINUOUS
10
-0.142587
20
-0.332355
11
-0.142607
21
-0.332265
0
LINE
8
BLACK
6
CONTINUOUS
10
-0.142607
20
-0.332265
11
-0.142669
21
-0.332197
0
LINE
8
BLACK
6
CONTINUOUS
10
-0.142669
20
-0.332197
11
-0.144544
21
-0.328448
0
LINE
8
BLACK
6
CONTINUOUS
10
-0.144544
20
-0.328448
11
-0.144986
21
-0.327118
0
LINE
8
BLACK
6
CONTINUOUS
10
-0.144986
20
-0.327118
11
-0.144938
21
-0.326675
0
LINE
8
BLACK
6
CONTINUOUS
10
-0.144938
20
-0.326675
11
-0.145064
21
-0.326247
0
LINE
8
BLACK
6
CONTINUOUS
10
-0.145064
20
-0.326247
11
-0.145064
21
-0.318748
0
LINE
8
BLACK
6
CONTINUOUS
10
-0.145064
20
-0.318748
11
-0.144864
21
-0.317361
0
LINE
8
BLACK
6
CONTINUOUS
10
-0.144864
20
-0.317361
11
-0.144623
21
-0.316986
0
LINE
8
BLACK
6
CONTINUOUS
10
-0.144623
20
-0.316986
11
-0.144567
21
-0.316676
0
LINE
8
BLACK
6
CONTINUOUS
10
-0.144567
20
-0.316676
11
-0.145014
21
-0.315698
0
LINE
8
BLACK
6
CONTINUOUS
10
-0.145014
20
-0.315698
11
-0.144619
21
-0.312954
0
LINE
8
BLACK
6
CONTINUOUS
10
-0.144619
20
-0.312954
11
-0.142803
21
-0.310858
0
LINE
8
BLACK
6
CONTINUOUS
10
-0.142803
20
-0.310858
11
-0.140143
21
-0.310077
0
LINE
8
BLACK
6
CONTINUOUS
10
-0.140143
20
-0.310077
11
-0.100772
21
-0.310077
0
LINE
8
BLACK
6
CONTINUOUS
10
-0.100772
20
-0.310077
11
-0.0993859
21
-0.310276
0
LINE
8
BLACK
6
CONTINUOUS
10
-0.135221
20
-0.325085
11
-0.134223
21
-0.327081
0
LINE
8
BLACK
6
CONTINUOUS
10
-0.134223
20
-0.327081
11
-0.133478
21
-0.327826
0
LINE
8
BLACK
6
CONTINUOUS
10
-0.133478
20
-0.327826
11
-0.131482
21
-0.328824
0
LINE
8
BLACK
6
CONTINUOUS
10
-0.131482
20
-0.328824
11
-0.122557
21
-0.328824
0
LINE
8
BLACK
6
CONTINUOUS
10
-0.122557
20
-0.328824
11
-0.12056
21
-0.327826
0
LINE
8
BLACK
6
CONTINUOUS
10
-0.12056
20
-0.327826
11
-0.119815
21
-0.327081
0
LINE
8
BLACK
6
CONTINUOUS
10
-0.119815
20
-0.327081
11
-0.118817
21
-0.325085
0
LINE
8
BLACK
6
CONTINUOUS
10
-0.118817
20
-0.325085
11
-0.118817
21
-0.319919
0
LINE
8
BLACK
6
CONTINUOUS
10
-0.118817
20
-0.319919
11
-0.135221
21
-0.319919
0
LINE
8
BLACK
6
CONTINUOUS
10
-0.135221
20
-0.319919
11
-0.135221
21
-0.325085
0
LINE
8
BLACK
6
CONTINUOUS
10
0.255895
20
-0.143572
11
0.256025
21
-0.143549
0
LINE
8
BLACK
6
CONTINUOUS
10
0.256025
20
-0.143549
11
0.256138
21
-0.143614
0
LINE
8
BLACK
6
CONTINUOUS
10
0.256138
20
-0.143614
11
0.256522
21
-0.143682
0
LINE
8
BLACK
6
CONTINUOUS
10
0.256522
20
-0.143682
11
0.257109
21
-0.144175
0
LINE
8
BLACK
6
CONTINUOUS
10
0.257109
20
-0.144175
11
0.257774
21
-0.144559
0
LINE
8
BLACK
6
CONTINUOUS
10
0.257774
20
-0.144559
11
0.257865
21
-0.144809
0
LINE
8
BLACK
6
CONTINUOUS
10
0.257865
20
-0.144809
11
0.258069
21
-0.14498
0
LINE
8
BLACK
6
CONTINUOUS
10
0.258069
20
-0.14498
11
0.258202
21
-0.145736
0
LINE
8
BLACK
6
CONTINUOUS
10
0.258202
20
-0.145736
11
0.258465
21
-0.146457
0
LINE
8
BLACK
6
CONTINUOUS
10
0.258465
20
-0.146457
11
0.258465
21
-0.311811
0
LINE
8
BLACK
6
CONTINUOUS
10
0.258465
20
-0.311811
11
0.258397
21
-0.312195
0
LINE
8
BLACK
6
CONTINUOUS
10
0.258397
20
-0.312195
11
0.25842
21
-0.312324
0
LINE
8
BLACK
6
CONTINUOUS
10
0.25842
20
-0.312324
11
0.258354
21
-0.312437
0
LINE
8
BLACK
6
CONTINUOUS
10
0.258354
20
-0.312437
11
0.258286
21
-0.312821
0
LINE
8
BLACK
6
CONTINUOUS
10
0.258286
20
-0.312821
11
0.257793
21
-0.313409
0
LINE
8
BLACK
6
CONTINUOUS
10
0.257793
20
-0.313409
11
0.25741
21
-0.314073
0
LINE
8
BLACK
6
CONTINUOUS
10
0.25741
20
-0.314073
11
0.257159
21
-0.314164
0
LINE
8
BLACK
6
CONTINUOUS
10
0.257159
20
-0.314164
11
0.256988
21
-0.314368
0
LINE
8
BLACK
6
CONTINUOUS
10
0.256988
20
-0.314368
11
0.256233
21
-0.314501
0
LINE
8
BLACK
6
CONTINUOUS
10
0.256233
20
-0.314501
11
0.255512
21
-0.314764
0
LINE
8
BLACK
6
CONTINUOUS
10
0.255512
20
-0.314764
11
0.161024
21
-0.314764
0
LINE
8
BLACK
6
CONTINUOUS
10
0.161024
20
-0.314764
11
0.16064
21
-0.314696
0
LINE
8
BLACK
6
CONTINUOUS
10
0.16064
20
-0.314696
11
0.160511
21
-0.314719
0
LINE
8
BLACK
6
CONTINUOUS
10
0.160511
20
-0.314719
11
0.160397
21
-0.314653
0
LINE
8
BLACK
6
CONTINUOUS
10
0.160397
20
-0.314653
11
0.160014
21
-0.314586
0
LINE
8
BLACK
6
CONTINUOUS
10
0.160014
20
-0.314586
11
0.159426
21
-0.314093
0
LINE
8
BLACK
6
CONTINUOUS
10
0.159426
20
-0.314093
11
0.158762
21
-0.313709
0
LINE
8
BLACK
6
CONTINUOUS
10
0.158762
20
-0.313709
11
0.158671
21
-0.313459
0
LINE
8
BLACK
6
CONTINUOUS
10
0.158671
20
-0.313459
11
0.158466
21
-0.313287
0
LINE
8
BLACK
6
CONTINUOUS
10
0.158466
20
-0.313287
11
0.158333
21
-0.312532
0
LINE
8
BLACK
6
CONTINUOUS
10
0.158333
20
-0.312532
11
0.158071
21
-0.311811
0
LINE
8
BLACK
6
CONTINUOUS
10
0.158071
20
-0.311811
11
0.158071
21
-0.146457
0
LINE
8
BLACK
6
CONTINUOUS
10
0.158071
20
-0.146457
11
0.158138
21
-0.146073
0
LINE
8
BLACK
6
CONTINUOUS
10
0.158138
20
-0.146073
11
0.158116
21
-0.145944
0
LINE
8
BLACK
6
CONTINUOUS
10
0.158116
20
-0.145944
11
0.158181
21
-0.14583
0
LINE
8
BLACK
6
CONTINUOUS
10
0.158181
20
-0.14583
11
0.158249
21
-0.145447
0
LINE
8
BLACK
6
CONTINUOUS
10
0.158249
20
-0.145447
11
0.158742
21
-0.144859
0
LINE
8
BLACK
6
CONTINUOUS
10
0.158742
20
-0.144859
11
0.159126
21
-0.144195
0
LINE
8
BLACK
6
CONTINUOUS
10
0.159126
20
-0.144195
11
0.159376
21
-0.144104
0
LINE
8
BLACK
6
CONTINUOUS
10
0.159376
20
-0.144104
11
0.159547
21
-0.1439
0
LINE
8
BLACK
6
CONTINUOUS
10
0.159547
20
-0.1439
11
0.160303
21
-0.143766
0
LINE
8
BLACK
6
CONTINUOUS
10
0.160303
20
-0.143766
11
0.161024
21
-0.143504
0
LINE
8
BLACK
6
CONTINUOUS
10
0.161024
20
-0.143504
11
0.255512
21
-0.143504
0
LINE
8
BLACK
6
CONTINUOUS
10
0.255512
20
-0.143504
11
0.255895
21
-0.143572
0
LINE
8
BLACK
6
CONTINUOUS
10
0.163976
20
-0.149409
11
0.163976
21
-0.308858
0
LINE
8
BLACK
6
CONTINUOUS
10
0.163976
20
-0.308858
11
0.252559
21
-0.308858
0
LINE
8
BLACK
6
CONTINUOUS
10
0.252559
20
-0.308858
11
0.252559
21
-0.149409
0
LINE
8
BLACK
6
CONTINUOUS
10
0.252559
20
-0.149409
11
0.163976
21
-0.149409
0
LINE
8
BLACK
6
CONTINUOUS
10
0.134572
20
-0.244387
11
0.134831
21
-0.244342
0
LINE
8
BLACK
6
CONTINUOUS
10
0.134831
20
-0.244342
11
0.136034
21
-0.244779
0
LINE
8
BLACK
6
CONTINUOUS
10
0.136034
20
-0.244779
11
0.137271
21
-0.245111
0
LINE
8
BLACK
6
CONTINUOUS
10
0.137271
20
-0.245111
11
0.137456
21
-0.245297
0
LINE
8
BLACK
6
CONTINUOUS
10
0.137456
20
-0.245297
11
0.137704
21
-0.245386
0
LINE
8
BLACK
6
CONTINUOUS
10
0.137704
20
-0.245386
11
0.138527
21
-0.246367
0
LINE
8
BLACK
6
CONTINUOUS
10
0.138527
20
-0.246367
11
0.139432
21
-0.247272
0
LINE
8
BLACK
6
CONTINUOUS
10
0.139432
20
-0.247272
11
0.1395
21
-0.247526
0
LINE
8
BLACK
6
CONTINUOUS
10
0.1395
20
-0.247526
11
0.139669
21
-0.247728
0
LINE
8
BLACK
6
CONTINUOUS
10
0.139669
20
-0.247728
11
0.139892
21
-0.248989
0
LINE
8
BLACK
6
CONTINUOUS
10
0.139892
20
-0.248989
11
0.140223
21
-0.250225
0
LINE
8
BLACK
6
CONTINUOUS
10
0.140223
20
-0.250225
11
0.140155
21
-0.250479
0
LINE
8
BLACK
6
CONTINUOUS
10
0.140155
20
-0.250479
11
0.140201
21
-0.250738
0
LINE
8
BLACK
6
CONTINUOUS
10
0.140201
20
-0.250738
11
0.139763
21
-0.251941
0
LINE
8
BLACK
6
CONTINUOUS
10
0.139763
20
-0.251941
11
0.139432
21
-0.253178
0
LINE
8
BLACK
6
CONTINUOUS
10
0.139432
20
-0.253178
11
0.139246
21
-0.253364
0
LINE
8
BLACK
6
CONTINUOUS
10
0.139246
20
-0.253364
11
0.139156
21
-0.253611
0
LINE
8
BLACK
6
CONTINUOUS
10
0.139156
20
-0.253611
11
0.138176
21
-0.254434
0
LINE
8
BLACK
6
CONTINUOUS
10
0.138176
20
-0.254434
11
0.137271
21
-0.255339
0
LINE
8
BLACK
6
CONTINUOUS
10
0.137271
20
-0.255339
11
0.137016
21
-0.255407
0
LINE
8
BLACK
6
CONTINUOUS
10
0.137016
20
-0.255407
11
0.136815
21
-0.255576
0
LINE
8
BLACK
6
CONTINUOUS
10
0.136815
20
-0.255576
11
0.1061
21
-0.26991
0
LINE
8
BLACK
6
CONTINUOUS
10
0.1061
20
-0.26991
11
0.136815
21
-0.284244
0
LINE
8
BLACK
6
CONTINUOUS
10
0.136815
20
-0.284244
11
0.137016
21
-0.284413
0
LINE
8
BLACK
6
CONTINUOUS
10
0.137016
20
-0.284413
11
0.137271
21
-0.284481
0
LINE
8
BLACK
6
CONTINUOUS
10
0.137271
20
-0.284481
11
0.138176
21
-0.285386
0
LINE
8
BLACK
6
CONTINUOUS
10
0.138176
20
-0.285386
11
0.139156
21
-0.286209
0
LINE
8
BLACK
6
CONTINUOUS
10
0.139156
20
-0.286209
11
0.139246
21
-0.286456
0
LINE
8
BLACK
6
CONTINUOUS
10
0.139246
20
-0.286456
11
0.139432
21
-0.286642
0
LINE
8
BLACK
6
CONTINUOUS
10
0.139432
20
-0.286642
11
0.139763
21
-0.287879
0
LINE
8
BLACK
6
CONTINUOUS
10
0.139763
20
-0.287879
11
0.140201
21
-0.289082
0
LINE
8
BLACK
6
CONTINUOUS
10
0.140201
20
-0.289082
11
0.140155
21
-0.289341
0
LINE
8
BLACK
6
CONTINUOUS
10
0.140155
20
-0.289341
11
0.140223
21
-0.289595
0
LINE
8
BLACK
6
CONTINUOUS
10
0.140223
20
-0.289595
11
0.139892
21
-0.290831
0
LINE
8
BLACK
6
CONTINUOUS
10
0.139892
20
-0.290831
11
0.139669
21
-0.292092
0
LINE
8
BLACK
6
CONTINUOUS
10
0.139669
20
-0.292092
11
0.1395
21
-0.292294
0
LINE
8
BLACK
6
CONTINUOUS
10
0.1395
20
-0.292294
11
0.139432
21
-0.292548
0
LINE
8
BLACK
6
CONTINUOUS
10
0.139432
20
-0.292548
11
0.138527
21
-0.293453
0
LINE
8
BLACK
6
CONTINUOUS
10
0.138527
20
-0.293453
11
0.137704
21
-0.294434
0
LINE
8
BLACK
6
CONTINUOUS
10
0.137704
20
-0.294434
11
0.137456
21
-0.294523
0
LINE
8
BLACK
6
CONTINUOUS
10
0.137456
20
-0.294523
11
0.137271
21
-0.294709
0
LINE
8
BLACK
6
CONTINUOUS
10
0.137271
20
-0.294709
11
0.136034
21
-0.295041
0
LINE
8
BLACK
6
CONTINUOUS
10
0.136034
20
-0.295041
11
0.134831
21
-0.295478
0
LINE
8
BLACK
6
CONTINUOUS
10
0.134831
20
-0.295478
11
0.134572
21
-0.295432
0
LINE
8
BLACK
6
CONTINUOUS
10
0.134572
20
-0.295432
11
0.134318
21
-0.295501
0
LINE
8
BLACK
6
CONTINUOUS
10
0.134318
20
-0.295501
11
0.0752626
21
-0.295501
0
LINE
8
BLACK
6
CONTINUOUS
10
0.0752626
20
-0.295501
11
0.0723099
21
-0.294709
0
LINE
8
BLACK
6
CONTINUOUS
10
0.0723099
20
-0.294709
11
0.0701483
21
-0.292548
0
LINE
8
BLACK
6
CONTINUOUS
10
0.0701483
20
-0.292548
11
0.0693571
21
-0.289595
0
LINE
8
BLACK
6
CONTINUOUS
10
0.0693571
20
-0.289595
11
0.0701483
21
-0.286642
0
LINE
8
BLACK
6
CONTINUOUS
10
0.0701483
20
-0.286642
11
0.0723099
21
-0.284481
0
LINE
8
BLACK
6
CONTINUOUS
10
0.0723099
20
-0.284481
11
0.0752626
21
-0.28369
0
LINE
8
BLACK
6
CONTINUOUS
10
0.0752626
20
-0.28369
11
0.107698
21
-0.28369
0
LINE
8
BLACK
6
CONTINUOUS
10
0.107698
20
-0.28369
11
0.0896381
21
-0.275261
0
LINE
8
BLACK
6
CONTINUOUS
10
0.0896381
20
-0.275261
11
0.0892392
21
-0.274926
0
LINE
8
BLACK
6
CONTINUOUS
10
0.0892392
20
-0.274926
11
0.0887497
21
-0.274749
0
LINE
8
BLACK
6
CONTINUOUS
10
0.0887497
20
-0.274749
11
0.0880867
21
-0.273959
0
LINE
8
BLACK
6
CONTINUOUS
10
0.0880867
20
-0.273959
11
0.087297
21
-0.273296
0
LINE
8
BLACK
6
CONTINUOUS
10
0.087297
20
-0.273296
11
0.087119
21
-0.272806
0
LINE
8
BLACK
6
CONTINUOUS
10
0.087119
20
-0.272806
11
0.0867841
21
-0.272407
0
LINE
8
BLACK
6
CONTINUOUS
10
0.0867841
20
-0.272407
11
0.0866047
21
-0.271392
0
LINE
8
BLACK
6
CONTINUOUS
10
0.0866047
20
-0.271392
11
0.0862523
21
-0.270423
0
LINE
8
BLACK
6
CONTINUOUS
10
0.0862523
20
-0.270423
11
0.0863429
21
-0.26991
0
LINE
8
BLACK
6
CONTINUOUS
10
0.0863429
20
-0.26991
11
0.0862523
21
-0.269397
0
LINE
8
BLACK
6
CONTINUOUS
10
0.0862523
20
-0.269397
11
0.0866047
21
-0.268428
0
LINE
8
BLACK
6
CONTINUOUS
10
0.0866047
20
-0.268428
11
0.0867841
21
-0.267413
0
LINE
8
BLACK
6
CONTINUOUS
10
0.0867841
20
-0.267413
11
0.087119
21
-0.267014
0
LINE
8
BLACK
6
CONTINUOUS
10
0.087119
20
-0.267014
11
0.087297
21
-0.266524
0
LINE
8
BLACK
6
CONTINUOUS
10
0.087297
20
-0.266524
11
0.0880867
21
-0.265861
0
LINE
8
BLACK
6
CONTINUOUS
10
0.0880867
20
-0.265861
11
0.0887497
21
-0.265071
0
LINE
8
BLACK
6
CONTINUOUS
10
0.0887497
20
-0.265071
11
0.0892392
21
-0.264893
0
LINE
8
BLACK
6
CONTINUOUS
10
0.0892392
20
-0.264893
11
0.0896381
21
-0.264559
0
LINE
8
BLACK
6
CONTINUOUS
10
0.0896381
20
-0.264559
11
0.107698
21
-0.25613
0
LINE
8
BLACK
6
CONTINUOUS
10
0.107698
20
-0.25613
11
0.0752626
21
-0.25613
0
LINE
8
BLACK
6
CONTINUOUS
10
0.0752626
20
-0.25613
11
0.0723099
21
-0.255339
0
LINE
8
BLACK
6
CONTINUOUS
10
0.0723099
20
-0.255339
11
0.0701483
21
-0.253178
0
LINE
8
BLACK
6
CONTINUOUS
10
0.0701483
20
-0.253178
11
0.0693571
21
-0.250225
0
LINE
8
BLACK
6
CONTINUOUS
10
0.0693571
20
-0.250225
11
0.0701483
21
-0.247272
0
LINE
8
BLACK
6
CONTINUOUS
10
0.0701483
20
-0.247272
11
0.0723099
21
-0.245111
0
LINE
8
BLACK
6
CONTINUOUS
10
0.0723099
20
-0.245111
11
0.0752626
21
-0.244319
0
LINE
8
BLACK
6
CONTINUOUS
10
0.0752626
20
-0.244319
11
0.134318
21
-0.244319
0
LINE
8
BLACK
6
CONTINUOUS
10
0.134318
20
-0.244319
11
0.134572
21
-0.244387
0
LINE
8
BLACK
6
CONTINUOUS
10
-0.121883
20
-0.239035
11
-0.121581
21
-0.239229
0
LINE
8
BLACK
6
CONTINUOUS
10
-0.121581
20
-0.239229
11
-0.121225
21
-0.23928
0
LINE
8
BLACK
6
CONTINUOUS
10
-0.121225
20
-0.23928
11
-0.120433
21
-0.239967
0
LINE
8
BLACK
6
CONTINUOUS
10
-0.120433
20
-0.239967
11
-0.11955
21
-0.240534
0
LINE
8
BLACK
6
CONTINUOUS
10
-0.11955
20
-0.240534
11
-0.119401
21
-0.240861
0
LINE
8
BLACK
6
CONTINUOUS
10
-0.119401
20
-0.240861
11
-0.11913
21
-0.241096
0
LINE
8
BLACK
6
CONTINUOUS
10
-0.11913
20
-0.241096
11
-0.118834
21
-0.242103
0
LINE
8
BLACK
6
CONTINUOUS
10
-0.118834
20
-0.242103
11
-0.118398
21
-0.243057
0
LINE
8
BLACK
6
CONTINUOUS
10
-0.118398
20
-0.243057
11
-0.11845
21
-0.243412
0
LINE
8
BLACK
6
CONTINUOUS
10
-0.11845
20
-0.243412
11
-0.118348
21
-0.243757
0
LINE
8
BLACK
6
CONTINUOUS
10
-0.118348
20
-0.243757
11
-0.118348
21
-0.251256
0
LINE
8
BLACK
6
CONTINUOUS
10
-0.118348
20
-0.251256
11
-0.118548
21
-0.252643
0
LINE
8
BLACK
6
CONTINUOUS
10
-0.118548
20
-0.252643
11
-0.120047
21
-0.254975
0
LINE
8
BLACK
6
CONTINUOUS
10
-0.120047
20
-0.254975
11
-0.122569
21
-0.256127
0
LINE
8
BLACK
6
CONTINUOUS
10
-0.122569
20
-0.256127
11
-0.125314
21
-0.255733
0
LINE
8
BLACK
6
CONTINUOUS
10
-0.125314
20
-0.255733
11
-0.12741
21
-0.253917
0
LINE
8
BLACK
6
CONTINUOUS
10
-0.12741
20
-0.253917
11
-0.128191
21
-0.251256
0
LINE
8
BLACK
6
CONTINUOUS
10
-0.128191
20
-0.251256
11
-0.128191
21
-0.248678
0
LINE
8
BLACK
6
CONTINUOUS
10
-0.128191
20
-0.248678
11
-0.134096
21
-0.248678
0
LINE
8
BLACK
6
CONTINUOUS
10
-0.134096
20
-0.248678
11
-0.135221
21
-0.252055
0
LINE
8
BLACK
6
CONTINUOUS
10
-0.135221
20
-0.252055
11
-0.135221
21
-0.254207
0
LINE
8
BLACK
6
CONTINUOUS
10
-0.135221
20
-0.254207
11
-0.133966
21
-0.257971
0
LINE
8
BLACK
6
CONTINUOUS
10
-0.133966
20
-0.257971
11
-0.131603
21
-0.260335
0
LINE
8
BLACK
6
CONTINUOUS
10
-0.131603
20
-0.260335
11
-0.129051
21
-0.261611
0
LINE
8
BLACK
6
CONTINUOUS
10
-0.129051
20
-0.261611
11
-0.122664
21
-0.263208
0
LINE
8
BLACK
6
CONTINUOUS
10
-0.122664
20
-0.263208
11
-0.118251
21
-0.263208
0
LINE
8
BLACK
6
CONTINUOUS
10
-0.118251
20
-0.263208
11
-0.111864
21
-0.261611
0
LINE
8
BLACK
6
CONTINUOUS
10
-0.111864
20
-0.261611
11
-0.109312
21
-0.260335
0
LINE
8
BLACK
6
CONTINUOUS
10
-0.109312
20
-0.260335
11
-0.106949
21
-0.257971
0
LINE
8
BLACK
6
CONTINUOUS
10
-0.106949
20
-0.257971
11
-0.105694
21
-0.254207
0
LINE
8
BLACK
6
CONTINUOUS
10
-0.105694
20
-0.254207
11
-0.105694
21
-0.250543
0
LINE
8
BLACK
6
CONTINUOUS
10
-0.105694
20
-0.250543
11
-0.107049
21
-0.247833
0
LINE
8
BLACK
6
CONTINUOUS
10
-0.107049
20
-0.247833
11
-0.107491
21
-0.246503
0
LINE
8
BLACK
6
CONTINUOUS
10
-0.107491
20
-0.246503
11
-0.107193
21
-0.243746
0
LINE
8
BLACK
6
CONTINUOUS
10
-0.107193
20
-0.243746
11
-0.105452
21
-0.241588
0
LINE
8
BLACK
6
CONTINUOUS
10
-0.105452
20
-0.241588
11
-0.102821
21
-0.240714
0
LINE
8
BLACK
6
CONTINUOUS
10
-0.102821
20
-0.240714
11
-0.100134
21
-0.241401
0
LINE
8
BLACK
6
CONTINUOUS
10
-0.100134
20
-0.241401
11
-0.0982455
21
-0.243431
0
LINE
8
BLACK
6
CONTINUOUS
10
-0.0982455
20
-0.243431
11
-0.0963707
21
-0.24718
0
LINE
8
BLACK
6
CONTINUOUS
10
-0.0963707
20
-0.24718
11
-0.095929
21
-0.24851
0
LINE
8
BLACK
6
CONTINUOUS
10
-0.095929
20
-0.24851
11
-0.0959769
21
-0.248953
0
LINE
8
BLACK
6
CONTINUOUS
10
-0.0959769
20
-0.248953
11
-0.0958512
21
-0.249381
0
LINE
8
BLACK
6
CONTINUOUS
10
-0.0958512
20
-0.249381
11
-0.0958512
21
-0.255006
0
LINE
8
BLACK
6
CONTINUOUS
10
-0.0958512
20
-0.255006
11
-0.0960505
21
-0.256392
0
LINE
8
BLACK
6
CONTINUOUS
10
-0.0960505
20
-0.256392
11
-0.0961004
21
-0.25647
0
LINE
8
BLACK
6
CONTINUOUS
10
-0.0961004
20
-0.25647
11
-0.0961037
21
-0.256562
0
LINE
8
BLACK
6
CONTINUOUS
10
-0.0961037
20
-0.256562
11
-0.0979785
21
-0.262186
0
LINE
8
BLACK
6
CONTINUOUS
10
-0.0979785
20
-0.262186
11
-0.098606
21
-0.263438
0
LINE
8
BLACK
6
CONTINUOUS
10
-0.098606
20
-0.263438
11
-0.0989536
21
-0.263718
0
LINE
8
BLACK
6
CONTINUOUS
10
-0.0989536
20
-0.263718
11
-0.0991674
21
-0.26411
0
LINE
8
BLACK
6
CONTINUOUS
10
-0.0991674
20
-0.26411
11
-0.102917
21
-0.267859
0
LINE
8
BLACK
6
CONTINUOUS
10
-0.102917
20
-0.267859
11
-0.104038
21
-0.268699
0
LINE
8
BLACK
6
CONTINUOUS
10
-0.104038
20
-0.268699
11
-0.104128
21
-0.268718
0
LINE
8
BLACK
6
CONTINUOUS
10
-0.104128
20
-0.268718
11
-0.104196
21
-0.268781
0
LINE
8
BLACK
6
CONTINUOUS
10
-0.104196
20
-0.268781
11
-0.107945
21
-0.270656
0
LINE
8
BLACK
6
CONTINUOUS
10
-0.107945
20
-0.270656
11
-0.108804
21
-0.270941
0
LINE
8
BLACK
6
CONTINUOUS
10
-0.108804
20
-0.270941
11
-0.108953
21
-0.271029
0
LINE
8
BLACK
6
CONTINUOUS
10
-0.108953
20
-0.271029
11
-0.116452
21
-0.272903
0
LINE
8
BLACK
6
CONTINUOUS
10
-0.116452
20
-0.272903
11
-0.117517
21
-0.273012
0
LINE
8
BLACK
6
CONTINUOUS
10
-0.117517
20
-0.273012
11
-0.117645
21
-0.27305
0
LINE
8
BLACK
6
CONTINUOUS
10
-0.117645
20
-0.27305
11
-0.12327
21
-0.27305
0
LINE
8
BLACK
6
CONTINUOUS
10
-0.12327
20
-0.27305
11
-0.124329
21
-0.272898
0
LINE
8
BLACK
6
CONTINUOUS
10
-0.124329
20
-0.272898
11
-0.124463
21
-0.272903
0
LINE
8
BLACK
6
CONTINUOUS
10
-0.124463
20
-0.272903
11
-0.131962
21
-0.271029
0
LINE
8
BLACK
6
CONTINUOUS
10
-0.131962
20
-0.271029
11
-0.1328
21
-0.270686
0
LINE
8
BLACK
6
CONTINUOUS
10
-0.1328
20
-0.270686
11
-0.13297
21
-0.270656
0
LINE
8
BLACK
6
CONTINUOUS
10
-0.13297
20
-0.270656
11
-0.136719
21
-0.268781
0
LINE
8
BLACK
6
CONTINUOUS
10
-0.136719
20
-0.268781
11
-0.13787
21
-0.267983
0
LINE
8
BLACK
6
CONTINUOUS
10
-0.13787
20
-0.267983
11
-0.137917
21
-0.267903
0
LINE
8
BLACK
6
CONTINUOUS
10
-0.137917
20
-0.267903
11
-0.137998
21
-0.267859
0
LINE
8
BLACK
6
CONTINUOUS
10
-0.137998
20
-0.267859
11
-0.141748
21
-0.26411
0
LINE
8
BLACK
6
CONTINUOUS
10
-0.141748
20
-0.26411
11
-0.142587
21
-0.262988
0
LINE
8
BLACK
6
CONTINUOUS
10
-0.142587
20
-0.262988
11
-0.142682
21
-0.262552
0
LINE
8
BLACK
6
CONTINUOUS
10
-0.142682
20
-0.262552
11
-0.142936
21
-0.262186
0
LINE
8
BLACK
6
CONTINUOUS
10
-0.142936
20
-0.262186
11
-0.144811
21
-0.256562
0
LINE
8
BLACK
6
CONTINUOUS
10
-0.144811
20
-0.256562
11
-0.145061
21
-0.255183
0
LINE
8
BLACK
6
CONTINUOUS
10
-0.145061
20
-0.255183
11
-0.145038
21
-0.255094
0
LINE
8
BLACK
6
CONTINUOUS
10
-0.145038
20
-0.255094
11
-0.145064
21
-0.255006
0
LINE
8
BLACK
6
CONTINUOUS
10
-0.145064
20
-0.255006
11
-0.145064
21
-0.251256
0
LINE
8
BLACK
6
CONTINUOUS
10
-0.145064
20
-0.251256
11
-0.144864
21
-0.24987
0
LINE
8
BLACK
6
CONTINUOUS
10
-0.144864
20
-0.24987
11
-0.144815
21
-0.249792
0
LINE
8
BLACK
6
CONTINUOUS
10
-0.144815
20
-0.249792
11
-0.144811
21
-0.2497
0
LINE
8
BLACK
6
CONTINUOUS
10
-0.144811
20
-0.2497
11
-0.142936
21
-0.244076
0
LINE
8
BLACK
6
CONTINUOUS
10
-0.142936
20
-0.244076
11
-0.142309
21
-0.242823
0
LINE
8
BLACK
6
CONTINUOUS
10
-0.142309
20
-0.242823
11
-0.141961
21
-0.242543
0
LINE
8
BLACK
6
CONTINUOUS
10
-0.141961
20
-0.242543
11
-0.141748
21
-0.242152
0
LINE
8
BLACK
6
CONTINUOUS
10
-0.141748
20
-0.242152
11
-0.139873
21
-0.240277
0
LINE
8
BLACK
6
CONTINUOUS
10
-0.139873
20
-0.240277
11
-0.139169
21
-0.23975
0
LINE
8
BLACK
6
CONTINUOUS
10
-0.139169
20
-0.23975
11
-0.139054
21
-0.239617
0
LINE
8
BLACK
6
CONTINUOUS
10
-0.139054
20
-0.239617
11
-0.13895
21
-0.239587
0
LINE
8
BLACK
6
CONTINUOUS
10
-0.13895
20
-0.239587
11
-0.138751
21
-0.239438
0
LINE
8
BLACK
6
CONTINUOUS
10
-0.138751
20
-0.239438
11
-0.137561
21
-0.239179
0
LINE
8
BLACK
6
CONTINUOUS
10
-0.137561
20
-0.239179
11
-0.136393
21
-0.238836
0
LINE
8
BLACK
6
CONTINUOUS
10
-0.136393
20
-0.238836
11
-0.12327
21
-0.238836
0
LINE
8
BLACK
6
CONTINUOUS
10
-0.12327
20
-0.238836
11
-0.121883
21
-0.239035
0
LINE
8
BLACK
6
CONTINUOUS
10
-0.0993859
20
-0.199665
11
-0.0970532
21
-0.201164
0
LINE
8
BLACK
6
CONTINUOUS
10
-0.0970532
20
-0.201164
11
-0.0959013
21
-0.203687
0
LINE
8
BLACK
6
CONTINUOUS
10
-0.0959013
20
-0.203687
11
-0.0962959
21
-0.206431
0
LINE
8
BLACK
6
CONTINUOUS
10
-0.0962959
20
-0.206431
11
-0.0981118
21
-0.208527
0
LINE
8
BLACK
6
CONTINUOUS
10
-0.0981118
20
-0.208527
11
-0.100772
21
-0.209308
0
LINE
8
BLACK
6
CONTINUOUS
10
-0.100772
20
-0.209308
11
-0.121611
21
-0.209308
0
LINE
8
BLACK
6
CONTINUOUS
10
-0.121611
20
-0.209308
11
-0.0983308
21
-0.222611
0
LINE
8
BLACK
6
CONTINUOUS
10
-0.0983308
20
-0.222611
11
-0.0972259
21
-0.223472
0
LINE
8
BLACK
6
CONTINUOUS
10
-0.0972259
20
-0.223472
11
-0.0971647
21
-0.22359
0
LINE
8
BLACK
6
CONTINUOUS
10
-0.0971647
20
-0.22359
11
-0.0970532
21
-0.223661
0
LINE
8
BLACK
6
CONTINUOUS
10
-0.0970532
20
-0.223661
11
-0.0965283
21
-0.224811
0
LINE
8
BLACK
6
CONTINUOUS
10
-0.0965283
20
-0.224811
11
-0.0959443
21
-0.225931
0
LINE
8
BLACK
6
CONTINUOUS
10
-0.0959443
20
-0.225931
11
-0.0959563
21
-0.226063
0
LINE
8
BLACK
6
CONTINUOUS
10
-0.0959563
20
-0.226063
11
-0.0959013
21
-0.226184
0
LINE
8
BLACK
6
CONTINUOUS
10
-0.0959013
20
-0.226184
11
-0.0960811
21
-0.227434
0
LINE
8
BLACK
6
CONTINUOUS
10
-0.0960811
20
-0.227434
11
-0.0961956
21
-0.228693
0
LINE
8
BLACK
6
CONTINUOUS
10
-0.0961956
20
-0.228693
11
-0.0962771
21
-0.228797
0
LINE
8
BLACK
6
CONTINUOUS
10
-0.0962771
20
-0.228797
11
-0.0962959
21
-0.228928
0
LINE
8
BLACK
6
CONTINUOUS
10
-0.0962959
20
-0.228928
11
-0.0971233
21
-0.229883
0
LINE
8
BLACK
6
CONTINUOUS
10
-0.0971233
20
-0.229883
11
-0.0979
21
-0.23088
0
LINE
8
BLACK
6
CONTINUOUS
10
-0.0979
20
-0.23088
11
-0.098025
21
-0.230924
0
LINE
8
BLACK
6
CONTINUOUS
10
-0.098025
20
-0.230924
11
-0.0981118
21
-0.231024
0
LINE
8
BLACK
6
CONTINUOUS
10
-0.0981118
20
-0.231024
11
-0.0993242
21
-0.23138
0
LINE
8
BLACK
6
CONTINUOUS
10
-0.0993242
20
-0.23138
11
-0.100516
21
-0.231799
0
LINE
8
BLACK
6
CONTINUOUS
10
-0.100516
20
-0.231799
11
-0.100645
21
-0.231768
0
LINE
8
BLACK
6
CONTINUOUS
10
-0.100645
20
-0.231768
11
-0.100772
21
-0.231805
0
LINE
8
BLACK
6
CONTINUOUS
10
-0.100772
20
-0.231805
11
-0.140143
21
-0.231805
0
LINE
8
BLACK
6
CONTINUOUS
10
-0.140143
20
-0.231805
11
-0.141529
21
-0.231606
0
LINE
8
BLACK
6
CONTINUOUS
10
-0.141529
20
-0.231606
11
-0.143862
21
-0.230107
0
LINE
8
BLACK
6
CONTINUOUS
10
-0.143862
20
-0.230107
11
-0.145014
21
-0.227584
0
LINE
8
BLACK
6
CONTINUOUS
10
-0.145014
20
-0.227584
11
-0.144619
21
-0.22484
0
LINE
8
BLACK
6
CONTINUOUS
10
-0.144619
20
-0.22484
11
-0.142803
21
-0.222744
0
LINE
8
BLACK
6
CONTINUOUS
10
-0.142803
20
-0.222744
11
-0.140143
21
-0.221963
0
LINE
8
BLACK
6
CONTINUOUS
10
-0.140143
20
-0.221963
11
-0.119304
21
-0.221963
0
LINE
8
BLACK
6
CONTINUOUS
10
-0.119304
20
-0.221963
11
-0.142584
21
-0.20866
0
LINE
8
BLACK
6
CONTINUOUS
10
-0.142584
20
-0.20866
11
-0.143689
21
-0.207799
0
LINE
8
BLACK
6
CONTINUOUS
10
-0.143689
20
-0.207799
11
-0.14375
21
-0.207681
0
LINE
8
BLACK
6
CONTINUOUS
10
-0.14375
20
-0.207681
11
-0.143862
21
-0.20761
0
LINE
8
BLACK
6
CONTINUOUS
10
-0.143862
20
-0.20761
11
-0.144387
21
-0.20646
0
LINE
8
BLACK
6
CONTINUOUS
10
-0.144387
20
-0.20646
11
-0.144971
21
-0.20534
0
LINE
8
BLACK
6
CONTINUOUS
10
-0.144971
20
-0.20534
11
-0.144959
21
-0.205208
0
LINE
8
BLACK
6
CONTINUOUS
10
-0.144959
20
-0.205208
11
-0.145014
21
-0.205087
0
LINE
8
BLACK
6
CONTINUOUS
10
-0.145014
20
-0.205087
11
-0.144834
21
-0.203837
0
LINE
8
BLACK
6
CONTINUOUS
10
-0.144834
20
-0.203837
11
-0.144719
21
-0.202578
0
LINE
8
BLACK
6
CONTINUOUS
10
-0.144719
20
-0.202578
11
-0.144638
21
-0.202474
0
LINE
8
BLACK
6
CONTINUOUS
10
-0.144638
20
-0.202474
11
-0.144619
21
-0.202343
0
LINE
8
BLACK
6
CONTINUOUS
10
-0.144619
20
-0.202343
11
-0.143792
21
-0.201388
0
LINE
8
BLACK
6
CONTINUOUS
10
-0.143792
20
-0.201388
11
-0.143015
21
-0.200391
0
LINE
8
BLACK
6
CONTINUOUS
10
-0.143015
20
-0.200391
11
-0.14289
21
-0.200347
0
LINE
8
BLACK
6
CONTINUOUS
10
-0.14289
20
-0.200347
11
-0.142803
21
-0.200247
0
LINE
8
BLACK
6
CONTINUOUS
10
-0.142803
20
-0.200247
11
-0.141591
21
-0.199891
0
LINE
8
BLACK
6
CONTINUOUS
10
-0.141591
20
-0.199891
11
-0.140399
21
-0.199472
0
LINE
8
BLACK
6
CONTINUOUS
10
-0.140399
20
-0.199472
11
-0.14027
21
-0.199503
0
LINE
8
BLACK
6
CONTINUOUS
10
-0.14027
20
-0.199503
11
-0.140143
21
-0.199466
0
LINE
8
BLACK
6
CONTINUOUS
10
-0.140143
20
-0.199466
11
-0.100772
21
-0.199466
0
LINE
8
BLACK
6
CONTINUOUS
10
-0.100772
20
-0.199466
11
-0.0993859
21
-0.199665
0
LINE
8
BLACK
6
CONTINUOUS
10
0.134562
20
-0.214469
11
0.135681
21
-0.215115
0
LINE
8
BLACK
6
CONTINUOUS
10
0.135681
20
-0.215115
11
0.135681
21
-0.215115
0
LINE
8
BLACK
6
CONTINUOUS
10
0.135681
20
-0.215115
11
0.138494
21
-0.217928
0
LINE
8
BLACK
6
CONTINUOUS
10
0.138494
20
-0.217928
11
0.138882
21
-0.218601
0
LINE
8
BLACK
6
CONTINUOUS
10
0.138882
20
-0.218601
11
0.139432
21
-0.219151
0
LINE
8
BLACK
6
CONTINUOUS
10
0.139432
20
-0.219151
11
0.139633
21
-0.219902
0
LINE
8
BLACK
6
CONTINUOUS
10
0.139633
20
-0.219902
11
0.140022
21
-0.220575
0
LINE
8
BLACK
6
CONTINUOUS
10
0.140022
20
-0.220575
11
0.140022
21
-0.220575
0
LINE
8
BLACK
6
CONTINUOUS
10
0.140022
20
-0.220575
11
0.140022
21
-0.221352
0
LINE
8
BLACK
6
CONTINUOUS
10
0.140022
20
-0.221352
11
0.140223
21
-0.222103
0
LINE
8
BLACK
6
CONTINUOUS
10
0.140223
20
-0.222103
11
0.140022
21
-0.222854
0
LINE
8
BLACK
6
CONTINUOUS
10
0.140022
20
-0.222854
11
0.140022
21
-0.223632
0
LINE
8
BLACK
6
CONTINUOUS
10
0.140022
20
-0.223632
11
0.139633
21
-0.224305
0
LINE
8
BLACK
6
CONTINUOUS
10
0.139633
20
-0.224305
11
0.139432
21
-0.225056
0
LINE
8
BLACK
6
CONTINUOUS
10
0.139432
20
-0.225056
11
0.138882
21
-0.225606
0
LINE
8
BLACK
6
CONTINUOUS
10
0.138882
20
-0.225606
11
0.138494
21
-0.226279
0
LINE
8
BLACK
6
CONTINUOUS
10
0.138494
20
-0.226279
11
0.138494
21
-0.226279
0
LINE
8
BLACK
6
CONTINUOUS
10
0.138494
20
-0.226279
11
0.135681
21
-0.229091
0
LINE
8
BLACK
6
CONTINUOUS
10
0.135681
20
-0.229091
11
0.134562
21
-0.229737
0
LINE
8
BLACK
6
CONTINUOUS
10
0.134562
20
-0.229737
11
0.133034
21
-0.23062
0
LINE
8
BLACK
6
CONTINUOUS
10
0.133034
20
-0.23062
11
0.129977
21
-0.23062
0
LINE
8
BLACK
6
CONTINUOUS
10
0.129977
20
-0.23062
11
0.129977
21
-0.23062
0
LINE
8
BLACK
6
CONTINUOUS
10
0.129977
20
-0.23062
11
0.12733
21
-0.229091
0
LINE
8
BLACK
6
CONTINUOUS
10
0.12733
20
-0.229091
11
0.12733
21
-0.229091
0
LINE
8
BLACK
6
CONTINUOUS
10
0.12733
20
-0.229091
11
0.124518
21
-0.226279
0
LINE
8
BLACK
6
CONTINUOUS
10
0.124518
20
-0.226279
11
0.124129
21
-0.225606
0
LINE
8
BLACK
6
CONTINUOUS
10
0.124129
20
-0.225606
11
0.123579
21
-0.225056
0
LINE
8
BLACK
6
CONTINUOUS
10
0.123579
20
-0.225056
11
0.123378
21
-0.224305
0
LINE
8
BLACK
6
CONTINUOUS
10
0.123378
20
-0.224305
11
0.122989
21
-0.223632
0
LINE
8
BLACK
6
CONTINUOUS
10
0.122989
20
-0.223632
11
0.122989
21
-0.222854
0
LINE
8
BLACK
6
CONTINUOUS
10
0.122989
20
-0.222854
11
0.122788
21
-0.222103
0
LINE
8
BLACK
6
CONTINUOUS
10
0.122788
20
-0.222103
11
0.122989
21
-0.221352
0
LINE
8
BLACK
6
CONTINUOUS
10
0.122989
20
-0.221352
11
0.122989
21
-0.220575
0
LINE
8
BLACK
6
CONTINUOUS
10
0.122989
20
-0.220575
11
0.122989
21
-0.220575
0
LINE
8
BLACK
6
CONTINUOUS
10
0.122989
20
-0.220575
11
0.123378
21
-0.219902
0
LINE
8
BLACK
6
CONTINUOUS
10
0.123378
20
-0.219902
11
0.123579
21
-0.219151
0
LINE
8
BLACK
6
CONTINUOUS
10
0.123579
20
-0.219151
11
0.124129
21
-0.218601
0
LINE
8
BLACK
6
CONTINUOUS
10
0.124129
20
-0.218601
11
0.124518
21
-0.217928
0
LINE
8
BLACK
6
CONTINUOUS
10
0.124518
20
-0.217928
11
0.124518
21
-0.217928
0
LINE
8
BLACK
6
CONTINUOUS
10
0.124518
20
-0.217928
11
0.12733
21
-0.215116
0
LINE
8
BLACK
6
CONTINUOUS
10
0.12733
20
-0.215116
11
0.12733
21
-0.215115
0
LINE
8
BLACK
6
CONTINUOUS
10
0.12733
20
-0.215115
11
0.12733
21
-0.215115
0
LINE
8
BLACK
6
CONTINUOUS
10
0.12733
20
-0.215115
11
0.128449
21
-0.214469
0
LINE
8
BLACK
6
CONTINUOUS
10
0.128449
20
-0.214469
11
0.129977
21
-0.213587
0
LINE
8
BLACK
6
CONTINUOUS
10
0.129977
20
-0.213587
11
0.133034
21
-0.213587
0
LINE
8
BLACK
6
CONTINUOUS
10
0.133034
20
-0.213587
11
0.133034
21
-0.213587
0
LINE
8
BLACK
6
CONTINUOUS
10
0.133034
20
-0.213587
11
0.134562
21
-0.214469
0
LINE
8
BLACK
6
CONTINUOUS
10
0.117585
20
-0.216989
11
0.119747
21
-0.219151
0
LINE
8
BLACK
6
CONTINUOUS
10
0.119747
20
-0.219151
11
0.120538
21
-0.222103
0
LINE
8
BLACK
6
CONTINUOUS
10
0.120538
20
-0.222103
11
0.119747
21
-0.225056
0
LINE
8
BLACK
6
CONTINUOUS
10
0.119747
20
-0.225056
11
0.117585
21
-0.227218
0
LINE
8
BLACK
6
CONTINUOUS
10
0.117585
20
-0.227218
11
0.114633
21
-0.228009
0
LINE
8
BLACK
6
CONTINUOUS
10
0.114633
20
-0.228009
11
0.0752626
21
-0.228009
0
LINE
8
BLACK
6
CONTINUOUS
10
0.0752626
20
-0.228009
11
0.0723099
21
-0.227218
0
LINE
8
BLACK
6
CONTINUOUS
10
0.0723099
20
-0.227218
11
0.0701483
21
-0.225056
0
LINE
8
BLACK
6
CONTINUOUS
10
0.0701483
20
-0.225056
11
0.0693571
21
-0.222103
0
LINE
8
BLACK
6
CONTINUOUS
10
0.0693571
20
-0.222103
11
0.0701483
21
-0.219151
0
LINE
8
BLACK
6
CONTINUOUS
10
0.0701483
20
-0.219151
11
0.0723099
21
-0.216989
0
LINE
8
BLACK
6
CONTINUOUS
10
0.0723099
20
-0.216989
11
0.0752626
21
-0.216198
0
LINE
8
BLACK
6
CONTINUOUS
10
0.0752626
20
-0.216198
11
0.114633
21
-0.216198
0
LINE
8
BLACK
6
CONTINUOUS
10
0.114633
20
-0.216198
11
0.117585
21
-0.216989
0
LINE
8
BLACK
6
CONTINUOUS
10
0.137271
20
-0.163558
11
0.139432
21
-0.16572
0
LINE
8
BLACK
6
CONTINUOUS
10
0.139432
20
-0.16572
11
0.140223
21
-0.168673
0
LINE
8
BLACK
6
CONTINUOUS
10
0.140223
20
-0.168673
11
0.139432
21
-0.171625
0
LINE
8
BLACK
6
CONTINUOUS
10
0.139432
20
-0.171625
11
0.137271
21
-0.173787
0
LINE
8
BLACK
6
CONTINUOUS
10
0.137271
20
-0.173787
11
0.134318
21
-0.174578
0
LINE
8
BLACK
6
CONTINUOUS
10
0.134318
20
-0.174578
11
0.120538
21
-0.174578
0
LINE
8
BLACK
6
CONTINUOUS
10
0.120538
20
-0.174578
11
0.120538
21
-0.185546
0
LINE
8
BLACK
6
CONTINUOUS
10
0.120538
20
-0.185546
11
0.120187
21
-0.186857
0
LINE
8
BLACK
6
CONTINUOUS
10
0.120187
20
-0.186857
11
0.119915
21
-0.188187
0
LINE
8
BLACK
6
CONTINUOUS
10
0.119915
20
-0.188187
11
0.117103
21
-0.193811
0
LINE
8
BLACK
6
CONTINUOUS
10
0.117103
20
-0.193811
11
0.116472
21
-0.194522
0
LINE
8
BLACK
6
CONTINUOUS
10
0.116472
20
-0.194522
11
0.115996
21
-0.195346
0
LINE
8
BLACK
6
CONTINUOUS
10
0.115996
20
-0.195346
11
0.113184
21
-0.198158
0
LINE
8
BLACK
6
CONTINUOUS
10
0.113184
20
-0.198158
11
0.112361
21
-0.198633
0
LINE
8
BLACK
6
CONTINUOUS
10
0.112361
20
-0.198633
11
0.111649
21
-0.199264
0
LINE
8
BLACK
6
CONTINUOUS
10
0.111649
20
-0.199264
11
0.106025
21
-0.202076
0
LINE
8
BLACK
6
CONTINUOUS
10
0.106025
20
-0.202076
11
0.104695
21
-0.202348
0
LINE
8
BLACK
6
CONTINUOUS
10
0.104695
20
-0.202348
11
0.103384
21
-0.2027
0
LINE
8
BLACK
6
CONTINUOUS
10
0.103384
20
-0.2027
11
0.0865112
21
-0.2027
0
LINE
8
BLACK
6
CONTINUOUS
10
0.0865112
20
-0.2027
11
0.0852
21
-0.202348
0
LINE
8
BLACK
6
CONTINUOUS
10
0.0852
20
-0.202348
11
0.0838702
21
-0.202076
0
LINE
8
BLACK
6
CONTINUOUS
10
0.0838702
20
-0.202076
11
0.0782459
21
-0.199264
0
LINE
8
BLACK
6
CONTINUOUS
10
0.0782459
20
-0.199264
11
0.0775345
21
-0.198633
0
LINE
8
BLACK
6
CONTINUOUS
10
0.0775345
20
-0.198633
11
0.0767111
21
-0.198158
0
LINE
8
BLACK
6
CONTINUOUS
10
0.0767111
20
-0.198158
11
0.0738989
21
-0.195346
0
LINE
8
BLACK
6
CONTINUOUS
10
0.0738989
20
-0.195346
11
0.0734235
21
-0.194522
0
LINE
8
BLACK
6
CONTINUOUS
10
0.0734235
20
-0.194522
11
0.0727928
21
-0.193811
0
LINE
8
BLACK
6
CONTINUOUS
10
0.0727928
20
-0.193811
11
0.0699806
21
-0.188187
0
LINE
8
BLACK
6
CONTINUOUS
10
0.0699806
20
-0.188187
11
0.0697084
21
-0.186857
0
LINE
8
BLACK
6
CONTINUOUS
10
0.0697084
20
-0.186857
11
0.0693571
21
-0.185546
0
LINE
8
BLACK
6
CONTINUOUS
10
0.0693571
20
-0.185546
11
0.0693571
21
-0.174297
0
LINE
8
BLACK
6
CONTINUOUS
10
0.0693571
20
-0.174297
11
0.0697084
21
-0.172986
0
LINE
8
BLACK
6
CONTINUOUS
10
0.0697084
20
-0.172986
11
0.0699806
21
-0.171656
0
LINE
8
BLACK
6
CONTINUOUS
10
0.0699806
20
-0.171656
11
0.0700951
21
-0.171427
0
LINE
8
BLACK
6
CONTINUOUS
10
0.0700951
20
-0.171427
11
0.0693571
21
-0.168673
0
LINE
8
BLACK
6
CONTINUOUS
10
0.0693571
20
-0.168673
11
0.0701483
21
-0.16572
0
LINE
8
BLACK
6
CONTINUOUS
10
0.0701483
20
-0.16572
11
0.0723099
21
-0.163558
0
LINE
8
BLACK
6
CONTINUOUS
10
0.0723099
20
-0.163558
11
0.0752626
21
-0.162767
0
LINE
8
BLACK
6
CONTINUOUS
10
0.0752626
20
-0.162767
11
0.134318
21
-0.162767
0
LINE
8
BLACK
6
CONTINUOUS
10
0.134318
20
-0.162767
11
0.137271
21
-0.163558
0
LINE
8
BLACK
6
CONTINUOUS
10
0.0811681
20
-0.175691
11
0.0811681
21
-0.184151
0
LINE
8
BLACK
6
CONTINUOUS
10
0.0811681
20
-0.184151
11
0.0829283
21
-0.187672
0
LINE
8
BLACK
6
CONTINUOUS
10
0.0829283
20
-0.187672
11
0.0843851
21
-0.189129
0
LINE
8
BLACK
6
CONTINUOUS
10
0.0843851
20
-0.189129
11
0.0879053
21
-0.190889
0
LINE
8
BLACK
6
CONTINUOUS
10
0.0879053
20
-0.190889
11
0.10199
21
-0.190889
0
LINE
8
BLACK
6
CONTINUOUS
10
0.10199
20
-0.190889
11
0.10551
21
-0.189129
0
LINE
8
BLACK
6
CONTINUOUS
10
0.10551
20
-0.189129
11
0.106967
21
-0.187672
0
LINE
8
BLACK
6
CONTINUOUS
10
0.106967
20
-0.187672
11
0.108727
21
-0.184151
0
LINE
8
BLACK
6
CONTINUOUS
10
0.108727
20
-0.184151
11
0.108727
21
-0.175691
0
LINE
8
BLACK
6
CONTINUOUS
10
0.108727
20
-0.175691
11
0.108171
21
-0.174578
0
LINE
8
BLACK
6
CONTINUOUS
10
0.108171
20
-0.174578
11
0.0817246
21
-0.174578
0
LINE
8
BLACK
6
CONTINUOUS
10
0.0817246
20
-0.174578
11
0.0811681
21
-0.175691
0
LINE
8
BLACK
6
CONTINUOUS
10
-0.116586
20
-0.158373
11
-0.116452
21
-0.158368
0
LINE
8
BLACK
6
CONTINUOUS
10
-0.116452
20
-0.158368
11
-0.108953
21
-0.160243
0
LINE
8
BLACK
6
CONTINUOUS
10
-0.108953
20
-0.160243
11
-0.108115
21
-0.160585
0
LINE
8
BLACK
6
CONTINUOUS
10
-0.108115
20
-0.160585
11
-0.107945
21
-0.160615
0
LINE
8
BLACK
6
CONTINUOUS
10
-0.107945
20
-0.160615
11
-0.104196
21
-0.16249
0
LINE
8
BLACK
6
CONTINUOUS
10
-0.104196
20
-0.16249
11
-0.103045
21
-0.163288
0
LINE
8
BLACK
6
CONTINUOUS
10
-0.103045
20
-0.163288
11
-0.102998
21
-0.163368
0
LINE
8
BLACK
6
CONTINUOUS
10
-0.102998
20
-0.163368
11
-0.102917
21
-0.163412
0
LINE
8
BLACK
6
CONTINUOUS
10
-0.102917
20
-0.163412
11
-0.0991674
21
-0.167161
0
LINE
8
BLACK
6
CONTINUOUS
10
-0.0991674
20
-0.167161
11
-0.0983279
21
-0.168283
0
LINE
8
BLACK
6
CONTINUOUS
10
-0.0983279
20
-0.168283
11
-0.098233
21
-0.168719
0
LINE
8
BLACK
6
CONTINUOUS
10
-0.098233
20
-0.168719
11
-0.0979785
21
-0.169085
0
LINE
8
BLACK
6
CONTINUOUS
10
-0.0979785
20
-0.169085
11
-0.0961037
21
-0.174709
0
LINE
8
BLACK
6
CONTINUOUS
10
-0.0961037
20
-0.174709
11
-0.0958544
21
-0.176088
0
LINE
8
BLACK
6
CONTINUOUS
10
-0.0958544
20
-0.176088
11
-0.0958772
21
-0.176177
0
LINE
8
BLACK
6
CONTINUOUS
10
-0.0958772
20
-0.176177
11
-0.0958512
21
-0.176265
0
LINE
8
BLACK
6
CONTINUOUS
10
-0.0958512
20
-0.176265
11
-0.0958512
21
-0.185639
0
LINE
8
BLACK
6
CONTINUOUS
10
-0.0958512
20
-0.185639
11
-0.0960505
21
-0.187026
0
LINE
8
BLACK
6
CONTINUOUS
10
-0.0960505
20
-0.187026
11
-0.0962448
21
-0.187328
0
LINE
8
BLACK
6
CONTINUOUS
10
-0.0962448
20
-0.187328
11
-0.0962959
21
-0.187684
0
LINE
8
BLACK
6
CONTINUOUS
10
-0.0962959
20
-0.187684
11
-0.0969826
21
-0.188476
0
LINE
8
BLACK
6
CONTINUOUS
10
-0.0969826
20
-0.188476
11
-0.0975497
21
-0.189359
0
LINE
8
BLACK
6
CONTINUOUS
10
-0.0975497
20
-0.189359
11
-0.0978766
21
-0.189508
0
LINE
8
BLACK
6
CONTINUOUS
10
-0.0978766
20
-0.189508
11
-0.0981118
21
-0.189779
0
LINE
8
BLACK
6
CONTINUOUS
10
-0.0981118
20
-0.189779
11
-0.0991181
21
-0.190075
0
LINE
8
BLACK
6
CONTINUOUS
10
-0.0991181
20
-0.190075
11
-0.100072
21
-0.19051
0
LINE
8
BLACK
6
CONTINUOUS
10
-0.100072
20
-0.19051
11
-0.100428
21
-0.190459
0
LINE
8
BLACK
6
CONTINUOUS
10
-0.100428
20
-0.190459
11
-0.100772
21
-0.190561
0
LINE
8
BLACK
6
CONTINUOUS
10
-0.100772
20
-0.190561
11
-0.140143
21
-0.190561
0
LINE
8
BLACK
6
CONTINUOUS
10
-0.140143
20
-0.190561
11
-0.141529
21
-0.190361
0
LINE
8
BLACK
6
CONTINUOUS
10
-0.141529
20
-0.190361
11
-0.141831
21
-0.190167
0
LINE
8
BLACK
6
CONTINUOUS
10
-0.141831
20
-0.190167
11
-0.142187
21
-0.190116
0
LINE
8
BLACK
6
CONTINUOUS
10
-0.142187
20
-0.190116
11
-0.142979
21
-0.189429
0
LINE
8
BLACK
6
CONTINUOUS
10
-0.142979
20
-0.189429
11
-0.143862
21
-0.188862
0
LINE
8
BLACK
6
CONTINUOUS
10
-0.143862
20
-0.188862
11
-0.144011
21
-0.188535
0
LINE
8
BLACK
6
CONTINUOUS
10
-0.144011
20
-0.188535
11
-0.144283
21
-0.1883
0
LINE
8
BLACK
6
CONTINUOUS
10
-0.144283
20
-0.1883
11
-0.144578
21
-0.187294
0
LINE
8
BLACK
6
CONTINUOUS
10
-0.144578
20
-0.187294
11
-0.145014
21
-0.18634
0
LINE
8
BLACK
6
CONTINUOUS
10
-0.145014
20
-0.18634
11
-0.144963
21
-0.185984
0
LINE
8
BLACK
6
CONTINUOUS
10
-0.144963
20
-0.185984
11
-0.145064
21
-0.185639
0
LINE
8
BLACK
6
CONTINUOUS
10
-0.145064
20
-0.185639
11
-0.145064
21
-0.176265
0
LINE
8
BLACK
6
CONTINUOUS
10
-0.145064
20
-0.176265
11
-0.144864
21
-0.174879
0
LINE
8
BLACK
6
CONTINUOUS
10
-0.144864
20
-0.174879
11
-0.144815
21
-0.174801
0
LINE
8
BLACK
6
CONTINUOUS
10
-0.144815
20
-0.174801
11
-0.144811
21
-0.174709
0
LINE
8
BLACK
6
CONTINUOUS
10
-0.144811
20
-0.174709
11
-0.142936
21
-0.169085
0
LINE
8
BLACK
6
CONTINUOUS
10
-0.142936
20
-0.169085
11
-0.142309
21
-0.167833
0
LINE
8
BLACK
6
CONTINUOUS
10
-0.142309
20
-0.167833
11
-0.141961
21
-0.167553
0
LINE
8
BLACK
6
CONTINUOUS
10
-0.141961
20
-0.167553
11
-0.141748
21
-0.167161
0
LINE
8
BLACK
6
CONTINUOUS
10
-0.141748
20
-0.167161
11
-0.137998
21
-0.163412
0
LINE
8
BLACK
6
CONTINUOUS
10
-0.137998
20
-0.163412
11
-0.136877
21
-0.162572
0
LINE
8
BLACK
6
CONTINUOUS
10
-0.136877
20
-0.162572
11
-0.136787
21
-0.162553
0
LINE
8
BLACK
6
CONTINUOUS
10
-0.136787
20
-0.162553
11
-0.136719
21
-0.16249
0
LINE
8
BLACK
6
CONTINUOUS
10
-0.136719
20
-0.16249
11
-0.13297
21
-0.160615
0
LINE
8
BLACK
6
CONTINUOUS
10
-0.13297
20
-0.160615
11
-0.132111
21
-0.16033
0
LINE
8
BLACK
6
CONTINUOUS
10
-0.132111
20
-0.16033
11
-0.131962
21
-0.160243
0
LINE
8
BLACK
6
CONTINUOUS
10
-0.131962
20
-0.160243
11
-0.124463
21
-0.158368
0
LINE
8
BLACK
6
CONTINUOUS
10
-0.124463
20
-0.158368
11
-0.123398
21
-0.158259
0
LINE
8
BLACK
6
CONTINUOUS
10
-0.123398
20
-0.158259
11
-0.12327
21
-0.158221
0
LINE
8
BLACK
6
CONTINUOUS
10
-0.12327
20
-0.158221
11
-0.117645
21
-0.158221
0
LINE
8
BLACK
6
CONTINUOUS
10
-0.117645
20
-0.158221
11
-0.116586
21
-0.158373
0
LINE
8
BLACK
6
CONTINUOUS
10
-0.129051
20
-0.16966
11
-0.131603
21
-0.170936
0
LINE
8
BLACK
6
CONTINUOUS
10
-0.131603
20
-0.170936
11
-0.133966
21
-0.173299
0
LINE
8
BLACK
6
CONTINUOUS
10
-0.133966
20
-0.173299
11
-0.135221
21
-0.177064
0
LINE
8
BLACK
6
CONTINUOUS
10
-0.135221
20
-0.177064
11
-0.135221
21
-0.180718
0
LINE
8
BLACK
6
CONTINUOUS
10
-0.135221
20
-0.180718
11
-0.105694
21
-0.180718
0
LINE
8
BLACK
6
CONTINUOUS
10
-0.105694
20
-0.180718
11
-0.105694
21
-0.177064
0
LINE
8
BLACK
6
CONTINUOUS
10
-0.105694
20
-0.177064
11
-0.106949
21
-0.173299
0
LINE
8
BLACK
6
CONTINUOUS
10
-0.106949
20
-0.173299
11
-0.109312
21
-0.170936
0
LINE
8
BLACK
6
CONTINUOUS
10
-0.109312
20
-0.170936
11
-0.111864
21
-0.16966
0
LINE
8
BLACK
6
CONTINUOUS
10
-0.111864
20
-0.16966
11
-0.118251
21
-0.168063
0
LINE
8
BLACK
6
CONTINUOUS
10
-0.118251
20
-0.168063
11
-0.122664
21
-0.168063
0
LINE
8
BLACK
6
CONTINUOUS
10
-0.122664
20
-0.168063
11
-0.129051
21
-0.16966
0
LINE
8
BLACK
6
CONTINUOUS
10
0.77318
20
0.105455
11
0.775342
21
0.103293
0
LINE
8
BLACK
6
CONTINUOUS
10
0.775342
20
0.103293
11
0.776133
21
0.10034
0
LINE
8
BLACK
6
CONTINUOUS
10
0.776133
20
0.10034
11
0.775342
21
0.0973877
0
LINE
8
BLACK
6
CONTINUOUS
10
0.775342
20
0.0973877
11
0.77318
21
0.0952261
0
LINE
8
BLACK
6
CONTINUOUS
10
0.77318
20
0.0952261
11
0.770228
21
0.0944349
0
LINE
8
BLACK
6
CONTINUOUS
10
0.770228
20
0.0944349
11
0.74181
21
0.0944349
0
LINE
8
BLACK
6
CONTINUOUS
10
0.74181
20
0.0944349
11
0.755549
21
0.0787324
0
LINE
8
BLACK
6
CONTINUOUS
10
0.755549
20
0.0787324
11
0.755807
21
0.0782089
0
LINE
8
BLACK
6
CONTINUOUS
10
0.755807
20
0.0782089
11
0.756219
21
0.0777964
0
LINE
8
BLACK
6
CONTINUOUS
10
0.756219
20
0.0777964
11
0.75647
21
0.0768597
0
LINE
8
BLACK
6
CONTINUOUS
10
0.75647
20
0.0768597
11
0.756898
21
0.0759893
0
LINE
8
BLACK
6
CONTINUOUS
10
0.756898
20
0.0759893
11
0.75686
21
0.0754071
0
LINE
8
BLACK
6
CONTINUOUS
10
0.75686
20
0.0754071
11
0.757011
21
0.0748436
0
LINE
8
BLACK
6
CONTINUOUS
10
0.757011
20
0.0748436
11
0.756759
21
0.0739069
0
LINE
8
BLACK
6
CONTINUOUS
10
0.756759
20
0.0739069
11
0.756695
21
0.0729391
0
LINE
8
BLACK
6
CONTINUOUS
10
0.756695
20
0.0729391
11
0.75637
21
0.0724544
0
LINE
8
BLACK
6
CONTINUOUS
10
0.75637
20
0.0724544
11
0.756219
21
0.0718909
0
LINE
8
BLACK
6
CONTINUOUS
10
0.756219
20
0.0718909
11
0.755534
21
0.0712052
0
LINE
8
BLACK
6
CONTINUOUS
10
0.755534
20
0.0712052
11
0.754994
21
0.0703993
0
LINE
8
BLACK
6
CONTINUOUS
10
0.754994
20
0.0703993
11
0.75447
21
0.0701418
0
LINE
8
BLACK
6
CONTINUOUS
10
0.75447
20
0.0701418
11
0.754058
21
0.0697293
0
LINE
8
BLACK
6
CONTINUOUS
10
0.754058
20
0.0697293
11
0.753121
21
0.0694783
0
LINE
8
BLACK
6
CONTINUOUS
10
0.753121
20
0.0694783
11
0.752251
21
0.0690503
0
LINE
8
BLACK
6
CONTINUOUS
10
0.752251
20
0.0690503
11
0.751668
21
0.0690891
0
LINE
8
BLACK
6
CONTINUOUS
10
0.751668
20
0.0690891
11
0.751105
21
0.0689381
0
LINE
8
BLACK
6
CONTINUOUS
10
0.751105
20
0.0689381
11
0.742938
21
0.0689381
0
LINE
8
BLACK
6
CONTINUOUS
10
0.742938
20
0.0689381
11
0.738668
21
0.0668031
0
LINE
8
BLACK
6
CONTINUOUS
10
0.738668
20
0.0668031
11
0.736836
21
0.0649713
0
LINE
8
BLACK
6
CONTINUOUS
10
0.736836
20
0.0649713
11
0.734701
21
0.0607011
0
LINE
8
BLACK
6
CONTINUOUS
10
0.734701
20
0.0607011
11
0.734701
21
0.0475539
0
LINE
8
BLACK
6
CONTINUOUS
10
0.734701
20
0.0475539
11
0.736836
21
0.0432837
0
LINE
8
BLACK
6
CONTINUOUS
10
0.736836
20
0.0432837
11
0.738668
21
0.0414519
0
LINE
8
BLACK
6
CONTINUOUS
10
0.738668
20
0.0414519
11
0.742938
21
0.0393168
0
LINE
8
BLACK
6
CONTINUOUS
10
0.742938
20
0.0393168
11
0.759272
21
0.0393168
0
LINE
8
BLACK
6
CONTINUOUS
10
0.759272
20
0.0393168
11
0.763542
21
0.0414519
0
LINE
8
BLACK
6
CONTINUOUS
10
0.763542
20
0.0414519
11
0.766052
21
0.0439613
0
LINE
8
BLACK
6
CONTINUOUS
10
0.766052
20
0.0439613
11
0.768699
21
0.0454898
0
LINE
8
BLACK
6
CONTINUOUS
10
0.768699
20
0.0454898
11
0.771756
21
0.0454898
0
LINE
8
BLACK
6
CONTINUOUS
10
0.771756
20
0.0454898
11
0.774403
21
0.0439614
0
LINE
8
BLACK
6
CONTINUOUS
10
0.774403
20
0.0439614
11
0.775932
21
0.041314
0
LINE
8
BLACK
6
CONTINUOUS
10
0.775932
20
0.041314
11
0.775932
21
0.0382571
0
LINE
8
BLACK
6
CONTINUOUS
10
0.775932
20
0.0382571
11
0.774403
21
0.0356097
0
LINE
8
BLACK
6
CONTINUOUS
10
0.774403
20
0.0356097
11
0.771216
21
0.0324226
0
LINE
8
BLACK
6
CONTINUOUS
10
0.771216
20
0.0324226
11
0.770393
21
0.0319472
0
LINE
8
BLACK
6
CONTINUOUS
10
0.770393
20
0.0319472
11
0.769682
21
0.0313163
0
LINE
8
BLACK
6
CONTINUOUS
10
0.769682
20
0.0313163
11
0.763307
21
0.0281293
0
LINE
8
BLACK
6
CONTINUOUS
10
0.763307
20
0.0281293
11
0.761977
21
0.0278571
0
LINE
8
BLACK
6
CONTINUOUS
10
0.761977
20
0.0278571
11
0.760666
21
0.0275058
0
LINE
8
BLACK
6
CONTINUOUS
10
0.760666
20
0.0275058
11
0.741544
21
0.0275058
0
LINE
8
BLACK
6
CONTINUOUS
10
0.741544
20
0.0275058
11
0.740233
21
0.0278571
0
LINE
8
BLACK
6
CONTINUOUS
10
0.740233
20
0.0278571
11
0.738903
21
0.0281293
0
LINE
8
BLACK
6
CONTINUOUS
10
0.738903
20
0.0281293
11
0.732528
21
0.0313163
0
LINE
8
BLACK
6
CONTINUOUS
10
0.732528
20
0.0313163
11
0.731817
21
0.0319472
0
LINE
8
BLACK
6
CONTINUOUS
10
0.731817
20
0.0319472
11
0.730994
21
0.0324226
0
LINE
8
BLACK
6
CONTINUOUS
10
0.730994
20
0.0324226
11
0.727807
21
0.0356097
0
LINE
8
BLACK
6
CONTINUOUS
10
0.727807
20
0.0356097
11
0.727331
21
0.036433
0
LINE
8
BLACK
6
CONTINUOUS
10
0.727331
20
0.036433
11
0.7267
21
0.0371444
0
LINE
8
BLACK
6
CONTINUOUS
10
0.7267
20
0.0371444
11
0.723513
21
0.0435187
0
LINE
8
BLACK
6
CONTINUOUS
10
0.723513
20
0.0435187
11
0.723241
21
0.0448487
0
LINE
8
BLACK
6
CONTINUOUS
10
0.723241
20
0.0448487
11
0.72289
21
0.0461597
0
LINE
8
BLACK
6
CONTINUOUS
10
0.72289
20
0.0461597
11
0.72289
21
0.0620952
0
LINE
8
BLACK
6
CONTINUOUS
10
0.72289
20
0.0620952
11
0.723241
21
0.0634062
0
LINE
8
BLACK
6
CONTINUOUS
10
0.723241
20
0.0634062
11
0.723513
21
0.0647363
0
LINE
8
BLACK
6
CONTINUOUS
10
0.723513
20
0.0647363
11
0.7267
21
0.0711105
0
LINE
8
BLACK
6
CONTINUOUS
10
0.7267
20
0.0711105
11
0.727331
21
0.0718219
0
LINE
8
BLACK
6
CONTINUOUS
10
0.727331
20
0.0718219
11
0.727807
21
0.0726452
0
LINE
8
BLACK
6
CONTINUOUS
10
0.727807
20
0.0726452
11
0.730994
21
0.0758323
0
LINE
8
BLACK
6
CONTINUOUS
10
0.730994
20
0.0758323
11
0.731817
21
0.0763078
0
LINE
8
BLACK
6
CONTINUOUS
10
0.731817
20
0.0763078
11
0.732528
21
0.0769386
0
LINE
8
BLACK
6
CONTINUOUS
10
0.732528
20
0.0769386
11
0.738717
21
0.080033
0
LINE
8
BLACK
6
CONTINUOUS
10
0.738717
20
0.080033
11
0.724351
21
0.0964516
0
LINE
8
BLACK
6
CONTINUOUS
10
0.724351
20
0.0964516
11
0.724093
21
0.0969752
0
LINE
8
BLACK
6
CONTINUOUS
10
0.724093
20
0.0969752
11
0.723681
21
0.0973877
0
LINE
8
BLACK
6
CONTINUOUS
10
0.723681
20
0.0973877
11
0.72343
21
0.0983245
0
LINE
8
BLACK
6
CONTINUOUS
10
0.72343
20
0.0983245
11
0.723002
21
0.0991948
0
LINE
8
BLACK
6
CONTINUOUS
10
0.723002
20
0.0991948
11
0.723041
21
0.099777
0
LINE
8
BLACK
6
CONTINUOUS
10
0.723041
20
0.099777
11
0.72289
21
0.10034
0
LINE
8
BLACK
6
CONTINUOUS
10
0.72289
20
0.10034
11
0.723141
21
0.101277
0
LINE
8
BLACK
6
CONTINUOUS
10
0.723141
20
0.101277
11
0.723205
21
0.102245
0
LINE
8
BLACK
6
CONTINUOUS
10
0.723205
20
0.102245
11
0.72353
21
0.10273
0
LINE
8
BLACK
6
CONTINUOUS
10
0.72353
20
0.10273
11
0.723681
21
0.103293
0
LINE
8
BLACK
6
CONTINUOUS
10
0.723681
20
0.103293
11
0.724367
21
0.103979
0
LINE
8
BLACK
6
CONTINUOUS
10
0.724367
20
0.103979
11
0.724906
21
0.104785
0
LINE
8
BLACK
6
CONTINUOUS
10
0.724906
20
0.104785
11
0.72543
21
0.105042
0
LINE
8
BLACK
6
CONTINUOUS
10
0.72543
20
0.105042
11
0.725843
21
0.105455
0
LINE
8
BLACK
6
CONTINUOUS
10
0.725843
20
0.105455
11
0.726779
21
0.105706
0
LINE
8
BLACK
6
CONTINUOUS
10
0.726779
20
0.105706
11
0.72765
21
0.106134
0
LINE
8
BLACK
6
CONTINUOUS
10
0.72765
20
0.106134
11
0.728232
21
0.106095
0
LINE
8
BLACK
6
CONTINUOUS
10
0.728232
20
0.106095
11
0.728795
21
0.106246
0
LINE
8
BLACK
6
CONTINUOUS
10
0.728795
20
0.106246
11
0.770228
21
0.106246
0
LINE
8
BLACK
6
CONTINUOUS
10
0.770228
20
0.106246
11
0.77318
21
0.105455
0
LINE
8
BLACK
6
CONTINUOUS
10
0.816158
20
0.105895
11
0.817488
21
0.105622
0
LINE
8
BLACK
6
CONTINUOUS
10
0.817488
20
0.105622
11
0.823862
21
0.102435
0
LINE
8
BLACK
6
CONTINUOUS
10
0.823862
20
0.102435
11
0.824574
21
0.101805
0
LINE
8
BLACK
6
CONTINUOUS
10
0.824574
20
0.101805
11
0.825397
21
0.101329
0
LINE
8
BLACK
6
CONTINUOUS
10
0.825397
20
0.101329
11
0.828584
21
0.098142
0
LINE
8
BLACK
6
CONTINUOUS
10
0.828584
20
0.098142
11
0.82906
21
0.0973187
0
LINE
8
BLACK
6
CONTINUOUS
10
0.82906
20
0.0973187
11
0.82969
21
0.0966073
0
LINE
8
BLACK
6
CONTINUOUS
10
0.82969
20
0.0966073
11
0.832878
21
0.0902331
0
LINE
8
BLACK
6
CONTINUOUS
10
0.832878
20
0.0902331
11
0.833008
21
0.0895943
0
LINE
8
BLACK
6
CONTINUOUS
10
0.833008
20
0.0895943
11
0.833325
21
0.0890243
0
LINE
8
BLACK
6
CONTINUOUS
10
0.833325
20
0.0890243
11
0.836512
21
0.0762759
0
LINE
8
BLACK
6
CONTINUOUS
10
0.836512
20
0.0762759
11
0.836499
21
0.0755474
0
LINE
8
BLACK
6
CONTINUOUS
10
0.836499
20
0.0755474
11
0.836688
21
0.0748436
0
LINE
8
BLACK
6
CONTINUOUS
10
0.836688
20
0.0748436
11
0.836688
21
0.0589081
0
LINE
8
BLACK
6
CONTINUOUS
10
0.836688
20
0.0589081
11
0.836499
21
0.0582043
0
LINE
8
BLACK
6
CONTINUOUS
10
0.836499
20
0.0582043
11
0.836512
21
0.0574758
0
LINE
8
BLACK
6
CONTINUOUS
10
0.836512
20
0.0574758
11
0.833325
21
0.0447274
0
LINE
8
BLACK
6
CONTINUOUS
10
0.833325
20
0.0447274
11
0.833008
21
0.0441575
0
LINE
8
BLACK
6
CONTINUOUS
10
0.833008
20
0.0441575
11
0.832878
21
0.0435187
0
LINE
8
BLACK
6
CONTINUOUS
10
0.832878
20
0.0435187
11
0.82969
21
0.0371445
0
LINE
8
BLACK
6
CONTINUOUS
10
0.82969
20
0.0371445
11
0.82906
21
0.0364331
0
LINE
8
BLACK
6
CONTINUOUS
10
0.82906
20
0.0364331
11
0.828584
21
0.0356097
0
LINE
8
BLACK
6
CONTINUOUS
10
0.828584
20
0.0356097
11
0.825397
21
0.0324226
0
LINE
8
BLACK
6
CONTINUOUS
10
0.825397
20
0.0324226
11
0.824574
21
0.0319472
0
LINE
8
BLACK
6
CONTINUOUS
10
0.824574
20
0.0319472
11
0.823862
21
0.0313163
0
LINE
8
BLACK
6
CONTINUOUS
10
0.823862
20
0.0313163
11
0.817488
21
0.0281293
0
LINE
8
BLACK
6
CONTINUOUS
10
0.817488
20
0.0281293
11
0.816158
21
0.0278571
0
LINE
8
BLACK
6
CONTINUOUS
10
0.816158
20
0.0278571
11
0.814847
21
0.0275058
0
LINE
8
BLACK
6
CONTINUOUS
10
0.814847
20
0.0275058
11
0.808473
21
0.0275058
0
LINE
8
BLACK
6
CONTINUOUS
10
0.808473
20
0.0275058
11
0.807162
21
0.0278571
0
LINE
8
BLACK
6
CONTINUOUS
10
0.807162
20
0.0278571
11
0.805832
21
0.0281293
0
LINE
8
BLACK
6
CONTINUOUS
10
0.805832
20
0.0281293
11
0.799458
21
0.0313163
0
LINE
8
BLACK
6
CONTINUOUS
10
0.799458
20
0.0313163
11
0.798746
21
0.0319472
0
LINE
8
BLACK
6
CONTINUOUS
10
0.798746
20
0.0319472
11
0.797923
21
0.0324226
0
LINE
8
BLACK
6
CONTINUOUS
10
0.797923
20
0.0324226
11
0.794736
21
0.0356097
0
LINE
8
BLACK
6
CONTINUOUS
10
0.794736
20
0.0356097
11
0.79426
21
0.0364331
0
LINE
8
BLACK
6
CONTINUOUS
10
0.79426
20
0.0364331
11
0.793629
21
0.0371445
0
LINE
8
BLACK
6
CONTINUOUS
10
0.793629
20
0.0371445
11
0.790442
21
0.0435187
0
LINE
8
BLACK
6
CONTINUOUS
10
0.790442
20
0.0435187
11
0.790312
21
0.0441574
0
LINE
8
BLACK
6
CONTINUOUS
10
0.790312
20
0.0441574
11
0.789995
21
0.0447274
0
LINE
8
BLACK
6
CONTINUOUS
10
0.789995
20
0.0447274
11
0.786808
21
0.0574758
0
LINE
8
BLACK
6
CONTINUOUS
10
0.786808
20
0.0574758
11
0.78682
21
0.0582043
0
LINE
8
BLACK
6
CONTINUOUS
10
0.78682
20
0.0582043
11
0.786632
21
0.0589081
0
LINE
8
BLACK
6
CONTINUOUS
10
0.786632
20
0.0589081
11
0.786632
21
0.0748436
0
LINE
8
BLACK
6
CONTINUOUS
10
0.786632
20
0.0748436
11
0.78682
21
0.0755474
0
LINE
8
BLACK
6
CONTINUOUS
10
0.78682
20
0.0755474
11
0.786808
21
0.0762759
0
LINE
8
BLACK
6
CONTINUOUS
10
0.786808
20
0.0762759
11
0.789995
21
0.0890244
0
LINE
8
BLACK
6
CONTINUOUS
10
0.789995
20
0.0890244
11
0.790312
21
0.0895944
0
LINE
8
BLACK
6
CONTINUOUS
10
0.790312
20
0.0895944
11
0.790442
21
0.0902331
0
LINE
8
BLACK
6
CONTINUOUS
10
0.790442
20
0.0902331
11
0.793629
21
0.0966072
0
LINE
8
BLACK
6
CONTINUOUS
10
0.793629
20
0.0966072
11
0.79426
21
0.0973187
0
LINE
8
BLACK
6
CONTINUOUS
10
0.79426
20
0.0973187
11
0.794736
21
0.098142
0
LINE
8
BLACK
6
CONTINUOUS
10
0.794736
20
0.098142
11
0.797923
21
0.101329
0
LINE
8
BLACK
6
CONTINUOUS
10
0.797923
20
0.101329
11
0.798746
21
0.101805
0
LINE
8
BLACK
6
CONTINUOUS
10
0.798746
20
0.101805
11
0.799458
21
0.102435
0
LINE
8
BLACK
6
CONTINUOUS
10
0.799458
20
0.102435
11
0.805832
21
0.105622
0
LINE
8
BLACK
6
CONTINUOUS
10
0.805832
20
0.105622
11
0.807162
21
0.105895
0
LINE
8
BLACK
6
CONTINUOUS
10
0.807162
20
0.105895
11
0.808473
21
0.106246
0
LINE
8
BLACK
6
CONTINUOUS
10
0.808473
20
0.106246
11
0.814847
21
0.106246
0
LINE
8
BLACK
6
CONTINUOUS
10
0.814847
20
0.106246
11
0.816158
21
0.105895
0
LINE
8
BLACK
6
CONTINUOUS
10
0.805597
20
0.0922999
11
0.803765
21
0.090468
0
LINE
8
BLACK
6
CONTINUOUS
10
0.803765
20
0.090468
11
0.801296
21
0.0855308
0
LINE
8
BLACK
6
CONTINUOUS
10
0.801296
20
0.0855308
11
0.798443
21
0.0741167
0
LINE
8
BLACK
6
CONTINUOUS
10
0.798443
20
0.0741167
11
0.798443
21
0.0596351
0
LINE
8
BLACK
6
CONTINUOUS
10
0.798443
20
0.0596351
11
0.801296
21
0.0482209
0
LINE
8
BLACK
6
CONTINUOUS
10
0.801296
20
0.0482209
11
0.803765
21
0.0432837
0
LINE
8
BLACK
6
CONTINUOUS
10
0.803765
20
0.0432837
11
0.805597
21
0.0414519
0
LINE
8
BLACK
6
CONTINUOUS
10
0.805597
20
0.0414519
11
0.809867
21
0.0393168
0
LINE
8
BLACK
6
CONTINUOUS
10
0.809867
20
0.0393168
11
0.813453
21
0.0393168
0
LINE
8
BLACK
6
CONTINUOUS
10
0.813453
20
0.0393168
11
0.817723
21
0.0414519
0
LINE
8
BLACK
6
CONTINUOUS
10
0.817723
20
0.0414519
11
0.819555
21
0.0432837
0
LINE
8
BLACK
6
CONTINUOUS
10
0.819555
20
0.0432837
11
0.822024
21
0.0482211
0
LINE
8
BLACK
6
CONTINUOUS
10
0.822024
20
0.0482211
11
0.824877
21
0.0596351
0
LINE
8
BLACK
6
CONTINUOUS
10
0.824877
20
0.0596351
11
0.824877
21
0.0741167
0
LINE
8
BLACK
6
CONTINUOUS
10
0.824877
20
0.0741167
11
0.822024
21
0.0855307
0
LINE
8
BLACK
6
CONTINUOUS
10
0.822024
20
0.0855307
11
0.819555
21
0.0904681
0
LINE
8
BLACK
6
CONTINUOUS
10
0.819555
20
0.0904681
11
0.817723
21
0.0922999
0
LINE
8
BLACK
6
CONTINUOUS
10
0.817723
20
0.0922999
11
0.813453
21
0.0944349
0
LINE
8
BLACK
6
CONTINUOUS
10
0.813453
20
0.0944349
11
0.809867
21
0.0944349
0
LINE
8
BLACK
6
CONTINUOUS
10
0.809867
20
0.0944349
11
0.805597
21
0.0922999
0
LINE
8
BLACK
6
CONTINUOUS
10
0.897477
20
0.105455
11
0.899639
21
0.103293
0
LINE
8
BLACK
6
CONTINUOUS
10
0.899639
20
0.103293
11
0.90043
21
0.10034
0
LINE
8
BLACK
6
CONTINUOUS
10
0.90043
20
0.10034
11
0.90043
21
0.0334113
0
LINE
8
BLACK
6
CONTINUOUS
10
0.90043
20
0.0334113
11
0.899639
21
0.0304585
0
LINE
8
BLACK
6
CONTINUOUS
10
0.899639
20
0.0304585
11
0.897477
21
0.028297
0
LINE
8
BLACK
6
CONTINUOUS
10
0.897477
20
0.028297
11
0.894525
21
0.0275058
0
LINE
8
BLACK
6
CONTINUOUS
10
0.894525
20
0.0275058
11
0.891572
21
0.028297
0
LINE
8
BLACK
6
CONTINUOUS
10
0.891572
20
0.028297
11
0.88941
21
0.0304585
0
LINE
8
BLACK
6
CONTINUOUS
10
0.88941
20
0.0304585
11
0.888619
21
0.0334113
0
LINE
8
BLACK
6
CONTINUOUS
10
0.888619
20
0.0334113
11
0.888619
21
0.0593768
0
LINE
8
BLACK
6
CONTINUOUS
10
0.888619
20
0.0593768
11
0.881664
21
0.0593768
0
LINE
8
BLACK
6
CONTINUOUS
10
0.881664
20
0.0593768
11
0.861117
21
0.0300247
0
LINE
8
BLACK
6
CONTINUOUS
10
0.861117
20
0.0300247
11
0.858776
21
0.0280594
0
LINE
8
BLACK
6
CONTINUOUS
10
0.858776
20
0.0280594
11
0.855765
21
0.0275282
0
LINE
8
BLACK
6
CONTINUOUS
10
0.855765
20
0.0275282
11
0.852893
21
0.0285733
0
LINE
8
BLACK
6
CONTINUOUS
10
0.852893
20
0.0285733
11
0.850928
21
0.0309148
0
LINE
8
BLACK
6
CONTINUOUS
10
0.850928
20
0.0309148
11
0.850396
21
0.0339252
0
LINE
8
BLACK
6
CONTINUOUS
10
0.850396
20
0.0339252
11
0.851441
21
0.0367979
0
LINE
8
BLACK
6
CONTINUOUS
10
0.851441
20
0.0367979
11
0.867521
21
0.0597683
0
LINE
8
BLACK
6
CONTINUOUS
10
0.867521
20
0.0597683
11
0.866387
21
0.0600003
0
LINE
8
BLACK
6
CONTINUOUS
10
0.866387
20
0.0600003
11
0.860013
21
0.0631874
0
LINE
8
BLACK
6
CONTINUOUS
10
0.860013
20
0.0631874
11
0.859301
21
0.0638182
0
LINE
8
BLACK
6
CONTINUOUS
10
0.859301
20
0.0638182
11
0.858478
21
0.0642936
0
LINE
8
BLACK
6
CONTINUOUS
10
0.858478
20
0.0642936
11
0.855291
21
0.0674807
0
LINE
8
BLACK
6
CONTINUOUS
10
0.855291
20
0.0674807
11
0.854815
21
0.0683041
0
LINE
8
BLACK
6
CONTINUOUS
10
0.854815
20
0.0683041
11
0.854184
21
0.0690155
0
LINE
8
BLACK
6
CONTINUOUS
10
0.854184
20
0.0690155
11
0.850997
21
0.0753897
0
LINE
8
BLACK
6
CONTINUOUS
10
0.850997
20
0.0753897
11
0.850725
21
0.0767196
0
LINE
8
BLACK
6
CONTINUOUS
10
0.850725
20
0.0767196
11
0.850374
21
0.0780307
0
LINE
8
BLACK
6
CONTINUOUS
10
0.850374
20
0.0780307
11
0.850374
21
0.087592
0
LINE
8
BLACK
6
CONTINUOUS
10
0.850374
20
0.087592
11
0.850725
21
0.0889031
0
LINE
8
BLACK
6
CONTINUOUS
10
0.850725
20
0.0889031
11
0.850997
21
0.0902331
0
LINE
8
BLACK
6
CONTINUOUS
10
0.850997
20
0.0902331
11
0.854184
21
0.0966072
0
LINE
8
BLACK
6
CONTINUOUS
10
0.854184
20
0.0966072
11
0.854815
21
0.0973187
0
LINE
8
BLACK
6
CONTINUOUS
10
0.854815
20
0.0973187
11
0.855291
21
0.098142
0
LINE
8
BLACK
6
CONTINUOUS
10
0.855291
20
0.098142
11
0.858478
21
0.101329
0
LINE
8
BLACK
6
CONTINUOUS
10
0.858478
20
0.101329
11
0.859301
21
0.101805
0
LINE
8
BLACK
6
CONTINUOUS
10
0.859301
20
0.101805
11
0.860013
21
0.102435
0
LINE
8
BLACK
6
CONTINUOUS
10
0.860013
20
0.102435
11
0.866387
21
0.105622
0
LINE
8
BLACK
6
CONTINUOUS
10
0.866387
20
0.105622
11
0.867717
21
0.105895
0
LINE
8
BLACK
6
CONTINUOUS
10
0.867717
20
0.105895
11
0.869028
21
0.106246
0
LINE
8
BLACK
6
CONTINUOUS
10
0.869028
20
0.106246
11
0.894525
21
0.106246
0
LINE
8
BLACK
6
CONTINUOUS
10
0.894525
20
0.106246
11
0.897477
21
0.105455
0
LINE
8
BLACK
6
CONTINUOUS
10
0.866152
20
0.0922999
11
0.86432
21
0.090468
0
LINE
8
BLACK
6
CONTINUOUS
10
0.86432
20
0.090468
11
0.862185
21
0.086198
0
LINE
8
BLACK
6
CONTINUOUS
10
0.862185
20
0.086198
11
0.862185
21
0.0794248
0
LINE
8
BLACK
6
CONTINUOUS
10
0.862185
20
0.0794248
11
0.86432
21
0.0751547
0
LINE
8
BLACK
6
CONTINUOUS
10
0.86432
20
0.0751547
11
0.866152
21
0.0733229
0
LINE
8
BLACK
6
CONTINUOUS
10
0.866152
20
0.0733229
11
0.870422
21
0.0711878
0
LINE
8
BLACK
6
CONTINUOUS
10
0.870422
20
0.0711878
11
0.888619
21
0.0711878
0
LINE
8
BLACK
6
CONTINUOUS
10
0.888619
20
0.0711878
11
0.888619
21
0.0944349
0
LINE
8
BLACK
6
CONTINUOUS
10
0.888619
20
0.0944349
11
0.870422
21
0.0944349
0
LINE
8
BLACK
6
CONTINUOUS
10
0.870422
20
0.0944349
11
0.866152
21
0.0922999
0
LINE
8
BLACK
6
CONTINUOUS
10
0.958032
20
0.105455
11
0.960194
21
0.103293
0
LINE
8
BLACK
6
CONTINUOUS
10
0.960194
20
0.103293
11
0.960985
21
0.10034
0
LINE
8
BLACK
6
CONTINUOUS
10
0.960985
20
0.10034
11
0.960985
21
0.0334113
0
LINE
8
BLACK
6
CONTINUOUS
10
0.960985
20
0.0334113
11
0.960194
21
0.0304585
0
LINE
8
BLACK
6
CONTINUOUS
10
0.960194
20
0.0304585
11
0.958032
21
0.028297
0
LINE
8
BLACK
6
CONTINUOUS
10
0.958032
20
0.028297
11
0.95508
21
0.0275058
0
LINE
8
BLACK
6
CONTINUOUS
10
0.95508
20
0.0275058
11
0.923209
21
0.0275058
0
LINE
8
BLACK
6
CONTINUOUS
10
0.923209
20
0.0275058
11
0.920256
21
0.028297
0
LINE
8
BLACK
6
CONTINUOUS
10
0.920256
20
0.028297
11
0.918094
21
0.0304585
0
LINE
8
BLACK
6
CONTINUOUS
10
0.918094
20
0.0304585
11
0.917303
21
0.0334113
0
LINE
8
BLACK
6
CONTINUOUS
10
0.917303
20
0.0334113
11
0.918094
21
0.0363641
0
LINE
8
BLACK
6
CONTINUOUS
10
0.918094
20
0.0363641
11
0.920256
21
0.0385256
0
LINE
8
BLACK
6
CONTINUOUS
10
0.920256
20
0.0385256
11
0.923209
21
0.0393168
0
LINE
8
BLACK
6
CONTINUOUS
10
0.923209
20
0.0393168
11
0.949174
21
0.0393168
0
LINE
8
BLACK
6
CONTINUOUS
10
0.949174
20
0.0393168
11
0.949174
21
0.0625639
0
LINE
8
BLACK
6
CONTINUOUS
10
0.949174
20
0.0625639
11
0.93277
21
0.0625639
0
LINE
8
BLACK
6
CONTINUOUS
10
0.93277
20
0.0625639
11
0.929817
21
0.0633551
0
LINE
8
BLACK
6
CONTINUOUS
10
0.929817
20
0.0633551
11
0.927655
21
0.0655167
0
LINE
8
BLACK
6
CONTINUOUS
10
0.927655
20
0.0655167
11
0.926864
21
0.0684694
0
LINE
8
BLACK
6
CONTINUOUS
10
0.926864
20
0.0684694
11
0.927655
21
0.0714222
0
LINE
8
BLACK
6
CONTINUOUS
10
0.927655
20
0.0714222
11
0.929817
21
0.0735837
0
LINE
8
BLACK
6
CONTINUOUS
10
0.929817
20
0.0735837
11
0.93277
21
0.0743749
0
LINE
8
BLACK
6
CONTINUOUS
10
0.93277
20
0.0743749
11
0.949174
21
0.0743749
0
LINE
8
BLACK
6
CONTINUOUS
10
0.949174
20
0.0743749
11
0.949174
21
0.0944349
0
LINE
8
BLACK
6
CONTINUOUS
10
0.949174
20
0.0944349
11
0.923209
21
0.0944349
0
LINE
8
BLACK
6
CONTINUOUS
10
0.923209
20
0.0944349
11
0.920256
21
0.0952261
0
LINE
8
BLACK
6
CONTINUOUS
10
0.920256
20
0.0952261
11
0.918094
21
0.0973877
0
LINE
8
BLACK
6
CONTINUOUS
10
0.918094
20
0.0973877
11
0.917303
21
0.10034
0
LINE
8
BLACK
6
CONTINUOUS
10
0.917303
20
0.10034
11
0.918094
21
0.103293
0
LINE
8
BLACK
6
CONTINUOUS
10
0.918094
20
0.103293
11
0.920256
21
0.105455
0
LINE
8
BLACK
6
CONTINUOUS
10
0.920256
20
0.105455
11
0.923209
21
0.106246
0
LINE
8
BLACK
6
CONTINUOUS
10
0.923209
20
0.106246
11
0.95508
21
0.106246
0
LINE
8
BLACK
6
CONTINUOUS
10
0.95508
20
0.106246
11
0.958032
21
0.105455
0
LINE
8
BLACK
6
CONTINUOUS
10
1.02496
20
0.105455
11
1.02712
21
0.103293
0
LINE
8
BLACK
6
CONTINUOUS
10
1.02712
20
0.103293
11
1.02791
21
0.10034
0
LINE
8
BLACK
6
CONTINUOUS
10
1.02791
20
0.10034
11
1.02791
21
0.0334113
0
LINE
8
BLACK
6
CONTINUOUS
10
1.02791
20
0.0334113
11
1.02712
21
0.0304585
0
LINE
8
BLACK
6
CONTINUOUS
10
1.02712
20
0.0304585
11
1.02496
21
0.028297
0
LINE
8
BLACK
6
CONTINUOUS
10
1.02496
20
0.028297
11
1.02201
21
0.0275058
0
LINE
8
BLACK
6
CONTINUOUS
10
1.02201
20
0.0275058
11
1.00607
21
0.0275058
0
LINE
8
BLACK
6
CONTINUOUS
10
1.00607
20
0.0275058
11
1.00515
21
0.0277519
0
LINE
8
BLACK
6
CONTINUOUS
10
1.00515
20
0.0277519
11
1.00421
21
0.0278088
0
LINE
8
BLACK
6
CONTINUOUS
10
1.00421
20
0.0278088
11
0.994644
21
0.0309959
0
LINE
8
BLACK
6
CONTINUOUS
10
0.994644
20
0.0309959
11
0.993511
21
0.0317439
0
LINE
8
BLACK
6
CONTINUOUS
10
0.993511
20
0.0317439
11
0.992336
21
0.0324226
0
LINE
8
BLACK
6
CONTINUOUS
10
0.992336
20
0.0324226
11
0.985962
21
0.0387968
0
LINE
8
BLACK
6
CONTINUOUS
10
0.985962
20
0.0387968
11
0.985486
21
0.0396201
0
LINE
8
BLACK
6
CONTINUOUS
10
0.985486
20
0.0396201
11
0.984856
21
0.0403315
0
LINE
8
BLACK
6
CONTINUOUS
10
0.984856
20
0.0403315
11
0.981668
21
0.0467058
0
LINE
8
BLACK
6
CONTINUOUS
10
0.981668
20
0.0467058
11
0.981538
21
0.0473445
0
LINE
8
BLACK
6
CONTINUOUS
10
0.981538
20
0.0473445
11
0.981221
21
0.0479145
0
LINE
8
BLACK
6
CONTINUOUS
10
0.981221
20
0.0479145
11
0.978034
21
0.060663
0
LINE
8
BLACK
6
CONTINUOUS
10
0.978034
20
0.060663
11
0.978046
21
0.0613915
0
LINE
8
BLACK
6
CONTINUOUS
10
0.978046
20
0.0613915
11
0.977858
21
0.0620952
0
LINE
8
BLACK
6
CONTINUOUS
10
0.977858
20
0.0620952
11
0.977858
21
0.0716565
0
LINE
8
BLACK
6
CONTINUOUS
10
0.977858
20
0.0716565
11
0.978046
21
0.0723604
0
LINE
8
BLACK
6
CONTINUOUS
10
0.978046
20
0.0723604
11
0.978034
21
0.0730888
0
LINE
8
BLACK
6
CONTINUOUS
10
0.978034
20
0.0730888
11
0.981221
21
0.0858372
0
LINE
8
BLACK
6
CONTINUOUS
10
0.981221
20
0.0858372
11
0.981538
21
0.0864072
0
LINE
8
BLACK
6
CONTINUOUS
10
0.981538
20
0.0864072
11
0.981668
21
0.0870459
0
LINE
8
BLACK
6
CONTINUOUS
10
0.981668
20
0.0870459
11
0.984856
21
0.0934202
0
LINE
8
BLACK
6
CONTINUOUS
10
0.984856
20
0.0934202
11
0.985486
21
0.0941317
0
LINE
8
BLACK
6
CONTINUOUS
10
0.985486
20
0.0941317
11
0.985962
21
0.094955
0
LINE
8
BLACK
6
CONTINUOUS
10
0.985962
20
0.094955
11
0.992336
21
0.101329
0
LINE
8
BLACK
6
CONTINUOUS
10
0.992336
20
0.101329
11
0.993511
21
0.102008
0
LINE
8
BLACK
6
CONTINUOUS
10
0.993511
20
0.102008
11
0.994644
21
0.102756
0
LINE
8
BLACK
6
CONTINUOUS
10
0.994644
20
0.102756
11
1.00421
21
0.105943
0
LINE
8
BLACK
6
CONTINUOUS
10
1.00421
20
0.105943
11
1.00515
21
0.106
0
LINE
8
BLACK
6
CONTINUOUS
10
1.00515
20
0.106
11
1.00607
21
0.106246
0
LINE
8
BLACK
6
CONTINUOUS
10
1.00607
20
0.106246
11
1.02201
21
0.106246
0
LINE
8
BLACK
6
CONTINUOUS
10
1.02201
20
0.106246
11
1.02496
21
0.105455
0
LINE
8
BLACK
6
CONTINUOUS
10
0.999702
20
0.0919917
11
0.994991
21
0.0872809
0
LINE
8
BLACK
6
CONTINUOUS
10
0.994991
20
0.0872809
11
0.992522
21
0.0823437
0
LINE
8
BLACK
6
CONTINUOUS
10
0.992522
20
0.0823437
11
0.989669
21
0.0709296
0
LINE
8
BLACK
6
CONTINUOUS
10
0.989669
20
0.0709296
11
0.989669
21
0.0628222
0
LINE
8
BLACK
6
CONTINUOUS
10
0.989669
20
0.0628222
11
0.992522
21
0.051408
0
LINE
8
BLACK
6
CONTINUOUS
10
0.992522
20
0.051408
11
0.994991
21
0.0464708
0
LINE
8
BLACK
6
CONTINUOUS
10
0.994991
20
0.0464708
11
0.999702
21
0.04176
0
LINE
8
BLACK
6
CONTINUOUS
10
0.999702
20
0.04176
11
1.00703
21
0.0393168
0
LINE
8
BLACK
6
CONTINUOUS
10
1.00703
20
0.0393168
11
1.0161
21
0.0393168
0
LINE
8
BLACK
6
CONTINUOUS
10
1.0161
20
0.0393168
11
1.0161
21
0.0944349
0
LINE
8
BLACK
6
CONTINUOUS
10
1.0161
20
0.0944349
11
1.00703
21
0.0944349
0
LINE
8
BLACK
6
CONTINUOUS
10
1.00703
20
0.0944349
11
0.999702
21
0.0919917
0
LINE
8
BLACK
6
CONTINUOUS
10
1.07914
20
0.105455
11
1.0813
21
0.103293
0
LINE
8
BLACK
6
CONTINUOUS
10
1.0813
20
0.103293
11
1.08209
21
0.10034
0
LINE
8
BLACK
6
CONTINUOUS
10
1.08209
20
0.10034
11
1.08209
21
0.0334113
0
LINE
8
BLACK
6
CONTINUOUS
10
1.08209
20
0.0334113
11
1.0813
21
0.0304585
0
LINE
8
BLACK
6
CONTINUOUS
10
1.0813
20
0.0304585
11
1.07914
21
0.028297
0
LINE
8
BLACK
6
CONTINUOUS
10
1.07914
20
0.028297
11
1.07619
21
0.0275058
0
LINE
8
BLACK
6
CONTINUOUS
10
1.07619
20
0.0275058
11
1.04432
21
0.0275058
0
LINE
8
BLACK
6
CONTINUOUS
10
1.04432
20
0.0275058
11
1.04137
21
0.028297
0
LINE
8
BLACK
6
CONTINUOUS
10
1.04137
20
0.028297
11
1.0392
21
0.0304585
0
LINE
8
BLACK
6
CONTINUOUS
10
1.0392
20
0.0304585
11
1.03841
21
0.0334113
0
LINE
8
BLACK
6
CONTINUOUS
10
1.03841
20
0.0334113
11
1.0392
21
0.0363641
0
LINE
8
BLACK
6
CONTINUOUS
10
1.0392
20
0.0363641
11
1.04137
21
0.0385256
0
LINE
8
BLACK
6
CONTINUOUS
10
1.04137
20
0.0385256
11
1.04432
21
0.0393168
0
LINE
8
BLACK
6
CONTINUOUS
10
1.04432
20
0.0393168
11
1.07028
21
0.0393168
0
LINE
8
BLACK
6
CONTINUOUS
10
1.07028
20
0.0393168
11
1.07028
21
0.10034
0
LINE
8
BLACK
6
CONTINUOUS
10
1.07028
20
0.10034
11
1.07108
21
0.103293
0
LINE
8
BLACK
6
CONTINUOUS
10
1.07108
20
0.103293
11
1.07324
21
0.105455
0
LINE
8
BLACK
6
CONTINUOUS
10
1.07324
20
0.105455
11
1.07619
21
0.106246
0
LINE
8
BLACK
6
CONTINUOUS
10
1.07619
20
0.106246
11
1.07914
21
0.105455
0
LINE
8
BLACK
6
CONTINUOUS
10
1.13487
20
0.105895
11
1.1362
21
0.105622
0
LINE
8
BLACK
6
CONTINUOUS
10
1.1362
20
0.105622
11
1.14257
21
0.102435
0
LINE
8
BLACK
6
CONTINUOUS
10
1.14257
20
0.102435
11
1.14328
21
0.101805
0
LINE
8
BLACK
6
CONTINUOUS
10
1.14328
20
0.101805
11
1.14411
21
0.101329
0
LINE
8
BLACK
6
CONTINUOUS
10
1.14411
20
0.101329
11
1.15048
21
0.094955
0
LINE
8
BLACK
6
CONTINUOUS
10
1.15048
20
0.094955
11
1.15051
21
0.0949106
0
LINE
8
BLACK
6
CONTINUOUS
10
1.15051
20
0.0949106
11
1.15055
21
0.0948841
0
LINE
8
BLACK
6
CONTINUOUS
10
1.15055
20
0.0948841
11
1.15127
21
0.0935904
0
LINE
8
BLACK
6
CONTINUOUS
10
1.15127
20
0.0935904
11
1.15201
21
0.0923076
0
LINE
8
BLACK
6
CONTINUOUS
10
1.15201
20
0.0923076
11
1.15201
21
0.0922563
0
LINE
8
BLACK
6
CONTINUOUS
10
1.15201
20
0.0922563
11
1.15203
21
0.0922114
0
LINE
8
BLACK
6
CONTINUOUS
10
1.15203
20
0.0922114
11
1.15522
21
0.079463
0
LINE
8
BLACK
6
CONTINUOUS
10
1.15522
20
0.079463
11
1.15521
21
0.0787344
0
LINE
8
BLACK
6
CONTINUOUS
10
1.15521
20
0.0787344
11
1.1554
21
0.0780307
0
LINE
8
BLACK
6
CONTINUOUS
10
1.1554
20
0.0780307
11
1.1554
21
0.055721
0
LINE
8
BLACK
6
CONTINUOUS
10
1.1554
20
0.055721
11
1.15521
21
0.0550173
0
LINE
8
BLACK
6
CONTINUOUS
10
1.15521
20
0.0550173
11
1.15522
21
0.0542887
0
LINE
8
BLACK
6
CONTINUOUS
10
1.15522
20
0.0542887
11
1.15203
21
0.0415403
0
LINE
8
BLACK
6
CONTINUOUS
10
1.15203
20
0.0415403
11
1.15201
21
0.0414955
0
LINE
8
BLACK
6
CONTINUOUS
10
1.15201
20
0.0414955
11
1.15201
21
0.0414441
0
LINE
8
BLACK
6
CONTINUOUS
10
1.15201
20
0.0414441
11
1.15127
21
0.0401613
0
LINE
8
BLACK
6
CONTINUOUS
10
1.15127
20
0.0401613
11
1.15055
21
0.0388676
0
LINE
8
BLACK
6
CONTINUOUS
10
1.15055
20
0.0388676
11
1.15051
21
0.0388412
0
LINE
8
BLACK
6
CONTINUOUS
10
1.15051
20
0.0388412
11
1.15048
21
0.0387968
0
LINE
8
BLACK
6
CONTINUOUS
10
1.15048
20
0.0387968
11
1.14411
21
0.0324226
0
LINE
8
BLACK
6
CONTINUOUS
10
1.14411
20
0.0324226
11
1.14328
21
0.0319472
0
LINE
8
BLACK
6
CONTINUOUS
10
1.14328
20
0.0319472
11
1.14257
21
0.0313163
0
LINE
8
BLACK
6
CONTINUOUS
10
1.14257
20
0.0313163
11
1.1362
21
0.0281293
0
LINE
8
BLACK
6
CONTINUOUS
10
1.1362
20
0.0281293
11
1.13487
21
0.0278571
0
LINE
8
BLACK
6
CONTINUOUS
10
1.13487
20
0.0278571
11
1.13356
21
0.0275058
0
LINE
8
BLACK
6
CONTINUOUS
10
1.13356
20
0.0275058
11
1.12081
21
0.0275058
0
LINE
8
BLACK
6
CONTINUOUS
10
1.12081
20
0.0275058
11
1.1195
21
0.0278571
0
LINE
8
BLACK
6
CONTINUOUS
10
1.1195
20
0.0278571
11
1.11817
21
0.0281293
0
LINE
8
BLACK
6
CONTINUOUS
10
1.11817
20
0.0281293
11
1.11179
21
0.0313163
0
LINE
8
BLACK
6
CONTINUOUS
10
1.11179
20
0.0313163
11
1.11108
21
0.0319472
0
LINE
8
BLACK
6
CONTINUOUS
10
1.11108
20
0.0319472
11
1.11026
21
0.0324226
0
LINE
8
BLACK
6
CONTINUOUS
10
1.11026
20
0.0324226
11
1.10388
21
0.0387968
0
LINE
8
BLACK
6
CONTINUOUS
10
1.10388
20
0.0387968
11
1.10386
21
0.0388412
0
LINE
8
BLACK
6
CONTINUOUS
10
1.10386
20
0.0388412
11
1.10381
21
0.0388676
0
LINE
8
BLACK
6
CONTINUOUS
10
1.10381
20
0.0388676
11
1.1031
21
0.0401618
0
LINE
8
BLACK
6
CONTINUOUS
10
1.1031
20
0.0401618
11
1.10236
21
0.0414441
0
LINE
8
BLACK
6
CONTINUOUS
10
1.10236
20
0.0414441
11
1.10236
21
0.0414955
0
LINE
8
BLACK
6
CONTINUOUS
10
1.10236
20
0.0414955
11
1.10233
21
0.0415403
0
LINE
8
BLACK
6
CONTINUOUS
10
1.10233
20
0.0415403
11
1.09914
21
0.0542887
0
LINE
8
BLACK
6
CONTINUOUS
10
1.09914
20
0.0542887
11
1.09916
21
0.0550172
0
LINE
8
BLACK
6
CONTINUOUS
10
1.09916
20
0.0550172
11
1.09897
21
0.055721
0
LINE
8
BLACK
6
CONTINUOUS
10
1.09897
20
0.055721
11
1.09897
21
0.0780307
0
LINE
8
BLACK
6
CONTINUOUS
10
1.09897
20
0.0780307
11
1.09916
21
0.0787345
0
LINE
8
BLACK
6
CONTINUOUS
10
1.09916
20
0.0787345
11
1.09914
21
0.079463
0
LINE
8
BLACK
6
CONTINUOUS
10
1.09914
20
0.079463
11
1.10233
21
0.0922115
0
LINE
8
BLACK
6
CONTINUOUS
10
1.10233
20
0.0922115
11
1.10236
21
0.0922563
0
LINE
8
BLACK
6
CONTINUOUS
10
1.10236
20
0.0922563
11
1.10236
21
0.0923076
0
LINE
8
BLACK
6
CONTINUOUS
10
1.10236
20
0.0923076
11
1.1031
21
0.09359
0
LINE
8
BLACK
6
CONTINUOUS
10
1.1031
20
0.09359
11
1.10381
21
0.0948841
0
LINE
8
BLACK
6
CONTINUOUS
10
1.10381
20
0.0948841
11
1.10386
21
0.0949106
0
LINE
8
BLACK
6
CONTINUOUS
10
1.10386
20
0.0949106
11
1.10388
21
0.094955
0
LINE
8
BLACK
6
CONTINUOUS
10
1.10388
20
0.094955
11
1.11026
21
0.101329
0
LINE
8
BLACK
6
CONTINUOUS
10
1.11026
20
0.101329
11
1.11108
21
0.101805
0
LINE
8
BLACK
6
CONTINUOUS
10
1.11108
20
0.101805
11
1.11179
21
0.102435
0
LINE
8
BLACK
6
CONTINUOUS
10
1.11179
20
0.102435
11
1.11817
21
0.105622
0
LINE
8
BLACK
6
CONTINUOUS
10
1.11817
20
0.105622
11
1.1195
21
0.105895
0
LINE
8
BLACK
6
CONTINUOUS
10
1.1195
20
0.105895
11
1.12081
21
0.106246
0
LINE
8
BLACK
6
CONTINUOUS
10
1.12081
20
0.106246
11
1.13356
21
0.106246
0
LINE
8
BLACK
6
CONTINUOUS
10
1.13356
20
0.106246
11
1.13487
21
0.105895
0
LINE
8
BLACK
6
CONTINUOUS
10
1.11793
20
0.0922999
11
1.11339
21
0.08776
0
LINE
8
BLACK
6
CONTINUOUS
10
1.11339
20
0.08776
11
1.11078
21
0.0773038
0
LINE
8
BLACK
6
CONTINUOUS
10
1.11078
20
0.0773038
11
1.11078
21
0.056448
0
LINE
8
BLACK
6
CONTINUOUS
10
1.11078
20
0.056448
11
1.11339
21
0.0459918
0
LINE
8
BLACK
6
CONTINUOUS
10
1.11339
20
0.0459918
11
1.11793
21
0.0414519
0
LINE
8
BLACK
6
CONTINUOUS
10
1.11793
20
0.0414519
11
1.1222
21
0.0393168
0
LINE
8
BLACK
6
CONTINUOUS
10
1.1222
20
0.0393168
11
1.13216
21
0.0393168
0
LINE
8
BLACK
6
CONTINUOUS
10
1.13216
20
0.0393168
11
1.13643
21
0.0414519
0
LINE
8
BLACK
6
CONTINUOUS
10
1.13643
20
0.0414519
11
1.14097
21
0.0459918
0
LINE
8
BLACK
6
CONTINUOUS
10
1.14097
20
0.0459918
11
1.14359
21
0.056448
0
LINE
8
BLACK
6
CONTINUOUS
10
1.14359
20
0.056448
11
1.14359
21
0.0773038
0
LINE
8
BLACK
6
CONTINUOUS
10
1.14359
20
0.0773038
11
1.14097
21
0.08776
0
LINE
8
BLACK
6
CONTINUOUS
10
1.14097
20
0.08776
11
1.13643
21
0.0922999
0
LINE
8
BLACK
6
CONTINUOUS
10
1.13643
20
0.0922999
11
1.13216
21
0.0944349
0
LINE
8
BLACK
6
CONTINUOUS
10
1.13216
20
0.0944349
11
1.1222
21
0.0944349
0
LINE
8
BLACK
6
CONTINUOUS
10
1.1222
20
0.0944349
11
1.11793
21
0.0922999
0
LINE
8
BLACK
6
CONTINUOUS
10
1.21937
20
0.105455
11
1.22154
21
0.103293
0
LINE
8
BLACK
6
CONTINUOUS
10
1.22154
20
0.103293
11
1.22233
21
0.10034
0
LINE
8
BLACK
6
CONTINUOUS
10
1.22233
20
0.10034
11
1.22233
21
0.0334113
0
LINE
8
BLACK
6
CONTINUOUS
10
1.22233
20
0.0334113
11
1.22154
21
0.0304585
0
LINE
8
BLACK
6
CONTINUOUS
10
1.22154
20
0.0304585
11
1.21937
21
0.028297
0
LINE
8
BLACK
6
CONTINUOUS
10
1.21937
20
0.028297
11
1.21642
21
0.0275058
0
LINE
8
BLACK
6
CONTINUOUS
10
1.21642
20
0.0275058
11
1.21347
21
0.028297
0
LINE
8
BLACK
6
CONTINUOUS
10
1.21347
20
0.028297
11
1.21131
21
0.0304585
0
LINE
8
BLACK
6
CONTINUOUS
10
1.21131
20
0.0304585
11
1.21052
21
0.0334113
0
LINE
8
BLACK
6
CONTINUOUS
10
1.21052
20
0.0334113
11
1.21052
21
0.0625639
0
LINE
8
BLACK
6
CONTINUOUS
10
1.21052
20
0.0625639
11
1.18408
21
0.0625639
0
LINE
8
BLACK
6
CONTINUOUS
10
1.18408
20
0.0625639
11
1.18408
21
0.0334113
0
LINE
8
BLACK
6
CONTINUOUS
10
1.18408
20
0.0334113
11
1.18329
21
0.0304585
0
LINE
8
BLACK
6
CONTINUOUS
10
1.18329
20
0.0304585
11
1.18113
21
0.028297
0
LINE
8
BLACK
6
CONTINUOUS
10
1.18113
20
0.028297
11
1.17818
21
0.0275058
0
LINE
8
BLACK
6
CONTINUOUS
10
1.17818
20
0.0275058
11
1.17522
21
0.028297
0
LINE
8
BLACK
6
CONTINUOUS
10
1.17522
20
0.028297
11
1.17306
21
0.0304585
0
LINE
8
BLACK
6
CONTINUOUS
10
1.17306
20
0.0304585
11
1.17227
21
0.0334113
0
LINE
8
BLACK
6
CONTINUOUS
10
1.17227
20
0.0334113
11
1.17227
21
0.10034
0
LINE
8
BLACK
6
CONTINUOUS
10
1.17227
20
0.10034
11
1.17306
21
0.103293
0
LINE
8
BLACK
6
CONTINUOUS
10
1.17306
20
0.103293
11
1.17522
21
0.105455
0
LINE
8
BLACK
6
CONTINUOUS
10
1.17522
20
0.105455
11
1.17818
21
0.106246
0
LINE
8
BLACK
6
CONTINUOUS
10
1.17818
20
0.106246
11
1.18113
21
0.105455
0
LINE
8
BLACK
6
CONTINUOUS
10
1.18113
20
0.105455
11
1.18329
21
0.103293
0
LINE
8
BLACK
6
CONTINUOUS
10
1.18329
20
0.103293
11
1.18408
21
0.10034
0
LINE
8
BLACK
6
CONTINUOUS
10
1.18408
20
0.10034
11
1.18408
21
0.0743749
0
LINE
8
BLACK
6
CONTINUOUS
10
1.18408
20
0.0743749
11
1.21052
21
0.0743749
0
LINE
8
BLACK
6
CONTINUOUS
10
1.21052
20
0.0743749
11
1.21052
21
0.10034
0
LINE
8
BLACK
6
CONTINUOUS
10
1.21052
20
0.10034
11
1.21131
21
0.103293
0
LINE
8
BLACK
6
CONTINUOUS
10
1.21131
20
0.103293
11
1.21347
21
0.105455
0
LINE
8
BLACK
6
CONTINUOUS
10
1.21347
20
0.105455
11
1.21642
21
0.106246
0
LINE
8
BLACK
6
CONTINUOUS
10
1.21642
20
0.106246
11
1.21937
21
0.105455
0
LINE
8
BLACK
6
CONTINUOUS
10
1.288
20
0.105853
11
1.28947
21
0.105468
0
LINE
8
BLACK
6
CONTINUOUS
10
1.28947
20
0.105468
11
1.28948
21
0.105458
0
LINE
8
BLACK
6
CONTINUOUS
10
1.28948
20
0.105458
11
1.28949
21
0.105455
0
LINE
8
BLACK
6
CONTINUOUS
10
1.28949
20
0.105455
11
1.29056
21
0.104383
0
LINE
8
BLACK
6
CONTINUOUS
10
1.29056
20
0.104383
11
1.29164
21
0.103316
0
LINE
8
BLACK
6
CONTINUOUS
10
1.29164
20
0.103316
11
1.29164
21
0.103303
0
LINE
8
BLACK
6
CONTINUOUS
10
1.29164
20
0.103303
11
1.29165
21
0.103293
0
LINE
8
BLACK
6
CONTINUOUS
10
1.29165
20
0.103293
11
1.29204
21
0.101833
0
LINE
8
BLACK
6
CONTINUOUS
10
1.29204
20
0.101833
11
1.29244
21
0.100367
0
LINE
8
BLACK
6
CONTINUOUS
10
1.29244
20
0.100367
11
1.29244
21
0.100354
0
LINE
8
BLACK
6
CONTINUOUS
10
1.29244
20
0.100354
11
1.29244
21
0.10034
0
LINE
8
BLACK
6
CONTINUOUS
10
1.29244
20
0.10034
11
1.29244
21
0.0334113
0
LINE
8
BLACK
6
CONTINUOUS
10
1.29244
20
0.0334113
11
1.29165
21
0.0304585
0
LINE
8
BLACK
6
CONTINUOUS
10
1.29165
20
0.0304585
11
1.28949
21
0.028297
0
LINE
8
BLACK
6
CONTINUOUS
10
1.28949
20
0.028297
11
1.28654
21
0.0275058
0
LINE
8
BLACK
6
CONTINUOUS
10
1.28654
20
0.0275058
11
1.28359
21
0.028297
0
LINE
8
BLACK
6
CONTINUOUS
10
1.28359
20
0.028297
11
1.28142
21
0.0304585
0
LINE
8
BLACK
6
CONTINUOUS
10
1.28142
20
0.0304585
11
1.28063
21
0.0334113
0
LINE
8
BLACK
6
CONTINUOUS
10
1.28063
20
0.0334113
11
1.28063
21
0.0781029
0
LINE
8
BLACK
6
CONTINUOUS
10
1.28063
20
0.0781029
11
1.25342
21
0.0304813
0
LINE
8
BLACK
6
CONTINUOUS
10
1.25342
20
0.0304813
11
1.25341
21
0.0304717
0
LINE
8
BLACK
6
CONTINUOUS
10
1.25341
20
0.0304717
11
1.25341
21
0.0304585
0
LINE
8
BLACK
6
CONTINUOUS
10
1.25341
20
0.0304585
11
1.25234
21
0.0293869
0
LINE
8
BLACK
6
CONTINUOUS
10
1.25234
20
0.0293869
11
1.25127
21
0.0283102
0
LINE
8
BLACK
6
CONTINUOUS
10
1.25127
20
0.0283102
11
1.25126
21
0.0283066
0
LINE
8
BLACK
6
CONTINUOUS
10
1.25126
20
0.0283066
11
1.25125
21
0.028297
0
LINE
8
BLACK
6
CONTINUOUS
10
1.25125
20
0.028297
11
1.24978
21
0.0279056
0
LINE
8
BLACK
6
CONTINUOUS
10
1.24978
20
0.0279056
11
1.24832
21
0.0275058
0
LINE
8
BLACK
6
CONTINUOUS
10
1.24832
20
0.0275058
11
1.24831
21
0.0275093
0
LINE
8
BLACK
6
CONTINUOUS
10
1.24831
20
0.0275093
11
1.24829
21
0.0275058
0
LINE
8
BLACK
6
CONTINUOUS
10
1.24829
20
0.0275058
11
1.24683
21
0.0278983
0
LINE
8
BLACK
6
CONTINUOUS
10
1.24683
20
0.0278983
11
1.24536
21
0.0282839
0
LINE
8
BLACK
6
CONTINUOUS
10
1.24536
20
0.0282839
11
1.24535
21
0.0282935
0
LINE
8
BLACK
6
CONTINUOUS
10
1.24535
20
0.0282935
11
1.24534
21
0.028297
0
LINE
8
BLACK
6
CONTINUOUS
10
1.24534
20
0.028297
11
1.24427
21
0.0293687
0
LINE
8
BLACK
6
CONTINUOUS
10
1.24427
20
0.0293687
11
1.24319
21
0.0304358
0
LINE
8
BLACK
6
CONTINUOUS
10
1.24319
20
0.0304358
11
1.24319
21
0.030449
0
LINE
8
BLACK
6
CONTINUOUS
10
1.24319
20
0.030449
11
1.24318
21
0.0304585
0
LINE
8
BLACK
6
CONTINUOUS
10
1.24318
20
0.0304585
11
1.24279
21
0.0319192
0
LINE
8
BLACK
6
CONTINUOUS
10
1.24279
20
0.0319192
11
1.24239
21
0.033385
0
LINE
8
BLACK
6
CONTINUOUS
10
1.24239
20
0.033385
11
1.24239
21
0.0333982
0
LINE
8
BLACK
6
CONTINUOUS
10
1.24239
20
0.0333982
11
1.24239
21
0.0334113
0
LINE
8
BLACK
6
CONTINUOUS
10
1.24239
20
0.0334113
11
1.24239
21
0.10034
0
LINE
8
BLACK
6
CONTINUOUS
10
1.24239
20
0.10034
11
1.24318
21
0.103293
0
LINE
8
BLACK
6
CONTINUOUS
10
1.24318
20
0.103293
11
1.24534
21
0.105455
0
LINE
8
BLACK
6
CONTINUOUS
10
1.24534
20
0.105455
11
1.24829
21
0.106246
0
LINE
8
BLACK
6
CONTINUOUS
10
1.24829
20
0.106246
11
1.25125
21
0.105455
0
LINE
8
BLACK
6
CONTINUOUS
10
1.25125
20
0.105455
11
1.25341
21
0.103293
0
LINE
8
BLACK
6
CONTINUOUS
10
1.25341
20
0.103293
11
1.2542
21
0.10034
0
LINE
8
BLACK
6
CONTINUOUS
10
1.2542
20
0.10034
11
1.2542
21
0.0556489
0
LINE
8
BLACK
6
CONTINUOUS
10
1.2542
20
0.0556489
11
1.28141
21
0.10327
0
LINE
8
BLACK
6
CONTINUOUS
10
1.28141
20
0.10327
11
1.28142
21
0.10328
0
LINE
8
BLACK
6
CONTINUOUS
10
1.28142
20
0.10328
11
1.28142
21
0.103293
0
LINE
8
BLACK
6
CONTINUOUS
10
1.28142
20
0.103293
11
1.28249
21
0.104363
0
LINE
8
BLACK
6
CONTINUOUS
10
1.28249
20
0.104363
11
1.28356
21
0.105442
0
LINE
8
BLACK
6
CONTINUOUS
10
1.28356
20
0.105442
11
1.28358
21
0.105445
0
LINE
8
BLACK
6
CONTINUOUS
10
1.28358
20
0.105445
11
1.28359
21
0.105455
0
LINE
8
BLACK
6
CONTINUOUS
10
1.28359
20
0.105455
11
1.28505
21
0.105846
0
LINE
8
BLACK
6
CONTINUOUS
10
1.28505
20
0.105846
11
1.28651
21
0.106246
0
LINE
8
BLACK
6
CONTINUOUS
10
1.28651
20
0.106246
11
1.28652
21
0.106242
0
LINE
8
BLACK
6
CONTINUOUS
10
1.28652
20
0.106242
11
1.28654
21
0.106246
0
LINE
8
BLACK
6
CONTINUOUS
10
1.28654
20
0.106246
11
1.288
21
0.105853
0
LINE
8
BLACK
6
CONTINUOUS
10
1.32136
20
0.105455
11
1.32352
21
0.103293
0
LINE
8
BLACK
6
CONTINUOUS
10
1.32352
20
0.103293
11
1.32431
21
0.10034
0
LINE
8
BLACK
6
CONTINUOUS
10
1.32431
20
0.10034
11
1.32431
21
0.0334113
0
LINE
8
BLACK
6
CONTINUOUS
10
1.32431
20
0.0334113
11
1.32352
21
0.0304585
0
LINE
8
BLACK
6
CONTINUOUS
10
1.32352
20
0.0304585
11
1.32136
21
0.028297
0
LINE
8
BLACK
6
CONTINUOUS
10
1.32136
20
0.028297
11
1.31841
21
0.0275058
0
LINE
8
BLACK
6
CONTINUOUS
10
1.31841
20
0.0275058
11
1.31546
21
0.028297
0
LINE
8
BLACK
6
CONTINUOUS
10
1.31546
20
0.028297
11
1.31329
21
0.0304585
0
LINE
8
BLACK
6
CONTINUOUS
10
1.31329
20
0.0304585
11
1.3125
21
0.0334113
0
LINE
8
BLACK
6
CONTINUOUS
10
1.3125
20
0.0334113
11
1.3125
21
0.10034
0
LINE
8
BLACK
6
CONTINUOUS
10
1.3125
20
0.10034
11
1.31329
21
0.103293
0
LINE
8
BLACK
6
CONTINUOUS
10
1.31329
20
0.103293
11
1.31546
21
0.105455
0
LINE
8
BLACK
6
CONTINUOUS
10
1.31546
20
0.105455
11
1.31841
21
0.106246
0
LINE
8
BLACK
6
CONTINUOUS
10
1.31841
20
0.106246
11
1.32136
21
0.105455
0
LINE
8
BLACK
6
CONTINUOUS
10
1.38829
20
0.105455
11
1.39045
21
0.103293
0
LINE
8
BLACK
6
CONTINUOUS
10
1.39045
20
0.103293
11
1.39124
21
0.10034
0
LINE
8
BLACK
6
CONTINUOUS
10
1.39124
20
0.10034
11
1.39124
21
0.0334113
0
LINE
8
BLACK
6
CONTINUOUS
10
1.39124
20
0.0334113
11
1.39045
21
0.0304585
0
LINE
8
BLACK
6
CONTINUOUS
10
1.39045
20
0.0304585
11
1.38829
21
0.028297
0
LINE
8
BLACK
6
CONTINUOUS
10
1.38829
20
0.028297
11
1.38534
21
0.0275058
0
LINE
8
BLACK
6
CONTINUOUS
10
1.38534
20
0.0275058
11
1.38239
21
0.028297
0
LINE
8
BLACK
6
CONTINUOUS
10
1.38239
20
0.028297
11
1.38022
21
0.0304585
0
LINE
8
BLACK
6
CONTINUOUS
10
1.38022
20
0.0304585
11
1.37943
21
0.0334113
0
LINE
8
BLACK
6
CONTINUOUS
10
1.37943
20
0.0334113
11
1.37943
21
0.0593768
0
LINE
8
BLACK
6
CONTINUOUS
10
1.37943
20
0.0593768
11
1.35984
21
0.0593768
0
LINE
8
BLACK
6
CONTINUOUS
10
1.35984
20
0.0593768
11
1.35853
21
0.0597281
0
LINE
8
BLACK
6
CONTINUOUS
10
1.35853
20
0.0597281
11
1.3572
21
0.0600003
0
LINE
8
BLACK
6
CONTINUOUS
10
1.3572
20
0.0600003
11
1.35083
21
0.0631874
0
LINE
8
BLACK
6
CONTINUOUS
10
1.35083
20
0.0631874
11
1.35011
21
0.0638182
0
LINE
8
BLACK
6
CONTINUOUS
10
1.35011
20
0.0638182
11
1.34929
21
0.0642936
0
LINE
8
BLACK
6
CONTINUOUS
10
1.34929
20
0.0642936
11
1.3461
21
0.0674807
0
LINE
8
BLACK
6
CONTINUOUS
10
1.3461
20
0.0674807
11
1.34563
21
0.0683041
0
LINE
8
BLACK
6
CONTINUOUS
10
1.34563
20
0.0683041
11
1.345
21
0.0690155
0
LINE
8
BLACK
6
CONTINUOUS
10
1.345
20
0.0690155
11
1.34181
21
0.0753897
0
LINE
8
BLACK
6
CONTINUOUS
10
1.34181
20
0.0753897
11
1.34154
21
0.0767196
0
LINE
8
BLACK
6
CONTINUOUS
10
1.34154
20
0.0767196
11
1.34119
21
0.0780307
0
LINE
8
BLACK
6
CONTINUOUS
10
1.34119
20
0.0780307
11
1.34119
21
0.087592
0
LINE
8
BLACK
6
CONTINUOUS
10
1.34119
20
0.087592
11
1.34154
21
0.0889031
0
LINE
8
BLACK
6
CONTINUOUS
10
1.34154
20
0.0889031
11
1.34181
21
0.0902331
0
LINE
8
BLACK
6
CONTINUOUS
10
1.34181
20
0.0902331
11
1.345
21
0.0966072
0
LINE
8
BLACK
6
CONTINUOUS
10
1.345
20
0.0966072
11
1.34563
21
0.0973187
0
LINE
8
BLACK
6
CONTINUOUS
10
1.34563
20
0.0973187
11
1.3461
21
0.098142
0
LINE
8
BLACK
6
CONTINUOUS
10
1.3461
20
0.098142
11
1.34929
21
0.101329
0
LINE
8
BLACK
6
CONTINUOUS
10
1.34929
20
0.101329
11
1.35011
21
0.101805
0
LINE
8
BLACK
6
CONTINUOUS
10
1.35011
20
0.101805
11
1.35083
21
0.102435
0
LINE
8
BLACK
6
CONTINUOUS
10
1.35083
20
0.102435
11
1.3572
21
0.105622
0
LINE
8
BLACK
6
CONTINUOUS
10
1.3572
20
0.105622
11
1.35853
21
0.105895
0
LINE
8
BLACK
6
CONTINUOUS
10
1.35853
20
0.105895
11
1.35984
21
0.106246
0
LINE
8
BLACK
6
CONTINUOUS
10
1.35984
20
0.106246
11
1.38534
21
0.106246
0
LINE
8
BLACK
6
CONTINUOUS
10
1.38534
20
0.106246
11
1.38829
21
0.105455
0
LINE
8
BLACK
6
CONTINUOUS
10
1.35697
20
0.0922999
11
1.35513
21
0.090468
0
LINE
8
BLACK
6
CONTINUOUS
10
1.35513
20
0.090468
11
1.353
21
0.086198
0
LINE
8
BLACK
6
CONTINUOUS
10
1.353
20
0.086198
11
1.353
21
0.0794248
0
LINE
8
BLACK
6
CONTINUOUS
10
1.353
20
0.0794248
11
1.35513
21
0.0751547
0
LINE
8
BLACK
6
CONTINUOUS
10
1.35513
20
0.0751547
11
1.35697
21
0.0733229
0
LINE
8
BLACK
6
CONTINUOUS
10
1.35697
20
0.0733229
11
1.36124
21
0.0711878
0
LINE
8
BLACK
6
CONTINUOUS
10
1.36124
20
0.0711878
11
1.37943
21
0.0711878
0
LINE
8
BLACK
6
CONTINUOUS
10
1.37943
20
0.0711878
11
1.37943
21
0.0944349
0
LINE
8
BLACK
6
CONTINUOUS
10
1.37943
20
0.0944349
11
1.36124
21
0.0944349
0
LINE
8
BLACK
6
CONTINUOUS
10
1.36124
20
0.0944349
11
1.35697
21
0.0922999
0
LINE
8
BLACK
6
CONTINUOUS
10
0.68887
20
0.105965
11
0.68923
21
0.105943
0
LINE
8
BLACK
6
CONTINUOUS
10
0.68923
20
0.105943
11
0.69022
21
0.10529
0
LINE
8
BLACK
6
CONTINUOUS
10
0.69022
20
0.10529
11
0.691281
21
0.104759
0
LINE
8
BLACK
6
CONTINUOUS
10
0.691281
20
0.104759
11
0.69148
21
0.104457
0
LINE
8
BLACK
6
CONTINUOUS
10
0.69148
20
0.104457
11
0.691781
21
0.104259
0
LINE
8
BLACK
6
CONTINUOUS
10
0.691781
20
0.104259
11
0.692312
21
0.103198
0
LINE
8
BLACK
6
CONTINUOUS
10
0.692312
20
0.103198
11
0.692965
21
0.102208
0
LINE
8
BLACK
6
CONTINUOUS
10
0.692965
20
0.102208
11
0.715275
21
0.0352788
0
LINE
8
BLACK
6
CONTINUOUS
10
0.715275
20
0.0352788
11
0.715458
21
0.0322274
0
LINE
8
BLACK
6
CONTINUOUS
10
0.715458
20
0.0322274
11
0.714091
21
0.0294932
0
LINE
8
BLACK
6
CONTINUOUS
10
0.714091
20
0.0294932
11
0.71154
21
0.0278089
0
LINE
8
BLACK
6
CONTINUOUS
10
0.71154
20
0.0278089
11
0.708489
21
0.0276257
0
LINE
8
BLACK
6
CONTINUOUS
10
0.708489
20
0.0276257
11
0.705755
21
0.0289928
0
LINE
8
BLACK
6
CONTINUOUS
10
0.705755
20
0.0289928
11
0.70407
21
0.0315438
0
LINE
8
BLACK
6
CONTINUOUS
10
0.70407
20
0.0315438
11
0.699042
21
0.0466284
0
LINE
8
BLACK
6
CONTINUOUS
10
0.699042
20
0.0466284
11
0.675684
21
0.0466284
0
LINE
8
BLACK
6
CONTINUOUS
10
0.675684
20
0.0466284
11
0.670656
21
0.0315438
0
LINE
8
BLACK
6
CONTINUOUS
10
0.670656
20
0.0315438
11
0.668971
21
0.0289928
0
LINE
8
BLACK
6
CONTINUOUS
10
0.668971
20
0.0289928
11
0.666237
21
0.0276257
0
LINE
8
BLACK
6
CONTINUOUS
10
0.666237
20
0.0276257
11
0.663186
21
0.0278089
0
LINE
8
BLACK
6
CONTINUOUS
10
0.663186
20
0.0278089
11
0.660635
21
0.0294931
0
LINE
8
BLACK
6
CONTINUOUS
10
0.660635
20
0.0294931
11
0.659268
21
0.0322274
0
LINE
8
BLACK
6
CONTINUOUS
10
0.659268
20
0.0322274
11
0.659451
21
0.0352788
0
LINE
8
BLACK
6
CONTINUOUS
10
0.659451
20
0.0352788
11
0.68176
21
0.102208
0
LINE
8
BLACK
6
CONTINUOUS
10
0.68176
20
0.102208
11
0.682414
21
0.103198
0
LINE
8
BLACK
6
CONTINUOUS
10
0.682414
20
0.103198
11
0.682944
21
0.104259
0
LINE
8
BLACK
6
CONTINUOUS
10
0.682944
20
0.104259
11
0.683246
21
0.104458
0
LINE
8
BLACK
6
CONTINUOUS
10
0.683246
20
0.104458
11
0.683445
21
0.104759
0
LINE
8
BLACK
6
CONTINUOUS
10
0.683445
20
0.104759
11
0.684506
21
0.105289
0
LINE
8
BLACK
6
CONTINUOUS
10
0.684506
20
0.105289
11
0.685495
21
0.105943
0
LINE
8
BLACK
6
CONTINUOUS
10
0.685495
20
0.105943
11
0.685856
21
0.105965
0
LINE
8
BLACK
6
CONTINUOUS
10
0.685856
20
0.105965
11
0.686179
21
0.106126
0
LINE
8
BLACK
6
CONTINUOUS
10
0.686179
20
0.106126
11
0.687363
21
0.106055
0
LINE
8
BLACK
6
CONTINUOUS
10
0.687363
20
0.106055
11
0.688547
21
0.106126
0
LINE
8
BLACK
6
CONTINUOUS
10
0.688547
20
0.106126
11
0.68887
21
0.105965
0
LINE
8
BLACK
6
CONTINUOUS
10
0.679621
20
0.0584394
11
0.695105
21
0.0584394
0
LINE
8
BLACK
6
CONTINUOUS
10
0.695105
20
0.0584394
11
0.687363
21
0.0816656
0
LINE
8
BLACK
6
CONTINUOUS
10
0.687363
20
0.0816656
11
0.679621
21
0.0584394
0
LINE
8
BLACK
6
CONTINUOUS
10
0.276564
20
0.0802786
11
0.278725
21
0.078117
0
LINE
8
BLACK
6
CONTINUOUS
10
0.278725
20
0.078117
11
0.279516
21
0.0751643
0
LINE
8
BLACK
6
CONTINUOUS
10
0.279516
20
0.0751643
11
0.278725
21
0.0722115
0
LINE
8
BLACK
6
CONTINUOUS
10
0.278725
20
0.0722115
11
0.276564
21
0.0700499
0
LINE
8
BLACK
6
CONTINUOUS
10
0.276564
20
0.0700499
11
0.273611
21
0.0692587
0
LINE
8
BLACK
6
CONTINUOUS
10
0.273611
20
0.0692587
11
0.254828
21
0.0692587
0
LINE
8
BLACK
6
CONTINUOUS
10
0.254828
20
0.0692587
11
0.278254
21
0.0394428
0
LINE
8
BLACK
6
CONTINUOUS
10
0.278254
20
0.0394428
11
0.278423
21
0.0390494
0
LINE
8
BLACK
6
CONTINUOUS
10
0.278423
20
0.0390494
11
0.278725
21
0.0387469
0
LINE
8
BLACK
6
CONTINUOUS
10
0.278725
20
0.0387469
11
0.279015
21
0.0376635
0
LINE
8
BLACK
6
CONTINUOUS
10
0.279015
20
0.0376635
11
0.279457
21
0.0366321
0
LINE
8
BLACK
6
CONTINUOUS
10
0.279457
20
0.0366321
11
0.279406
21
0.0362074
0
LINE
8
BLACK
6
CONTINUOUS
10
0.279406
20
0.0362074
11
0.279516
21
0.0357942
0
LINE
8
BLACK
6
CONTINUOUS
10
0.279516
20
0.0357942
11
0.279226
21
0.0347106
0
LINE
8
BLACK
6
CONTINUOUS
10
0.279226
20
0.0347106
11
0.279092
21
0.033597
0
LINE
8
BLACK
6
CONTINUOUS
10
0.279092
20
0.033597
11
0.278836
21
0.0332547
0
LINE
8
BLACK
6
CONTINUOUS
10
0.278836
20
0.0332547
11
0.278725
21
0.0328414
0
LINE
8
BLACK
6
CONTINUOUS
10
0.278725
20
0.0328414
11
0.277932
21
0.0320481
0
LINE
8
BLACK
6
CONTINUOUS
10
0.277932
20
0.0320481
11
0.277259
21
0.0311506
0
LINE
8
BLACK
6
CONTINUOUS
10
0.277259
20
0.0311506
11
0.276866
21
0.0309824
0
LINE
8
BLACK
6
CONTINUOUS
10
0.276866
20
0.0309824
11
0.276564
21
0.0306798
0
LINE
8
BLACK
6
CONTINUOUS
10
0.276564
20
0.0306798
11
0.27548
21
0.0303895
0
LINE
8
BLACK
6
CONTINUOUS
10
0.27548
20
0.0303895
11
0.274449
21
0.0299484
0
LINE
8
BLACK
6
CONTINUOUS
10
0.274449
20
0.0299484
11
0.274024
21
0.0299994
0
LINE
8
BLACK
6
CONTINUOUS
10
0.274024
20
0.0299994
11
0.273611
21
0.0298887
0
LINE
8
BLACK
6
CONTINUOUS
10
0.273611
20
0.0298887
11
0.242677
21
0.0298887
0
LINE
8
BLACK
6
CONTINUOUS
10
0.242677
20
0.0298887
11
0.239724
21
0.0306798
0
LINE
8
BLACK
6
CONTINUOUS
10
0.239724
20
0.0306798
11
0.237563
21
0.0328414
0
LINE
8
BLACK
6
CONTINUOUS
10
0.237563
20
0.0328414
11
0.236772
21
0.0357942
0
LINE
8
BLACK
6
CONTINUOUS
10
0.236772
20
0.0357942
11
0.237563
21
0.0387469
0
LINE
8
BLACK
6
CONTINUOUS
10
0.237563
20
0.0387469
11
0.239724
21
0.0409085
0
LINE
8
BLACK
6
CONTINUOUS
10
0.239724
20
0.0409085
11
0.242677
21
0.0416997
0
LINE
8
BLACK
6
CONTINUOUS
10
0.242677
20
0.0416997
11
0.26146
21
0.0416997
0
LINE
8
BLACK
6
CONTINUOUS
10
0.26146
20
0.0416997
11
0.238034
21
0.0715157
0
LINE
8
BLACK
6
CONTINUOUS
10
0.238034
20
0.0715157
11
0.237865
21
0.071909
0
LINE
8
BLACK
6
CONTINUOUS
10
0.237865
20
0.071909
11
0.237563
21
0.0722115
0
LINE
8
BLACK
6
CONTINUOUS
10
0.237563
20
0.0722115
11
0.237273
21
0.0732949
0
LINE
8
BLACK
6
CONTINUOUS
10
0.237273
20
0.0732949
11
0.236831
21
0.0743263
0
LINE
8
BLACK
6
CONTINUOUS
10
0.236831
20
0.0743263
11
0.236882
21
0.0747511
0
LINE
8
BLACK
6
CONTINUOUS
10
0.236882
20
0.0747511
11
0.236772
21
0.0751643
0
LINE
8
BLACK
6
CONTINUOUS
10
0.236772
20
0.0751643
11
0.237062
21
0.0762478
0
LINE
8
BLACK
6
CONTINUOUS
10
0.237062
20
0.0762478
11
0.237196
21
0.0773615
0
LINE
8
BLACK
6
CONTINUOUS
10
0.237196
20
0.0773615
11
0.237452
21
0.0777038
0
LINE
8
BLACK
6
CONTINUOUS
10
0.237452
20
0.0777038
11
0.237563
21
0.078117
0
LINE
8
BLACK
6
CONTINUOUS
10
0.237563
20
0.078117
11
0.238356
21
0.0789102
0
LINE
8
BLACK
6
CONTINUOUS
10
0.238356
20
0.0789102
11
0.239029
21
0.0798079
0
LINE
8
BLACK
6
CONTINUOUS
10
0.239029
20
0.0798079
11
0.239422
21
0.0799761
0
LINE
8
BLACK
6
CONTINUOUS
10
0.239422
20
0.0799761
11
0.239724
21
0.0802786
0
LINE
8
BLACK
6
CONTINUOUS
10
0.239724
20
0.0802786
11
0.240808
21
0.0805689
0
LINE
8
BLACK
6
CONTINUOUS
10
0.240808
20
0.0805689
11
0.241839
21
0.08101
0
LINE
8
BLACK
6
CONTINUOUS
10
0.241839
20
0.08101
11
0.242264
21
0.0809591
0
LINE
8
BLACK
6
CONTINUOUS
10
0.242264
20
0.0809591
11
0.242677
21
0.0810698
0
LINE
8
BLACK
6
CONTINUOUS
10
0.242677
20
0.0810698
11
0.273611
21
0.0810698
0
LINE
8
BLACK
6
CONTINUOUS
10
0.273611
20
0.0810698
11
0.276564
21
0.0802786
0
LINE
8
BLACK
6
CONTINUOUS
10
0.31148
20
0.0807185
11
0.31281
21
0.0804463
0
LINE
8
BLACK
6
CONTINUOUS
10
0.31281
20
0.0804463
11
0.318434
21
0.0776341
0
LINE
8
BLACK
6
CONTINUOUS
10
0.318434
20
0.0776341
11
0.319145
21
0.0770033
0
LINE
8
BLACK
6
CONTINUOUS
10
0.319145
20
0.0770033
11
0.319969
21
0.076528
0
LINE
8
BLACK
6
CONTINUOUS
10
0.319969
20
0.076528
11
0.322781
21
0.0737158
0
LINE
8
BLACK
6
CONTINUOUS
10
0.322781
20
0.0737158
11
0.323256
21
0.0728924
0
LINE
8
BLACK
6
CONTINUOUS
10
0.323256
20
0.0728924
11
0.323887
21
0.072181
0
LINE
8
BLACK
6
CONTINUOUS
10
0.323887
20
0.072181
11
0.326699
21
0.0665567
0
LINE
8
BLACK
6
CONTINUOUS
10
0.326699
20
0.0665567
11
0.326971
21
0.0652269
0
LINE
8
BLACK
6
CONTINUOUS
10
0.326971
20
0.0652269
11
0.327323
21
0.0639157
0
LINE
8
BLACK
6
CONTINUOUS
10
0.327323
20
0.0639157
11
0.327323
21
0.0470428
0
LINE
8
BLACK
6
CONTINUOUS
10
0.327323
20
0.0470428
11
0.326971
21
0.0457315
0
LINE
8
BLACK
6
CONTINUOUS
10
0.326971
20
0.0457315
11
0.326699
21
0.0444018
0
LINE
8
BLACK
6
CONTINUOUS
10
0.326699
20
0.0444018
11
0.323887
21
0.0387774
0
LINE
8
BLACK
6
CONTINUOUS
10
0.323887
20
0.0387774
11
0.323256
21
0.0380661
0
LINE
8
BLACK
6
CONTINUOUS
10
0.323256
20
0.0380661
11
0.322781
21
0.0372426
0
LINE
8
BLACK
6
CONTINUOUS
10
0.322781
20
0.0372426
11
0.319969
21
0.0344305
0
LINE
8
BLACK
6
CONTINUOUS
10
0.319969
20
0.0344305
11
0.319145
21
0.0339551
0
LINE
8
BLACK
6
CONTINUOUS
10
0.319145
20
0.0339551
11
0.318434
21
0.0333243
0
LINE
8
BLACK
6
CONTINUOUS
10
0.318434
20
0.0333243
11
0.31281
21
0.0305121
0
LINE
8
BLACK
6
CONTINUOUS
10
0.31281
20
0.0305121
11
0.31148
21
0.03024
0
LINE
8
BLACK
6
CONTINUOUS
10
0.31148
20
0.03024
11
0.310169
21
0.0298887
0
LINE
8
BLACK
6
CONTINUOUS
10
0.310169
20
0.0298887
11
0.29892
21
0.0298887
0
LINE
8
BLACK
6
CONTINUOUS
10
0.29892
20
0.0298887
11
0.297609
21
0.03024
0
LINE
8
BLACK
6
CONTINUOUS
10
0.297609
20
0.03024
11
0.296279
21
0.0305121
0
LINE
8
BLACK
6
CONTINUOUS
10
0.296279
20
0.0305121
11
0.290655
21
0.0333243
0
LINE
8
BLACK
6
CONTINUOUS
10
0.290655
20
0.0333243
11
0.288368
21
0.0353524
0
LINE
8
BLACK
6
CONTINUOUS
10
0.288368
20
0.0353524
11
0.287401
21
0.0382524
0
LINE
8
BLACK
6
CONTINUOUS
10
0.287401
20
0.0382524
11
0.288014
21
0.0412473
0
LINE
8
BLACK
6
CONTINUOUS
10
0.288014
20
0.0412473
11
0.290042
21
0.0435345
0
LINE
8
BLACK
6
CONTINUOUS
10
0.290042
20
0.0435345
11
0.292942
21
0.0445012
0
LINE
8
BLACK
6
CONTINUOUS
10
0.292942
20
0.0445012
11
0.295937
21
0.0438883
0
LINE
8
BLACK
6
CONTINUOUS
10
0.295937
20
0.0438883
11
0.300314
21
0.0416997
0
LINE
8
BLACK
6
CONTINUOUS
10
0.300314
20
0.0416997
11
0.308775
21
0.0416997
0
LINE
8
BLACK
6
CONTINUOUS
10
0.308775
20
0.0416997
11
0.312295
21
0.0434598
0
LINE
8
BLACK
6
CONTINUOUS
10
0.312295
20
0.0434598
11
0.313752
21
0.0449167
0
LINE
8
BLACK
6
CONTINUOUS
10
0.313752
20
0.0449167
11
0.315512
21
0.0484369
0
LINE
8
BLACK
6
CONTINUOUS
10
0.315512
20
0.0484369
11
0.315512
21
0.0625216
0
LINE
8
BLACK
6
CONTINUOUS
10
0.315512
20
0.0625216
11
0.313752
21
0.0660418
0
LINE
8
BLACK
6
CONTINUOUS
10
0.313752
20
0.0660418
11
0.312295
21
0.0674986
0
LINE
8
BLACK
6
CONTINUOUS
10
0.312295
20
0.0674986
11
0.308775
21
0.0692587
0
LINE
8
BLACK
6
CONTINUOUS
10
0.308775
20
0.0692587
11
0.300314
21
0.0692587
0
LINE
8
BLACK
6
CONTINUOUS
10
0.300314
20
0.0692587
11
0.295937
21
0.06707
0
LINE
8
BLACK
6
CONTINUOUS
10
0.295937
20
0.06707
11
0.292942
21
0.0664572
0
LINE
8
BLACK
6
CONTINUOUS
10
0.292942
20
0.0664572
11
0.290042
21
0.0674239
0
LINE
8
BLACK
6
CONTINUOUS
10
0.290042
20
0.0674239
11
0.288014
21
0.0697111
0
LINE
8
BLACK
6
CONTINUOUS
10
0.288014
20
0.0697111
11
0.287401
21
0.0727059
0
LINE
8
BLACK
6
CONTINUOUS
10
0.287401
20
0.0727059
11
0.288368
21
0.0756059
0
LINE
8
BLACK
6
CONTINUOUS
10
0.288368
20
0.0756059
11
0.290655
21
0.0776341
0
LINE
8
BLACK
6
CONTINUOUS
10
0.290655
20
0.0776341
11
0.296279
21
0.0804463
0
LINE
8
BLACK
6
CONTINUOUS
10
0.296279
20
0.0804463
11
0.297609
21
0.0807185
0
LINE
8
BLACK
6
CONTINUOUS
10
0.297609
20
0.0807185
11
0.29892
21
0.0810698
0
LINE
8
BLACK
6
CONTINUOUS
10
0.29892
20
0.0810698
11
0.310169
21
0.0810698
0
LINE
8
BLACK
6
CONTINUOUS
10
0.310169
20
0.0810698
11
0.31148
21
0.0807185
0
LINE
8
BLACK
6
CONTINUOUS
10
0.347478
20
0.0471228
11
0.348255
21
0.0471228
0
LINE
8
BLACK
6
CONTINUOUS
10
0.348255
20
0.0471228
11
0.348255
21
0.0471228
0
LINE
8
BLACK
6
CONTINUOUS
10
0.348255
20
0.0471228
11
0.348928
21
0.046734
0
LINE
8
BLACK
6
CONTINUOUS
10
0.348928
20
0.046734
11
0.349679
21
0.0465328
0
LINE
8
BLACK
6
CONTINUOUS
10
0.349679
20
0.0465328
11
0.350229
21
0.045983
0
LINE
8
BLACK
6
CONTINUOUS
10
0.350229
20
0.045983
11
0.350902
21
0.0455943
0
LINE
8
BLACK
6
CONTINUOUS
10
0.350902
20
0.0455943
11
0.350903
21
0.0455943
0
LINE
8
BLACK
6
CONTINUOUS
10
0.350903
20
0.0455943
11
0.353715
21
0.0427821
0
LINE
8
BLACK
6
CONTINUOUS
10
0.353715
20
0.0427821
11
0.355243
21
0.0401348
0
LINE
8
BLACK
6
CONTINUOUS
10
0.355243
20
0.0401348
11
0.355243
21
0.0401347
0
LINE
8
BLACK
6
CONTINUOUS
10
0.355243
20
0.0401347
11
0.355243
21
0.0370778
0
LINE
8
BLACK
6
CONTINUOUS
10
0.355243
20
0.0370778
11
0.354502
21
0.0357942
0
LINE
8
BLACK
6
CONTINUOUS
10
0.354502
20
0.0357942
11
0.353715
21
0.0344305
0
LINE
8
BLACK
6
CONTINUOUS
10
0.353715
20
0.0344305
11
0.350902
21
0.0316183
0
LINE
8
BLACK
6
CONTINUOUS
10
0.350902
20
0.0316183
11
0.350229
21
0.0312296
0
LINE
8
BLACK
6
CONTINUOUS
10
0.350229
20
0.0312296
11
0.349679
21
0.0306798
0
LINE
8
BLACK
6
CONTINUOUS
10
0.349679
20
0.0306798
11
0.348928
21
0.0304787
0
LINE
8
BLACK
6
CONTINUOUS
10
0.348928
20
0.0304787
11
0.348255
21
0.0300899
0
LINE
8
BLACK
6
CONTINUOUS
10
0.348255
20
0.0300899
11
0.347478
21
0.0300899
0
LINE
8
BLACK
6
CONTINUOUS
10
0.347478
20
0.0300899
11
0.346727
21
0.0298887
0
LINE
8
BLACK
6
CONTINUOUS
10
0.346727
20
0.0298887
11
0.345976
21
0.0300899
0
LINE
8
BLACK
6
CONTINUOUS
10
0.345976
20
0.0300899
11
0.345198
21
0.0300899
0
LINE
8
BLACK
6
CONTINUOUS
10
0.345198
20
0.0300899
11
0.345198
21
0.0300899
0
LINE
8
BLACK
6
CONTINUOUS
10
0.345198
20
0.0300899
11
0.344525
21
0.0304786
0
LINE
8
BLACK
6
CONTINUOUS
10
0.344525
20
0.0304786
11
0.343774
21
0.0306798
0
LINE
8
BLACK
6
CONTINUOUS
10
0.343774
20
0.0306798
11
0.343224
21
0.0312296
0
LINE
8
BLACK
6
CONTINUOUS
10
0.343224
20
0.0312296
11
0.342971
21
0.0313757
0
LINE
8
BLACK
6
CONTINUOUS
10
0.342971
20
0.0313757
11
0.342551
21
0.0316183
0
LINE
8
BLACK
6
CONTINUOUS
10
0.342551
20
0.0316183
11
0.339739
21
0.0344304
0
LINE
8
BLACK
6
CONTINUOUS
10
0.339739
20
0.0344304
11
0.339739
21
0.0344305
0
LINE
8
BLACK
6
CONTINUOUS
10
0.339739
20
0.0344305
11
0.338951
21
0.0357942
0
LINE
8
BLACK
6
CONTINUOUS
10
0.338951
20
0.0357942
11
0.33821
21
0.0370778
0
LINE
8
BLACK
6
CONTINUOUS
10
0.33821
20
0.0370778
11
0.33821
21
0.0401347
0
LINE
8
BLACK
6
CONTINUOUS
10
0.33821
20
0.0401347
11
0.33821
21
0.0401348
0
LINE
8
BLACK
6
CONTINUOUS
10
0.33821
20
0.0401348
11
0.339739
21
0.0427821
0
LINE
8
BLACK
6
CONTINUOUS
10
0.339739
20
0.0427821
11
0.342551
21
0.0455943
0
LINE
8
BLACK
6
CONTINUOUS
10
0.342551
20
0.0455943
11
0.342551
21
0.0455943
0
LINE
8
BLACK
6
CONTINUOUS
10
0.342551
20
0.0455943
11
0.342551
21
0.0455943
0
LINE
8
BLACK
6
CONTINUOUS
10
0.342551
20
0.0455943
11
0.343224
21
0.0459831
0
LINE
8
BLACK
6
CONTINUOUS
10
0.343224
20
0.0459831
11
0.343774
21
0.0465328
0
LINE
8
BLACK
6
CONTINUOUS
10
0.343774
20
0.0465328
11
0.344525
21
0.0467341
0
LINE
8
BLACK
6
CONTINUOUS
10
0.344525
20
0.0467341
11
0.345198
21
0.0471228
0
LINE
8
BLACK
6
CONTINUOUS
10
0.345198
20
0.0471228
11
0.345976
21
0.0471228
0
LINE
8
BLACK
6
CONTINUOUS
10
0.345976
20
0.0471228
11
0.346727
21
0.047324
0
LINE
8
BLACK
6
CONTINUOUS
10
0.346727
20
0.047324
11
0.347478
21
0.0471228
0
LINE
8
BLACK
6
CONTINUOUS
10
0.408735
20
0.0999636
11
0.410896
21
0.097802
0
LINE
8
BLACK
6
CONTINUOUS
10
0.410896
20
0.097802
11
0.411687
21
0.0948493
0
LINE
8
BLACK
6
CONTINUOUS
10
0.411687
20
0.0948493
11
0.411687
21
0.0357942
0
LINE
8
BLACK
6
CONTINUOUS
10
0.411687
20
0.0357942
11
0.410896
21
0.0328414
0
LINE
8
BLACK
6
CONTINUOUS
10
0.410896
20
0.0328414
11
0.408735
21
0.0306798
0
LINE
8
BLACK
6
CONTINUOUS
10
0.408735
20
0.0306798
11
0.405782
21
0.0298887
0
LINE
8
BLACK
6
CONTINUOUS
10
0.405782
20
0.0298887
11
0.383285
21
0.0298887
0
LINE
8
BLACK
6
CONTINUOUS
10
0.383285
20
0.0298887
11
0.381973
21
0.03024
0
LINE
8
BLACK
6
CONTINUOUS
10
0.381973
20
0.03024
11
0.380644
21
0.0305121
0
LINE
8
BLACK
6
CONTINUOUS
10
0.380644
20
0.0305121
11
0.375019
21
0.0333243
0
LINE
8
BLACK
6
CONTINUOUS
10
0.375019
20
0.0333243
11
0.374308
21
0.0339551
0
LINE
8
BLACK
6
CONTINUOUS
10
0.374308
20
0.0339551
11
0.373484
21
0.0344305
0
LINE
8
BLACK
6
CONTINUOUS
10
0.373484
20
0.0344305
11
0.370672
21
0.0372426
0
LINE
8
BLACK
6
CONTINUOUS
10
0.370672
20
0.0372426
11
0.370197
21
0.0380661
0
LINE
8
BLACK
6
CONTINUOUS
10
0.370197
20
0.0380661
11
0.369566
21
0.0387774
0
LINE
8
BLACK
6
CONTINUOUS
10
0.369566
20
0.0387774
11
0.366754
21
0.0444017
0
LINE
8
BLACK
6
CONTINUOUS
10
0.366754
20
0.0444017
11
0.366482
21
0.0457316
0
LINE
8
BLACK
6
CONTINUOUS
10
0.366482
20
0.0457316
11
0.36613
21
0.0470428
0
LINE
8
BLACK
6
CONTINUOUS
10
0.36613
20
0.0470428
11
0.36613
21
0.0554792
0
LINE
8
BLACK
6
CONTINUOUS
10
0.36613
20
0.0554792
11
0.366482
21
0.0567904
0
LINE
8
BLACK
6
CONTINUOUS
10
0.366482
20
0.0567904
11
0.366754
21
0.0581202
0
LINE
8
BLACK
6
CONTINUOUS
10
0.366754
20
0.0581202
11
0.369566
21
0.0637445
0
LINE
8
BLACK
6
CONTINUOUS
10
0.369566
20
0.0637445
11
0.370197
21
0.0644559
0
LINE
8
BLACK
6
CONTINUOUS
10
0.370197
20
0.0644559
11
0.370672
21
0.0652793
0
LINE
8
BLACK
6
CONTINUOUS
10
0.370672
20
0.0652793
11
0.373484
21
0.0680915
0
LINE
8
BLACK
6
CONTINUOUS
10
0.373484
20
0.0680915
11
0.373538
21
0.0681226
0
LINE
8
BLACK
6
CONTINUOUS
10
0.373538
20
0.0681226
11
0.373484
21
0.0681762
0
LINE
8
BLACK
6
CONTINUOUS
10
0.373484
20
0.0681762
11
0.373009
21
0.0689997
0
LINE
8
BLACK
6
CONTINUOUS
10
0.373009
20
0.0689997
11
0.372378
21
0.0697111
0
LINE
8
BLACK
6
CONTINUOUS
10
0.372378
20
0.0697111
11
0.369566
21
0.0753354
0
LINE
8
BLACK
6
CONTINUOUS
10
0.369566
20
0.0753354
11
0.369294
21
0.0766653
0
LINE
8
BLACK
6
CONTINUOUS
10
0.369294
20
0.0766653
11
0.368943
21
0.0779764
0
LINE
8
BLACK
6
CONTINUOUS
10
0.368943
20
0.0779764
11
0.368943
21
0.0836007
0
LINE
8
BLACK
6
CONTINUOUS
10
0.368943
20
0.0836007
11
0.369294
21
0.0849118
0
LINE
8
BLACK
6
CONTINUOUS
10
0.369294
20
0.0849118
11
0.369566
21
0.0862417
0
LINE
8
BLACK
6
CONTINUOUS
10
0.369566
20
0.0862417
11
0.372378
21
0.091866
0
LINE
8
BLACK
6
CONTINUOUS
10
0.372378
20
0.091866
11
0.373009
21
0.0925774
0
LINE
8
BLACK
6
CONTINUOUS
10
0.373009
20
0.0925774
11
0.373484
21
0.0934009
0
LINE
8
BLACK
6
CONTINUOUS
10
0.373484
20
0.0934009
11
0.376297
21
0.096213
0
LINE
8
BLACK
6
CONTINUOUS
10
0.376297
20
0.096213
11
0.37712
21
0.0966884
0
LINE
8
BLACK
6
CONTINUOUS
10
0.37712
20
0.0966884
11
0.377831
21
0.0973192
0
LINE
8
BLACK
6
CONTINUOUS
10
0.377831
20
0.0973192
11
0.383456
21
0.100131
0
LINE
8
BLACK
6
CONTINUOUS
10
0.383456
20
0.100131
11
0.384786
21
0.100404
0
LINE
8
BLACK
6
CONTINUOUS
10
0.384786
20
0.100404
11
0.386097
21
0.100755
0
LINE
8
BLACK
6
CONTINUOUS
10
0.386097
20
0.100755
11
0.405782
21
0.100755
0
LINE
8
BLACK
6
CONTINUOUS
10
0.405782
20
0.100755
11
0.408735
21
0.0999636
0
LINE
8
BLACK
6
CONTINUOUS
10
0.38085
20
0.0587541
11
0.379702
21
0.0576053
0
LINE
8
BLACK
6
CONTINUOUS
10
0.379702
20
0.0576053
11
0.377941
21
0.0540852
0
LINE
8
BLACK
6
CONTINUOUS
10
0.377941
20
0.0540852
11
0.377941
21
0.0484369
0
LINE
8
BLACK
6
CONTINUOUS
10
0.377941
20
0.0484369
11
0.379702
21
0.0449167
0
LINE
8
BLACK
6
CONTINUOUS
10
0.379702
20
0.0449167
11
0.381158
21
0.0434598
0
LINE
8
BLACK
6
CONTINUOUS
10
0.381158
20
0.0434598
11
0.384679
21
0.0416997
0
LINE
8
BLACK
6
CONTINUOUS
10
0.384679
20
0.0416997
11
0.399876
21
0.0416997
0
LINE
8
BLACK
6
CONTINUOUS
10
0.399876
20
0.0416997
11
0.399876
21
0.0608223
0
LINE
8
BLACK
6
CONTINUOUS
10
0.399876
20
0.0608223
11
0.387055
21
0.0608223
0
LINE
8
BLACK
6
CONTINUOUS
10
0.387055
20
0.0608223
11
0.38085
21
0.0587541
0
LINE
8
BLACK
6
CONTINUOUS
10
0.383971
20
0.0871837
11
0.382514
21
0.0857269
0
LINE
8
BLACK
6
CONTINUOUS
10
0.382514
20
0.0857269
11
0.380754
21
0.0822066
0
LINE
8
BLACK
6
CONTINUOUS
10
0.380754
20
0.0822066
11
0.380754
21
0.0793705
0
LINE
8
BLACK
6
CONTINUOUS
10
0.380754
20
0.0793705
11
0.382514
21
0.0758503
0
LINE
8
BLACK
6
CONTINUOUS
10
0.382514
20
0.0758503
11
0.383971
21
0.0743935
0
LINE
8
BLACK
6
CONTINUOUS
10
0.383971
20
0.0743935
11
0.387491
21
0.0726333
0
LINE
8
BLACK
6
CONTINUOUS
10
0.387491
20
0.0726333
11
0.399876
21
0.0726333
0
LINE
8
BLACK
6
CONTINUOUS
10
0.399876
20
0.0726333
11
0.399876
21
0.0889438
0
LINE
8
BLACK
6
CONTINUOUS
10
0.399876
20
0.0889438
11
0.387491
21
0.0889438
0
LINE
8
BLACK
6
CONTINUOUS
10
0.387491
20
0.0889438
11
0.383971
21
0.0871837
0
LINE
8
BLACK
6
CONTINUOUS
10
0.50716
20
0.0999636
11
0.509321
21
0.097802
0
LINE
8
BLACK
6
CONTINUOUS
10
0.509321
20
0.097802
11
0.510112
21
0.0948493
0
LINE
8
BLACK
6
CONTINUOUS
10
0.510112
20
0.0948493
11
0.510112
21
0.0357942
0
LINE
8
BLACK
6
CONTINUOUS
10
0.510112
20
0.0357942
11
0.509321
21
0.0328414
0
LINE
8
BLACK
6
CONTINUOUS
10
0.509321
20
0.0328414
11
0.50716
21
0.0306798
0
LINE
8
BLACK
6
CONTINUOUS
10
0.50716
20
0.0306798
11
0.504207
21
0.0298887
0
LINE
8
BLACK
6
CONTINUOUS
10
0.504207
20
0.0298887
11
0.476085
21
0.0298887
0
LINE
8
BLACK
6
CONTINUOUS
10
0.476085
20
0.0298887
11
0.473133
21
0.0306798
0
LINE
8
BLACK
6
CONTINUOUS
10
0.473133
20
0.0306798
11
0.470971
21
0.0328414
0
LINE
8
BLACK
6
CONTINUOUS
10
0.470971
20
0.0328414
11
0.470541
21
0.0344471
0
LINE
8
BLACK
6
CONTINUOUS
10
0.470541
20
0.0344471
11
0.469255
21
0.031876
0
LINE
8
BLACK
6
CONTINUOUS
10
0.469255
20
0.031876
11
0.466704
21
0.0301917
0
LINE
8
BLACK
6
CONTINUOUS
10
0.466704
20
0.0301917
11
0.463653
21
0.0300085
0
LINE
8
BLACK
6
CONTINUOUS
10
0.463653
20
0.0300085
11
0.460919
21
0.0313756
0
LINE
8
BLACK
6
CONTINUOUS
10
0.460919
20
0.0313756
11
0.459234
21
0.0339267
0
LINE
8
BLACK
6
CONTINUOUS
10
0.459234
20
0.0339267
11
0.454956
21
0.0467615
0
LINE
8
BLACK
6
CONTINUOUS
10
0.454956
20
0.0467615
11
0.435348
21
0.0467615
0
LINE
8
BLACK
6
CONTINUOUS
10
0.435348
20
0.0467615
11
0.431069
21
0.0339267
0
LINE
8
BLACK
6
CONTINUOUS
10
0.431069
20
0.0339267
11
0.429385
21
0.0313757
0
LINE
8
BLACK
6
CONTINUOUS
10
0.429385
20
0.0313757
11
0.426651
21
0.0300085
0
LINE
8
BLACK
6
CONTINUOUS
10
0.426651
20
0.0300085
11
0.423599
21
0.0301917
0
LINE
8
BLACK
6
CONTINUOUS
10
0.423599
20
0.0301917
11
0.421048
21
0.031876
0
LINE
8
BLACK
6
CONTINUOUS
10
0.421048
20
0.031876
11
0.419681
21
0.0346102
0
LINE
8
BLACK
6
CONTINUOUS
10
0.419681
20
0.0346102
11
0.419864
21
0.0376617
0
LINE
8
BLACK
6
CONTINUOUS
10
0.419864
20
0.0376617
11
0.439549
21
0.0967168
0
LINE
8
BLACK
6
CONTINUOUS
10
0.439549
20
0.0967168
11
0.440203
21
0.0977066
0
LINE
8
BLACK
6
CONTINUOUS
10
0.440203
20
0.0977066
11
0.440733
21
0.0987674
0
LINE
8
BLACK
6
CONTINUOUS
10
0.440733
20
0.0987674
11
0.441035
21
0.0989664
0
LINE
8
BLACK
6
CONTINUOUS
10
0.441035
20
0.0989664
11
0.441234
21
0.0992678
0
LINE
8
BLACK
6
CONTINUOUS
10
0.441234
20
0.0992678
11
0.442295
21
0.0997984
0
LINE
8
BLACK
6
CONTINUOUS
10
0.442295
20
0.0997984
11
0.443284
21
0.100452
0
LINE
8
BLACK
6
CONTINUOUS
10
0.443284
20
0.100452
11
0.443645
21
0.100473
0
LINE
8
BLACK
6
CONTINUOUS
10
0.443645
20
0.100473
11
0.443968
21
0.100635
0
LINE
8
BLACK
6
CONTINUOUS
10
0.443968
20
0.100635
11
0.445152
21
0.100564
0
LINE
8
BLACK
6
CONTINUOUS
10
0.445152
20
0.100564
11
0.446336
21
0.100635
0
LINE
8
BLACK
6
CONTINUOUS
10
0.446336
20
0.100635
11
0.446659
21
0.100473
0
LINE
8
BLACK
6
CONTINUOUS
10
0.446659
20
0.100473
11
0.447019
21
0.100452
0
LINE
8
BLACK
6
CONTINUOUS
10
0.447019
20
0.100452
11
0.448009
21
0.0997982
0
LINE
8
BLACK
6
CONTINUOUS
10
0.448009
20
0.0997982
11
0.44907
21
0.0992678
0
LINE
8
BLACK
6
CONTINUOUS
10
0.44907
20
0.0992678
11
0.449269
21
0.0989665
0
LINE
8
BLACK
6
CONTINUOUS
10
0.449269
20
0.0989665
11
0.44957
21
0.0987674
0
LINE
8
BLACK
6
CONTINUOUS
10
0.44957
20
0.0987674
11
0.450101
21
0.0977064
0
LINE
8
BLACK
6
CONTINUOUS
10
0.450101
20
0.0977064
11
0.450754
21
0.0967168
0
LINE
8
BLACK
6
CONTINUOUS
10
0.450754
20
0.0967168
11
0.470439
21
0.0376617
0
LINE
8
BLACK
6
CONTINUOUS
10
0.470439
20
0.0376617
11
0.470483
21
0.0369268
0
LINE
8
BLACK
6
CONTINUOUS
10
0.470483
20
0.0369268
11
0.470971
21
0.0387469
0
LINE
8
BLACK
6
CONTINUOUS
10
0.470971
20
0.0387469
11
0.473133
21
0.0409085
0
LINE
8
BLACK
6
CONTINUOUS
10
0.473133
20
0.0409085
11
0.476085
21
0.0416997
0
LINE
8
BLACK
6
CONTINUOUS
10
0.476085
20
0.0416997
11
0.498301
21
0.0416997
0
LINE
8
BLACK
6
CONTINUOUS
10
0.498301
20
0.0416997
11
0.498301
21
0.0948493
0
LINE
8
BLACK
6
CONTINUOUS
10
0.498301
20
0.0948493
11
0.499093
21
0.097802
0
LINE
8
BLACK
6
CONTINUOUS
10
0.499093
20
0.097802
11
0.501254
21
0.0999636
0
LINE
8
BLACK
6
CONTINUOUS
10
0.501254
20
0.0999636
11
0.504207
21
0.100755
0
LINE
8
BLACK
6
CONTINUOUS
10
0.504207
20
0.100755
11
0.50716
21
0.0999636
0
LINE
8
BLACK
6
CONTINUOUS
10
0.439285
20
0.0585726
11
0.451019
21
0.0585726
0
LINE
8
BLACK
6
CONTINUOUS
10
0.451019
20
0.0585726
11
0.445152
21
0.0761744
0
LINE
8
BLACK
6
CONTINUOUS
10
0.445152
20
0.0761744
11
0.439285
21
0.0585726
0
LINE
8
BLACK
6
CONTINUOUS
10
0.572935
20
0.100424
11
0.574196
21
0.100201
0
LINE
8
BLACK
6
CONTINUOUS
10
0.574196
20
0.100201
11
0.574397
21
0.100032
0
LINE
8
BLACK
6
CONTINUOUS
10
0.574397
20
0.100032
11
0.574651
21
0.0999636
0
LINE
8
BLACK
6
CONTINUOUS
10
0.574651
20
0.0999636
11
0.575556
21
0.0990585
0
LINE
8
BLACK
6
CONTINUOUS
10
0.575556
20
0.0990585
11
0.576537
21
0.0982352
0
LINE
8
BLACK
6
CONTINUOUS
10
0.576537
20
0.0982352
11
0.576627
21
0.097988
0
LINE
8
BLACK
6
CONTINUOUS
10
0.576627
20
0.097988
11
0.576813
21
0.097802
0
LINE
8
BLACK
6
CONTINUOUS
10
0.576813
20
0.097802
11
0.577144
21
0.0965655
0
LINE
8
BLACK
6
CONTINUOUS
10
0.577144
20
0.0965655
11
0.577582
21
0.0953623
0
LINE
8
BLACK
6
CONTINUOUS
10
0.577582
20
0.0953623
11
0.577536
21
0.0951033
0
LINE
8
BLACK
6
CONTINUOUS
10
0.577536
20
0.0951033
11
0.577604
21
0.0948493
0
LINE
8
BLACK
6
CONTINUOUS
10
0.577604
20
0.0948493
11
0.577604
21
0.0357942
0
LINE
8
BLACK
6
CONTINUOUS
10
0.577604
20
0.0357942
11
0.576813
21
0.0328414
0
LINE
8
BLACK
6
CONTINUOUS
10
0.576813
20
0.0328414
11
0.574651
21
0.0306798
0
LINE
8
BLACK
6
CONTINUOUS
10
0.574651
20
0.0306798
11
0.571699
21
0.0298887
0
LINE
8
BLACK
6
CONTINUOUS
10
0.571699
20
0.0298887
11
0.568746
21
0.0306798
0
LINE
8
BLACK
6
CONTINUOUS
10
0.568746
20
0.0306798
11
0.566584
21
0.0328414
0
LINE
8
BLACK
6
CONTINUOUS
10
0.566584
20
0.0328414
11
0.565793
21
0.0357942
0
LINE
8
BLACK
6
CONTINUOUS
10
0.565793
20
0.0357942
11
0.565793
21
0.0682298
0
LINE
8
BLACK
6
CONTINUOUS
10
0.565793
20
0.0682298
11
0.557365
21
0.0501697
0
LINE
8
BLACK
6
CONTINUOUS
10
0.557365
20
0.0501697
11
0.55703
21
0.0497708
0
LINE
8
BLACK
6
CONTINUOUS
10
0.55703
20
0.0497708
11
0.556852
21
0.0492812
0
LINE
8
BLACK
6
CONTINUOUS
10
0.556852
20
0.0492812
11
0.556062
21
0.0486181
0
LINE
8
BLACK
6
CONTINUOUS
10
0.556062
20
0.0486181
11
0.555399
21
0.0478285
0
LINE
8
BLACK
6
CONTINUOUS
10
0.555399
20
0.0478285
11
0.55491
21
0.0476506
0
LINE
8
BLACK
6
CONTINUOUS
10
0.55491
20
0.0476506
11
0.554511
21
0.0473156
0
LINE
8
BLACK
6
CONTINUOUS
10
0.554511
20
0.0473156
11
0.553495
21
0.0471362
0
LINE
8
BLACK
6
CONTINUOUS
10
0.553495
20
0.0471362
11
0.552526
21
0.0467839
0
LINE
8
BLACK
6
CONTINUOUS
10
0.552526
20
0.0467839
11
0.552014
21
0.0468744
0
LINE
8
BLACK
6
CONTINUOUS
10
0.552014
20
0.0468744
11
0.551501
21
0.0467838
0
LINE
8
BLACK
6
CONTINUOUS
10
0.551501
20
0.0467838
11
0.550531
21
0.0471363
0
LINE
8
BLACK
6
CONTINUOUS
10
0.550531
20
0.0471363
11
0.549516
21
0.0473156
0
LINE
8
BLACK
6
CONTINUOUS
10
0.549516
20
0.0473156
11
0.549117
21
0.0476505
0
LINE
8
BLACK
6
CONTINUOUS
10
0.549117
20
0.0476505
11
0.548628
21
0.0478285
0
LINE
8
BLACK
6
CONTINUOUS
10
0.548628
20
0.0478285
11
0.547965
21
0.0486183
0
LINE
8
BLACK
6
CONTINUOUS
10
0.547965
20
0.0486183
11
0.547175
21
0.0492812
0
LINE
8
BLACK
6
CONTINUOUS
10
0.547175
20
0.0492812
11
0.546997
21
0.0497708
0
LINE
8
BLACK
6
CONTINUOUS
10
0.546997
20
0.0497708
11
0.546662
21
0.0501697
0
LINE
8
BLACK
6
CONTINUOUS
10
0.546662
20
0.0501697
11
0.538234
21
0.0682299
0
LINE
8
BLACK
6
CONTINUOUS
10
0.538234
20
0.0682299
11
0.538234
21
0.0357942
0
LINE
8
BLACK
6
CONTINUOUS
10
0.538234
20
0.0357942
11
0.537443
21
0.0328414
0
LINE
8
BLACK
6
CONTINUOUS
10
0.537443
20
0.0328414
11
0.535281
21
0.0306798
0
LINE
8
BLACK
6
CONTINUOUS
10
0.535281
20
0.0306798
11
0.532328
21
0.0298887
0
LINE
8
BLACK
6
CONTINUOUS
10
0.532328
20
0.0298887
11
0.529376
21
0.0306798
0
LINE
8
BLACK
6
CONTINUOUS
10
0.529376
20
0.0306798
11
0.527214
21
0.0328414
0
LINE
8
BLACK
6
CONTINUOUS
10
0.527214
20
0.0328414
11
0.526423
21
0.0357942
0
LINE
8
BLACK
6
CONTINUOUS
10
0.526423
20
0.0357942
11
0.526423
21
0.0948493
0
LINE
8
BLACK
6
CONTINUOUS
10
0.526423
20
0.0948493
11
0.526491
21
0.0951033
0
LINE
8
BLACK
6
CONTINUOUS
10
0.526491
20
0.0951033
11
0.526445
21
0.0953622
0
LINE
8
BLACK
6
CONTINUOUS
10
0.526445
20
0.0953622
11
0.526883
21
0.0965653
0
LINE
8
BLACK
6
CONTINUOUS
10
0.526883
20
0.0965653
11
0.527214
21
0.097802
0
LINE
8
BLACK
6
CONTINUOUS
10
0.527214
20
0.097802
11
0.5274
21
0.097988
0
LINE
8
BLACK
6
CONTINUOUS
10
0.5274
20
0.097988
11
0.52749
21
0.0982351
0
LINE
8
BLACK
6
CONTINUOUS
10
0.52749
20
0.0982351
11
0.52847
21
0.0990582
0
LINE
8
BLACK
6
CONTINUOUS
10
0.52847
20
0.0990582
11
0.529376
21
0.0999636
0
LINE
8
BLACK
6
CONTINUOUS
10
0.529376
20
0.0999636
11
0.52963
21
0.100032
0
LINE
8
BLACK
6
CONTINUOUS
10
0.52963
20
0.100032
11
0.529831
21
0.100201
0
LINE
8
BLACK
6
CONTINUOUS
10
0.529831
20
0.100201
11
0.531092
21
0.100423
0
LINE
8
BLACK
6
CONTINUOUS
10
0.531092
20
0.100423
11
0.532328
21
0.100755
0
LINE
8
BLACK
6
CONTINUOUS
10
0.532328
20
0.100755
11
0.532582
21
0.100687
0
LINE
8
BLACK
6
CONTINUOUS
10
0.532582
20
0.100687
11
0.532841
21
0.100732
0
LINE
8
BLACK
6
CONTINUOUS
10
0.532841
20
0.100732
11
0.534044
21
0.100295
0
LINE
8
BLACK
6
CONTINUOUS
10
0.534044
20
0.100295
11
0.535281
21
0.0999636
0
LINE
8
BLACK
6
CONTINUOUS
10
0.535281
20
0.0999636
11
0.535467
21
0.0997777
0
LINE
8
BLACK
6
CONTINUOUS
10
0.535467
20
0.0997777
11
0.535714
21
0.0996878
0
LINE
8
BLACK
6
CONTINUOUS
10
0.535714
20
0.0996878
11
0.536537
21
0.0987075
0
LINE
8
BLACK
6
CONTINUOUS
10
0.536537
20
0.0987075
11
0.537443
21
0.097802
0
LINE
8
BLACK
6
CONTINUOUS
10
0.537443
20
0.097802
11
0.537511
21
0.097548
0
LINE
8
BLACK
6
CONTINUOUS
10
0.537511
20
0.097548
11
0.53768
21
0.0973467
0
LINE
8
BLACK
6
CONTINUOUS
10
0.53768
20
0.0973467
11
0.552014
21
0.0666319
0
LINE
8
BLACK
6
CONTINUOUS
10
0.552014
20
0.0666319
11
0.566347
21
0.0973467
0
LINE
8
BLACK
6
CONTINUOUS
10
0.566347
20
0.0973467
11
0.566516
21
0.097548
0
LINE
8
BLACK
6
CONTINUOUS
10
0.566516
20
0.097548
11
0.566584
21
0.097802
0
LINE
8
BLACK
6
CONTINUOUS
10
0.566584
20
0.097802
11
0.567489
21
0.0987074
0
LINE
8
BLACK
6
CONTINUOUS
10
0.567489
20
0.0987074
11
0.568313
21
0.0996878
0
LINE
8
BLACK
6
CONTINUOUS
10
0.568313
20
0.0996878
11
0.56856
21
0.0997777
0
LINE
8
BLACK
6
CONTINUOUS
10
0.56856
20
0.0997777
11
0.568746
21
0.0999636
0
LINE
8
BLACK
6
CONTINUOUS
10
0.568746
20
0.0999636
11
0.569982
21
0.100295
0
LINE
8
BLACK
6
CONTINUOUS
10
0.569982
20
0.100295
11
0.571186
21
0.100733
0
LINE
8
BLACK
6
CONTINUOUS
10
0.571186
20
0.100733
11
0.571445
21
0.100687
0
LINE
8
BLACK
6
CONTINUOUS
10
0.571445
20
0.100687
11
0.571699
21
0.100755
0
LINE
8
BLACK
6
CONTINUOUS
10
0.571699
20
0.100755
11
0.572935
21
0.100424
0
CIRCLE
8
BLACK
10
0
20
0
40
0.00688976
0
CIRCLE
8
BLACK
10
1.6
20
0
40
0.00688976
0
CIRCLE
8
BLACK
10
0
20
-0.8
40
0.00688976
0
CIRCLE
8
BLACK
10
1.6
20
-0.8
40
0.00688976
0
CIRCLE
8
BLACK
10
-0.0318898
20
-0.234252
40
0.00688976
0
CIRCLE
8
BLACK
10
-0.0318898
20
-0.334252
40
0.00688976
  0
ENDSEC
  0
EOF
