  0
SECTION
  2
HEADER
  9
$ANGBASE
  50
0.0
  9
$ANGDIR
  70
1
  9
$MEASUREMENT
  70
0
  0
ENDSEC
  0
SECTION
  2
TABLES
  0
TABLE
  2
LTYPE
  70
4
  0
LTYPE
  5
40F
  2
CONTINUOUS
  70
0
  3
Solid line
  72
65
  73
0
  40
0.0
  0
LTYPE
  5
410
  2
DASHDOT
 70
0
  3
Dash Dot ____ _ ____ _
 72
65
 73
4
 40
2.0
 49
1.25
 49
-0.25
 49
0.25
 49
-0.25
  0
LTYPE
  5
411
  2
DASHED
 70
0
  3
Dashed __ __ __ __ __
 72
65
 73
2
 40
0.75
 49
0.5
 49
-0.25
  0
LTYPE
  5
43B
  2
DOTTED
 70
0
  3
Dotted .  .  .  .
 72
65
 73
2
 40
0.2
 49
0.0
 49
-0.2
  0
ENDTAB
  0
TABLE
  2
STYLE
  70
4
  0
STYLE
  2
KICAD
  70
0
  40
0
  41
1
  42
1
  50
0
  71
0
  3
isocp.shx
  0
STYLE
  2
KICADB
  70
0
  40
0
  41
1
  42
1
  50
0
  71
0
  3
isocp.shx
  0
STYLE
  2
KICADI
  70
0
  40
0
  41
1
  42
1
  50
15
  71
0
  3
isocp.shx
  0
STYLE
  2
KICADBI
  70
0
  40
0
  41
1
  42
1
  50
15
  71
0
  3
isocp.shx
  0
ENDTAB
  0
TABLE
  2
LAYER
  70
1
  0
LAYER
  2
BLACK
  70
0
  62
7
  6
CONTINUOUS
  0
ENDTAB
  0
ENDSEC
  0
SECTION
  2
ENTITIES
0
LINE
8
BLACK
6
CONTINUOUS
10
5.75629
20
-3.0916
11
5.75642
21
-3.09158
0
LINE
8
BLACK
6
CONTINUOUS
10
5.75642
20
-3.09158
11
5.75653
21
-3.09165
0
LINE
8
BLACK
6
CONTINUOUS
10
5.75653
20
-3.09165
11
5.75692
21
-3.09171
0
LINE
8
BLACK
6
CONTINUOUS
10
5.75692
20
-3.09171
11
5.7575
21
-3.09221
0
LINE
8
BLACK
6
CONTINUOUS
10
5.7575
20
-3.09221
11
5.75817
21
-3.09259
0
LINE
8
BLACK
6
CONTINUOUS
10
5.75817
20
-3.09259
11
5.75826
21
-3.09284
0
LINE
8
BLACK
6
CONTINUOUS
10
5.75826
20
-3.09284
11
5.75846
21
-3.09301
0
LINE
8
BLACK
6
CONTINUOUS
10
5.75846
20
-3.09301
11
5.7586
21
-3.09377
0
LINE
8
BLACK
6
CONTINUOUS
10
5.7586
20
-3.09377
11
5.75886
21
-3.09449
0
LINE
8
BLACK
6
CONTINUOUS
10
5.75886
20
-3.09449
11
5.75886
21
-3.55906
0
LINE
8
BLACK
6
CONTINUOUS
10
5.75886
20
-3.55906
11
5.75879
21
-3.55944
0
LINE
8
BLACK
6
CONTINUOUS
10
5.75879
20
-3.55944
11
5.75881
21
-3.55957
0
LINE
8
BLACK
6
CONTINUOUS
10
5.75881
20
-3.55957
11
5.75875
21
-3.55968
0
LINE
8
BLACK
6
CONTINUOUS
10
5.75875
20
-3.55968
11
5.75868
21
-3.56007
0
LINE
8
BLACK
6
CONTINUOUS
10
5.75868
20
-3.56007
11
5.75819
21
-3.56065
0
LINE
8
BLACK
6
CONTINUOUS
10
5.75819
20
-3.56065
11
5.7578
21
-3.56132
0
LINE
8
BLACK
6
CONTINUOUS
10
5.7578
20
-3.56132
11
5.75755
21
-3.56141
0
LINE
8
BLACK
6
CONTINUOUS
10
5.75755
20
-3.56141
11
5.75738
21
-3.56161
0
LINE
8
BLACK
6
CONTINUOUS
10
5.75738
20
-3.56161
11
5.75663
21
-3.56175
0
LINE
8
BLACK
6
CONTINUOUS
10
5.75663
20
-3.56175
11
5.75591
21
-3.56201
0
LINE
8
BLACK
6
CONTINUOUS
10
5.75591
20
-3.56201
11
5.30709
21
-3.56201
0
LINE
8
BLACK
6
CONTINUOUS
10
5.30709
20
-3.56201
11
5.3067
21
-3.56194
0
LINE
8
BLACK
6
CONTINUOUS
10
5.3067
20
-3.56194
11
5.30657
21
-3.56196
0
LINE
8
BLACK
6
CONTINUOUS
10
5.30657
20
-3.56196
11
5.30646
21
-3.5619
0
LINE
8
BLACK
6
CONTINUOUS
10
5.30646
20
-3.5619
11
5.30608
21
-3.56183
0
LINE
8
BLACK
6
CONTINUOUS
10
5.30608
20
-3.56183
11
5.30549
21
-3.56134
0
LINE
8
BLACK
6
CONTINUOUS
10
5.30549
20
-3.56134
11
5.30482
21
-3.56095
0
LINE
8
BLACK
6
CONTINUOUS
10
5.30482
20
-3.56095
11
5.30473
21
-3.5607
0
LINE
8
BLACK
6
CONTINUOUS
10
5.30473
20
-3.5607
11
5.30453
21
-3.56053
0
LINE
8
BLACK
6
CONTINUOUS
10
5.30453
20
-3.56053
11
5.3044
21
-3.55978
0
LINE
8
BLACK
6
CONTINUOUS
10
5.3044
20
-3.55978
11
5.30413
21
-3.55906
0
LINE
8
BLACK
6
CONTINUOUS
10
5.30413
20
-3.55906
11
5.30413
21
-3.09449
0
LINE
8
BLACK
6
CONTINUOUS
10
5.30413
20
-3.09449
11
5.3042
21
-3.0941
0
LINE
8
BLACK
6
CONTINUOUS
10
5.3042
20
-3.0941
11
5.30418
21
-3.09398
0
LINE
8
BLACK
6
CONTINUOUS
10
5.30418
20
-3.09398
11
5.30424
21
-3.09386
0
LINE
8
BLACK
6
CONTINUOUS
10
5.30424
20
-3.09386
11
5.30431
21
-3.09348
0
LINE
8
BLACK
6
CONTINUOUS
10
5.30431
20
-3.09348
11
5.30481
21
-3.09289
0
LINE
8
BLACK
6
CONTINUOUS
10
5.30481
20
-3.09289
11
5.30519
21
-3.09223
0
LINE
8
BLACK
6
CONTINUOUS
10
5.30519
20
-3.09223
11
5.30544
21
-3.09214
0
LINE
8
BLACK
6
CONTINUOUS
10
5.30544
20
-3.09214
11
5.30561
21
-3.09193
0
LINE
8
BLACK
6
CONTINUOUS
10
5.30561
20
-3.09193
11
5.30637
21
-3.0918
0
LINE
8
BLACK
6
CONTINUOUS
10
5.30637
20
-3.0918
11
5.30709
21
-3.09154
0
LINE
8
BLACK
6
CONTINUOUS
10
5.30709
20
-3.09154
11
5.75591
21
-3.09154
0
LINE
8
BLACK
6
CONTINUOUS
10
5.75591
20
-3.09154
11
5.75629
21
-3.0916
  0
ENDSEC
  0
EOF
