  0
SECTION
  2
HEADER
  9
$ANGBASE
  50
0.0
  9
$ANGDIR
  70
1
  9
$MEASUREMENT
  70
0
  0
ENDSEC
  0
SECTION
  2
TABLES
  0
TABLE
  2
LTYPE
  70
4
  0
LTYPE
  5
40F
  2
CONTINUOUS
  70
0
  3
Solid line
  72
65
  73
0
  40
0.0
  0
LTYPE
  5
410
  2
DASHDOT
 70
0
  3
Dash Dot ____ _ ____ _
 72
65
 73
4
 40
2.0
 49
1.25
 49
-0.25
 49
0.25
 49
-0.25
  0
LTYPE
  5
411
  2
DASHED
 70
0
  3
Dashed __ __ __ __ __
 72
65
 73
2
 40
0.75
 49
0.5
 49
-0.25
  0
LTYPE
  5
43B
  2
DOTTED
 70
0
  3
Dotted .  .  .  .
 72
65
 73
2
 40
0.2
 49
0.0
 49
-0.2
  0
ENDTAB
  0
TABLE
  2
STYLE
  70
4
  0
STYLE
  2
KICAD
  70
0
  40
0
  41
1
  42
1
  50
0
  71
0
  3
isocp.shx
  0
STYLE
  2
KICADB
  70
0
  40
0
  41
1
  42
1
  50
0
  71
0
  3
isocp.shx
  0
STYLE
  2
KICADI
  70
0
  40
0
  41
1
  42
1
  50
15
  71
0
  3
isocp.shx
  0
STYLE
  2
KICADBI
  70
0
  40
0
  41
1
  42
1
  50
15
  71
0
  3
isocp.shx
  0
ENDTAB
  0
TABLE
  2
LAYER
  70
1
  0
LAYER
  2
BLACK
  70
0
  62
7
  6
CONTINUOUS
  0
ENDTAB
  0
ENDSEC
  0
SECTION
  2
ENTITIES
0
LINE
8
BLACK
6
CONTINUOUS
10
4.72796
20
-3.0206
11
4.72783
21
-3.02062
0
LINE
8
BLACK
6
CONTINUOUS
10
4.72783
20
-3.02062
11
4.72772
21
-3.02056
0
LINE
8
BLACK
6
CONTINUOUS
10
4.72772
20
-3.02056
11
4.72734
21
-3.02049
0
LINE
8
BLACK
6
CONTINUOUS
10
4.72734
20
-3.02049
11
4.72675
21
-3.02
0
LINE
8
BLACK
6
CONTINUOUS
10
4.72675
20
-3.02
11
4.72608
21
-3.01961
0
LINE
8
BLACK
6
CONTINUOUS
10
4.72608
20
-3.01961
11
4.72599
21
-3.01936
0
LINE
8
BLACK
6
CONTINUOUS
10
4.72599
20
-3.01936
11
4.72579
21
-3.01919
0
LINE
8
BLACK
6
CONTINUOUS
10
4.72579
20
-3.01919
11
4.72566
21
-3.01844
0
LINE
8
BLACK
6
CONTINUOUS
10
4.72566
20
-3.01844
11
4.72539
21
-3.01772
0
LINE
8
BLACK
6
CONTINUOUS
10
4.72539
20
-3.01772
11
4.72539
21
-2.97835
0
LINE
8
BLACK
6
CONTINUOUS
10
4.72539
20
-2.97835
11
4.72546
21
-2.97796
0
LINE
8
BLACK
6
CONTINUOUS
10
4.72546
20
-2.97796
11
4.72544
21
-2.97783
0
LINE
8
BLACK
6
CONTINUOUS
10
4.72544
20
-2.97783
11
4.7255
21
-2.97772
0
LINE
8
BLACK
6
CONTINUOUS
10
4.7255
20
-2.97772
11
4.72557
21
-2.97734
0
LINE
8
BLACK
6
CONTINUOUS
10
4.72557
20
-2.97734
11
4.72606
21
-2.97675
0
LINE
8
BLACK
6
CONTINUOUS
10
4.72606
20
-2.97675
11
4.72645
21
-2.97608
0
LINE
8
BLACK
6
CONTINUOUS
10
4.72645
20
-2.97608
11
4.7267
21
-2.97599
0
LINE
8
BLACK
6
CONTINUOUS
10
4.7267
20
-2.97599
11
4.72687
21
-2.97579
0
LINE
8
BLACK
6
CONTINUOUS
10
4.72687
20
-2.97579
11
4.72763
21
-2.97566
0
LINE
8
BLACK
6
CONTINUOUS
10
4.72763
20
-2.97566
11
4.72835
21
-2.97539
0
LINE
8
BLACK
6
CONTINUOUS
10
4.72835
20
-2.97539
11
4.75098
21
-2.97539
0
LINE
8
BLACK
6
CONTINUOUS
10
4.75098
20
-2.97539
11
4.75098
21
-2.95866
0
LINE
8
BLACK
6
CONTINUOUS
10
4.75098
20
-2.95866
11
4.75105
21
-2.95828
0
LINE
8
BLACK
6
CONTINUOUS
10
4.75105
20
-2.95828
11
4.75103
21
-2.95815
0
LINE
8
BLACK
6
CONTINUOUS
10
4.75103
20
-2.95815
11
4.75109
21
-2.95804
0
LINE
8
BLACK
6
CONTINUOUS
10
4.75109
20
-2.95804
11
4.75116
21
-2.95765
0
LINE
8
BLACK
6
CONTINUOUS
10
4.75116
20
-2.95765
11
4.75166
21
-2.95706
0
LINE
8
BLACK
6
CONTINUOUS
10
4.75166
20
-2.95706
11
4.75204
21
-2.9564
0
LINE
8
BLACK
6
CONTINUOUS
10
4.75204
20
-2.9564
11
4.75229
21
-2.95631
0
LINE
8
BLACK
6
CONTINUOUS
10
4.75229
20
-2.95631
11
4.75246
21
-2.9561
0
LINE
8
BLACK
6
CONTINUOUS
10
4.75246
20
-2.9561
11
4.75322
21
-2.95597
0
LINE
8
BLACK
6
CONTINUOUS
10
4.75322
20
-2.95597
11
4.75394
21
-2.95571
0
LINE
8
BLACK
6
CONTINUOUS
10
4.75394
20
-2.95571
11
4.85236
21
-2.95571
0
LINE
8
BLACK
6
CONTINUOUS
10
4.85236
20
-2.95571
11
4.85275
21
-2.95578
0
LINE
8
BLACK
6
CONTINUOUS
10
4.85275
20
-2.95578
11
4.85287
21
-2.95575
0
LINE
8
BLACK
6
CONTINUOUS
10
4.85287
20
-2.95575
11
4.85299
21
-2.95582
0
LINE
8
BLACK
6
CONTINUOUS
10
4.85299
20
-2.95582
11
4.85337
21
-2.95589
0
LINE
8
BLACK
6
CONTINUOUS
10
4.85337
20
-2.95589
11
4.85396
21
-2.95638
0
LINE
8
BLACK
6
CONTINUOUS
10
4.85396
20
-2.95638
11
4.85462
21
-2.95676
0
LINE
8
BLACK
6
CONTINUOUS
10
4.85462
20
-2.95676
11
4.85472
21
-2.95701
0
LINE
8
BLACK
6
CONTINUOUS
10
4.85472
20
-2.95701
11
4.85492
21
-2.95719
0
LINE
8
BLACK
6
CONTINUOUS
10
4.85492
20
-2.95719
11
4.85505
21
-2.95794
0
LINE
8
BLACK
6
CONTINUOUS
10
4.85505
20
-2.95794
11
4.85531
21
-2.95866
0
LINE
8
BLACK
6
CONTINUOUS
10
4.85531
20
-2.95866
11
4.85531
21
-2.97539
0
LINE
8
BLACK
6
CONTINUOUS
10
4.85531
20
-2.97539
11
4.87795
21
-2.97539
0
LINE
8
BLACK
6
CONTINUOUS
10
4.87795
20
-2.97539
11
4.87834
21
-2.97546
0
LINE
8
BLACK
6
CONTINUOUS
10
4.87834
20
-2.97546
11
4.87847
21
-2.97544
0
LINE
8
BLACK
6
CONTINUOUS
10
4.87847
20
-2.97544
11
4.87858
21
-2.9755
0
LINE
8
BLACK
6
CONTINUOUS
10
4.87858
20
-2.9755
11
4.87896
21
-2.97557
0
LINE
8
BLACK
6
CONTINUOUS
10
4.87896
20
-2.97557
11
4.87955
21
-2.97606
0
LINE
8
BLACK
6
CONTINUOUS
10
4.87955
20
-2.97606
11
4.88021
21
-2.97645
0
LINE
8
BLACK
6
CONTINUOUS
10
4.88021
20
-2.97645
11
4.88031
21
-2.9767
0
LINE
8
BLACK
6
CONTINUOUS
10
4.88031
20
-2.9767
11
4.88051
21
-2.97687
0
LINE
8
BLACK
6
CONTINUOUS
10
4.88051
20
-2.97687
11
4.88064
21
-2.97763
0
LINE
8
BLACK
6
CONTINUOUS
10
4.88064
20
-2.97763
11
4.88091
21
-2.97835
0
LINE
8
BLACK
6
CONTINUOUS
10
4.88091
20
-2.97835
11
4.88091
21
-3.01772
0
LINE
8
BLACK
6
CONTINUOUS
10
4.88091
20
-3.01772
11
4.88084
21
-3.0181
0
LINE
8
BLACK
6
CONTINUOUS
10
4.88084
20
-3.0181
11
4.88086
21
-3.01823
0
LINE
8
BLACK
6
CONTINUOUS
10
4.88086
20
-3.01823
11
4.8808
21
-3.01834
0
LINE
8
BLACK
6
CONTINUOUS
10
4.8808
20
-3.01834
11
4.88073
21
-3.01873
0
LINE
8
BLACK
6
CONTINUOUS
10
4.88073
20
-3.01873
11
4.88023
21
-3.01931
0
LINE
8
BLACK
6
CONTINUOUS
10
4.88023
20
-3.01931
11
4.87985
21
-3.01998
0
LINE
8
BLACK
6
CONTINUOUS
10
4.87985
20
-3.01998
11
4.8796
21
-3.02007
0
LINE
8
BLACK
6
CONTINUOUS
10
4.8796
20
-3.02007
11
4.87943
21
-3.02027
0
LINE
8
BLACK
6
CONTINUOUS
10
4.87943
20
-3.02027
11
4.87867
21
-3.02041
0
LINE
8
BLACK
6
CONTINUOUS
10
4.87867
20
-3.02041
11
4.87795
21
-3.02067
0
LINE
8
BLACK
6
CONTINUOUS
10
4.87795
20
-3.02067
11
4.85531
21
-3.02067
0
LINE
8
BLACK
6
CONTINUOUS
10
4.85531
20
-3.02067
11
4.85531
21
-3.0374
0
LINE
8
BLACK
6
CONTINUOUS
10
4.85531
20
-3.0374
11
4.85525
21
-3.03779
0
LINE
8
BLACK
6
CONTINUOUS
10
4.85525
20
-3.03779
11
4.85527
21
-3.03791
0
LINE
8
BLACK
6
CONTINUOUS
10
4.85527
20
-3.03791
11
4.8552
21
-3.03803
0
LINE
8
BLACK
6
CONTINUOUS
10
4.8552
20
-3.03803
11
4.85514
21
-3.03841
0
LINE
8
BLACK
6
CONTINUOUS
10
4.85514
20
-3.03841
11
4.85464
21
-3.039
0
LINE
8
BLACK
6
CONTINUOUS
10
4.85464
20
-3.039
11
4.85426
21
-3.03966
0
LINE
8
BLACK
6
CONTINUOUS
10
4.85426
20
-3.03966
11
4.85401
21
-3.03975
0
LINE
8
BLACK
6
CONTINUOUS
10
4.85401
20
-3.03975
11
4.85384
21
-3.03996
0
LINE
8
BLACK
6
CONTINUOUS
10
4.85384
20
-3.03996
11
4.85308
21
-3.04009
0
LINE
8
BLACK
6
CONTINUOUS
10
4.85308
20
-3.04009
11
4.85236
21
-3.04035
0
LINE
8
BLACK
6
CONTINUOUS
10
4.85236
20
-3.04035
11
4.75394
21
-3.04035
0
LINE
8
BLACK
6
CONTINUOUS
10
4.75394
20
-3.04035
11
4.75355
21
-3.04029
0
LINE
8
BLACK
6
CONTINUOUS
10
4.75355
20
-3.04029
11
4.75342
21
-3.04031
0
LINE
8
BLACK
6
CONTINUOUS
10
4.75342
20
-3.04031
11
4.75331
21
-3.04024
0
LINE
8
BLACK
6
CONTINUOUS
10
4.75331
20
-3.04024
11
4.75293
21
-3.04018
0
LINE
8
BLACK
6
CONTINUOUS
10
4.75293
20
-3.04018
11
4.75234
21
-3.03968
0
LINE
8
BLACK
6
CONTINUOUS
10
4.75234
20
-3.03968
11
4.75168
21
-3.0393
0
LINE
8
BLACK
6
CONTINUOUS
10
4.75168
20
-3.0393
11
4.75158
21
-3.03905
0
LINE
8
BLACK
6
CONTINUOUS
10
4.75158
20
-3.03905
11
4.75138
21
-3.03888
0
LINE
8
BLACK
6
CONTINUOUS
10
4.75138
20
-3.03888
11
4.75125
21
-3.03812
0
LINE
8
BLACK
6
CONTINUOUS
10
4.75125
20
-3.03812
11
4.75098
21
-3.0374
0
LINE
8
BLACK
6
CONTINUOUS
10
4.75098
20
-3.0374
11
4.75098
21
-3.02067
0
LINE
8
BLACK
6
CONTINUOUS
10
4.75098
20
-3.02067
11
4.72835
21
-3.02067
0
LINE
8
BLACK
6
CONTINUOUS
10
4.72835
20
-3.02067
11
4.72796
21
-3.0206
0
LINE
8
BLACK
6
CONTINUOUS
10
4.75689
20
-3.02067
11
4.75689
21
-3.03445
0
LINE
8
BLACK
6
CONTINUOUS
10
4.75689
20
-3.03445
11
4.8002
21
-3.03445
0
LINE
8
BLACK
6
CONTINUOUS
10
4.8002
20
-3.03445
11
4.8002
21
-3.02067
0
LINE
8
BLACK
6
CONTINUOUS
10
4.8002
20
-3.02067
11
4.75689
21
-3.02067
0
LINE
8
BLACK
6
CONTINUOUS
10
4.8061
20
-3.02067
11
4.8061
21
-3.03445
0
LINE
8
BLACK
6
CONTINUOUS
10
4.8061
20
-3.03445
11
4.84941
21
-3.03445
0
LINE
8
BLACK
6
CONTINUOUS
10
4.84941
20
-3.03445
11
4.84941
21
-3.02067
0
LINE
8
BLACK
6
CONTINUOUS
10
4.84941
20
-3.02067
11
4.8061
21
-3.02067
0
LINE
8
BLACK
6
CONTINUOUS
10
4.7313
20
-3.01476
11
4.76619
21
-3.01476
0
LINE
8
BLACK
6
CONTINUOUS
10
4.76619
20
-3.01476
11
4.7659
21
-3.01406
0
LINE
8
BLACK
6
CONTINUOUS
10
4.7659
20
-3.01406
11
4.7659
21
-2.9813
0
LINE
8
BLACK
6
CONTINUOUS
10
4.7659
20
-2.9813
11
4.7313
21
-2.9813
0
LINE
8
BLACK
6
CONTINUOUS
10
4.7313
20
-2.9813
11
4.7313
21
-3.01476
0
LINE
8
BLACK
6
CONTINUOUS
10
4.77122
20
-2.9813
11
4.77122
21
-3.01406
0
LINE
8
BLACK
6
CONTINUOUS
10
4.77122
20
-3.01406
11
4.77093
21
-3.01476
0
LINE
8
BLACK
6
CONTINUOUS
10
4.77093
20
-3.01476
11
4.78813
21
-3.01476
0
LINE
8
BLACK
6
CONTINUOUS
10
4.78813
20
-3.01476
11
4.78784
21
-3.01406
0
LINE
8
BLACK
6
CONTINUOUS
10
4.78784
20
-3.01406
11
4.78784
21
-2.9813
0
LINE
8
BLACK
6
CONTINUOUS
10
4.78784
20
-2.9813
11
4.77122
21
-2.9813
0
LINE
8
BLACK
6
CONTINUOUS
10
4.8299
20
-2.9813
11
4.8275
21
-2.9825
0
LINE
8
BLACK
6
CONTINUOUS
10
4.8275
20
-2.9825
11
4.82612
21
-2.98388
0
LINE
8
BLACK
6
CONTINUOUS
10
4.82612
20
-2.98388
11
4.82424
21
-2.98466
0
LINE
8
BLACK
6
CONTINUOUS
10
4.82424
20
-2.98466
11
4.82236
21
-2.98388
0
LINE
8
BLACK
6
CONTINUOUS
10
4.82236
20
-2.98388
11
4.82158
21
-2.982
0
LINE
8
BLACK
6
CONTINUOUS
10
4.82158
20
-2.982
11
4.82187
21
-2.9813
0
LINE
8
BLACK
6
CONTINUOUS
10
4.82187
20
-2.9813
11
4.81167
21
-2.9813
0
LINE
8
BLACK
6
CONTINUOUS
10
4.81167
20
-2.9813
11
4.81312
21
-2.98419
0
LINE
8
BLACK
6
CONTINUOUS
10
4.81312
20
-2.98419
11
4.81316
21
-2.98481
0
LINE
8
BLACK
6
CONTINUOUS
10
4.81316
20
-2.98481
11
4.8134
21
-2.98538
0
LINE
8
BLACK
6
CONTINUOUS
10
4.8134
20
-2.98538
11
4.8134
21
-2.99044
0
LINE
8
BLACK
6
CONTINUOUS
10
4.8134
20
-2.99044
11
4.81316
21
-2.99101
0
LINE
8
BLACK
6
CONTINUOUS
10
4.81316
20
-2.99101
11
4.81312
21
-2.99163
0
LINE
8
BLACK
6
CONTINUOUS
10
4.81312
20
-2.99163
11
4.81143
21
-2.995
0
LINE
8
BLACK
6
CONTINUOUS
10
4.81143
20
-2.995
11
4.8111
21
-2.99529
0
LINE
8
BLACK
6
CONTINUOUS
10
4.8111
20
-2.99529
11
4.81093
21
-2.99569
0
LINE
8
BLACK
6
CONTINUOUS
10
4.81093
20
-2.99569
11
4.80925
21
-2.99738
0
LINE
8
BLACK
6
CONTINUOUS
10
4.80925
20
-2.99738
11
4.80884
21
-2.99755
0
LINE
8
BLACK
6
CONTINUOUS
10
4.80884
20
-2.99755
11
4.80856
21
-2.99788
0
LINE
8
BLACK
6
CONTINUOUS
10
4.80856
20
-2.99788
11
4.80518
21
-2.99956
0
LINE
8
BLACK
6
CONTINUOUS
10
4.80518
20
-2.99956
11
4.80456
21
-2.99961
0
LINE
8
BLACK
6
CONTINUOUS
10
4.80456
20
-2.99961
11
4.80399
21
-2.99985
0
LINE
8
BLACK
6
CONTINUOUS
10
4.80399
20
-2.99985
11
4.79315
21
-2.99985
0
LINE
8
BLACK
6
CONTINUOUS
10
4.79315
20
-2.99985
11
4.79315
21
-3.01406
0
LINE
8
BLACK
6
CONTINUOUS
10
4.79315
20
-3.01406
11
4.79286
21
-3.01476
0
LINE
8
BLACK
6
CONTINUOUS
10
4.79286
20
-3.01476
11
4.82019
21
-3.01476
0
LINE
8
BLACK
6
CONTINUOUS
10
4.82019
20
-3.01476
11
4.8199
21
-3.01406
0
LINE
8
BLACK
6
CONTINUOUS
10
4.8199
20
-3.01406
11
4.82067
21
-3.01218
0
LINE
8
BLACK
6
CONTINUOUS
10
4.82067
20
-3.01218
11
4.84048
21
-2.99238
0
LINE
8
BLACK
6
CONTINUOUS
10
4.84048
20
-2.99238
11
4.84183
21
-2.98832
0
LINE
8
BLACK
6
CONTINUOUS
10
4.84183
20
-2.98832
11
4.84183
21
-2.986
0
LINE
8
BLACK
6
CONTINUOUS
10
4.84183
20
-2.986
11
4.84062
21
-2.98358
0
LINE
8
BLACK
6
CONTINUOUS
10
4.84062
20
-2.98358
11
4.83954
21
-2.9825
0
LINE
8
BLACK
6
CONTINUOUS
10
4.83954
20
-2.9825
11
4.83714
21
-2.9813
0
LINE
8
BLACK
6
CONTINUOUS
10
4.83714
20
-2.9813
11
4.8299
21
-2.9813
0
LINE
8
BLACK
6
CONTINUOUS
10
4.84687
20
-2.98419
11
4.84691
21
-2.98481
0
LINE
8
BLACK
6
CONTINUOUS
10
4.84691
20
-2.98481
11
4.84715
21
-2.98538
0
LINE
8
BLACK
6
CONTINUOUS
10
4.84715
20
-2.98538
11
4.84715
21
-2.98875
0
LINE
8
BLACK
6
CONTINUOUS
10
4.84715
20
-2.98875
11
4.84698
21
-2.98916
0
LINE
8
BLACK
6
CONTINUOUS
10
4.84698
20
-2.98916
11
4.84701
21
-2.98959
0
LINE
8
BLACK
6
CONTINUOUS
10
4.84701
20
-2.98959
11
4.84532
21
-2.99465
0
LINE
8
BLACK
6
CONTINUOUS
10
4.84532
20
-2.99465
11
4.84492
21
-2.99512
0
LINE
8
BLACK
6
CONTINUOUS
10
4.84492
20
-2.99512
11
4.84468
21
-2.99569
0
LINE
8
BLACK
6
CONTINUOUS
10
4.84468
20
-2.99569
11
4.82897
21
-3.0114
0
LINE
8
BLACK
6
CONTINUOUS
10
4.82897
20
-3.0114
11
4.84449
21
-3.0114
0
LINE
8
BLACK
6
CONTINUOUS
10
4.84449
20
-3.0114
11
4.84637
21
-3.01218
0
LINE
8
BLACK
6
CONTINUOUS
10
4.84637
20
-3.01218
11
4.84715
21
-3.01406
0
LINE
8
BLACK
6
CONTINUOUS
10
4.84715
20
-3.01406
11
4.84685
21
-3.01476
0
LINE
8
BLACK
6
CONTINUOUS
10
4.84685
20
-3.01476
11
4.875
21
-3.01476
0
LINE
8
BLACK
6
CONTINUOUS
10
4.875
20
-3.01476
11
4.875
21
-2.9813
0
LINE
8
BLACK
6
CONTINUOUS
10
4.875
20
-2.9813
11
4.84542
21
-2.9813
0
LINE
8
BLACK
6
CONTINUOUS
10
4.84542
20
-2.9813
11
4.84687
21
-2.98419
0
LINE
8
BLACK
6
CONTINUOUS
10
4.79315
20
-2.9813
11
4.79315
21
-2.99453
0
LINE
8
BLACK
6
CONTINUOUS
10
4.79315
20
-2.99453
11
4.80337
21
-2.99453
0
LINE
8
BLACK
6
CONTINUOUS
10
4.80337
20
-2.99453
11
4.80579
21
-2.99332
0
LINE
8
BLACK
6
CONTINUOUS
10
4.80579
20
-2.99332
11
4.80687
21
-2.99224
0
LINE
8
BLACK
6
CONTINUOUS
10
4.80687
20
-2.99224
11
4.80808
21
-2.98981
0
LINE
8
BLACK
6
CONTINUOUS
10
4.80808
20
-2.98981
11
4.80808
21
-2.986
0
LINE
8
BLACK
6
CONTINUOUS
10
4.80808
20
-2.986
11
4.80687
21
-2.98358
0
LINE
8
BLACK
6
CONTINUOUS
10
4.80687
20
-2.98358
11
4.80579
21
-2.9825
0
LINE
8
BLACK
6
CONTINUOUS
10
4.80579
20
-2.9825
11
4.80339
21
-2.9813
0
LINE
8
BLACK
6
CONTINUOUS
10
4.80339
20
-2.9813
11
4.79315
21
-2.9813
0
LINE
8
BLACK
6
CONTINUOUS
10
4.75689
20
-2.96161
11
4.75689
21
-2.97539
0
LINE
8
BLACK
6
CONTINUOUS
10
4.75689
20
-2.97539
11
4.8002
21
-2.97539
0
LINE
8
BLACK
6
CONTINUOUS
10
4.8002
20
-2.97539
11
4.8002
21
-2.96161
0
LINE
8
BLACK
6
CONTINUOUS
10
4.8002
20
-2.96161
11
4.75689
21
-2.96161
0
LINE
8
BLACK
6
CONTINUOUS
10
4.8061
20
-2.96161
11
4.8061
21
-2.97539
0
LINE
8
BLACK
6
CONTINUOUS
10
4.8061
20
-2.97539
11
4.84941
21
-2.97539
0
LINE
8
BLACK
6
CONTINUOUS
10
4.84941
20
-2.97539
11
4.84941
21
-2.96161
0
LINE
8
BLACK
6
CONTINUOUS
10
4.84941
20
-2.96161
11
4.8061
21
-2.96161
  0
ENDSEC
  0
EOF
