  0
SECTION
  2
HEADER
  9
$ANGBASE
  50
0.0
  9
$ANGDIR
  70
1
  9
$MEASUREMENT
  70
0
  0
ENDSEC
  0
SECTION
  2
TABLES
  0
TABLE
  2
LTYPE
  70
4
  0
LTYPE
  5
40F
  2
CONTINUOUS
  70
0
  3
Solid line
  72
65
  73
0
  40
0.0
  0
LTYPE
  5
410
  2
DASHDOT
 70
0
  3
Dash Dot ____ _ ____ _
 72
65
 73
4
 40
2.0
 49
1.25
 49
-0.25
 49
0.25
 49
-0.25
  0
LTYPE
  5
411
  2
DASHED
 70
0
  3
Dashed __ __ __ __ __
 72
65
 73
2
 40
0.75
 49
0.5
 49
-0.25
  0
LTYPE
  5
43B
  2
DOTTED
 70
0
  3
Dotted .  .  .  .
 72
65
 73
2
 40
0.2
 49
0.0
 49
-0.2
  0
ENDTAB
  0
TABLE
  2
STYLE
  70
4
  0
STYLE
  2
KICAD
  70
0
  40
0
  41
1
  42
1
  50
0
  71
0
  3
isocp.shx
  0
STYLE
  2
KICADB
  70
0
  40
0
  41
1
  42
1
  50
0
  71
0
  3
isocp.shx
  0
STYLE
  2
KICADI
  70
0
  40
0
  41
1
  42
1
  50
15
  71
0
  3
isocp.shx
  0
STYLE
  2
KICADBI
  70
0
  40
0
  41
1
  42
1
  50
15
  71
0
  3
isocp.shx
  0
ENDTAB
  0
TABLE
  2
LAYER
  70
1
  0
LAYER
  2
BLACK
  70
0
  62
7
  6
CONTINUOUS
  0
ENDTAB
  0
ENDSEC
  0
SECTION
  2
ENTITIES
0
LINE
8
BLACK
6
CONTINUOUS
10
0.263386
20
-0.47815
11
0.264082
21
-0.478438
0
LINE
8
BLACK
6
CONTINUOUS
10
0.264082
20
-0.478438
11
0.26437
21
-0.479134
0
LINE
8
BLACK
6
CONTINUOUS
10
0.26437
20
-0.479134
11
0.26437
21
-0.664173
0
LINE
8
BLACK
6
CONTINUOUS
10
0.26437
20
-0.664173
11
0.264082
21
-0.664869
0
LINE
8
BLACK
6
CONTINUOUS
10
0.264082
20
-0.664869
11
0.263386
21
-0.665157
0
LINE
8
BLACK
6
CONTINUOUS
10
0.263386
20
-0.665157
11
0.149213
21
-0.665157
0
LINE
8
BLACK
6
CONTINUOUS
10
0.149213
20
-0.665157
11
0.148517
21
-0.664869
0
LINE
8
BLACK
6
CONTINUOUS
10
0.148517
20
-0.664869
11
0.148228
21
-0.664173
0
LINE
8
BLACK
6
CONTINUOUS
10
0.148228
20
-0.664173
11
0.148228
21
-0.664173
0
LINE
8
BLACK
6
CONTINUOUS
10
0.148228
20
-0.664173
11
0.148228
21
-0.479134
0
LINE
8
BLACK
6
CONTINUOUS
10
0.148228
20
-0.479134
11
0.148517
21
-0.478438
0
LINE
8
BLACK
6
CONTINUOUS
10
0.148517
20
-0.478438
11
0.149213
21
-0.47815
0
LINE
8
BLACK
6
CONTINUOUS
10
0.149213
20
-0.47815
11
0.263386
21
-0.47815
0
LINE
8
BLACK
6
CONTINUOUS
10
0.150197
20
-0.480118
11
0.150197
21
-0.663189
0
LINE
8
BLACK
6
CONTINUOUS
10
0.150197
20
-0.663189
11
0.262402
21
-0.663189
0
LINE
8
BLACK
6
CONTINUOUS
10
0.262402
20
-0.663189
11
0.262402
21
-0.480118
0
LINE
8
BLACK
6
CONTINUOUS
10
0.262402
20
-0.480118
11
0.150197
21
-0.480118
0
LINE
8
BLACK
6
CONTINUOUS
10
0.265354
20
-0.13563
11
0.26605
21
-0.135918
0
LINE
8
BLACK
6
CONTINUOUS
10
0.26605
20
-0.135918
11
0.266339
21
-0.136614
0
LINE
8
BLACK
6
CONTINUOUS
10
0.266339
20
-0.136614
11
0.266339
21
-0.321654
0
LINE
8
BLACK
6
CONTINUOUS
10
0.266339
20
-0.321654
11
0.26605
21
-0.32235
0
LINE
8
BLACK
6
CONTINUOUS
10
0.26605
20
-0.32235
11
0.265354
21
-0.322638
0
LINE
8
BLACK
6
CONTINUOUS
10
0.265354
20
-0.322638
11
0.151181
21
-0.322638
0
LINE
8
BLACK
6
CONTINUOUS
10
0.151181
20
-0.322638
11
0.150485
21
-0.32235
0
LINE
8
BLACK
6
CONTINUOUS
10
0.150485
20
-0.32235
11
0.150197
21
-0.321654
0
LINE
8
BLACK
6
CONTINUOUS
10
0.150197
20
-0.321654
11
0.150197
21
-0.136614
0
LINE
8
BLACK
6
CONTINUOUS
10
0.150197
20
-0.136614
11
0.150485
21
-0.135918
0
LINE
8
BLACK
6
CONTINUOUS
10
0.150485
20
-0.135918
11
0.151181
21
-0.13563
0
LINE
8
BLACK
6
CONTINUOUS
10
0.151181
20
-0.13563
11
0.265354
21
-0.13563
0
LINE
8
BLACK
6
CONTINUOUS
10
0.152165
20
-0.137598
11
0.152165
21
-0.320669
0
LINE
8
BLACK
6
CONTINUOUS
10
0.152165
20
-0.320669
11
0.26437
21
-0.320669
0
LINE
8
BLACK
6
CONTINUOUS
10
0.26437
20
-0.320669
11
0.26437
21
-0.137598
0
LINE
8
BLACK
6
CONTINUOUS
10
0.26437
20
-0.137598
11
0.152165
21
-0.137598
  0
ENDSEC
  0
EOF
