  0
SECTION
  2
HEADER
  9
$ANGBASE
  50
0.0
  9
$ANGDIR
  70
1
  9
$MEASUREMENT
  70
0
  0
ENDSEC
  0
SECTION
  2
TABLES
  0
TABLE
  2
LTYPE
  70
4
  0
LTYPE
  5
40F
  2
CONTINUOUS
  70
0
  3
Solid line
  72
65
  73
0
  40
0.0
  0
LTYPE
  5
410
  2
DASHDOT
 70
0
  3
Dash Dot ____ _ ____ _
 72
65
 73
4
 40
2.0
 49
1.25
 49
-0.25
 49
0.25
 49
-0.25
  0
LTYPE
  5
411
  2
DASHED
 70
0
  3
Dashed __ __ __ __ __
 72
65
 73
2
 40
0.75
 49
0.5
 49
-0.25
  0
LTYPE
  5
43B
  2
DOTTED
 70
0
  3
Dotted .  .  .  .
 72
65
 73
2
 40
0.2
 49
0.0
 49
-0.2
  0
ENDTAB
  0
TABLE
  2
STYLE
  70
4
  0
STYLE
  2
KICAD
  70
0
  40
0
  41
1
  42
1
  50
0
  71
0
  3
isocp.shx
  0
STYLE
  2
KICADB
  70
0
  40
0
  41
1
  42
1
  50
0
  71
0
  3
isocp.shx
  0
STYLE
  2
KICADI
  70
0
  40
0
  41
1
  42
1
  50
15
  71
0
  3
isocp.shx
  0
STYLE
  2
KICADBI
  70
0
  40
0
  41
1
  42
1
  50
15
  71
0
  3
isocp.shx
  0
ENDTAB
  0
TABLE
  2
LAYER
  70
1
  0
LAYER
  2
BLACK
  70
0
  62
7
  6
CONTINUOUS
  0
ENDTAB
  0
ENDSEC
  0
SECTION
  2
ENTITIES
0
LINE
8
BLACK
6
CONTINUOUS
10
5.23914
20
-4.50693
11
5.23697
21
-4.50477
0
LINE
8
BLACK
6
CONTINUOUS
10
5.23697
20
-4.50477
11
5.23618
21
-4.50182
0
LINE
8
BLACK
6
CONTINUOUS
10
5.23618
20
-4.50182
11
5.23618
21
-4.47632
0
LINE
8
BLACK
6
CONTINUOUS
10
5.23618
20
-4.47632
11
5.23653
21
-4.47501
0
LINE
8
BLACK
6
CONTINUOUS
10
5.23653
20
-4.47501
11
5.23681
21
-4.47368
0
LINE
8
BLACK
6
CONTINUOUS
10
5.23681
20
-4.47368
11
5.23999
21
-4.46731
0
LINE
8
BLACK
6
CONTINUOUS
10
5.23999
20
-4.46731
11
5.24062
21
-4.46659
0
LINE
8
BLACK
6
CONTINUOUS
10
5.24062
20
-4.46659
11
5.2411
21
-4.46577
0
LINE
8
BLACK
6
CONTINUOUS
10
5.2411
20
-4.46577
11
5.24429
21
-4.46258
0
LINE
8
BLACK
6
CONTINUOUS
10
5.24429
20
-4.46258
11
5.24511
21
-4.46211
0
LINE
8
BLACK
6
CONTINUOUS
10
5.24511
20
-4.46211
11
5.24582
21
-4.46148
0
LINE
8
BLACK
6
CONTINUOUS
10
5.24582
20
-4.46148
11
5.2522
21
-4.45829
0
LINE
8
BLACK
6
CONTINUOUS
10
5.2522
20
-4.45829
11
5.25353
21
-4.45802
0
LINE
8
BLACK
6
CONTINUOUS
10
5.25353
20
-4.45802
11
5.25484
21
-4.45767
0
LINE
8
BLACK
6
CONTINUOUS
10
5.25484
20
-4.45767
11
5.2644
21
-4.45767
0
LINE
8
BLACK
6
CONTINUOUS
10
5.2644
20
-4.45767
11
5.26571
21
-4.45802
0
LINE
8
BLACK
6
CONTINUOUS
10
5.26571
20
-4.45802
11
5.26704
21
-4.45829
0
LINE
8
BLACK
6
CONTINUOUS
10
5.26704
20
-4.45829
11
5.27341
21
-4.46148
0
LINE
8
BLACK
6
CONTINUOUS
10
5.27341
20
-4.46148
11
5.27412
21
-4.46211
0
LINE
8
BLACK
6
CONTINUOUS
10
5.27412
20
-4.46211
11
5.27495
21
-4.46258
0
LINE
8
BLACK
6
CONTINUOUS
10
5.27495
20
-4.46258
11
5.27814
21
-4.46577
0
LINE
8
BLACK
6
CONTINUOUS
10
5.27814
20
-4.46577
11
5.27861
21
-4.4666
0
LINE
8
BLACK
6
CONTINUOUS
10
5.27861
20
-4.4666
11
5.27924
21
-4.46731
0
LINE
8
BLACK
6
CONTINUOUS
10
5.27924
20
-4.46731
11
5.28243
21
-4.47368
0
LINE
8
BLACK
6
CONTINUOUS
10
5.28243
20
-4.47368
11
5.2827
21
-4.47501
0
LINE
8
BLACK
6
CONTINUOUS
10
5.2827
20
-4.47501
11
5.28305
21
-4.47632
0
LINE
8
BLACK
6
CONTINUOUS
10
5.28305
20
-4.47632
11
5.28305
21
-4.49591
0
LINE
8
BLACK
6
CONTINUOUS
10
5.28305
20
-4.49591
11
5.30902
21
-4.49591
0
LINE
8
BLACK
6
CONTINUOUS
10
5.30902
20
-4.49591
11
5.31197
21
-4.4967
0
LINE
8
BLACK
6
CONTINUOUS
10
5.31197
20
-4.4967
11
5.31413
21
-4.49887
0
LINE
8
BLACK
6
CONTINUOUS
10
5.31413
20
-4.49887
11
5.31492
21
-4.50182
0
LINE
8
BLACK
6
CONTINUOUS
10
5.31492
20
-4.50182
11
5.31413
21
-4.50477
0
LINE
8
BLACK
6
CONTINUOUS
10
5.31413
20
-4.50477
11
5.31197
21
-4.50693
0
LINE
8
BLACK
6
CONTINUOUS
10
5.31197
20
-4.50693
11
5.30902
21
-4.50772
0
LINE
8
BLACK
6
CONTINUOUS
10
5.30902
20
-4.50772
11
5.24209
21
-4.50772
0
LINE
8
BLACK
6
CONTINUOUS
10
5.24209
20
-4.50772
11
5.23914
21
-4.50693
0
LINE
8
BLACK
6
CONTINUOUS
10
5.25623
20
-4.46948
11
5.25196
21
-4.47161
0
LINE
8
BLACK
6
CONTINUOUS
10
5.25196
20
-4.47161
11
5.25013
21
-4.47345
0
LINE
8
BLACK
6
CONTINUOUS
10
5.25013
20
-4.47345
11
5.24799
21
-4.47772
0
LINE
8
BLACK
6
CONTINUOUS
10
5.24799
20
-4.47772
11
5.24799
21
-4.49591
0
LINE
8
BLACK
6
CONTINUOUS
10
5.24799
20
-4.49591
11
5.27124
21
-4.49591
0
LINE
8
BLACK
6
CONTINUOUS
10
5.27124
20
-4.49591
11
5.27124
21
-4.47772
0
LINE
8
BLACK
6
CONTINUOUS
10
5.27124
20
-4.47772
11
5.26911
21
-4.47345
0
LINE
8
BLACK
6
CONTINUOUS
10
5.26911
20
-4.47345
11
5.26727
21
-4.47161
0
LINE
8
BLACK
6
CONTINUOUS
10
5.26727
20
-4.47161
11
5.263
21
-4.46948
0
LINE
8
BLACK
6
CONTINUOUS
10
5.263
20
-4.46948
11
5.25623
21
-4.46948
0
LINE
8
BLACK
6
CONTINUOUS
10
5.31197
20
-4.42978
11
5.31413
21
-4.43194
0
LINE
8
BLACK
6
CONTINUOUS
10
5.31413
20
-4.43194
11
5.31492
21
-4.43489
0
LINE
8
BLACK
6
CONTINUOUS
10
5.31492
20
-4.43489
11
5.31413
21
-4.43784
0
LINE
8
BLACK
6
CONTINUOUS
10
5.31413
20
-4.43784
11
5.31197
21
-4.44
0
LINE
8
BLACK
6
CONTINUOUS
10
5.31197
20
-4.44
11
5.30902
21
-4.44079
0
LINE
8
BLACK
6
CONTINUOUS
10
5.30902
20
-4.44079
11
5.24209
21
-4.44079
0
LINE
8
BLACK
6
CONTINUOUS
10
5.24209
20
-4.44079
11
5.23914
21
-4.44
0
LINE
8
BLACK
6
CONTINUOUS
10
5.23914
20
-4.44
11
5.23697
21
-4.43784
0
LINE
8
BLACK
6
CONTINUOUS
10
5.23697
20
-4.43784
11
5.23618
21
-4.43489
0
LINE
8
BLACK
6
CONTINUOUS
10
5.23618
20
-4.43489
11
5.23697
21
-4.43194
0
LINE
8
BLACK
6
CONTINUOUS
10
5.23697
20
-4.43194
11
5.23914
21
-4.42978
0
LINE
8
BLACK
6
CONTINUOUS
10
5.23914
20
-4.42978
11
5.24209
21
-4.42898
0
LINE
8
BLACK
6
CONTINUOUS
10
5.24209
20
-4.42898
11
5.30902
21
-4.42898
0
LINE
8
BLACK
6
CONTINUOUS
10
5.30902
20
-4.42898
11
5.31197
21
-4.42978
0
LINE
8
BLACK
6
CONTINUOUS
10
5.30903
20
-4.35887
11
5.30904
21
-4.35887
0
LINE
8
BLACK
6
CONTINUOUS
10
5.30904
20
-4.35887
11
5.31051
21
-4.35927
0
LINE
8
BLACK
6
CONTINUOUS
10
5.31051
20
-4.35927
11
5.31197
21
-4.35966
0
LINE
8
BLACK
6
CONTINUOUS
10
5.31197
20
-4.35966
11
5.31198
21
-4.35967
0
LINE
8
BLACK
6
CONTINUOUS
10
5.31198
20
-4.35967
11
5.31199
21
-4.35967
0
LINE
8
BLACK
6
CONTINUOUS
10
5.31199
20
-4.35967
11
5.31306
21
-4.36075
0
LINE
8
BLACK
6
CONTINUOUS
10
5.31306
20
-4.36075
11
5.31413
21
-4.36182
0
LINE
8
BLACK
6
CONTINUOUS
10
5.31413
20
-4.36182
11
5.31414
21
-4.36183
0
LINE
8
BLACK
6
CONTINUOUS
10
5.31414
20
-4.36183
11
5.31415
21
-4.36184
0
LINE
8
BLACK
6
CONTINUOUS
10
5.31415
20
-4.36184
11
5.31453
21
-4.36331
0
LINE
8
BLACK
6
CONTINUOUS
10
5.31453
20
-4.36331
11
5.31492
21
-4.36477
0
LINE
8
BLACK
6
CONTINUOUS
10
5.31492
20
-4.36477
11
5.31492
21
-4.36479
0
LINE
8
BLACK
6
CONTINUOUS
10
5.31492
20
-4.36479
11
5.31492
21
-4.3648
0
LINE
8
BLACK
6
CONTINUOUS
10
5.31492
20
-4.3648
11
5.31452
21
-4.36627
0
LINE
8
BLACK
6
CONTINUOUS
10
5.31452
20
-4.36627
11
5.31413
21
-4.36773
0
LINE
8
BLACK
6
CONTINUOUS
10
5.31413
20
-4.36773
11
5.31412
21
-4.36774
0
LINE
8
BLACK
6
CONTINUOUS
10
5.31412
20
-4.36774
11
5.31412
21
-4.36775
0
LINE
8
BLACK
6
CONTINUOUS
10
5.31412
20
-4.36775
11
5.31304
21
-4.36882
0
LINE
8
BLACK
6
CONTINUOUS
10
5.31304
20
-4.36882
11
5.31197
21
-4.36989
0
LINE
8
BLACK
6
CONTINUOUS
10
5.31197
20
-4.36989
11
5.31196
21
-4.36989
0
LINE
8
BLACK
6
CONTINUOUS
10
5.31196
20
-4.36989
11
5.31195
21
-4.3699
0
LINE
8
BLACK
6
CONTINUOUS
10
5.31195
20
-4.3699
11
5.26433
21
-4.39711
0
LINE
8
BLACK
6
CONTINUOUS
10
5.26433
20
-4.39711
11
5.30902
21
-4.39711
0
LINE
8
BLACK
6
CONTINUOUS
10
5.30902
20
-4.39711
11
5.31197
21
-4.3979
0
LINE
8
BLACK
6
CONTINUOUS
10
5.31197
20
-4.3979
11
5.31413
21
-4.40007
0
LINE
8
BLACK
6
CONTINUOUS
10
5.31413
20
-4.40007
11
5.31492
21
-4.40302
0
LINE
8
BLACK
6
CONTINUOUS
10
5.31492
20
-4.40302
11
5.31413
21
-4.40597
0
LINE
8
BLACK
6
CONTINUOUS
10
5.31413
20
-4.40597
11
5.31197
21
-4.40813
0
LINE
8
BLACK
6
CONTINUOUS
10
5.31197
20
-4.40813
11
5.30902
21
-4.40892
0
LINE
8
BLACK
6
CONTINUOUS
10
5.30902
20
-4.40892
11
5.24209
21
-4.40892
0
LINE
8
BLACK
6
CONTINUOUS
10
5.24209
20
-4.40892
11
5.24208
21
-4.40892
0
LINE
8
BLACK
6
CONTINUOUS
10
5.24208
20
-4.40892
11
5.24206
21
-4.40892
0
LINE
8
BLACK
6
CONTINUOUS
10
5.24206
20
-4.40892
11
5.2406
21
-4.40852
0
LINE
8
BLACK
6
CONTINUOUS
10
5.2406
20
-4.40852
11
5.23914
21
-4.40813
0
LINE
8
BLACK
6
CONTINUOUS
10
5.23914
20
-4.40813
11
5.23913
21
-4.40812
0
LINE
8
BLACK
6
CONTINUOUS
10
5.23913
20
-4.40812
11
5.23911
21
-4.40812
0
LINE
8
BLACK
6
CONTINUOUS
10
5.23911
20
-4.40812
11
5.23805
21
-4.40704
0
LINE
8
BLACK
6
CONTINUOUS
10
5.23805
20
-4.40704
11
5.23697
21
-4.40597
0
LINE
8
BLACK
6
CONTINUOUS
10
5.23697
20
-4.40597
11
5.23697
21
-4.40596
0
LINE
8
BLACK
6
CONTINUOUS
10
5.23697
20
-4.40596
11
5.23696
21
-4.40595
0
LINE
8
BLACK
6
CONTINUOUS
10
5.23696
20
-4.40595
11
5.23658
21
-4.40448
0
LINE
8
BLACK
6
CONTINUOUS
10
5.23658
20
-4.40448
11
5.23618
21
-4.40302
0
LINE
8
BLACK
6
CONTINUOUS
10
5.23618
20
-4.40302
11
5.23619
21
-4.40301
0
LINE
8
BLACK
6
CONTINUOUS
10
5.23619
20
-4.40301
11
5.23618
21
-4.40299
0
LINE
8
BLACK
6
CONTINUOUS
10
5.23618
20
-4.40299
11
5.23658
21
-4.40153
0
LINE
8
BLACK
6
CONTINUOUS
10
5.23658
20
-4.40153
11
5.23697
21
-4.40007
0
LINE
8
BLACK
6
CONTINUOUS
10
5.23697
20
-4.40007
11
5.23698
21
-4.40006
0
LINE
8
BLACK
6
CONTINUOUS
10
5.23698
20
-4.40006
11
5.23699
21
-4.40004
0
LINE
8
BLACK
6
CONTINUOUS
10
5.23699
20
-4.40004
11
5.23806
21
-4.39898
0
LINE
8
BLACK
6
CONTINUOUS
10
5.23806
20
-4.39898
11
5.23914
21
-4.3979
0
LINE
8
BLACK
6
CONTINUOUS
10
5.23914
20
-4.3979
11
5.23915
21
-4.3979
0
LINE
8
BLACK
6
CONTINUOUS
10
5.23915
20
-4.3979
11
5.23916
21
-4.39789
0
LINE
8
BLACK
6
CONTINUOUS
10
5.23916
20
-4.39789
11
5.28678
21
-4.37068
0
LINE
8
BLACK
6
CONTINUOUS
10
5.28678
20
-4.37068
11
5.24209
21
-4.37068
0
LINE
8
BLACK
6
CONTINUOUS
10
5.24209
20
-4.37068
11
5.23914
21
-4.36989
0
LINE
8
BLACK
6
CONTINUOUS
10
5.23914
20
-4.36989
11
5.23697
21
-4.36773
0
LINE
8
BLACK
6
CONTINUOUS
10
5.23697
20
-4.36773
11
5.23618
21
-4.36477
0
LINE
8
BLACK
6
CONTINUOUS
10
5.23618
20
-4.36477
11
5.23697
21
-4.36182
0
LINE
8
BLACK
6
CONTINUOUS
10
5.23697
20
-4.36182
11
5.23914
21
-4.35966
0
LINE
8
BLACK
6
CONTINUOUS
10
5.23914
20
-4.35966
11
5.24209
21
-4.35887
0
LINE
8
BLACK
6
CONTINUOUS
10
5.24209
20
-4.35887
11
5.30902
21
-4.35887
0
LINE
8
BLACK
6
CONTINUOUS
10
5.30902
20
-4.35887
11
5.30903
21
-4.35887
0
LINE
8
BLACK
6
CONTINUOUS
10
5.23914
20
-4.33802
11
5.23697
21
-4.33585
0
LINE
8
BLACK
6
CONTINUOUS
10
5.23697
20
-4.33585
11
5.23618
21
-4.3329
0
LINE
8
BLACK
6
CONTINUOUS
10
5.23618
20
-4.3329
11
5.23697
21
-4.32995
0
LINE
8
BLACK
6
CONTINUOUS
10
5.23697
20
-4.32995
11
5.23914
21
-4.32779
0
LINE
8
BLACK
6
CONTINUOUS
10
5.23914
20
-4.32779
11
5.24209
21
-4.327
0
LINE
8
BLACK
6
CONTINUOUS
10
5.24209
20
-4.327
11
5.26805
21
-4.327
0
LINE
8
BLACK
6
CONTINUOUS
10
5.26805
20
-4.327
11
5.26805
21
-4.30056
0
LINE
8
BLACK
6
CONTINUOUS
10
5.26805
20
-4.30056
11
5.24209
21
-4.30056
0
LINE
8
BLACK
6
CONTINUOUS
10
5.24209
20
-4.30056
11
5.23914
21
-4.29977
0
LINE
8
BLACK
6
CONTINUOUS
10
5.23914
20
-4.29977
11
5.23697
21
-4.29761
0
LINE
8
BLACK
6
CONTINUOUS
10
5.23697
20
-4.29761
11
5.23618
21
-4.29466
0
LINE
8
BLACK
6
CONTINUOUS
10
5.23618
20
-4.29466
11
5.23697
21
-4.2917
0
LINE
8
BLACK
6
CONTINUOUS
10
5.23697
20
-4.2917
11
5.23914
21
-4.28954
0
LINE
8
BLACK
6
CONTINUOUS
10
5.23914
20
-4.28954
11
5.24209
21
-4.28875
0
LINE
8
BLACK
6
CONTINUOUS
10
5.24209
20
-4.28875
11
5.30902
21
-4.28875
0
LINE
8
BLACK
6
CONTINUOUS
10
5.30902
20
-4.28875
11
5.31197
21
-4.28954
0
LINE
8
BLACK
6
CONTINUOUS
10
5.31197
20
-4.28954
11
5.31413
21
-4.2917
0
LINE
8
BLACK
6
CONTINUOUS
10
5.31413
20
-4.2917
11
5.31492
21
-4.29466
0
LINE
8
BLACK
6
CONTINUOUS
10
5.31492
20
-4.29466
11
5.31413
21
-4.29761
0
LINE
8
BLACK
6
CONTINUOUS
10
5.31413
20
-4.29761
11
5.31197
21
-4.29977
0
LINE
8
BLACK
6
CONTINUOUS
10
5.31197
20
-4.29977
11
5.30902
21
-4.30056
0
LINE
8
BLACK
6
CONTINUOUS
10
5.30902
20
-4.30056
11
5.27987
21
-4.30056
0
LINE
8
BLACK
6
CONTINUOUS
10
5.27987
20
-4.30056
11
5.27987
21
-4.327
0
LINE
8
BLACK
6
CONTINUOUS
10
5.27987
20
-4.327
11
5.30902
21
-4.327
0
LINE
8
BLACK
6
CONTINUOUS
10
5.30902
20
-4.327
11
5.31197
21
-4.32779
0
LINE
8
BLACK
6
CONTINUOUS
10
5.31197
20
-4.32779
11
5.31413
21
-4.32995
0
LINE
8
BLACK
6
CONTINUOUS
10
5.31413
20
-4.32995
11
5.31492
21
-4.3329
0
LINE
8
BLACK
6
CONTINUOUS
10
5.31492
20
-4.3329
11
5.31413
21
-4.33585
0
LINE
8
BLACK
6
CONTINUOUS
10
5.31413
20
-4.33585
11
5.31197
21
-4.33802
0
LINE
8
BLACK
6
CONTINUOUS
10
5.31197
20
-4.33802
11
5.30902
21
-4.33881
0
LINE
8
BLACK
6
CONTINUOUS
10
5.30902
20
-4.33881
11
5.24209
21
-4.33881
0
LINE
8
BLACK
6
CONTINUOUS
10
5.24209
20
-4.33881
11
5.23914
21
-4.33802
0
LINE
8
BLACK
6
CONTINUOUS
10
5.28741
20
-4.21564
11
5.28814
21
-4.21562
0
LINE
8
BLACK
6
CONTINUOUS
10
5.28814
20
-4.21562
11
5.30089
21
-4.21881
0
LINE
8
BLACK
6
CONTINUOUS
10
5.30089
20
-4.21881
11
5.30093
21
-4.21884
0
LINE
8
BLACK
6
CONTINUOUS
10
5.30093
20
-4.21884
11
5.30098
21
-4.21884
0
LINE
8
BLACK
6
CONTINUOUS
10
5.30098
20
-4.21884
11
5.30227
21
-4.21958
0
LINE
8
BLACK
6
CONTINUOUS
10
5.30227
20
-4.21958
11
5.30356
21
-4.2203
0
LINE
8
BLACK
6
CONTINUOUS
10
5.30356
20
-4.2203
11
5.30359
21
-4.22034
0
LINE
8
BLACK
6
CONTINUOUS
10
5.30359
20
-4.22034
11
5.30363
21
-4.22036
0
LINE
8
BLACK
6
CONTINUOUS
10
5.30363
20
-4.22036
11
5.31001
21
-4.22674
0
LINE
8
BLACK
6
CONTINUOUS
10
5.31001
20
-4.22674
11
5.31048
21
-4.22756
0
LINE
8
BLACK
6
CONTINUOUS
10
5.31048
20
-4.22756
11
5.31111
21
-4.22827
0
LINE
8
BLACK
6
CONTINUOUS
10
5.31111
20
-4.22827
11
5.3143
21
-4.23465
0
LINE
8
BLACK
6
CONTINUOUS
10
5.3143
20
-4.23465
11
5.31457
21
-4.23598
0
LINE
8
BLACK
6
CONTINUOUS
10
5.31457
20
-4.23598
11
5.31492
21
-4.23729
0
LINE
8
BLACK
6
CONTINUOUS
10
5.31492
20
-4.23729
11
5.31492
21
-4.25004
0
LINE
8
BLACK
6
CONTINUOUS
10
5.31492
20
-4.25004
11
5.31457
21
-4.25135
0
LINE
8
BLACK
6
CONTINUOUS
10
5.31457
20
-4.25135
11
5.3143
21
-4.25268
0
LINE
8
BLACK
6
CONTINUOUS
10
5.3143
20
-4.25268
11
5.31111
21
-4.25905
0
LINE
8
BLACK
6
CONTINUOUS
10
5.31111
20
-4.25905
11
5.31048
21
-4.25976
0
LINE
8
BLACK
6
CONTINUOUS
10
5.31048
20
-4.25976
11
5.31001
21
-4.26059
0
LINE
8
BLACK
6
CONTINUOUS
10
5.31001
20
-4.26059
11
5.30363
21
-4.26696
0
LINE
8
BLACK
6
CONTINUOUS
10
5.30363
20
-4.26696
11
5.30359
21
-4.26699
0
LINE
8
BLACK
6
CONTINUOUS
10
5.30359
20
-4.26699
11
5.30356
21
-4.26703
0
LINE
8
BLACK
6
CONTINUOUS
10
5.30356
20
-4.26703
11
5.30227
21
-4.26775
0
LINE
8
BLACK
6
CONTINUOUS
10
5.30227
20
-4.26775
11
5.30098
21
-4.26849
0
LINE
8
BLACK
6
CONTINUOUS
10
5.30098
20
-4.26849
11
5.30093
21
-4.26849
0
LINE
8
BLACK
6
CONTINUOUS
10
5.30093
20
-4.26849
11
5.30089
21
-4.26852
0
LINE
8
BLACK
6
CONTINUOUS
10
5.30089
20
-4.26852
11
5.28814
21
-4.2717
0
LINE
8
BLACK
6
CONTINUOUS
10
5.28814
20
-4.2717
11
5.28741
21
-4.27169
0
LINE
8
BLACK
6
CONTINUOUS
10
5.28741
20
-4.27169
11
5.28671
21
-4.27188
0
LINE
8
BLACK
6
CONTINUOUS
10
5.28671
20
-4.27188
11
5.2644
21
-4.27188
0
LINE
8
BLACK
6
CONTINUOUS
10
5.2644
20
-4.27188
11
5.26369
21
-4.27169
0
LINE
8
BLACK
6
CONTINUOUS
10
5.26369
20
-4.27169
11
5.26297
21
-4.2717
0
LINE
8
BLACK
6
CONTINUOUS
10
5.26297
20
-4.2717
11
5.25022
21
-4.26852
0
LINE
8
BLACK
6
CONTINUOUS
10
5.25022
20
-4.26852
11
5.25017
21
-4.26849
0
LINE
8
BLACK
6
CONTINUOUS
10
5.25017
20
-4.26849
11
5.25012
21
-4.26849
0
LINE
8
BLACK
6
CONTINUOUS
10
5.25012
20
-4.26849
11
5.24884
21
-4.26775
0
LINE
8
BLACK
6
CONTINUOUS
10
5.24884
20
-4.26775
11
5.24754
21
-4.26703
0
LINE
8
BLACK
6
CONTINUOUS
10
5.24754
20
-4.26703
11
5.24752
21
-4.26699
0
LINE
8
BLACK
6
CONTINUOUS
10
5.24752
20
-4.26699
11
5.24747
21
-4.26696
0
LINE
8
BLACK
6
CONTINUOUS
10
5.24747
20
-4.26696
11
5.2411
21
-4.26059
0
LINE
8
BLACK
6
CONTINUOUS
10
5.2411
20
-4.26059
11
5.24062
21
-4.25976
0
LINE
8
BLACK
6
CONTINUOUS
10
5.24062
20
-4.25976
11
5.23999
21
-4.25905
0
LINE
8
BLACK
6
CONTINUOUS
10
5.23999
20
-4.25905
11
5.23681
21
-4.25268
0
LINE
8
BLACK
6
CONTINUOUS
10
5.23681
20
-4.25268
11
5.23653
21
-4.25135
0
LINE
8
BLACK
6
CONTINUOUS
10
5.23653
20
-4.25135
11
5.23618
21
-4.25004
0
LINE
8
BLACK
6
CONTINUOUS
10
5.23618
20
-4.25004
11
5.23618
21
-4.23729
0
LINE
8
BLACK
6
CONTINUOUS
10
5.23618
20
-4.23729
11
5.23653
21
-4.23598
0
LINE
8
BLACK
6
CONTINUOUS
10
5.23653
20
-4.23598
11
5.23681
21
-4.23465
0
LINE
8
BLACK
6
CONTINUOUS
10
5.23681
20
-4.23465
11
5.23999
21
-4.22827
0
LINE
8
BLACK
6
CONTINUOUS
10
5.23999
20
-4.22827
11
5.24062
21
-4.22756
0
LINE
8
BLACK
6
CONTINUOUS
10
5.24062
20
-4.22756
11
5.2411
21
-4.22674
0
LINE
8
BLACK
6
CONTINUOUS
10
5.2411
20
-4.22674
11
5.24747
21
-4.22036
0
LINE
8
BLACK
6
CONTINUOUS
10
5.24747
20
-4.22036
11
5.24752
21
-4.22034
0
LINE
8
BLACK
6
CONTINUOUS
10
5.24752
20
-4.22034
11
5.24754
21
-4.2203
0
LINE
8
BLACK
6
CONTINUOUS
10
5.24754
20
-4.2203
11
5.24884
21
-4.21958
0
LINE
8
BLACK
6
CONTINUOUS
10
5.24884
20
-4.21958
11
5.25012
21
-4.21884
0
LINE
8
BLACK
6
CONTINUOUS
10
5.25012
20
-4.21884
11
5.25017
21
-4.21884
0
LINE
8
BLACK
6
CONTINUOUS
10
5.25017
20
-4.21884
11
5.25022
21
-4.21881
0
LINE
8
BLACK
6
CONTINUOUS
10
5.25022
20
-4.21881
11
5.26297
21
-4.21562
0
LINE
8
BLACK
6
CONTINUOUS
10
5.26297
20
-4.21562
11
5.26369
21
-4.21564
0
LINE
8
BLACK
6
CONTINUOUS
10
5.26369
20
-4.21564
11
5.2644
21
-4.21545
0
LINE
8
BLACK
6
CONTINUOUS
10
5.2644
20
-4.21545
11
5.28671
21
-4.21545
0
LINE
8
BLACK
6
CONTINUOUS
10
5.28671
20
-4.21545
11
5.28741
21
-4.21564
0
LINE
8
BLACK
6
CONTINUOUS
10
5.26513
20
-4.22726
11
5.25467
21
-4.22987
0
LINE
8
BLACK
6
CONTINUOUS
10
5.25467
20
-4.22987
11
5.25013
21
-4.23441
0
LINE
8
BLACK
6
CONTINUOUS
10
5.25013
20
-4.23441
11
5.24799
21
-4.23868
0
LINE
8
BLACK
6
CONTINUOUS
10
5.24799
20
-4.23868
11
5.24799
21
-4.24864
0
LINE
8
BLACK
6
CONTINUOUS
10
5.24799
20
-4.24864
11
5.25013
21
-4.25291
0
LINE
8
BLACK
6
CONTINUOUS
10
5.25013
20
-4.25291
11
5.25467
21
-4.25745
0
LINE
8
BLACK
6
CONTINUOUS
10
5.25467
20
-4.25745
11
5.26513
21
-4.26007
0
LINE
8
BLACK
6
CONTINUOUS
10
5.26513
20
-4.26007
11
5.28598
21
-4.26007
0
LINE
8
BLACK
6
CONTINUOUS
10
5.28598
20
-4.26007
11
5.29644
21
-4.25745
0
LINE
8
BLACK
6
CONTINUOUS
10
5.29644
20
-4.25745
11
5.30098
21
-4.25291
0
LINE
8
BLACK
6
CONTINUOUS
10
5.30098
20
-4.25291
11
5.30311
21
-4.24864
0
LINE
8
BLACK
6
CONTINUOUS
10
5.30311
20
-4.24864
11
5.30311
21
-4.23868
0
LINE
8
BLACK
6
CONTINUOUS
10
5.30311
20
-4.23868
11
5.30098
21
-4.23441
0
LINE
8
BLACK
6
CONTINUOUS
10
5.30098
20
-4.23441
11
5.29644
21
-4.22987
0
LINE
8
BLACK
6
CONTINUOUS
10
5.29644
20
-4.22987
11
5.28598
21
-4.22726
0
LINE
8
BLACK
6
CONTINUOUS
10
5.28598
20
-4.22726
11
5.26513
21
-4.22726
0
LINE
8
BLACK
6
CONTINUOUS
10
5.23914
20
-4.19778
11
5.23697
21
-4.19562
0
LINE
8
BLACK
6
CONTINUOUS
10
5.23697
20
-4.19562
11
5.23618
21
-4.19267
0
LINE
8
BLACK
6
CONTINUOUS
10
5.23618
20
-4.19267
11
5.23697
21
-4.18972
0
LINE
8
BLACK
6
CONTINUOUS
10
5.23697
20
-4.18972
11
5.23914
21
-4.18756
0
LINE
8
BLACK
6
CONTINUOUS
10
5.23914
20
-4.18756
11
5.24209
21
-4.18676
0
LINE
8
BLACK
6
CONTINUOUS
10
5.24209
20
-4.18676
11
5.30311
21
-4.18676
0
LINE
8
BLACK
6
CONTINUOUS
10
5.30311
20
-4.18676
11
5.30311
21
-4.1608
0
LINE
8
BLACK
6
CONTINUOUS
10
5.30311
20
-4.1608
11
5.3039
21
-4.15785
0
LINE
8
BLACK
6
CONTINUOUS
10
5.3039
20
-4.15785
11
5.30606
21
-4.15568
0
LINE
8
BLACK
6
CONTINUOUS
10
5.30606
20
-4.15568
11
5.30902
21
-4.15489
0
LINE
8
BLACK
6
CONTINUOUS
10
5.30902
20
-4.15489
11
5.31197
21
-4.15568
0
LINE
8
BLACK
6
CONTINUOUS
10
5.31197
20
-4.15568
11
5.31413
21
-4.15785
0
LINE
8
BLACK
6
CONTINUOUS
10
5.31413
20
-4.15785
11
5.31492
21
-4.1608
0
LINE
8
BLACK
6
CONTINUOUS
10
5.31492
20
-4.1608
11
5.31492
21
-4.19267
0
LINE
8
BLACK
6
CONTINUOUS
10
5.31492
20
-4.19267
11
5.31413
21
-4.19562
0
LINE
8
BLACK
6
CONTINUOUS
10
5.31413
20
-4.19562
11
5.31197
21
-4.19778
0
LINE
8
BLACK
6
CONTINUOUS
10
5.31197
20
-4.19778
11
5.30902
21
-4.19858
0
LINE
8
BLACK
6
CONTINUOUS
10
5.30902
20
-4.19858
11
5.24209
21
-4.19858
0
LINE
8
BLACK
6
CONTINUOUS
10
5.24209
20
-4.19858
11
5.23914
21
-4.19778
0
LINE
8
BLACK
6
CONTINUOUS
10
5.23914
20
-4.1436
11
5.23697
21
-4.14144
0
LINE
8
BLACK
6
CONTINUOUS
10
5.23697
20
-4.14144
11
5.23618
21
-4.13849
0
LINE
8
BLACK
6
CONTINUOUS
10
5.23618
20
-4.13849
11
5.23618
21
-4.12255
0
LINE
8
BLACK
6
CONTINUOUS
10
5.23618
20
-4.12255
11
5.23643
21
-4.12163
0
LINE
8
BLACK
6
CONTINUOUS
10
5.23643
20
-4.12163
11
5.23649
21
-4.12069
0
LINE
8
BLACK
6
CONTINUOUS
10
5.23649
20
-4.12069
11
5.23967
21
-4.11112
0
LINE
8
BLACK
6
CONTINUOUS
10
5.23967
20
-4.11112
11
5.24042
21
-4.10999
0
LINE
8
BLACK
6
CONTINUOUS
10
5.24042
20
-4.10999
11
5.2411
21
-4.10882
0
LINE
8
BLACK
6
CONTINUOUS
10
5.2411
20
-4.10882
11
5.24747
21
-4.10244
0
LINE
8
BLACK
6
CONTINUOUS
10
5.24747
20
-4.10244
11
5.2483
21
-4.10197
0
LINE
8
BLACK
6
CONTINUOUS
10
5.2483
20
-4.10197
11
5.24901
21
-4.10134
0
LINE
8
BLACK
6
CONTINUOUS
10
5.24901
20
-4.10134
11
5.25538
21
-4.09815
0
LINE
8
BLACK
6
CONTINUOUS
10
5.25538
20
-4.09815
11
5.25602
21
-4.09802
0
LINE
8
BLACK
6
CONTINUOUS
10
5.25602
20
-4.09802
11
5.25659
21
-4.0977
0
LINE
8
BLACK
6
CONTINUOUS
10
5.25659
20
-4.0977
11
5.26934
21
-4.09451
0
LINE
8
BLACK
6
CONTINUOUS
10
5.26934
20
-4.09451
11
5.27007
21
-4.09453
0
LINE
8
BLACK
6
CONTINUOUS
10
5.27007
20
-4.09453
11
5.27077
21
-4.09434
0
LINE
8
BLACK
6
CONTINUOUS
10
5.27077
20
-4.09434
11
5.28033
21
-4.09434
0
LINE
8
BLACK
6
CONTINUOUS
10
5.28033
20
-4.09434
11
5.28104
21
-4.09453
0
LINE
8
BLACK
6
CONTINUOUS
10
5.28104
20
-4.09453
11
5.28177
21
-4.09451
0
LINE
8
BLACK
6
CONTINUOUS
10
5.28177
20
-4.09451
11
5.29451
21
-4.0977
0
LINE
8
BLACK
6
CONTINUOUS
10
5.29451
20
-4.0977
11
5.29508
21
-4.09802
0
LINE
8
BLACK
6
CONTINUOUS
10
5.29508
20
-4.09802
11
5.29572
21
-4.09815
0
LINE
8
BLACK
6
CONTINUOUS
10
5.29572
20
-4.09815
11
5.3021
21
-4.10134
0
LINE
8
BLACK
6
CONTINUOUS
10
5.3021
20
-4.10134
11
5.30281
21
-4.10197
0
LINE
8
BLACK
6
CONTINUOUS
10
5.30281
20
-4.10197
11
5.30363
21
-4.10244
0
LINE
8
BLACK
6
CONTINUOUS
10
5.30363
20
-4.10244
11
5.31001
21
-4.10882
0
LINE
8
BLACK
6
CONTINUOUS
10
5.31001
20
-4.10882
11
5.31069
21
-4.10999
0
LINE
8
BLACK
6
CONTINUOUS
10
5.31069
20
-4.10999
11
5.31143
21
-4.11112
0
LINE
8
BLACK
6
CONTINUOUS
10
5.31143
20
-4.11112
11
5.31462
21
-4.12069
0
LINE
8
BLACK
6
CONTINUOUS
10
5.31462
20
-4.12069
11
5.31468
21
-4.12164
0
LINE
8
BLACK
6
CONTINUOUS
10
5.31468
20
-4.12164
11
5.31492
21
-4.12255
0
LINE
8
BLACK
6
CONTINUOUS
10
5.31492
20
-4.12255
11
5.31492
21
-4.13849
0
LINE
8
BLACK
6
CONTINUOUS
10
5.31492
20
-4.13849
11
5.31413
21
-4.14144
0
LINE
8
BLACK
6
CONTINUOUS
10
5.31413
20
-4.14144
11
5.31197
21
-4.1436
0
LINE
8
BLACK
6
CONTINUOUS
10
5.31197
20
-4.1436
11
5.30902
21
-4.14439
0
LINE
8
BLACK
6
CONTINUOUS
10
5.30902
20
-4.14439
11
5.24209
21
-4.14439
0
LINE
8
BLACK
6
CONTINUOUS
10
5.24209
20
-4.14439
11
5.23914
21
-4.1436
0
LINE
8
BLACK
6
CONTINUOUS
10
5.2715
20
-4.10615
11
5.26009
21
-4.109
0
LINE
8
BLACK
6
CONTINUOUS
10
5.26009
20
-4.109
11
5.25515
21
-4.11147
0
LINE
8
BLACK
6
CONTINUOUS
10
5.25515
20
-4.11147
11
5.25044
21
-4.11618
0
LINE
8
BLACK
6
CONTINUOUS
10
5.25044
20
-4.11618
11
5.24799
21
-4.12351
0
LINE
8
BLACK
6
CONTINUOUS
10
5.24799
20
-4.12351
11
5.24799
21
-4.13258
0
LINE
8
BLACK
6
CONTINUOUS
10
5.24799
20
-4.13258
11
5.30311
21
-4.13258
0
LINE
8
BLACK
6
CONTINUOUS
10
5.30311
20
-4.13258
11
5.30311
21
-4.12351
0
LINE
8
BLACK
6
CONTINUOUS
10
5.30311
20
-4.12351
11
5.30067
21
-4.11618
0
LINE
8
BLACK
6
CONTINUOUS
10
5.30067
20
-4.11618
11
5.29596
21
-4.11147
0
LINE
8
BLACK
6
CONTINUOUS
10
5.29596
20
-4.11147
11
5.29102
21
-4.109
0
LINE
8
BLACK
6
CONTINUOUS
10
5.29102
20
-4.109
11
5.27961
21
-4.10615
0
LINE
8
BLACK
6
CONTINUOUS
10
5.27961
20
-4.10615
11
5.2715
21
-4.10615
0
LINE
8
BLACK
6
CONTINUOUS
10
5.23914
20
-4.07667
11
5.23697
21
-4.07451
0
LINE
8
BLACK
6
CONTINUOUS
10
5.23697
20
-4.07451
11
5.23618
21
-4.07156
0
LINE
8
BLACK
6
CONTINUOUS
10
5.23618
20
-4.07156
11
5.23618
21
-4.03969
0
LINE
8
BLACK
6
CONTINUOUS
10
5.23618
20
-4.03969
11
5.23697
21
-4.03674
0
LINE
8
BLACK
6
CONTINUOUS
10
5.23697
20
-4.03674
11
5.23914
21
-4.03457
0
LINE
8
BLACK
6
CONTINUOUS
10
5.23914
20
-4.03457
11
5.24209
21
-4.03378
0
LINE
8
BLACK
6
CONTINUOUS
10
5.24209
20
-4.03378
11
5.24504
21
-4.03457
0
LINE
8
BLACK
6
CONTINUOUS
10
5.24504
20
-4.03457
11
5.2472
21
-4.03674
0
LINE
8
BLACK
6
CONTINUOUS
10
5.2472
20
-4.03674
11
5.24799
21
-4.03969
0
LINE
8
BLACK
6
CONTINUOUS
10
5.24799
20
-4.03969
11
5.24799
21
-4.06565
0
LINE
8
BLACK
6
CONTINUOUS
10
5.24799
20
-4.06565
11
5.26805
21
-4.06565
0
LINE
8
BLACK
6
CONTINUOUS
10
5.26805
20
-4.06565
11
5.26805
21
-4.04925
0
LINE
8
BLACK
6
CONTINUOUS
10
5.26805
20
-4.04925
11
5.26885
21
-4.0463
0
LINE
8
BLACK
6
CONTINUOUS
10
5.26885
20
-4.0463
11
5.27101
21
-4.04414
0
LINE
8
BLACK
6
CONTINUOUS
10
5.27101
20
-4.04414
11
5.27396
21
-4.04334
0
LINE
8
BLACK
6
CONTINUOUS
10
5.27396
20
-4.04334
11
5.27691
21
-4.04414
0
LINE
8
BLACK
6
CONTINUOUS
10
5.27691
20
-4.04414
11
5.27907
21
-4.0463
0
LINE
8
BLACK
6
CONTINUOUS
10
5.27907
20
-4.0463
11
5.27987
21
-4.04925
0
LINE
8
BLACK
6
CONTINUOUS
10
5.27987
20
-4.04925
11
5.27987
21
-4.06565
0
LINE
8
BLACK
6
CONTINUOUS
10
5.27987
20
-4.06565
11
5.30311
21
-4.06565
0
LINE
8
BLACK
6
CONTINUOUS
10
5.30311
20
-4.06565
11
5.30311
21
-4.03969
0
LINE
8
BLACK
6
CONTINUOUS
10
5.30311
20
-4.03969
11
5.3039
21
-4.03674
0
LINE
8
BLACK
6
CONTINUOUS
10
5.3039
20
-4.03674
11
5.30606
21
-4.03457
0
LINE
8
BLACK
6
CONTINUOUS
10
5.30606
20
-4.03457
11
5.30902
21
-4.03378
0
LINE
8
BLACK
6
CONTINUOUS
10
5.30902
20
-4.03378
11
5.31197
21
-4.03457
0
LINE
8
BLACK
6
CONTINUOUS
10
5.31197
20
-4.03457
11
5.31413
21
-4.03674
0
LINE
8
BLACK
6
CONTINUOUS
10
5.31413
20
-4.03674
11
5.31492
21
-4.03969
0
LINE
8
BLACK
6
CONTINUOUS
10
5.31492
20
-4.03969
11
5.31492
21
-4.07156
0
LINE
8
BLACK
6
CONTINUOUS
10
5.31492
20
-4.07156
11
5.31413
21
-4.07451
0
LINE
8
BLACK
6
CONTINUOUS
10
5.31413
20
-4.07451
11
5.31197
21
-4.07667
0
LINE
8
BLACK
6
CONTINUOUS
10
5.31197
20
-4.07667
11
5.30902
21
-4.07747
0
LINE
8
BLACK
6
CONTINUOUS
10
5.30902
20
-4.07747
11
5.24209
21
-4.07747
0
LINE
8
BLACK
6
CONTINUOUS
10
5.24209
20
-4.07747
11
5.23914
21
-4.07667
0
LINE
8
BLACK
6
CONTINUOUS
10
5.23914
20
-4.01612
11
5.23697
21
-4.01396
0
LINE
8
BLACK
6
CONTINUOUS
10
5.23697
20
-4.01396
11
5.23618
21
-4.011
0
LINE
8
BLACK
6
CONTINUOUS
10
5.23618
20
-4.011
11
5.23618
21
-3.98551
0
LINE
8
BLACK
6
CONTINUOUS
10
5.23618
20
-3.98551
11
5.23653
21
-3.9842
0
LINE
8
BLACK
6
CONTINUOUS
10
5.23653
20
-3.9842
11
5.23681
21
-3.98287
0
LINE
8
BLACK
6
CONTINUOUS
10
5.23681
20
-3.98287
11
5.23999
21
-3.97649
0
LINE
8
BLACK
6
CONTINUOUS
10
5.23999
20
-3.97649
11
5.24062
21
-3.97578
0
LINE
8
BLACK
6
CONTINUOUS
10
5.24062
20
-3.97578
11
5.2411
21
-3.97496
0
LINE
8
BLACK
6
CONTINUOUS
10
5.2411
20
-3.97496
11
5.24429
21
-3.97177
0
LINE
8
BLACK
6
CONTINUOUS
10
5.24429
20
-3.97177
11
5.24511
21
-3.9713
0
LINE
8
BLACK
6
CONTINUOUS
10
5.24511
20
-3.9713
11
5.24582
21
-3.97066
0
LINE
8
BLACK
6
CONTINUOUS
10
5.24582
20
-3.97066
11
5.2522
21
-3.96748
0
LINE
8
BLACK
6
CONTINUOUS
10
5.2522
20
-3.96748
11
5.25353
21
-3.96721
0
LINE
8
BLACK
6
CONTINUOUS
10
5.25353
20
-3.96721
11
5.25484
21
-3.96685
0
LINE
8
BLACK
6
CONTINUOUS
10
5.25484
20
-3.96685
11
5.2644
21
-3.96685
0
LINE
8
BLACK
6
CONTINUOUS
10
5.2644
20
-3.96685
11
5.26571
21
-3.96721
0
LINE
8
BLACK
6
CONTINUOUS
10
5.26571
20
-3.96721
11
5.26704
21
-3.96748
0
LINE
8
BLACK
6
CONTINUOUS
10
5.26704
20
-3.96748
11
5.27341
21
-3.97066
0
LINE
8
BLACK
6
CONTINUOUS
10
5.27341
20
-3.97066
11
5.27412
21
-3.9713
0
LINE
8
BLACK
6
CONTINUOUS
10
5.27412
20
-3.9713
11
5.27495
21
-3.97177
0
LINE
8
BLACK
6
CONTINUOUS
10
5.27495
20
-3.97177
11
5.27814
21
-3.97496
0
LINE
8
BLACK
6
CONTINUOUS
10
5.27814
20
-3.97496
11
5.27861
21
-3.97578
0
LINE
8
BLACK
6
CONTINUOUS
10
5.27861
20
-3.97578
11
5.27924
21
-3.97649
0
LINE
8
BLACK
6
CONTINUOUS
10
5.27924
20
-3.97649
11
5.28243
21
-3.98287
0
LINE
8
BLACK
6
CONTINUOUS
10
5.28243
20
-3.98287
11
5.28266
21
-3.984
0
LINE
8
BLACK
6
CONTINUOUS
10
5.28266
20
-3.984
11
5.30563
21
-3.96792
0
LINE
8
BLACK
6
CONTINUOUS
10
5.30563
20
-3.96792
11
5.3085
21
-3.96688
0
LINE
8
BLACK
6
CONTINUOUS
10
5.3085
20
-3.96688
11
5.31151
21
-3.96741
0
LINE
8
BLACK
6
CONTINUOUS
10
5.31151
20
-3.96741
11
5.31386
21
-3.96937
0
LINE
8
BLACK
6
CONTINUOUS
10
5.31386
20
-3.96937
11
5.3149
21
-3.97225
0
LINE
8
BLACK
6
CONTINUOUS
10
5.3149
20
-3.97225
11
5.31437
21
-3.97526
0
LINE
8
BLACK
6
CONTINUOUS
10
5.31437
20
-3.97526
11
5.3124
21
-3.9776
0
LINE
8
BLACK
6
CONTINUOUS
10
5.3124
20
-3.9776
11
5.28305
21
-3.99814
0
LINE
8
BLACK
6
CONTINUOUS
10
5.28305
20
-3.99814
11
5.28305
21
-4.0051
0
LINE
8
BLACK
6
CONTINUOUS
10
5.28305
20
-4.0051
11
5.30902
21
-4.0051
0
LINE
8
BLACK
6
CONTINUOUS
10
5.30902
20
-4.0051
11
5.31197
21
-4.00589
0
LINE
8
BLACK
6
CONTINUOUS
10
5.31197
20
-4.00589
11
5.31413
21
-4.00805
0
LINE
8
BLACK
6
CONTINUOUS
10
5.31413
20
-4.00805
11
5.31492
21
-4.011
0
LINE
8
BLACK
6
CONTINUOUS
10
5.31492
20
-4.011
11
5.31413
21
-4.01396
0
LINE
8
BLACK
6
CONTINUOUS
10
5.31413
20
-4.01396
11
5.31197
21
-4.01612
0
LINE
8
BLACK
6
CONTINUOUS
10
5.31197
20
-4.01612
11
5.30902
21
-4.01691
0
LINE
8
BLACK
6
CONTINUOUS
10
5.30902
20
-4.01691
11
5.24209
21
-4.01691
0
LINE
8
BLACK
6
CONTINUOUS
10
5.24209
20
-4.01691
11
5.23914
21
-4.01612
0
LINE
8
BLACK
6
CONTINUOUS
10
5.25623
20
-3.97867
11
5.25196
21
-3.9808
0
LINE
8
BLACK
6
CONTINUOUS
10
5.25196
20
-3.9808
11
5.25013
21
-3.98263
0
LINE
8
BLACK
6
CONTINUOUS
10
5.25013
20
-3.98263
11
5.24799
21
-3.9869
0
LINE
8
BLACK
6
CONTINUOUS
10
5.24799
20
-3.9869
11
5.24799
21
-4.0051
0
LINE
8
BLACK
6
CONTINUOUS
10
5.24799
20
-4.0051
11
5.27124
21
-4.0051
0
LINE
8
BLACK
6
CONTINUOUS
10
5.27124
20
-4.0051
11
5.27124
21
-3.9869
0
LINE
8
BLACK
6
CONTINUOUS
10
5.27124
20
-3.9869
11
5.26911
21
-3.98263
0
LINE
8
BLACK
6
CONTINUOUS
10
5.26911
20
-3.98263
11
5.26727
21
-3.9808
0
LINE
8
BLACK
6
CONTINUOUS
10
5.26727
20
-3.9808
11
5.263
21
-3.97867
0
LINE
8
BLACK
6
CONTINUOUS
10
5.263
20
-3.97867
11
5.25623
21
-3.97867
0
LINE
8
BLACK
6
CONTINUOUS
10
5.28422
20
-3.9033
11
5.28495
21
-3.90329
0
LINE
8
BLACK
6
CONTINUOUS
10
5.28495
20
-3.90329
11
5.2977
21
-3.90648
0
LINE
8
BLACK
6
CONTINUOUS
10
5.2977
20
-3.90648
11
5.29827
21
-3.90679
0
LINE
8
BLACK
6
CONTINUOUS
10
5.29827
20
-3.90679
11
5.29891
21
-3.90692
0
LINE
8
BLACK
6
CONTINUOUS
10
5.29891
20
-3.90692
11
5.30528
21
-3.91011
0
LINE
8
BLACK
6
CONTINUOUS
10
5.30528
20
-3.91011
11
5.306
21
-3.91074
0
LINE
8
BLACK
6
CONTINUOUS
10
5.306
20
-3.91074
11
5.30682
21
-3.91122
0
LINE
8
BLACK
6
CONTINUOUS
10
5.30682
20
-3.91122
11
5.31001
21
-3.9144
0
LINE
8
BLACK
6
CONTINUOUS
10
5.31001
20
-3.9144
11
5.31048
21
-3.91523
0
LINE
8
BLACK
6
CONTINUOUS
10
5.31048
20
-3.91523
11
5.31111
21
-3.91594
0
LINE
8
BLACK
6
CONTINUOUS
10
5.31111
20
-3.91594
11
5.3143
21
-3.92231
0
LINE
8
BLACK
6
CONTINUOUS
10
5.3143
20
-3.92231
11
5.31457
21
-3.92364
0
LINE
8
BLACK
6
CONTINUOUS
10
5.31457
20
-3.92364
11
5.31492
21
-3.92495
0
LINE
8
BLACK
6
CONTINUOUS
10
5.31492
20
-3.92495
11
5.31492
21
-3.93133
0
LINE
8
BLACK
6
CONTINUOUS
10
5.31492
20
-3.93133
11
5.31457
21
-3.93264
0
LINE
8
BLACK
6
CONTINUOUS
10
5.31457
20
-3.93264
11
5.3143
21
-3.93397
0
LINE
8
BLACK
6
CONTINUOUS
10
5.3143
20
-3.93397
11
5.31111
21
-3.94034
0
LINE
8
BLACK
6
CONTINUOUS
10
5.31111
20
-3.94034
11
5.31048
21
-3.94105
0
LINE
8
BLACK
6
CONTINUOUS
10
5.31048
20
-3.94105
11
5.31001
21
-3.94188
0
LINE
8
BLACK
6
CONTINUOUS
10
5.31001
20
-3.94188
11
5.30682
21
-3.94506
0
LINE
8
BLACK
6
CONTINUOUS
10
5.30682
20
-3.94506
11
5.306
21
-3.94554
0
LINE
8
BLACK
6
CONTINUOUS
10
5.306
20
-3.94554
11
5.30528
21
-3.94617
0
LINE
8
BLACK
6
CONTINUOUS
10
5.30528
20
-3.94617
11
5.29891
21
-3.94936
0
LINE
8
BLACK
6
CONTINUOUS
10
5.29891
20
-3.94936
11
5.29827
21
-3.94949
0
LINE
8
BLACK
6
CONTINUOUS
10
5.29827
20
-3.94949
11
5.2977
21
-3.9498
0
LINE
8
BLACK
6
CONTINUOUS
10
5.2977
20
-3.9498
11
5.28495
21
-3.95299
0
LINE
8
BLACK
6
CONTINUOUS
10
5.28495
20
-3.95299
11
5.28422
21
-3.95298
0
LINE
8
BLACK
6
CONTINUOUS
10
5.28422
20
-3.95298
11
5.28352
21
-3.95317
0
LINE
8
BLACK
6
CONTINUOUS
10
5.28352
20
-3.95317
11
5.26759
21
-3.95317
0
LINE
8
BLACK
6
CONTINUOUS
10
5.26759
20
-3.95317
11
5.26688
21
-3.95298
0
LINE
8
BLACK
6
CONTINUOUS
10
5.26688
20
-3.95298
11
5.26615
21
-3.95299
0
LINE
8
BLACK
6
CONTINUOUS
10
5.26615
20
-3.95299
11
5.2534
21
-3.9498
0
LINE
8
BLACK
6
CONTINUOUS
10
5.2534
20
-3.9498
11
5.25283
21
-3.94949
0
LINE
8
BLACK
6
CONTINUOUS
10
5.25283
20
-3.94949
11
5.2522
21
-3.94936
0
LINE
8
BLACK
6
CONTINUOUS
10
5.2522
20
-3.94936
11
5.24582
21
-3.94617
0
LINE
8
BLACK
6
CONTINUOUS
10
5.24582
20
-3.94617
11
5.24511
21
-3.94554
0
LINE
8
BLACK
6
CONTINUOUS
10
5.24511
20
-3.94554
11
5.24429
21
-3.94506
0
LINE
8
BLACK
6
CONTINUOUS
10
5.24429
20
-3.94506
11
5.2411
21
-3.94188
0
LINE
8
BLACK
6
CONTINUOUS
10
5.2411
20
-3.94188
11
5.24062
21
-3.94105
0
LINE
8
BLACK
6
CONTINUOUS
10
5.24062
20
-3.94105
11
5.23999
21
-3.94034
0
LINE
8
BLACK
6
CONTINUOUS
10
5.23999
20
-3.94034
11
5.23681
21
-3.93397
0
LINE
8
BLACK
6
CONTINUOUS
10
5.23681
20
-3.93397
11
5.23653
21
-3.93264
0
LINE
8
BLACK
6
CONTINUOUS
10
5.23653
20
-3.93264
11
5.23618
21
-3.93133
0
LINE
8
BLACK
6
CONTINUOUS
10
5.23618
20
-3.93133
11
5.23618
21
-3.92495
0
LINE
8
BLACK
6
CONTINUOUS
10
5.23618
20
-3.92495
11
5.23653
21
-3.92364
0
LINE
8
BLACK
6
CONTINUOUS
10
5.23653
20
-3.92364
11
5.23681
21
-3.92231
0
LINE
8
BLACK
6
CONTINUOUS
10
5.23681
20
-3.92231
11
5.23999
21
-3.91594
0
LINE
8
BLACK
6
CONTINUOUS
10
5.23999
20
-3.91594
11
5.24062
21
-3.91523
0
LINE
8
BLACK
6
CONTINUOUS
10
5.24062
20
-3.91523
11
5.2411
21
-3.9144
0
LINE
8
BLACK
6
CONTINUOUS
10
5.2411
20
-3.9144
11
5.24429
21
-3.91122
0
LINE
8
BLACK
6
CONTINUOUS
10
5.24429
20
-3.91122
11
5.24511
21
-3.91074
0
LINE
8
BLACK
6
CONTINUOUS
10
5.24511
20
-3.91074
11
5.24582
21
-3.91011
0
LINE
8
BLACK
6
CONTINUOUS
10
5.24582
20
-3.91011
11
5.2522
21
-3.90692
0
LINE
8
BLACK
6
CONTINUOUS
10
5.2522
20
-3.90692
11
5.25283
21
-3.90679
0
LINE
8
BLACK
6
CONTINUOUS
10
5.25283
20
-3.90679
11
5.2534
21
-3.90648
0
LINE
8
BLACK
6
CONTINUOUS
10
5.2534
20
-3.90648
11
5.26615
21
-3.90329
0
LINE
8
BLACK
6
CONTINUOUS
10
5.26615
20
-3.90329
11
5.26688
21
-3.9033
0
LINE
8
BLACK
6
CONTINUOUS
10
5.26688
20
-3.9033
11
5.26759
21
-3.90311
0
LINE
8
BLACK
6
CONTINUOUS
10
5.26759
20
-3.90311
11
5.28352
21
-3.90311
0
LINE
8
BLACK
6
CONTINUOUS
10
5.28352
20
-3.90311
11
5.28422
21
-3.9033
0
LINE
8
BLACK
6
CONTINUOUS
10
5.26831
20
-3.91492
11
5.2569
21
-3.91778
0
LINE
8
BLACK
6
CONTINUOUS
10
5.2569
20
-3.91778
11
5.25196
21
-3.92025
0
LINE
8
BLACK
6
CONTINUOUS
10
5.25196
20
-3.92025
11
5.25013
21
-3.92208
0
LINE
8
BLACK
6
CONTINUOUS
10
5.25013
20
-3.92208
11
5.24799
21
-3.92635
0
LINE
8
BLACK
6
CONTINUOUS
10
5.24799
20
-3.92635
11
5.24799
21
-3.92993
0
LINE
8
BLACK
6
CONTINUOUS
10
5.24799
20
-3.92993
11
5.25013
21
-3.9342
0
LINE
8
BLACK
6
CONTINUOUS
10
5.25013
20
-3.9342
11
5.25196
21
-3.93604
0
LINE
8
BLACK
6
CONTINUOUS
10
5.25196
20
-3.93604
11
5.2569
21
-3.9385
0
LINE
8
BLACK
6
CONTINUOUS
10
5.2569
20
-3.9385
11
5.26831
21
-3.94136
0
LINE
8
BLACK
6
CONTINUOUS
10
5.26831
20
-3.94136
11
5.28279
21
-3.94136
0
LINE
8
BLACK
6
CONTINUOUS
10
5.28279
20
-3.94136
11
5.29421
21
-3.9385
0
LINE
8
BLACK
6
CONTINUOUS
10
5.29421
20
-3.9385
11
5.29915
21
-3.93604
0
LINE
8
BLACK
6
CONTINUOUS
10
5.29915
20
-3.93604
11
5.30098
21
-3.9342
0
LINE
8
BLACK
6
CONTINUOUS
10
5.30098
20
-3.9342
11
5.30311
21
-3.92993
0
LINE
8
BLACK
6
CONTINUOUS
10
5.30311
20
-3.92993
11
5.30311
21
-3.92635
0
LINE
8
BLACK
6
CONTINUOUS
10
5.30311
20
-3.92635
11
5.30098
21
-3.92208
0
LINE
8
BLACK
6
CONTINUOUS
10
5.30098
20
-3.92208
11
5.29915
21
-3.92025
0
LINE
8
BLACK
6
CONTINUOUS
10
5.29915
20
-3.92025
11
5.29421
21
-3.91778
0
LINE
8
BLACK
6
CONTINUOUS
10
5.29421
20
-3.91778
11
5.28279
21
-3.91492
0
LINE
8
BLACK
6
CONTINUOUS
10
5.28279
20
-3.91492
11
5.26831
21
-3.91492
0
LINE
8
BLACK
6
CONTINUOUS
10
5.31197
20
-3.84016
11
5.31413
21
-3.84232
0
LINE
8
BLACK
6
CONTINUOUS
10
5.31413
20
-3.84232
11
5.31492
21
-3.84528
0
LINE
8
BLACK
6
CONTINUOUS
10
5.31492
20
-3.84528
11
5.31492
21
-3.88352
0
LINE
8
BLACK
6
CONTINUOUS
10
5.31492
20
-3.88352
11
5.31413
21
-3.88647
0
LINE
8
BLACK
6
CONTINUOUS
10
5.31413
20
-3.88647
11
5.31197
21
-3.88864
0
LINE
8
BLACK
6
CONTINUOUS
10
5.31197
20
-3.88864
11
5.30902
21
-3.88943
0
LINE
8
BLACK
6
CONTINUOUS
10
5.30902
20
-3.88943
11
5.30606
21
-3.88864
0
LINE
8
BLACK
6
CONTINUOUS
10
5.30606
20
-3.88864
11
5.3039
21
-3.88647
0
LINE
8
BLACK
6
CONTINUOUS
10
5.3039
20
-3.88647
11
5.30311
21
-3.88352
0
LINE
8
BLACK
6
CONTINUOUS
10
5.30311
20
-3.88352
11
5.30311
21
-3.8703
0
LINE
8
BLACK
6
CONTINUOUS
10
5.30311
20
-3.8703
11
5.25953
21
-3.8703
0
LINE
8
BLACK
6
CONTINUOUS
10
5.25953
20
-3.8703
11
5.2622
21
-3.87297
0
LINE
8
BLACK
6
CONTINUOUS
10
5.2622
20
-3.87297
11
5.26268
21
-3.87379
0
LINE
8
BLACK
6
CONTINUOUS
10
5.26268
20
-3.87379
11
5.26331
21
-3.87451
0
LINE
8
BLACK
6
CONTINUOUS
10
5.26331
20
-3.87451
11
5.26649
21
-3.88088
0
LINE
8
BLACK
6
CONTINUOUS
10
5.26649
20
-3.88088
11
5.26711
21
-3.88387
0
LINE
8
BLACK
6
CONTINUOUS
10
5.26711
20
-3.88387
11
5.26614
21
-3.88677
0
LINE
8
BLACK
6
CONTINUOUS
10
5.26614
20
-3.88677
11
5.26385
21
-3.8888
0
LINE
8
BLACK
6
CONTINUOUS
10
5.26385
20
-3.8888
11
5.26086
21
-3.88942
0
LINE
8
BLACK
6
CONTINUOUS
10
5.26086
20
-3.88942
11
5.25796
21
-3.88845
0
LINE
8
BLACK
6
CONTINUOUS
10
5.25796
20
-3.88845
11
5.25593
21
-3.88616
0
LINE
8
BLACK
6
CONTINUOUS
10
5.25593
20
-3.88616
11
5.25317
21
-3.88064
0
LINE
8
BLACK
6
CONTINUOUS
10
5.25317
20
-3.88064
11
5.24789
21
-3.87536
0
LINE
8
BLACK
6
CONTINUOUS
10
5.24789
20
-3.87536
11
5.23881
21
-3.86931
0
LINE
8
BLACK
6
CONTINUOUS
10
5.23881
20
-3.86931
11
5.23793
21
-3.8683
0
LINE
8
BLACK
6
CONTINUOUS
10
5.23793
20
-3.8683
11
5.23697
21
-3.86735
0
LINE
8
BLACK
6
CONTINUOUS
10
5.23697
20
-3.86735
11
5.23692
21
-3.86716
0
LINE
8
BLACK
6
CONTINUOUS
10
5.23692
20
-3.86716
11
5.23679
21
-3.86702
0
LINE
8
BLACK
6
CONTINUOUS
10
5.23679
20
-3.86702
11
5.23653
21
-3.8657
0
LINE
8
BLACK
6
CONTINUOUS
10
5.23653
20
-3.8657
11
5.23618
21
-3.8644
0
LINE
8
BLACK
6
CONTINUOUS
10
5.23618
20
-3.8644
11
5.23623
21
-3.86421
0
LINE
8
BLACK
6
CONTINUOUS
10
5.23623
20
-3.86421
11
5.2362
21
-3.86402
0
LINE
8
BLACK
6
CONTINUOUS
10
5.2362
20
-3.86402
11
5.23663
21
-3.86274
0
LINE
8
BLACK
6
CONTINUOUS
10
5.23663
20
-3.86274
11
5.23697
21
-3.86145
0
LINE
8
BLACK
6
CONTINUOUS
10
5.23697
20
-3.86145
11
5.23711
21
-3.86131
0
LINE
8
BLACK
6
CONTINUOUS
10
5.23711
20
-3.86131
11
5.23717
21
-3.86112
0
LINE
8
BLACK
6
CONTINUOUS
10
5.23717
20
-3.86112
11
5.23818
21
-3.86023
0
LINE
8
BLACK
6
CONTINUOUS
10
5.23818
20
-3.86023
11
5.23914
21
-3.85928
0
LINE
8
BLACK
6
CONTINUOUS
10
5.23914
20
-3.85928
11
5.23932
21
-3.85923
0
LINE
8
BLACK
6
CONTINUOUS
10
5.23932
20
-3.85923
11
5.23947
21
-3.8591
0
LINE
8
BLACK
6
CONTINUOUS
10
5.23947
20
-3.8591
11
5.24079
21
-3.85884
0
LINE
8
BLACK
6
CONTINUOUS
10
5.24079
20
-3.85884
11
5.24209
21
-3.85849
0
LINE
8
BLACK
6
CONTINUOUS
10
5.24209
20
-3.85849
11
5.30311
21
-3.85849
0
LINE
8
BLACK
6
CONTINUOUS
10
5.30311
20
-3.85849
11
5.30311
21
-3.84528
0
LINE
8
BLACK
6
CONTINUOUS
10
5.30311
20
-3.84528
11
5.3039
21
-3.84232
0
LINE
8
BLACK
6
CONTINUOUS
10
5.3039
20
-3.84232
11
5.30606
21
-3.84016
0
LINE
8
BLACK
6
CONTINUOUS
10
5.30606
20
-3.84016
11
5.30902
21
-3.83937
0
LINE
8
BLACK
6
CONTINUOUS
10
5.30902
20
-3.83937
11
5.31197
21
-3.84016
0
LINE
8
BLACK
6
CONTINUOUS
10
5.31294
20
-3.77712
11
5.31462
21
-3.77967
0
LINE
8
BLACK
6
CONTINUOUS
10
5.31462
20
-3.77967
11
5.3148
21
-3.78272
0
LINE
8
BLACK
6
CONTINUOUS
10
5.3148
20
-3.78272
11
5.31344
21
-3.78545
0
LINE
8
BLACK
6
CONTINUOUS
10
5.31344
20
-3.78545
11
5.31089
21
-3.78714
0
LINE
8
BLACK
6
CONTINUOUS
10
5.31089
20
-3.78714
11
5.2958
21
-3.79216
0
LINE
8
BLACK
6
CONTINUOUS
10
5.2958
20
-3.79216
11
5.2958
21
-3.81552
0
LINE
8
BLACK
6
CONTINUOUS
10
5.2958
20
-3.81552
11
5.31089
21
-3.82055
0
LINE
8
BLACK
6
CONTINUOUS
10
5.31089
20
-3.82055
11
5.31344
21
-3.82223
0
LINE
8
BLACK
6
CONTINUOUS
10
5.31344
20
-3.82223
11
5.3148
21
-3.82497
0
LINE
8
BLACK
6
CONTINUOUS
10
5.3148
20
-3.82497
11
5.31462
21
-3.82802
0
LINE
8
BLACK
6
CONTINUOUS
10
5.31462
20
-3.82802
11
5.31294
21
-3.83057
0
LINE
8
BLACK
6
CONTINUOUS
10
5.31294
20
-3.83057
11
5.3102
21
-3.83194
0
LINE
8
BLACK
6
CONTINUOUS
10
5.3102
20
-3.83194
11
5.30715
21
-3.83176
0
LINE
8
BLACK
6
CONTINUOUS
10
5.30715
20
-3.83176
11
5.24022
21
-3.80945
0
LINE
8
BLACK
6
CONTINUOUS
10
5.24022
20
-3.80945
11
5.23923
21
-3.80879
0
LINE
8
BLACK
6
CONTINUOUS
10
5.23923
20
-3.80879
11
5.23817
21
-3.80826
0
LINE
8
BLACK
6
CONTINUOUS
10
5.23817
20
-3.80826
11
5.23797
21
-3.80796
0
LINE
8
BLACK
6
CONTINUOUS
10
5.23797
20
-3.80796
11
5.23767
21
-3.80776
0
LINE
8
BLACK
6
CONTINUOUS
10
5.23767
20
-3.80776
11
5.23714
21
-3.8067
0
LINE
8
BLACK
6
CONTINUOUS
10
5.23714
20
-3.8067
11
5.23649
21
-3.80571
0
LINE
8
BLACK
6
CONTINUOUS
10
5.23649
20
-3.80571
11
5.23646
21
-3.80535
0
LINE
8
BLACK
6
CONTINUOUS
10
5.23646
20
-3.80535
11
5.2363
21
-3.80503
0
LINE
8
BLACK
6
CONTINUOUS
10
5.2363
20
-3.80503
11
5.23637
21
-3.80384
0
LINE
8
BLACK
6
CONTINUOUS
10
5.23637
20
-3.80384
11
5.2363
21
-3.80266
0
LINE
8
BLACK
6
CONTINUOUS
10
5.2363
20
-3.80266
11
5.23646
21
-3.80234
0
LINE
8
BLACK
6
CONTINUOUS
10
5.23646
20
-3.80234
11
5.23649
21
-3.80198
0
LINE
8
BLACK
6
CONTINUOUS
10
5.23649
20
-3.80198
11
5.23714
21
-3.80099
0
LINE
8
BLACK
6
CONTINUOUS
10
5.23714
20
-3.80099
11
5.23767
21
-3.79993
0
LINE
8
BLACK
6
CONTINUOUS
10
5.23767
20
-3.79993
11
5.23797
21
-3.79973
0
LINE
8
BLACK
6
CONTINUOUS
10
5.23797
20
-3.79973
11
5.23817
21
-3.79942
0
LINE
8
BLACK
6
CONTINUOUS
10
5.23817
20
-3.79942
11
5.23923
21
-3.79889
0
LINE
8
BLACK
6
CONTINUOUS
10
5.23923
20
-3.79889
11
5.24022
21
-3.79824
0
LINE
8
BLACK
6
CONTINUOUS
10
5.24022
20
-3.79824
11
5.30715
21
-3.77593
0
LINE
8
BLACK
6
CONTINUOUS
10
5.30715
20
-3.77593
11
5.3102
21
-3.77575
0
LINE
8
BLACK
6
CONTINUOUS
10
5.3102
20
-3.77575
11
5.31294
21
-3.77712
0
LINE
8
BLACK
6
CONTINUOUS
10
5.26076
20
-3.80384
11
5.28399
21
-3.81159
0
LINE
8
BLACK
6
CONTINUOUS
10
5.28399
20
-3.81159
11
5.28399
21
-3.7961
0
LINE
8
BLACK
6
CONTINUOUS
10
5.28399
20
-3.7961
11
5.26076
21
-3.80384
0
LINE
8
BLACK
6
CONTINUOUS
10
4.88621
20
-2.9479
11
4.88634
21
-2.94788
0
LINE
8
BLACK
6
CONTINUOUS
10
4.88634
20
-2.94788
11
4.88645
21
-2.94795
0
LINE
8
BLACK
6
CONTINUOUS
10
4.88645
20
-2.94795
11
4.88684
21
-2.94801
0
LINE
8
BLACK
6
CONTINUOUS
10
4.88684
20
-2.94801
11
4.88742
21
-2.94851
0
LINE
8
BLACK
6
CONTINUOUS
10
4.88742
20
-2.94851
11
4.88809
21
-2.94889
0
LINE
8
BLACK
6
CONTINUOUS
10
4.88809
20
-2.94889
11
4.88818
21
-2.94914
0
LINE
8
BLACK
6
CONTINUOUS
10
4.88818
20
-2.94914
11
4.88838
21
-2.94931
0
LINE
8
BLACK
6
CONTINUOUS
10
4.88838
20
-2.94931
11
4.88852
21
-2.95007
0
LINE
8
BLACK
6
CONTINUOUS
10
4.88852
20
-2.95007
11
4.88878
21
-2.95079
0
LINE
8
BLACK
6
CONTINUOUS
10
4.88878
20
-2.95079
11
4.88878
21
-3.04528
0
LINE
8
BLACK
6
CONTINUOUS
10
4.88878
20
-3.04528
11
4.88871
21
-3.04566
0
LINE
8
BLACK
6
CONTINUOUS
10
4.88871
20
-3.04566
11
4.88873
21
-3.04579
0
LINE
8
BLACK
6
CONTINUOUS
10
4.88873
20
-3.04579
11
4.88867
21
-3.0459
0
LINE
8
BLACK
6
CONTINUOUS
10
4.88867
20
-3.0459
11
4.8886
21
-3.04629
0
LINE
8
BLACK
6
CONTINUOUS
10
4.8886
20
-3.04629
11
4.88811
21
-3.04687
0
LINE
8
BLACK
6
CONTINUOUS
10
4.88811
20
-3.04687
11
4.88772
21
-3.04754
0
LINE
8
BLACK
6
CONTINUOUS
10
4.88772
20
-3.04754
11
4.88747
21
-3.04763
0
LINE
8
BLACK
6
CONTINUOUS
10
4.88747
20
-3.04763
11
4.8873
21
-3.04783
0
LINE
8
BLACK
6
CONTINUOUS
10
4.8873
20
-3.04783
11
4.88655
21
-3.04797
0
LINE
8
BLACK
6
CONTINUOUS
10
4.88655
20
-3.04797
11
4.88583
21
-3.04823
0
LINE
8
BLACK
6
CONTINUOUS
10
4.88583
20
-3.04823
11
4.72047
21
-3.04823
0
LINE
8
BLACK
6
CONTINUOUS
10
4.72047
20
-3.04823
11
4.72009
21
-3.04816
0
LINE
8
BLACK
6
CONTINUOUS
10
4.72009
20
-3.04816
11
4.71996
21
-3.04818
0
LINE
8
BLACK
6
CONTINUOUS
10
4.71996
20
-3.04818
11
4.71985
21
-3.04812
0
LINE
8
BLACK
6
CONTINUOUS
10
4.71985
20
-3.04812
11
4.71946
21
-3.04805
0
LINE
8
BLACK
6
CONTINUOUS
10
4.71946
20
-3.04805
11
4.71887
21
-3.04756
0
LINE
8
BLACK
6
CONTINUOUS
10
4.71887
20
-3.04756
11
4.71821
21
-3.04717
0
LINE
8
BLACK
6
CONTINUOUS
10
4.71821
20
-3.04717
11
4.71812
21
-3.04692
0
LINE
8
BLACK
6
CONTINUOUS
10
4.71812
20
-3.04692
11
4.71792
21
-3.04675
0
LINE
8
BLACK
6
CONTINUOUS
10
4.71792
20
-3.04675
11
4.71778
21
-3.046
0
LINE
8
BLACK
6
CONTINUOUS
10
4.71778
20
-3.046
11
4.71752
21
-3.04528
0
LINE
8
BLACK
6
CONTINUOUS
10
4.71752
20
-3.04528
11
4.71752
21
-2.95079
0
LINE
8
BLACK
6
CONTINUOUS
10
4.71752
20
-2.95079
11
4.71759
21
-2.9504
0
LINE
8
BLACK
6
CONTINUOUS
10
4.71759
20
-2.9504
11
4.71756
21
-2.95027
0
LINE
8
BLACK
6
CONTINUOUS
10
4.71756
20
-2.95027
11
4.71763
21
-2.95016
0
LINE
8
BLACK
6
CONTINUOUS
10
4.71763
20
-2.95016
11
4.7177
21
-2.94978
0
LINE
8
BLACK
6
CONTINUOUS
10
4.7177
20
-2.94978
11
4.71819
21
-2.94919
0
LINE
8
BLACK
6
CONTINUOUS
10
4.71819
20
-2.94919
11
4.71857
21
-2.94853
0
LINE
8
BLACK
6
CONTINUOUS
10
4.71857
20
-2.94853
11
4.71882
21
-2.94843
0
LINE
8
BLACK
6
CONTINUOUS
10
4.71882
20
-2.94843
11
4.719
21
-2.94823
0
LINE
8
BLACK
6
CONTINUOUS
10
4.719
20
-2.94823
11
4.71975
21
-2.9481
0
LINE
8
BLACK
6
CONTINUOUS
10
4.71975
20
-2.9481
11
4.72047
21
-2.94783
0
LINE
8
BLACK
6
CONTINUOUS
10
4.72047
20
-2.94783
11
4.88583
21
-2.94783
0
LINE
8
BLACK
6
CONTINUOUS
10
4.88583
20
-2.94783
11
4.88621
21
-2.9479
0
LINE
8
BLACK
6
CONTINUOUS
10
4.72343
20
-2.95374
11
4.72343
21
-3.04232
0
LINE
8
BLACK
6
CONTINUOUS
10
4.72343
20
-3.04232
11
4.88287
21
-3.04232
0
LINE
8
BLACK
6
CONTINUOUS
10
4.88287
20
-3.04232
11
4.88287
21
-2.95374
0
LINE
8
BLACK
6
CONTINUOUS
10
4.88287
20
-2.95374
11
4.72343
21
-2.95374
  0
ENDSEC
  0
EOF
