  0
SECTION
  2
HEADER
  9
$ANGBASE
  50
0.0
  9
$ANGDIR
  70
1
  9
$MEASUREMENT
  70
0
  0
ENDSEC
  0
SECTION
  2
TABLES
  0
TABLE
  2
LTYPE
  70
4
  0
LTYPE
  5
40F
  2
CONTINUOUS
  70
0
  3
Solid line
  72
65
  73
0
  40
0.0
  0
LTYPE
  5
410
  2
DASHDOT
 70
0
  3
Dash Dot ____ _ ____ _
 72
65
 73
4
 40
2.0
 49
1.25
 49
-0.25
 49
0.25
 49
-0.25
  0
LTYPE
  5
411
  2
DASHED
 70
0
  3
Dashed __ __ __ __ __
 72
65
 73
2
 40
0.75
 49
0.5
 49
-0.25
  0
LTYPE
  5
43B
  2
DOTTED
 70
0
  3
Dotted .  .  .  .
 72
65
 73
2
 40
0.2
 49
0.0
 49
-0.2
  0
ENDTAB
  0
TABLE
  2
STYLE
  70
4
  0
STYLE
  2
KICAD
  70
0
  40
0
  41
1
  42
1
  50
0
  71
0
  3
isocp.shx
  0
STYLE
  2
KICADB
  70
0
  40
0
  41
1
  42
1
  50
0
  71
0
  3
isocp.shx
  0
STYLE
  2
KICADI
  70
0
  40
0
  41
1
  42
1
  50
15
  71
0
  3
isocp.shx
  0
STYLE
  2
KICADBI
  70
0
  40
0
  41
1
  42
1
  50
15
  71
0
  3
isocp.shx
  0
ENDTAB
  0
TABLE
  2
LAYER
  70
1
  0
LAYER
  2
BLACK
  70
0
  62
7
  6
CONTINUOUS
  0
ENDTAB
  0
ENDSEC
  0
SECTION
  2
ENTITIES
0
LINE
8
BLACK
6
CONTINUOUS
10
4.50374
20
-4.25154
11
4.51722
21
-4.25332
0
LINE
8
BLACK
6
CONTINUOUS
10
4.51722
20
-4.25332
11
4.53041
21
-4.25663
0
LINE
8
BLACK
6
CONTINUOUS
10
4.53041
20
-4.25663
11
4.54313
21
-4.26144
0
LINE
8
BLACK
6
CONTINUOUS
10
4.54313
20
-4.26144
11
4.55521
21
-4.26767
0
LINE
8
BLACK
6
CONTINUOUS
10
4.55521
20
-4.26767
11
4.5665
21
-4.27526
0
LINE
8
BLACK
6
CONTINUOUS
10
4.5665
20
-4.27526
11
4.57683
21
-4.28409
0
LINE
8
BLACK
6
CONTINUOUS
10
4.57683
20
-4.28409
11
4.58609
21
-4.29405
0
LINE
8
BLACK
6
CONTINUOUS
10
4.58609
20
-4.29405
11
4.59414
21
-4.30501
0
LINE
8
BLACK
6
CONTINUOUS
10
4.59414
20
-4.30501
11
4.60088
21
-4.31682
0
LINE
8
BLACK
6
CONTINUOUS
10
4.60088
20
-4.31682
11
4.60621
21
-4.32933
0
LINE
8
BLACK
6
CONTINUOUS
10
4.60621
20
-4.32933
11
4.61008
21
-4.34237
0
LINE
8
BLACK
6
CONTINUOUS
10
4.61008
20
-4.34237
11
4.61241
21
-4.35576
0
LINE
8
BLACK
6
CONTINUOUS
10
4.61241
20
-4.35576
11
4.6132
21
-4.36934
0
LINE
8
BLACK
6
CONTINUOUS
10
4.6132
20
-4.36934
11
4.61296
21
-4.37675
0
LINE
8
BLACK
6
CONTINUOUS
10
4.61296
20
-4.37675
11
4.61133
21
-4.39025
0
LINE
8
BLACK
6
CONTINUOUS
10
4.61133
20
-4.39025
11
4.60816
21
-4.40347
0
LINE
8
BLACK
6
CONTINUOUS
10
4.60816
20
-4.40347
11
4.60348
21
-4.41624
0
LINE
8
BLACK
6
CONTINUOUS
10
4.60348
20
-4.41624
11
4.59737
21
-4.42839
0
LINE
8
BLACK
6
CONTINUOUS
10
4.59737
20
-4.42839
11
4.58991
21
-4.43976
0
LINE
8
BLACK
6
CONTINUOUS
10
4.58991
20
-4.43976
11
4.58118
21
-4.45019
0
LINE
8
BLACK
6
CONTINUOUS
10
4.58118
20
-4.45019
11
4.57132
21
-4.45955
0
LINE
8
BLACK
6
CONTINUOUS
10
4.57132
20
-4.45955
11
4.56045
21
-4.46771
0
LINE
8
BLACK
6
CONTINUOUS
10
4.56045
20
-4.46771
11
4.54871
21
-4.47457
0
LINE
8
BLACK
6
CONTINUOUS
10
4.54871
20
-4.47457
11
4.53626
21
-4.48004
0
LINE
8
BLACK
6
CONTINUOUS
10
4.53626
20
-4.48004
11
4.52326
21
-4.48404
0
LINE
8
BLACK
6
CONTINUOUS
10
4.52326
20
-4.48404
11
4.50989
21
-4.48652
0
LINE
8
BLACK
6
CONTINUOUS
10
4.50989
20
-4.48652
11
4.49632
21
-4.48744
0
LINE
8
BLACK
6
CONTINUOUS
10
4.49632
20
-4.48744
11
4.48274
21
-4.4868
0
LINE
8
BLACK
6
CONTINUOUS
10
4.48274
20
-4.4868
11
4.46932
21
-4.4846
0
LINE
8
BLACK
6
CONTINUOUS
10
4.46932
20
-4.4846
11
4.45624
21
-4.48088
0
LINE
8
BLACK
6
CONTINUOUS
10
4.45624
20
-4.48088
11
4.44368
21
-4.47567
0
LINE
8
BLACK
6
CONTINUOUS
10
4.44368
20
-4.47567
11
4.4318
21
-4.46906
0
LINE
8
BLACK
6
CONTINUOUS
10
4.4318
20
-4.46906
11
4.42076
21
-4.46113
0
LINE
8
BLACK
6
CONTINUOUS
10
4.42076
20
-4.46113
11
4.4107
21
-4.45197
0
LINE
8
BLACK
6
CONTINUOUS
10
4.4107
20
-4.45197
11
4.40176
21
-4.44173
0
LINE
8
BLACK
6
CONTINUOUS
10
4.40176
20
-4.44173
11
4.39406
21
-4.43052
0
LINE
8
BLACK
6
CONTINUOUS
10
4.39406
20
-4.43052
11
4.3877
21
-4.4185
0
LINE
8
BLACK
6
CONTINUOUS
10
4.3877
20
-4.4185
11
4.38276
21
-4.40583
0
LINE
8
BLACK
6
CONTINUOUS
10
4.38276
20
-4.40583
11
4.37931
21
-4.39268
0
LINE
8
BLACK
6
CONTINUOUS
10
4.37931
20
-4.39268
11
4.37739
21
-4.37922
0
LINE
8
BLACK
6
CONTINUOUS
10
4.37739
20
-4.37922
11
4.37703
21
-4.36563
0
LINE
8
BLACK
6
CONTINUOUS
10
4.37703
20
-4.36563
11
4.37824
21
-4.35208
0
LINE
8
BLACK
6
CONTINUOUS
10
4.37824
20
-4.35208
11
4.381
21
-4.33877
0
LINE
8
BLACK
6
CONTINUOUS
10
4.381
20
-4.33877
11
4.38527
21
-4.32586
0
LINE
8
BLACK
6
CONTINUOUS
10
4.38527
20
-4.32586
11
4.39099
21
-4.31352
0
LINE
8
BLACK
6
CONTINUOUS
10
4.39099
20
-4.31352
11
4.3981
21
-4.30193
0
LINE
8
BLACK
6
CONTINUOUS
10
4.3981
20
-4.30193
11
4.40649
21
-4.29123
0
LINE
8
BLACK
6
CONTINUOUS
10
4.40649
20
-4.29123
11
4.41605
21
-4.28156
0
LINE
8
BLACK
6
CONTINUOUS
10
4.41605
20
-4.28156
11
4.42667
21
-4.27306
0
LINE
8
BLACK
6
CONTINUOUS
10
4.42667
20
-4.27306
11
4.43819
21
-4.26584
0
LINE
8
BLACK
6
CONTINUOUS
10
4.43819
20
-4.26584
11
4.45046
21
-4.25998
0
LINE
8
BLACK
6
CONTINUOUS
10
4.45046
20
-4.25998
11
4.46332
21
-4.25558
0
LINE
8
BLACK
6
CONTINUOUS
10
4.46332
20
-4.25558
11
4.47661
21
-4.25268
0
LINE
8
BLACK
6
CONTINUOUS
10
4.47661
20
-4.25268
11
4.49014
21
-4.25133
0
LINE
8
BLACK
6
CONTINUOUS
10
4.49014
20
-4.25133
11
4.50374
21
-4.25154
0
LINE
8
BLACK
6
CONTINUOUS
10
4.92283
20
-3.3378
11
4.88346
21
-3.3378
0
LINE
8
BLACK
6
CONTINUOUS
10
4.88346
20
-3.3378
11
4.88346
21
-3.23898
0
LINE
8
BLACK
6
CONTINUOUS
10
4.88346
20
-3.23898
11
4.92283
21
-3.23898
0
LINE
8
BLACK
6
CONTINUOUS
10
4.92283
20
-3.23898
11
4.92283
21
-3.3378
0
LINE
8
BLACK
6
CONTINUOUS
10
4.72283
20
-3.3378
11
4.68346
21
-3.3378
0
LINE
8
BLACK
6
CONTINUOUS
10
4.68346
20
-3.3378
11
4.68346
21
-3.23898
0
LINE
8
BLACK
6
CONTINUOUS
10
4.68346
20
-3.23898
11
4.72283
21
-3.23898
0
LINE
8
BLACK
6
CONTINUOUS
10
4.72283
20
-3.23898
11
4.72283
21
-3.3378
0
LINE
8
BLACK
6
CONTINUOUS
10
4.82283
20
-3.20748
11
4.78346
21
-3.20748
0
LINE
8
BLACK
6
CONTINUOUS
10
4.78346
20
-3.20748
11
4.78346
21
-3.10866
0
LINE
8
BLACK
6
CONTINUOUS
10
4.78346
20
-3.10866
11
4.82283
21
-3.10866
0
LINE
8
BLACK
6
CONTINUOUS
10
4.82283
20
-3.10866
11
4.82283
21
-3.20748
0
LINE
8
BLACK
6
CONTINUOUS
10
4.50374
20
-2.65154
11
4.51722
21
-2.65332
0
LINE
8
BLACK
6
CONTINUOUS
10
4.51722
20
-2.65332
11
4.53041
21
-2.65663
0
LINE
8
BLACK
6
CONTINUOUS
10
4.53041
20
-2.65663
11
4.54313
21
-2.66144
0
LINE
8
BLACK
6
CONTINUOUS
10
4.54313
20
-2.66144
11
4.55521
21
-2.66767
0
LINE
8
BLACK
6
CONTINUOUS
10
4.55521
20
-2.66767
11
4.5665
21
-2.67526
0
LINE
8
BLACK
6
CONTINUOUS
10
4.5665
20
-2.67526
11
4.57683
21
-2.68409
0
LINE
8
BLACK
6
CONTINUOUS
10
4.57683
20
-2.68409
11
4.58609
21
-2.69405
0
LINE
8
BLACK
6
CONTINUOUS
10
4.58609
20
-2.69405
11
4.59414
21
-2.70501
0
LINE
8
BLACK
6
CONTINUOUS
10
4.59414
20
-2.70501
11
4.60088
21
-2.71682
0
LINE
8
BLACK
6
CONTINUOUS
10
4.60088
20
-2.71682
11
4.60621
21
-2.72933
0
LINE
8
BLACK
6
CONTINUOUS
10
4.60621
20
-2.72933
11
4.61008
21
-2.74237
0
LINE
8
BLACK
6
CONTINUOUS
10
4.61008
20
-2.74237
11
4.61241
21
-2.75576
0
LINE
8
BLACK
6
CONTINUOUS
10
4.61241
20
-2.75576
11
4.6132
21
-2.76934
0
LINE
8
BLACK
6
CONTINUOUS
10
4.6132
20
-2.76934
11
4.61296
21
-2.77675
0
LINE
8
BLACK
6
CONTINUOUS
10
4.61296
20
-2.77675
11
4.61133
21
-2.79025
0
LINE
8
BLACK
6
CONTINUOUS
10
4.61133
20
-2.79025
11
4.60816
21
-2.80347
0
LINE
8
BLACK
6
CONTINUOUS
10
4.60816
20
-2.80347
11
4.60348
21
-2.81624
0
LINE
8
BLACK
6
CONTINUOUS
10
4.60348
20
-2.81624
11
4.59737
21
-2.82839
0
LINE
8
BLACK
6
CONTINUOUS
10
4.59737
20
-2.82839
11
4.58991
21
-2.83976
0
LINE
8
BLACK
6
CONTINUOUS
10
4.58991
20
-2.83976
11
4.58118
21
-2.85019
0
LINE
8
BLACK
6
CONTINUOUS
10
4.58118
20
-2.85019
11
4.57132
21
-2.85955
0
LINE
8
BLACK
6
CONTINUOUS
10
4.57132
20
-2.85955
11
4.56045
21
-2.86771
0
LINE
8
BLACK
6
CONTINUOUS
10
4.56045
20
-2.86771
11
4.54871
21
-2.87457
0
LINE
8
BLACK
6
CONTINUOUS
10
4.54871
20
-2.87457
11
4.53626
21
-2.88004
0
LINE
8
BLACK
6
CONTINUOUS
10
4.53626
20
-2.88004
11
4.52326
21
-2.88404
0
LINE
8
BLACK
6
CONTINUOUS
10
4.52326
20
-2.88404
11
4.50989
21
-2.88652
0
LINE
8
BLACK
6
CONTINUOUS
10
4.50989
20
-2.88652
11
4.49632
21
-2.88744
0
LINE
8
BLACK
6
CONTINUOUS
10
4.49632
20
-2.88744
11
4.48274
21
-2.8868
0
LINE
8
BLACK
6
CONTINUOUS
10
4.48274
20
-2.8868
11
4.46932
21
-2.8846
0
LINE
8
BLACK
6
CONTINUOUS
10
4.46932
20
-2.8846
11
4.45624
21
-2.88088
0
LINE
8
BLACK
6
CONTINUOUS
10
4.45624
20
-2.88088
11
4.44368
21
-2.87567
0
LINE
8
BLACK
6
CONTINUOUS
10
4.44368
20
-2.87567
11
4.4318
21
-2.86906
0
LINE
8
BLACK
6
CONTINUOUS
10
4.4318
20
-2.86906
11
4.42076
21
-2.86113
0
LINE
8
BLACK
6
CONTINUOUS
10
4.42076
20
-2.86113
11
4.4107
21
-2.85197
0
LINE
8
BLACK
6
CONTINUOUS
10
4.4107
20
-2.85197
11
4.40176
21
-2.84173
0
LINE
8
BLACK
6
CONTINUOUS
10
4.40176
20
-2.84173
11
4.39406
21
-2.83052
0
LINE
8
BLACK
6
CONTINUOUS
10
4.39406
20
-2.83052
11
4.3877
21
-2.8185
0
LINE
8
BLACK
6
CONTINUOUS
10
4.3877
20
-2.8185
11
4.38276
21
-2.80583
0
LINE
8
BLACK
6
CONTINUOUS
10
4.38276
20
-2.80583
11
4.37931
21
-2.79268
0
LINE
8
BLACK
6
CONTINUOUS
10
4.37931
20
-2.79268
11
4.37739
21
-2.77922
0
LINE
8
BLACK
6
CONTINUOUS
10
4.37739
20
-2.77922
11
4.37703
21
-2.76563
0
LINE
8
BLACK
6
CONTINUOUS
10
4.37703
20
-2.76563
11
4.37824
21
-2.75208
0
LINE
8
BLACK
6
CONTINUOUS
10
4.37824
20
-2.75208
11
4.381
21
-2.73877
0
LINE
8
BLACK
6
CONTINUOUS
10
4.381
20
-2.73877
11
4.38527
21
-2.72586
0
LINE
8
BLACK
6
CONTINUOUS
10
4.38527
20
-2.72586
11
4.39099
21
-2.71352
0
LINE
8
BLACK
6
CONTINUOUS
10
4.39099
20
-2.71352
11
4.3981
21
-2.70193
0
LINE
8
BLACK
6
CONTINUOUS
10
4.3981
20
-2.70193
11
4.40649
21
-2.69123
0
LINE
8
BLACK
6
CONTINUOUS
10
4.40649
20
-2.69123
11
4.41605
21
-2.68156
0
LINE
8
BLACK
6
CONTINUOUS
10
4.41605
20
-2.68156
11
4.42667
21
-2.67306
0
LINE
8
BLACK
6
CONTINUOUS
10
4.42667
20
-2.67306
11
4.43819
21
-2.66584
0
LINE
8
BLACK
6
CONTINUOUS
10
4.43819
20
-2.66584
11
4.45046
21
-2.65998
0
LINE
8
BLACK
6
CONTINUOUS
10
4.45046
20
-2.65998
11
4.46332
21
-2.65558
0
LINE
8
BLACK
6
CONTINUOUS
10
4.46332
20
-2.65558
11
4.47661
21
-2.65268
0
LINE
8
BLACK
6
CONTINUOUS
10
4.47661
20
-2.65268
11
4.49014
21
-2.65133
0
LINE
8
BLACK
6
CONTINUOUS
10
4.49014
20
-2.65133
11
4.50374
21
-2.65154
  0
ENDSEC
  0
EOF
