  0
SECTION
  2
HEADER
  9
$ANGBASE
  50
0.0
  9
$ANGDIR
  70
1
  9
$MEASUREMENT
  70
0
  0
ENDSEC
  0
SECTION
  2
TABLES
  0
TABLE
  2
LTYPE
  70
4
  0
LTYPE
  5
40F
  2
CONTINUOUS
  70
0
  3
Solid line
  72
65
  73
0
  40
0.0
  0
LTYPE
  5
410
  2
DASHDOT
 70
0
  3
Dash Dot ____ _ ____ _
 72
65
 73
4
 40
2.0
 49
1.25
 49
-0.25
 49
0.25
 49
-0.25
  0
LTYPE
  5
411
  2
DASHED
 70
0
  3
Dashed __ __ __ __ __
 72
65
 73
2
 40
0.75
 49
0.5
 49
-0.25
  0
LTYPE
  5
43B
  2
DOTTED
 70
0
  3
Dotted .  .  .  .
 72
65
 73
2
 40
0.2
 49
0.0
 49
-0.2
  0
ENDTAB
  0
TABLE
  2
STYLE
  70
4
  0
STYLE
  2
KICAD
  70
0
  40
0
  41
1
  42
1
  50
0
  71
0
  3
isocp.shx
  0
STYLE
  2
KICADB
  70
0
  40
0
  41
1
  42
1
  50
0
  71
0
  3
isocp.shx
  0
STYLE
  2
KICADI
  70
0
  40
0
  41
1
  42
1
  50
15
  71
0
  3
isocp.shx
  0
STYLE
  2
KICADBI
  70
0
  40
0
  41
1
  42
1
  50
15
  71
0
  3
isocp.shx
  0
ENDTAB
  0
TABLE
  2
LAYER
  70
1
  0
LAYER
  2
BLACK
  70
0
  62
7
  6
CONTINUOUS
  0
ENDTAB
  0
ENDSEC
  0
SECTION
  2
ENTITIES
0
LINE
8
BLACK
6
CONTINUOUS
10
-0.133868
20
-0.0805794
11
-0.133739
21
-0.0805567
0
LINE
8
BLACK
6
CONTINUOUS
10
-0.133739
20
-0.0805567
11
-0.133626
21
-0.0806222
0
LINE
8
BLACK
6
CONTINUOUS
10
-0.133626
20
-0.0806222
11
-0.133242
21
-0.0806899
0
LINE
8
BLACK
6
CONTINUOUS
10
-0.133242
20
-0.0806899
11
-0.132654
21
-0.081183
0
LINE
8
BLACK
6
CONTINUOUS
10
-0.132654
20
-0.081183
11
-0.13199
21
-0.0815666
0
LINE
8
BLACK
6
CONTINUOUS
10
-0.13199
20
-0.0815666
11
-0.131899
21
-0.0818169
0
LINE
8
BLACK
6
CONTINUOUS
10
-0.131899
20
-0.0818169
11
-0.131695
21
-0.0819882
0
LINE
8
BLACK
6
CONTINUOUS
10
-0.131695
20
-0.0819882
11
-0.131562
21
-0.0827437
0
LINE
8
BLACK
6
CONTINUOUS
10
-0.131562
20
-0.0827437
11
-0.131299
21
-0.0834646
0
LINE
8
BLACK
6
CONTINUOUS
10
-0.131299
20
-0.0834646
11
-0.131299
21
-0.548031
0
LINE
8
BLACK
6
CONTINUOUS
10
-0.131299
20
-0.548031
11
-0.131367
21
-0.548415
0
LINE
8
BLACK
6
CONTINUOUS
10
-0.131367
20
-0.548415
11
-0.131344
21
-0.548544
0
LINE
8
BLACK
6
CONTINUOUS
10
-0.131344
20
-0.548544
11
-0.13141
21
-0.548658
0
LINE
8
BLACK
6
CONTINUOUS
10
-0.13141
20
-0.548658
11
-0.131477
21
-0.549041
0
LINE
8
BLACK
6
CONTINUOUS
10
-0.131477
20
-0.549041
11
-0.13197
21
-0.549629
0
LINE
8
BLACK
6
CONTINUOUS
10
-0.13197
20
-0.549629
11
-0.132354
21
-0.550293
0
LINE
8
BLACK
6
CONTINUOUS
10
-0.132354
20
-0.550293
11
-0.132604
21
-0.550385
0
LINE
8
BLACK
6
CONTINUOUS
10
-0.132604
20
-0.550385
11
-0.132776
21
-0.550589
0
LINE
8
BLACK
6
CONTINUOUS
10
-0.132776
20
-0.550589
11
-0.133531
21
-0.550722
0
LINE
8
BLACK
6
CONTINUOUS
10
-0.133531
20
-0.550722
11
-0.134252
21
-0.550984
0
LINE
8
BLACK
6
CONTINUOUS
10
-0.134252
20
-0.550984
11
-0.583071
21
-0.550984
0
LINE
8
BLACK
6
CONTINUOUS
10
-0.583071
20
-0.550984
11
-0.583454
21
-0.550917
0
LINE
8
BLACK
6
CONTINUOUS
10
-0.583454
20
-0.550917
11
-0.583584
21
-0.550939
0
LINE
8
BLACK
6
CONTINUOUS
10
-0.583584
20
-0.550939
11
-0.583697
21
-0.550874
0
LINE
8
BLACK
6
CONTINUOUS
10
-0.583697
20
-0.550874
11
-0.584081
21
-0.550806
0
LINE
8
BLACK
6
CONTINUOUS
10
-0.584081
20
-0.550806
11
-0.584669
21
-0.550313
0
LINE
8
BLACK
6
CONTINUOUS
10
-0.584669
20
-0.550313
11
-0.585333
21
-0.549929
0
LINE
8
BLACK
6
CONTINUOUS
10
-0.585333
20
-0.549929
11
-0.585424
21
-0.549679
0
LINE
8
BLACK
6
CONTINUOUS
10
-0.585424
20
-0.549679
11
-0.585628
21
-0.549508
0
LINE
8
BLACK
6
CONTINUOUS
10
-0.585628
20
-0.549508
11
-0.585761
21
-0.548752
0
LINE
8
BLACK
6
CONTINUOUS
10
-0.585761
20
-0.548752
11
-0.586024
21
-0.548031
0
LINE
8
BLACK
6
CONTINUOUS
10
-0.586024
20
-0.548031
11
-0.586024
21
-0.0834646
0
LINE
8
BLACK
6
CONTINUOUS
10
-0.586024
20
-0.0834646
11
-0.585956
21
-0.083081
0
LINE
8
BLACK
6
CONTINUOUS
10
-0.585956
20
-0.083081
11
-0.585979
21
-0.0829518
0
LINE
8
BLACK
6
CONTINUOUS
10
-0.585979
20
-0.0829518
11
-0.585913
21
-0.0828382
0
LINE
8
BLACK
6
CONTINUOUS
10
-0.585913
20
-0.0828382
11
-0.585846
21
-0.0824546
0
LINE
8
BLACK
6
CONTINUOUS
10
-0.585846
20
-0.0824546
11
-0.585352
21
-0.0818669
0
LINE
8
BLACK
6
CONTINUOUS
10
-0.585352
20
-0.0818669
11
-0.584969
21
-0.0812026
0
LINE
8
BLACK
6
CONTINUOUS
10
-0.584969
20
-0.0812026
11
-0.584719
21
-0.0811115
0
LINE
8
BLACK
6
CONTINUOUS
10
-0.584719
20
-0.0811115
11
-0.584547
21
-0.0809074
0
LINE
8
BLACK
6
CONTINUOUS
10
-0.584547
20
-0.0809074
11
-0.583792
21
-0.0807741
0
LINE
8
BLACK
6
CONTINUOUS
10
-0.583792
20
-0.0807741
11
-0.583071
21
-0.0805118
0
LINE
8
BLACK
6
CONTINUOUS
10
-0.583071
20
-0.0805118
11
-0.134252
21
-0.0805118
0
LINE
8
BLACK
6
CONTINUOUS
10
-0.134252
20
-0.0805118
11
-0.133868
21
-0.0805794
  0
ENDSEC
  0
EOF
