  0
SECTION
  2
HEADER
  9
$ANGBASE
  50
0.0
  9
$ANGDIR
  70
1
  9
$MEASUREMENT
  70
0
  0
ENDSEC
  0
SECTION
  2
TABLES
  0
TABLE
  2
LTYPE
  70
4
  0
LTYPE
  5
40F
  2
CONTINUOUS
  70
0
  3
Solid line
  72
65
  73
0
  40
0.0
  0
LTYPE
  5
410
  2
DASHDOT
 70
0
  3
Dash Dot ____ _ ____ _
 72
65
 73
4
 40
2.0
 49
1.25
 49
-0.25
 49
0.25
 49
-0.25
  0
LTYPE
  5
411
  2
DASHED
 70
0
  3
Dashed __ __ __ __ __
 72
65
 73
2
 40
0.75
 49
0.5
 49
-0.25
  0
LTYPE
  5
43B
  2
DOTTED
 70
0
  3
Dotted .  .  .  .
 72
65
 73
2
 40
0.2
 49
0.0
 49
-0.2
  0
ENDTAB
  0
TABLE
  2
STYLE
  70
4
  0
STYLE
  2
KICAD
  70
0
  40
0
  41
1
  42
1
  50
0
  71
0
  3
isocp.shx
  0
STYLE
  2
KICADB
  70
0
  40
0
  41
1
  42
1
  50
0
  71
0
  3
isocp.shx
  0
STYLE
  2
KICADI
  70
0
  40
0
  41
1
  42
1
  50
15
  71
0
  3
isocp.shx
  0
STYLE
  2
KICADBI
  70
0
  40
0
  41
1
  42
1
  50
15
  71
0
  3
isocp.shx
  0
ENDTAB
  0
TABLE
  2
LAYER
  70
1
  0
LAYER
  2
BLACK
  70
0
  62
7
  6
CONTINUOUS
  0
ENDTAB
  0
ENDSEC
  0
SECTION
  2
ENTITIES
0
LINE
8
BLACK
6
CONTINUOUS
10
5.36437
20
-2.57539
11
5.365
21
-2.57539
0
LINE
8
BLACK
6
CONTINUOUS
10
5.365
20
-2.57539
11
5.3655
21
-2.57576
0
LINE
8
BLACK
6
CONTINUOUS
10
5.3655
20
-2.57576
11
5.36609
21
-2.57595
0
LINE
8
BLACK
6
CONTINUOUS
10
5.36609
20
-2.57595
11
5.36646
21
-2.57645
0
LINE
8
BLACK
6
CONTINUOUS
10
5.36646
20
-2.57645
11
5.36696
21
-2.57682
0
LINE
8
BLACK
6
CONTINUOUS
10
5.36696
20
-2.57682
11
5.36716
21
-2.57741
0
LINE
8
BLACK
6
CONTINUOUS
10
5.36716
20
-2.57741
11
5.36752
21
-2.57792
0
LINE
8
BLACK
6
CONTINUOUS
10
5.36752
20
-2.57792
11
5.36752
21
-2.57854
0
LINE
8
BLACK
6
CONTINUOUS
10
5.36752
20
-2.57854
11
5.36772
21
-2.57913
0
LINE
8
BLACK
6
CONTINUOUS
10
5.36772
20
-2.57913
11
5.36772
21
-4.55945
0
LINE
8
BLACK
6
CONTINUOUS
10
5.36772
20
-4.55945
11
5.36752
21
-4.56004
0
LINE
8
BLACK
6
CONTINUOUS
10
5.36752
20
-4.56004
11
5.36752
21
-4.56067
0
LINE
8
BLACK
6
CONTINUOUS
10
5.36752
20
-4.56067
11
5.36716
21
-4.56117
0
LINE
8
BLACK
6
CONTINUOUS
10
5.36716
20
-4.56117
11
5.36696
21
-4.56176
0
LINE
8
BLACK
6
CONTINUOUS
10
5.36696
20
-4.56176
11
5.36646
21
-4.56213
0
LINE
8
BLACK
6
CONTINUOUS
10
5.36646
20
-4.56213
11
5.36609
21
-4.56263
0
LINE
8
BLACK
6
CONTINUOUS
10
5.36609
20
-4.56263
11
5.3655
21
-4.56283
0
LINE
8
BLACK
6
CONTINUOUS
10
5.3655
20
-4.56283
11
5.365
21
-4.56319
0
LINE
8
BLACK
6
CONTINUOUS
10
5.365
20
-4.56319
11
5.36437
21
-4.56319
0
LINE
8
BLACK
6
CONTINUOUS
10
5.36437
20
-4.56319
11
5.36378
21
-4.56339
0
LINE
8
BLACK
6
CONTINUOUS
10
5.36378
20
-4.56339
11
4.30509
21
-4.56327
0
LINE
8
BLACK
6
CONTINUOUS
10
4.30509
20
-4.56327
11
4.30449
21
-4.56308
0
LINE
8
BLACK
6
CONTINUOUS
10
4.30449
20
-4.56308
11
4.30387
21
-4.56308
0
LINE
8
BLACK
6
CONTINUOUS
10
4.30387
20
-4.56308
11
4.30336
21
-4.56271
0
LINE
8
BLACK
6
CONTINUOUS
10
4.30336
20
-4.56271
11
4.30277
21
-4.56252
0
LINE
8
BLACK
6
CONTINUOUS
10
4.30277
20
-4.56252
11
4.3024
21
-4.56202
0
LINE
8
BLACK
6
CONTINUOUS
10
4.3024
20
-4.56202
11
4.3019
21
-4.56165
0
LINE
8
BLACK
6
CONTINUOUS
10
4.3019
20
-4.56165
11
4.30171
21
-4.56106
0
LINE
8
BLACK
6
CONTINUOUS
10
4.30171
20
-4.56106
11
4.30134
21
-4.56055
0
LINE
8
BLACK
6
CONTINUOUS
10
4.30134
20
-4.56055
11
4.30134
21
-4.55993
0
LINE
8
BLACK
6
CONTINUOUS
10
4.30134
20
-4.55993
11
4.30115
21
-4.55934
0
LINE
8
BLACK
6
CONTINUOUS
10
4.30115
20
-4.55934
11
4.30115
21
-2.57934
0
LINE
8
BLACK
6
CONTINUOUS
10
4.30115
20
-2.57934
11
4.30134
21
-2.57874
0
LINE
8
BLACK
6
CONTINUOUS
10
4.30134
20
-2.57874
11
4.30134
21
-2.57812
0
LINE
8
BLACK
6
CONTINUOUS
10
4.30134
20
-2.57812
11
4.30171
21
-2.57762
0
LINE
8
BLACK
6
CONTINUOUS
10
4.30171
20
-2.57762
11
4.3019
21
-2.57702
0
LINE
8
BLACK
6
CONTINUOUS
10
4.3019
20
-2.57702
11
4.3024
21
-2.57666
0
LINE
8
BLACK
6
CONTINUOUS
10
4.3024
20
-2.57666
11
4.30277
21
-2.57615
0
LINE
8
BLACK
6
CONTINUOUS
10
4.30277
20
-2.57615
11
4.30336
21
-2.57596
0
LINE
8
BLACK
6
CONTINUOUS
10
4.30336
20
-2.57596
11
4.30387
21
-2.57559
0
LINE
8
BLACK
6
CONTINUOUS
10
4.30387
20
-2.57559
11
4.30449
21
-2.57559
0
LINE
8
BLACK
6
CONTINUOUS
10
4.30449
20
-2.57559
11
4.30509
21
-2.5754
0
LINE
8
BLACK
6
CONTINUOUS
10
4.30509
20
-2.5754
11
5.36378
21
-2.5752
0
LINE
8
BLACK
6
CONTINUOUS
10
5.36378
20
-2.5752
11
5.36437
21
-2.57539
0
LINE
8
BLACK
6
CONTINUOUS
10
4.30902
20
-2.58327
11
4.30902
21
-4.5554
0
LINE
8
BLACK
6
CONTINUOUS
10
4.30902
20
-4.5554
11
5.35984
21
-4.55551
0
LINE
8
BLACK
6
CONTINUOUS
10
5.35984
20
-4.55551
11
5.35984
21
-2.58307
0
LINE
8
BLACK
6
CONTINUOUS
10
5.35984
20
-2.58307
11
4.30902
21
-2.58327
  0
ENDSEC
  0
EOF
