  0
SECTION
  2
HEADER
  9
$ANGBASE
  50
0.0
  9
$ANGDIR
  70
1
  9
$MEASUREMENT
  70
0
  0
ENDSEC
  0
SECTION
  2
TABLES
  0
TABLE
  2
LTYPE
  70
4
  0
LTYPE
  5
40F
  2
CONTINUOUS
  70
0
  3
Solid line
  72
65
  73
0
  40
0.0
  0
LTYPE
  5
410
  2
DASHDOT
 70
0
  3
Dash Dot ____ _ ____ _
 72
65
 73
4
 40
2.0
 49
1.25
 49
-0.25
 49
0.25
 49
-0.25
  0
LTYPE
  5
411
  2
DASHED
 70
0
  3
Dashed __ __ __ __ __
 72
65
 73
2
 40
0.75
 49
0.5
 49
-0.25
  0
LTYPE
  5
43B
  2
DOTTED
 70
0
  3
Dotted .  .  .  .
 72
65
 73
2
 40
0.2
 49
0.0
 49
-0.2
  0
ENDTAB
  0
TABLE
  2
STYLE
  70
4
  0
STYLE
  2
KICAD
  70
0
  40
0
  41
1
  42
1
  50
0
  71
0
  3
isocp.shx
  0
STYLE
  2
KICADB
  70
0
  40
0
  41
1
  42
1
  50
0
  71
0
  3
isocp.shx
  0
STYLE
  2
KICADI
  70
0
  40
0
  41
1
  42
1
  50
15
  71
0
  3
isocp.shx
  0
STYLE
  2
KICADBI
  70
0
  40
0
  41
1
  42
1
  50
15
  71
0
  3
isocp.shx
  0
ENDTAB
  0
TABLE
  2
LAYER
  70
1
  0
LAYER
  2
BLACK
  70
0
  62
7
  6
CONTINUOUS
  0
ENDTAB
  0
ENDSEC
  0
SECTION
  2
ENTITIES
0
LINE
8
BLACK
6
CONTINUOUS
10
0.0141057
20
-0.674808
11
0.0280341
21
-0.677174
0
LINE
8
BLACK
6
CONTINUOUS
10
0.0280341
20
-0.677174
11
0.04161
21
-0.681086
0
LINE
8
BLACK
6
CONTINUOUS
10
0.04161
20
-0.681086
11
0.0546625
21
-0.686492
0
LINE
8
BLACK
6
CONTINUOUS
10
0.0546625
20
-0.686492
11
0.0670277
21
-0.693326
0
LINE
8
BLACK
6
CONTINUOUS
10
0.0670277
20
-0.693326
11
0.0785499
21
-0.701502
0
LINE
8
BLACK
6
CONTINUOUS
10
0.0785499
20
-0.701502
11
0.0890843
21
-0.710916
0
LINE
8
BLACK
6
CONTINUOUS
10
0.0890843
20
-0.710916
11
0.0984985
21
-0.72145
0
LINE
8
BLACK
6
CONTINUOUS
10
0.0984985
20
-0.72145
11
0.106674
21
-0.732972
0
LINE
8
BLACK
6
CONTINUOUS
10
0.106674
20
-0.732972
11
0.113508
21
-0.745337
0
LINE
8
BLACK
6
CONTINUOUS
10
0.113508
20
-0.745337
11
0.118914
21
-0.75839
0
LINE
8
BLACK
6
CONTINUOUS
10
0.118914
20
-0.75839
11
0.122826
21
-0.771966
0
LINE
8
BLACK
6
CONTINUOUS
10
0.122826
20
-0.771966
11
0.125192
21
-0.785894
0
LINE
8
BLACK
6
CONTINUOUS
10
0.125192
20
-0.785894
11
0.125984
21
-0.8
0
LINE
8
BLACK
6
CONTINUOUS
10
0.125984
20
-0.8
11
0.125192
21
-0.814106
0
LINE
8
BLACK
6
CONTINUOUS
10
0.125192
20
-0.814106
11
0.122826
21
-0.828034
0
LINE
8
BLACK
6
CONTINUOUS
10
0.122826
20
-0.828034
11
0.118914
21
-0.84161
0
LINE
8
BLACK
6
CONTINUOUS
10
0.118914
20
-0.84161
11
0.113508
21
-0.854663
0
LINE
8
BLACK
6
CONTINUOUS
10
0.113508
20
-0.854663
11
0.106674
21
-0.867028
0
LINE
8
BLACK
6
CONTINUOUS
10
0.106674
20
-0.867028
11
0.0984985
21
-0.87855
0
LINE
8
BLACK
6
CONTINUOUS
10
0.0984985
20
-0.87855
11
0.0890843
21
-0.889084
0
LINE
8
BLACK
6
CONTINUOUS
10
0.0890843
20
-0.889084
11
0.0785499
21
-0.898498
0
LINE
8
BLACK
6
CONTINUOUS
10
0.0785499
20
-0.898498
11
0.0670277
21
-0.906674
0
LINE
8
BLACK
6
CONTINUOUS
10
0.0670277
20
-0.906674
11
0.0546625
21
-0.913508
0
LINE
8
BLACK
6
CONTINUOUS
10
0.0546625
20
-0.913508
11
0.04161
21
-0.918914
0
LINE
8
BLACK
6
CONTINUOUS
10
0.04161
20
-0.918914
11
0.0280341
21
-0.922826
0
LINE
8
BLACK
6
CONTINUOUS
10
0.0280341
20
-0.922826
11
0.0141057
21
-0.925192
0
LINE
8
BLACK
6
CONTINUOUS
10
0.0141057
20
-0.925192
11
0
21
-0.925984
0
LINE
8
BLACK
6
CONTINUOUS
10
0
20
-0.925984
11
-0.0141057
21
-0.925192
0
LINE
8
BLACK
6
CONTINUOUS
10
-0.0141057
20
-0.925192
11
-0.0280341
21
-0.922826
0
LINE
8
BLACK
6
CONTINUOUS
10
-0.0280341
20
-0.922826
11
-0.04161
21
-0.918914
0
LINE
8
BLACK
6
CONTINUOUS
10
-0.04161
20
-0.918914
11
-0.0546625
21
-0.913508
0
LINE
8
BLACK
6
CONTINUOUS
10
-0.0546625
20
-0.913508
11
-0.0670277
21
-0.906674
0
LINE
8
BLACK
6
CONTINUOUS
10
-0.0670277
20
-0.906674
11
-0.0785499
21
-0.898498
0
LINE
8
BLACK
6
CONTINUOUS
10
-0.0785499
20
-0.898498
11
-0.0890843
21
-0.889084
0
LINE
8
BLACK
6
CONTINUOUS
10
-0.0890843
20
-0.889084
11
-0.0984985
21
-0.87855
0
LINE
8
BLACK
6
CONTINUOUS
10
-0.0984985
20
-0.87855
11
-0.106674
21
-0.867028
0
LINE
8
BLACK
6
CONTINUOUS
10
-0.106674
20
-0.867028
11
-0.113508
21
-0.854663
0
LINE
8
BLACK
6
CONTINUOUS
10
-0.113508
20
-0.854663
11
-0.118914
21
-0.84161
0
LINE
8
BLACK
6
CONTINUOUS
10
-0.118914
20
-0.84161
11
-0.122826
21
-0.828034
0
LINE
8
BLACK
6
CONTINUOUS
10
-0.122826
20
-0.828034
11
-0.125192
21
-0.814106
0
LINE
8
BLACK
6
CONTINUOUS
10
-0.125192
20
-0.814106
11
-0.125984
21
-0.8
0
LINE
8
BLACK
6
CONTINUOUS
10
-0.125984
20
-0.8
11
-0.125192
21
-0.785894
0
LINE
8
BLACK
6
CONTINUOUS
10
-0.125192
20
-0.785894
11
-0.122826
21
-0.771966
0
LINE
8
BLACK
6
CONTINUOUS
10
-0.122826
20
-0.771966
11
-0.118914
21
-0.75839
0
LINE
8
BLACK
6
CONTINUOUS
10
-0.118914
20
-0.75839
11
-0.113508
21
-0.745337
0
LINE
8
BLACK
6
CONTINUOUS
10
-0.113508
20
-0.745337
11
-0.106674
21
-0.732972
0
LINE
8
BLACK
6
CONTINUOUS
10
-0.106674
20
-0.732972
11
-0.0984985
21
-0.72145
0
LINE
8
BLACK
6
CONTINUOUS
10
-0.0984985
20
-0.72145
11
-0.0890843
21
-0.710916
0
LINE
8
BLACK
6
CONTINUOUS
10
-0.0890843
20
-0.710916
11
-0.0785499
21
-0.701502
0
LINE
8
BLACK
6
CONTINUOUS
10
-0.0785499
20
-0.701502
11
-0.0670277
21
-0.693326
0
LINE
8
BLACK
6
CONTINUOUS
10
-0.0670277
20
-0.693326
11
-0.0546625
21
-0.686492
0
LINE
8
BLACK
6
CONTINUOUS
10
-0.0546625
20
-0.686492
11
-0.04161
21
-0.681086
0
LINE
8
BLACK
6
CONTINUOUS
10
-0.04161
20
-0.681086
11
-0.0280341
21
-0.677174
0
LINE
8
BLACK
6
CONTINUOUS
10
-0.0280341
20
-0.677174
11
-0.0141057
21
-0.674808
0
LINE
8
BLACK
6
CONTINUOUS
10
-0.0141057
20
-0.674808
11
0
21
-0.674016
0
LINE
8
BLACK
6
CONTINUOUS
10
0
20
-0.674016
11
0.0141057
21
-0.674808
0
LINE
8
BLACK
6
CONTINUOUS
10
1.61411
20
-0.674808
11
1.62803
21
-0.677174
0
LINE
8
BLACK
6
CONTINUOUS
10
1.62803
20
-0.677174
11
1.64161
21
-0.681086
0
LINE
8
BLACK
6
CONTINUOUS
10
1.64161
20
-0.681086
11
1.65466
21
-0.686492
0
LINE
8
BLACK
6
CONTINUOUS
10
1.65466
20
-0.686492
11
1.66703
21
-0.693326
0
LINE
8
BLACK
6
CONTINUOUS
10
1.66703
20
-0.693326
11
1.67855
21
-0.701502
0
LINE
8
BLACK
6
CONTINUOUS
10
1.67855
20
-0.701502
11
1.68908
21
-0.710916
0
LINE
8
BLACK
6
CONTINUOUS
10
1.68908
20
-0.710916
11
1.6985
21
-0.72145
0
LINE
8
BLACK
6
CONTINUOUS
10
1.6985
20
-0.72145
11
1.70667
21
-0.732972
0
LINE
8
BLACK
6
CONTINUOUS
10
1.70667
20
-0.732972
11
1.71351
21
-0.745337
0
LINE
8
BLACK
6
CONTINUOUS
10
1.71351
20
-0.745337
11
1.71891
21
-0.75839
0
LINE
8
BLACK
6
CONTINUOUS
10
1.71891
20
-0.75839
11
1.72283
21
-0.771966
0
LINE
8
BLACK
6
CONTINUOUS
10
1.72283
20
-0.771966
11
1.72519
21
-0.785894
0
LINE
8
BLACK
6
CONTINUOUS
10
1.72519
20
-0.785894
11
1.72598
21
-0.8
0
LINE
8
BLACK
6
CONTINUOUS
10
1.72598
20
-0.8
11
1.72519
21
-0.814106
0
LINE
8
BLACK
6
CONTINUOUS
10
1.72519
20
-0.814106
11
1.72283
21
-0.828034
0
LINE
8
BLACK
6
CONTINUOUS
10
1.72283
20
-0.828034
11
1.71891
21
-0.84161
0
LINE
8
BLACK
6
CONTINUOUS
10
1.71891
20
-0.84161
11
1.71351
21
-0.854663
0
LINE
8
BLACK
6
CONTINUOUS
10
1.71351
20
-0.854663
11
1.70667
21
-0.867028
0
LINE
8
BLACK
6
CONTINUOUS
10
1.70667
20
-0.867028
11
1.6985
21
-0.87855
0
LINE
8
BLACK
6
CONTINUOUS
10
1.6985
20
-0.87855
11
1.68908
21
-0.889084
0
LINE
8
BLACK
6
CONTINUOUS
10
1.68908
20
-0.889084
11
1.67855
21
-0.898498
0
LINE
8
BLACK
6
CONTINUOUS
10
1.67855
20
-0.898498
11
1.66703
21
-0.906674
0
LINE
8
BLACK
6
CONTINUOUS
10
1.66703
20
-0.906674
11
1.65466
21
-0.913508
0
LINE
8
BLACK
6
CONTINUOUS
10
1.65466
20
-0.913508
11
1.64161
21
-0.918914
0
LINE
8
BLACK
6
CONTINUOUS
10
1.64161
20
-0.918914
11
1.62803
21
-0.922826
0
LINE
8
BLACK
6
CONTINUOUS
10
1.62803
20
-0.922826
11
1.61411
21
-0.925192
0
LINE
8
BLACK
6
CONTINUOUS
10
1.61411
20
-0.925192
11
1.6
21
-0.925984
0
LINE
8
BLACK
6
CONTINUOUS
10
1.6
20
-0.925984
11
1.58589
21
-0.925192
0
LINE
8
BLACK
6
CONTINUOUS
10
1.58589
20
-0.925192
11
1.57197
21
-0.922826
0
LINE
8
BLACK
6
CONTINUOUS
10
1.57197
20
-0.922826
11
1.55839
21
-0.918914
0
LINE
8
BLACK
6
CONTINUOUS
10
1.55839
20
-0.918914
11
1.54534
21
-0.913508
0
LINE
8
BLACK
6
CONTINUOUS
10
1.54534
20
-0.913508
11
1.53297
21
-0.906674
0
LINE
8
BLACK
6
CONTINUOUS
10
1.53297
20
-0.906674
11
1.52145
21
-0.898498
0
LINE
8
BLACK
6
CONTINUOUS
10
1.52145
20
-0.898498
11
1.51092
21
-0.889084
0
LINE
8
BLACK
6
CONTINUOUS
10
1.51092
20
-0.889084
11
1.5015
21
-0.87855
0
LINE
8
BLACK
6
CONTINUOUS
10
1.5015
20
-0.87855
11
1.49333
21
-0.867028
0
LINE
8
BLACK
6
CONTINUOUS
10
1.49333
20
-0.867028
11
1.48649
21
-0.854663
0
LINE
8
BLACK
6
CONTINUOUS
10
1.48649
20
-0.854663
11
1.48109
21
-0.84161
0
LINE
8
BLACK
6
CONTINUOUS
10
1.48109
20
-0.84161
11
1.47717
21
-0.828034
0
LINE
8
BLACK
6
CONTINUOUS
10
1.47717
20
-0.828034
11
1.47481
21
-0.814106
0
LINE
8
BLACK
6
CONTINUOUS
10
1.47481
20
-0.814106
11
1.47402
21
-0.8
0
LINE
8
BLACK
6
CONTINUOUS
10
1.47402
20
-0.8
11
1.47481
21
-0.785894
0
LINE
8
BLACK
6
CONTINUOUS
10
1.47481
20
-0.785894
11
1.47717
21
-0.771966
0
LINE
8
BLACK
6
CONTINUOUS
10
1.47717
20
-0.771966
11
1.48109
21
-0.75839
0
LINE
8
BLACK
6
CONTINUOUS
10
1.48109
20
-0.75839
11
1.48649
21
-0.745337
0
LINE
8
BLACK
6
CONTINUOUS
10
1.48649
20
-0.745337
11
1.49333
21
-0.732972
0
LINE
8
BLACK
6
CONTINUOUS
10
1.49333
20
-0.732972
11
1.5015
21
-0.72145
0
LINE
8
BLACK
6
CONTINUOUS
10
1.5015
20
-0.72145
11
1.51092
21
-0.710916
0
LINE
8
BLACK
6
CONTINUOUS
10
1.51092
20
-0.710916
11
1.52145
21
-0.701502
0
LINE
8
BLACK
6
CONTINUOUS
10
1.52145
20
-0.701502
11
1.53297
21
-0.693326
0
LINE
8
BLACK
6
CONTINUOUS
10
1.53297
20
-0.693326
11
1.54534
21
-0.686492
0
LINE
8
BLACK
6
CONTINUOUS
10
1.54534
20
-0.686492
11
1.55839
21
-0.681086
0
LINE
8
BLACK
6
CONTINUOUS
10
1.55839
20
-0.681086
11
1.57197
21
-0.677174
0
LINE
8
BLACK
6
CONTINUOUS
10
1.57197
20
-0.677174
11
1.58589
21
-0.674808
0
LINE
8
BLACK
6
CONTINUOUS
10
1.58589
20
-0.674808
11
1.6
21
-0.674016
0
LINE
8
BLACK
6
CONTINUOUS
10
1.6
20
-0.674016
11
1.61411
21
-0.674808
0
LINE
8
BLACK
6
CONTINUOUS
10
0.397659
20
-0.433434
11
0.400213
21
-0.435141
0
LINE
8
BLACK
6
CONTINUOUS
10
0.400213
20
-0.435141
11
0.40192
21
-0.437695
0
LINE
8
BLACK
6
CONTINUOUS
10
0.40192
20
-0.437695
11
0.40252
21
-0.440709
0
LINE
8
BLACK
6
CONTINUOUS
10
0.40252
20
-0.440709
11
0.40252
21
-0.539528
0
LINE
8
BLACK
6
CONTINUOUS
10
0.40252
20
-0.539528
11
0.40192
21
-0.542541
0
LINE
8
BLACK
6
CONTINUOUS
10
0.40192
20
-0.542541
11
0.400213
21
-0.545095
0
LINE
8
BLACK
6
CONTINUOUS
10
0.400213
20
-0.545095
11
0.397659
21
-0.546802
0
LINE
8
BLACK
6
CONTINUOUS
10
0.397659
20
-0.546802
11
0.394646
21
-0.547402
0
LINE
8
BLACK
6
CONTINUOUS
10
0.394646
20
-0.547402
11
0.355276
21
-0.547402
0
LINE
8
BLACK
6
CONTINUOUS
10
0.355276
20
-0.547402
11
0.352262
21
-0.546802
0
LINE
8
BLACK
6
CONTINUOUS
10
0.352262
20
-0.546802
11
0.349708
21
-0.545095
0
LINE
8
BLACK
6
CONTINUOUS
10
0.349708
20
-0.545095
11
0.348001
21
-0.542541
0
LINE
8
BLACK
6
CONTINUOUS
10
0.348001
20
-0.542541
11
0.347402
21
-0.539528
0
LINE
8
BLACK
6
CONTINUOUS
10
0.347402
20
-0.539528
11
0.347402
21
-0.440709
0
LINE
8
BLACK
6
CONTINUOUS
10
0.347402
20
-0.440709
11
0.348001
21
-0.437695
0
LINE
8
BLACK
6
CONTINUOUS
10
0.348001
20
-0.437695
11
0.349708
21
-0.435141
0
LINE
8
BLACK
6
CONTINUOUS
10
0.349708
20
-0.435141
11
0.352262
21
-0.433434
0
LINE
8
BLACK
6
CONTINUOUS
10
0.352262
20
-0.433434
11
0.355276
21
-0.432835
0
LINE
8
BLACK
6
CONTINUOUS
10
0.355276
20
-0.432835
11
0.394646
21
-0.432835
0
LINE
8
BLACK
6
CONTINUOUS
10
0.394646
20
-0.432835
11
0.397659
21
-0.433434
0
LINE
8
BLACK
6
CONTINUOUS
10
0.597659
20
-0.433434
11
0.600213
21
-0.435141
0
LINE
8
BLACK
6
CONTINUOUS
10
0.600213
20
-0.435141
11
0.60192
21
-0.437695
0
LINE
8
BLACK
6
CONTINUOUS
10
0.60192
20
-0.437695
11
0.60252
21
-0.440709
0
LINE
8
BLACK
6
CONTINUOUS
10
0.60252
20
-0.440709
11
0.60252
21
-0.539528
0
LINE
8
BLACK
6
CONTINUOUS
10
0.60252
20
-0.539528
11
0.60192
21
-0.542541
0
LINE
8
BLACK
6
CONTINUOUS
10
0.60192
20
-0.542541
11
0.600213
21
-0.545095
0
LINE
8
BLACK
6
CONTINUOUS
10
0.600213
20
-0.545095
11
0.597659
21
-0.546802
0
LINE
8
BLACK
6
CONTINUOUS
10
0.597659
20
-0.546802
11
0.594646
21
-0.547402
0
LINE
8
BLACK
6
CONTINUOUS
10
0.594646
20
-0.547402
11
0.555276
21
-0.547402
0
LINE
8
BLACK
6
CONTINUOUS
10
0.555276
20
-0.547402
11
0.552262
21
-0.546802
0
LINE
8
BLACK
6
CONTINUOUS
10
0.552262
20
-0.546802
11
0.549708
21
-0.545095
0
LINE
8
BLACK
6
CONTINUOUS
10
0.549708
20
-0.545095
11
0.548001
21
-0.542541
0
LINE
8
BLACK
6
CONTINUOUS
10
0.548001
20
-0.542541
11
0.547402
21
-0.539528
0
LINE
8
BLACK
6
CONTINUOUS
10
0.547402
20
-0.539528
11
0.547402
21
-0.440709
0
LINE
8
BLACK
6
CONTINUOUS
10
0.547402
20
-0.440709
11
0.548001
21
-0.437695
0
LINE
8
BLACK
6
CONTINUOUS
10
0.548001
20
-0.437695
11
0.549708
21
-0.435141
0
LINE
8
BLACK
6
CONTINUOUS
10
0.549708
20
-0.435141
11
0.552262
21
-0.433434
0
LINE
8
BLACK
6
CONTINUOUS
10
0.552262
20
-0.433434
11
0.555276
21
-0.432835
0
LINE
8
BLACK
6
CONTINUOUS
10
0.555276
20
-0.432835
11
0.594646
21
-0.432835
0
LINE
8
BLACK
6
CONTINUOUS
10
0.594646
20
-0.432835
11
0.597659
21
-0.433434
0
LINE
8
BLACK
6
CONTINUOUS
10
0.497659
20
-0.303119
11
0.500213
21
-0.304826
0
LINE
8
BLACK
6
CONTINUOUS
10
0.500213
20
-0.304826
11
0.50192
21
-0.30738
0
LINE
8
BLACK
6
CONTINUOUS
10
0.50192
20
-0.30738
11
0.50252
21
-0.310394
0
LINE
8
BLACK
6
CONTINUOUS
10
0.50252
20
-0.310394
11
0.50252
21
-0.409213
0
LINE
8
BLACK
6
CONTINUOUS
10
0.50252
20
-0.409213
11
0.50192
21
-0.412226
0
LINE
8
BLACK
6
CONTINUOUS
10
0.50192
20
-0.412226
11
0.500213
21
-0.41478
0
LINE
8
BLACK
6
CONTINUOUS
10
0.500213
20
-0.41478
11
0.497659
21
-0.416487
0
LINE
8
BLACK
6
CONTINUOUS
10
0.497659
20
-0.416487
11
0.494646
21
-0.417087
0
LINE
8
BLACK
6
CONTINUOUS
10
0.494646
20
-0.417087
11
0.455276
21
-0.417087
0
LINE
8
BLACK
6
CONTINUOUS
10
0.455276
20
-0.417087
11
0.452262
21
-0.416487
0
LINE
8
BLACK
6
CONTINUOUS
10
0.452262
20
-0.416487
11
0.449708
21
-0.41478
0
LINE
8
BLACK
6
CONTINUOUS
10
0.449708
20
-0.41478
11
0.448001
21
-0.412226
0
LINE
8
BLACK
6
CONTINUOUS
10
0.448001
20
-0.412226
11
0.447402
21
-0.409213
0
LINE
8
BLACK
6
CONTINUOUS
10
0.447402
20
-0.409213
11
0.447402
21
-0.310394
0
LINE
8
BLACK
6
CONTINUOUS
10
0.447402
20
-0.310394
11
0.448001
21
-0.30738
0
LINE
8
BLACK
6
CONTINUOUS
10
0.448001
20
-0.30738
11
0.449708
21
-0.304826
0
LINE
8
BLACK
6
CONTINUOUS
10
0.449708
20
-0.304826
11
0.452262
21
-0.303119
0
LINE
8
BLACK
6
CONTINUOUS
10
0.452262
20
-0.303119
11
0.455276
21
-0.30252
0
LINE
8
BLACK
6
CONTINUOUS
10
0.455276
20
-0.30252
11
0.494646
21
-0.30252
0
LINE
8
BLACK
6
CONTINUOUS
10
0.494646
20
-0.30252
11
0.497659
21
-0.303119
0
LINE
8
BLACK
6
CONTINUOUS
10
0.0011235
20
-0.296977
11
0.00367799
21
-0.298684
0
LINE
8
BLACK
6
CONTINUOUS
10
0.00367799
20
-0.298684
11
0.00538488
21
-0.301239
0
LINE
8
BLACK
6
CONTINUOUS
10
0.00538488
20
-0.301239
11
0.00598425
21
-0.304252
0
LINE
8
BLACK
6
CONTINUOUS
10
0.00598425
20
-0.304252
11
0.00598425
21
-0.364252
0
LINE
8
BLACK
6
CONTINUOUS
10
0.00598425
20
-0.364252
11
0.00538488
21
-0.367265
0
LINE
8
BLACK
6
CONTINUOUS
10
0.00538488
20
-0.367265
11
0.00367799
21
-0.36982
0
LINE
8
BLACK
6
CONTINUOUS
10
0.00367799
20
-0.36982
11
0.0011235
21
-0.371527
0
LINE
8
BLACK
6
CONTINUOUS
10
0.0011235
20
-0.371527
11
-0.00188976
21
-0.372126
0
LINE
8
BLACK
6
CONTINUOUS
10
-0.00188976
20
-0.372126
11
-0.0618898
21
-0.372126
0
LINE
8
BLACK
6
CONTINUOUS
10
-0.0618898
20
-0.372126
11
-0.064903
21
-0.371527
0
LINE
8
BLACK
6
CONTINUOUS
10
-0.064903
20
-0.371527
11
-0.0674575
21
-0.36982
0
LINE
8
BLACK
6
CONTINUOUS
10
-0.0674575
20
-0.36982
11
-0.0691644
21
-0.367265
0
LINE
8
BLACK
6
CONTINUOUS
10
-0.0691644
20
-0.367265
11
-0.0697638
21
-0.364252
0
LINE
8
BLACK
6
CONTINUOUS
10
-0.0697638
20
-0.364252
11
-0.0697638
21
-0.304252
0
LINE
8
BLACK
6
CONTINUOUS
10
-0.0697638
20
-0.304252
11
-0.0691644
21
-0.301239
0
LINE
8
BLACK
6
CONTINUOUS
10
-0.0691644
20
-0.301239
11
-0.0674575
21
-0.298684
0
LINE
8
BLACK
6
CONTINUOUS
10
-0.0674575
20
-0.298684
11
-0.064903
21
-0.296977
0
LINE
8
BLACK
6
CONTINUOUS
10
-0.064903
20
-0.296977
11
-0.0618898
21
-0.296378
0
LINE
8
BLACK
6
CONTINUOUS
10
-0.0618898
20
-0.296378
11
-0.00188976
21
-0.296378
0
LINE
8
BLACK
6
CONTINUOUS
10
-0.00188976
20
-0.296378
11
0.0011235
21
-0.296977
0
LINE
8
BLACK
6
CONTINUOUS
10
0.0011235
20
-0.196977
11
0.00367799
21
-0.198684
0
LINE
8
BLACK
6
CONTINUOUS
10
0.00367799
20
-0.198684
11
0.00538488
21
-0.201239
0
LINE
8
BLACK
6
CONTINUOUS
10
0.00538488
20
-0.201239
11
0.00598425
21
-0.204252
0
LINE
8
BLACK
6
CONTINUOUS
10
0.00598425
20
-0.204252
11
0.00598425
21
-0.264252
0
LINE
8
BLACK
6
CONTINUOUS
10
0.00598425
20
-0.264252
11
0.00538488
21
-0.267265
0
LINE
8
BLACK
6
CONTINUOUS
10
0.00538488
20
-0.267265
11
0.00367799
21
-0.26982
0
LINE
8
BLACK
6
CONTINUOUS
10
0.00367799
20
-0.26982
11
0.0011235
21
-0.271527
0
LINE
8
BLACK
6
CONTINUOUS
10
0.0011235
20
-0.271527
11
-0.00188976
21
-0.272126
0
LINE
8
BLACK
6
CONTINUOUS
10
-0.00188976
20
-0.272126
11
-0.0618898
21
-0.272126
0
LINE
8
BLACK
6
CONTINUOUS
10
-0.0618898
20
-0.272126
11
-0.064903
21
-0.271527
0
LINE
8
BLACK
6
CONTINUOUS
10
-0.064903
20
-0.271527
11
-0.0674575
21
-0.26982
0
LINE
8
BLACK
6
CONTINUOUS
10
-0.0674575
20
-0.26982
11
-0.0691644
21
-0.267265
0
LINE
8
BLACK
6
CONTINUOUS
10
-0.0691644
20
-0.267265
11
-0.0697638
21
-0.264252
0
LINE
8
BLACK
6
CONTINUOUS
10
-0.0697638
20
-0.264252
11
-0.0697638
21
-0.204252
0
LINE
8
BLACK
6
CONTINUOUS
10
-0.0697638
20
-0.204252
11
-0.0691644
21
-0.201239
0
LINE
8
BLACK
6
CONTINUOUS
10
-0.0691644
20
-0.201239
11
-0.0674575
21
-0.198684
0
LINE
8
BLACK
6
CONTINUOUS
10
-0.0674575
20
-0.198684
11
-0.064903
21
-0.196977
0
LINE
8
BLACK
6
CONTINUOUS
10
-0.064903
20
-0.196977
11
-0.0618898
21
-0.196378
0
LINE
8
BLACK
6
CONTINUOUS
10
-0.0618898
20
-0.196378
11
-0.00188976
21
-0.196378
0
LINE
8
BLACK
6
CONTINUOUS
10
-0.00188976
20
-0.196378
11
0.0011235
21
-0.196977
0
LINE
8
BLACK
6
CONTINUOUS
10
0.0141057
20
0.125192
11
0.0280341
21
0.122826
0
LINE
8
BLACK
6
CONTINUOUS
10
0.0280341
20
0.122826
11
0.04161
21
0.118914
0
LINE
8
BLACK
6
CONTINUOUS
10
0.04161
20
0.118914
11
0.0546625
21
0.113508
0
LINE
8
BLACK
6
CONTINUOUS
10
0.0546625
20
0.113508
11
0.0670277
21
0.106674
0
LINE
8
BLACK
6
CONTINUOUS
10
0.0670277
20
0.106674
11
0.0785499
21
0.0984985
0
LINE
8
BLACK
6
CONTINUOUS
10
0.0785499
20
0.0984985
11
0.0890843
21
0.0890843
0
LINE
8
BLACK
6
CONTINUOUS
10
0.0890843
20
0.0890843
11
0.0984985
21
0.0785499
0
LINE
8
BLACK
6
CONTINUOUS
10
0.0984985
20
0.0785499
11
0.106674
21
0.0670277
0
LINE
8
BLACK
6
CONTINUOUS
10
0.106674
20
0.0670277
11
0.113508
21
0.0546625
0
LINE
8
BLACK
6
CONTINUOUS
10
0.113508
20
0.0546625
11
0.118914
21
0.04161
0
LINE
8
BLACK
6
CONTINUOUS
10
0.118914
20
0.04161
11
0.122826
21
0.0280341
0
LINE
8
BLACK
6
CONTINUOUS
10
0.122826
20
0.0280341
11
0.125192
21
0.0141057
0
LINE
8
BLACK
6
CONTINUOUS
10
0.125192
20
0.0141057
11
0.125984
21
0
0
LINE
8
BLACK
6
CONTINUOUS
10
0.125984
20
0
11
0.125192
21
-0.0141057
0
LINE
8
BLACK
6
CONTINUOUS
10
0.125192
20
-0.0141057
11
0.122826
21
-0.0280341
0
LINE
8
BLACK
6
CONTINUOUS
10
0.122826
20
-0.0280341
11
0.118914
21
-0.04161
0
LINE
8
BLACK
6
CONTINUOUS
10
0.118914
20
-0.04161
11
0.113508
21
-0.0546625
0
LINE
8
BLACK
6
CONTINUOUS
10
0.113508
20
-0.0546625
11
0.106674
21
-0.0670277
0
LINE
8
BLACK
6
CONTINUOUS
10
0.106674
20
-0.0670277
11
0.0984985
21
-0.0785499
0
LINE
8
BLACK
6
CONTINUOUS
10
0.0984985
20
-0.0785499
11
0.0890843
21
-0.0890843
0
LINE
8
BLACK
6
CONTINUOUS
10
0.0890843
20
-0.0890843
11
0.0785499
21
-0.0984985
0
LINE
8
BLACK
6
CONTINUOUS
10
0.0785499
20
-0.0984985
11
0.0670277
21
-0.106674
0
LINE
8
BLACK
6
CONTINUOUS
10
0.0670277
20
-0.106674
11
0.0546625
21
-0.113508
0
LINE
8
BLACK
6
CONTINUOUS
10
0.0546625
20
-0.113508
11
0.04161
21
-0.118914
0
LINE
8
BLACK
6
CONTINUOUS
10
0.04161
20
-0.118914
11
0.0280341
21
-0.122826
0
LINE
8
BLACK
6
CONTINUOUS
10
0.0280341
20
-0.122826
11
0.0141057
21
-0.125192
0
LINE
8
BLACK
6
CONTINUOUS
10
0.0141057
20
-0.125192
11
0
21
-0.125984
0
LINE
8
BLACK
6
CONTINUOUS
10
0
20
-0.125984
11
-0.0141057
21
-0.125192
0
LINE
8
BLACK
6
CONTINUOUS
10
-0.0141057
20
-0.125192
11
-0.0280341
21
-0.122826
0
LINE
8
BLACK
6
CONTINUOUS
10
-0.0280341
20
-0.122826
11
-0.04161
21
-0.118914
0
LINE
8
BLACK
6
CONTINUOUS
10
-0.04161
20
-0.118914
11
-0.0546625
21
-0.113508
0
LINE
8
BLACK
6
CONTINUOUS
10
-0.0546625
20
-0.113508
11
-0.0670277
21
-0.106674
0
LINE
8
BLACK
6
CONTINUOUS
10
-0.0670277
20
-0.106674
11
-0.0785499
21
-0.0984985
0
LINE
8
BLACK
6
CONTINUOUS
10
-0.0785499
20
-0.0984985
11
-0.0890843
21
-0.0890843
0
LINE
8
BLACK
6
CONTINUOUS
10
-0.0890843
20
-0.0890843
11
-0.0984985
21
-0.0785499
0
LINE
8
BLACK
6
CONTINUOUS
10
-0.0984985
20
-0.0785499
11
-0.106674
21
-0.0670277
0
LINE
8
BLACK
6
CONTINUOUS
10
-0.106674
20
-0.0670277
11
-0.113508
21
-0.0546625
0
LINE
8
BLACK
6
CONTINUOUS
10
-0.113508
20
-0.0546625
11
-0.118914
21
-0.04161
0
LINE
8
BLACK
6
CONTINUOUS
10
-0.118914
20
-0.04161
11
-0.122826
21
-0.0280341
0
LINE
8
BLACK
6
CONTINUOUS
10
-0.122826
20
-0.0280341
11
-0.125192
21
-0.0141057
0
LINE
8
BLACK
6
CONTINUOUS
10
-0.125192
20
-0.0141057
11
-0.125984
21
0
0
LINE
8
BLACK
6
CONTINUOUS
10
-0.125984
20
0
11
-0.125192
21
0.0141057
0
LINE
8
BLACK
6
CONTINUOUS
10
-0.125192
20
0.0141057
11
-0.122826
21
0.0280341
0
LINE
8
BLACK
6
CONTINUOUS
10
-0.122826
20
0.0280341
11
-0.118914
21
0.04161
0
LINE
8
BLACK
6
CONTINUOUS
10
-0.118914
20
0.04161
11
-0.113508
21
0.0546625
0
LINE
8
BLACK
6
CONTINUOUS
10
-0.113508
20
0.0546625
11
-0.106674
21
0.0670277
0
LINE
8
BLACK
6
CONTINUOUS
10
-0.106674
20
0.0670277
11
-0.0984985
21
0.0785499
0
LINE
8
BLACK
6
CONTINUOUS
10
-0.0984985
20
0.0785499
11
-0.0890843
21
0.0890843
0
LINE
8
BLACK
6
CONTINUOUS
10
-0.0890843
20
0.0890843
11
-0.0785499
21
0.0984985
0
LINE
8
BLACK
6
CONTINUOUS
10
-0.0785499
20
0.0984985
11
-0.0670277
21
0.106674
0
LINE
8
BLACK
6
CONTINUOUS
10
-0.0670277
20
0.106674
11
-0.0546625
21
0.113508
0
LINE
8
BLACK
6
CONTINUOUS
10
-0.0546625
20
0.113508
11
-0.04161
21
0.118914
0
LINE
8
BLACK
6
CONTINUOUS
10
-0.04161
20
0.118914
11
-0.0280341
21
0.122826
0
LINE
8
BLACK
6
CONTINUOUS
10
-0.0280341
20
0.122826
11
-0.0141057
21
0.125192
0
LINE
8
BLACK
6
CONTINUOUS
10
-0.0141057
20
0.125192
11
0
21
0.125984
0
LINE
8
BLACK
6
CONTINUOUS
10
0
20
0.125984
11
0.0141057
21
0.125192
0
LINE
8
BLACK
6
CONTINUOUS
10
1.61411
20
0.125192
11
1.62803
21
0.122826
0
LINE
8
BLACK
6
CONTINUOUS
10
1.62803
20
0.122826
11
1.64161
21
0.118914
0
LINE
8
BLACK
6
CONTINUOUS
10
1.64161
20
0.118914
11
1.65466
21
0.113508
0
LINE
8
BLACK
6
CONTINUOUS
10
1.65466
20
0.113508
11
1.66703
21
0.106674
0
LINE
8
BLACK
6
CONTINUOUS
10
1.66703
20
0.106674
11
1.67855
21
0.0984985
0
LINE
8
BLACK
6
CONTINUOUS
10
1.67855
20
0.0984985
11
1.68908
21
0.0890843
0
LINE
8
BLACK
6
CONTINUOUS
10
1.68908
20
0.0890843
11
1.6985
21
0.0785499
0
LINE
8
BLACK
6
CONTINUOUS
10
1.6985
20
0.0785499
11
1.70667
21
0.0670277
0
LINE
8
BLACK
6
CONTINUOUS
10
1.70667
20
0.0670277
11
1.71351
21
0.0546625
0
LINE
8
BLACK
6
CONTINUOUS
10
1.71351
20
0.0546625
11
1.71891
21
0.04161
0
LINE
8
BLACK
6
CONTINUOUS
10
1.71891
20
0.04161
11
1.72283
21
0.0280341
0
LINE
8
BLACK
6
CONTINUOUS
10
1.72283
20
0.0280341
11
1.72519
21
0.0141057
0
LINE
8
BLACK
6
CONTINUOUS
10
1.72519
20
0.0141057
11
1.72598
21
0
0
LINE
8
BLACK
6
CONTINUOUS
10
1.72598
20
0
11
1.72519
21
-0.0141057
0
LINE
8
BLACK
6
CONTINUOUS
10
1.72519
20
-0.0141057
11
1.72283
21
-0.0280341
0
LINE
8
BLACK
6
CONTINUOUS
10
1.72283
20
-0.0280341
11
1.71891
21
-0.04161
0
LINE
8
BLACK
6
CONTINUOUS
10
1.71891
20
-0.04161
11
1.71351
21
-0.0546625
0
LINE
8
BLACK
6
CONTINUOUS
10
1.71351
20
-0.0546625
11
1.70667
21
-0.0670277
0
LINE
8
BLACK
6
CONTINUOUS
10
1.70667
20
-0.0670277
11
1.6985
21
-0.0785499
0
LINE
8
BLACK
6
CONTINUOUS
10
1.6985
20
-0.0785499
11
1.68908
21
-0.0890843
0
LINE
8
BLACK
6
CONTINUOUS
10
1.68908
20
-0.0890843
11
1.67855
21
-0.0984985
0
LINE
8
BLACK
6
CONTINUOUS
10
1.67855
20
-0.0984985
11
1.66703
21
-0.106674
0
LINE
8
BLACK
6
CONTINUOUS
10
1.66703
20
-0.106674
11
1.65466
21
-0.113508
0
LINE
8
BLACK
6
CONTINUOUS
10
1.65466
20
-0.113508
11
1.64161
21
-0.118914
0
LINE
8
BLACK
6
CONTINUOUS
10
1.64161
20
-0.118914
11
1.62803
21
-0.122826
0
LINE
8
BLACK
6
CONTINUOUS
10
1.62803
20
-0.122826
11
1.61411
21
-0.125192
0
LINE
8
BLACK
6
CONTINUOUS
10
1.61411
20
-0.125192
11
1.6
21
-0.125984
0
LINE
8
BLACK
6
CONTINUOUS
10
1.6
20
-0.125984
11
1.58589
21
-0.125192
0
LINE
8
BLACK
6
CONTINUOUS
10
1.58589
20
-0.125192
11
1.57197
21
-0.122826
0
LINE
8
BLACK
6
CONTINUOUS
10
1.57197
20
-0.122826
11
1.55839
21
-0.118914
0
LINE
8
BLACK
6
CONTINUOUS
10
1.55839
20
-0.118914
11
1.54534
21
-0.113508
0
LINE
8
BLACK
6
CONTINUOUS
10
1.54534
20
-0.113508
11
1.53297
21
-0.106674
0
LINE
8
BLACK
6
CONTINUOUS
10
1.53297
20
-0.106674
11
1.52145
21
-0.0984985
0
LINE
8
BLACK
6
CONTINUOUS
10
1.52145
20
-0.0984985
11
1.51092
21
-0.0890843
0
LINE
8
BLACK
6
CONTINUOUS
10
1.51092
20
-0.0890843
11
1.5015
21
-0.0785499
0
LINE
8
BLACK
6
CONTINUOUS
10
1.5015
20
-0.0785499
11
1.49333
21
-0.0670277
0
LINE
8
BLACK
6
CONTINUOUS
10
1.49333
20
-0.0670277
11
1.48649
21
-0.0546625
0
LINE
8
BLACK
6
CONTINUOUS
10
1.48649
20
-0.0546625
11
1.48109
21
-0.04161
0
LINE
8
BLACK
6
CONTINUOUS
10
1.48109
20
-0.04161
11
1.47717
21
-0.0280341
0
LINE
8
BLACK
6
CONTINUOUS
10
1.47717
20
-0.0280341
11
1.47481
21
-0.0141057
0
LINE
8
BLACK
6
CONTINUOUS
10
1.47481
20
-0.0141057
11
1.47402
21
0
0
LINE
8
BLACK
6
CONTINUOUS
10
1.47402
20
0
11
1.47481
21
0.0141057
0
LINE
8
BLACK
6
CONTINUOUS
10
1.47481
20
0.0141057
11
1.47717
21
0.0280341
0
LINE
8
BLACK
6
CONTINUOUS
10
1.47717
20
0.0280341
11
1.48109
21
0.04161
0
LINE
8
BLACK
6
CONTINUOUS
10
1.48109
20
0.04161
11
1.48649
21
0.0546625
0
LINE
8
BLACK
6
CONTINUOUS
10
1.48649
20
0.0546625
11
1.49333
21
0.0670277
0
LINE
8
BLACK
6
CONTINUOUS
10
1.49333
20
0.0670277
11
1.5015
21
0.0785499
0
LINE
8
BLACK
6
CONTINUOUS
10
1.5015
20
0.0785499
11
1.51092
21
0.0890843
0
LINE
8
BLACK
6
CONTINUOUS
10
1.51092
20
0.0890843
11
1.52145
21
0.0984985
0
LINE
8
BLACK
6
CONTINUOUS
10
1.52145
20
0.0984985
11
1.53297
21
0.106674
0
LINE
8
BLACK
6
CONTINUOUS
10
1.53297
20
0.106674
11
1.54534
21
0.113508
0
LINE
8
BLACK
6
CONTINUOUS
10
1.54534
20
0.113508
11
1.55839
21
0.118914
0
LINE
8
BLACK
6
CONTINUOUS
10
1.55839
20
0.118914
11
1.57197
21
0.122826
0
LINE
8
BLACK
6
CONTINUOUS
10
1.57197
20
0.122826
11
1.58589
21
0.125192
0
LINE
8
BLACK
6
CONTINUOUS
10
1.58589
20
0.125192
11
1.6
21
0.125984
0
LINE
8
BLACK
6
CONTINUOUS
10
1.6
20
0.125984
11
1.61411
21
0.125192
  0
ENDSEC
  0
EOF
