  0
SECTION
  2
HEADER
  9
$ANGBASE
  50
0.0
  9
$ANGDIR
  70
1
  9
$MEASUREMENT
  70
0
  0
ENDSEC
  0
SECTION
  2
TABLES
  0
TABLE
  2
LTYPE
  70
4
  0
LTYPE
  5
40F
  2
CONTINUOUS
  70
0
  3
Solid line
  72
65
  73
0
  40
0.0
  0
LTYPE
  5
410
  2
DASHDOT
 70
0
  3
Dash Dot ____ _ ____ _
 72
65
 73
4
 40
2.0
 49
1.25
 49
-0.25
 49
0.25
 49
-0.25
  0
LTYPE
  5
411
  2
DASHED
 70
0
  3
Dashed __ __ __ __ __
 72
65
 73
2
 40
0.75
 49
0.5
 49
-0.25
  0
LTYPE
  5
43B
  2
DOTTED
 70
0
  3
Dotted .  .  .  .
 72
65
 73
2
 40
0.2
 49
0.0
 49
-0.2
  0
ENDTAB
  0
TABLE
  2
STYLE
  70
4
  0
STYLE
  2
KICAD
  70
0
  40
0
  41
1
  42
1
  50
0
  71
0
  3
isocp.shx
  0
STYLE
  2
KICADB
  70
0
  40
0
  41
1
  42
1
  50
0
  71
0
  3
isocp.shx
  0
STYLE
  2
KICADI
  70
0
  40
0
  41
1
  42
1
  50
15
  71
0
  3
isocp.shx
  0
STYLE
  2
KICADBI
  70
0
  40
0
  41
1
  42
1
  50
15
  71
0
  3
isocp.shx
  0
ENDTAB
  0
TABLE
  2
LAYER
  70
1
  0
LAYER
  2
BLACK
  70
0
  62
7
  6
CONTINUOUS
  0
ENDTAB
  0
ENDSEC
  0
SECTION
  2
ENTITIES
0
LINE
8
BLACK
6
CONTINUOUS
10
5.07551
20
-4.42383
11
5.07684
21
-4.4241
0
LINE
8
BLACK
6
CONTINUOUS
10
5.07684
20
-4.4241
11
5.08246
21
-4.42691
0
LINE
8
BLACK
6
CONTINUOUS
10
5.08246
20
-4.42691
11
5.08317
21
-4.42754
0
LINE
8
BLACK
6
CONTINUOUS
10
5.08317
20
-4.42754
11
5.084
21
-4.42802
0
LINE
8
BLACK
6
CONTINUOUS
10
5.084
20
-4.42802
11
5.08681
21
-4.43083
0
LINE
8
BLACK
6
CONTINUOUS
10
5.08681
20
-4.43083
11
5.08729
21
-4.43165
0
LINE
8
BLACK
6
CONTINUOUS
10
5.08729
20
-4.43165
11
5.08792
21
-4.43237
0
LINE
8
BLACK
6
CONTINUOUS
10
5.08792
20
-4.43237
11
5.09073
21
-4.43799
0
LINE
8
BLACK
6
CONTINUOUS
10
5.09073
20
-4.43799
11
5.091
21
-4.43932
0
LINE
8
BLACK
6
CONTINUOUS
10
5.091
20
-4.43932
11
5.09135
21
-4.44063
0
LINE
8
BLACK
6
CONTINUOUS
10
5.09135
20
-4.44063
11
5.09135
21
-4.44626
0
LINE
8
BLACK
6
CONTINUOUS
10
5.09135
20
-4.44626
11
5.091
21
-4.44757
0
LINE
8
BLACK
6
CONTINUOUS
10
5.091
20
-4.44757
11
5.09073
21
-4.4489
0
LINE
8
BLACK
6
CONTINUOUS
10
5.09073
20
-4.4489
11
5.08792
21
-4.45452
0
LINE
8
BLACK
6
CONTINUOUS
10
5.08792
20
-4.45452
11
5.08729
21
-4.45523
0
LINE
8
BLACK
6
CONTINUOUS
10
5.08729
20
-4.45523
11
5.08681
21
-4.45606
0
LINE
8
BLACK
6
CONTINUOUS
10
5.08681
20
-4.45606
11
5.08676
21
-4.45611
0
LINE
8
BLACK
6
CONTINUOUS
10
5.08676
20
-4.45611
11
5.08681
21
-4.45614
0
LINE
8
BLACK
6
CONTINUOUS
10
5.08681
20
-4.45614
11
5.08962
21
-4.45895
0
LINE
8
BLACK
6
CONTINUOUS
10
5.08962
20
-4.45895
11
5.0901
21
-4.45978
0
LINE
8
BLACK
6
CONTINUOUS
10
5.0901
20
-4.45978
11
5.09073
21
-4.46049
0
LINE
8
BLACK
6
CONTINUOUS
10
5.09073
20
-4.46049
11
5.09354
21
-4.46611
0
LINE
8
BLACK
6
CONTINUOUS
10
5.09354
20
-4.46611
11
5.09381
21
-4.46744
0
LINE
8
BLACK
6
CONTINUOUS
10
5.09381
20
-4.46744
11
5.09416
21
-4.46875
0
LINE
8
BLACK
6
CONTINUOUS
10
5.09416
20
-4.46875
11
5.09416
21
-4.47719
0
LINE
8
BLACK
6
CONTINUOUS
10
5.09416
20
-4.47719
11
5.09381
21
-4.4785
0
LINE
8
BLACK
6
CONTINUOUS
10
5.09381
20
-4.4785
11
5.09354
21
-4.47983
0
LINE
8
BLACK
6
CONTINUOUS
10
5.09354
20
-4.47983
11
5.09073
21
-4.48545
0
LINE
8
BLACK
6
CONTINUOUS
10
5.09073
20
-4.48545
11
5.0901
21
-4.48617
0
LINE
8
BLACK
6
CONTINUOUS
10
5.0901
20
-4.48617
11
5.08962
21
-4.48699
0
LINE
8
BLACK
6
CONTINUOUS
10
5.08962
20
-4.48699
11
5.08681
21
-4.4898
0
LINE
8
BLACK
6
CONTINUOUS
10
5.08681
20
-4.4898
11
5.08599
21
-4.49028
0
LINE
8
BLACK
6
CONTINUOUS
10
5.08599
20
-4.49028
11
5.08528
21
-4.49091
0
LINE
8
BLACK
6
CONTINUOUS
10
5.08528
20
-4.49091
11
5.07965
21
-4.49372
0
LINE
8
BLACK
6
CONTINUOUS
10
5.07965
20
-4.49372
11
5.07832
21
-4.49399
0
LINE
8
BLACK
6
CONTINUOUS
10
5.07832
20
-4.49399
11
5.07701
21
-4.49434
0
LINE
8
BLACK
6
CONTINUOUS
10
5.07701
20
-4.49434
11
5.05451
21
-4.49434
0
LINE
8
BLACK
6
CONTINUOUS
10
5.05451
20
-4.49434
11
5.05156
21
-4.49355
0
LINE
8
BLACK
6
CONTINUOUS
10
5.05156
20
-4.49355
11
5.0494
21
-4.49139
0
LINE
8
BLACK
6
CONTINUOUS
10
5.0494
20
-4.49139
11
5.04861
21
-4.48844
0
LINE
8
BLACK
6
CONTINUOUS
10
5.04861
20
-4.48844
11
5.04861
21
-4.42938
0
LINE
8
BLACK
6
CONTINUOUS
10
5.04861
20
-4.42938
11
5.0494
21
-4.42643
0
LINE
8
BLACK
6
CONTINUOUS
10
5.0494
20
-4.42643
11
5.05156
21
-4.42427
0
LINE
8
BLACK
6
CONTINUOUS
10
5.05156
20
-4.42427
11
5.05451
21
-4.42348
0
LINE
8
BLACK
6
CONTINUOUS
10
5.05451
20
-4.42348
11
5.0742
21
-4.42348
0
LINE
8
BLACK
6
CONTINUOUS
10
5.0742
20
-4.42348
11
5.07551
21
-4.42383
0
LINE
8
BLACK
6
CONTINUOUS
10
5.06042
20
-4.46341
11
5.06042
21
-4.48253
0
LINE
8
BLACK
6
CONTINUOUS
10
5.06042
20
-4.48253
11
5.07562
21
-4.48253
0
LINE
8
BLACK
6
CONTINUOUS
10
5.07562
20
-4.48253
11
5.07914
21
-4.48077
0
LINE
8
BLACK
6
CONTINUOUS
10
5.07914
20
-4.48077
11
5.08059
21
-4.47932
0
LINE
8
BLACK
6
CONTINUOUS
10
5.08059
20
-4.47932
11
5.08235
21
-4.47579
0
LINE
8
BLACK
6
CONTINUOUS
10
5.08235
20
-4.47579
11
5.08235
21
-4.47015
0
LINE
8
BLACK
6
CONTINUOUS
10
5.08235
20
-4.47015
11
5.08059
21
-4.46663
0
LINE
8
BLACK
6
CONTINUOUS
10
5.08059
20
-4.46663
11
5.07944
21
-4.46548
0
LINE
8
BLACK
6
CONTINUOUS
10
5.07944
20
-4.46548
11
5.07324
21
-4.46341
0
LINE
8
BLACK
6
CONTINUOUS
10
5.07324
20
-4.46341
11
5.06042
21
-4.46341
0
LINE
8
BLACK
6
CONTINUOUS
10
5.06042
20
-4.43529
11
5.06042
21
-4.4516
0
LINE
8
BLACK
6
CONTINUOUS
10
5.06042
20
-4.4516
11
5.0728
21
-4.4516
0
LINE
8
BLACK
6
CONTINUOUS
10
5.0728
20
-4.4516
11
5.07632
21
-4.44984
0
LINE
8
BLACK
6
CONTINUOUS
10
5.07632
20
-4.44984
11
5.07778
21
-4.44838
0
LINE
8
BLACK
6
CONTINUOUS
10
5.07778
20
-4.44838
11
5.07954
21
-4.44486
0
LINE
8
BLACK
6
CONTINUOUS
10
5.07954
20
-4.44486
11
5.07954
21
-4.44203
0
LINE
8
BLACK
6
CONTINUOUS
10
5.07954
20
-4.44203
11
5.07778
21
-4.43851
0
LINE
8
BLACK
6
CONTINUOUS
10
5.07778
20
-4.43851
11
5.07632
21
-4.43705
0
LINE
8
BLACK
6
CONTINUOUS
10
5.07632
20
-4.43705
11
5.0728
21
-4.43529
0
LINE
8
BLACK
6
CONTINUOUS
10
5.0728
20
-4.43529
11
5.06042
21
-4.43529
0
LINE
8
BLACK
6
CONTINUOUS
10
4.9292
20
-4.42381
11
4.93046
21
-4.42403
0
LINE
8
BLACK
6
CONTINUOUS
10
4.93046
20
-4.42403
11
4.93067
21
-4.4242
0
LINE
8
BLACK
6
CONTINUOUS
10
4.93067
20
-4.4242
11
4.93092
21
-4.42427
0
LINE
8
BLACK
6
CONTINUOUS
10
4.93092
20
-4.42427
11
4.93182
21
-4.42517
0
LINE
8
BLACK
6
CONTINUOUS
10
4.93182
20
-4.42517
11
4.9328
21
-4.426
0
LINE
8
BLACK
6
CONTINUOUS
10
4.9328
20
-4.426
11
4.93289
21
-4.42624
0
LINE
8
BLACK
6
CONTINUOUS
10
4.93289
20
-4.42624
11
4.93308
21
-4.42643
0
LINE
8
BLACK
6
CONTINUOUS
10
4.93308
20
-4.42643
11
4.93341
21
-4.42767
0
LINE
8
BLACK
6
CONTINUOUS
10
4.93341
20
-4.42767
11
4.93385
21
-4.42887
0
LINE
8
BLACK
6
CONTINUOUS
10
4.93385
20
-4.42887
11
4.9338
21
-4.42913
0
LINE
8
BLACK
6
CONTINUOUS
10
4.9338
20
-4.42913
11
4.93387
21
-4.42938
0
LINE
8
BLACK
6
CONTINUOUS
10
4.93387
20
-4.42938
11
4.93387
21
-4.48844
0
LINE
8
BLACK
6
CONTINUOUS
10
4.93387
20
-4.48844
11
4.93308
21
-4.49139
0
LINE
8
BLACK
6
CONTINUOUS
10
4.93308
20
-4.49139
11
4.93092
21
-4.49355
0
LINE
8
BLACK
6
CONTINUOUS
10
4.93092
20
-4.49355
11
4.92797
21
-4.49434
0
LINE
8
BLACK
6
CONTINUOUS
10
4.92797
20
-4.49434
11
4.92501
21
-4.49355
0
LINE
8
BLACK
6
CONTINUOUS
10
4.92501
20
-4.49355
11
4.92285
21
-4.49139
0
LINE
8
BLACK
6
CONTINUOUS
10
4.92285
20
-4.49139
11
4.92206
21
-4.48844
0
LINE
8
BLACK
6
CONTINUOUS
10
4.92206
20
-4.48844
11
4.92206
21
-4.456
0
LINE
8
BLACK
6
CONTINUOUS
10
4.92206
20
-4.456
11
4.91363
21
-4.47406
0
LINE
8
BLACK
6
CONTINUOUS
10
4.91363
20
-4.47406
11
4.9133
21
-4.47446
0
LINE
8
BLACK
6
CONTINUOUS
10
4.9133
20
-4.47446
11
4.91312
21
-4.47495
0
LINE
8
BLACK
6
CONTINUOUS
10
4.91312
20
-4.47495
11
4.91233
21
-4.47561
0
LINE
8
BLACK
6
CONTINUOUS
10
4.91233
20
-4.47561
11
4.91167
21
-4.4764
0
LINE
8
BLACK
6
CONTINUOUS
10
4.91167
20
-4.4764
11
4.91118
21
-4.47658
0
LINE
8
BLACK
6
CONTINUOUS
10
4.91118
20
-4.47658
11
4.91078
21
-4.47692
0
LINE
8
BLACK
6
CONTINUOUS
10
4.91078
20
-4.47692
11
4.90976
21
-4.4771
0
LINE
8
BLACK
6
CONTINUOUS
10
4.90976
20
-4.4771
11
4.90879
21
-4.47745
0
LINE
8
BLACK
6
CONTINUOUS
10
4.90879
20
-4.47745
11
4.90828
21
-4.47736
0
LINE
8
BLACK
6
CONTINUOUS
10
4.90828
20
-4.47736
11
4.90777
21
-4.47745
0
LINE
8
BLACK
6
CONTINUOUS
10
4.90777
20
-4.47745
11
4.9068
21
-4.4771
0
LINE
8
BLACK
6
CONTINUOUS
10
4.9068
20
-4.4771
11
4.90578
21
-4.47692
0
LINE
8
BLACK
6
CONTINUOUS
10
4.90578
20
-4.47692
11
4.90539
21
-4.47658
0
LINE
8
BLACK
6
CONTINUOUS
10
4.90539
20
-4.47658
11
4.9049
21
-4.4764
0
LINE
8
BLACK
6
CONTINUOUS
10
4.9049
20
-4.4764
11
4.90423
21
-4.47561
0
LINE
8
BLACK
6
CONTINUOUS
10
4.90423
20
-4.47561
11
4.90344
21
-4.47495
0
LINE
8
BLACK
6
CONTINUOUS
10
4.90344
20
-4.47495
11
4.90326
21
-4.47446
0
LINE
8
BLACK
6
CONTINUOUS
10
4.90326
20
-4.47446
11
4.90293
21
-4.47406
0
LINE
8
BLACK
6
CONTINUOUS
10
4.90293
20
-4.47406
11
4.8945
21
-4.456
0
LINE
8
BLACK
6
CONTINUOUS
10
4.8945
20
-4.456
11
4.8945
21
-4.48844
0
LINE
8
BLACK
6
CONTINUOUS
10
4.8945
20
-4.48844
11
4.89371
21
-4.49139
0
LINE
8
BLACK
6
CONTINUOUS
10
4.89371
20
-4.49139
11
4.89155
21
-4.49355
0
LINE
8
BLACK
6
CONTINUOUS
10
4.89155
20
-4.49355
11
4.8886
21
-4.49434
0
LINE
8
BLACK
6
CONTINUOUS
10
4.8886
20
-4.49434
11
4.88564
21
-4.49355
0
LINE
8
BLACK
6
CONTINUOUS
10
4.88564
20
-4.49355
11
4.88348
21
-4.49139
0
LINE
8
BLACK
6
CONTINUOUS
10
4.88348
20
-4.49139
11
4.88269
21
-4.48844
0
LINE
8
BLACK
6
CONTINUOUS
10
4.88269
20
-4.48844
11
4.88269
21
-4.42938
0
LINE
8
BLACK
6
CONTINUOUS
10
4.88269
20
-4.42938
11
4.88276
21
-4.42913
0
LINE
8
BLACK
6
CONTINUOUS
10
4.88276
20
-4.42913
11
4.88271
21
-4.42887
0
LINE
8
BLACK
6
CONTINUOUS
10
4.88271
20
-4.42887
11
4.88315
21
-4.42767
0
LINE
8
BLACK
6
CONTINUOUS
10
4.88315
20
-4.42767
11
4.88348
21
-4.42643
0
LINE
8
BLACK
6
CONTINUOUS
10
4.88348
20
-4.42643
11
4.88367
21
-4.42624
0
LINE
8
BLACK
6
CONTINUOUS
10
4.88367
20
-4.42624
11
4.88376
21
-4.426
0
LINE
8
BLACK
6
CONTINUOUS
10
4.88376
20
-4.426
11
4.88474
21
-4.42517
0
LINE
8
BLACK
6
CONTINUOUS
10
4.88474
20
-4.42517
11
4.88564
21
-4.42427
0
LINE
8
BLACK
6
CONTINUOUS
10
4.88564
20
-4.42427
11
4.8859
21
-4.4242
0
LINE
8
BLACK
6
CONTINUOUS
10
4.8859
20
-4.4242
11
4.8861
21
-4.42403
0
LINE
8
BLACK
6
CONTINUOUS
10
4.8861
20
-4.42403
11
4.88736
21
-4.42381
0
LINE
8
BLACK
6
CONTINUOUS
10
4.88736
20
-4.42381
11
4.8886
21
-4.42348
0
LINE
8
BLACK
6
CONTINUOUS
10
4.8886
20
-4.42348
11
4.88885
21
-4.42355
0
LINE
8
BLACK
6
CONTINUOUS
10
4.88885
20
-4.42355
11
4.88911
21
-4.4235
0
LINE
8
BLACK
6
CONTINUOUS
10
4.88911
20
-4.4235
11
4.89031
21
-4.42394
0
LINE
8
BLACK
6
CONTINUOUS
10
4.89031
20
-4.42394
11
4.89155
21
-4.42427
0
LINE
8
BLACK
6
CONTINUOUS
10
4.89155
20
-4.42427
11
4.89174
21
-4.42445
0
LINE
8
BLACK
6
CONTINUOUS
10
4.89174
20
-4.42445
11
4.89198
21
-4.42454
0
LINE
8
BLACK
6
CONTINUOUS
10
4.89198
20
-4.42454
11
4.89281
21
-4.42552
0
LINE
8
BLACK
6
CONTINUOUS
10
4.89281
20
-4.42552
11
4.89371
21
-4.42643
0
LINE
8
BLACK
6
CONTINUOUS
10
4.89371
20
-4.42643
11
4.89378
21
-4.42668
0
LINE
8
BLACK
6
CONTINUOUS
10
4.89378
20
-4.42668
11
4.89395
21
-4.42689
0
LINE
8
BLACK
6
CONTINUOUS
10
4.89395
20
-4.42689
11
4.90828
21
-4.4576
0
LINE
8
BLACK
6
CONTINUOUS
10
4.90828
20
-4.4576
11
4.92261
21
-4.42689
0
LINE
8
BLACK
6
CONTINUOUS
10
4.92261
20
-4.42689
11
4.92278
21
-4.42668
0
LINE
8
BLACK
6
CONTINUOUS
10
4.92278
20
-4.42668
11
4.92285
21
-4.42643
0
LINE
8
BLACK
6
CONTINUOUS
10
4.92285
20
-4.42643
11
4.92376
21
-4.42552
0
LINE
8
BLACK
6
CONTINUOUS
10
4.92376
20
-4.42552
11
4.92458
21
-4.42454
0
LINE
8
BLACK
6
CONTINUOUS
10
4.92458
20
-4.42454
11
4.92483
21
-4.42445
0
LINE
8
BLACK
6
CONTINUOUS
10
4.92483
20
-4.42445
11
4.92501
21
-4.42427
0
LINE
8
BLACK
6
CONTINUOUS
10
4.92501
20
-4.42427
11
4.92625
21
-4.42394
0
LINE
8
BLACK
6
CONTINUOUS
10
4.92625
20
-4.42394
11
4.92745
21
-4.4235
0
LINE
8
BLACK
6
CONTINUOUS
10
4.92745
20
-4.4235
11
4.92771
21
-4.42355
0
LINE
8
BLACK
6
CONTINUOUS
10
4.92771
20
-4.42355
11
4.92797
21
-4.42348
0
LINE
8
BLACK
6
CONTINUOUS
10
4.92797
20
-4.42348
11
4.9292
21
-4.42381
0
LINE
8
BLACK
6
CONTINUOUS
10
4.95904
20
-4.42427
11
4.9612
21
-4.42643
0
LINE
8
BLACK
6
CONTINUOUS
10
4.9612
20
-4.42643
11
4.96199
21
-4.42938
0
LINE
8
BLACK
6
CONTINUOUS
10
4.96199
20
-4.42938
11
4.96199
21
-4.48253
0
LINE
8
BLACK
6
CONTINUOUS
10
4.96199
20
-4.48253
11
4.98421
21
-4.48253
0
LINE
8
BLACK
6
CONTINUOUS
10
4.98421
20
-4.48253
11
4.98716
21
-4.48332
0
LINE
8
BLACK
6
CONTINUOUS
10
4.98716
20
-4.48332
11
4.98932
21
-4.48548
0
LINE
8
BLACK
6
CONTINUOUS
10
4.98932
20
-4.48548
11
4.98981
21
-4.48731
0
LINE
8
BLACK
6
CONTINUOUS
10
4.98981
20
-4.48731
11
4.98986
21
-4.48657
0
LINE
8
BLACK
6
CONTINUOUS
10
4.98986
20
-4.48657
11
5.00954
21
-4.42752
0
LINE
8
BLACK
6
CONTINUOUS
10
5.00954
20
-4.42752
11
5.01019
21
-4.42653
0
LINE
8
BLACK
6
CONTINUOUS
10
5.01019
20
-4.42653
11
5.01072
21
-4.42546
0
LINE
8
BLACK
6
CONTINUOUS
10
5.01072
20
-4.42546
11
5.01103
21
-4.42527
0
LINE
8
BLACK
6
CONTINUOUS
10
5.01103
20
-4.42527
11
5.01122
21
-4.42496
0
LINE
8
BLACK
6
CONTINUOUS
10
5.01122
20
-4.42496
11
5.01229
21
-4.42443
0
LINE
8
BLACK
6
CONTINUOUS
10
5.01229
20
-4.42443
11
5.01328
21
-4.42378
0
LINE
8
BLACK
6
CONTINUOUS
10
5.01328
20
-4.42378
11
5.01364
21
-4.42376
0
LINE
8
BLACK
6
CONTINUOUS
10
5.01364
20
-4.42376
11
5.01396
21
-4.4236
0
LINE
8
BLACK
6
CONTINUOUS
10
5.01396
20
-4.4236
11
5.01514
21
-4.42367
0
LINE
8
BLACK
6
CONTINUOUS
10
5.01514
20
-4.42367
11
5.01633
21
-4.4236
0
LINE
8
BLACK
6
CONTINUOUS
10
5.01633
20
-4.4236
11
5.01665
21
-4.42376
0
LINE
8
BLACK
6
CONTINUOUS
10
5.01665
20
-4.42376
11
5.01701
21
-4.42378
0
LINE
8
BLACK
6
CONTINUOUS
10
5.01701
20
-4.42378
11
5.018
21
-4.42443
0
LINE
8
BLACK
6
CONTINUOUS
10
5.018
20
-4.42443
11
5.01906
21
-4.42496
0
LINE
8
BLACK
6
CONTINUOUS
10
5.01906
20
-4.42496
11
5.01926
21
-4.42527
0
LINE
8
BLACK
6
CONTINUOUS
10
5.01926
20
-4.42527
11
5.01956
21
-4.42546
0
LINE
8
BLACK
6
CONTINUOUS
10
5.01956
20
-4.42546
11
5.02009
21
-4.42653
0
LINE
8
BLACK
6
CONTINUOUS
10
5.02009
20
-4.42653
11
5.02075
21
-4.42752
0
LINE
8
BLACK
6
CONTINUOUS
10
5.02075
20
-4.42752
11
5.04043
21
-4.48657
0
LINE
8
BLACK
6
CONTINUOUS
10
5.04043
20
-4.48657
11
5.04061
21
-4.48962
0
LINE
8
BLACK
6
CONTINUOUS
10
5.04061
20
-4.48962
11
5.03925
21
-4.49236
0
LINE
8
BLACK
6
CONTINUOUS
10
5.03925
20
-4.49236
11
5.0367
21
-4.49404
0
LINE
8
BLACK
6
CONTINUOUS
10
5.0367
20
-4.49404
11
5.03364
21
-4.49422
0
LINE
8
BLACK
6
CONTINUOUS
10
5.03364
20
-4.49422
11
5.03091
21
-4.49286
0
LINE
8
BLACK
6
CONTINUOUS
10
5.03091
20
-4.49286
11
5.02923
21
-4.49031
0
LINE
8
BLACK
6
CONTINUOUS
10
5.02923
20
-4.49031
11
5.02495
21
-4.47747
0
LINE
8
BLACK
6
CONTINUOUS
10
5.02495
20
-4.47747
11
5.00534
21
-4.47747
0
LINE
8
BLACK
6
CONTINUOUS
10
5.00534
20
-4.47747
11
5.00106
21
-4.49031
0
LINE
8
BLACK
6
CONTINUOUS
10
5.00106
20
-4.49031
11
4.99938
21
-4.49286
0
LINE
8
BLACK
6
CONTINUOUS
10
4.99938
20
-4.49286
11
4.99664
21
-4.49422
0
LINE
8
BLACK
6
CONTINUOUS
10
4.99664
20
-4.49422
11
4.99359
21
-4.49404
0
LINE
8
BLACK
6
CONTINUOUS
10
4.99359
20
-4.49404
11
4.99104
21
-4.49236
0
LINE
8
BLACK
6
CONTINUOUS
10
4.99104
20
-4.49236
11
4.98975
21
-4.48978
0
LINE
8
BLACK
6
CONTINUOUS
10
4.98975
20
-4.48978
11
4.98932
21
-4.49139
0
LINE
8
BLACK
6
CONTINUOUS
10
4.98932
20
-4.49139
11
4.98716
21
-4.49355
0
LINE
8
BLACK
6
CONTINUOUS
10
4.98716
20
-4.49355
11
4.98421
21
-4.49434
0
LINE
8
BLACK
6
CONTINUOUS
10
4.98421
20
-4.49434
11
4.95609
21
-4.49434
0
LINE
8
BLACK
6
CONTINUOUS
10
4.95609
20
-4.49434
11
4.95314
21
-4.49355
0
LINE
8
BLACK
6
CONTINUOUS
10
4.95314
20
-4.49355
11
4.95097
21
-4.49139
0
LINE
8
BLACK
6
CONTINUOUS
10
4.95097
20
-4.49139
11
4.95018
21
-4.48844
0
LINE
8
BLACK
6
CONTINUOUS
10
4.95018
20
-4.48844
11
4.95018
21
-4.42938
0
LINE
8
BLACK
6
CONTINUOUS
10
4.95018
20
-4.42938
11
4.95097
21
-4.42643
0
LINE
8
BLACK
6
CONTINUOUS
10
4.95097
20
-4.42643
11
4.95314
21
-4.42427
0
LINE
8
BLACK
6
CONTINUOUS
10
4.95314
20
-4.42427
11
4.95609
21
-4.42348
0
LINE
8
BLACK
6
CONTINUOUS
10
4.95609
20
-4.42348
11
4.95904
21
-4.42427
0
LINE
8
BLACK
6
CONTINUOUS
10
5.00928
20
-4.46566
11
5.02101
21
-4.46566
0
LINE
8
BLACK
6
CONTINUOUS
10
5.02101
20
-4.46566
11
5.01514
21
-4.44806
0
LINE
8
BLACK
6
CONTINUOUS
10
5.01514
20
-4.44806
11
5.00928
21
-4.46566
0
LINE
8
BLACK
6
CONTINUOUS
10
4.50374
20
-4.25154
11
4.51722
21
-4.25332
0
LINE
8
BLACK
6
CONTINUOUS
10
4.51722
20
-4.25332
11
4.53041
21
-4.25663
0
LINE
8
BLACK
6
CONTINUOUS
10
4.53041
20
-4.25663
11
4.54313
21
-4.26144
0
LINE
8
BLACK
6
CONTINUOUS
10
4.54313
20
-4.26144
11
4.55521
21
-4.26767
0
LINE
8
BLACK
6
CONTINUOUS
10
4.55521
20
-4.26767
11
4.5665
21
-4.27526
0
LINE
8
BLACK
6
CONTINUOUS
10
4.5665
20
-4.27526
11
4.57683
21
-4.28409
0
LINE
8
BLACK
6
CONTINUOUS
10
4.57683
20
-4.28409
11
4.58609
21
-4.29405
0
LINE
8
BLACK
6
CONTINUOUS
10
4.58609
20
-4.29405
11
4.59414
21
-4.30501
0
LINE
8
BLACK
6
CONTINUOUS
10
4.59414
20
-4.30501
11
4.60088
21
-4.31682
0
LINE
8
BLACK
6
CONTINUOUS
10
4.60088
20
-4.31682
11
4.60621
21
-4.32933
0
LINE
8
BLACK
6
CONTINUOUS
10
4.60621
20
-4.32933
11
4.61008
21
-4.34237
0
LINE
8
BLACK
6
CONTINUOUS
10
4.61008
20
-4.34237
11
4.61241
21
-4.35576
0
LINE
8
BLACK
6
CONTINUOUS
10
4.61241
20
-4.35576
11
4.6132
21
-4.36934
0
LINE
8
BLACK
6
CONTINUOUS
10
4.6132
20
-4.36934
11
4.61296
21
-4.37675
0
LINE
8
BLACK
6
CONTINUOUS
10
4.61296
20
-4.37675
11
4.61133
21
-4.39025
0
LINE
8
BLACK
6
CONTINUOUS
10
4.61133
20
-4.39025
11
4.60816
21
-4.40347
0
LINE
8
BLACK
6
CONTINUOUS
10
4.60816
20
-4.40347
11
4.60348
21
-4.41624
0
LINE
8
BLACK
6
CONTINUOUS
10
4.60348
20
-4.41624
11
4.59737
21
-4.42839
0
LINE
8
BLACK
6
CONTINUOUS
10
4.59737
20
-4.42839
11
4.58991
21
-4.43976
0
LINE
8
BLACK
6
CONTINUOUS
10
4.58991
20
-4.43976
11
4.58118
21
-4.45019
0
LINE
8
BLACK
6
CONTINUOUS
10
4.58118
20
-4.45019
11
4.57132
21
-4.45955
0
LINE
8
BLACK
6
CONTINUOUS
10
4.57132
20
-4.45955
11
4.56045
21
-4.46771
0
LINE
8
BLACK
6
CONTINUOUS
10
4.56045
20
-4.46771
11
4.54871
21
-4.47457
0
LINE
8
BLACK
6
CONTINUOUS
10
4.54871
20
-4.47457
11
4.53626
21
-4.48004
0
LINE
8
BLACK
6
CONTINUOUS
10
4.53626
20
-4.48004
11
4.52326
21
-4.48404
0
LINE
8
BLACK
6
CONTINUOUS
10
4.52326
20
-4.48404
11
4.50989
21
-4.48652
0
LINE
8
BLACK
6
CONTINUOUS
10
4.50989
20
-4.48652
11
4.49632
21
-4.48744
0
LINE
8
BLACK
6
CONTINUOUS
10
4.49632
20
-4.48744
11
4.48274
21
-4.4868
0
LINE
8
BLACK
6
CONTINUOUS
10
4.48274
20
-4.4868
11
4.46932
21
-4.4846
0
LINE
8
BLACK
6
CONTINUOUS
10
4.46932
20
-4.4846
11
4.45624
21
-4.48088
0
LINE
8
BLACK
6
CONTINUOUS
10
4.45624
20
-4.48088
11
4.44368
21
-4.47567
0
LINE
8
BLACK
6
CONTINUOUS
10
4.44368
20
-4.47567
11
4.4318
21
-4.46906
0
LINE
8
BLACK
6
CONTINUOUS
10
4.4318
20
-4.46906
11
4.42076
21
-4.46113
0
LINE
8
BLACK
6
CONTINUOUS
10
4.42076
20
-4.46113
11
4.4107
21
-4.45197
0
LINE
8
BLACK
6
CONTINUOUS
10
4.4107
20
-4.45197
11
4.40176
21
-4.44173
0
LINE
8
BLACK
6
CONTINUOUS
10
4.40176
20
-4.44173
11
4.39406
21
-4.43052
0
LINE
8
BLACK
6
CONTINUOUS
10
4.39406
20
-4.43052
11
4.3877
21
-4.4185
0
LINE
8
BLACK
6
CONTINUOUS
10
4.3877
20
-4.4185
11
4.38276
21
-4.40583
0
LINE
8
BLACK
6
CONTINUOUS
10
4.38276
20
-4.40583
11
4.37931
21
-4.39268
0
LINE
8
BLACK
6
CONTINUOUS
10
4.37931
20
-4.39268
11
4.37739
21
-4.37922
0
LINE
8
BLACK
6
CONTINUOUS
10
4.37739
20
-4.37922
11
4.37703
21
-4.36563
0
LINE
8
BLACK
6
CONTINUOUS
10
4.37703
20
-4.36563
11
4.37824
21
-4.35208
0
LINE
8
BLACK
6
CONTINUOUS
10
4.37824
20
-4.35208
11
4.381
21
-4.33877
0
LINE
8
BLACK
6
CONTINUOUS
10
4.381
20
-4.33877
11
4.38527
21
-4.32586
0
LINE
8
BLACK
6
CONTINUOUS
10
4.38527
20
-4.32586
11
4.39099
21
-4.31352
0
LINE
8
BLACK
6
CONTINUOUS
10
4.39099
20
-4.31352
11
4.3981
21
-4.30193
0
LINE
8
BLACK
6
CONTINUOUS
10
4.3981
20
-4.30193
11
4.40649
21
-4.29123
0
LINE
8
BLACK
6
CONTINUOUS
10
4.40649
20
-4.29123
11
4.41605
21
-4.28156
0
LINE
8
BLACK
6
CONTINUOUS
10
4.41605
20
-4.28156
11
4.42667
21
-4.27306
0
LINE
8
BLACK
6
CONTINUOUS
10
4.42667
20
-4.27306
11
4.43819
21
-4.26584
0
LINE
8
BLACK
6
CONTINUOUS
10
4.43819
20
-4.26584
11
4.45046
21
-4.25998
0
LINE
8
BLACK
6
CONTINUOUS
10
4.45046
20
-4.25998
11
4.46332
21
-4.25558
0
LINE
8
BLACK
6
CONTINUOUS
10
4.46332
20
-4.25558
11
4.47661
21
-4.25268
0
LINE
8
BLACK
6
CONTINUOUS
10
4.47661
20
-4.25268
11
4.49014
21
-4.25133
0
LINE
8
BLACK
6
CONTINUOUS
10
4.49014
20
-4.25133
11
4.50374
21
-4.25154
0
LINE
8
BLACK
6
CONTINUOUS
10
4.88945
20
-3.4752
11
4.89128
21
-3.47731
0
LINE
8
BLACK
6
CONTINUOUS
10
4.89128
20
-3.47731
11
4.89173
21
-3.47937
0
LINE
8
BLACK
6
CONTINUOUS
10
4.89173
20
-3.47937
11
4.89173
21
-3.6663
0
LINE
8
BLACK
6
CONTINUOUS
10
4.89173
20
-3.6663
11
4.89094
21
-3.66898
0
LINE
8
BLACK
6
CONTINUOUS
10
4.89094
20
-3.66898
11
4.88883
21
-3.67081
0
LINE
8
BLACK
6
CONTINUOUS
10
4.88883
20
-3.67081
11
4.88677
21
-3.67126
0
LINE
8
BLACK
6
CONTINUOUS
10
4.88677
20
-3.67126
11
4.69984
21
-3.67126
0
LINE
8
BLACK
6
CONTINUOUS
10
4.69984
20
-3.67126
11
4.69716
21
-3.67047
0
LINE
8
BLACK
6
CONTINUOUS
10
4.69716
20
-3.67047
11
4.69533
21
-3.66836
0
LINE
8
BLACK
6
CONTINUOUS
10
4.69533
20
-3.66836
11
4.69488
21
-3.6663
0
LINE
8
BLACK
6
CONTINUOUS
10
4.69488
20
-3.6663
11
4.69488
21
-3.47937
0
LINE
8
BLACK
6
CONTINUOUS
10
4.69488
20
-3.47937
11
4.69567
21
-3.47669
0
LINE
8
BLACK
6
CONTINUOUS
10
4.69567
20
-3.47669
11
4.69778
21
-3.47486
0
LINE
8
BLACK
6
CONTINUOUS
10
4.69778
20
-3.47486
11
4.69984
21
-3.47441
0
LINE
8
BLACK
6
CONTINUOUS
10
4.69984
20
-3.47441
11
4.88677
21
-3.47441
0
LINE
8
BLACK
6
CONTINUOUS
10
4.88677
20
-3.47441
11
4.88945
21
-3.4752
0
LINE
8
BLACK
6
CONTINUOUS
10
4.87795
20
-2.99016
11
4.88623
21
-2.99016
0
LINE
8
BLACK
6
CONTINUOUS
10
4.88623
20
-2.99016
11
4.88752
21
-2.99045
0
LINE
8
BLACK
6
CONTINUOUS
10
4.88752
20
-2.99045
11
4.88882
21
-2.9906
0
LINE
8
BLACK
6
CONTINUOUS
10
4.88882
20
-2.9906
11
4.88921
21
-2.99084
0
LINE
8
BLACK
6
CONTINUOUS
10
4.88921
20
-2.99084
11
4.88965
21
-2.99094
0
LINE
8
BLACK
6
CONTINUOUS
10
4.88965
20
-2.99094
11
4.89067
21
-2.99176
0
LINE
8
BLACK
6
CONTINUOUS
10
4.89067
20
-2.99176
11
4.89179
21
-2.99246
0
LINE
8
BLACK
6
CONTINUOUS
10
4.89179
20
-2.99246
11
4.89681
21
-2.99748
0
LINE
8
BLACK
6
CONTINUOUS
10
4.89681
20
-2.99748
11
4.90079
21
-2.99685
0
LINE
8
BLACK
6
CONTINUOUS
10
4.90079
20
-2.99685
11
4.90565
21
-2.99762
0
LINE
8
BLACK
6
CONTINUOUS
10
4.90565
20
-2.99762
11
4.91004
21
-2.99986
0
LINE
8
BLACK
6
CONTINUOUS
10
4.91004
20
-2.99986
11
4.91353
21
-3.00334
0
LINE
8
BLACK
6
CONTINUOUS
10
4.91353
20
-3.00334
11
4.91576
21
-3.00773
0
LINE
8
BLACK
6
CONTINUOUS
10
4.91576
20
-3.00773
11
4.91654
21
-3.0126
0
LINE
8
BLACK
6
CONTINUOUS
10
4.91654
20
-3.0126
11
4.91576
21
-3.01746
0
LINE
8
BLACK
6
CONTINUOUS
10
4.91576
20
-3.01746
11
4.91353
21
-3.02185
0
LINE
8
BLACK
6
CONTINUOUS
10
4.91353
20
-3.02185
11
4.91004
21
-3.02534
0
LINE
8
BLACK
6
CONTINUOUS
10
4.91004
20
-3.02534
11
4.90565
21
-3.02758
0
LINE
8
BLACK
6
CONTINUOUS
10
4.90565
20
-3.02758
11
4.90079
21
-3.02835
0
LINE
8
BLACK
6
CONTINUOUS
10
4.90079
20
-3.02835
11
4.89592
21
-3.02758
0
LINE
8
BLACK
6
CONTINUOUS
10
4.89592
20
-3.02758
11
4.89153
21
-3.02534
0
LINE
8
BLACK
6
CONTINUOUS
10
4.89153
20
-3.02534
11
4.88805
21
-3.02185
0
LINE
8
BLACK
6
CONTINUOUS
10
4.88805
20
-3.02185
11
4.88581
21
-3.01746
0
LINE
8
BLACK
6
CONTINUOUS
10
4.88581
20
-3.01746
11
4.88504
21
-3.0126
0
LINE
8
BLACK
6
CONTINUOUS
10
4.88504
20
-3.0126
11
4.88567
21
-3.00862
0
LINE
8
BLACK
6
CONTINUOUS
10
4.88567
20
-3.00862
11
4.88296
21
-3.00591
0
LINE
8
BLACK
6
CONTINUOUS
10
4.88296
20
-3.00591
11
4.87795
21
-3.00591
0
LINE
8
BLACK
6
CONTINUOUS
10
4.87795
20
-3.00591
11
4.87795
21
-3.0374
0
LINE
8
BLACK
6
CONTINUOUS
10
4.87795
20
-3.0374
11
4.72835
21
-3.0374
0
LINE
8
BLACK
6
CONTINUOUS
10
4.72835
20
-3.0374
11
4.72835
21
-2.95866
0
LINE
8
BLACK
6
CONTINUOUS
10
4.72835
20
-2.95866
11
4.87795
21
-2.95866
0
LINE
8
BLACK
6
CONTINUOUS
10
4.87795
20
-2.95866
11
4.87795
21
-2.99016
0
LINE
8
BLACK
6
CONTINUOUS
10
4.50374
20
-2.65154
11
4.51722
21
-2.65332
0
LINE
8
BLACK
6
CONTINUOUS
10
4.51722
20
-2.65332
11
4.53041
21
-2.65663
0
LINE
8
BLACK
6
CONTINUOUS
10
4.53041
20
-2.65663
11
4.54313
21
-2.66144
0
LINE
8
BLACK
6
CONTINUOUS
10
4.54313
20
-2.66144
11
4.55521
21
-2.66767
0
LINE
8
BLACK
6
CONTINUOUS
10
4.55521
20
-2.66767
11
4.5665
21
-2.67526
0
LINE
8
BLACK
6
CONTINUOUS
10
4.5665
20
-2.67526
11
4.57683
21
-2.68409
0
LINE
8
BLACK
6
CONTINUOUS
10
4.57683
20
-2.68409
11
4.58609
21
-2.69405
0
LINE
8
BLACK
6
CONTINUOUS
10
4.58609
20
-2.69405
11
4.59414
21
-2.70501
0
LINE
8
BLACK
6
CONTINUOUS
10
4.59414
20
-2.70501
11
4.60088
21
-2.71682
0
LINE
8
BLACK
6
CONTINUOUS
10
4.60088
20
-2.71682
11
4.60621
21
-2.72933
0
LINE
8
BLACK
6
CONTINUOUS
10
4.60621
20
-2.72933
11
4.61008
21
-2.74237
0
LINE
8
BLACK
6
CONTINUOUS
10
4.61008
20
-2.74237
11
4.61241
21
-2.75576
0
LINE
8
BLACK
6
CONTINUOUS
10
4.61241
20
-2.75576
11
4.6132
21
-2.76934
0
LINE
8
BLACK
6
CONTINUOUS
10
4.6132
20
-2.76934
11
4.61296
21
-2.77675
0
LINE
8
BLACK
6
CONTINUOUS
10
4.61296
20
-2.77675
11
4.61133
21
-2.79025
0
LINE
8
BLACK
6
CONTINUOUS
10
4.61133
20
-2.79025
11
4.60816
21
-2.80347
0
LINE
8
BLACK
6
CONTINUOUS
10
4.60816
20
-2.80347
11
4.60348
21
-2.81624
0
LINE
8
BLACK
6
CONTINUOUS
10
4.60348
20
-2.81624
11
4.59737
21
-2.82839
0
LINE
8
BLACK
6
CONTINUOUS
10
4.59737
20
-2.82839
11
4.58991
21
-2.83976
0
LINE
8
BLACK
6
CONTINUOUS
10
4.58991
20
-2.83976
11
4.58118
21
-2.85019
0
LINE
8
BLACK
6
CONTINUOUS
10
4.58118
20
-2.85019
11
4.57132
21
-2.85955
0
LINE
8
BLACK
6
CONTINUOUS
10
4.57132
20
-2.85955
11
4.56045
21
-2.86771
0
LINE
8
BLACK
6
CONTINUOUS
10
4.56045
20
-2.86771
11
4.54871
21
-2.87457
0
LINE
8
BLACK
6
CONTINUOUS
10
4.54871
20
-2.87457
11
4.53626
21
-2.88004
0
LINE
8
BLACK
6
CONTINUOUS
10
4.53626
20
-2.88004
11
4.52326
21
-2.88404
0
LINE
8
BLACK
6
CONTINUOUS
10
4.52326
20
-2.88404
11
4.50989
21
-2.88652
0
LINE
8
BLACK
6
CONTINUOUS
10
4.50989
20
-2.88652
11
4.49632
21
-2.88744
0
LINE
8
BLACK
6
CONTINUOUS
10
4.49632
20
-2.88744
11
4.48274
21
-2.8868
0
LINE
8
BLACK
6
CONTINUOUS
10
4.48274
20
-2.8868
11
4.46932
21
-2.8846
0
LINE
8
BLACK
6
CONTINUOUS
10
4.46932
20
-2.8846
11
4.45624
21
-2.88088
0
LINE
8
BLACK
6
CONTINUOUS
10
4.45624
20
-2.88088
11
4.44368
21
-2.87567
0
LINE
8
BLACK
6
CONTINUOUS
10
4.44368
20
-2.87567
11
4.4318
21
-2.86906
0
LINE
8
BLACK
6
CONTINUOUS
10
4.4318
20
-2.86906
11
4.42076
21
-2.86113
0
LINE
8
BLACK
6
CONTINUOUS
10
4.42076
20
-2.86113
11
4.4107
21
-2.85197
0
LINE
8
BLACK
6
CONTINUOUS
10
4.4107
20
-2.85197
11
4.40176
21
-2.84173
0
LINE
8
BLACK
6
CONTINUOUS
10
4.40176
20
-2.84173
11
4.39406
21
-2.83052
0
LINE
8
BLACK
6
CONTINUOUS
10
4.39406
20
-2.83052
11
4.3877
21
-2.8185
0
LINE
8
BLACK
6
CONTINUOUS
10
4.3877
20
-2.8185
11
4.38276
21
-2.80583
0
LINE
8
BLACK
6
CONTINUOUS
10
4.38276
20
-2.80583
11
4.37931
21
-2.79268
0
LINE
8
BLACK
6
CONTINUOUS
10
4.37931
20
-2.79268
11
4.37739
21
-2.77922
0
LINE
8
BLACK
6
CONTINUOUS
10
4.37739
20
-2.77922
11
4.37703
21
-2.76563
0
LINE
8
BLACK
6
CONTINUOUS
10
4.37703
20
-2.76563
11
4.37824
21
-2.75208
0
LINE
8
BLACK
6
CONTINUOUS
10
4.37824
20
-2.75208
11
4.381
21
-2.73877
0
LINE
8
BLACK
6
CONTINUOUS
10
4.381
20
-2.73877
11
4.38527
21
-2.72586
0
LINE
8
BLACK
6
CONTINUOUS
10
4.38527
20
-2.72586
11
4.39099
21
-2.71352
0
LINE
8
BLACK
6
CONTINUOUS
10
4.39099
20
-2.71352
11
4.3981
21
-2.70193
0
LINE
8
BLACK
6
CONTINUOUS
10
4.3981
20
-2.70193
11
4.40649
21
-2.69123
0
LINE
8
BLACK
6
CONTINUOUS
10
4.40649
20
-2.69123
11
4.41605
21
-2.68156
0
LINE
8
BLACK
6
CONTINUOUS
10
4.41605
20
-2.68156
11
4.42667
21
-2.67306
0
LINE
8
BLACK
6
CONTINUOUS
10
4.42667
20
-2.67306
11
4.43819
21
-2.66584
0
LINE
8
BLACK
6
CONTINUOUS
10
4.43819
20
-2.66584
11
4.45046
21
-2.65998
0
LINE
8
BLACK
6
CONTINUOUS
10
4.45046
20
-2.65998
11
4.46332
21
-2.65558
0
LINE
8
BLACK
6
CONTINUOUS
10
4.46332
20
-2.65558
11
4.47661
21
-2.65268
0
LINE
8
BLACK
6
CONTINUOUS
10
4.47661
20
-2.65268
11
4.49014
21
-2.65133
0
LINE
8
BLACK
6
CONTINUOUS
10
4.49014
20
-2.65133
11
4.50374
21
-2.65154
0
CIRCLE
8
BLACK
10
4.7126
20
-3.49606
40
0.00787402
0
CIRCLE
8
BLACK
10
4.90079
20
-3.0126
40
0.00787402
  0
ENDSEC
  0
EOF
