  0
SECTION
  2
HEADER
  9
$ANGBASE
  50
0.0
  9
$ANGDIR
  70
1
  9
$MEASUREMENT
  70
0
  0
ENDSEC
  0
SECTION
  2
TABLES
  0
TABLE
  2
LTYPE
  70
4
  0
LTYPE
  5
40F
  2
CONTINUOUS
  70
0
  3
Solid line
  72
65
  73
0
  40
0.0
  0
LTYPE
  5
410
  2
DASHDOT
 70
0
  3
Dash Dot ____ _ ____ _
 72
65
 73
4
 40
2.0
 49
1.25
 49
-0.25
 49
0.25
 49
-0.25
  0
LTYPE
  5
411
  2
DASHED
 70
0
  3
Dashed __ __ __ __ __
 72
65
 73
2
 40
0.75
 49
0.5
 49
-0.25
  0
LTYPE
  5
43B
  2
DOTTED
 70
0
  3
Dotted .  .  .  .
 72
65
 73
2
 40
0.2
 49
0.0
 49
-0.2
  0
ENDTAB
  0
TABLE
  2
STYLE
  70
4
  0
STYLE
  2
KICAD
  70
0
  40
0
  41
1
  42
1
  50
0
  71
0
  3
isocp.shx
  0
STYLE
  2
KICADB
  70
0
  40
0
  41
1
  42
1
  50
0
  71
0
  3
isocp.shx
  0
STYLE
  2
KICADI
  70
0
  40
0
  41
1
  42
1
  50
15
  71
0
  3
isocp.shx
  0
STYLE
  2
KICADBI
  70
0
  40
0
  41
1
  42
1
  50
15
  71
0
  3
isocp.shx
  0
ENDTAB
  0
TABLE
  2
LAYER
  70
1
  0
LAYER
  2
BLACK
  70
0
  62
7
  6
CONTINUOUS
  0
ENDTAB
  0
ENDSEC
  0
SECTION
  2
ENTITIES
0
LINE
8
BLACK
6
CONTINUOUS
10
0.243913
20
-0.867352
11
0.245174
21
-0.867575
0
LINE
8
BLACK
6
CONTINUOUS
10
0.245174
20
-0.867575
11
0.245376
21
-0.867744
0
LINE
8
BLACK
6
CONTINUOUS
10
0.245376
20
-0.867744
11
0.24563
21
-0.867812
0
LINE
8
BLACK
6
CONTINUOUS
10
0.24563
20
-0.867812
11
0.246535
21
-0.868717
0
LINE
8
BLACK
6
CONTINUOUS
10
0.246535
20
-0.868717
11
0.247516
21
-0.86954
0
LINE
8
BLACK
6
CONTINUOUS
10
0.247516
20
-0.86954
11
0.247605
21
-0.869788
0
LINE
8
BLACK
6
CONTINUOUS
10
0.247605
20
-0.869788
11
0.247791
21
-0.869974
0
LINE
8
BLACK
6
CONTINUOUS
10
0.247791
20
-0.869974
11
0.248123
21
-0.87121
0
LINE
8
BLACK
6
CONTINUOUS
10
0.248123
20
-0.87121
11
0.24856
21
-0.872413
0
LINE
8
BLACK
6
CONTINUOUS
10
0.24856
20
-0.872413
11
0.248515
21
-0.872672
0
LINE
8
BLACK
6
CONTINUOUS
10
0.248515
20
-0.872672
11
0.248583
21
-0.872926
0
LINE
8
BLACK
6
CONTINUOUS
10
0.248583
20
-0.872926
11
0.248583
21
-0.931981
0
LINE
8
BLACK
6
CONTINUOUS
10
0.248583
20
-0.931981
11
0.247791
21
-0.934934
0
LINE
8
BLACK
6
CONTINUOUS
10
0.247791
20
-0.934934
11
0.24563
21
-0.937096
0
LINE
8
BLACK
6
CONTINUOUS
10
0.24563
20
-0.937096
11
0.242677
21
-0.937887
0
LINE
8
BLACK
6
CONTINUOUS
10
0.242677
20
-0.937887
11
0.239724
21
-0.937096
0
LINE
8
BLACK
6
CONTINUOUS
10
0.239724
20
-0.937096
11
0.237563
21
-0.934934
0
LINE
8
BLACK
6
CONTINUOUS
10
0.237563
20
-0.934934
11
0.236772
21
-0.931981
0
LINE
8
BLACK
6
CONTINUOUS
10
0.236772
20
-0.931981
11
0.236772
21
-0.899546
0
LINE
8
BLACK
6
CONTINUOUS
10
0.236772
20
-0.899546
11
0.228344
21
-0.917606
0
LINE
8
BLACK
6
CONTINUOUS
10
0.228344
20
-0.917606
11
0.228009
21
-0.918005
0
LINE
8
BLACK
6
CONTINUOUS
10
0.228009
20
-0.918005
11
0.227831
21
-0.918494
0
LINE
8
BLACK
6
CONTINUOUS
10
0.227831
20
-0.918494
11
0.227041
21
-0.919157
0
LINE
8
BLACK
6
CONTINUOUS
10
0.227041
20
-0.919157
11
0.226378
21
-0.919947
0
LINE
8
BLACK
6
CONTINUOUS
10
0.226378
20
-0.919947
11
0.225888
21
-0.920125
0
LINE
8
BLACK
6
CONTINUOUS
10
0.225888
20
-0.920125
11
0.225489
21
-0.92046
0
LINE
8
BLACK
6
CONTINUOUS
10
0.225489
20
-0.92046
11
0.224474
21
-0.920639
0
LINE
8
BLACK
6
CONTINUOUS
10
0.224474
20
-0.920639
11
0.223505
21
-0.920992
0
LINE
8
BLACK
6
CONTINUOUS
10
0.223505
20
-0.920992
11
0.222992
21
-0.920901
0
LINE
8
BLACK
6
CONTINUOUS
10
0.222992
20
-0.920901
11
0.222479
21
-0.920992
0
LINE
8
BLACK
6
CONTINUOUS
10
0.222479
20
-0.920992
11
0.22151
21
-0.920639
0
LINE
8
BLACK
6
CONTINUOUS
10
0.22151
20
-0.920639
11
0.220495
21
-0.92046
0
LINE
8
BLACK
6
CONTINUOUS
10
0.220495
20
-0.92046
11
0.220096
21
-0.920125
0
LINE
8
BLACK
6
CONTINUOUS
10
0.220096
20
-0.920125
11
0.219606
21
-0.919947
0
LINE
8
BLACK
6
CONTINUOUS
10
0.219606
20
-0.919947
11
0.218943
21
-0.919157
0
LINE
8
BLACK
6
CONTINUOUS
10
0.218943
20
-0.919157
11
0.218154
21
-0.918494
0
LINE
8
BLACK
6
CONTINUOUS
10
0.218154
20
-0.918494
11
0.217976
21
-0.918005
0
LINE
8
BLACK
6
CONTINUOUS
10
0.217976
20
-0.918005
11
0.217641
21
-0.917606
0
LINE
8
BLACK
6
CONTINUOUS
10
0.217641
20
-0.917606
11
0.209213
21
-0.899546
0
LINE
8
BLACK
6
CONTINUOUS
10
0.209213
20
-0.899546
11
0.209213
21
-0.931981
0
LINE
8
BLACK
6
CONTINUOUS
10
0.209213
20
-0.931981
11
0.208421
21
-0.934934
0
LINE
8
BLACK
6
CONTINUOUS
10
0.208421
20
-0.934934
11
0.20626
21
-0.937096
0
LINE
8
BLACK
6
CONTINUOUS
10
0.20626
20
-0.937096
11
0.203307
21
-0.937887
0
LINE
8
BLACK
6
CONTINUOUS
10
0.203307
20
-0.937887
11
0.200354
21
-0.937096
0
LINE
8
BLACK
6
CONTINUOUS
10
0.200354
20
-0.937096
11
0.198193
21
-0.934934
0
LINE
8
BLACK
6
CONTINUOUS
10
0.198193
20
-0.934934
11
0.197402
21
-0.931981
0
LINE
8
BLACK
6
CONTINUOUS
10
0.197402
20
-0.931981
11
0.197402
21
-0.872926
0
LINE
8
BLACK
6
CONTINUOUS
10
0.197402
20
-0.872926
11
0.19747
21
-0.872672
0
LINE
8
BLACK
6
CONTINUOUS
10
0.19747
20
-0.872672
11
0.197424
21
-0.872413
0
LINE
8
BLACK
6
CONTINUOUS
10
0.197424
20
-0.872413
11
0.197861
21
-0.87121
0
LINE
8
BLACK
6
CONTINUOUS
10
0.197861
20
-0.87121
11
0.198193
21
-0.869974
0
LINE
8
BLACK
6
CONTINUOUS
10
0.198193
20
-0.869974
11
0.198379
21
-0.869788
0
LINE
8
BLACK
6
CONTINUOUS
10
0.198379
20
-0.869788
11
0.198469
21
-0.86954
0
LINE
8
BLACK
6
CONTINUOUS
10
0.198469
20
-0.86954
11
0.199449
21
-0.868717
0
LINE
8
BLACK
6
CONTINUOUS
10
0.199449
20
-0.868717
11
0.200354
21
-0.867812
0
LINE
8
BLACK
6
CONTINUOUS
10
0.200354
20
-0.867812
11
0.200608
21
-0.867744
0
LINE
8
BLACK
6
CONTINUOUS
10
0.200608
20
-0.867744
11
0.20081
21
-0.867575
0
LINE
8
BLACK
6
CONTINUOUS
10
0.20081
20
-0.867575
11
0.20207
21
-0.867352
0
LINE
8
BLACK
6
CONTINUOUS
10
0.20207
20
-0.867352
11
0.203307
21
-0.867021
0
LINE
8
BLACK
6
CONTINUOUS
10
0.203307
20
-0.867021
11
0.203561
21
-0.867089
0
LINE
8
BLACK
6
CONTINUOUS
10
0.203561
20
-0.867089
11
0.20382
21
-0.867043
0
LINE
8
BLACK
6
CONTINUOUS
10
0.20382
20
-0.867043
11
0.205023
21
-0.867481
0
LINE
8
BLACK
6
CONTINUOUS
10
0.205023
20
-0.867481
11
0.20626
21
-0.867812
0
LINE
8
BLACK
6
CONTINUOUS
10
0.20626
20
-0.867812
11
0.206446
21
-0.867998
0
LINE
8
BLACK
6
CONTINUOUS
10
0.206446
20
-0.867998
11
0.206693
21
-0.868088
0
LINE
8
BLACK
6
CONTINUOUS
10
0.206693
20
-0.868088
11
0.207516
21
-0.869068
0
LINE
8
BLACK
6
CONTINUOUS
10
0.207516
20
-0.869068
11
0.208421
21
-0.869974
0
LINE
8
BLACK
6
CONTINUOUS
10
0.208421
20
-0.869974
11
0.208489
21
-0.870228
0
LINE
8
BLACK
6
CONTINUOUS
10
0.208489
20
-0.870228
11
0.208659
21
-0.870429
0
LINE
8
BLACK
6
CONTINUOUS
10
0.208659
20
-0.870429
11
0.222992
21
-0.901144
0
LINE
8
BLACK
6
CONTINUOUS
10
0.222992
20
-0.901144
11
0.237326
21
-0.870429
0
LINE
8
BLACK
6
CONTINUOUS
10
0.237326
20
-0.870429
11
0.237495
21
-0.870228
0
LINE
8
BLACK
6
CONTINUOUS
10
0.237495
20
-0.870228
11
0.237563
21
-0.869974
0
LINE
8
BLACK
6
CONTINUOUS
10
0.237563
20
-0.869974
11
0.238468
21
-0.869068
0
LINE
8
BLACK
6
CONTINUOUS
10
0.238468
20
-0.869068
11
0.239291
21
-0.868088
0
LINE
8
BLACK
6
CONTINUOUS
10
0.239291
20
-0.868088
11
0.239538
21
-0.867998
0
LINE
8
BLACK
6
CONTINUOUS
10
0.239538
20
-0.867998
11
0.239724
21
-0.867812
0
LINE
8
BLACK
6
CONTINUOUS
10
0.239724
20
-0.867812
11
0.240961
21
-0.867481
0
LINE
8
BLACK
6
CONTINUOUS
10
0.240961
20
-0.867481
11
0.242164
21
-0.867043
0
LINE
8
BLACK
6
CONTINUOUS
10
0.242164
20
-0.867043
11
0.242423
21
-0.867089
0
LINE
8
BLACK
6
CONTINUOUS
10
0.242423
20
-0.867089
11
0.242677
21
-0.867021
0
LINE
8
BLACK
6
CONTINUOUS
10
0.242677
20
-0.867021
11
0.243913
21
-0.867352
0
LINE
8
BLACK
6
CONTINUOUS
10
0.273751
20
-0.867812
11
0.275913
21
-0.869974
0
LINE
8
BLACK
6
CONTINUOUS
10
0.275913
20
-0.869974
11
0.276704
21
-0.872926
0
LINE
8
BLACK
6
CONTINUOUS
10
0.276704
20
-0.872926
11
0.276704
21
-0.926076
0
LINE
8
BLACK
6
CONTINUOUS
10
0.276704
20
-0.926076
11
0.29892
21
-0.926076
0
LINE
8
BLACK
6
CONTINUOUS
10
0.29892
20
-0.926076
11
0.301873
21
-0.926867
0
LINE
8
BLACK
6
CONTINUOUS
10
0.301873
20
-0.926867
11
0.304034
21
-0.929029
0
LINE
8
BLACK
6
CONTINUOUS
10
0.304034
20
-0.929029
11
0.304522
21
-0.930849
0
LINE
8
BLACK
6
CONTINUOUS
10
0.304522
20
-0.930849
11
0.304566
21
-0.930114
0
LINE
8
BLACK
6
CONTINUOUS
10
0.304566
20
-0.930114
11
0.324251
21
-0.871059
0
LINE
8
BLACK
6
CONTINUOUS
10
0.324251
20
-0.871059
11
0.324905
21
-0.870069
0
LINE
8
BLACK
6
CONTINUOUS
10
0.324905
20
-0.870069
11
0.325435
21
-0.869008
0
LINE
8
BLACK
6
CONTINUOUS
10
0.325435
20
-0.869008
11
0.325737
21
-0.868809
0
LINE
8
BLACK
6
CONTINUOUS
10
0.325737
20
-0.868809
11
0.325936
21
-0.868508
0
LINE
8
BLACK
6
CONTINUOUS
10
0.325936
20
-0.868508
11
0.326997
21
-0.867977
0
LINE
8
BLACK
6
CONTINUOUS
10
0.326997
20
-0.867977
11
0.327986
21
-0.867324
0
LINE
8
BLACK
6
CONTINUOUS
10
0.327986
20
-0.867324
11
0.328347
21
-0.867302
0
LINE
8
BLACK
6
CONTINUOUS
10
0.328347
20
-0.867302
11
0.32867
21
-0.867141
0
LINE
8
BLACK
6
CONTINUOUS
10
0.32867
20
-0.867141
11
0.329854
21
-0.867212
0
LINE
8
BLACK
6
CONTINUOUS
10
0.329854
20
-0.867212
11
0.331038
21
-0.867141
0
LINE
8
BLACK
6
CONTINUOUS
10
0.331038
20
-0.867141
11
0.331361
21
-0.867302
0
LINE
8
BLACK
6
CONTINUOUS
10
0.331361
20
-0.867302
11
0.331721
21
-0.867324
0
LINE
8
BLACK
6
CONTINUOUS
10
0.331721
20
-0.867324
11
0.332711
21
-0.867977
0
LINE
8
BLACK
6
CONTINUOUS
10
0.332711
20
-0.867977
11
0.333772
21
-0.868508
0
LINE
8
BLACK
6
CONTINUOUS
10
0.333772
20
-0.868508
11
0.333971
21
-0.868809
0
LINE
8
BLACK
6
CONTINUOUS
10
0.333971
20
-0.868809
11
0.334272
21
-0.869008
0
LINE
8
BLACK
6
CONTINUOUS
10
0.334272
20
-0.869008
11
0.334803
21
-0.870069
0
LINE
8
BLACK
6
CONTINUOUS
10
0.334803
20
-0.870069
11
0.335456
21
-0.871059
0
LINE
8
BLACK
6
CONTINUOUS
10
0.335456
20
-0.871059
11
0.355141
21
-0.930114
0
LINE
8
BLACK
6
CONTINUOUS
10
0.355141
20
-0.930114
11
0.355324
21
-0.933165
0
LINE
8
BLACK
6
CONTINUOUS
10
0.355324
20
-0.933165
11
0.353957
21
-0.9359
0
LINE
8
BLACK
6
CONTINUOUS
10
0.353957
20
-0.9359
11
0.351406
21
-0.937584
0
LINE
8
BLACK
6
CONTINUOUS
10
0.351406
20
-0.937584
11
0.348355
21
-0.937767
0
LINE
8
BLACK
6
CONTINUOUS
10
0.348355
20
-0.937767
11
0.345621
21
-0.9364
0
LINE
8
BLACK
6
CONTINUOUS
10
0.345621
20
-0.9364
11
0.343936
21
-0.933849
0
LINE
8
BLACK
6
CONTINUOUS
10
0.343936
20
-0.933849
11
0.339658
21
-0.921014
0
LINE
8
BLACK
6
CONTINUOUS
10
0.339658
20
-0.921014
11
0.320049
21
-0.921014
0
LINE
8
BLACK
6
CONTINUOUS
10
0.320049
20
-0.921014
11
0.315771
21
-0.933849
0
LINE
8
BLACK
6
CONTINUOUS
10
0.315771
20
-0.933849
11
0.314087
21
-0.9364
0
LINE
8
BLACK
6
CONTINUOUS
10
0.314087
20
-0.9364
11
0.311353
21
-0.937767
0
LINE
8
BLACK
6
CONTINUOUS
10
0.311353
20
-0.937767
11
0.308301
21
-0.937584
0
LINE
8
BLACK
6
CONTINUOUS
10
0.308301
20
-0.937584
11
0.30575
21
-0.9359
0
LINE
8
BLACK
6
CONTINUOUS
10
0.30575
20
-0.9359
11
0.304465
21
-0.933328
0
LINE
8
BLACK
6
CONTINUOUS
10
0.304465
20
-0.933328
11
0.304034
21
-0.934934
0
LINE
8
BLACK
6
CONTINUOUS
10
0.304034
20
-0.934934
11
0.301873
21
-0.937096
0
LINE
8
BLACK
6
CONTINUOUS
10
0.301873
20
-0.937096
11
0.29892
21
-0.937887
0
LINE
8
BLACK
6
CONTINUOUS
10
0.29892
20
-0.937887
11
0.270799
21
-0.937887
0
LINE
8
BLACK
6
CONTINUOUS
10
0.270799
20
-0.937887
11
0.267846
21
-0.937096
0
LINE
8
BLACK
6
CONTINUOUS
10
0.267846
20
-0.937096
11
0.265684
21
-0.934934
0
LINE
8
BLACK
6
CONTINUOUS
10
0.265684
20
-0.934934
11
0.264893
21
-0.931981
0
LINE
8
BLACK
6
CONTINUOUS
10
0.264893
20
-0.931981
11
0.264893
21
-0.872926
0
LINE
8
BLACK
6
CONTINUOUS
10
0.264893
20
-0.872926
11
0.265684
21
-0.869974
0
LINE
8
BLACK
6
CONTINUOUS
10
0.265684
20
-0.869974
11
0.267846
21
-0.867812
0
LINE
8
BLACK
6
CONTINUOUS
10
0.267846
20
-0.867812
11
0.270799
21
-0.867021
0
LINE
8
BLACK
6
CONTINUOUS
10
0.270799
20
-0.867021
11
0.273751
21
-0.867812
0
LINE
8
BLACK
6
CONTINUOUS
10
0.323986
20
-0.909203
11
0.335721
21
-0.909203
0
LINE
8
BLACK
6
CONTINUOUS
10
0.335721
20
-0.909203
11
0.329854
21
-0.891601
0
LINE
8
BLACK
6
CONTINUOUS
10
0.329854
20
-0.891601
11
0.323986
21
-0.909203
0
LINE
8
BLACK
6
CONTINUOUS
10
0.39022
20
-0.867372
11
0.39155
21
-0.867644
0
LINE
8
BLACK
6
CONTINUOUS
10
0.39155
20
-0.867644
11
0.397174
21
-0.870456
0
LINE
8
BLACK
6
CONTINUOUS
10
0.397174
20
-0.870456
11
0.397886
21
-0.871087
0
LINE
8
BLACK
6
CONTINUOUS
10
0.397886
20
-0.871087
11
0.398709
21
-0.871563
0
LINE
8
BLACK
6
CONTINUOUS
10
0.398709
20
-0.871563
11
0.401521
21
-0.874375
0
LINE
8
BLACK
6
CONTINUOUS
10
0.401521
20
-0.874375
11
0.401997
21
-0.875198
0
LINE
8
BLACK
6
CONTINUOUS
10
0.401997
20
-0.875198
11
0.402627
21
-0.87591
0
LINE
8
BLACK
6
CONTINUOUS
10
0.402627
20
-0.87591
11
0.40544
21
-0.881534
0
LINE
8
BLACK
6
CONTINUOUS
10
0.40544
20
-0.881534
11
0.405712
21
-0.882864
0
LINE
8
BLACK
6
CONTINUOUS
10
0.405712
20
-0.882864
11
0.406063
21
-0.884175
0
LINE
8
BLACK
6
CONTINUOUS
10
0.406063
20
-0.884175
11
0.406063
21
-0.889799
0
LINE
8
BLACK
6
CONTINUOUS
10
0.406063
20
-0.889799
11
0.405712
21
-0.89111
0
LINE
8
BLACK
6
CONTINUOUS
10
0.405712
20
-0.89111
11
0.40544
21
-0.89244
0
LINE
8
BLACK
6
CONTINUOUS
10
0.40544
20
-0.89244
11
0.402627
21
-0.898065
0
LINE
8
BLACK
6
CONTINUOUS
10
0.402627
20
-0.898065
11
0.401997
21
-0.898776
0
LINE
8
BLACK
6
CONTINUOUS
10
0.401997
20
-0.898776
11
0.401521
21
-0.899599
0
LINE
8
BLACK
6
CONTINUOUS
10
0.401521
20
-0.899599
11
0.401467
21
-0.899653
0
LINE
8
BLACK
6
CONTINUOUS
10
0.401467
20
-0.899653
11
0.401521
21
-0.899684
0
LINE
8
BLACK
6
CONTINUOUS
10
0.401521
20
-0.899684
11
0.404333
21
-0.902496
0
LINE
8
BLACK
6
CONTINUOUS
10
0.404333
20
-0.902496
11
0.404809
21
-0.90332
0
LINE
8
BLACK
6
CONTINUOUS
10
0.404809
20
-0.90332
11
0.40544
21
-0.904031
0
LINE
8
BLACK
6
CONTINUOUS
10
0.40544
20
-0.904031
11
0.408252
21
-0.909655
0
LINE
8
BLACK
6
CONTINUOUS
10
0.408252
20
-0.909655
11
0.408524
21
-0.910985
0
LINE
8
BLACK
6
CONTINUOUS
10
0.408524
20
-0.910985
11
0.408875
21
-0.912296
0
LINE
8
BLACK
6
CONTINUOUS
10
0.408875
20
-0.912296
11
0.408875
21
-0.920733
0
LINE
8
BLACK
6
CONTINUOUS
10
0.408875
20
-0.920733
11
0.408524
21
-0.922044
0
LINE
8
BLACK
6
CONTINUOUS
10
0.408524
20
-0.922044
11
0.408252
21
-0.923374
0
LINE
8
BLACK
6
CONTINUOUS
10
0.408252
20
-0.923374
11
0.40544
21
-0.928998
0
LINE
8
BLACK
6
CONTINUOUS
10
0.40544
20
-0.928998
11
0.404809
21
-0.92971
0
LINE
8
BLACK
6
CONTINUOUS
10
0.404809
20
-0.92971
11
0.404333
21
-0.930533
0
LINE
8
BLACK
6
CONTINUOUS
10
0.404333
20
-0.930533
11
0.401521
21
-0.933345
0
LINE
8
BLACK
6
CONTINUOUS
10
0.401521
20
-0.933345
11
0.400698
21
-0.93382
0
LINE
8
BLACK
6
CONTINUOUS
10
0.400698
20
-0.93382
11
0.399986
21
-0.934451
0
LINE
8
BLACK
6
CONTINUOUS
10
0.399986
20
-0.934451
11
0.394362
21
-0.937263
0
LINE
8
BLACK
6
CONTINUOUS
10
0.394362
20
-0.937263
11
0.393032
21
-0.937536
0
LINE
8
BLACK
6
CONTINUOUS
10
0.393032
20
-0.937536
11
0.391721
21
-0.937887
0
LINE
8
BLACK
6
CONTINUOUS
10
0.391721
20
-0.937887
11
0.369224
21
-0.937887
0
LINE
8
BLACK
6
CONTINUOUS
10
0.369224
20
-0.937887
11
0.366271
21
-0.937096
0
LINE
8
BLACK
6
CONTINUOUS
10
0.366271
20
-0.937096
11
0.364109
21
-0.934934
0
LINE
8
BLACK
6
CONTINUOUS
10
0.364109
20
-0.934934
11
0.363318
21
-0.931981
0
LINE
8
BLACK
6
CONTINUOUS
10
0.363318
20
-0.931981
11
0.363318
21
-0.872926
0
LINE
8
BLACK
6
CONTINUOUS
10
0.363318
20
-0.872926
11
0.364109
21
-0.869974
0
LINE
8
BLACK
6
CONTINUOUS
10
0.364109
20
-0.869974
11
0.366271
21
-0.867812
0
LINE
8
BLACK
6
CONTINUOUS
10
0.366271
20
-0.867812
11
0.369224
21
-0.867021
0
LINE
8
BLACK
6
CONTINUOUS
10
0.369224
20
-0.867021
11
0.388909
21
-0.867021
0
LINE
8
BLACK
6
CONTINUOUS
10
0.388909
20
-0.867021
11
0.39022
21
-0.867372
0
LINE
8
BLACK
6
CONTINUOUS
10
0.375129
20
-0.926076
11
0.390327
21
-0.926076
0
LINE
8
BLACK
6
CONTINUOUS
10
0.390327
20
-0.926076
11
0.393847
21
-0.924316
0
LINE
8
BLACK
6
CONTINUOUS
10
0.393847
20
-0.924316
11
0.395304
21
-0.922859
0
LINE
8
BLACK
6
CONTINUOUS
10
0.395304
20
-0.922859
11
0.397064
21
-0.919339
0
LINE
8
BLACK
6
CONTINUOUS
10
0.397064
20
-0.919339
11
0.397064
21
-0.91369
0
LINE
8
BLACK
6
CONTINUOUS
10
0.397064
20
-0.91369
11
0.395304
21
-0.91017
0
LINE
8
BLACK
6
CONTINUOUS
10
0.395304
20
-0.91017
11
0.394155
21
-0.909022
0
LINE
8
BLACK
6
CONTINUOUS
10
0.394155
20
-0.909022
11
0.38795
21
-0.906953
0
LINE
8
BLACK
6
CONTINUOUS
10
0.38795
20
-0.906953
11
0.375129
21
-0.906953
0
LINE
8
BLACK
6
CONTINUOUS
10
0.375129
20
-0.906953
11
0.375129
21
-0.926076
0
LINE
8
BLACK
6
CONTINUOUS
10
0.375129
20
-0.895142
11
0.387515
21
-0.895142
0
LINE
8
BLACK
6
CONTINUOUS
10
0.387515
20
-0.895142
11
0.391035
21
-0.893382
0
LINE
8
BLACK
6
CONTINUOUS
10
0.391035
20
-0.893382
11
0.392492
21
-0.891925
0
LINE
8
BLACK
6
CONTINUOUS
10
0.392492
20
-0.891925
11
0.394252
21
-0.888405
0
LINE
8
BLACK
6
CONTINUOUS
10
0.394252
20
-0.888405
11
0.394252
21
-0.885569
0
LINE
8
BLACK
6
CONTINUOUS
10
0.394252
20
-0.885569
11
0.392492
21
-0.882049
0
LINE
8
BLACK
6
CONTINUOUS
10
0.392492
20
-0.882049
11
0.391035
21
-0.880592
0
LINE
8
BLACK
6
CONTINUOUS
10
0.391035
20
-0.880592
11
0.387515
21
-0.878832
0
LINE
8
BLACK
6
CONTINUOUS
10
0.387515
20
-0.878832
11
0.375129
21
-0.878832
0
LINE
8
BLACK
6
CONTINUOUS
10
0.375129
20
-0.878832
11
0.375129
21
-0.895142
0
LINE
8
BLACK
6
CONTINUOUS
10
1.78554
20
0.189204
11
1.78827
21
0.18703
0
LINE
8
BLACK
6
CONTINUOUS
10
1.78827
20
0.18703
11
1.78978
21
0.183889
0
LINE
8
BLACK
6
CONTINUOUS
10
1.78978
20
0.183889
11
1.78998
21
0.182146
0
LINE
8
BLACK
6
CONTINUOUS
10
1.78998
20
0.182146
11
1.78998
21
-0.982146
0
LINE
8
BLACK
6
CONTINUOUS
10
1.78998
20
-0.982146
11
1.7892
21
-0.985545
0
LINE
8
BLACK
6
CONTINUOUS
10
1.7892
20
-0.985545
11
1.78703
21
-0.988271
0
LINE
8
BLACK
6
CONTINUOUS
10
1.78703
20
-0.988271
11
1.78389
21
-0.989784
0
LINE
8
BLACK
6
CONTINUOUS
10
1.78389
20
-0.989784
11
1.78215
21
-0.98998
0
LINE
8
BLACK
6
CONTINUOUS
10
1.78215
20
-0.98998
11
-0.182146
21
-0.98998
0
LINE
8
BLACK
6
CONTINUOUS
10
-0.182146
20
-0.98998
11
-0.185545
21
-0.989204
0
LINE
8
BLACK
6
CONTINUOUS
10
-0.185545
20
-0.989204
11
-0.188271
21
-0.98703
0
LINE
8
BLACK
6
CONTINUOUS
10
-0.188271
20
-0.98703
11
-0.189784
21
-0.983889
0
LINE
8
BLACK
6
CONTINUOUS
10
-0.189784
20
-0.983889
11
-0.18998
21
-0.982146
0
LINE
8
BLACK
6
CONTINUOUS
10
-0.18998
20
-0.982146
11
-0.18998
21
-0.83678
0
LINE
8
BLACK
6
CONTINUOUS
10
-0.18998
20
-0.83678
11
-0.18998
21
-0.634646
0
LINE
8
BLACK
6
CONTINUOUS
10
-0.18998
20
-0.634646
11
-0.18998
21
-0.540768
0
LINE
8
BLACK
6
CONTINUOUS
10
-0.18998
20
-0.540768
11
-0.18998
21
-0.265886
0
LINE
8
BLACK
6
CONTINUOUS
10
-0.18998
20
-0.265886
11
-0.18998
21
0.182146
0
LINE
8
BLACK
6
CONTINUOUS
10
-0.18998
20
0.182146
11
-0.189204
21
0.185545
0
LINE
8
BLACK
6
CONTINUOUS
10
-0.189204
20
0.185545
11
-0.18703
21
0.188271
0
LINE
8
BLACK
6
CONTINUOUS
10
-0.18703
20
0.188271
11
-0.183889
21
0.189784
0
LINE
8
BLACK
6
CONTINUOUS
10
-0.183889
20
0.189784
11
-0.182146
21
0.18998
0
LINE
8
BLACK
6
CONTINUOUS
10
-0.182146
20
0.18998
11
1.78215
21
0.18998
0
LINE
8
BLACK
6
CONTINUOUS
10
1.78215
20
0.18998
11
1.78554
21
0.189204
0
LINE
8
BLACK
6
CONTINUOUS
10
0.156184
20
-0.973771
11
0.447281
21
-0.973771
0
LINE
8
BLACK
6
CONTINUOUS
10
0.447281
20
-0.973771
11
0.447281
21
-0.83678
0
LINE
8
BLACK
6
CONTINUOUS
10
0.447281
20
-0.83678
11
0.156184
21
-0.83678
0
LINE
8
BLACK
6
CONTINUOUS
10
0.156184
20
-0.83678
11
0.156184
21
-0.973771
0
LINE
8
BLACK
6
CONTINUOUS
10
0.594646
20
-0.539528
11
0.564521
21
-0.539528
0
LINE
8
BLACK
6
CONTINUOUS
10
0.564521
20
-0.539528
11
0.463835
21
-0.640213
0
LINE
8
BLACK
6
CONTINUOUS
10
0.463835
20
-0.640213
11
0.462717
21
-0.640916
0
LINE
8
BLACK
6
CONTINUOUS
10
0.462717
20
-0.640916
11
0.461684
21
-0.64174
0
LINE
8
BLACK
6
CONTINUOUS
10
0.461684
20
-0.64174
11
0.461248
21
-0.64184
0
LINE
8
BLACK
6
CONTINUOUS
10
0.461248
20
-0.64184
11
0.460868
21
-0.642078
0
LINE
8
BLACK
6
CONTINUOUS
10
0.460868
20
-0.642078
11
0.459556
21
-0.642226
0
LINE
8
BLACK
6
CONTINUOUS
10
0.459556
20
-0.642226
11
0.458268
21
-0.64252
0
LINE
8
BLACK
6
CONTINUOUS
10
0.458268
20
-0.64252
11
0.231555
21
-0.64252
0
LINE
8
BLACK
6
CONTINUOUS
10
0.231555
20
-0.64252
11
0.230851
21
-0.643902
0
LINE
8
BLACK
6
CONTINUOUS
10
0.230851
20
-0.643902
11
0.227367
21
-0.647386
0
LINE
8
BLACK
6
CONTINUOUS
10
0.227367
20
-0.647386
11
0.222977
21
-0.649623
0
LINE
8
BLACK
6
CONTINUOUS
10
0.222977
20
-0.649623
11
0.21811
21
-0.650394
0
LINE
8
BLACK
6
CONTINUOUS
10
0.21811
20
-0.650394
11
0.213244
21
-0.649623
0
LINE
8
BLACK
6
CONTINUOUS
10
0.213244
20
-0.649623
11
0.208854
21
-0.647386
0
LINE
8
BLACK
6
CONTINUOUS
10
0.208854
20
-0.647386
11
0.20537
21
-0.643902
0
LINE
8
BLACK
6
CONTINUOUS
10
0.20537
20
-0.643902
11
0.203133
21
-0.639512
0
LINE
8
BLACK
6
CONTINUOUS
10
0.203133
20
-0.639512
11
0.202362
21
-0.634646
0
LINE
8
BLACK
6
CONTINUOUS
10
0.202362
20
-0.634646
11
0.203133
21
-0.629779
0
LINE
8
BLACK
6
CONTINUOUS
10
0.203133
20
-0.629779
11
0.20537
21
-0.625389
0
LINE
8
BLACK
6
CONTINUOUS
10
0.20537
20
-0.625389
11
0.208854
21
-0.621905
0
LINE
8
BLACK
6
CONTINUOUS
10
0.208854
20
-0.621905
11
0.213244
21
-0.619668
0
LINE
8
BLACK
6
CONTINUOUS
10
0.213244
20
-0.619668
11
0.21811
21
-0.618898
0
LINE
8
BLACK
6
CONTINUOUS
10
0.21811
20
-0.618898
11
0.222977
21
-0.619668
0
LINE
8
BLACK
6
CONTINUOUS
10
0.222977
20
-0.619668
11
0.227367
21
-0.621905
0
LINE
8
BLACK
6
CONTINUOUS
10
0.227367
20
-0.621905
11
0.230851
21
-0.625389
0
LINE
8
BLACK
6
CONTINUOUS
10
0.230851
20
-0.625389
11
0.231555
21
-0.626772
0
LINE
8
BLACK
6
CONTINUOUS
10
0.231555
20
-0.626772
11
0.455006
21
-0.626772
0
LINE
8
BLACK
6
CONTINUOUS
10
0.455006
20
-0.626772
11
0.555276
21
-0.526502
0
LINE
8
BLACK
6
CONTINUOUS
10
0.555276
20
-0.526502
11
0.555276
21
-0.440709
0
LINE
8
BLACK
6
CONTINUOUS
10
0.555276
20
-0.440709
11
0.594646
21
-0.440709
0
LINE
8
BLACK
6
CONTINUOUS
10
0.594646
20
-0.440709
11
0.594646
21
-0.539528
0
LINE
8
BLACK
6
CONTINUOUS
10
0.654438
20
-0.209743
11
0.65575
21
-0.209891
0
LINE
8
BLACK
6
CONTINUOUS
10
0.65575
20
-0.209891
11
0.656129
21
-0.210129
0
LINE
8
BLACK
6
CONTINUOUS
10
0.656129
20
-0.210129
11
0.656566
21
-0.210229
0
LINE
8
BLACK
6
CONTINUOUS
10
0.656566
20
-0.210229
11
0.657599
21
-0.211052
0
LINE
8
BLACK
6
CONTINUOUS
10
0.657599
20
-0.211052
11
0.658717
21
-0.211755
0
LINE
8
BLACK
6
CONTINUOUS
10
0.658717
20
-0.211755
11
0.725646
21
-0.278684
0
LINE
8
BLACK
6
CONTINUOUS
10
0.725646
20
-0.278684
11
0.726349
21
-0.279803
0
LINE
8
BLACK
6
CONTINUOUS
10
0.726349
20
-0.279803
11
0.727173
21
-0.280836
0
LINE
8
BLACK
6
CONTINUOUS
10
0.727173
20
-0.280836
11
0.727273
21
-0.281272
0
LINE
8
BLACK
6
CONTINUOUS
10
0.727273
20
-0.281272
11
0.727511
21
-0.281651
0
LINE
8
BLACK
6
CONTINUOUS
10
0.727511
20
-0.281651
11
0.727659
21
-0.282964
0
LINE
8
BLACK
6
CONTINUOUS
10
0.727659
20
-0.282964
11
0.727953
21
-0.284252
0
LINE
8
BLACK
6
CONTINUOUS
10
0.727953
20
-0.284252
11
0.727953
21
-0.308209
0
LINE
8
BLACK
6
CONTINUOUS
10
0.727953
20
-0.308209
11
0.729335
21
-0.308913
0
LINE
8
BLACK
6
CONTINUOUS
10
0.729335
20
-0.308913
11
0.732819
21
-0.312397
0
LINE
8
BLACK
6
CONTINUOUS
10
0.732819
20
-0.312397
11
0.735056
21
-0.316787
0
LINE
8
BLACK
6
CONTINUOUS
10
0.735056
20
-0.316787
11
0.735827
21
-0.321654
0
LINE
8
BLACK
6
CONTINUOUS
10
0.735827
20
-0.321654
11
0.735056
21
-0.32652
0
LINE
8
BLACK
6
CONTINUOUS
10
0.735056
20
-0.32652
11
0.732819
21
-0.33091
0
LINE
8
BLACK
6
CONTINUOUS
10
0.732819
20
-0.33091
11
0.729335
21
-0.334394
0
LINE
8
BLACK
6
CONTINUOUS
10
0.729335
20
-0.334394
11
0.724945
21
-0.336631
0
LINE
8
BLACK
6
CONTINUOUS
10
0.724945
20
-0.336631
11
0.720079
21
-0.337402
0
LINE
8
BLACK
6
CONTINUOUS
10
0.720079
20
-0.337402
11
0.715212
21
-0.336631
0
LINE
8
BLACK
6
CONTINUOUS
10
0.715212
20
-0.336631
11
0.710822
21
-0.334394
0
LINE
8
BLACK
6
CONTINUOUS
10
0.710822
20
-0.334394
11
0.707338
21
-0.33091
0
LINE
8
BLACK
6
CONTINUOUS
10
0.707338
20
-0.33091
11
0.705101
21
-0.32652
0
LINE
8
BLACK
6
CONTINUOUS
10
0.705101
20
-0.32652
11
0.704331
21
-0.321654
0
LINE
8
BLACK
6
CONTINUOUS
10
0.704331
20
-0.321654
11
0.705101
21
-0.316787
0
LINE
8
BLACK
6
CONTINUOUS
10
0.705101
20
-0.316787
11
0.707338
21
-0.312397
0
LINE
8
BLACK
6
CONTINUOUS
10
0.707338
20
-0.312397
11
0.710822
21
-0.308913
0
LINE
8
BLACK
6
CONTINUOUS
10
0.710822
20
-0.308913
11
0.712205
21
-0.308209
0
LINE
8
BLACK
6
CONTINUOUS
10
0.712205
20
-0.308209
11
0.712205
21
-0.287513
0
LINE
8
BLACK
6
CONTINUOUS
10
0.712205
20
-0.287513
11
0.649888
21
-0.225197
0
LINE
8
BLACK
6
CONTINUOUS
10
0.649888
20
-0.225197
11
0.44775
21
-0.225197
0
LINE
8
BLACK
6
CONTINUOUS
10
0.44775
20
-0.225197
11
0.382835
21
-0.290112
0
LINE
8
BLACK
6
CONTINUOUS
10
0.382835
20
-0.290112
11
0.382835
21
-0.440709
0
LINE
8
BLACK
6
CONTINUOUS
10
0.382835
20
-0.440709
11
0.394646
21
-0.440709
0
LINE
8
BLACK
6
CONTINUOUS
10
0.394646
20
-0.440709
11
0.394646
21
-0.539528
0
LINE
8
BLACK
6
CONTINUOUS
10
0.394646
20
-0.539528
11
0.355276
21
-0.539528
0
LINE
8
BLACK
6
CONTINUOUS
10
0.355276
20
-0.539528
11
0.355276
21
-0.440709
0
LINE
8
BLACK
6
CONTINUOUS
10
0.355276
20
-0.440709
11
0.367087
21
-0.440709
0
LINE
8
BLACK
6
CONTINUOUS
10
0.367087
20
-0.440709
11
0.367087
21
-0.28685
0
LINE
8
BLACK
6
CONTINUOUS
10
0.367087
20
-0.28685
11
0.367381
21
-0.285562
0
LINE
8
BLACK
6
CONTINUOUS
10
0.367381
20
-0.285562
11
0.367528
21
-0.28425
0
LINE
8
BLACK
6
CONTINUOUS
10
0.367528
20
-0.28425
11
0.367767
21
-0.283871
0
LINE
8
BLACK
6
CONTINUOUS
10
0.367767
20
-0.283871
11
0.367866
21
-0.283434
0
LINE
8
BLACK
6
CONTINUOUS
10
0.367866
20
-0.283434
11
0.36869
21
-0.282401
0
LINE
8
BLACK
6
CONTINUOUS
10
0.36869
20
-0.282401
11
0.369393
21
-0.281283
0
LINE
8
BLACK
6
CONTINUOUS
10
0.369393
20
-0.281283
11
0.43892
21
-0.211755
0
LINE
8
BLACK
6
CONTINUOUS
10
0.43892
20
-0.211755
11
0.440039
21
-0.211052
0
LINE
8
BLACK
6
CONTINUOUS
10
0.440039
20
-0.211052
11
0.441072
21
-0.210229
0
LINE
8
BLACK
6
CONTINUOUS
10
0.441072
20
-0.210229
11
0.441508
21
-0.210129
0
LINE
8
BLACK
6
CONTINUOUS
10
0.441508
20
-0.210129
11
0.441888
21
-0.209891
0
LINE
8
BLACK
6
CONTINUOUS
10
0.441888
20
-0.209891
11
0.4432
21
-0.209743
0
LINE
8
BLACK
6
CONTINUOUS
10
0.4432
20
-0.209743
11
0.444488
21
-0.209449
0
LINE
8
BLACK
6
CONTINUOUS
10
0.444488
20
-0.209449
11
0.65315
21
-0.209449
0
LINE
8
BLACK
6
CONTINUOUS
10
0.65315
20
-0.209449
11
0.654438
21
-0.209743
0
LINE
8
BLACK
6
CONTINUOUS
10
0.434409
20
-0.410846
11
0.434812
21
-0.414199
0
LINE
8
BLACK
6
CONTINUOUS
10
0.434812
20
-0.414199
11
0.436916
21
-0.419535
0
LINE
8
BLACK
6
CONTINUOUS
10
0.436916
20
-0.419535
11
0.436916
21
-0.419536
0
LINE
8
BLACK
6
CONTINUOUS
10
0.436916
20
-0.419536
11
0.440382
21
-0.424106
0
LINE
8
BLACK
6
CONTINUOUS
10
0.440382
20
-0.424106
11
0.440382
21
-0.424106
0
LINE
8
BLACK
6
CONTINUOUS
10
0.440382
20
-0.424106
11
0.444953
21
-0.427572
0
LINE
8
BLACK
6
CONTINUOUS
10
0.444953
20
-0.427572
11
0.444953
21
-0.427572
0
LINE
8
BLACK
6
CONTINUOUS
10
0.444953
20
-0.427572
11
0.450289
21
-0.429676
0
LINE
8
BLACK
6
CONTINUOUS
10
0.450289
20
-0.429676
11
0.453642
21
-0.430079
0
LINE
8
BLACK
6
CONTINUOUS
10
0.453642
20
-0.430079
11
0.464961
21
-0.430079
0
LINE
8
BLACK
6
CONTINUOUS
10
0.464961
20
-0.430079
11
0.464961
21
-0.409213
0
LINE
8
BLACK
6
CONTINUOUS
10
0.464961
20
-0.409213
11
0.455276
21
-0.409213
0
LINE
8
BLACK
6
CONTINUOUS
10
0.455276
20
-0.409213
11
0.455276
21
-0.369803
0
LINE
8
BLACK
6
CONTINUOUS
10
0.455276
20
-0.369803
11
0.434409
21
-0.369803
0
LINE
8
BLACK
6
CONTINUOUS
10
0.434409
20
-0.369803
11
0.434409
21
-0.410846
0
LINE
8
BLACK
6
CONTINUOUS
10
0.494646
20
-0.409213
11
0.484961
21
-0.409213
0
LINE
8
BLACK
6
CONTINUOUS
10
0.484961
20
-0.409213
11
0.484961
21
-0.430079
0
LINE
8
BLACK
6
CONTINUOUS
10
0.484961
20
-0.430079
11
0.49628
21
-0.430079
0
LINE
8
BLACK
6
CONTINUOUS
10
0.49628
20
-0.430079
11
0.499632
21
-0.429676
0
LINE
8
BLACK
6
CONTINUOUS
10
0.499632
20
-0.429676
11
0.504968
21
-0.427572
0
LINE
8
BLACK
6
CONTINUOUS
10
0.504968
20
-0.427572
11
0.504969
21
-0.427572
0
LINE
8
BLACK
6
CONTINUOUS
10
0.504969
20
-0.427572
11
0.509539
21
-0.424106
0
LINE
8
BLACK
6
CONTINUOUS
10
0.509539
20
-0.424106
11
0.509539
21
-0.424106
0
LINE
8
BLACK
6
CONTINUOUS
10
0.509539
20
-0.424106
11
0.513005
21
-0.419536
0
LINE
8
BLACK
6
CONTINUOUS
10
0.513005
20
-0.419536
11
0.513005
21
-0.419535
0
LINE
8
BLACK
6
CONTINUOUS
10
0.513005
20
-0.419535
11
0.515109
21
-0.414199
0
LINE
8
BLACK
6
CONTINUOUS
10
0.515109
20
-0.414199
11
0.515512
21
-0.410846
0
LINE
8
BLACK
6
CONTINUOUS
10
0.515512
20
-0.410846
11
0.515512
21
-0.369803
0
LINE
8
BLACK
6
CONTINUOUS
10
0.515512
20
-0.369803
11
0.494646
21
-0.369803
0
LINE
8
BLACK
6
CONTINUOUS
10
0.494646
20
-0.369803
11
0.494646
21
-0.409213
0
LINE
8
BLACK
6
CONTINUOUS
10
-0.00188976
20
-0.364252
11
-0.0618898
21
-0.364252
0
LINE
8
BLACK
6
CONTINUOUS
10
-0.0618898
20
-0.364252
11
-0.0618898
21
-0.304252
0
LINE
8
BLACK
6
CONTINUOUS
10
-0.0618898
20
-0.304252
11
-0.00188976
21
-0.304252
0
LINE
8
BLACK
6
CONTINUOUS
10
-0.00188976
20
-0.304252
11
-0.00188976
21
-0.364252
0
LINE
8
BLACK
6
CONTINUOUS
10
0.484961
20
-0.310394
11
0.494646
21
-0.310394
0
LINE
8
BLACK
6
CONTINUOUS
10
0.494646
20
-0.310394
11
0.494646
21
-0.349803
0
LINE
8
BLACK
6
CONTINUOUS
10
0.494646
20
-0.349803
11
0.515512
21
-0.349803
0
LINE
8
BLACK
6
CONTINUOUS
10
0.515512
20
-0.349803
11
0.515512
21
-0.30876
0
LINE
8
BLACK
6
CONTINUOUS
10
0.515512
20
-0.30876
11
0.515109
21
-0.305407
0
LINE
8
BLACK
6
CONTINUOUS
10
0.515109
20
-0.305407
11
0.513005
21
-0.300071
0
LINE
8
BLACK
6
CONTINUOUS
10
0.513005
20
-0.300071
11
0.513005
21
-0.300071
0
LINE
8
BLACK
6
CONTINUOUS
10
0.513005
20
-0.300071
11
0.509539
21
-0.2955
0
LINE
8
BLACK
6
CONTINUOUS
10
0.509539
20
-0.2955
11
0.509539
21
-0.2955
0
LINE
8
BLACK
6
CONTINUOUS
10
0.509539
20
-0.2955
11
0.504969
21
-0.292035
0
LINE
8
BLACK
6
CONTINUOUS
10
0.504969
20
-0.292035
11
0.504968
21
-0.292034
0
LINE
8
BLACK
6
CONTINUOUS
10
0.504968
20
-0.292034
11
0.499632
21
-0.28993
0
LINE
8
BLACK
6
CONTINUOUS
10
0.499632
20
-0.28993
11
0.49628
21
-0.289528
0
LINE
8
BLACK
6
CONTINUOUS
10
0.49628
20
-0.289528
11
0.484961
21
-0.289528
0
LINE
8
BLACK
6
CONTINUOUS
10
0.484961
20
-0.289528
11
0.484961
21
-0.310394
0
LINE
8
BLACK
6
CONTINUOUS
10
-0.0218898
20
-0.204252
11
-0.00188976
21
-0.204252
0
LINE
8
BLACK
6
CONTINUOUS
10
-0.00188976
20
-0.204252
11
-0.00188976
21
-0.224252
0
LINE
8
BLACK
6
CONTINUOUS
10
-0.00188976
20
-0.224252
11
0.0189764
21
-0.224252
0
LINE
8
BLACK
6
CONTINUOUS
10
0.0189764
20
-0.224252
11
0.0189764
21
-0.202618
0
LINE
8
BLACK
6
CONTINUOUS
10
0.0189764
20
-0.202618
11
0.0185737
21
-0.199265
0
LINE
8
BLACK
6
CONTINUOUS
10
0.0185737
20
-0.199265
11
0.0164695
21
-0.193929
0
LINE
8
BLACK
6
CONTINUOUS
10
0.0164695
20
-0.193929
11
0.0164693
21
-0.193929
0
LINE
8
BLACK
6
CONTINUOUS
10
0.0164693
20
-0.193929
11
0.0130035
21
-0.189359
0
LINE
8
BLACK
6
CONTINUOUS
10
0.0130035
20
-0.189359
11
0.0130035
21
-0.189359
0
LINE
8
BLACK
6
CONTINUOUS
10
0.0130035
20
-0.189359
11
0.00843327
21
-0.185893
0
LINE
8
BLACK
6
CONTINUOUS
10
0.00843327
20
-0.185893
11
0.00843295
21
-0.185893
0
LINE
8
BLACK
6
CONTINUOUS
10
0.00843295
20
-0.185893
11
0.00309693
21
-0.183788
0
LINE
8
BLACK
6
CONTINUOUS
10
0.00309693
20
-0.183788
11
-0.000255906
21
-0.183386
0
LINE
8
BLACK
6
CONTINUOUS
10
-0.000255906
20
-0.183386
11
-0.0218898
21
-0.183386
0
LINE
8
BLACK
6
CONTINUOUS
10
-0.0218898
20
-0.183386
11
-0.0218898
21
-0.204252
0
LINE
8
BLACK
6
CONTINUOUS
10
-0.0668765
20
-0.183788
11
-0.0722125
21
-0.185893
0
LINE
8
BLACK
6
CONTINUOUS
10
-0.0722125
20
-0.185893
11
-0.0722128
21
-0.185893
0
LINE
8
BLACK
6
CONTINUOUS
10
-0.0722128
20
-0.185893
11
-0.0767831
21
-0.189359
0
LINE
8
BLACK
6
CONTINUOUS
10
-0.0767831
20
-0.189359
11
-0.0767831
21
-0.189359
0
LINE
8
BLACK
6
CONTINUOUS
10
-0.0767831
20
-0.189359
11
-0.0802489
21
-0.193929
0
LINE
8
BLACK
6
CONTINUOUS
10
-0.0802489
20
-0.193929
11
-0.0802491
21
-0.193929
0
LINE
8
BLACK
6
CONTINUOUS
10
-0.0802491
20
-0.193929
11
-0.0823533
21
-0.199265
0
LINE
8
BLACK
6
CONTINUOUS
10
-0.0823533
20
-0.199265
11
-0.0827559
21
-0.202618
0
LINE
8
BLACK
6
CONTINUOUS
10
-0.0827559
20
-0.202618
11
-0.0827559
21
-0.224252
0
LINE
8
BLACK
6
CONTINUOUS
10
-0.0827559
20
-0.224252
11
-0.0618898
21
-0.224252
0
LINE
8
BLACK
6
CONTINUOUS
10
-0.0618898
20
-0.224252
11
-0.0618898
21
-0.204252
0
LINE
8
BLACK
6
CONTINUOUS
10
-0.0618898
20
-0.204252
11
-0.0418898
21
-0.204252
0
LINE
8
BLACK
6
CONTINUOUS
10
-0.0418898
20
-0.204252
11
-0.0418898
21
-0.183386
0
LINE
8
BLACK
6
CONTINUOUS
10
-0.0418898
20
-0.183386
11
-0.0635236
21
-0.183386
0
LINE
8
BLACK
6
CONTINUOUS
10
-0.0635236
20
-0.183386
11
-0.0668765
21
-0.183788
0
LINE
8
BLACK
6
CONTINUOUS
10
0.18719
20
-0.641703
11
0.18719
21
-0.641703
0
LINE
8
BLACK
6
CONTINUOUS
10
0.18719
20
-0.641703
11
0.18719
21
-0.641703
0
LINE
8
BLACK
6
CONTINUOUS
10
0.18719
20
-0.641703
11
0.189536
21
-0.648406
0
LINE
8
BLACK
6
CONTINUOUS
10
0.189536
20
-0.648406
11
0.189536
21
-0.648406
0
LINE
8
BLACK
6
CONTINUOUS
10
0.189536
20
-0.648406
11
0.193314
21
-0.65442
0
LINE
8
BLACK
6
CONTINUOUS
10
0.193314
20
-0.65442
11
0.198336
21
-0.659441
0
LINE
8
BLACK
6
CONTINUOUS
10
0.198336
20
-0.659441
11
0.198336
21
-0.659441
0
LINE
8
BLACK
6
CONTINUOUS
10
0.198336
20
-0.659441
11
0.198336
21
-0.659442
0
LINE
8
BLACK
6
CONTINUOUS
10
0.198336
20
-0.659442
11
0.20435
21
-0.66322
0
LINE
8
BLACK
6
CONTINUOUS
10
0.20435
20
-0.66322
11
0.211053
21
-0.665566
0
LINE
8
BLACK
6
CONTINUOUS
10
0.211053
20
-0.665566
11
0.21811
21
-0.666361
0
LINE
8
BLACK
6
CONTINUOUS
10
0.21811
20
-0.666361
11
0.225168
21
-0.665566
0
LINE
8
BLACK
6
CONTINUOUS
10
0.225168
20
-0.665566
11
0.231871
21
-0.66322
0
LINE
8
BLACK
6
CONTINUOUS
10
0.231871
20
-0.66322
11
0.23781
21
-0.659488
0
LINE
8
BLACK
6
CONTINUOUS
10
0.23781
20
-0.659488
11
0.241101
21
-0.658337
0
LINE
8
BLACK
6
CONTINUOUS
10
0.241101
20
-0.658337
11
0.241978
21
-0.658287
0
LINE
8
BLACK
6
CONTINUOUS
10
0.241978
20
-0.658287
11
0.456461
21
-0.658287
0
LINE
8
BLACK
6
CONTINUOUS
10
0.456461
20
-0.658287
11
0.456973
21
-0.658321
0
LINE
8
BLACK
6
CONTINUOUS
10
0.456973
20
-0.658321
11
0.457475
21
-0.658387
0
LINE
8
BLACK
6
CONTINUOUS
10
0.457475
20
-0.658387
11
0.458268
21
-0.658491
0
LINE
8
BLACK
6
CONTINUOUS
10
0.458268
20
-0.658491
11
0.464439
21
-0.657679
0
LINE
8
BLACK
6
CONTINUOUS
10
0.464439
20
-0.657679
11
0.470191
21
-0.655297
0
LINE
8
BLACK
6
CONTINUOUS
10
0.470191
20
-0.655297
11
0.471333
21
-0.65442
0
LINE
8
BLACK
6
CONTINUOUS
10
0.471333
20
-0.65442
11
0.475129
21
-0.651507
0
LINE
8
BLACK
6
CONTINUOUS
10
0.475129
20
-0.651507
11
0.475925
21
-0.65047
0
LINE
8
BLACK
6
CONTINUOUS
10
0.475925
20
-0.65047
11
0.476262
21
-0.650086
0
LINE
8
BLACK
6
CONTINUOUS
10
0.476262
20
-0.650086
11
0.568758
21
-0.55759
0
LINE
8
BLACK
6
CONTINUOUS
10
0.568758
20
-0.55759
11
0.57171
21
-0.555735
0
LINE
8
BLACK
6
CONTINUOUS
10
0.57171
20
-0.555735
11
0.574298
21
-0.555295
0
LINE
8
BLACK
6
CONTINUOUS
10
0.574298
20
-0.555295
11
0.595887
21
-0.555295
0
LINE
8
BLACK
6
CONTINUOUS
10
0.595887
20
-0.555295
11
0.599579
21
-0.55471
0
LINE
8
BLACK
6
CONTINUOUS
10
0.599579
20
-0.55471
11
0.604029
21
-0.552443
0
LINE
8
BLACK
6
CONTINUOUS
10
0.604029
20
-0.552443
11
0.607561
21
-0.548911
0
LINE
8
BLACK
6
CONTINUOUS
10
0.607561
20
-0.548911
11
0.609829
21
-0.544461
0
LINE
8
BLACK
6
CONTINUOUS
10
0.609829
20
-0.544461
11
0.610413
21
-0.540768
0
LINE
8
BLACK
6
CONTINUOUS
10
0.610413
20
-0.540768
11
0.610413
21
-0.439468
0
LINE
8
BLACK
6
CONTINUOUS
10
0.610413
20
-0.439468
11
0.609829
21
-0.435775
0
LINE
8
BLACK
6
CONTINUOUS
10
0.609829
20
-0.435775
11
0.607561
21
-0.431325
0
LINE
8
BLACK
6
CONTINUOUS
10
0.607561
20
-0.431325
11
0.607561
21
-0.431325
0
LINE
8
BLACK
6
CONTINUOUS
10
0.607561
20
-0.431325
11
0.607561
21
-0.431325
0
LINE
8
BLACK
6
CONTINUOUS
10
0.607561
20
-0.431325
11
0.604029
21
-0.427793
0
LINE
8
BLACK
6
CONTINUOUS
10
0.604029
20
-0.427793
11
0.599579
21
-0.425526
0
LINE
8
BLACK
6
CONTINUOUS
10
0.599579
20
-0.425526
11
0.599579
21
-0.425526
0
LINE
8
BLACK
6
CONTINUOUS
10
0.599579
20
-0.425526
11
0.599579
21
-0.425526
0
LINE
8
BLACK
6
CONTINUOUS
10
0.599579
20
-0.425526
11
0.599579
21
-0.425526
0
LINE
8
BLACK
6
CONTINUOUS
10
0.599579
20
-0.425526
11
0.597001
21
-0.425117
0
LINE
8
BLACK
6
CONTINUOUS
10
0.597001
20
-0.425117
11
0.595887
21
-0.424941
0
LINE
8
BLACK
6
CONTINUOUS
10
0.595887
20
-0.424941
11
0.595887
21
-0.424941
0
LINE
8
BLACK
6
CONTINUOUS
10
0.595887
20
-0.424941
11
0.554035
21
-0.424941
0
LINE
8
BLACK
6
CONTINUOUS
10
0.554035
20
-0.424941
11
0.550342
21
-0.425526
0
LINE
8
BLACK
6
CONTINUOUS
10
0.550342
20
-0.425526
11
0.550342
21
-0.425526
0
LINE
8
BLACK
6
CONTINUOUS
10
0.550342
20
-0.425526
11
0.545892
21
-0.427793
0
LINE
8
BLACK
6
CONTINUOUS
10
0.545892
20
-0.427793
11
0.54236
21
-0.431325
0
LINE
8
BLACK
6
CONTINUOUS
10
0.54236
20
-0.431325
11
0.540093
21
-0.435775
0
LINE
8
BLACK
6
CONTINUOUS
10
0.540093
20
-0.435775
11
0.540093
21
-0.435776
0
LINE
8
BLACK
6
CONTINUOUS
10
0.540093
20
-0.435776
11
0.539508
21
-0.439468
0
LINE
8
BLACK
6
CONTINUOUS
10
0.539508
20
-0.439468
11
0.539508
21
-0.516726
0
LINE
8
BLACK
6
CONTINUOUS
10
0.539508
20
-0.516726
11
0.538732
21
-0.520125
0
LINE
8
BLACK
6
CONTINUOUS
10
0.538732
20
-0.520125
11
0.537213
21
-0.522266
0
LINE
8
BLACK
6
CONTINUOUS
10
0.537213
20
-0.522266
11
0.45077
21
-0.608709
0
LINE
8
BLACK
6
CONTINUOUS
10
0.45077
20
-0.608709
11
0.447817
21
-0.610564
0
LINE
8
BLACK
6
CONTINUOUS
10
0.447817
20
-0.610564
11
0.44523
21
-0.611004
0
LINE
8
BLACK
6
CONTINUOUS
10
0.44523
20
-0.611004
11
0.241978
21
-0.611004
0
LINE
8
BLACK
6
CONTINUOUS
10
0.241978
20
-0.611004
11
0.238579
21
-0.610228
0
LINE
8
BLACK
6
CONTINUOUS
10
0.238579
20
-0.610228
11
0.23781
21
-0.609803
0
LINE
8
BLACK
6
CONTINUOUS
10
0.23781
20
-0.609803
11
0.236069
21
-0.608709
0
LINE
8
BLACK
6
CONTINUOUS
10
0.236069
20
-0.608709
11
0.235108
21
-0.608105
0
LINE
8
BLACK
6
CONTINUOUS
10
0.235108
20
-0.608105
11
0.231871
21
-0.606071
0
LINE
8
BLACK
6
CONTINUOUS
10
0.231871
20
-0.606071
11
0.225168
21
-0.603726
0
LINE
8
BLACK
6
CONTINUOUS
10
0.225168
20
-0.603726
11
0.225168
21
-0.603726
0
LINE
8
BLACK
6
CONTINUOUS
10
0.225168
20
-0.603726
11
0.225168
21
-0.603726
0
LINE
8
BLACK
6
CONTINUOUS
10
0.225168
20
-0.603726
11
0.21811
21
-0.602931
0
LINE
8
BLACK
6
CONTINUOUS
10
0.21811
20
-0.602931
11
0.211053
21
-0.603726
0
LINE
8
BLACK
6
CONTINUOUS
10
0.211053
20
-0.603726
11
0.211053
21
-0.603726
0
LINE
8
BLACK
6
CONTINUOUS
10
0.211053
20
-0.603726
11
0.211053
21
-0.603726
0
LINE
8
BLACK
6
CONTINUOUS
10
0.211053
20
-0.603726
11
0.20435
21
-0.606071
0
LINE
8
BLACK
6
CONTINUOUS
10
0.20435
20
-0.606071
11
0.20435
21
-0.606071
0
LINE
8
BLACK
6
CONTINUOUS
10
0.20435
20
-0.606071
11
0.198336
21
-0.60985
0
LINE
8
BLACK
6
CONTINUOUS
10
0.198336
20
-0.60985
11
0.193314
21
-0.614871
0
LINE
8
BLACK
6
CONTINUOUS
10
0.193314
20
-0.614871
11
0.189536
21
-0.620885
0
LINE
8
BLACK
6
CONTINUOUS
10
0.189536
20
-0.620885
11
0.189536
21
-0.620885
0
LINE
8
BLACK
6
CONTINUOUS
10
0.189536
20
-0.620885
11
0.18719
21
-0.627588
0
LINE
8
BLACK
6
CONTINUOUS
10
0.18719
20
-0.627588
11
0.18719
21
-0.627588
0
LINE
8
BLACK
6
CONTINUOUS
10
0.18719
20
-0.627588
11
0.186395
21
-0.634646
0
LINE
8
BLACK
6
CONTINUOUS
10
0.186395
20
-0.634646
11
0.18719
21
-0.641703
0
LINE
8
BLACK
6
CONTINUOUS
10
0.340013
20
-0.543956
11
0.340093
21
-0.544461
0
LINE
8
BLACK
6
CONTINUOUS
10
0.340093
20
-0.544461
11
0.340093
21
-0.544461
0
LINE
8
BLACK
6
CONTINUOUS
10
0.340093
20
-0.544461
11
0.340093
21
-0.544461
0
LINE
8
BLACK
6
CONTINUOUS
10
0.340093
20
-0.544461
11
0.34236
21
-0.548911
0
LINE
8
BLACK
6
CONTINUOUS
10
0.34236
20
-0.548911
11
0.345892
21
-0.552443
0
LINE
8
BLACK
6
CONTINUOUS
10
0.345892
20
-0.552443
11
0.350342
21
-0.55471
0
LINE
8
BLACK
6
CONTINUOUS
10
0.350342
20
-0.55471
11
0.350342
21
-0.55471
0
LINE
8
BLACK
6
CONTINUOUS
10
0.350342
20
-0.55471
11
0.354035
21
-0.555295
0
LINE
8
BLACK
6
CONTINUOUS
10
0.354035
20
-0.555295
11
0.395887
21
-0.555295
0
LINE
8
BLACK
6
CONTINUOUS
10
0.395887
20
-0.555295
11
0.399579
21
-0.55471
0
LINE
8
BLACK
6
CONTINUOUS
10
0.399579
20
-0.55471
11
0.404029
21
-0.552443
0
LINE
8
BLACK
6
CONTINUOUS
10
0.404029
20
-0.552443
11
0.407561
21
-0.548911
0
LINE
8
BLACK
6
CONTINUOUS
10
0.407561
20
-0.548911
11
0.409829
21
-0.544461
0
LINE
8
BLACK
6
CONTINUOUS
10
0.409829
20
-0.544461
11
0.410413
21
-0.540768
0
LINE
8
BLACK
6
CONTINUOUS
10
0.410413
20
-0.540768
11
0.410413
21
-0.439468
0
LINE
8
BLACK
6
CONTINUOUS
10
0.410413
20
-0.439468
11
0.409829
21
-0.435775
0
LINE
8
BLACK
6
CONTINUOUS
10
0.409829
20
-0.435775
11
0.407561
21
-0.431325
0
LINE
8
BLACK
6
CONTINUOUS
10
0.407561
20
-0.431325
11
0.407561
21
-0.431325
0
LINE
8
BLACK
6
CONTINUOUS
10
0.407561
20
-0.431325
11
0.407561
21
-0.431325
0
LINE
8
BLACK
6
CONTINUOUS
10
0.407561
20
-0.431325
11
0.404029
21
-0.427793
0
LINE
8
BLACK
6
CONTINUOUS
10
0.404029
20
-0.427793
11
0.404029
21
-0.427793
0
LINE
8
BLACK
6
CONTINUOUS
10
0.404029
20
-0.427793
11
0.40288
21
-0.427208
0
LINE
8
BLACK
6
CONTINUOUS
10
0.40288
20
-0.427208
11
0.400204
21
-0.424973
0
LINE
8
BLACK
6
CONTINUOUS
10
0.400204
20
-0.424973
11
0.398762
21
-0.421799
0
LINE
8
BLACK
6
CONTINUOUS
10
0.398762
20
-0.421799
11
0.398602
21
-0.420227
0
LINE
8
BLACK
6
CONTINUOUS
10
0.398602
20
-0.420227
11
0.398602
21
-0.369803
0
LINE
8
BLACK
6
CONTINUOUS
10
0.398602
20
-0.369803
11
0.398602
21
-0.349803
0
LINE
8
BLACK
6
CONTINUOUS
10
0.398602
20
-0.349803
11
0.398602
21
-0.299888
0
LINE
8
BLACK
6
CONTINUOUS
10
0.398602
20
-0.299888
11
0.399378
21
-0.296489
0
LINE
8
BLACK
6
CONTINUOUS
10
0.399378
20
-0.296489
11
0.400897
21
-0.294348
0
LINE
8
BLACK
6
CONTINUOUS
10
0.400897
20
-0.294348
11
0.451986
21
-0.243259
0
LINE
8
BLACK
6
CONTINUOUS
10
0.451986
20
-0.243259
11
0.454939
21
-0.241404
0
LINE
8
BLACK
6
CONTINUOUS
10
0.454939
20
-0.241404
11
0.457526
21
-0.240965
0
LINE
8
BLACK
6
CONTINUOUS
10
0.457526
20
-0.240965
11
0.640112
21
-0.240965
0
LINE
8
BLACK
6
CONTINUOUS
10
0.640112
20
-0.240965
11
0.643511
21
-0.24174
0
LINE
8
BLACK
6
CONTINUOUS
10
0.643511
20
-0.24174
11
0.645652
21
-0.243259
0
LINE
8
BLACK
6
CONTINUOUS
10
0.645652
20
-0.243259
11
0.694142
21
-0.29175
0
LINE
8
BLACK
6
CONTINUOUS
10
0.694142
20
-0.29175
11
0.695997
21
-0.294702
0
LINE
8
BLACK
6
CONTINUOUS
10
0.695997
20
-0.294702
11
0.696437
21
-0.29729
0
LINE
8
BLACK
6
CONTINUOUS
10
0.696437
20
-0.29729
11
0.696437
21
-0.297785
0
LINE
8
BLACK
6
CONTINUOUS
10
0.696437
20
-0.297785
11
0.695661
21
-0.301185
0
LINE
8
BLACK
6
CONTINUOUS
10
0.695661
20
-0.301185
11
0.695236
21
-0.301954
0
LINE
8
BLACK
6
CONTINUOUS
10
0.695236
20
-0.301954
11
0.691504
21
-0.307893
0
LINE
8
BLACK
6
CONTINUOUS
10
0.691504
20
-0.307893
11
0.691504
21
-0.307893
0
LINE
8
BLACK
6
CONTINUOUS
10
0.691504
20
-0.307893
11
0.689159
21
-0.314596
0
LINE
8
BLACK
6
CONTINUOUS
10
0.689159
20
-0.314596
11
0.689159
21
-0.314596
0
LINE
8
BLACK
6
CONTINUOUS
10
0.689159
20
-0.314596
11
0.688364
21
-0.321654
0
LINE
8
BLACK
6
CONTINUOUS
10
0.688364
20
-0.321654
11
0.689159
21
-0.328711
0
LINE
8
BLACK
6
CONTINUOUS
10
0.689159
20
-0.328711
11
0.689159
21
-0.328711
0
LINE
8
BLACK
6
CONTINUOUS
10
0.689159
20
-0.328711
11
0.689159
21
-0.328711
0
LINE
8
BLACK
6
CONTINUOUS
10
0.689159
20
-0.328711
11
0.691504
21
-0.335414
0
LINE
8
BLACK
6
CONTINUOUS
10
0.691504
20
-0.335414
11
0.691504
21
-0.335414
0
LINE
8
BLACK
6
CONTINUOUS
10
0.691504
20
-0.335414
11
0.695283
21
-0.341428
0
LINE
8
BLACK
6
CONTINUOUS
10
0.695283
20
-0.341428
11
0.700304
21
-0.346449
0
LINE
8
BLACK
6
CONTINUOUS
10
0.700304
20
-0.346449
11
0.700305
21
-0.346449
0
LINE
8
BLACK
6
CONTINUOUS
10
0.700305
20
-0.346449
11
0.700305
21
-0.346449
0
LINE
8
BLACK
6
CONTINUOUS
10
0.700305
20
-0.346449
11
0.706318
21
-0.350228
0
LINE
8
BLACK
6
CONTINUOUS
10
0.706318
20
-0.350228
11
0.713021
21
-0.352574
0
LINE
8
BLACK
6
CONTINUOUS
10
0.713021
20
-0.352574
11
0.720079
21
-0.353369
0
LINE
8
BLACK
6
CONTINUOUS
10
0.720079
20
-0.353369
11
0.727136
21
-0.352574
0
LINE
8
BLACK
6
CONTINUOUS
10
0.727136
20
-0.352574
11
0.733839
21
-0.350228
0
LINE
8
BLACK
6
CONTINUOUS
10
0.733839
20
-0.350228
11
0.739853
21
-0.346449
0
LINE
8
BLACK
6
CONTINUOUS
10
0.739853
20
-0.346449
11
0.744875
21
-0.341428
0
LINE
8
BLACK
6
CONTINUOUS
10
0.744875
20
-0.341428
11
0.748653
21
-0.335414
0
LINE
8
BLACK
6
CONTINUOUS
10
0.748653
20
-0.335414
11
0.750999
21
-0.328711
0
LINE
8
BLACK
6
CONTINUOUS
10
0.750999
20
-0.328711
11
0.751794
21
-0.321654
0
LINE
8
BLACK
6
CONTINUOUS
10
0.751794
20
-0.321654
11
0.750999
21
-0.314596
0
LINE
8
BLACK
6
CONTINUOUS
10
0.750999
20
-0.314596
11
0.748653
21
-0.307893
0
LINE
8
BLACK
6
CONTINUOUS
10
0.748653
20
-0.307893
11
0.744921
21
-0.301954
0
LINE
8
BLACK
6
CONTINUOUS
10
0.744921
20
-0.301954
11
0.74377
21
-0.298663
0
LINE
8
BLACK
6
CONTINUOUS
10
0.74377
20
-0.298663
11
0.74372
21
-0.297785
0
LINE
8
BLACK
6
CONTINUOUS
10
0.74372
20
-0.297785
11
0.74372
21
-0.286059
0
LINE
8
BLACK
6
CONTINUOUS
10
0.74372
20
-0.286059
11
0.743754
21
-0.285547
0
LINE
8
BLACK
6
CONTINUOUS
10
0.743754
20
-0.285547
11
0.743814
21
-0.285094
0
LINE
8
BLACK
6
CONTINUOUS
10
0.743814
20
-0.285094
11
0.743924
21
-0.284252
0
LINE
8
BLACK
6
CONTINUOUS
10
0.743924
20
-0.284252
11
0.743112
21
-0.27808
0
LINE
8
BLACK
6
CONTINUOUS
10
0.743112
20
-0.27808
11
0.74073
21
-0.272329
0
LINE
8
BLACK
6
CONTINUOUS
10
0.74073
20
-0.272329
11
0.74073
21
-0.272329
0
LINE
8
BLACK
6
CONTINUOUS
10
0.74073
20
-0.272329
11
0.737892
21
-0.26863
0
LINE
8
BLACK
6
CONTINUOUS
10
0.737892
20
-0.26863
11
0.73694
21
-0.26739
0
LINE
8
BLACK
6
CONTINUOUS
10
0.73694
20
-0.26739
11
0.736432
21
-0.267001
0
LINE
8
BLACK
6
CONTINUOUS
10
0.736432
20
-0.267001
11
0.735904
21
-0.266595
0
LINE
8
BLACK
6
CONTINUOUS
10
0.735904
20
-0.266595
11
0.735518
21
-0.266257
0
LINE
8
BLACK
6
CONTINUOUS
10
0.735518
20
-0.266257
11
0.671144
21
-0.201883
0
LINE
8
BLACK
6
CONTINUOUS
10
0.671144
20
-0.201883
11
0.670806
21
-0.201498
0
LINE
8
BLACK
6
CONTINUOUS
10
0.670806
20
-0.201498
11
0.670011
21
-0.200461
0
LINE
8
BLACK
6
CONTINUOUS
10
0.670011
20
-0.200461
11
0.668452
21
-0.199265
0
LINE
8
BLACK
6
CONTINUOUS
10
0.668452
20
-0.199265
11
0.665073
21
-0.196672
0
LINE
8
BLACK
6
CONTINUOUS
10
0.665073
20
-0.196672
11
0.665072
21
-0.196672
0
LINE
8
BLACK
6
CONTINUOUS
10
0.665072
20
-0.196672
11
0.659321
21
-0.19429
0
LINE
8
BLACK
6
CONTINUOUS
10
0.659321
20
-0.19429
11
0.659321
21
-0.19429
0
LINE
8
BLACK
6
CONTINUOUS
10
0.659321
20
-0.19429
11
0.659321
21
-0.19429
0
LINE
8
BLACK
6
CONTINUOUS
10
0.659321
20
-0.19429
11
0.659321
21
-0.19429
0
LINE
8
BLACK
6
CONTINUOUS
10
0.659321
20
-0.19429
11
0.659321
21
-0.19429
0
LINE
8
BLACK
6
CONTINUOUS
10
0.659321
20
-0.19429
11
0.654699
21
-0.193681
0
LINE
8
BLACK
6
CONTINUOUS
10
0.654699
20
-0.193681
11
0.654699
21
-0.193681
0
LINE
8
BLACK
6
CONTINUOUS
10
0.654699
20
-0.193681
11
0.653666
21
-0.193545
0
LINE
8
BLACK
6
CONTINUOUS
10
0.653666
20
-0.193545
11
0.65315
21
-0.193477
0
LINE
8
BLACK
6
CONTINUOUS
10
0.65315
20
-0.193477
11
0.65315
21
-0.193477
0
LINE
8
BLACK
6
CONTINUOUS
10
0.65315
20
-0.193477
11
0.651855
21
-0.193648
0
LINE
8
BLACK
6
CONTINUOUS
10
0.651855
20
-0.193648
11
0.651343
21
-0.193681
0
LINE
8
BLACK
6
CONTINUOUS
10
0.651343
20
-0.193681
11
0.446295
21
-0.193681
0
LINE
8
BLACK
6
CONTINUOUS
10
0.446295
20
-0.193681
11
0.445783
21
-0.193648
0
LINE
8
BLACK
6
CONTINUOUS
10
0.445783
20
-0.193648
11
0.444488
21
-0.193477
0
LINE
8
BLACK
6
CONTINUOUS
10
0.444488
20
-0.193477
11
0.442938
21
-0.193681
0
LINE
8
BLACK
6
CONTINUOUS
10
0.442938
20
-0.193681
11
0.442938
21
-0.193681
0
LINE
8
BLACK
6
CONTINUOUS
10
0.442938
20
-0.193681
11
0.438317
21
-0.19429
0
LINE
8
BLACK
6
CONTINUOUS
10
0.438317
20
-0.19429
11
0.438316
21
-0.19429
0
LINE
8
BLACK
6
CONTINUOUS
10
0.438316
20
-0.19429
11
0.432565
21
-0.196672
0
LINE
8
BLACK
6
CONTINUOUS
10
0.432565
20
-0.196672
11
0.432565
21
-0.196672
0
LINE
8
BLACK
6
CONTINUOUS
10
0.432565
20
-0.196672
11
0.427627
21
-0.200461
0
LINE
8
BLACK
6
CONTINUOUS
10
0.427627
20
-0.200461
11
0.426831
21
-0.201498
0
LINE
8
BLACK
6
CONTINUOUS
10
0.426831
20
-0.201498
11
0.426493
21
-0.201883
0
LINE
8
BLACK
6
CONTINUOUS
10
0.426493
20
-0.201883
11
0.359521
21
-0.268855
0
LINE
8
BLACK
6
CONTINUOUS
10
0.359521
20
-0.268855
11
0.359136
21
-0.269194
0
LINE
8
BLACK
6
CONTINUOUS
10
0.359136
20
-0.269194
11
0.358099
21
-0.269989
0
LINE
8
BLACK
6
CONTINUOUS
10
0.358099
20
-0.269989
11
0.353789
21
-0.275606
0
LINE
8
BLACK
6
CONTINUOUS
10
0.353789
20
-0.275606
11
0.353638
21
-0.276548
0
LINE
8
BLACK
6
CONTINUOUS
10
0.353638
20
-0.276548
11
0.353611
21
-0.276615
0
LINE
8
BLACK
6
CONTINUOUS
10
0.353611
20
-0.276615
11
0.351927
21
-0.280679
0
LINE
8
BLACK
6
CONTINUOUS
10
0.351927
20
-0.280679
11
0.351927
21
-0.280679
0
LINE
8
BLACK
6
CONTINUOUS
10
0.351927
20
-0.280679
11
0.351115
21
-0.28685
0
LINE
8
BLACK
6
CONTINUOUS
10
0.351115
20
-0.28685
11
0.351285
21
-0.288145
0
LINE
8
BLACK
6
CONTINUOUS
10
0.351285
20
-0.288145
11
0.351319
21
-0.288657
0
LINE
8
BLACK
6
CONTINUOUS
10
0.351319
20
-0.288657
11
0.351319
21
-0.420227
0
LINE
8
BLACK
6
CONTINUOUS
10
0.351319
20
-0.420227
11
0.350543
21
-0.423626
0
LINE
8
BLACK
6
CONTINUOUS
10
0.350543
20
-0.423626
11
0.348369
21
-0.426352
0
LINE
8
BLACK
6
CONTINUOUS
10
0.348369
20
-0.426352
11
0.347041
21
-0.427208
0
LINE
8
BLACK
6
CONTINUOUS
10
0.347041
20
-0.427208
11
0.345892
21
-0.427793
0
LINE
8
BLACK
6
CONTINUOUS
10
0.345892
20
-0.427793
11
0.345892
21
-0.427793
0
LINE
8
BLACK
6
CONTINUOUS
10
0.345892
20
-0.427793
11
0.34236
21
-0.431325
0
LINE
8
BLACK
6
CONTINUOUS
10
0.34236
20
-0.431325
11
0.340093
21
-0.435775
0
LINE
8
BLACK
6
CONTINUOUS
10
0.340093
20
-0.435775
11
0.340093
21
-0.435776
0
LINE
8
BLACK
6
CONTINUOUS
10
0.340093
20
-0.435776
11
0.339508
21
-0.439468
0
LINE
8
BLACK
6
CONTINUOUS
10
0.339508
20
-0.439468
11
0.339508
21
-0.540768
0
LINE
8
BLACK
6
CONTINUOUS
10
0.339508
20
-0.540768
11
0.340013
21
-0.543956
0
LINE
8
BLACK
6
CONTINUOUS
10
0.455276
20
-0.349803
11
0.455276
21
-0.310394
0
LINE
8
BLACK
6
CONTINUOUS
10
0.455276
20
-0.310394
11
0.464961
21
-0.310394
0
LINE
8
BLACK
6
CONTINUOUS
10
0.464961
20
-0.310394
11
0.464961
21
-0.289528
0
LINE
8
BLACK
6
CONTINUOUS
10
0.464961
20
-0.289528
11
0.453642
21
-0.289528
0
LINE
8
BLACK
6
CONTINUOUS
10
0.453642
20
-0.289528
11
0.450289
21
-0.28993
0
LINE
8
BLACK
6
CONTINUOUS
10
0.450289
20
-0.28993
11
0.444953
21
-0.292034
0
LINE
8
BLACK
6
CONTINUOUS
10
0.444953
20
-0.292034
11
0.444953
21
-0.292035
0
LINE
8
BLACK
6
CONTINUOUS
10
0.444953
20
-0.292035
11
0.440382
21
-0.2955
0
LINE
8
BLACK
6
CONTINUOUS
10
0.440382
20
-0.2955
11
0.440382
21
-0.2955
0
LINE
8
BLACK
6
CONTINUOUS
10
0.440382
20
-0.2955
11
0.436916
21
-0.300071
0
LINE
8
BLACK
6
CONTINUOUS
10
0.436916
20
-0.300071
11
0.436916
21
-0.300071
0
LINE
8
BLACK
6
CONTINUOUS
10
0.436916
20
-0.300071
11
0.434812
21
-0.305407
0
LINE
8
BLACK
6
CONTINUOUS
10
0.434812
20
-0.305407
11
0.434409
21
-0.30876
0
LINE
8
BLACK
6
CONTINUOUS
10
0.434409
20
-0.30876
11
0.434409
21
-0.349803
0
LINE
8
BLACK
6
CONTINUOUS
10
0.434409
20
-0.349803
11
0.455276
21
-0.349803
0
LINE
8
BLACK
6
CONTINUOUS
10
-0.0823533
20
-0.269239
11
-0.0802491
21
-0.274575
0
LINE
8
BLACK
6
CONTINUOUS
10
-0.0802491
20
-0.274575
11
-0.0802489
21
-0.274575
0
LINE
8
BLACK
6
CONTINUOUS
10
-0.0802489
20
-0.274575
11
-0.0767831
21
-0.279145
0
LINE
8
BLACK
6
CONTINUOUS
10
-0.0767831
20
-0.279145
11
-0.0738754
21
-0.28135
0
LINE
8
BLACK
6
CONTINUOUS
10
-0.0738754
20
-0.28135
11
-0.0716357
21
-0.284022
0
LINE
8
BLACK
6
CONTINUOUS
10
-0.0716357
20
-0.284022
11
-0.0707772
21
-0.287402
0
LINE
8
BLACK
6
CONTINUOUS
10
-0.0707772
20
-0.287402
11
-0.07147
21
-0.290819
0
LINE
8
BLACK
6
CONTINUOUS
10
-0.07147
20
-0.290819
11
-0.0730695
21
-0.293133
0
LINE
8
BLACK
6
CONTINUOUS
10
-0.0730695
20
-0.293133
11
-0.0748052
21
-0.294868
0
LINE
8
BLACK
6
CONTINUOUS
10
-0.0748052
20
-0.294868
11
-0.0770726
21
-0.299319
0
LINE
8
BLACK
6
CONTINUOUS
10
-0.0770726
20
-0.299319
11
-0.0770727
21
-0.299319
0
LINE
8
BLACK
6
CONTINUOUS
10
-0.0770727
20
-0.299319
11
-0.0776575
21
-0.303011
0
LINE
8
BLACK
6
CONTINUOUS
10
-0.0776575
20
-0.303011
11
-0.0776575
21
-0.365493
0
LINE
8
BLACK
6
CONTINUOUS
10
-0.0776575
20
-0.365493
11
-0.0771526
21
-0.36868
0
LINE
8
BLACK
6
CONTINUOUS
10
-0.0771526
20
-0.36868
11
-0.0770727
21
-0.369185
0
LINE
8
BLACK
6
CONTINUOUS
10
-0.0770727
20
-0.369185
11
-0.0770727
21
-0.369185
0
LINE
8
BLACK
6
CONTINUOUS
10
-0.0770727
20
-0.369185
11
-0.0770727
21
-0.369185
0
LINE
8
BLACK
6
CONTINUOUS
10
-0.0770727
20
-0.369185
11
-0.0748051
21
-0.373636
0
LINE
8
BLACK
6
CONTINUOUS
10
-0.0748051
20
-0.373636
11
-0.0712733
21
-0.377167
0
LINE
8
BLACK
6
CONTINUOUS
10
-0.0712733
20
-0.377167
11
-0.0668231
21
-0.379435
0
LINE
8
BLACK
6
CONTINUOUS
10
-0.0668231
20
-0.379435
11
-0.066823
21
-0.379435
0
LINE
8
BLACK
6
CONTINUOUS
10
-0.066823
20
-0.379435
11
-0.0631307
21
-0.38002
0
LINE
8
BLACK
6
CONTINUOUS
10
-0.0631307
20
-0.38002
11
-0.000648898
21
-0.38002
0
LINE
8
BLACK
6
CONTINUOUS
10
-0.000648898
20
-0.38002
11
0.00304346
21
-0.379435
0
LINE
8
BLACK
6
CONTINUOUS
10
0.00304346
20
-0.379435
11
0.00749378
21
-0.377167
0
LINE
8
BLACK
6
CONTINUOUS
10
0.00749378
20
-0.377167
11
0.0110256
21
-0.373636
0
LINE
8
BLACK
6
CONTINUOUS
10
0.0110256
20
-0.373636
11
0.0132931
21
-0.369185
0
LINE
8
BLACK
6
CONTINUOUS
10
0.0132931
20
-0.369185
11
0.013878
21
-0.365493
0
LINE
8
BLACK
6
CONTINUOUS
10
0.013878
20
-0.365493
11
0.0138779
21
-0.303011
0
LINE
8
BLACK
6
CONTINUOUS
10
0.0138779
20
-0.303011
11
0.0132931
21
-0.299319
0
LINE
8
BLACK
6
CONTINUOUS
10
0.0132931
20
-0.299319
11
0.0110256
21
-0.294868
0
LINE
8
BLACK
6
CONTINUOUS
10
0.0110256
20
-0.294868
11
0.0110256
21
-0.294868
0
LINE
8
BLACK
6
CONTINUOUS
10
0.0110256
20
-0.294868
11
0.0110255
21
-0.294868
0
LINE
8
BLACK
6
CONTINUOUS
10
0.0110255
20
-0.294868
11
0.00929
21
-0.293133
0
LINE
8
BLACK
6
CONTINUOUS
10
0.00929
20
-0.293133
11
0.00743492
21
-0.290181
0
LINE
8
BLACK
6
CONTINUOUS
10
0.00743492
20
-0.290181
11
0.00704453
21
-0.286716
0
LINE
8
BLACK
6
CONTINUOUS
10
0.00704453
20
-0.286716
11
0.00819614
21
-0.283425
0
LINE
8
BLACK
6
CONTINUOUS
10
0.00819614
20
-0.283425
11
0.0100959
21
-0.28135
0
LINE
8
BLACK
6
CONTINUOUS
10
0.0100959
20
-0.28135
11
0.0130036
21
-0.279145
0
LINE
8
BLACK
6
CONTINUOUS
10
0.0130036
20
-0.279145
11
0.0164693
21
-0.274575
0
LINE
8
BLACK
6
CONTINUOUS
10
0.0164693
20
-0.274575
11
0.0164695
21
-0.274575
0
LINE
8
BLACK
6
CONTINUOUS
10
0.0164695
20
-0.274575
11
0.0185737
21
-0.269239
0
LINE
8
BLACK
6
CONTINUOUS
10
0.0185737
20
-0.269239
11
0.0189764
21
-0.265886
0
LINE
8
BLACK
6
CONTINUOUS
10
0.0189764
20
-0.265886
11
0.0189764
21
-0.244252
0
LINE
8
BLACK
6
CONTINUOUS
10
0.0189764
20
-0.244252
11
-0.00188976
21
-0.244252
0
LINE
8
BLACK
6
CONTINUOUS
10
-0.00188976
20
-0.244252
11
-0.00188976
21
-0.264252
0
LINE
8
BLACK
6
CONTINUOUS
10
-0.00188976
20
-0.264252
11
-0.0618898
21
-0.264252
0
LINE
8
BLACK
6
CONTINUOUS
10
-0.0618898
20
-0.264252
11
-0.0618898
21
-0.244252
0
LINE
8
BLACK
6
CONTINUOUS
10
-0.0618898
20
-0.244252
11
-0.0827559
21
-0.244252
0
LINE
8
BLACK
6
CONTINUOUS
10
-0.0827559
20
-0.244252
11
-0.0827559
21
-0.265886
0
LINE
8
BLACK
6
CONTINUOUS
10
-0.0827559
20
-0.265886
11
-0.0823533
21
-0.269239
0
CIRCLE
8
BLACK
10
0
20
0
40
0.00688976
0
CIRCLE
8
BLACK
10
1.6
20
0
40
0.00688976
0
CIRCLE
8
BLACK
10
0
20
-0.8
40
0.00688976
0
CIRCLE
8
BLACK
10
1.6
20
-0.8
40
0.00688976
0
CIRCLE
8
BLACK
10
-0.0318898
20
-0.234252
40
0.00688976
0
CIRCLE
8
BLACK
10
-0.0318898
20
-0.334252
40
0.00688976
0
CIRCLE
8
BLACK
10
0.720079
20
-0.321654
40
0.00787402
0
CIRCLE
8
BLACK
10
0.21811
20
-0.634646
40
0.00787402
  0
ENDSEC
  0
EOF
