  0
SECTION
  2
HEADER
  9
$ANGBASE
  50
0.0
  9
$ANGDIR
  70
1
  9
$MEASUREMENT
  70
0
  0
ENDSEC
  0
SECTION
  2
TABLES
  0
TABLE
  2
LTYPE
  70
4
  0
LTYPE
  5
40F
  2
CONTINUOUS
  70
0
  3
Solid line
  72
65
  73
0
  40
0.0
  0
LTYPE
  5
410
  2
DASHDOT
 70
0
  3
Dash Dot ____ _ ____ _
 72
65
 73
4
 40
2.0
 49
1.25
 49
-0.25
 49
0.25
 49
-0.25
  0
LTYPE
  5
411
  2
DASHED
 70
0
  3
Dashed __ __ __ __ __
 72
65
 73
2
 40
0.75
 49
0.5
 49
-0.25
  0
LTYPE
  5
43B
  2
DOTTED
 70
0
  3
Dotted .  .  .  .
 72
65
 73
2
 40
0.2
 49
0.0
 49
-0.2
  0
ENDTAB
  0
TABLE
  2
STYLE
  70
4
  0
STYLE
  2
KICAD
  70
0
  40
0
  41
1
  42
1
  50
0
  71
0
  3
isocp.shx
  0
STYLE
  2
KICADB
  70
0
  40
0
  41
1
  42
1
  50
0
  71
0
  3
isocp.shx
  0
STYLE
  2
KICADI
  70
0
  40
0
  41
1
  42
1
  50
15
  71
0
  3
isocp.shx
  0
STYLE
  2
KICADBI
  70
0
  40
0
  41
1
  42
1
  50
15
  71
0
  3
isocp.shx
  0
ENDTAB
  0
TABLE
  2
LAYER
  70
1
  0
LAYER
  2
BLACK
  70
0
  62
7
  6
CONTINUOUS
  0
ENDTAB
  0
ENDSEC
  0
SECTION
  2
ENTITIES
0
LINE
8
BLACK
6
CONTINUOUS
10
0.571142
20
-0.561236
11
0.572066
21
-0.561373
0
LINE
8
BLACK
6
CONTINUOUS
10
0.572066
20
-0.561373
11
0.572122
21
-0.561436
0
LINE
8
BLACK
6
CONTINUOUS
10
0.572122
20
-0.561436
11
0.572206
21
-0.561453
0
LINE
8
BLACK
6
CONTINUOUS
10
0.572206
20
-0.561453
11
0.572786
21
-0.562185
0
LINE
8
BLACK
6
CONTINUOUS
10
0.572786
20
-0.562185
11
0.573406
21
-0.562884
0
LINE
8
BLACK
6
CONTINUOUS
10
0.573406
20
-0.562884
11
0.573408
21
-0.562969
0
LINE
8
BLACK
6
CONTINUOUS
10
0.573408
20
-0.562969
11
0.573461
21
-0.563036
0
LINE
8
BLACK
6
CONTINUOUS
10
0.573461
20
-0.563036
11
0.586584
21
-0.602406
0
LINE
8
BLACK
6
CONTINUOUS
10
0.586584
20
-0.602406
11
0.586735
21
-0.60342
0
LINE
8
BLACK
6
CONTINUOUS
10
0.586735
20
-0.60342
11
0.585993
21
-0.605298
0
LINE
8
BLACK
6
CONTINUOUS
10
0.585993
20
-0.605298
11
0.584216
21
-0.60626
0
LINE
8
BLACK
6
CONTINUOUS
10
0.584216
20
-0.60626
11
0.582238
21
-0.605855
0
LINE
8
BLACK
6
CONTINUOUS
10
0.582238
20
-0.605855
11
0.580982
21
-0.604273
0
LINE
8
BLACK
6
CONTINUOUS
10
0.580982
20
-0.604273
11
0.577906
21
-0.595043
0
LINE
8
BLACK
6
CONTINUOUS
10
0.577906
20
-0.595043
11
0.563414
21
-0.595043
0
LINE
8
BLACK
6
CONTINUOUS
10
0.563414
20
-0.595043
11
0.560338
21
-0.604273
0
LINE
8
BLACK
6
CONTINUOUS
10
0.560338
20
-0.604273
11
0.559849
21
-0.605175
0
LINE
8
BLACK
6
CONTINUOUS
10
0.559849
20
-0.605175
11
0.558129
21
-0.606232
0
LINE
8
BLACK
6
CONTINUOUS
10
0.558129
20
-0.606232
11
0.556131
21
-0.605936
0
LINE
8
BLACK
6
CONTINUOUS
10
0.556131
20
-0.605936
11
0.554791
21
-0.604425
0
LINE
8
BLACK
6
CONTINUOUS
10
0.554791
20
-0.604425
11
0.554735
21
-0.602406
0
LINE
8
BLACK
6
CONTINUOUS
10
0.554735
20
-0.602406
11
0.567859
21
-0.563036
0
LINE
8
BLACK
6
CONTINUOUS
10
0.567859
20
-0.563036
11
0.568347
21
-0.562134
0
LINE
8
BLACK
6
CONTINUOUS
10
0.568347
20
-0.562134
11
0.568419
21
-0.562089
0
LINE
8
BLACK
6
CONTINUOUS
10
0.568419
20
-0.562089
11
0.568451
21
-0.56201
0
LINE
8
BLACK
6
CONTINUOUS
10
0.568451
20
-0.56201
11
0.569272
21
-0.561565
0
LINE
8
BLACK
6
CONTINUOUS
10
0.569272
20
-0.561565
11
0.570068
21
-0.561076
0
LINE
8
BLACK
6
CONTINUOUS
10
0.570068
20
-0.561076
11
0.570152
21
-0.561089
0
LINE
8
BLACK
6
CONTINUOUS
10
0.570152
20
-0.561089
11
0.570227
21
-0.561048
0
LINE
8
BLACK
6
CONTINUOUS
10
0.570227
20
-0.561048
11
0.571142
21
-0.561236
0
LINE
8
BLACK
6
CONTINUOUS
10
0.565383
20
-0.589138
11
0.575937
21
-0.589138
0
LINE
8
BLACK
6
CONTINUOUS
10
0.575937
20
-0.589138
11
0.57066
21
-0.573307
0
LINE
8
BLACK
6
CONTINUOUS
10
0.57066
20
-0.573307
11
0.565383
21
-0.589138
0
LINE
8
BLACK
6
CONTINUOUS
10
0.376071
20
-0.562071
11
0.376762
21
-0.563969
0
LINE
8
BLACK
6
CONTINUOUS
10
0.376762
20
-0.563969
11
0.376762
21
-0.579338
0
LINE
8
BLACK
6
CONTINUOUS
10
0.376762
20
-0.579338
11
0.394219
21
-0.561881
0
LINE
8
BLACK
6
CONTINUOUS
10
0.394219
20
-0.561881
11
0.395059
21
-0.561293
0
LINE
8
BLACK
6
CONTINUOUS
10
0.395059
20
-0.561293
11
0.397071
21
-0.561117
0
LINE
8
BLACK
6
CONTINUOUS
10
0.397071
20
-0.561117
11
0.398725
21
-0.562276
0
LINE
8
BLACK
6
CONTINUOUS
10
0.398725
20
-0.562276
11
0.399248
21
-0.564227
0
LINE
8
BLACK
6
CONTINUOUS
10
0.399248
20
-0.564227
11
0.398395
21
-0.566057
0
LINE
8
BLACK
6
CONTINUOUS
10
0.398395
20
-0.566057
11
0.383333
21
-0.581119
0
LINE
8
BLACK
6
CONTINUOUS
10
0.383333
20
-0.581119
11
0.398669
21
-0.601568
0
LINE
8
BLACK
6
CONTINUOUS
10
0.398669
20
-0.601568
11
0.399132
21
-0.602482
0
LINE
8
BLACK
6
CONTINUOUS
10
0.399132
20
-0.602482
11
0.399022
21
-0.604499
0
LINE
8
BLACK
6
CONTINUOUS
10
0.399022
20
-0.604499
11
0.397641
21
-0.605973
0
LINE
8
BLACK
6
CONTINUOUS
10
0.397641
20
-0.605973
11
0.395636
21
-0.606215
0
LINE
8
BLACK
6
CONTINUOUS
10
0.395636
20
-0.606215
11
0.393944
21
-0.605111
0
LINE
8
BLACK
6
CONTINUOUS
10
0.393944
20
-0.605111
11
0.379114
21
-0.585337
0
LINE
8
BLACK
6
CONTINUOUS
10
0.379114
20
-0.585337
11
0.376762
21
-0.587689
0
LINE
8
BLACK
6
CONTINUOUS
10
0.376762
20
-0.587689
11
0.376762
21
-0.603339
0
LINE
8
BLACK
6
CONTINUOUS
10
0.376762
20
-0.603339
11
0.376584
21
-0.604349
0
LINE
8
BLACK
6
CONTINUOUS
10
0.376584
20
-0.604349
11
0.375286
21
-0.605896
0
LINE
8
BLACK
6
CONTINUOUS
10
0.375286
20
-0.605896
11
0.373297
21
-0.606247
0
LINE
8
BLACK
6
CONTINUOUS
10
0.373297
20
-0.606247
11
0.371548
21
-0.605237
0
LINE
8
BLACK
6
CONTINUOUS
10
0.371548
20
-0.605237
11
0.370857
21
-0.603339
0
LINE
8
BLACK
6
CONTINUOUS
10
0.370857
20
-0.603339
11
0.370857
21
-0.563969
0
LINE
8
BLACK
6
CONTINUOUS
10
0.370857
20
-0.563969
11
0.371035
21
-0.562959
0
LINE
8
BLACK
6
CONTINUOUS
10
0.371035
20
-0.562959
11
0.372333
21
-0.561412
0
LINE
8
BLACK
6
CONTINUOUS
10
0.372333
20
-0.561412
11
0.374322
21
-0.561061
0
LINE
8
BLACK
6
CONTINUOUS
10
0.374322
20
-0.561061
11
0.376071
21
-0.562071
0
LINE
8
BLACK
6
CONTINUOUS
10
0.44671
20
-0.370928
11
0.447402
21
-0.372598
0
LINE
8
BLACK
6
CONTINUOUS
10
0.447402
20
-0.372598
11
0.44671
21
-0.374269
0
LINE
8
BLACK
6
CONTINUOUS
10
0.44671
20
-0.374269
11
0.445039
21
-0.374961
0
LINE
8
BLACK
6
CONTINUOUS
10
0.445039
20
-0.374961
11
0.324961
21
-0.374961
0
LINE
8
BLACK
6
CONTINUOUS
10
0.324961
20
-0.374961
11
0.324961
21
-0.474961
0
LINE
8
BLACK
6
CONTINUOUS
10
0.324961
20
-0.474961
11
0.345039
21
-0.474961
0
LINE
8
BLACK
6
CONTINUOUS
10
0.345039
20
-0.474961
11
0.34671
21
-0.475653
0
LINE
8
BLACK
6
CONTINUOUS
10
0.34671
20
-0.475653
11
0.347402
21
-0.477323
0
LINE
8
BLACK
6
CONTINUOUS
10
0.347402
20
-0.477323
11
0.347402
21
-0.537165
0
LINE
8
BLACK
6
CONTINUOUS
10
0.347402
20
-0.537165
11
0.34671
21
-0.538836
0
LINE
8
BLACK
6
CONTINUOUS
10
0.34671
20
-0.538836
11
0.345039
21
-0.539528
0
LINE
8
BLACK
6
CONTINUOUS
10
0.345039
20
-0.539528
11
0.343369
21
-0.538836
0
LINE
8
BLACK
6
CONTINUOUS
10
0.343369
20
-0.538836
11
0.342677
21
-0.537165
0
LINE
8
BLACK
6
CONTINUOUS
10
0.342677
20
-0.537165
11
0.342677
21
-0.479685
0
LINE
8
BLACK
6
CONTINUOUS
10
0.342677
20
-0.479685
11
0.322598
21
-0.479685
0
LINE
8
BLACK
6
CONTINUOUS
10
0.322598
20
-0.479685
11
0.320928
21
-0.478993
0
LINE
8
BLACK
6
CONTINUOUS
10
0.320928
20
-0.478993
11
0.320236
21
-0.477323
0
LINE
8
BLACK
6
CONTINUOUS
10
0.320236
20
-0.477323
11
0.320236
21
-0.477323
0
LINE
8
BLACK
6
CONTINUOUS
10
0.320236
20
-0.477323
11
0.320236
21
-0.372598
0
LINE
8
BLACK
6
CONTINUOUS
10
0.320236
20
-0.372598
11
0.320928
21
-0.370928
0
LINE
8
BLACK
6
CONTINUOUS
10
0.320928
20
-0.370928
11
0.322598
21
-0.370236
0
LINE
8
BLACK
6
CONTINUOUS
10
0.322598
20
-0.370236
11
0.445039
21
-0.370236
0
LINE
8
BLACK
6
CONTINUOUS
10
0.445039
20
-0.370236
11
0.44671
21
-0.370928
0
LINE
8
BLACK
6
CONTINUOUS
10
0.54671
20
-0.475653
11
0.547402
21
-0.477323
0
LINE
8
BLACK
6
CONTINUOUS
10
0.547402
20
-0.477323
11
0.54671
21
-0.478993
0
LINE
8
BLACK
6
CONTINUOUS
10
0.54671
20
-0.478993
11
0.545039
21
-0.479685
0
LINE
8
BLACK
6
CONTINUOUS
10
0.545039
20
-0.479685
11
0.404882
21
-0.479685
0
LINE
8
BLACK
6
CONTINUOUS
10
0.404882
20
-0.479685
11
0.403212
21
-0.478993
0
LINE
8
BLACK
6
CONTINUOUS
10
0.403212
20
-0.478993
11
0.40252
21
-0.477323
0
LINE
8
BLACK
6
CONTINUOUS
10
0.40252
20
-0.477323
11
0.403212
21
-0.475653
0
LINE
8
BLACK
6
CONTINUOUS
10
0.403212
20
-0.475653
11
0.404882
21
-0.474961
0
LINE
8
BLACK
6
CONTINUOUS
10
0.404882
20
-0.474961
11
0.545039
21
-0.474961
0
LINE
8
BLACK
6
CONTINUOUS
10
0.545039
20
-0.474961
11
0.54671
21
-0.475653
0
LINE
8
BLACK
6
CONTINUOUS
10
0.627323
20
-0.370236
11
0.628993
21
-0.370928
0
LINE
8
BLACK
6
CONTINUOUS
10
0.628993
20
-0.370928
11
0.629685
21
-0.372598
0
LINE
8
BLACK
6
CONTINUOUS
10
0.629685
20
-0.372598
11
0.629685
21
-0.477323
0
LINE
8
BLACK
6
CONTINUOUS
10
0.629685
20
-0.477323
11
0.628993
21
-0.478993
0
LINE
8
BLACK
6
CONTINUOUS
10
0.628993
20
-0.478993
11
0.627323
21
-0.479685
0
LINE
8
BLACK
6
CONTINUOUS
10
0.627323
20
-0.479685
11
0.625653
21
-0.478993
0
LINE
8
BLACK
6
CONTINUOUS
10
0.625653
20
-0.478993
11
0.624961
21
-0.477323
0
LINE
8
BLACK
6
CONTINUOUS
10
0.624961
20
-0.477323
11
0.624961
21
-0.374961
0
LINE
8
BLACK
6
CONTINUOUS
10
0.624961
20
-0.374961
11
0.604882
21
-0.374961
0
LINE
8
BLACK
6
CONTINUOUS
10
0.604882
20
-0.374961
11
0.504882
21
-0.374961
0
LINE
8
BLACK
6
CONTINUOUS
10
0.504882
20
-0.374961
11
0.503212
21
-0.374269
0
LINE
8
BLACK
6
CONTINUOUS
10
0.503212
20
-0.374269
11
0.50252
21
-0.372598
0
LINE
8
BLACK
6
CONTINUOUS
10
0.50252
20
-0.372598
11
0.503212
21
-0.370928
0
LINE
8
BLACK
6
CONTINUOUS
10
0.503212
20
-0.370928
11
0.504882
21
-0.370236
0
LINE
8
BLACK
6
CONTINUOUS
10
0.504882
20
-0.370236
11
0.627323
21
-0.370236
0
LINE
8
BLACK
6
CONTINUOUS
10
0.464099
20
-0.426244
11
0.46479
21
-0.428142
0
LINE
8
BLACK
6
CONTINUOUS
10
0.46479
20
-0.428142
11
0.46479
21
-0.456264
0
LINE
8
BLACK
6
CONTINUOUS
10
0.46479
20
-0.456264
11
0.464637
21
-0.457133
0
LINE
8
BLACK
6
CONTINUOUS
10
0.464637
20
-0.457133
11
0.464638
21
-0.457198
0
LINE
8
BLACK
6
CONTINUOUS
10
0.464638
20
-0.457198
11
0.462764
21
-0.462822
0
LINE
8
BLACK
6
CONTINUOUS
10
0.462764
20
-0.462822
11
0.462275
21
-0.463724
0
LINE
8
BLACK
6
CONTINUOUS
10
0.462275
20
-0.463724
11
0.462125
21
-0.463816
0
LINE
8
BLACK
6
CONTINUOUS
10
0.462125
20
-0.463816
11
0.46205
21
-0.463976
0
LINE
8
BLACK
6
CONTINUOUS
10
0.46205
20
-0.463976
11
0.458301
21
-0.467726
0
LINE
8
BLACK
6
CONTINUOUS
10
0.458301
20
-0.467726
11
0.457461
21
-0.468314
0
LINE
8
BLACK
6
CONTINUOUS
10
0.457461
20
-0.468314
11
0.457285
21
-0.468329
0
LINE
8
BLACK
6
CONTINUOUS
10
0.457285
20
-0.468329
11
0.457147
21
-0.468439
0
LINE
8
BLACK
6
CONTINUOUS
10
0.457147
20
-0.468439
11
0.451522
21
-0.470314
0
LINE
8
BLACK
6
CONTINUOUS
10
0.451522
20
-0.470314
11
0.450649
21
-0.470443
0
LINE
8
BLACK
6
CONTINUOUS
10
0.450649
20
-0.470443
11
0.450589
21
-0.470465
0
LINE
8
BLACK
6
CONTINUOUS
10
0.450589
20
-0.470465
11
0.446839
21
-0.470465
0
LINE
8
BLACK
6
CONTINUOUS
10
0.446839
20
-0.470465
11
0.445829
21
-0.470287
0
LINE
8
BLACK
6
CONTINUOUS
10
0.445829
20
-0.470287
11
0.444282
21
-0.468989
0
LINE
8
BLACK
6
CONTINUOUS
10
0.444282
20
-0.468989
11
0.443931
21
-0.467
0
LINE
8
BLACK
6
CONTINUOUS
10
0.443931
20
-0.467
11
0.444941
21
-0.465251
0
LINE
8
BLACK
6
CONTINUOUS
10
0.444941
20
-0.465251
11
0.446839
21
-0.46456
0
LINE
8
BLACK
6
CONTINUOUS
10
0.446839
20
-0.46456
11
0.45011
21
-0.46456
0
LINE
8
BLACK
6
CONTINUOUS
10
0.45011
20
-0.46456
11
0.454618
21
-0.463057
0
LINE
8
BLACK
6
CONTINUOUS
10
0.454618
20
-0.463057
11
0.457382
21
-0.460293
0
LINE
8
BLACK
6
CONTINUOUS
10
0.457382
20
-0.460293
11
0.458884
21
-0.455785
0
LINE
8
BLACK
6
CONTINUOUS
10
0.458884
20
-0.455785
11
0.458884
21
-0.428142
0
LINE
8
BLACK
6
CONTINUOUS
10
0.458884
20
-0.428142
11
0.459063
21
-0.427133
0
LINE
8
BLACK
6
CONTINUOUS
10
0.459063
20
-0.427133
11
0.460361
21
-0.425585
0
LINE
8
BLACK
6
CONTINUOUS
10
0.460361
20
-0.425585
11
0.46235
21
-0.425235
0
LINE
8
BLACK
6
CONTINUOUS
10
0.46235
20
-0.425235
11
0.464099
21
-0.426244
0
LINE
8
BLACK
6
CONTINUOUS
10
0.490304
20
-0.425264
11
0.490471
21
-0.425235
0
LINE
8
BLACK
6
CONTINUOUS
10
0.490471
20
-0.425235
11
0.491214
21
-0.425663
0
LINE
8
BLACK
6
CONTINUOUS
10
0.491214
20
-0.425663
11
0.491998
21
-0.426007
0
LINE
8
BLACK
6
CONTINUOUS
10
0.491998
20
-0.426007
11
0.492074
21
-0.42616
0
LINE
8
BLACK
6
CONTINUOUS
10
0.492074
20
-0.42616
11
0.492221
21
-0.426244
0
LINE
8
BLACK
6
CONTINUOUS
10
0.492221
20
-0.426244
11
0.492514
21
-0.42705
0
LINE
8
BLACK
6
CONTINUOUS
10
0.492514
20
-0.42705
11
0.492894
21
-0.427818
0
LINE
8
BLACK
6
CONTINUOUS
10
0.492894
20
-0.427818
11
0.492853
21
-0.427983
0
LINE
8
BLACK
6
CONTINUOUS
10
0.492853
20
-0.427983
11
0.492911
21
-0.428142
0
LINE
8
BLACK
6
CONTINUOUS
10
0.492911
20
-0.428142
11
0.492911
21
-0.46456
0
LINE
8
BLACK
6
CONTINUOUS
10
0.492911
20
-0.46456
11
0.501207
21
-0.46456
0
LINE
8
BLACK
6
CONTINUOUS
10
0.501207
20
-0.46456
11
0.502217
21
-0.464738
0
LINE
8
BLACK
6
CONTINUOUS
10
0.502217
20
-0.464738
11
0.503764
21
-0.466036
0
LINE
8
BLACK
6
CONTINUOUS
10
0.503764
20
-0.466036
11
0.504115
21
-0.468025
0
LINE
8
BLACK
6
CONTINUOUS
10
0.504115
20
-0.468025
11
0.503105
21
-0.469774
0
LINE
8
BLACK
6
CONTINUOUS
10
0.503105
20
-0.469774
11
0.501207
21
-0.470465
0
LINE
8
BLACK
6
CONTINUOUS
10
0.501207
20
-0.470465
11
0.47871
21
-0.470465
0
LINE
8
BLACK
6
CONTINUOUS
10
0.47871
20
-0.470465
11
0.4777
21
-0.470287
0
LINE
8
BLACK
6
CONTINUOUS
10
0.4777
20
-0.470287
11
0.476153
21
-0.468989
0
LINE
8
BLACK
6
CONTINUOUS
10
0.476153
20
-0.468989
11
0.475802
21
-0.467
0
LINE
8
BLACK
6
CONTINUOUS
10
0.475802
20
-0.467
11
0.476812
21
-0.465251
0
LINE
8
BLACK
6
CONTINUOUS
10
0.476812
20
-0.465251
11
0.47871
21
-0.46456
0
LINE
8
BLACK
6
CONTINUOUS
10
0.47871
20
-0.46456
11
0.487006
21
-0.46456
0
LINE
8
BLACK
6
CONTINUOUS
10
0.487006
20
-0.46456
11
0.487006
21
-0.437146
0
LINE
8
BLACK
6
CONTINUOUS
10
0.487006
20
-0.437146
11
0.484548
21
-0.439604
0
LINE
8
BLACK
6
CONTINUOUS
10
0.484548
20
-0.439604
11
0.483824
21
-0.44011
0
LINE
8
BLACK
6
CONTINUOUS
10
0.483824
20
-0.44011
11
0.48378
21
-0.440157
0
LINE
8
BLACK
6
CONTINUOUS
10
0.48378
20
-0.440157
11
0.480031
21
-0.442032
0
LINE
8
BLACK
6
CONTINUOUS
10
0.480031
20
-0.442032
11
0.479048
21
-0.442324
0
LINE
8
BLACK
6
CONTINUOUS
10
0.479048
20
-0.442324
11
0.477083
21
-0.441855
0
LINE
8
BLACK
6
CONTINUOUS
10
0.477083
20
-0.441855
11
0.47588
21
-0.440233
0
LINE
8
BLACK
6
CONTINUOUS
10
0.47588
20
-0.440233
11
0.476001
21
-0.438217
0
LINE
8
BLACK
6
CONTINUOUS
10
0.476001
20
-0.438217
11
0.47739
21
-0.43675
0
LINE
8
BLACK
6
CONTINUOUS
10
0.47739
20
-0.43675
11
0.480711
21
-0.43509
0
LINE
8
BLACK
6
CONTINUOUS
10
0.480711
20
-0.43509
11
0.483914
21
-0.431886
0
LINE
8
BLACK
6
CONTINUOUS
10
0.483914
20
-0.431886
11
0.487502
21
-0.426505
0
LINE
8
BLACK
6
CONTINUOUS
10
0.487502
20
-0.426505
11
0.48821
21
-0.425763
0
LINE
8
BLACK
6
CONTINUOUS
10
0.48821
20
-0.425763
11
0.488373
21
-0.425715
0
LINE
8
BLACK
6
CONTINUOUS
10
0.488373
20
-0.425715
11
0.488482
21
-0.425585
0
LINE
8
BLACK
6
CONTINUOUS
10
0.488482
20
-0.425585
11
0.489326
21
-0.425436
0
LINE
8
BLACK
6
CONTINUOUS
10
0.489326
20
-0.425436
11
0.490149
21
-0.425196
0
LINE
8
BLACK
6
CONTINUOUS
10
0.490149
20
-0.425196
11
0.490304
21
-0.425264
0
LINE
8
BLACK
6
CONTINUOUS
10
0.70058
20
0.102371
11
0.70191
21
0.102099
0
LINE
8
BLACK
6
CONTINUOUS
10
0.70191
20
0.102099
11
0.708284
21
0.0989118
0
LINE
8
BLACK
6
CONTINUOUS
10
0.708284
20
0.0989118
11
0.708995
21
0.0982809
0
LINE
8
BLACK
6
CONTINUOUS
10
0.708995
20
0.0982809
11
0.709819
21
0.0978056
0
LINE
8
BLACK
6
CONTINUOUS
10
0.709819
20
0.0978056
11
0.713006
21
0.0946184
0
LINE
8
BLACK
6
CONTINUOUS
10
0.713006
20
0.0946184
11
0.713481
21
0.093795
0
LINE
8
BLACK
6
CONTINUOUS
10
0.713481
20
0.093795
11
0.714112
21
0.0930836
0
LINE
8
BLACK
6
CONTINUOUS
10
0.714112
20
0.0930836
11
0.717299
21
0.0867094
0
LINE
8
BLACK
6
CONTINUOUS
10
0.717299
20
0.0867094
11
0.717571
21
0.0853795
0
LINE
8
BLACK
6
CONTINUOUS
10
0.717571
20
0.0853795
11
0.717923
21
0.0840684
0
LINE
8
BLACK
6
CONTINUOUS
10
0.717923
20
0.0840684
11
0.717923
21
0.0745071
0
LINE
8
BLACK
6
CONTINUOUS
10
0.717923
20
0.0745071
11
0.717571
21
0.073196
0
LINE
8
BLACK
6
CONTINUOUS
10
0.717571
20
0.073196
11
0.717299
21
0.0718661
0
LINE
8
BLACK
6
CONTINUOUS
10
0.717299
20
0.0718661
11
0.714112
21
0.0654919
0
LINE
8
BLACK
6
CONTINUOUS
10
0.714112
20
0.0654919
11
0.713481
21
0.0647805
0
LINE
8
BLACK
6
CONTINUOUS
10
0.713481
20
0.0647805
11
0.713006
21
0.0639571
0
LINE
8
BLACK
6
CONTINUOUS
10
0.713006
20
0.0639571
11
0.709819
21
0.06077
0
LINE
8
BLACK
6
CONTINUOUS
10
0.709819
20
0.06077
11
0.708995
21
0.0602946
0
LINE
8
BLACK
6
CONTINUOUS
10
0.708995
20
0.0602946
11
0.708284
21
0.0596637
0
LINE
8
BLACK
6
CONTINUOUS
10
0.708284
20
0.0596637
11
0.70191
21
0.0564767
0
LINE
8
BLACK
6
CONTINUOUS
10
0.70191
20
0.0564767
11
0.70058
21
0.0562045
0
LINE
8
BLACK
6
CONTINUOUS
10
0.70058
20
0.0562045
11
0.699269
21
0.0558532
0
LINE
8
BLACK
6
CONTINUOUS
10
0.699269
20
0.0558532
11
0.679678
21
0.0558532
0
LINE
8
BLACK
6
CONTINUOUS
10
0.679678
20
0.0558532
11
0.679678
21
0.0298877
0
LINE
8
BLACK
6
CONTINUOUS
10
0.679678
20
0.0298877
11
0.678886
21
0.0269349
0
LINE
8
BLACK
6
CONTINUOUS
10
0.678886
20
0.0269349
11
0.676725
21
0.0247733
0
LINE
8
BLACK
6
CONTINUOUS
10
0.676725
20
0.0247733
11
0.673772
21
0.0239822
0
LINE
8
BLACK
6
CONTINUOUS
10
0.673772
20
0.0239822
11
0.670819
21
0.0247733
0
LINE
8
BLACK
6
CONTINUOUS
10
0.670819
20
0.0247733
11
0.668658
21
0.0269349
0
LINE
8
BLACK
6
CONTINUOUS
10
0.668658
20
0.0269349
11
0.667866
21
0.0298877
0
LINE
8
BLACK
6
CONTINUOUS
10
0.667866
20
0.0298877
11
0.667866
21
0.0968168
0
LINE
8
BLACK
6
CONTINUOUS
10
0.667866
20
0.0968168
11
0.668658
21
0.0997696
0
LINE
8
BLACK
6
CONTINUOUS
10
0.668658
20
0.0997696
11
0.670819
21
0.101931
0
LINE
8
BLACK
6
CONTINUOUS
10
0.670819
20
0.101931
11
0.673772
21
0.102722
0
LINE
8
BLACK
6
CONTINUOUS
10
0.673772
20
0.102722
11
0.699269
21
0.102722
0
LINE
8
BLACK
6
CONTINUOUS
10
0.699269
20
0.102722
11
0.70058
21
0.102371
0
LINE
8
BLACK
6
CONTINUOUS
10
0.679678
20
0.0676642
11
0.697875
21
0.0676642
0
LINE
8
BLACK
6
CONTINUOUS
10
0.697875
20
0.0676642
11
0.702145
21
0.0697993
0
LINE
8
BLACK
6
CONTINUOUS
10
0.702145
20
0.0697993
11
0.703977
21
0.0716311
0
LINE
8
BLACK
6
CONTINUOUS
10
0.703977
20
0.0716311
11
0.706112
21
0.0759012
0
LINE
8
BLACK
6
CONTINUOUS
10
0.706112
20
0.0759012
11
0.706112
21
0.0826743
0
LINE
8
BLACK
6
CONTINUOUS
10
0.706112
20
0.0826743
11
0.703977
21
0.0869444
0
LINE
8
BLACK
6
CONTINUOUS
10
0.703977
20
0.0869444
11
0.702145
21
0.0887763
0
LINE
8
BLACK
6
CONTINUOUS
10
0.702145
20
0.0887763
11
0.697875
21
0.0909113
0
LINE
8
BLACK
6
CONTINUOUS
10
0.697875
20
0.0909113
11
0.679678
21
0.0909113
0
LINE
8
BLACK
6
CONTINUOUS
10
0.679678
20
0.0909113
11
0.679678
21
0.0676642
0
LINE
8
BLACK
6
CONTINUOUS
10
0.743654
20
0.101931
11
0.745815
21
0.0997696
0
LINE
8
BLACK
6
CONTINUOUS
10
0.745815
20
0.0997696
11
0.746607
21
0.0968168
0
LINE
8
BLACK
6
CONTINUOUS
10
0.746607
20
0.0968168
11
0.746607
21
0.0298877
0
LINE
8
BLACK
6
CONTINUOUS
10
0.746607
20
0.0298877
11
0.745815
21
0.0269349
0
LINE
8
BLACK
6
CONTINUOUS
10
0.745815
20
0.0269349
11
0.743654
21
0.0247733
0
LINE
8
BLACK
6
CONTINUOUS
10
0.743654
20
0.0247733
11
0.740701
21
0.0239822
0
LINE
8
BLACK
6
CONTINUOUS
10
0.740701
20
0.0239822
11
0.737748
21
0.0247733
0
LINE
8
BLACK
6
CONTINUOUS
10
0.737748
20
0.0247733
11
0.735587
21
0.0269349
0
LINE
8
BLACK
6
CONTINUOUS
10
0.735587
20
0.0269349
11
0.734796
21
0.0298877
0
LINE
8
BLACK
6
CONTINUOUS
10
0.734796
20
0.0298877
11
0.734796
21
0.0968168
0
LINE
8
BLACK
6
CONTINUOUS
10
0.734796
20
0.0968168
11
0.735587
21
0.0997696
0
LINE
8
BLACK
6
CONTINUOUS
10
0.735587
20
0.0997696
11
0.737748
21
0.101931
0
LINE
8
BLACK
6
CONTINUOUS
10
0.737748
20
0.101931
11
0.740701
21
0.102722
0
LINE
8
BLACK
6
CONTINUOUS
10
0.740701
20
0.102722
11
0.743654
21
0.101931
0
LINE
8
BLACK
6
CONTINUOUS
10
0.81377
20
0.101931
11
0.815932
21
0.0997696
0
LINE
8
BLACK
6
CONTINUOUS
10
0.815932
20
0.0997696
11
0.816723
21
0.0968168
0
LINE
8
BLACK
6
CONTINUOUS
10
0.816723
20
0.0968168
11
0.816723
21
0.0298877
0
LINE
8
BLACK
6
CONTINUOUS
10
0.816723
20
0.0298877
11
0.816719
21
0.0298746
0
LINE
8
BLACK
6
CONTINUOUS
10
0.816719
20
0.0298746
11
0.816723
21
0.0298614
0
LINE
8
BLACK
6
CONTINUOUS
10
0.816723
20
0.0298614
11
0.816323
21
0.0283956
0
LINE
8
BLACK
6
CONTINUOUS
10
0.816323
20
0.0283956
11
0.815932
21
0.0269349
0
LINE
8
BLACK
6
CONTINUOUS
10
0.815932
20
0.0269349
11
0.815922
21
0.0269254
0
LINE
8
BLACK
6
CONTINUOUS
10
0.815922
20
0.0269254
11
0.815919
21
0.0269122
0
LINE
8
BLACK
6
CONTINUOUS
10
0.815919
20
0.0269122
11
0.814842
21
0.025845
0
LINE
8
BLACK
6
CONTINUOUS
10
0.814842
20
0.025845
11
0.81377
21
0.0247733
0
LINE
8
BLACK
6
CONTINUOUS
10
0.81377
20
0.0247733
11
0.813757
21
0.0247698
0
LINE
8
BLACK
6
CONTINUOUS
10
0.813757
20
0.0247698
11
0.813747
21
0.0247603
0
LINE
8
BLACK
6
CONTINUOUS
10
0.813747
20
0.0247603
11
0.812282
21
0.0243747
0
LINE
8
BLACK
6
CONTINUOUS
10
0.812282
20
0.0243747
11
0.810817
21
0.0239822
0
LINE
8
BLACK
6
CONTINUOUS
10
0.810817
20
0.0239822
11
0.810804
21
0.0239857
0
LINE
8
BLACK
6
CONTINUOUS
10
0.810804
20
0.0239857
11
0.810791
21
0.0239822
0
LINE
8
BLACK
6
CONTINUOUS
10
0.810791
20
0.0239822
11
0.809325
21
0.024382
0
LINE
8
BLACK
6
CONTINUOUS
10
0.809325
20
0.024382
11
0.807865
21
0.0247733
0
LINE
8
BLACK
6
CONTINUOUS
10
0.807865
20
0.0247733
11
0.807855
21
0.024783
0
LINE
8
BLACK
6
CONTINUOUS
10
0.807855
20
0.024783
11
0.807842
21
0.0247865
0
LINE
8
BLACK
6
CONTINUOUS
10
0.807842
20
0.0247865
11
0.806773
21
0.0258655
0
LINE
8
BLACK
6
CONTINUOUS
10
0.806773
20
0.0258655
11
0.805703
21
0.0269349
0
LINE
8
BLACK
6
CONTINUOUS
10
0.805703
20
0.0269349
11
0.8057
21
0.0269481
0
LINE
8
BLACK
6
CONTINUOUS
10
0.8057
20
0.0269481
11
0.80569
21
0.0269577
0
LINE
8
BLACK
6
CONTINUOUS
10
0.80569
20
0.0269577
11
0.778478
21
0.0745793
0
LINE
8
BLACK
6
CONTINUOUS
10
0.778478
20
0.0745793
11
0.778478
21
0.0298877
0
LINE
8
BLACK
6
CONTINUOUS
10
0.778478
20
0.0298877
11
0.777686
21
0.0269349
0
LINE
8
BLACK
6
CONTINUOUS
10
0.777686
20
0.0269349
11
0.775525
21
0.0247733
0
LINE
8
BLACK
6
CONTINUOUS
10
0.775525
20
0.0247733
11
0.772572
21
0.0239822
0
LINE
8
BLACK
6
CONTINUOUS
10
0.772572
20
0.0239822
11
0.769619
21
0.0247733
0
LINE
8
BLACK
6
CONTINUOUS
10
0.769619
20
0.0247733
11
0.767458
21
0.0269349
0
LINE
8
BLACK
6
CONTINUOUS
10
0.767458
20
0.0269349
11
0.766667
21
0.0298877
0
LINE
8
BLACK
6
CONTINUOUS
10
0.766667
20
0.0298877
11
0.766667
21
0.0968168
0
LINE
8
BLACK
6
CONTINUOUS
10
0.766667
20
0.0968168
11
0.76667
21
0.0968299
0
LINE
8
BLACK
6
CONTINUOUS
10
0.76667
20
0.0968299
11
0.766667
21
0.0968431
0
LINE
8
BLACK
6
CONTINUOUS
10
0.766667
20
0.0968431
11
0.767066
21
0.0983089
0
LINE
8
BLACK
6
CONTINUOUS
10
0.767066
20
0.0983089
11
0.767458
21
0.0997696
0
LINE
8
BLACK
6
CONTINUOUS
10
0.767458
20
0.0997696
11
0.767467
21
0.0997792
0
LINE
8
BLACK
6
CONTINUOUS
10
0.767467
20
0.0997792
11
0.767471
21
0.0997923
0
LINE
8
BLACK
6
CONTINUOUS
10
0.767471
20
0.0997923
11
0.768548
21
0.100859
0
LINE
8
BLACK
6
CONTINUOUS
10
0.768548
20
0.100859
11
0.769619
21
0.101931
0
LINE
8
BLACK
6
CONTINUOUS
10
0.769619
20
0.101931
11
0.769633
21
0.101935
0
LINE
8
BLACK
6
CONTINUOUS
10
0.769633
20
0.101935
11
0.769642
21
0.101944
0
LINE
8
BLACK
6
CONTINUOUS
10
0.769642
20
0.101944
11
0.771107
21
0.10233
0
LINE
8
BLACK
6
CONTINUOUS
10
0.771107
20
0.10233
11
0.772572
21
0.102722
0
LINE
8
BLACK
6
CONTINUOUS
10
0.772572
20
0.102722
11
0.772585
21
0.102719
0
LINE
8
BLACK
6
CONTINUOUS
10
0.772585
20
0.102719
11
0.772598
21
0.102722
0
LINE
8
BLACK
6
CONTINUOUS
10
0.772598
20
0.102722
11
0.774064
21
0.102323
0
LINE
8
BLACK
6
CONTINUOUS
10
0.774064
20
0.102323
11
0.775525
21
0.101931
0
LINE
8
BLACK
6
CONTINUOUS
10
0.775525
20
0.101931
11
0.775534
21
0.101922
0
LINE
8
BLACK
6
CONTINUOUS
10
0.775534
20
0.101922
11
0.775548
21
0.101918
0
LINE
8
BLACK
6
CONTINUOUS
10
0.775548
20
0.101918
11
0.776615
21
0.100841
0
LINE
8
BLACK
6
CONTINUOUS
10
0.776615
20
0.100841
11
0.777686
21
0.0997696
0
LINE
8
BLACK
6
CONTINUOUS
10
0.777686
20
0.0997696
11
0.77769
21
0.0997564
0
LINE
8
BLACK
6
CONTINUOUS
10
0.77769
20
0.0997564
11
0.7777
21
0.0997468
0
LINE
8
BLACK
6
CONTINUOUS
10
0.7777
20
0.0997468
11
0.804912
21
0.0521252
0
LINE
8
BLACK
6
CONTINUOUS
10
0.804912
20
0.0521252
11
0.804912
21
0.0968168
0
LINE
8
BLACK
6
CONTINUOUS
10
0.804912
20
0.0968168
11
0.805703
21
0.0997696
0
LINE
8
BLACK
6
CONTINUOUS
10
0.805703
20
0.0997696
11
0.807865
21
0.101931
0
LINE
8
BLACK
6
CONTINUOUS
10
0.807865
20
0.101931
11
0.810817
21
0.102722
0
LINE
8
BLACK
6
CONTINUOUS
10
0.810817
20
0.102722
11
0.81377
21
0.101931
0
LINE
8
BLACK
6
CONTINUOUS
10
0.883886
20
0.101931
11
0.886048
21
0.0997696
0
LINE
8
BLACK
6
CONTINUOUS
10
0.886048
20
0.0997696
11
0.886839
21
0.0968168
0
LINE
8
BLACK
6
CONTINUOUS
10
0.886839
20
0.0968168
11
0.886839
21
0.0298877
0
LINE
8
BLACK
6
CONTINUOUS
10
0.886839
20
0.0298877
11
0.886048
21
0.0269349
0
LINE
8
BLACK
6
CONTINUOUS
10
0.886048
20
0.0269349
11
0.883886
21
0.0247733
0
LINE
8
BLACK
6
CONTINUOUS
10
0.883886
20
0.0247733
11
0.880934
21
0.0239822
0
LINE
8
BLACK
6
CONTINUOUS
10
0.880934
20
0.0239822
11
0.877981
21
0.0247733
0
LINE
8
BLACK
6
CONTINUOUS
10
0.877981
20
0.0247733
11
0.875819
21
0.0269349
0
LINE
8
BLACK
6
CONTINUOUS
10
0.875819
20
0.0269349
11
0.875028
21
0.0298877
0
LINE
8
BLACK
6
CONTINUOUS
10
0.875028
20
0.0298877
11
0.875028
21
0.0590403
0
LINE
8
BLACK
6
CONTINUOUS
10
0.875028
20
0.0590403
11
0.848594
21
0.0590403
0
LINE
8
BLACK
6
CONTINUOUS
10
0.848594
20
0.0590403
11
0.848594
21
0.0298877
0
LINE
8
BLACK
6
CONTINUOUS
10
0.848594
20
0.0298877
11
0.847803
21
0.0269349
0
LINE
8
BLACK
6
CONTINUOUS
10
0.847803
20
0.0269349
11
0.845641
21
0.0247733
0
LINE
8
BLACK
6
CONTINUOUS
10
0.845641
20
0.0247733
11
0.842688
21
0.0239822
0
LINE
8
BLACK
6
CONTINUOUS
10
0.842688
20
0.0239822
11
0.839736
21
0.0247733
0
LINE
8
BLACK
6
CONTINUOUS
10
0.839736
20
0.0247733
11
0.837574
21
0.0269349
0
LINE
8
BLACK
6
CONTINUOUS
10
0.837574
20
0.0269349
11
0.836783
21
0.0298877
0
LINE
8
BLACK
6
CONTINUOUS
10
0.836783
20
0.0298877
11
0.836783
21
0.0968168
0
LINE
8
BLACK
6
CONTINUOUS
10
0.836783
20
0.0968168
11
0.837574
21
0.0997696
0
LINE
8
BLACK
6
CONTINUOUS
10
0.837574
20
0.0997696
11
0.839736
21
0.101931
0
LINE
8
BLACK
6
CONTINUOUS
10
0.839736
20
0.101931
11
0.842688
21
0.102722
0
LINE
8
BLACK
6
CONTINUOUS
10
0.842688
20
0.102722
11
0.845641
21
0.101931
0
LINE
8
BLACK
6
CONTINUOUS
10
0.845641
20
0.101931
11
0.847803
21
0.0997696
0
LINE
8
BLACK
6
CONTINUOUS
10
0.847803
20
0.0997696
11
0.848594
21
0.0968168
0
LINE
8
BLACK
6
CONTINUOUS
10
0.848594
20
0.0968168
11
0.848594
21
0.0708513
0
LINE
8
BLACK
6
CONTINUOUS
10
0.848594
20
0.0708513
11
0.875028
21
0.0708513
0
LINE
8
BLACK
6
CONTINUOUS
10
0.875028
20
0.0708513
11
0.875028
21
0.0968168
0
LINE
8
BLACK
6
CONTINUOUS
10
0.875028
20
0.0968168
11
0.875819
21
0.0997696
0
LINE
8
BLACK
6
CONTINUOUS
10
0.875819
20
0.0997696
11
0.877981
21
0.101931
0
LINE
8
BLACK
6
CONTINUOUS
10
0.877981
20
0.101931
11
0.880934
21
0.102722
0
LINE
8
BLACK
6
CONTINUOUS
10
0.880934
20
0.102722
11
0.883886
21
0.101931
0
LINE
8
BLACK
6
CONTINUOUS
10
0.939613
20
0.102371
11
0.940942
21
0.102099
0
LINE
8
BLACK
6
CONTINUOUS
10
0.940942
20
0.102099
11
0.947317
21
0.0989118
0
LINE
8
BLACK
6
CONTINUOUS
10
0.947317
20
0.0989118
11
0.948028
21
0.0982809
0
LINE
8
BLACK
6
CONTINUOUS
10
0.948028
20
0.0982809
11
0.948851
21
0.0978056
0
LINE
8
BLACK
6
CONTINUOUS
10
0.948851
20
0.0978056
11
0.955226
21
0.0914313
0
LINE
8
BLACK
6
CONTINUOUS
10
0.955226
20
0.0914313
11
0.955251
21
0.0913869
0
LINE
8
BLACK
6
CONTINUOUS
10
0.955251
20
0.0913869
11
0.955295
21
0.0913605
0
LINE
8
BLACK
6
CONTINUOUS
10
0.955295
20
0.0913605
11
0.956013
21
0.0900668
0
LINE
8
BLACK
6
CONTINUOUS
10
0.956013
20
0.0900668
11
0.956754
21
0.088784
0
LINE
8
BLACK
6
CONTINUOUS
10
0.956754
20
0.088784
11
0.956754
21
0.0887326
0
LINE
8
BLACK
6
CONTINUOUS
10
0.956754
20
0.0887326
11
0.956779
21
0.0886878
0
LINE
8
BLACK
6
CONTINUOUS
10
0.956779
20
0.0886878
11
0.959966
21
0.0759394
0
LINE
8
BLACK
6
CONTINUOUS
10
0.959966
20
0.0759394
11
0.959954
21
0.0752108
0
LINE
8
BLACK
6
CONTINUOUS
10
0.959954
20
0.0752108
11
0.960142
21
0.0745071
0
LINE
8
BLACK
6
CONTINUOUS
10
0.960142
20
0.0745071
11
0.960142
21
0.0521974
0
LINE
8
BLACK
6
CONTINUOUS
10
0.960142
20
0.0521974
11
0.959954
21
0.0514937
0
LINE
8
BLACK
6
CONTINUOUS
10
0.959954
20
0.0514937
11
0.959966
21
0.0507651
0
LINE
8
BLACK
6
CONTINUOUS
10
0.959966
20
0.0507651
11
0.956779
21
0.0380167
0
LINE
8
BLACK
6
CONTINUOUS
10
0.956779
20
0.0380167
11
0.956754
21
0.0379719
0
LINE
8
BLACK
6
CONTINUOUS
10
0.956754
20
0.0379719
11
0.956754
21
0.0379205
0
LINE
8
BLACK
6
CONTINUOUS
10
0.956754
20
0.0379205
11
0.956013
21
0.0366377
0
LINE
8
BLACK
6
CONTINUOUS
10
0.956013
20
0.0366377
11
0.955295
21
0.035344
0
LINE
8
BLACK
6
CONTINUOUS
10
0.955295
20
0.035344
11
0.955251
21
0.0353176
0
LINE
8
BLACK
6
CONTINUOUS
10
0.955251
20
0.0353176
11
0.955226
21
0.0352731
0
LINE
8
BLACK
6
CONTINUOUS
10
0.955226
20
0.0352731
11
0.948851
21
0.0288989
0
LINE
8
BLACK
6
CONTINUOUS
10
0.948851
20
0.0288989
11
0.948028
21
0.0284236
0
LINE
8
BLACK
6
CONTINUOUS
10
0.948028
20
0.0284236
11
0.947317
21
0.0277927
0
LINE
8
BLACK
6
CONTINUOUS
10
0.947317
20
0.0277927
11
0.940942
21
0.0246056
0
LINE
8
BLACK
6
CONTINUOUS
10
0.940942
20
0.0246056
11
0.939613
21
0.0243335
0
LINE
8
BLACK
6
CONTINUOUS
10
0.939613
20
0.0243335
11
0.938301
21
0.0239822
0
LINE
8
BLACK
6
CONTINUOUS
10
0.938301
20
0.0239822
11
0.925553
21
0.0239822
0
LINE
8
BLACK
6
CONTINUOUS
10
0.925553
20
0.0239822
11
0.924242
21
0.0243335
0
LINE
8
BLACK
6
CONTINUOUS
10
0.924242
20
0.0243335
11
0.922912
21
0.0246056
0
LINE
8
BLACK
6
CONTINUOUS
10
0.922912
20
0.0246056
11
0.916538
21
0.0277927
0
LINE
8
BLACK
6
CONTINUOUS
10
0.916538
20
0.0277927
11
0.915826
21
0.0284236
0
LINE
8
BLACK
6
CONTINUOUS
10
0.915826
20
0.0284236
11
0.915003
21
0.0288989
0
LINE
8
BLACK
6
CONTINUOUS
10
0.915003
20
0.0288989
11
0.908629
21
0.0352731
0
LINE
8
BLACK
6
CONTINUOUS
10
0.908629
20
0.0352731
11
0.908603
21
0.0353176
0
LINE
8
BLACK
6
CONTINUOUS
10
0.908603
20
0.0353176
11
0.908559
21
0.035344
0
LINE
8
BLACK
6
CONTINUOUS
10
0.908559
20
0.035344
11
0.907841
21
0.0366382
0
LINE
8
BLACK
6
CONTINUOUS
10
0.907841
20
0.0366382
11
0.9071
21
0.0379205
0
LINE
8
BLACK
6
CONTINUOUS
10
0.9071
20
0.0379205
11
0.9071
21
0.0379719
0
LINE
8
BLACK
6
CONTINUOUS
10
0.9071
20
0.0379719
11
0.907075
21
0.0380167
0
LINE
8
BLACK
6
CONTINUOUS
10
0.907075
20
0.0380167
11
0.903888
21
0.0507651
0
LINE
8
BLACK
6
CONTINUOUS
10
0.903888
20
0.0507651
11
0.903901
21
0.0514936
0
LINE
8
BLACK
6
CONTINUOUS
10
0.903901
20
0.0514936
11
0.903712
21
0.0521974
0
LINE
8
BLACK
6
CONTINUOUS
10
0.903712
20
0.0521974
11
0.903712
21
0.0745071
0
LINE
8
BLACK
6
CONTINUOUS
10
0.903712
20
0.0745071
11
0.903901
21
0.0752109
0
LINE
8
BLACK
6
CONTINUOUS
10
0.903901
20
0.0752109
11
0.903888
21
0.0759394
0
LINE
8
BLACK
6
CONTINUOUS
10
0.903888
20
0.0759394
11
0.907075
21
0.0886878
0
LINE
8
BLACK
6
CONTINUOUS
10
0.907075
20
0.0886878
11
0.9071
21
0.0887327
0
LINE
8
BLACK
6
CONTINUOUS
10
0.9071
20
0.0887327
11
0.9071
21
0.088784
0
LINE
8
BLACK
6
CONTINUOUS
10
0.9071
20
0.088784
11
0.907841
21
0.0900663
0
LINE
8
BLACK
6
CONTINUOUS
10
0.907841
20
0.0900663
11
0.908559
21
0.0913605
0
LINE
8
BLACK
6
CONTINUOUS
10
0.908559
20
0.0913605
11
0.908603
21
0.0913869
0
LINE
8
BLACK
6
CONTINUOUS
10
0.908603
20
0.0913869
11
0.908629
21
0.0914313
0
LINE
8
BLACK
6
CONTINUOUS
10
0.908629
20
0.0914313
11
0.915003
21
0.0978056
0
LINE
8
BLACK
6
CONTINUOUS
10
0.915003
20
0.0978056
11
0.915826
21
0.0982809
0
LINE
8
BLACK
6
CONTINUOUS
10
0.915826
20
0.0982809
11
0.916538
21
0.0989118
0
LINE
8
BLACK
6
CONTINUOUS
10
0.916538
20
0.0989118
11
0.922912
21
0.102099
0
LINE
8
BLACK
6
CONTINUOUS
10
0.922912
20
0.102099
11
0.924242
21
0.102371
0
LINE
8
BLACK
6
CONTINUOUS
10
0.924242
20
0.102371
11
0.925553
21
0.102722
0
LINE
8
BLACK
6
CONTINUOUS
10
0.925553
20
0.102722
11
0.938301
21
0.102722
0
LINE
8
BLACK
6
CONTINUOUS
10
0.938301
20
0.102722
11
0.939613
21
0.102371
0
LINE
8
BLACK
6
CONTINUOUS
10
0.922677
20
0.0887763
11
0.918137
21
0.0842364
0
LINE
8
BLACK
6
CONTINUOUS
10
0.918137
20
0.0842364
11
0.915523
21
0.0737802
0
LINE
8
BLACK
6
CONTINUOUS
10
0.915523
20
0.0737802
11
0.915523
21
0.0529244
0
LINE
8
BLACK
6
CONTINUOUS
10
0.915523
20
0.0529244
11
0.918137
21
0.0424681
0
LINE
8
BLACK
6
CONTINUOUS
10
0.918137
20
0.0424681
11
0.922677
21
0.0379283
0
LINE
8
BLACK
6
CONTINUOUS
10
0.922677
20
0.0379283
11
0.926947
21
0.0357932
0
LINE
8
BLACK
6
CONTINUOUS
10
0.926947
20
0.0357932
11
0.936907
21
0.0357932
0
LINE
8
BLACK
6
CONTINUOUS
10
0.936907
20
0.0357932
11
0.941177
21
0.0379283
0
LINE
8
BLACK
6
CONTINUOUS
10
0.941177
20
0.0379283
11
0.945717
21
0.0424682
0
LINE
8
BLACK
6
CONTINUOUS
10
0.945717
20
0.0424682
11
0.948331
21
0.0529244
0
LINE
8
BLACK
6
CONTINUOUS
10
0.948331
20
0.0529244
11
0.948331
21
0.0737802
0
LINE
8
BLACK
6
CONTINUOUS
10
0.948331
20
0.0737802
11
0.945717
21
0.0842363
0
LINE
8
BLACK
6
CONTINUOUS
10
0.945717
20
0.0842363
11
0.941177
21
0.0887763
0
LINE
8
BLACK
6
CONTINUOUS
10
0.941177
20
0.0887763
11
0.936907
21
0.0909113
0
LINE
8
BLACK
6
CONTINUOUS
10
0.936907
20
0.0909113
11
0.926947
21
0.0909113
0
LINE
8
BLACK
6
CONTINUOUS
10
0.926947
20
0.0909113
11
0.922677
21
0.0887763
0
LINE
8
BLACK
6
CONTINUOUS
10
0.985874
20
0.101931
11
0.988035
21
0.0997696
0
LINE
8
BLACK
6
CONTINUOUS
10
0.988035
20
0.0997696
11
0.988826
21
0.0968168
0
LINE
8
BLACK
6
CONTINUOUS
10
0.988826
20
0.0968168
11
0.988826
21
0.0357932
0
LINE
8
BLACK
6
CONTINUOUS
10
0.988826
20
0.0357932
11
1.01479
21
0.0357932
0
LINE
8
BLACK
6
CONTINUOUS
10
1.01479
20
0.0357932
11
1.01774
21
0.035002
0
LINE
8
BLACK
6
CONTINUOUS
10
1.01774
20
0.035002
11
1.01991
21
0.0328404
0
LINE
8
BLACK
6
CONTINUOUS
10
1.01991
20
0.0328404
11
1.0207
21
0.0298877
0
LINE
8
BLACK
6
CONTINUOUS
10
1.0207
20
0.0298877
11
1.01991
21
0.0269349
0
LINE
8
BLACK
6
CONTINUOUS
10
1.01991
20
0.0269349
11
1.01774
21
0.0247733
0
LINE
8
BLACK
6
CONTINUOUS
10
1.01774
20
0.0247733
11
1.01479
21
0.0239822
0
LINE
8
BLACK
6
CONTINUOUS
10
1.01479
20
0.0239822
11
0.982921
21
0.0239822
0
LINE
8
BLACK
6
CONTINUOUS
10
0.982921
20
0.0239822
11
0.979968
21
0.0247733
0
LINE
8
BLACK
6
CONTINUOUS
10
0.979968
20
0.0247733
11
0.977806
21
0.0269349
0
LINE
8
BLACK
6
CONTINUOUS
10
0.977806
20
0.0269349
11
0.977015
21
0.0298877
0
LINE
8
BLACK
6
CONTINUOUS
10
0.977015
20
0.0298877
11
0.977015
21
0.0968168
0
LINE
8
BLACK
6
CONTINUOUS
10
0.977015
20
0.0968168
11
0.977806
21
0.0997696
0
LINE
8
BLACK
6
CONTINUOUS
10
0.977806
20
0.0997696
11
0.979968
21
0.101931
0
LINE
8
BLACK
6
CONTINUOUS
10
0.979968
20
0.101931
11
0.982921
21
0.102722
0
LINE
8
BLACK
6
CONTINUOUS
10
0.982921
20
0.102722
11
0.985874
21
0.101931
0
LINE
8
BLACK
6
CONTINUOUS
10
1.05396
20
0.102476
11
1.0549
21
0.102419
0
LINE
8
BLACK
6
CONTINUOUS
10
1.0549
20
0.102419
11
1.06447
21
0.0992322
0
LINE
8
BLACK
6
CONTINUOUS
10
1.06447
20
0.0992322
11
1.0656
21
0.0984843
0
LINE
8
BLACK
6
CONTINUOUS
10
1.0656
20
0.0984843
11
1.06677
21
0.0978056
0
LINE
8
BLACK
6
CONTINUOUS
10
1.06677
20
0.0978056
11
1.07315
21
0.0914313
0
LINE
8
BLACK
6
CONTINUOUS
10
1.07315
20
0.0914313
11
1.07362
21
0.0906079
0
LINE
8
BLACK
6
CONTINUOUS
10
1.07362
20
0.0906079
11
1.07425
21
0.0898965
0
LINE
8
BLACK
6
CONTINUOUS
10
1.07425
20
0.0898965
11
1.07744
21
0.0835223
0
LINE
8
BLACK
6
CONTINUOUS
10
1.07744
20
0.0835223
11
1.07757
21
0.0828836
0
LINE
8
BLACK
6
CONTINUOUS
10
1.07757
20
0.0828836
11
1.07789
21
0.0823136
0
LINE
8
BLACK
6
CONTINUOUS
10
1.07789
20
0.0823136
11
1.08108
21
0.0695652
0
LINE
8
BLACK
6
CONTINUOUS
10
1.08108
20
0.0695652
11
1.08106
21
0.0688367
0
LINE
8
BLACK
6
CONTINUOUS
10
1.08106
20
0.0688367
11
1.08125
21
0.0681329
0
LINE
8
BLACK
6
CONTINUOUS
10
1.08125
20
0.0681329
11
1.08125
21
0.0585716
0
LINE
8
BLACK
6
CONTINUOUS
10
1.08125
20
0.0585716
11
1.08106
21
0.0578679
0
LINE
8
BLACK
6
CONTINUOUS
10
1.08106
20
0.0578679
11
1.08108
21
0.0571393
0
LINE
8
BLACK
6
CONTINUOUS
10
1.08108
20
0.0571393
11
1.07789
21
0.0443909
0
LINE
8
BLACK
6
CONTINUOUS
10
1.07789
20
0.0443909
11
1.07757
21
0.0438209
0
LINE
8
BLACK
6
CONTINUOUS
10
1.07757
20
0.0438209
11
1.07744
21
0.0431822
0
LINE
8
BLACK
6
CONTINUOUS
10
1.07744
20
0.0431822
11
1.07425
21
0.036808
0
LINE
8
BLACK
6
CONTINUOUS
10
1.07425
20
0.036808
11
1.07362
21
0.0360966
0
LINE
8
BLACK
6
CONTINUOUS
10
1.07362
20
0.0360966
11
1.07315
21
0.0352731
0
LINE
8
BLACK
6
CONTINUOUS
10
1.07315
20
0.0352731
11
1.06677
21
0.0288989
0
LINE
8
BLACK
6
CONTINUOUS
10
1.06677
20
0.0288989
11
1.0656
21
0.0282202
0
LINE
8
BLACK
6
CONTINUOUS
10
1.0656
20
0.0282202
11
1.06447
21
0.0274723
0
LINE
8
BLACK
6
CONTINUOUS
10
1.06447
20
0.0274723
11
1.0549
21
0.0242852
0
LINE
8
BLACK
6
CONTINUOUS
10
1.0549
20
0.0242852
11
1.05396
21
0.0242282
0
LINE
8
BLACK
6
CONTINUOUS
10
1.05396
20
0.0242282
11
1.05304
21
0.0239822
0
LINE
8
BLACK
6
CONTINUOUS
10
1.05304
20
0.0239822
11
1.0371
21
0.0239822
0
LINE
8
BLACK
6
CONTINUOUS
10
1.0371
20
0.0239822
11
1.03415
21
0.0247733
0
LINE
8
BLACK
6
CONTINUOUS
10
1.03415
20
0.0247733
11
1.03199
21
0.0269349
0
LINE
8
BLACK
6
CONTINUOUS
10
1.03199
20
0.0269349
11
1.0312
21
0.0298877
0
LINE
8
BLACK
6
CONTINUOUS
10
1.0312
20
0.0298877
11
1.0312
21
0.0968168
0
LINE
8
BLACK
6
CONTINUOUS
10
1.0312
20
0.0968168
11
1.03199
21
0.0997696
0
LINE
8
BLACK
6
CONTINUOUS
10
1.03199
20
0.0997696
11
1.03415
21
0.101931
0
LINE
8
BLACK
6
CONTINUOUS
10
1.03415
20
0.101931
11
1.0371
21
0.102722
0
LINE
8
BLACK
6
CONTINUOUS
10
1.0371
20
0.102722
11
1.05304
21
0.102722
0
LINE
8
BLACK
6
CONTINUOUS
10
1.05304
20
0.102722
11
1.05396
21
0.102476
0
LINE
8
BLACK
6
CONTINUOUS
10
1.04301
20
0.0357932
11
1.05208
21
0.0357932
0
LINE
8
BLACK
6
CONTINUOUS
10
1.05208
20
0.0357932
11
1.05941
21
0.0382364
0
LINE
8
BLACK
6
CONTINUOUS
10
1.05941
20
0.0382364
11
1.06412
21
0.0429472
0
LINE
8
BLACK
6
CONTINUOUS
10
1.06412
20
0.0429472
11
1.06659
21
0.0478845
0
LINE
8
BLACK
6
CONTINUOUS
10
1.06659
20
0.0478845
11
1.06944
21
0.0592986
0
LINE
8
BLACK
6
CONTINUOUS
10
1.06944
20
0.0592986
11
1.06944
21
0.067406
0
LINE
8
BLACK
6
CONTINUOUS
10
1.06944
20
0.067406
11
1.06659
21
0.07882
0
LINE
8
BLACK
6
CONTINUOUS
10
1.06659
20
0.07882
11
1.06412
21
0.0837573
0
LINE
8
BLACK
6
CONTINUOUS
10
1.06412
20
0.0837573
11
1.05941
21
0.0884681
0
LINE
8
BLACK
6
CONTINUOUS
10
1.05941
20
0.0884681
11
1.05208
21
0.0909113
0
LINE
8
BLACK
6
CONTINUOUS
10
1.05208
20
0.0909113
11
1.04301
21
0.0909113
0
LINE
8
BLACK
6
CONTINUOUS
10
1.04301
20
0.0909113
11
1.04301
21
0.0357932
0
LINE
8
BLACK
6
CONTINUOUS
10
1.13885
20
0.101931
11
1.14102
21
0.0997696
0
LINE
8
BLACK
6
CONTINUOUS
10
1.14102
20
0.0997696
11
1.14181
21
0.0968168
0
LINE
8
BLACK
6
CONTINUOUS
10
1.14181
20
0.0968168
11
1.14102
21
0.0938641
0
LINE
8
BLACK
6
CONTINUOUS
10
1.14102
20
0.0938641
11
1.13885
21
0.0917025
0
LINE
8
BLACK
6
CONTINUOUS
10
1.13885
20
0.0917025
11
1.1359
21
0.0909113
0
LINE
8
BLACK
6
CONTINUOUS
10
1.1359
20
0.0909113
11
1.10994
21
0.0909113
0
LINE
8
BLACK
6
CONTINUOUS
10
1.10994
20
0.0909113
11
1.10994
21
0.0708513
0
LINE
8
BLACK
6
CONTINUOUS
10
1.10994
20
0.0708513
11
1.12634
21
0.0708513
0
LINE
8
BLACK
6
CONTINUOUS
10
1.12634
20
0.0708513
11
1.12929
21
0.0700601
0
LINE
8
BLACK
6
CONTINUOUS
10
1.12929
20
0.0700601
11
1.13145
21
0.0678985
0
LINE
8
BLACK
6
CONTINUOUS
10
1.13145
20
0.0678985
11
1.13225
21
0.0649458
0
LINE
8
BLACK
6
CONTINUOUS
10
1.13225
20
0.0649458
11
1.13145
21
0.061993
0
LINE
8
BLACK
6
CONTINUOUS
10
1.13145
20
0.061993
11
1.12929
21
0.0598315
0
LINE
8
BLACK
6
CONTINUOUS
10
1.12929
20
0.0598315
11
1.12634
21
0.0590403
0
LINE
8
BLACK
6
CONTINUOUS
10
1.12634
20
0.0590403
11
1.10994
21
0.0590403
0
LINE
8
BLACK
6
CONTINUOUS
10
1.10994
20
0.0590403
11
1.10994
21
0.0357932
0
LINE
8
BLACK
6
CONTINUOUS
10
1.10994
20
0.0357932
11
1.1359
21
0.0357932
0
LINE
8
BLACK
6
CONTINUOUS
10
1.1359
20
0.0357932
11
1.13885
21
0.035002
0
LINE
8
BLACK
6
CONTINUOUS
10
1.13885
20
0.035002
11
1.14102
21
0.0328404
0
LINE
8
BLACK
6
CONTINUOUS
10
1.14102
20
0.0328404
11
1.14181
21
0.0298877
0
LINE
8
BLACK
6
CONTINUOUS
10
1.14181
20
0.0298877
11
1.14102
21
0.0269349
0
LINE
8
BLACK
6
CONTINUOUS
10
1.14102
20
0.0269349
11
1.13885
21
0.0247733
0
LINE
8
BLACK
6
CONTINUOUS
10
1.13885
20
0.0247733
11
1.1359
21
0.0239822
0
LINE
8
BLACK
6
CONTINUOUS
10
1.1359
20
0.0239822
11
1.10403
21
0.0239822
0
LINE
8
BLACK
6
CONTINUOUS
10
1.10403
20
0.0239822
11
1.10108
21
0.0247733
0
LINE
8
BLACK
6
CONTINUOUS
10
1.10108
20
0.0247733
11
1.09892
21
0.0269349
0
LINE
8
BLACK
6
CONTINUOUS
10
1.09892
20
0.0269349
11
1.09813
21
0.0298877
0
LINE
8
BLACK
6
CONTINUOUS
10
1.09813
20
0.0298877
11
1.09813
21
0.0968168
0
LINE
8
BLACK
6
CONTINUOUS
10
1.09813
20
0.0968168
11
1.09892
21
0.0997696
0
LINE
8
BLACK
6
CONTINUOUS
10
1.09892
20
0.0997696
11
1.10108
21
0.101931
0
LINE
8
BLACK
6
CONTINUOUS
10
1.10108
20
0.101931
11
1.10403
21
0.102722
0
LINE
8
BLACK
6
CONTINUOUS
10
1.10403
20
0.102722
11
1.1359
21
0.102722
0
LINE
8
BLACK
6
CONTINUOUS
10
1.1359
20
0.102722
11
1.13885
21
0.101931
0
LINE
8
BLACK
6
CONTINUOUS
10
1.19139
20
0.102371
11
1.19272
21
0.102099
0
LINE
8
BLACK
6
CONTINUOUS
10
1.19272
20
0.102099
11
1.1991
21
0.0989118
0
LINE
8
BLACK
6
CONTINUOUS
10
1.1991
20
0.0989118
11
1.19981
21
0.0982809
0
LINE
8
BLACK
6
CONTINUOUS
10
1.19981
20
0.0982809
11
1.20063
21
0.0978056
0
LINE
8
BLACK
6
CONTINUOUS
10
1.20063
20
0.0978056
11
1.20382
21
0.0946184
0
LINE
8
BLACK
6
CONTINUOUS
10
1.20382
20
0.0946184
11
1.20429
21
0.093795
0
LINE
8
BLACK
6
CONTINUOUS
10
1.20429
20
0.093795
11
1.20493
21
0.0930836
0
LINE
8
BLACK
6
CONTINUOUS
10
1.20493
20
0.0930836
11
1.20811
21
0.0867094
0
LINE
8
BLACK
6
CONTINUOUS
10
1.20811
20
0.0867094
11
1.20839
21
0.0853795
0
LINE
8
BLACK
6
CONTINUOUS
10
1.20839
20
0.0853795
11
1.20874
21
0.0840684
0
LINE
8
BLACK
6
CONTINUOUS
10
1.20874
20
0.0840684
11
1.20874
21
0.0745071
0
LINE
8
BLACK
6
CONTINUOUS
10
1.20874
20
0.0745071
11
1.20839
21
0.073196
0
LINE
8
BLACK
6
CONTINUOUS
10
1.20839
20
0.073196
11
1.20811
21
0.0718661
0
LINE
8
BLACK
6
CONTINUOUS
10
1.20811
20
0.0718661
11
1.20493
21
0.0654919
0
LINE
8
BLACK
6
CONTINUOUS
10
1.20493
20
0.0654919
11
1.20429
21
0.0647805
0
LINE
8
BLACK
6
CONTINUOUS
10
1.20429
20
0.0647805
11
1.20382
21
0.0639571
0
LINE
8
BLACK
6
CONTINUOUS
10
1.20382
20
0.0639571
11
1.20063
21
0.06077
0
LINE
8
BLACK
6
CONTINUOUS
10
1.20063
20
0.06077
11
1.19981
21
0.0602946
0
LINE
8
BLACK
6
CONTINUOUS
10
1.19981
20
0.0602946
11
1.1991
21
0.0596637
0
LINE
8
BLACK
6
CONTINUOUS
10
1.1991
20
0.0596637
11
1.19272
21
0.0564767
0
LINE
8
BLACK
6
CONTINUOUS
10
1.19272
20
0.0564767
11
1.19159
21
0.0562446
0
LINE
8
BLACK
6
CONTINUOUS
10
1.19159
20
0.0562446
11
1.20767
21
0.0332743
0
LINE
8
BLACK
6
CONTINUOUS
10
1.20767
20
0.0332743
11
1.20871
21
0.0304016
0
LINE
8
BLACK
6
CONTINUOUS
10
1.20871
20
0.0304016
11
1.20818
21
0.0273911
0
LINE
8
BLACK
6
CONTINUOUS
10
1.20818
20
0.0273911
11
1.20622
21
0.0250497
0
LINE
8
BLACK
6
CONTINUOUS
10
1.20622
20
0.0250497
11
1.20334
21
0.0240046
0
LINE
8
BLACK
6
CONTINUOUS
10
1.20334
20
0.0240046
11
1.20033
21
0.0245358
0
LINE
8
BLACK
6
CONTINUOUS
10
1.20033
20
0.0245358
11
1.19799
21
0.0265011
0
LINE
8
BLACK
6
CONTINUOUS
10
1.19799
20
0.0265011
11
1.17745
21
0.0558532
0
LINE
8
BLACK
6
CONTINUOUS
10
1.17745
20
0.0558532
11
1.17049
21
0.0558532
0
LINE
8
BLACK
6
CONTINUOUS
10
1.17049
20
0.0558532
11
1.17049
21
0.0298877
0
LINE
8
BLACK
6
CONTINUOUS
10
1.17049
20
0.0298877
11
1.1697
21
0.0269349
0
LINE
8
BLACK
6
CONTINUOUS
10
1.1697
20
0.0269349
11
1.16754
21
0.0247733
0
LINE
8
BLACK
6
CONTINUOUS
10
1.16754
20
0.0247733
11
1.16459
21
0.0239822
0
LINE
8
BLACK
6
CONTINUOUS
10
1.16459
20
0.0239822
11
1.16163
21
0.0247733
0
LINE
8
BLACK
6
CONTINUOUS
10
1.16163
20
0.0247733
11
1.15947
21
0.0269349
0
LINE
8
BLACK
6
CONTINUOUS
10
1.15947
20
0.0269349
11
1.15868
21
0.0298877
0
LINE
8
BLACK
6
CONTINUOUS
10
1.15868
20
0.0298877
11
1.15868
21
0.0968168
0
LINE
8
BLACK
6
CONTINUOUS
10
1.15868
20
0.0968168
11
1.15947
21
0.0997696
0
LINE
8
BLACK
6
CONTINUOUS
10
1.15947
20
0.0997696
11
1.16163
21
0.101931
0
LINE
8
BLACK
6
CONTINUOUS
10
1.16163
20
0.101931
11
1.16459
21
0.102722
0
LINE
8
BLACK
6
CONTINUOUS
10
1.16459
20
0.102722
11
1.19008
21
0.102722
0
LINE
8
BLACK
6
CONTINUOUS
10
1.19008
20
0.102722
11
1.19139
21
0.102371
0
LINE
8
BLACK
6
CONTINUOUS
10
1.17049
20
0.0676642
11
1.18869
21
0.0676642
0
LINE
8
BLACK
6
CONTINUOUS
10
1.18869
20
0.0676642
11
1.19296
21
0.0697993
0
LINE
8
BLACK
6
CONTINUOUS
10
1.19296
20
0.0697993
11
1.19479
21
0.0716311
0
LINE
8
BLACK
6
CONTINUOUS
10
1.19479
20
0.0716311
11
1.19693
21
0.0759012
0
LINE
8
BLACK
6
CONTINUOUS
10
1.19693
20
0.0759012
11
1.19693
21
0.0826744
0
LINE
8
BLACK
6
CONTINUOUS
10
1.19693
20
0.0826744
11
1.19479
21
0.0869444
0
LINE
8
BLACK
6
CONTINUOUS
10
1.19479
20
0.0869444
11
1.19296
21
0.0887763
0
LINE
8
BLACK
6
CONTINUOUS
10
1.19296
20
0.0887763
11
1.18869
21
0.0909113
0
LINE
8
BLACK
6
CONTINUOUS
10
1.18869
20
0.0909113
11
1.17049
21
0.0909113
0
LINE
8
BLACK
6
CONTINUOUS
10
1.17049
20
0.0909113
11
1.17049
21
0.0676642
0
LINE
8
BLACK
6
CONTINUOUS
10
1.25195
20
0.102371
11
1.25328
21
0.102099
0
LINE
8
BLACK
6
CONTINUOUS
10
1.25328
20
0.102099
11
1.25965
21
0.0989118
0
LINE
8
BLACK
6
CONTINUOUS
10
1.25965
20
0.0989118
11
1.26036
21
0.0982809
0
LINE
8
BLACK
6
CONTINUOUS
10
1.26036
20
0.0982809
11
1.26119
21
0.0978056
0
LINE
8
BLACK
6
CONTINUOUS
10
1.26119
20
0.0978056
11
1.26437
21
0.0946184
0
LINE
8
BLACK
6
CONTINUOUS
10
1.26437
20
0.0946184
11
1.26485
21
0.093795
0
LINE
8
BLACK
6
CONTINUOUS
10
1.26485
20
0.093795
11
1.26548
21
0.0930836
0
LINE
8
BLACK
6
CONTINUOUS
10
1.26548
20
0.0930836
11
1.26867
21
0.0867094
0
LINE
8
BLACK
6
CONTINUOUS
10
1.26867
20
0.0867094
11
1.2688
21
0.0860707
0
LINE
8
BLACK
6
CONTINUOUS
10
1.2688
20
0.0860707
11
1.26911
21
0.0855007
0
LINE
8
BLACK
6
CONTINUOUS
10
1.26911
20
0.0855007
11
1.2723
21
0.0727523
0
LINE
8
BLACK
6
CONTINUOUS
10
1.2723
20
0.0727523
11
1.27229
21
0.0720238
0
LINE
8
BLACK
6
CONTINUOUS
10
1.27229
20
0.0720238
11
1.27248
21
0.07132
0
LINE
8
BLACK
6
CONTINUOUS
10
1.27248
20
0.07132
11
1.27248
21
0.0553845
0
LINE
8
BLACK
6
CONTINUOUS
10
1.27248
20
0.0553845
11
1.27229
21
0.0546807
0
LINE
8
BLACK
6
CONTINUOUS
10
1.27229
20
0.0546807
11
1.2723
21
0.0539522
0
LINE
8
BLACK
6
CONTINUOUS
10
1.2723
20
0.0539522
11
1.26911
21
0.0412038
0
LINE
8
BLACK
6
CONTINUOUS
10
1.26911
20
0.0412038
11
1.2688
21
0.0406338
0
LINE
8
BLACK
6
CONTINUOUS
10
1.2688
20
0.0406338
11
1.26867
21
0.0399951
0
LINE
8
BLACK
6
CONTINUOUS
10
1.26867
20
0.0399951
11
1.26548
21
0.0336209
0
LINE
8
BLACK
6
CONTINUOUS
10
1.26548
20
0.0336209
11
1.26485
21
0.0329095
0
LINE
8
BLACK
6
CONTINUOUS
10
1.26485
20
0.0329095
11
1.26437
21
0.0320861
0
LINE
8
BLACK
6
CONTINUOUS
10
1.26437
20
0.0320861
11
1.26119
21
0.0288989
0
LINE
8
BLACK
6
CONTINUOUS
10
1.26119
20
0.0288989
11
1.26036
21
0.0284236
0
LINE
8
BLACK
6
CONTINUOUS
10
1.26036
20
0.0284236
11
1.25965
21
0.0277927
0
LINE
8
BLACK
6
CONTINUOUS
10
1.25965
20
0.0277927
11
1.25328
21
0.0246056
0
LINE
8
BLACK
6
CONTINUOUS
10
1.25328
20
0.0246056
11
1.25195
21
0.0243335
0
LINE
8
BLACK
6
CONTINUOUS
10
1.25195
20
0.0243335
11
1.25064
21
0.0239822
0
LINE
8
BLACK
6
CONTINUOUS
10
1.25064
20
0.0239822
11
1.24426
21
0.0239822
0
LINE
8
BLACK
6
CONTINUOUS
10
1.24426
20
0.0239822
11
1.24295
21
0.0243335
0
LINE
8
BLACK
6
CONTINUOUS
10
1.24295
20
0.0243335
11
1.24162
21
0.0246056
0
LINE
8
BLACK
6
CONTINUOUS
10
1.24162
20
0.0246056
11
1.23525
21
0.0277927
0
LINE
8
BLACK
6
CONTINUOUS
10
1.23525
20
0.0277927
11
1.23454
21
0.0284236
0
LINE
8
BLACK
6
CONTINUOUS
10
1.23454
20
0.0284236
11
1.23371
21
0.028899
0
LINE
8
BLACK
6
CONTINUOUS
10
1.23371
20
0.028899
11
1.23053
21
0.0320861
0
LINE
8
BLACK
6
CONTINUOUS
10
1.23053
20
0.0320861
11
1.23005
21
0.0329094
0
LINE
8
BLACK
6
CONTINUOUS
10
1.23005
20
0.0329094
11
1.22942
21
0.0336208
0
LINE
8
BLACK
6
CONTINUOUS
10
1.22942
20
0.0336208
11
1.22623
21
0.0399951
0
LINE
8
BLACK
6
CONTINUOUS
10
1.22623
20
0.0399951
11
1.2261
21
0.0406338
0
LINE
8
BLACK
6
CONTINUOUS
10
1.2261
20
0.0406338
11
1.22579
21
0.0412038
0
LINE
8
BLACK
6
CONTINUOUS
10
1.22579
20
0.0412038
11
1.2226
21
0.0539522
0
LINE
8
BLACK
6
CONTINUOUS
10
1.2226
20
0.0539522
11
1.22261
21
0.0546807
0
LINE
8
BLACK
6
CONTINUOUS
10
1.22261
20
0.0546807
11
1.22242
21
0.0553845
0
LINE
8
BLACK
6
CONTINUOUS
10
1.22242
20
0.0553845
11
1.22242
21
0.07132
0
LINE
8
BLACK
6
CONTINUOUS
10
1.22242
20
0.07132
11
1.22261
21
0.0720238
0
LINE
8
BLACK
6
CONTINUOUS
10
1.22261
20
0.0720238
11
1.2226
21
0.0727523
0
LINE
8
BLACK
6
CONTINUOUS
10
1.2226
20
0.0727523
11
1.22579
21
0.0855007
0
LINE
8
BLACK
6
CONTINUOUS
10
1.22579
20
0.0855007
11
1.2261
21
0.0860707
0
LINE
8
BLACK
6
CONTINUOUS
10
1.2261
20
0.0860707
11
1.22623
21
0.0867095
0
LINE
8
BLACK
6
CONTINUOUS
10
1.22623
20
0.0867095
11
1.22942
21
0.0930837
0
LINE
8
BLACK
6
CONTINUOUS
10
1.22942
20
0.0930837
11
1.23005
21
0.0937951
0
LINE
8
BLACK
6
CONTINUOUS
10
1.23005
20
0.0937951
11
1.23053
21
0.0946184
0
LINE
8
BLACK
6
CONTINUOUS
10
1.23053
20
0.0946184
11
1.23371
21
0.0978055
0
LINE
8
BLACK
6
CONTINUOUS
10
1.23371
20
0.0978055
11
1.23454
21
0.0982809
0
LINE
8
BLACK
6
CONTINUOUS
10
1.23454
20
0.0982809
11
1.23525
21
0.0989118
0
LINE
8
BLACK
6
CONTINUOUS
10
1.23525
20
0.0989118
11
1.24162
21
0.102099
0
LINE
8
BLACK
6
CONTINUOUS
10
1.24162
20
0.102099
11
1.24295
21
0.102371
0
LINE
8
BLACK
6
CONTINUOUS
10
1.24295
20
0.102371
11
1.24426
21
0.102722
0
LINE
8
BLACK
6
CONTINUOUS
10
1.24426
20
0.102722
11
1.25064
21
0.102722
0
LINE
8
BLACK
6
CONTINUOUS
10
1.25064
20
0.102722
11
1.25195
21
0.102371
0
LINE
8
BLACK
6
CONTINUOUS
10
1.24139
20
0.0887763
11
1.23956
21
0.0869444
0
LINE
8
BLACK
6
CONTINUOUS
10
1.23956
20
0.0869444
11
1.23709
21
0.0820072
0
LINE
8
BLACK
6
CONTINUOUS
10
1.23709
20
0.0820072
11
1.23423
21
0.0705931
0
LINE
8
BLACK
6
CONTINUOUS
10
1.23423
20
0.0705931
11
1.23423
21
0.0561114
0
LINE
8
BLACK
6
CONTINUOUS
10
1.23423
20
0.0561114
11
1.23709
21
0.0446974
0
LINE
8
BLACK
6
CONTINUOUS
10
1.23709
20
0.0446974
11
1.23956
21
0.0397601
0
LINE
8
BLACK
6
CONTINUOUS
10
1.23956
20
0.0397601
11
1.24139
21
0.0379282
0
LINE
8
BLACK
6
CONTINUOUS
10
1.24139
20
0.0379282
11
1.24566
21
0.0357932
0
LINE
8
BLACK
6
CONTINUOUS
10
1.24566
20
0.0357932
11
1.24924
21
0.0357932
0
LINE
8
BLACK
6
CONTINUOUS
10
1.24924
20
0.0357932
11
1.25351
21
0.0379282
0
LINE
8
BLACK
6
CONTINUOUS
10
1.25351
20
0.0379282
11
1.25535
21
0.0397601
0
LINE
8
BLACK
6
CONTINUOUS
10
1.25535
20
0.0397601
11
1.25781
21
0.0446973
0
LINE
8
BLACK
6
CONTINUOUS
10
1.25781
20
0.0446973
11
1.26067
21
0.0561115
0
LINE
8
BLACK
6
CONTINUOUS
10
1.26067
20
0.0561115
11
1.26067
21
0.070593
0
LINE
8
BLACK
6
CONTINUOUS
10
1.26067
20
0.070593
11
1.25781
21
0.0820072
0
LINE
8
BLACK
6
CONTINUOUS
10
1.25781
20
0.0820072
11
1.25535
21
0.0869444
0
LINE
8
BLACK
6
CONTINUOUS
10
1.25535
20
0.0869444
11
1.25351
21
0.0887763
0
LINE
8
BLACK
6
CONTINUOUS
10
1.25351
20
0.0887763
11
1.24924
21
0.0909113
0
LINE
8
BLACK
6
CONTINUOUS
10
1.24924
20
0.0909113
11
1.24566
21
0.0909113
0
LINE
8
BLACK
6
CONTINUOUS
10
1.24566
20
0.0909113
11
1.24139
21
0.0887763
0
LINE
8
BLACK
6
CONTINUOUS
10
1.33088
20
0.102571
11
1.33146
21
0.10261
0
LINE
8
BLACK
6
CONTINUOUS
10
1.33146
20
0.10261
11
1.33233
21
0.102182
0
LINE
8
BLACK
6
CONTINUOUS
10
1.33233
20
0.102182
11
1.33327
21
0.101931
0
LINE
8
BLACK
6
CONTINUOUS
10
1.33327
20
0.101931
11
1.33368
21
0.101519
0
LINE
8
BLACK
6
CONTINUOUS
10
1.33368
20
0.101519
11
1.3342
21
0.101261
0
LINE
8
BLACK
6
CONTINUOUS
10
1.3342
20
0.101261
11
1.33474
21
0.100455
0
LINE
8
BLACK
6
CONTINUOUS
10
1.33474
20
0.100455
11
1.33543
21
0.0997696
0
LINE
8
BLACK
6
CONTINUOUS
10
1.33543
20
0.0997696
11
1.33558
21
0.0992061
0
LINE
8
BLACK
6
CONTINUOUS
10
1.33558
20
0.0992061
11
1.3359
21
0.0987213
0
LINE
8
BLACK
6
CONTINUOUS
10
1.3359
20
0.0987213
11
1.33597
21
0.0977535
0
LINE
8
BLACK
6
CONTINUOUS
10
1.33597
20
0.0977535
11
1.33622
21
0.0968168
0
LINE
8
BLACK
6
CONTINUOUS
10
1.33622
20
0.0968168
11
1.33607
21
0.0962534
0
LINE
8
BLACK
6
CONTINUOUS
10
1.33607
20
0.0962534
11
1.33611
21
0.0956712
0
LINE
8
BLACK
6
CONTINUOUS
10
1.33611
20
0.0956712
11
1.33568
21
0.0948008
0
LINE
8
BLACK
6
CONTINUOUS
10
1.33568
20
0.0948008
11
1.33543
21
0.0938641
0
LINE
8
BLACK
6
CONTINUOUS
10
1.33543
20
0.0938641
11
1.33502
21
0.0934516
0
LINE
8
BLACK
6
CONTINUOUS
10
1.33502
20
0.0934516
11
1.33476
21
0.092928
0
LINE
8
BLACK
6
CONTINUOUS
10
1.33476
20
0.092928
11
1.32039
21
0.0765094
0
LINE
8
BLACK
6
CONTINUOUS
10
1.32039
20
0.0765094
11
1.32658
21
0.073415
0
LINE
8
BLACK
6
CONTINUOUS
10
1.32658
20
0.073415
11
1.32729
21
0.0727841
0
LINE
8
BLACK
6
CONTINUOUS
10
1.32729
20
0.0727841
11
1.32812
21
0.0723087
0
LINE
8
BLACK
6
CONTINUOUS
10
1.32812
20
0.0723087
11
1.3313
21
0.0691216
0
LINE
8
BLACK
6
CONTINUOUS
10
1.3313
20
0.0691216
11
1.33178
21
0.0682983
0
LINE
8
BLACK
6
CONTINUOUS
10
1.33178
20
0.0682983
11
1.33241
21
0.0675869
0
LINE
8
BLACK
6
CONTINUOUS
10
1.33241
20
0.0675869
11
1.3356
21
0.0612126
0
LINE
8
BLACK
6
CONTINUOUS
10
1.3356
20
0.0612126
11
1.33587
21
0.0598827
0
LINE
8
BLACK
6
CONTINUOUS
10
1.33587
20
0.0598827
11
1.33622
21
0.0585716
0
LINE
8
BLACK
6
CONTINUOUS
10
1.33622
20
0.0585716
11
1.33622
21
0.0426361
0
LINE
8
BLACK
6
CONTINUOUS
10
1.33622
20
0.0426361
11
1.33587
21
0.041325
0
LINE
8
BLACK
6
CONTINUOUS
10
1.33587
20
0.041325
11
1.3356
21
0.0399951
0
LINE
8
BLACK
6
CONTINUOUS
10
1.3356
20
0.0399951
11
1.33241
21
0.0336209
0
LINE
8
BLACK
6
CONTINUOUS
10
1.33241
20
0.0336209
11
1.33178
21
0.0329095
0
LINE
8
BLACK
6
CONTINUOUS
10
1.33178
20
0.0329095
11
1.3313
21
0.0320861
0
LINE
8
BLACK
6
CONTINUOUS
10
1.3313
20
0.0320861
11
1.32812
21
0.028899
0
LINE
8
BLACK
6
CONTINUOUS
10
1.32812
20
0.028899
11
1.32729
21
0.0284236
0
LINE
8
BLACK
6
CONTINUOUS
10
1.32729
20
0.0284236
11
1.32658
21
0.0277927
0
LINE
8
BLACK
6
CONTINUOUS
10
1.32658
20
0.0277927
11
1.32021
21
0.0246056
0
LINE
8
BLACK
6
CONTINUOUS
10
1.32021
20
0.0246056
11
1.31888
21
0.0243335
0
LINE
8
BLACK
6
CONTINUOUS
10
1.31888
20
0.0243335
11
1.31757
21
0.0239822
0
LINE
8
BLACK
6
CONTINUOUS
10
1.31757
20
0.0239822
11
1.29844
21
0.0239822
0
LINE
8
BLACK
6
CONTINUOUS
10
1.29844
20
0.0239822
11
1.29713
21
0.0243335
0
LINE
8
BLACK
6
CONTINUOUS
10
1.29713
20
0.0243335
11
1.2958
21
0.0246056
0
LINE
8
BLACK
6
CONTINUOUS
10
1.2958
20
0.0246056
11
1.28943
21
0.0277927
0
LINE
8
BLACK
6
CONTINUOUS
10
1.28943
20
0.0277927
11
1.28872
21
0.0284236
0
LINE
8
BLACK
6
CONTINUOUS
10
1.28872
20
0.0284236
11
1.28789
21
0.028899
0
LINE
8
BLACK
6
CONTINUOUS
10
1.28789
20
0.028899
11
1.28471
21
0.0320861
0
LINE
8
BLACK
6
CONTINUOUS
10
1.28471
20
0.0320861
11
1.28318
21
0.0347335
0
LINE
8
BLACK
6
CONTINUOUS
10
1.28318
20
0.0347335
11
1.28318
21
0.0377904
0
LINE
8
BLACK
6
CONTINUOUS
10
1.28318
20
0.0377904
11
1.28471
21
0.0404378
0
LINE
8
BLACK
6
CONTINUOUS
10
1.28471
20
0.0404378
11
1.28735
21
0.0419662
0
LINE
8
BLACK
6
CONTINUOUS
10
1.28735
20
0.0419662
11
1.29041
21
0.0419662
0
LINE
8
BLACK
6
CONTINUOUS
10
1.29041
20
0.0419662
11
1.29306
21
0.0404377
0
LINE
8
BLACK
6
CONTINUOUS
10
1.29306
20
0.0404377
11
1.29557
21
0.0379282
0
LINE
8
BLACK
6
CONTINUOUS
10
1.29557
20
0.0379282
11
1.29984
21
0.0357932
0
LINE
8
BLACK
6
CONTINUOUS
10
1.29984
20
0.0357932
11
1.31617
21
0.0357932
0
LINE
8
BLACK
6
CONTINUOUS
10
1.31617
20
0.0357932
11
1.32044
21
0.0379282
0
LINE
8
BLACK
6
CONTINUOUS
10
1.32044
20
0.0379282
11
1.32227
21
0.0397601
0
LINE
8
BLACK
6
CONTINUOUS
10
1.32227
20
0.0397601
11
1.32441
21
0.0440302
0
LINE
8
BLACK
6
CONTINUOUS
10
1.32441
20
0.0440302
11
1.32441
21
0.0571775
0
LINE
8
BLACK
6
CONTINUOUS
10
1.32441
20
0.0571775
11
1.32227
21
0.0614477
0
LINE
8
BLACK
6
CONTINUOUS
10
1.32227
20
0.0614477
11
1.32044
21
0.0632795
0
LINE
8
BLACK
6
CONTINUOUS
10
1.32044
20
0.0632795
11
1.31617
21
0.0654145
0
LINE
8
BLACK
6
CONTINUOUS
10
1.31617
20
0.0654145
11
1.30801
21
0.0654145
0
LINE
8
BLACK
6
CONTINUOUS
10
1.30801
20
0.0654145
11
1.30744
21
0.0655655
0
LINE
8
BLACK
6
CONTINUOUS
10
1.30744
20
0.0655655
11
1.30686
21
0.0655267
0
LINE
8
BLACK
6
CONTINUOUS
10
1.30686
20
0.0655267
11
1.30599
21
0.0659547
0
LINE
8
BLACK
6
CONTINUOUS
10
1.30599
20
0.0659547
11
1.30505
21
0.0662057
0
LINE
8
BLACK
6
CONTINUOUS
10
1.30505
20
0.0662057
11
1.30464
21
0.0666182
0
LINE
8
BLACK
6
CONTINUOUS
10
1.30464
20
0.0666182
11
1.30412
21
0.0668757
0
LINE
8
BLACK
6
CONTINUOUS
10
1.30412
20
0.0668757
11
1.30358
21
0.0676815
0
LINE
8
BLACK
6
CONTINUOUS
10
1.30358
20
0.0676815
11
1.30289
21
0.0683672
0
LINE
8
BLACK
6
CONTINUOUS
10
1.30289
20
0.0683672
11
1.30274
21
0.0689307
0
LINE
8
BLACK
6
CONTINUOUS
10
1.30274
20
0.0689307
11
1.30242
21
0.0694155
0
LINE
8
BLACK
6
CONTINUOUS
10
1.30242
20
0.0694155
11
1.30235
21
0.0703833
0
LINE
8
BLACK
6
CONTINUOUS
10
1.30235
20
0.0703833
11
1.3021
21
0.07132
0
LINE
8
BLACK
6
CONTINUOUS
10
1.3021
20
0.07132
11
1.30225
21
0.0718835
0
LINE
8
BLACK
6
CONTINUOUS
10
1.30225
20
0.0718835
11
1.30221
21
0.0724656
0
LINE
8
BLACK
6
CONTINUOUS
10
1.30221
20
0.0724656
11
1.30264
21
0.073336
0
LINE
8
BLACK
6
CONTINUOUS
10
1.30264
20
0.073336
11
1.30289
21
0.0742728
0
LINE
8
BLACK
6
CONTINUOUS
10
1.30289
20
0.0742728
11
1.3033
21
0.0746853
0
LINE
8
BLACK
6
CONTINUOUS
10
1.3033
20
0.0746853
11
1.30356
21
0.0752088
0
LINE
8
BLACK
6
CONTINUOUS
10
1.30356
20
0.0752088
11
1.3173
21
0.0909113
0
LINE
8
BLACK
6
CONTINUOUS
10
1.3173
20
0.0909113
11
1.28888
21
0.0909113
0
LINE
8
BLACK
6
CONTINUOUS
10
1.28888
20
0.0909113
11
1.28593
21
0.0917025
0
LINE
8
BLACK
6
CONTINUOUS
10
1.28593
20
0.0917025
11
1.28377
21
0.0938641
0
LINE
8
BLACK
6
CONTINUOUS
10
1.28377
20
0.0938641
11
1.28298
21
0.0968168
0
LINE
8
BLACK
6
CONTINUOUS
10
1.28298
20
0.0968168
11
1.28377
21
0.0997696
0
LINE
8
BLACK
6
CONTINUOUS
10
1.28377
20
0.0997696
11
1.28593
21
0.101931
0
LINE
8
BLACK
6
CONTINUOUS
10
1.28593
20
0.101931
11
1.28888
21
0.102722
0
LINE
8
BLACK
6
CONTINUOUS
10
1.28888
20
0.102722
11
1.33031
21
0.102722
0
LINE
8
BLACK
6
CONTINUOUS
10
1.33031
20
0.102722
11
1.33088
21
0.102571
0
LINE
8
BLACK
6
CONTINUOUS
10
1.37325
20
0.102441
11
1.37361
21
0.102419
0
LINE
8
BLACK
6
CONTINUOUS
10
1.37361
20
0.102419
11
1.3746
21
0.101766
0
LINE
8
BLACK
6
CONTINUOUS
10
1.3746
20
0.101766
11
1.37567
21
0.101235
0
LINE
8
BLACK
6
CONTINUOUS
10
1.37567
20
0.101235
11
1.37586
21
0.100934
0
LINE
8
BLACK
6
CONTINUOUS
10
1.37586
20
0.100934
11
1.37617
21
0.100735
0
LINE
8
BLACK
6
CONTINUOUS
10
1.37617
20
0.100735
11
1.3767
21
0.0996742
0
LINE
8
BLACK
6
CONTINUOUS
10
1.3767
20
0.0996742
11
1.37735
21
0.0986843
0
LINE
8
BLACK
6
CONTINUOUS
10
1.37735
20
0.0986843
11
1.39966
21
0.0317552
0
LINE
8
BLACK
6
CONTINUOUS
10
1.39966
20
0.0317552
11
1.39984
21
0.0287037
0
LINE
8
BLACK
6
CONTINUOUS
10
1.39984
20
0.0287037
11
1.39848
21
0.0259696
0
LINE
8
BLACK
6
CONTINUOUS
10
1.39848
20
0.0259696
11
1.39592
21
0.0242852
0
LINE
8
BLACK
6
CONTINUOUS
10
1.39592
20
0.0242852
11
1.39287
21
0.0241021
0
LINE
8
BLACK
6
CONTINUOUS
10
1.39287
20
0.0241021
11
1.39014
21
0.0254692
0
LINE
8
BLACK
6
CONTINUOUS
10
1.39014
20
0.0254692
11
1.38845
21
0.0280202
0
LINE
8
BLACK
6
CONTINUOUS
10
1.38845
20
0.0280202
11
1.38343
21
0.0431048
0
LINE
8
BLACK
6
CONTINUOUS
10
1.38343
20
0.0431048
11
1.36007
21
0.0431048
0
LINE
8
BLACK
6
CONTINUOUS
10
1.36007
20
0.0431048
11
1.35504
21
0.0280202
0
LINE
8
BLACK
6
CONTINUOUS
10
1.35504
20
0.0280202
11
1.35336
21
0.0254691
0
LINE
8
BLACK
6
CONTINUOUS
10
1.35336
20
0.0254691
11
1.35062
21
0.024102
0
LINE
8
BLACK
6
CONTINUOUS
10
1.35062
20
0.024102
11
1.34757
21
0.0242852
0
LINE
8
BLACK
6
CONTINUOUS
10
1.34757
20
0.0242852
11
1.34502
21
0.0259695
0
LINE
8
BLACK
6
CONTINUOUS
10
1.34502
20
0.0259695
11
1.34365
21
0.0287037
0
LINE
8
BLACK
6
CONTINUOUS
10
1.34365
20
0.0287037
11
1.34384
21
0.0317552
0
LINE
8
BLACK
6
CONTINUOUS
10
1.34384
20
0.0317552
11
1.36614
21
0.0986843
0
LINE
8
BLACK
6
CONTINUOUS
10
1.36614
20
0.0986843
11
1.3668
21
0.099674
0
LINE
8
BLACK
6
CONTINUOUS
10
1.3668
20
0.099674
11
1.36733
21
0.100735
0
LINE
8
BLACK
6
CONTINUOUS
10
1.36733
20
0.100735
11
1.36763
21
0.100934
0
LINE
8
BLACK
6
CONTINUOUS
10
1.36763
20
0.100934
11
1.36783
21
0.101235
0
LINE
8
BLACK
6
CONTINUOUS
10
1.36783
20
0.101235
11
1.36889
21
0.101766
0
LINE
8
BLACK
6
CONTINUOUS
10
1.36889
20
0.101766
11
1.36988
21
0.102419
0
LINE
8
BLACK
6
CONTINUOUS
10
1.36988
20
0.102419
11
1.37024
21
0.102441
0
LINE
8
BLACK
6
CONTINUOUS
10
1.37024
20
0.102441
11
1.37056
21
0.102602
0
LINE
8
BLACK
6
CONTINUOUS
10
1.37056
20
0.102602
11
1.37175
21
0.102531
0
LINE
8
BLACK
6
CONTINUOUS
10
1.37175
20
0.102531
11
1.37293
21
0.102602
0
LINE
8
BLACK
6
CONTINUOUS
10
1.37293
20
0.102602
11
1.37325
21
0.102441
0
LINE
8
BLACK
6
CONTINUOUS
10
1.36401
20
0.0549158
11
1.37949
21
0.0549158
0
LINE
8
BLACK
6
CONTINUOUS
10
1.37949
20
0.0549158
11
1.37175
21
0.078142
0
LINE
8
BLACK
6
CONTINUOUS
10
1.37175
20
0.078142
11
1.36401
21
0.0549158
0
LINE
8
BLACK
6
CONTINUOUS
10
0.28975
20
0.103947
11
0.291011
21
0.103724
0
LINE
8
BLACK
6
CONTINUOUS
10
0.291011
20
0.103724
11
0.291213
21
0.103555
0
LINE
8
BLACK
6
CONTINUOUS
10
0.291213
20
0.103555
11
0.291467
21
0.103487
0
LINE
8
BLACK
6
CONTINUOUS
10
0.291467
20
0.103487
11
0.292372
21
0.102582
0
LINE
8
BLACK
6
CONTINUOUS
10
0.292372
20
0.102582
11
0.293353
21
0.101759
0
LINE
8
BLACK
6
CONTINUOUS
10
0.293353
20
0.101759
11
0.293442
21
0.101512
0
LINE
8
BLACK
6
CONTINUOUS
10
0.293442
20
0.101512
11
0.293628
21
0.101326
0
LINE
8
BLACK
6
CONTINUOUS
10
0.293628
20
0.101326
11
0.29396
21
0.100089
0
LINE
8
BLACK
6
CONTINUOUS
10
0.29396
20
0.100089
11
0.294397
21
0.0988859
0
LINE
8
BLACK
6
CONTINUOUS
10
0.294397
20
0.0988859
11
0.294351
21
0.098627
0
LINE
8
BLACK
6
CONTINUOUS
10
0.294351
20
0.098627
11
0.29442
21
0.0983729
0
LINE
8
BLACK
6
CONTINUOUS
10
0.29442
20
0.0983729
11
0.29442
21
0.0393178
0
LINE
8
BLACK
6
CONTINUOUS
10
0.29442
20
0.0393178
11
0.293628
21
0.036365
0
LINE
8
BLACK
6
CONTINUOUS
10
0.293628
20
0.036365
11
0.291467
21
0.0342035
0
LINE
8
BLACK
6
CONTINUOUS
10
0.291467
20
0.0342035
11
0.288514
21
0.0334123
0
LINE
8
BLACK
6
CONTINUOUS
10
0.288514
20
0.0334123
11
0.285561
21
0.0342035
0
LINE
8
BLACK
6
CONTINUOUS
10
0.285561
20
0.0342035
11
0.2834
21
0.036365
0
LINE
8
BLACK
6
CONTINUOUS
10
0.2834
20
0.036365
11
0.282609
21
0.0393178
0
LINE
8
BLACK
6
CONTINUOUS
10
0.282609
20
0.0393178
11
0.282609
21
0.0717535
0
LINE
8
BLACK
6
CONTINUOUS
10
0.282609
20
0.0717535
11
0.27418
21
0.0536933
0
LINE
8
BLACK
6
CONTINUOUS
10
0.27418
20
0.0536933
11
0.273846
21
0.0532944
0
LINE
8
BLACK
6
CONTINUOUS
10
0.273846
20
0.0532944
11
0.273667
21
0.0528048
0
LINE
8
BLACK
6
CONTINUOUS
10
0.273667
20
0.0528048
11
0.272878
21
0.0521417
0
LINE
8
BLACK
6
CONTINUOUS
10
0.272878
20
0.0521417
11
0.272215
21
0.0513522
0
LINE
8
BLACK
6
CONTINUOUS
10
0.272215
20
0.0513522
11
0.271725
21
0.0511742
0
LINE
8
BLACK
6
CONTINUOUS
10
0.271725
20
0.0511742
11
0.271326
21
0.0508392
0
LINE
8
BLACK
6
CONTINUOUS
10
0.271326
20
0.0508392
11
0.270311
21
0.0506598
0
LINE
8
BLACK
6
CONTINUOUS
10
0.270311
20
0.0506598
11
0.269342
21
0.0503075
0
LINE
8
BLACK
6
CONTINUOUS
10
0.269342
20
0.0503075
11
0.268829
21
0.0503981
0
LINE
8
BLACK
6
CONTINUOUS
10
0.268829
20
0.0503981
11
0.268316
21
0.0503074
0
LINE
8
BLACK
6
CONTINUOUS
10
0.268316
20
0.0503074
11
0.267347
21
0.0506599
0
LINE
8
BLACK
6
CONTINUOUS
10
0.267347
20
0.0506599
11
0.266332
21
0.0508392
0
LINE
8
BLACK
6
CONTINUOUS
10
0.266332
20
0.0508392
11
0.265933
21
0.0511741
0
LINE
8
BLACK
6
CONTINUOUS
10
0.265933
20
0.0511741
11
0.265443
21
0.0513521
0
LINE
8
BLACK
6
CONTINUOUS
10
0.265443
20
0.0513521
11
0.26478
21
0.0521419
0
LINE
8
BLACK
6
CONTINUOUS
10
0.26478
20
0.0521419
11
0.26399
21
0.0528048
0
LINE
8
BLACK
6
CONTINUOUS
10
0.26399
20
0.0528048
11
0.263812
21
0.0532944
0
LINE
8
BLACK
6
CONTINUOUS
10
0.263812
20
0.0532944
11
0.263478
21
0.0536933
0
LINE
8
BLACK
6
CONTINUOUS
10
0.263478
20
0.0536933
11
0.255049
21
0.0717535
0
LINE
8
BLACK
6
CONTINUOUS
10
0.255049
20
0.0717535
11
0.255049
21
0.0393178
0
LINE
8
BLACK
6
CONTINUOUS
10
0.255049
20
0.0393178
11
0.254258
21
0.036365
0
LINE
8
BLACK
6
CONTINUOUS
10
0.254258
20
0.036365
11
0.252097
21
0.0342035
0
LINE
8
BLACK
6
CONTINUOUS
10
0.252097
20
0.0342035
11
0.249144
21
0.0334123
0
LINE
8
BLACK
6
CONTINUOUS
10
0.249144
20
0.0334123
11
0.246191
21
0.0342035
0
LINE
8
BLACK
6
CONTINUOUS
10
0.246191
20
0.0342035
11
0.24403
21
0.036365
0
LINE
8
BLACK
6
CONTINUOUS
10
0.24403
20
0.036365
11
0.243238
21
0.0393178
0
LINE
8
BLACK
6
CONTINUOUS
10
0.243238
20
0.0393178
11
0.243238
21
0.0983729
0
LINE
8
BLACK
6
CONTINUOUS
10
0.243238
20
0.0983729
11
0.243306
21
0.0986269
0
LINE
8
BLACK
6
CONTINUOUS
10
0.243306
20
0.0986269
11
0.243261
21
0.0988859
0
LINE
8
BLACK
6
CONTINUOUS
10
0.243261
20
0.0988859
11
0.243698
21
0.100089
0
LINE
8
BLACK
6
CONTINUOUS
10
0.243698
20
0.100089
11
0.24403
21
0.101326
0
LINE
8
BLACK
6
CONTINUOUS
10
0.24403
20
0.101326
11
0.244216
21
0.101512
0
LINE
8
BLACK
6
CONTINUOUS
10
0.244216
20
0.101512
11
0.244305
21
0.101759
0
LINE
8
BLACK
6
CONTINUOUS
10
0.244305
20
0.101759
11
0.245286
21
0.102582
0
LINE
8
BLACK
6
CONTINUOUS
10
0.245286
20
0.102582
11
0.246191
21
0.103487
0
LINE
8
BLACK
6
CONTINUOUS
10
0.246191
20
0.103487
11
0.246445
21
0.103555
0
LINE
8
BLACK
6
CONTINUOUS
10
0.246445
20
0.103555
11
0.246647
21
0.103724
0
LINE
8
BLACK
6
CONTINUOUS
10
0.246647
20
0.103724
11
0.247907
21
0.103947
0
LINE
8
BLACK
6
CONTINUOUS
10
0.247907
20
0.103947
11
0.249144
21
0.104278
0
LINE
8
BLACK
6
CONTINUOUS
10
0.249144
20
0.104278
11
0.249398
21
0.10421
0
LINE
8
BLACK
6
CONTINUOUS
10
0.249398
20
0.10421
11
0.249657
21
0.104256
0
LINE
8
BLACK
6
CONTINUOUS
10
0.249657
20
0.104256
11
0.25086
21
0.103819
0
LINE
8
BLACK
6
CONTINUOUS
10
0.25086
20
0.103819
11
0.252097
21
0.103487
0
LINE
8
BLACK
6
CONTINUOUS
10
0.252097
20
0.103487
11
0.252283
21
0.103301
0
LINE
8
BLACK
6
CONTINUOUS
10
0.252283
20
0.103301
11
0.25253
21
0.103211
0
LINE
8
BLACK
6
CONTINUOUS
10
0.25253
20
0.103211
11
0.253353
21
0.102231
0
LINE
8
BLACK
6
CONTINUOUS
10
0.253353
20
0.102231
11
0.254258
21
0.101326
0
LINE
8
BLACK
6
CONTINUOUS
10
0.254258
20
0.101326
11
0.254326
21
0.101072
0
LINE
8
BLACK
6
CONTINUOUS
10
0.254326
20
0.101072
11
0.254495
21
0.10087
0
LINE
8
BLACK
6
CONTINUOUS
10
0.254495
20
0.10087
11
0.268829
21
0.0701555
0
LINE
8
BLACK
6
CONTINUOUS
10
0.268829
20
0.0701555
11
0.283163
21
0.10087
0
LINE
8
BLACK
6
CONTINUOUS
10
0.283163
20
0.10087
11
0.283332
21
0.101072
0
LINE
8
BLACK
6
CONTINUOUS
10
0.283332
20
0.101072
11
0.2834
21
0.101326
0
LINE
8
BLACK
6
CONTINUOUS
10
0.2834
20
0.101326
11
0.284305
21
0.102231
0
LINE
8
BLACK
6
CONTINUOUS
10
0.284305
20
0.102231
11
0.285128
21
0.103211
0
LINE
8
BLACK
6
CONTINUOUS
10
0.285128
20
0.103211
11
0.285375
21
0.103301
0
LINE
8
BLACK
6
CONTINUOUS
10
0.285375
20
0.103301
11
0.285561
21
0.103487
0
LINE
8
BLACK
6
CONTINUOUS
10
0.285561
20
0.103487
11
0.286798
21
0.103819
0
LINE
8
BLACK
6
CONTINUOUS
10
0.286798
20
0.103819
11
0.288001
21
0.104256
0
LINE
8
BLACK
6
CONTINUOUS
10
0.288001
20
0.104256
11
0.28826
21
0.10421
0
LINE
8
BLACK
6
CONTINUOUS
10
0.28826
20
0.10421
11
0.288514
21
0.104278
0
LINE
8
BLACK
6
CONTINUOUS
10
0.288514
20
0.104278
11
0.28975
21
0.103947
0
LINE
8
BLACK
6
CONTINUOUS
10
0.319588
20
0.103487
11
0.32175
21
0.101326
0
LINE
8
BLACK
6
CONTINUOUS
10
0.32175
20
0.101326
11
0.322541
21
0.0983729
0
LINE
8
BLACK
6
CONTINUOUS
10
0.322541
20
0.0983729
11
0.322541
21
0.0452233
0
LINE
8
BLACK
6
CONTINUOUS
10
0.322541
20
0.0452233
11
0.344757
21
0.0452233
0
LINE
8
BLACK
6
CONTINUOUS
10
0.344757
20
0.0452233
11
0.34771
21
0.0444321
0
LINE
8
BLACK
6
CONTINUOUS
10
0.34771
20
0.0444321
11
0.349871
21
0.0422706
0
LINE
8
BLACK
6
CONTINUOUS
10
0.349871
20
0.0422706
11
0.350359
21
0.0404503
0
LINE
8
BLACK
6
CONTINUOUS
10
0.350359
20
0.0404503
11
0.350403
21
0.0411853
0
LINE
8
BLACK
6
CONTINUOUS
10
0.350403
20
0.0411853
11
0.370088
21
0.10024
0
LINE
8
BLACK
6
CONTINUOUS
10
0.370088
20
0.10024
11
0.370742
21
0.10123
0
LINE
8
BLACK
6
CONTINUOUS
10
0.370742
20
0.10123
11
0.371272
21
0.102291
0
LINE
8
BLACK
6
CONTINUOUS
10
0.371272
20
0.102291
11
0.371573
21
0.10249
0
LINE
8
BLACK
6
CONTINUOUS
10
0.371573
20
0.10249
11
0.371773
21
0.102791
0
LINE
8
BLACK
6
CONTINUOUS
10
0.371773
20
0.102791
11
0.372834
21
0.103322
0
LINE
8
BLACK
6
CONTINUOUS
10
0.372834
20
0.103322
11
0.373823
21
0.103975
0
LINE
8
BLACK
6
CONTINUOUS
10
0.373823
20
0.103975
11
0.374184
21
0.103997
0
LINE
8
BLACK
6
CONTINUOUS
10
0.374184
20
0.103997
11
0.374507
21
0.104159
0
LINE
8
BLACK
6
CONTINUOUS
10
0.374507
20
0.104159
11
0.375691
21
0.104087
0
LINE
8
BLACK
6
CONTINUOUS
10
0.375691
20
0.104087
11
0.376875
21
0.104159
0
LINE
8
BLACK
6
CONTINUOUS
10
0.376875
20
0.104159
11
0.377198
21
0.103997
0
LINE
8
BLACK
6
CONTINUOUS
10
0.377198
20
0.103997
11
0.377558
21
0.103975
0
LINE
8
BLACK
6
CONTINUOUS
10
0.377558
20
0.103975
11
0.378548
21
0.103322
0
LINE
8
BLACK
6
CONTINUOUS
10
0.378548
20
0.103322
11
0.379609
21
0.102791
0
LINE
8
BLACK
6
CONTINUOUS
10
0.379609
20
0.102791
11
0.379808
21
0.10249
0
LINE
8
BLACK
6
CONTINUOUS
10
0.379808
20
0.10249
11
0.380109
21
0.102291
0
LINE
8
BLACK
6
CONTINUOUS
10
0.380109
20
0.102291
11
0.38064
21
0.10123
0
LINE
8
BLACK
6
CONTINUOUS
10
0.38064
20
0.10123
11
0.381293
21
0.10024
0
LINE
8
BLACK
6
CONTINUOUS
10
0.381293
20
0.10024
11
0.400978
21
0.0411853
0
LINE
8
BLACK
6
CONTINUOUS
10
0.400978
20
0.0411853
11
0.401161
21
0.0381339
0
LINE
8
BLACK
6
CONTINUOUS
10
0.401161
20
0.0381339
11
0.399794
21
0.0353996
0
LINE
8
BLACK
6
CONTINUOUS
10
0.399794
20
0.0353996
11
0.397243
21
0.0337153
0
LINE
8
BLACK
6
CONTINUOUS
10
0.397243
20
0.0337153
11
0.394192
21
0.0335322
0
LINE
8
BLACK
6
CONTINUOUS
10
0.394192
20
0.0335322
11
0.391458
21
0.0348993
0
LINE
8
BLACK
6
CONTINUOUS
10
0.391458
20
0.0348993
11
0.389773
21
0.0374503
0
LINE
8
BLACK
6
CONTINUOUS
10
0.389773
20
0.0374503
11
0.385495
21
0.0502852
0
LINE
8
BLACK
6
CONTINUOUS
10
0.385495
20
0.0502852
11
0.365886
21
0.0502852
0
LINE
8
BLACK
6
CONTINUOUS
10
0.365886
20
0.0502852
11
0.361608
21
0.0374503
0
LINE
8
BLACK
6
CONTINUOUS
10
0.361608
20
0.0374503
11
0.359924
21
0.0348993
0
LINE
8
BLACK
6
CONTINUOUS
10
0.359924
20
0.0348993
11
0.35719
21
0.0335322
0
LINE
8
BLACK
6
CONTINUOUS
10
0.35719
20
0.0335322
11
0.354138
21
0.0337154
0
LINE
8
BLACK
6
CONTINUOUS
10
0.354138
20
0.0337154
11
0.351587
21
0.0353996
0
LINE
8
BLACK
6
CONTINUOUS
10
0.351587
20
0.0353996
11
0.350302
21
0.0379707
0
LINE
8
BLACK
6
CONTINUOUS
10
0.350302
20
0.0379707
11
0.349871
21
0.036365
0
LINE
8
BLACK
6
CONTINUOUS
10
0.349871
20
0.036365
11
0.34771
21
0.0342035
0
LINE
8
BLACK
6
CONTINUOUS
10
0.34771
20
0.0342035
11
0.344757
21
0.0334123
0
LINE
8
BLACK
6
CONTINUOUS
10
0.344757
20
0.0334123
11
0.316636
21
0.0334123
0
LINE
8
BLACK
6
CONTINUOUS
10
0.316636
20
0.0334123
11
0.313683
21
0.0342035
0
LINE
8
BLACK
6
CONTINUOUS
10
0.313683
20
0.0342035
11
0.311521
21
0.036365
0
LINE
8
BLACK
6
CONTINUOUS
10
0.311521
20
0.036365
11
0.31073
21
0.0393178
0
LINE
8
BLACK
6
CONTINUOUS
10
0.31073
20
0.0393178
11
0.31073
21
0.0393178
0
LINE
8
BLACK
6
CONTINUOUS
10
0.31073
20
0.0393178
11
0.31073
21
0.0983729
0
LINE
8
BLACK
6
CONTINUOUS
10
0.31073
20
0.0983729
11
0.311521
21
0.101326
0
LINE
8
BLACK
6
CONTINUOUS
10
0.311521
20
0.101326
11
0.313683
21
0.103487
0
LINE
8
BLACK
6
CONTINUOUS
10
0.313683
20
0.103487
11
0.316636
21
0.104278
0
LINE
8
BLACK
6
CONTINUOUS
10
0.316636
20
0.104278
11
0.319588
21
0.103487
0
LINE
8
BLACK
6
CONTINUOUS
10
0.369823
20
0.0620962
11
0.381558
21
0.0620962
0
LINE
8
BLACK
6
CONTINUOUS
10
0.381558
20
0.0620962
11
0.375691
21
0.0796981
0
LINE
8
BLACK
6
CONTINUOUS
10
0.375691
20
0.0796981
11
0.369823
21
0.0620962
0
LINE
8
BLACK
6
CONTINUOUS
10
0.436057
20
0.103927
11
0.437387
21
0.103655
0
LINE
8
BLACK
6
CONTINUOUS
10
0.437387
20
0.103655
11
0.443011
21
0.100843
0
LINE
8
BLACK
6
CONTINUOUS
10
0.443011
20
0.100843
11
0.443722
21
0.100212
0
LINE
8
BLACK
6
CONTINUOUS
10
0.443722
20
0.100212
11
0.444546
21
0.0997366
0
LINE
8
BLACK
6
CONTINUOUS
10
0.444546
20
0.0997366
11
0.447358
21
0.0969244
0
LINE
8
BLACK
6
CONTINUOUS
10
0.447358
20
0.0969244
11
0.447833
21
0.096101
0
LINE
8
BLACK
6
CONTINUOUS
10
0.447833
20
0.096101
11
0.448464
21
0.0953896
0
LINE
8
BLACK
6
CONTINUOUS
10
0.448464
20
0.0953896
11
0.451276
21
0.0897654
0
LINE
8
BLACK
6
CONTINUOUS
10
0.451276
20
0.0897654
11
0.451549
21
0.0884354
0
LINE
8
BLACK
6
CONTINUOUS
10
0.451549
20
0.0884354
11
0.4519
21
0.0871243
0
LINE
8
BLACK
6
CONTINUOUS
10
0.4519
20
0.0871243
11
0.4519
21
0.0815
0
LINE
8
BLACK
6
CONTINUOUS
10
0.4519
20
0.0815
11
0.451549
21
0.080189
0
LINE
8
BLACK
6
CONTINUOUS
10
0.451549
20
0.080189
11
0.451276
21
0.0788589
0
LINE
8
BLACK
6
CONTINUOUS
10
0.451276
20
0.0788589
11
0.448464
21
0.0732347
0
LINE
8
BLACK
6
CONTINUOUS
10
0.448464
20
0.0732347
11
0.447833
21
0.0725233
0
LINE
8
BLACK
6
CONTINUOUS
10
0.447833
20
0.0725233
11
0.447358
21
0.0716999
0
LINE
8
BLACK
6
CONTINUOUS
10
0.447358
20
0.0716999
11
0.447304
21
0.0716462
0
LINE
8
BLACK
6
CONTINUOUS
10
0.447304
20
0.0716462
11
0.447358
21
0.0716151
0
LINE
8
BLACK
6
CONTINUOUS
10
0.447358
20
0.0716151
11
0.45017
21
0.068803
0
LINE
8
BLACK
6
CONTINUOUS
10
0.45017
20
0.068803
11
0.450646
21
0.0679796
0
LINE
8
BLACK
6
CONTINUOUS
10
0.450646
20
0.0679796
11
0.451276
21
0.0672681
0
LINE
8
BLACK
6
CONTINUOUS
10
0.451276
20
0.0672681
11
0.454089
21
0.0616438
0
LINE
8
BLACK
6
CONTINUOUS
10
0.454089
20
0.0616438
11
0.454361
21
0.0603141
0
LINE
8
BLACK
6
CONTINUOUS
10
0.454361
20
0.0603141
11
0.454712
21
0.0590028
0
LINE
8
BLACK
6
CONTINUOUS
10
0.454712
20
0.0590028
11
0.454712
21
0.0505664
0
LINE
8
BLACK
6
CONTINUOUS
10
0.454712
20
0.0505664
11
0.454361
21
0.0492552
0
LINE
8
BLACK
6
CONTINUOUS
10
0.454361
20
0.0492552
11
0.454089
21
0.0479254
0
LINE
8
BLACK
6
CONTINUOUS
10
0.454089
20
0.0479254
11
0.451276
21
0.0423011
0
LINE
8
BLACK
6
CONTINUOUS
10
0.451276
20
0.0423011
11
0.450646
21
0.0415897
0
LINE
8
BLACK
6
CONTINUOUS
10
0.450646
20
0.0415897
11
0.45017
21
0.0407663
0
LINE
8
BLACK
6
CONTINUOUS
10
0.45017
20
0.0407663
11
0.447358
21
0.0379541
0
LINE
8
BLACK
6
CONTINUOUS
10
0.447358
20
0.0379541
11
0.446535
21
0.0374787
0
LINE
8
BLACK
6
CONTINUOUS
10
0.446535
20
0.0374787
11
0.445823
21
0.0368479
0
LINE
8
BLACK
6
CONTINUOUS
10
0.445823
20
0.0368479
11
0.440199
21
0.0340357
0
LINE
8
BLACK
6
CONTINUOUS
10
0.440199
20
0.0340357
11
0.438869
21
0.0337636
0
LINE
8
BLACK
6
CONTINUOUS
10
0.438869
20
0.0337636
11
0.437558
21
0.0334123
0
LINE
8
BLACK
6
CONTINUOUS
10
0.437558
20
0.0334123
11
0.415061
21
0.0334123
0
LINE
8
BLACK
6
CONTINUOUS
10
0.415061
20
0.0334123
11
0.412108
21
0.0342035
0
LINE
8
BLACK
6
CONTINUOUS
10
0.412108
20
0.0342035
11
0.409946
21
0.036365
0
LINE
8
BLACK
6
CONTINUOUS
10
0.409946
20
0.036365
11
0.409155
21
0.0393178
0
LINE
8
BLACK
6
CONTINUOUS
10
0.409155
20
0.0393178
11
0.409155
21
0.0393178
0
LINE
8
BLACK
6
CONTINUOUS
10
0.409155
20
0.0393178
11
0.409155
21
0.0983729
0
LINE
8
BLACK
6
CONTINUOUS
10
0.409155
20
0.0983729
11
0.409946
21
0.101326
0
LINE
8
BLACK
6
CONTINUOUS
10
0.409946
20
0.101326
11
0.412108
21
0.103487
0
LINE
8
BLACK
6
CONTINUOUS
10
0.412108
20
0.103487
11
0.415061
21
0.104278
0
LINE
8
BLACK
6
CONTINUOUS
10
0.415061
20
0.104278
11
0.434746
21
0.104278
0
LINE
8
BLACK
6
CONTINUOUS
10
0.434746
20
0.104278
11
0.436057
21
0.103927
0
LINE
8
BLACK
6
CONTINUOUS
10
0.420966
20
0.0452233
11
0.436164
21
0.0452233
0
LINE
8
BLACK
6
CONTINUOUS
10
0.436164
20
0.0452233
11
0.439684
21
0.0469834
0
LINE
8
BLACK
6
CONTINUOUS
10
0.439684
20
0.0469834
11
0.441141
21
0.0484403
0
LINE
8
BLACK
6
CONTINUOUS
10
0.441141
20
0.0484403
11
0.442901
21
0.0519605
0
LINE
8
BLACK
6
CONTINUOUS
10
0.442901
20
0.0519605
11
0.442901
21
0.0576088
0
LINE
8
BLACK
6
CONTINUOUS
10
0.442901
20
0.0576088
11
0.441141
21
0.061129
0
LINE
8
BLACK
6
CONTINUOUS
10
0.441141
20
0.061129
11
0.439992
21
0.0622777
0
LINE
8
BLACK
6
CONTINUOUS
10
0.439992
20
0.0622777
11
0.433787
21
0.0643459
0
LINE
8
BLACK
6
CONTINUOUS
10
0.433787
20
0.0643459
11
0.420966
21
0.0643459
0
LINE
8
BLACK
6
CONTINUOUS
10
0.420966
20
0.0643459
11
0.420966
21
0.0452233
0
LINE
8
BLACK
6
CONTINUOUS
10
0.420966
20
0.0761569
11
0.433352
21
0.0761569
0
LINE
8
BLACK
6
CONTINUOUS
10
0.433352
20
0.0761569
11
0.436872
21
0.077917
0
LINE
8
BLACK
6
CONTINUOUS
10
0.436872
20
0.077917
11
0.438329
21
0.0793739
0
LINE
8
BLACK
6
CONTINUOUS
10
0.438329
20
0.0793739
11
0.440089
21
0.0828941
0
LINE
8
BLACK
6
CONTINUOUS
10
0.440089
20
0.0828941
11
0.440089
21
0.0857302
0
LINE
8
BLACK
6
CONTINUOUS
10
0.440089
20
0.0857302
11
0.438329
21
0.0892504
0
LINE
8
BLACK
6
CONTINUOUS
10
0.438329
20
0.0892504
11
0.436872
21
0.0907073
0
LINE
8
BLACK
6
CONTINUOUS
10
0.436872
20
0.0907073
11
0.433352
21
0.0924674
0
LINE
8
BLACK
6
CONTINUOUS
10
0.433352
20
0.0924674
11
0.420966
21
0.0924674
0
LINE
8
BLACK
6
CONTINUOUS
10
0.420966
20
0.0924674
11
0.420966
21
0.0761569
0
LINE
8
BLACK
6
CONTINUOUS
10
0.474867
20
0.0506464
11
0.475644
21
0.0506464
0
LINE
8
BLACK
6
CONTINUOUS
10
0.475644
20
0.0506464
11
0.475644
21
0.0506464
0
LINE
8
BLACK
6
CONTINUOUS
10
0.475644
20
0.0506464
11
0.476318
21
0.0502577
0
LINE
8
BLACK
6
CONTINUOUS
10
0.476318
20
0.0502577
11
0.477069
21
0.0500564
0
LINE
8
BLACK
6
CONTINUOUS
10
0.477069
20
0.0500564
11
0.477618
21
0.0495067
0
LINE
8
BLACK
6
CONTINUOUS
10
0.477618
20
0.0495067
11
0.478292
21
0.049118
0
LINE
8
BLACK
6
CONTINUOUS
10
0.478292
20
0.049118
11
0.478292
21
0.0491179
0
LINE
8
BLACK
6
CONTINUOUS
10
0.478292
20
0.0491179
11
0.481104
21
0.0463057
0
LINE
8
BLACK
6
CONTINUOUS
10
0.481104
20
0.0463057
11
0.482632
21
0.0436584
0
LINE
8
BLACK
6
CONTINUOUS
10
0.482632
20
0.0436584
11
0.482632
21
0.0436583
0
LINE
8
BLACK
6
CONTINUOUS
10
0.482632
20
0.0436583
11
0.482632
21
0.0406014
0
LINE
8
BLACK
6
CONTINUOUS
10
0.482632
20
0.0406014
11
0.481891
21
0.0393178
0
LINE
8
BLACK
6
CONTINUOUS
10
0.481891
20
0.0393178
11
0.481104
21
0.0379541
0
LINE
8
BLACK
6
CONTINUOUS
10
0.481104
20
0.0379541
11
0.481104
21
0.0379541
0
LINE
8
BLACK
6
CONTINUOUS
10
0.481104
20
0.0379541
11
0.478292
21
0.0351419
0
LINE
8
BLACK
6
CONTINUOUS
10
0.478292
20
0.0351419
11
0.477871
21
0.0348993
0
LINE
8
BLACK
6
CONTINUOUS
10
0.477871
20
0.0348993
11
0.477618
21
0.0347533
0
LINE
8
BLACK
6
CONTINUOUS
10
0.477618
20
0.0347533
11
0.477069
21
0.0342035
0
LINE
8
BLACK
6
CONTINUOUS
10
0.477069
20
0.0342035
11
0.476318
21
0.0340022
0
LINE
8
BLACK
6
CONTINUOUS
10
0.476318
20
0.0340022
11
0.475644
21
0.0336135
0
LINE
8
BLACK
6
CONTINUOUS
10
0.475644
20
0.0336135
11
0.474867
21
0.0336135
0
LINE
8
BLACK
6
CONTINUOUS
10
0.474867
20
0.0336135
11
0.474116
21
0.0334123
0
LINE
8
BLACK
6
CONTINUOUS
10
0.474116
20
0.0334123
11
0.473365
21
0.0336135
0
LINE
8
BLACK
6
CONTINUOUS
10
0.473365
20
0.0336135
11
0.472587
21
0.0336135
0
LINE
8
BLACK
6
CONTINUOUS
10
0.472587
20
0.0336135
11
0.472587
21
0.0336135
0
LINE
8
BLACK
6
CONTINUOUS
10
0.472587
20
0.0336135
11
0.471914
21
0.0340023
0
LINE
8
BLACK
6
CONTINUOUS
10
0.471914
20
0.0340023
11
0.471163
21
0.0342035
0
LINE
8
BLACK
6
CONTINUOUS
10
0.471163
20
0.0342035
11
0.470613
21
0.0347533
0
LINE
8
BLACK
6
CONTINUOUS
10
0.470613
20
0.0347533
11
0.47036
21
0.0348993
0
LINE
8
BLACK
6
CONTINUOUS
10
0.47036
20
0.0348993
11
0.46994
21
0.035142
0
LINE
8
BLACK
6
CONTINUOUS
10
0.46994
20
0.035142
11
0.467128
21
0.0379541
0
LINE
8
BLACK
6
CONTINUOUS
10
0.467128
20
0.0379541
11
0.466341
21
0.0393178
0
LINE
8
BLACK
6
CONTINUOUS
10
0.466341
20
0.0393178
11
0.465599
21
0.0406014
0
LINE
8
BLACK
6
CONTINUOUS
10
0.465599
20
0.0406014
11
0.465599
21
0.0436583
0
LINE
8
BLACK
6
CONTINUOUS
10
0.465599
20
0.0436583
11
0.465599
21
0.0436584
0
LINE
8
BLACK
6
CONTINUOUS
10
0.465599
20
0.0436584
11
0.467128
21
0.0463057
0
LINE
8
BLACK
6
CONTINUOUS
10
0.467128
20
0.0463057
11
0.467128
21
0.0463057
0
LINE
8
BLACK
6
CONTINUOUS
10
0.467128
20
0.0463057
11
0.46994
21
0.0491179
0
LINE
8
BLACK
6
CONTINUOUS
10
0.46994
20
0.0491179
11
0.46994
21
0.0491179
0
LINE
8
BLACK
6
CONTINUOUS
10
0.46994
20
0.0491179
11
0.46994
21
0.0491179
0
LINE
8
BLACK
6
CONTINUOUS
10
0.46994
20
0.0491179
11
0.470613
21
0.0495067
0
LINE
8
BLACK
6
CONTINUOUS
10
0.470613
20
0.0495067
11
0.471163
21
0.0500564
0
LINE
8
BLACK
6
CONTINUOUS
10
0.471163
20
0.0500564
11
0.471914
21
0.0502576
0
LINE
8
BLACK
6
CONTINUOUS
10
0.471914
20
0.0502576
11
0.472587
21
0.0506464
0
LINE
8
BLACK
6
CONTINUOUS
10
0.472587
20
0.0506464
11
0.473365
21
0.0506464
0
LINE
8
BLACK
6
CONTINUOUS
10
0.473365
20
0.0506464
11
0.474116
21
0.0508476
0
LINE
8
BLACK
6
CONTINUOUS
10
0.474116
20
0.0508476
11
0.474867
21
0.0506464
0
LINE
8
BLACK
6
CONTINUOUS
10
0.523233
20
0.0842421
11
0.524563
21
0.0839699
0
LINE
8
BLACK
6
CONTINUOUS
10
0.524563
20
0.0839699
11
0.530188
21
0.0811578
0
LINE
8
BLACK
6
CONTINUOUS
10
0.530188
20
0.0811578
11
0.532475
21
0.0791296
0
LINE
8
BLACK
6
CONTINUOUS
10
0.532475
20
0.0791296
11
0.533442
21
0.0762295
0
LINE
8
BLACK
6
CONTINUOUS
10
0.533442
20
0.0762295
11
0.532829
21
0.0732347
0
LINE
8
BLACK
6
CONTINUOUS
10
0.532829
20
0.0732347
11
0.530801
21
0.0709475
0
LINE
8
BLACK
6
CONTINUOUS
10
0.530801
20
0.0709475
11
0.527901
21
0.0699808
0
LINE
8
BLACK
6
CONTINUOUS
10
0.527901
20
0.0699808
11
0.524906
21
0.0705937
0
LINE
8
BLACK
6
CONTINUOUS
10
0.524906
20
0.0705937
11
0.520528
21
0.0727824
0
LINE
8
BLACK
6
CONTINUOUS
10
0.520528
20
0.0727824
11
0.512068
21
0.0727824
0
LINE
8
BLACK
6
CONTINUOUS
10
0.512068
20
0.0727824
11
0.508548
21
0.0710222
0
LINE
8
BLACK
6
CONTINUOUS
10
0.508548
20
0.0710222
11
0.507091
21
0.0695654
0
LINE
8
BLACK
6
CONTINUOUS
10
0.507091
20
0.0695654
11
0.505331
21
0.0660452
0
LINE
8
BLACK
6
CONTINUOUS
10
0.505331
20
0.0660452
11
0.505331
21
0.0519605
0
LINE
8
BLACK
6
CONTINUOUS
10
0.505331
20
0.0519605
11
0.507091
21
0.0484403
0
LINE
8
BLACK
6
CONTINUOUS
10
0.507091
20
0.0484403
11
0.508548
21
0.0469834
0
LINE
8
BLACK
6
CONTINUOUS
10
0.508548
20
0.0469834
11
0.512068
21
0.0452233
0
LINE
8
BLACK
6
CONTINUOUS
10
0.512068
20
0.0452233
11
0.520528
21
0.0452233
0
LINE
8
BLACK
6
CONTINUOUS
10
0.520528
20
0.0452233
11
0.524906
21
0.047412
0
LINE
8
BLACK
6
CONTINUOUS
10
0.524906
20
0.047412
11
0.527901
21
0.0480248
0
LINE
8
BLACK
6
CONTINUOUS
10
0.527901
20
0.0480248
11
0.530801
21
0.0470581
0
LINE
8
BLACK
6
CONTINUOUS
10
0.530801
20
0.0470581
11
0.532829
21
0.0447709
0
LINE
8
BLACK
6
CONTINUOUS
10
0.532829
20
0.0447709
11
0.533442
21
0.0417761
0
LINE
8
BLACK
6
CONTINUOUS
10
0.533442
20
0.0417761
11
0.532475
21
0.038876
0
LINE
8
BLACK
6
CONTINUOUS
10
0.532475
20
0.038876
11
0.530188
21
0.0368479
0
LINE
8
BLACK
6
CONTINUOUS
10
0.530188
20
0.0368479
11
0.524563
21
0.0340357
0
LINE
8
BLACK
6
CONTINUOUS
10
0.524563
20
0.0340357
11
0.523234
21
0.0337637
0
LINE
8
BLACK
6
CONTINUOUS
10
0.523234
20
0.0337637
11
0.521922
21
0.0334123
0
LINE
8
BLACK
6
CONTINUOUS
10
0.521922
20
0.0334123
11
0.510674
21
0.0334123
0
LINE
8
BLACK
6
CONTINUOUS
10
0.510674
20
0.0334123
11
0.509363
21
0.0337637
0
LINE
8
BLACK
6
CONTINUOUS
10
0.509363
20
0.0337637
11
0.508033
21
0.0340357
0
LINE
8
BLACK
6
CONTINUOUS
10
0.508033
20
0.0340357
11
0.502408
21
0.0368479
0
LINE
8
BLACK
6
CONTINUOUS
10
0.502408
20
0.0368479
11
0.501697
21
0.0374787
0
LINE
8
BLACK
6
CONTINUOUS
10
0.501697
20
0.0374787
11
0.500874
21
0.0379541
0
LINE
8
BLACK
6
CONTINUOUS
10
0.500874
20
0.0379541
11
0.498061
21
0.0407663
0
LINE
8
BLACK
6
CONTINUOUS
10
0.498061
20
0.0407663
11
0.497586
21
0.0415897
0
LINE
8
BLACK
6
CONTINUOUS
10
0.497586
20
0.0415897
11
0.496955
21
0.0423011
0
LINE
8
BLACK
6
CONTINUOUS
10
0.496955
20
0.0423011
11
0.494143
21
0.0479254
0
LINE
8
BLACK
6
CONTINUOUS
10
0.494143
20
0.0479254
11
0.493871
21
0.0492552
0
LINE
8
BLACK
6
CONTINUOUS
10
0.493871
20
0.0492552
11
0.49352
21
0.0505664
0
LINE
8
BLACK
6
CONTINUOUS
10
0.49352
20
0.0505664
11
0.49352
21
0.0674393
0
LINE
8
BLACK
6
CONTINUOUS
10
0.49352
20
0.0674393
11
0.493871
21
0.0687505
0
LINE
8
BLACK
6
CONTINUOUS
10
0.493871
20
0.0687505
11
0.494143
21
0.0700803
0
LINE
8
BLACK
6
CONTINUOUS
10
0.494143
20
0.0700803
11
0.496955
21
0.0757046
0
LINE
8
BLACK
6
CONTINUOUS
10
0.496955
20
0.0757046
11
0.497586
21
0.076416
0
LINE
8
BLACK
6
CONTINUOUS
10
0.497586
20
0.076416
11
0.498062
21
0.0772394
0
LINE
8
BLACK
6
CONTINUOUS
10
0.498062
20
0.0772394
11
0.500874
21
0.0800516
0
LINE
8
BLACK
6
CONTINUOUS
10
0.500874
20
0.0800516
11
0.501697
21
0.080527
0
LINE
8
BLACK
6
CONTINUOUS
10
0.501697
20
0.080527
11
0.502408
21
0.0811578
0
LINE
8
BLACK
6
CONTINUOUS
10
0.502408
20
0.0811578
11
0.508033
21
0.0839699
0
LINE
8
BLACK
6
CONTINUOUS
10
0.508033
20
0.0839699
11
0.509363
21
0.0842421
0
LINE
8
BLACK
6
CONTINUOUS
10
0.509363
20
0.0842421
11
0.510674
21
0.0845934
0
LINE
8
BLACK
6
CONTINUOUS
10
0.510674
20
0.0845934
11
0.521922
21
0.0845934
0
LINE
8
BLACK
6
CONTINUOUS
10
0.521922
20
0.0845934
11
0.523233
21
0.0842421
0
LINE
8
BLACK
6
CONTINUOUS
10
0.578579
20
0.0844827
11
0.579003
21
0.0845337
0
LINE
8
BLACK
6
CONTINUOUS
10
0.579003
20
0.0845337
11
0.580035
21
0.0840925
0
LINE
8
BLACK
6
CONTINUOUS
10
0.580035
20
0.0840925
11
0.581118
21
0.0838022
0
LINE
8
BLACK
6
CONTINUOUS
10
0.581118
20
0.0838022
11
0.581421
21
0.0834997
0
LINE
8
BLACK
6
CONTINUOUS
10
0.581421
20
0.0834997
11
0.581814
21
0.0833315
0
LINE
8
BLACK
6
CONTINUOUS
10
0.581814
20
0.0833315
11
0.582486
21
0.0824339
0
LINE
8
BLACK
6
CONTINUOUS
10
0.582486
20
0.0824339
11
0.58328
21
0.0816406
0
LINE
8
BLACK
6
CONTINUOUS
10
0.58328
20
0.0816406
11
0.58339
21
0.0812274
0
LINE
8
BLACK
6
CONTINUOUS
10
0.58339
20
0.0812274
11
0.583647
21
0.0808851
0
LINE
8
BLACK
6
CONTINUOUS
10
0.583647
20
0.0808851
11
0.583781
21
0.0797714
0
LINE
8
BLACK
6
CONTINUOUS
10
0.583781
20
0.0797714
11
0.584071
21
0.0786879
0
LINE
8
BLACK
6
CONTINUOUS
10
0.584071
20
0.0786879
11
0.58396
21
0.0782747
0
LINE
8
BLACK
6
CONTINUOUS
10
0.58396
20
0.0782747
11
0.584011
21
0.0778499
0
LINE
8
BLACK
6
CONTINUOUS
10
0.584011
20
0.0778499
11
0.58357
21
0.0768185
0
LINE
8
BLACK
6
CONTINUOUS
10
0.58357
20
0.0768185
11
0.58328
21
0.0757351
0
LINE
8
BLACK
6
CONTINUOUS
10
0.58328
20
0.0757351
11
0.582977
21
0.0754326
0
LINE
8
BLACK
6
CONTINUOUS
10
0.582977
20
0.0754326
11
0.582809
21
0.0750393
0
LINE
8
BLACK
6
CONTINUOUS
10
0.582809
20
0.0750393
11
0.559382
21
0.0452233
0
LINE
8
BLACK
6
CONTINUOUS
10
0.559382
20
0.0452233
11
0.578165
21
0.0452233
0
LINE
8
BLACK
6
CONTINUOUS
10
0.578165
20
0.0452233
11
0.581118
21
0.0444321
0
LINE
8
BLACK
6
CONTINUOUS
10
0.581118
20
0.0444321
11
0.58328
21
0.0422706
0
LINE
8
BLACK
6
CONTINUOUS
10
0.58328
20
0.0422706
11
0.584071
21
0.0393178
0
LINE
8
BLACK
6
CONTINUOUS
10
0.584071
20
0.0393178
11
0.58328
21
0.036365
0
LINE
8
BLACK
6
CONTINUOUS
10
0.58328
20
0.036365
11
0.581118
21
0.0342035
0
LINE
8
BLACK
6
CONTINUOUS
10
0.581118
20
0.0342035
11
0.578165
21
0.0334123
0
LINE
8
BLACK
6
CONTINUOUS
10
0.578165
20
0.0334123
11
0.547232
21
0.0334123
0
LINE
8
BLACK
6
CONTINUOUS
10
0.547232
20
0.0334123
11
0.546819
21
0.033523
0
LINE
8
BLACK
6
CONTINUOUS
10
0.546819
20
0.033523
11
0.546394
21
0.033472
0
LINE
8
BLACK
6
CONTINUOUS
10
0.546394
20
0.033472
11
0.545362
21
0.0339132
0
LINE
8
BLACK
6
CONTINUOUS
10
0.545362
20
0.0339132
11
0.544279
21
0.0342035
0
LINE
8
BLACK
6
CONTINUOUS
10
0.544279
20
0.0342035
11
0.543976
21
0.034506
0
LINE
8
BLACK
6
CONTINUOUS
10
0.543976
20
0.034506
11
0.543583
21
0.0346742
0
LINE
8
BLACK
6
CONTINUOUS
10
0.543583
20
0.0346742
11
0.542911
21
0.0355719
0
LINE
8
BLACK
6
CONTINUOUS
10
0.542911
20
0.0355719
11
0.542117
21
0.036365
0
LINE
8
BLACK
6
CONTINUOUS
10
0.542117
20
0.036365
11
0.542007
21
0.0367783
0
LINE
8
BLACK
6
CONTINUOUS
10
0.542007
20
0.0367783
11
0.54175
21
0.0371206
0
LINE
8
BLACK
6
CONTINUOUS
10
0.54175
20
0.0371206
11
0.541616
21
0.0382343
0
LINE
8
BLACK
6
CONTINUOUS
10
0.541616
20
0.0382343
11
0.541326
21
0.0393178
0
LINE
8
BLACK
6
CONTINUOUS
10
0.541326
20
0.0393178
11
0.541437
21
0.039731
0
LINE
8
BLACK
6
CONTINUOUS
10
0.541437
20
0.039731
11
0.541386
21
0.0401557
0
LINE
8
BLACK
6
CONTINUOUS
10
0.541386
20
0.0401557
11
0.541827
21
0.0411872
0
LINE
8
BLACK
6
CONTINUOUS
10
0.541827
20
0.0411872
11
0.542117
21
0.0422706
0
LINE
8
BLACK
6
CONTINUOUS
10
0.542117
20
0.0422706
11
0.54242
21
0.0425731
0
LINE
8
BLACK
6
CONTINUOUS
10
0.54242
20
0.0425731
11
0.542588
21
0.0429663
0
LINE
8
BLACK
6
CONTINUOUS
10
0.542588
20
0.0429663
11
0.566015
21
0.0727824
0
LINE
8
BLACK
6
CONTINUOUS
10
0.566015
20
0.0727824
11
0.547232
21
0.0727824
0
LINE
8
BLACK
6
CONTINUOUS
10
0.547232
20
0.0727824
11
0.544279
21
0.0735735
0
LINE
8
BLACK
6
CONTINUOUS
10
0.544279
20
0.0735735
11
0.542117
21
0.0757351
0
LINE
8
BLACK
6
CONTINUOUS
10
0.542117
20
0.0757351
11
0.541326
21
0.0786879
0
LINE
8
BLACK
6
CONTINUOUS
10
0.541326
20
0.0786879
11
0.542117
21
0.0816406
0
LINE
8
BLACK
6
CONTINUOUS
10
0.542117
20
0.0816406
11
0.544279
21
0.0838022
0
LINE
8
BLACK
6
CONTINUOUS
10
0.544279
20
0.0838022
11
0.547232
21
0.0845934
0
LINE
8
BLACK
6
CONTINUOUS
10
0.547232
20
0.0845934
11
0.578165
21
0.0845934
0
LINE
8
BLACK
6
CONTINUOUS
10
0.578165
20
0.0845934
11
0.578579
21
0.0844827
0
CIRCLE
8
BLACK
10
0
20
0
40
0.00688976
0
CIRCLE
8
BLACK
10
1.6
20
0
40
0.00688976
0
CIRCLE
8
BLACK
10
0
20
-0.8
40
0.00688976
0
CIRCLE
8
BLACK
10
1.6
20
-0.8
40
0.00688976
0
CIRCLE
8
BLACK
10
-0.0318898
20
-0.234252
40
0.00688976
0
CIRCLE
8
BLACK
10
-0.0318898
20
-0.334252
40
0.00688976
  0
ENDSEC
  0
EOF
