  0
SECTION
  2
HEADER
  9
$ANGBASE
  50
0.0
  9
$ANGDIR
  70
1
  9
$MEASUREMENT
  70
0
  0
ENDSEC
  0
SECTION
  2
TABLES
  0
TABLE
  2
LTYPE
  70
4
  0
LTYPE
  5
40F
  2
CONTINUOUS
  70
0
  3
Solid line
  72
65
  73
0
  40
0.0
  0
LTYPE
  5
410
  2
DASHDOT
 70
0
  3
Dash Dot ____ _ ____ _
 72
65
 73
4
 40
2.0
 49
1.25
 49
-0.25
 49
0.25
 49
-0.25
  0
LTYPE
  5
411
  2
DASHED
 70
0
  3
Dashed __ __ __ __ __
 72
65
 73
2
 40
0.75
 49
0.5
 49
-0.25
  0
LTYPE
  5
43B
  2
DOTTED
 70
0
  3
Dotted .  .  .  .
 72
65
 73
2
 40
0.2
 49
0.0
 49
-0.2
  0
ENDTAB
  0
TABLE
  2
STYLE
  70
4
  0
STYLE
  2
KICAD
  70
0
  40
0
  41
1
  42
1
  50
0
  71
0
  3
isocp.shx
  0
STYLE
  2
KICADB
  70
0
  40
0
  41
1
  42
1
  50
0
  71
0
  3
isocp.shx
  0
STYLE
  2
KICADI
  70
0
  40
0
  41
1
  42
1
  50
15
  71
0
  3
isocp.shx
  0
STYLE
  2
KICADBI
  70
0
  40
0
  41
1
  42
1
  50
15
  71
0
  3
isocp.shx
  0
ENDTAB
  0
TABLE
  2
LAYER
  70
1
  0
LAYER
  2
BLACK
  70
0
  62
7
  6
CONTINUOUS
  0
ENDTAB
  0
ENDSEC
  0
SECTION
  2
ENTITIES
0
LINE
8
BLACK
6
CONTINUOUS
10
0.253927
20
-0.486091
11
0.254056
21
-0.486068
0
LINE
8
BLACK
6
CONTINUOUS
10
0.254056
20
-0.486068
11
0.25417
21
-0.486134
0
LINE
8
BLACK
6
CONTINUOUS
10
0.25417
20
-0.486134
11
0.254553
21
-0.486202
0
LINE
8
BLACK
6
CONTINUOUS
10
0.254553
20
-0.486202
11
0.255141
21
-0.486695
0
LINE
8
BLACK
6
CONTINUOUS
10
0.255141
20
-0.486695
11
0.255805
21
-0.487078
0
LINE
8
BLACK
6
CONTINUOUS
10
0.255805
20
-0.487078
11
0.255896
21
-0.487329
0
LINE
8
BLACK
6
CONTINUOUS
10
0.255896
20
-0.487329
11
0.2561
21
-0.4875
0
LINE
8
BLACK
6
CONTINUOUS
10
0.2561
20
-0.4875
11
0.256234
21
-0.488256
0
LINE
8
BLACK
6
CONTINUOUS
10
0.256234
20
-0.488256
11
0.256496
21
-0.488976
0
LINE
8
BLACK
6
CONTINUOUS
10
0.256496
20
-0.488976
11
0.256496
21
-0.654331
0
LINE
8
BLACK
6
CONTINUOUS
10
0.256496
20
-0.654331
11
0.256428
21
-0.654714
0
LINE
8
BLACK
6
CONTINUOUS
10
0.256428
20
-0.654714
11
0.256451
21
-0.654843
0
LINE
8
BLACK
6
CONTINUOUS
10
0.256451
20
-0.654843
11
0.256386
21
-0.654957
0
LINE
8
BLACK
6
CONTINUOUS
10
0.256386
20
-0.654957
11
0.256318
21
-0.655341
0
LINE
8
BLACK
6
CONTINUOUS
10
0.256318
20
-0.655341
11
0.255825
21
-0.655928
0
LINE
8
BLACK
6
CONTINUOUS
10
0.255825
20
-0.655928
11
0.255441
21
-0.656593
0
LINE
8
BLACK
6
CONTINUOUS
10
0.255441
20
-0.656593
11
0.255191
21
-0.656684
0
LINE
8
BLACK
6
CONTINUOUS
10
0.255191
20
-0.656684
11
0.25502
21
-0.656888
0
LINE
8
BLACK
6
CONTINUOUS
10
0.25502
20
-0.656888
11
0.254264
21
-0.657021
0
LINE
8
BLACK
6
CONTINUOUS
10
0.254264
20
-0.657021
11
0.253543
21
-0.657283
0
LINE
8
BLACK
6
CONTINUOUS
10
0.253543
20
-0.657283
11
0.159055
21
-0.657283
0
LINE
8
BLACK
6
CONTINUOUS
10
0.159055
20
-0.657283
11
0.158672
21
-0.657216
0
LINE
8
BLACK
6
CONTINUOUS
10
0.158672
20
-0.657216
11
0.158542
21
-0.657239
0
LINE
8
BLACK
6
CONTINUOUS
10
0.158542
20
-0.657239
11
0.158429
21
-0.657173
0
LINE
8
BLACK
6
CONTINUOUS
10
0.158429
20
-0.657173
11
0.158045
21
-0.657105
0
LINE
8
BLACK
6
CONTINUOUS
10
0.158045
20
-0.657105
11
0.157458
21
-0.656612
0
LINE
8
BLACK
6
CONTINUOUS
10
0.157458
20
-0.656612
11
0.156793
21
-0.656229
0
LINE
8
BLACK
6
CONTINUOUS
10
0.156793
20
-0.656229
11
0.156702
21
-0.655978
0
LINE
8
BLACK
6
CONTINUOUS
10
0.156702
20
-0.655978
11
0.156498
21
-0.655807
0
LINE
8
BLACK
6
CONTINUOUS
10
0.156498
20
-0.655807
11
0.156365
21
-0.655052
0
LINE
8
BLACK
6
CONTINUOUS
10
0.156365
20
-0.655052
11
0.156102
21
-0.654331
0
LINE
8
BLACK
6
CONTINUOUS
10
0.156102
20
-0.654331
11
0.156102
21
-0.488976
0
LINE
8
BLACK
6
CONTINUOUS
10
0.156102
20
-0.488976
11
0.15617
21
-0.488593
0
LINE
8
BLACK
6
CONTINUOUS
10
0.15617
20
-0.488593
11
0.156147
21
-0.488464
0
LINE
8
BLACK
6
CONTINUOUS
10
0.156147
20
-0.488464
11
0.156213
21
-0.48835
0
LINE
8
BLACK
6
CONTINUOUS
10
0.156213
20
-0.48835
11
0.15628
21
-0.487966
0
LINE
8
BLACK
6
CONTINUOUS
10
0.15628
20
-0.487966
11
0.156774
21
-0.487379
0
LINE
8
BLACK
6
CONTINUOUS
10
0.156774
20
-0.487379
11
0.157157
21
-0.486714
0
LINE
8
BLACK
6
CONTINUOUS
10
0.157157
20
-0.486714
11
0.157407
21
-0.486623
0
LINE
8
BLACK
6
CONTINUOUS
10
0.157407
20
-0.486623
11
0.157579
21
-0.486419
0
LINE
8
BLACK
6
CONTINUOUS
10
0.157579
20
-0.486419
11
0.158334
21
-0.486286
0
LINE
8
BLACK
6
CONTINUOUS
10
0.158334
20
-0.486286
11
0.159055
21
-0.486024
0
LINE
8
BLACK
6
CONTINUOUS
10
0.159055
20
-0.486024
11
0.253543
21
-0.486024
0
LINE
8
BLACK
6
CONTINUOUS
10
0.253543
20
-0.486024
11
0.253927
21
-0.486091
0
LINE
8
BLACK
6
CONTINUOUS
10
0.162008
20
-0.491929
11
0.162008
21
-0.651378
0
LINE
8
BLACK
6
CONTINUOUS
10
0.162008
20
-0.651378
11
0.250591
21
-0.651378
0
LINE
8
BLACK
6
CONTINUOUS
10
0.250591
20
-0.651378
11
0.250591
21
-0.491929
0
LINE
8
BLACK
6
CONTINUOUS
10
0.250591
20
-0.491929
11
0.162008
21
-0.491929
0
LINE
8
BLACK
6
CONTINUOUS
10
0.067278
20
-0.548335
11
0.126333
21
-0.56802
0
LINE
8
BLACK
6
CONTINUOUS
10
0.126333
20
-0.56802
11
0.127323
21
-0.568673
0
LINE
8
BLACK
6
CONTINUOUS
10
0.127323
20
-0.568673
11
0.128384
21
-0.569204
0
LINE
8
BLACK
6
CONTINUOUS
10
0.128384
20
-0.569204
11
0.128583
21
-0.569505
0
LINE
8
BLACK
6
CONTINUOUS
10
0.128583
20
-0.569505
11
0.128884
21
-0.569704
0
LINE
8
BLACK
6
CONTINUOUS
10
0.128884
20
-0.569704
11
0.129415
21
-0.570765
0
LINE
8
BLACK
6
CONTINUOUS
10
0.129415
20
-0.570765
11
0.130068
21
-0.571755
0
LINE
8
BLACK
6
CONTINUOUS
10
0.130068
20
-0.571755
11
0.13009
21
-0.572115
0
LINE
8
BLACK
6
CONTINUOUS
10
0.13009
20
-0.572115
11
0.130251
21
-0.572438
0
LINE
8
BLACK
6
CONTINUOUS
10
0.130251
20
-0.572438
11
0.13018
21
-0.573622
0
LINE
8
BLACK
6
CONTINUOUS
10
0.13018
20
-0.573622
11
0.130251
21
-0.574806
0
LINE
8
BLACK
6
CONTINUOUS
10
0.130251
20
-0.574806
11
0.13009
21
-0.575129
0
LINE
8
BLACK
6
CONTINUOUS
10
0.13009
20
-0.575129
11
0.130068
21
-0.57549
0
LINE
8
BLACK
6
CONTINUOUS
10
0.130068
20
-0.57549
11
0.129415
21
-0.576479
0
LINE
8
BLACK
6
CONTINUOUS
10
0.129415
20
-0.576479
11
0.128884
21
-0.57754
0
LINE
8
BLACK
6
CONTINUOUS
10
0.128884
20
-0.57754
11
0.128583
21
-0.577739
0
LINE
8
BLACK
6
CONTINUOUS
10
0.128583
20
-0.577739
11
0.128384
21
-0.578041
0
LINE
8
BLACK
6
CONTINUOUS
10
0.128384
20
-0.578041
11
0.127323
21
-0.578571
0
LINE
8
BLACK
6
CONTINUOUS
10
0.127323
20
-0.578571
11
0.126333
21
-0.579224
0
LINE
8
BLACK
6
CONTINUOUS
10
0.126333
20
-0.579224
11
0.067278
21
-0.59891
0
LINE
8
BLACK
6
CONTINUOUS
10
0.067278
20
-0.59891
11
0.0642266
21
-0.599093
0
LINE
8
BLACK
6
CONTINUOUS
10
0.0642266
20
-0.599093
11
0.0614924
21
-0.597726
0
LINE
8
BLACK
6
CONTINUOUS
10
0.0614924
20
-0.597726
11
0.0598081
21
-0.595175
0
LINE
8
BLACK
6
CONTINUOUS
10
0.0598081
20
-0.595175
11
0.0596249
21
-0.592123
0
LINE
8
BLACK
6
CONTINUOUS
10
0.0596249
20
-0.592123
11
0.060992
21
-0.589389
0
LINE
8
BLACK
6
CONTINUOUS
10
0.060992
20
-0.589389
11
0.0635431
21
-0.587705
0
LINE
8
BLACK
6
CONTINUOUS
10
0.0635431
20
-0.587705
11
0.076378
21
-0.583426
0
LINE
8
BLACK
6
CONTINUOUS
10
0.076378
20
-0.583426
11
0.076378
21
-0.563818
0
LINE
8
BLACK
6
CONTINUOUS
10
0.076378
20
-0.563818
11
0.0635431
21
-0.559539
0
LINE
8
BLACK
6
CONTINUOUS
10
0.0635431
20
-0.559539
11
0.060992
21
-0.557855
0
LINE
8
BLACK
6
CONTINUOUS
10
0.060992
20
-0.557855
11
0.0596249
21
-0.555121
0
LINE
8
BLACK
6
CONTINUOUS
10
0.0596249
20
-0.555121
11
0.0598081
21
-0.55207
0
LINE
8
BLACK
6
CONTINUOUS
10
0.0598081
20
-0.55207
11
0.0614924
21
-0.549519
0
LINE
8
BLACK
6
CONTINUOUS
10
0.0614924
20
-0.549519
11
0.0642266
21
-0.548151
0
LINE
8
BLACK
6
CONTINUOUS
10
0.0642266
20
-0.548151
11
0.067278
21
-0.548335
0
LINE
8
BLACK
6
CONTINUOUS
10
0.088189
20
-0.579489
11
0.105791
21
-0.573622
0
LINE
8
BLACK
6
CONTINUOUS
10
0.105791
20
-0.573622
11
0.088189
21
-0.567755
0
LINE
8
BLACK
6
CONTINUOUS
10
0.088189
20
-0.567755
11
0.088189
21
-0.579489
0
LINE
8
BLACK
6
CONTINUOUS
10
-0.0994834
20
-0.364648
11
-0.0991997
21
-0.364831
0
LINE
8
BLACK
6
CONTINUOUS
10
-0.0991997
20
-0.364831
11
-0.0988652
21
-0.364877
0
LINE
8
BLACK
6
CONTINUOUS
10
-0.0988652
20
-0.364877
11
-0.0980532
21
-0.365571
0
LINE
8
BLACK
6
CONTINUOUS
10
-0.0980532
20
-0.365571
11
-0.0971558
21
-0.366151
0
LINE
8
BLACK
6
CONTINUOUS
10
-0.0971558
20
-0.366151
11
-0.097016
21
-0.366458
0
LINE
8
BLACK
6
CONTINUOUS
10
-0.097016
20
-0.366458
11
-0.0967593
21
-0.366678
0
LINE
8
BLACK
6
CONTINUOUS
10
-0.0967593
20
-0.366678
11
-0.0964511
21
-0.367701
0
LINE
8
BLACK
6
CONTINUOUS
10
-0.0964511
20
-0.367701
11
-0.096009
21
-0.368673
0
LINE
8
BLACK
6
CONTINUOUS
10
-0.096009
20
-0.368673
11
-0.0960574
21
-0.369007
0
LINE
8
BLACK
6
CONTINUOUS
10
-0.0960574
20
-0.369007
11
-0.09596
21
-0.36933
0
LINE
8
BLACK
6
CONTINUOUS
10
-0.09596
20
-0.36933
11
-0.0962532
21
-0.370358
0
LINE
8
BLACK
6
CONTINUOUS
10
-0.0962532
20
-0.370358
11
-0.0964065
21
-0.371415
0
LINE
8
BLACK
6
CONTINUOUS
10
-0.0964065
20
-0.371415
11
-0.0966279
21
-0.37167
0
LINE
8
BLACK
6
CONTINUOUS
10
-0.0966279
20
-0.37167
11
-0.0967206
21
-0.371995
0
LINE
8
BLACK
6
CONTINUOUS
10
-0.0967206
20
-0.371995
11
-0.0975223
21
-0.372701
0
LINE
8
BLACK
6
CONTINUOUS
10
-0.0975223
20
-0.372701
11
-0.0982225
21
-0.373508
0
LINE
8
BLACK
6
CONTINUOUS
10
-0.0982225
20
-0.373508
11
-0.0985465
21
-0.373603
0
LINE
8
BLACK
6
CONTINUOUS
10
-0.0985465
20
-0.373603
11
-0.0988
21
-0.373826
0
LINE
8
BLACK
6
CONTINUOUS
10
-0.0988
20
-0.373826
11
-0.117365
21
-0.38249
0
LINE
8
BLACK
6
CONTINUOUS
10
-0.117365
20
-0.38249
11
-0.0988
21
-0.391153
0
LINE
8
BLACK
6
CONTINUOUS
10
-0.0988
20
-0.391153
11
-0.0976191
21
-0.391928
0
LINE
8
BLACK
6
CONTINUOUS
10
-0.0976191
20
-0.391928
11
-0.0974395
21
-0.392214
0
LINE
8
BLACK
6
CONTINUOUS
10
-0.0974395
20
-0.392214
11
-0.0971558
21
-0.392397
0
LINE
8
BLACK
6
CONTINUOUS
10
-0.0971558
20
-0.392397
11
-0.0967136
21
-0.39337
0
LINE
8
BLACK
6
CONTINUOUS
10
-0.0967136
20
-0.39337
11
-0.0961454
21
-0.394274
0
LINE
8
BLACK
6
CONTINUOUS
10
-0.0961454
20
-0.394274
11
-0.0961488
21
-0.394612
0
LINE
8
BLACK
6
CONTINUOUS
10
-0.0961488
20
-0.394612
11
-0.096009
21
-0.39492
0
LINE
8
BLACK
6
CONTINUOUS
10
-0.096009
20
-0.39492
11
-0.0961622
21
-0.395977
0
LINE
8
BLACK
6
CONTINUOUS
10
-0.0961622
20
-0.395977
11
-0.0961728
21
-0.397045
0
LINE
8
BLACK
6
CONTINUOUS
10
-0.0961728
20
-0.397045
11
-0.0963581
21
-0.397327
0
LINE
8
BLACK
6
CONTINUOUS
10
-0.0963581
20
-0.397327
11
-0.0964065
21
-0.397662
0
LINE
8
BLACK
6
CONTINUOUS
10
-0.0964065
20
-0.397662
11
-0.0971066
21
-0.398468
0
LINE
8
BLACK
6
CONTINUOUS
10
-0.0971066
20
-0.398468
11
-0.0976926
21
-0.399362
0
LINE
8
BLACK
6
CONTINUOUS
10
-0.0976926
20
-0.399362
11
-0.0980011
21
-0.399499
0
LINE
8
BLACK
6
CONTINUOUS
10
-0.0980011
20
-0.399499
11
-0.0982225
21
-0.399754
0
LINE
8
BLACK
6
CONTINUOUS
10
-0.0982225
20
-0.399754
11
-0.0992475
21
-0.400055
0
LINE
8
BLACK
6
CONTINUOUS
10
-0.0992475
20
-0.400055
11
-0.100223
21
-0.40049
0
LINE
8
BLACK
6
CONTINUOUS
10
-0.100223
20
-0.40049
11
-0.100557
21
-0.400439
0
LINE
8
BLACK
6
CONTINUOUS
10
-0.100557
20
-0.400439
11
-0.100881
21
-0.400534
0
LINE
8
BLACK
6
CONTINUOUS
10
-0.100881
20
-0.400534
11
-0.140251
21
-0.400534
0
LINE
8
BLACK
6
CONTINUOUS
10
-0.140251
20
-0.400534
11
-0.141649
21
-0.400332
0
LINE
8
BLACK
6
CONTINUOUS
10
-0.141649
20
-0.400332
11
-0.143977
21
-0.398829
0
LINE
8
BLACK
6
CONTINUOUS
10
-0.143977
20
-0.398829
11
-0.145123
21
-0.396306
0
LINE
8
BLACK
6
CONTINUOUS
10
-0.145123
20
-0.396306
11
-0.144726
21
-0.393564
0
LINE
8
BLACK
6
CONTINUOUS
10
-0.144726
20
-0.393564
11
-0.14291
21
-0.391472
0
LINE
8
BLACK
6
CONTINUOUS
10
-0.14291
20
-0.391472
11
-0.140251
21
-0.390692
0
LINE
8
BLACK
6
CONTINUOUS
10
-0.140251
20
-0.390692
11
-0.123064
21
-0.390692
0
LINE
8
BLACK
6
CONTINUOUS
10
-0.123064
20
-0.390692
11
-0.131084
21
-0.386949
0
LINE
8
BLACK
6
CONTINUOUS
10
-0.131084
20
-0.386949
11
-0.132265
21
-0.386175
0
LINE
8
BLACK
6
CONTINUOUS
10
-0.132265
20
-0.386175
11
-0.132619
21
-0.385611
0
LINE
8
BLACK
6
CONTINUOUS
10
-0.132619
20
-0.385611
11
-0.133124
21
-0.385178
0
LINE
8
BLACK
6
CONTINUOUS
10
-0.133124
20
-0.385178
11
-0.13334
21
-0.384462
0
LINE
8
BLACK
6
CONTINUOUS
10
-0.13334
20
-0.384462
11
-0.133738
21
-0.383828
0
LINE
8
BLACK
6
CONTINUOUS
10
-0.133738
20
-0.383828
11
-0.133732
21
-0.383163
0
LINE
8
BLACK
6
CONTINUOUS
10
-0.133732
20
-0.383163
11
-0.133924
21
-0.382526
0
LINE
8
BLACK
6
CONTINUOUS
10
-0.133924
20
-0.382526
11
-0.133718
21
-0.381806
0
LINE
8
BLACK
6
CONTINUOUS
10
-0.133718
20
-0.381806
11
-0.133711
21
-0.381058
0
LINE
8
BLACK
6
CONTINUOUS
10
-0.133711
20
-0.381058
11
-0.133346
21
-0.380501
0
LINE
8
BLACK
6
CONTINUOUS
10
-0.133346
20
-0.380501
11
-0.133163
21
-0.379861
0
LINE
8
BLACK
6
CONTINUOUS
10
-0.133163
20
-0.379861
11
-0.132602
21
-0.379367
0
LINE
8
BLACK
6
CONTINUOUS
10
-0.132602
20
-0.379367
11
-0.132191
21
-0.378741
0
LINE
8
BLACK
6
CONTINUOUS
10
-0.132191
20
-0.378741
11
-0.131583
21
-0.37847
0
LINE
8
BLACK
6
CONTINUOUS
10
-0.131583
20
-0.37847
11
-0.131084
21
-0.37803
0
LINE
8
BLACK
6
CONTINUOUS
10
-0.131084
20
-0.37803
11
-0.123064
21
-0.374288
0
LINE
8
BLACK
6
CONTINUOUS
10
-0.123064
20
-0.374288
11
-0.140251
21
-0.374288
0
LINE
8
BLACK
6
CONTINUOUS
10
-0.140251
20
-0.374288
11
-0.141649
21
-0.374085
0
LINE
8
BLACK
6
CONTINUOUS
10
-0.141649
20
-0.374085
11
-0.143977
21
-0.372582
0
LINE
8
BLACK
6
CONTINUOUS
10
-0.143977
20
-0.372582
11
-0.145123
21
-0.37006
0
LINE
8
BLACK
6
CONTINUOUS
10
-0.145123
20
-0.37006
11
-0.144726
21
-0.367318
0
LINE
8
BLACK
6
CONTINUOUS
10
-0.144726
20
-0.367318
11
-0.14291
21
-0.365225
0
LINE
8
BLACK
6
CONTINUOUS
10
-0.14291
20
-0.365225
11
-0.140251
21
-0.364445
0
LINE
8
BLACK
6
CONTINUOUS
10
-0.140251
20
-0.364445
11
-0.100881
21
-0.364445
0
LINE
8
BLACK
6
CONTINUOUS
10
-0.100881
20
-0.364445
11
-0.0994834
21
-0.364648
0
LINE
8
BLACK
6
CONTINUOUS
10
0.0184938
20
-0.181367
11
0.018623
21
-0.181344
0
LINE
8
BLACK
6
CONTINUOUS
10
0.018623
20
-0.181344
11
0.0187366
21
-0.18141
0
LINE
8
BLACK
6
CONTINUOUS
10
0.0187366
20
-0.18141
11
0.0191202
21
-0.181477
0
LINE
8
BLACK
6
CONTINUOUS
10
0.0191202
20
-0.181477
11
0.0197078
21
-0.18197
0
LINE
8
BLACK
6
CONTINUOUS
10
0.0197078
20
-0.18197
11
0.0203722
21
-0.182354
0
LINE
8
BLACK
6
CONTINUOUS
10
0.0203722
20
-0.182354
11
0.0204633
21
-0.182604
0
LINE
8
BLACK
6
CONTINUOUS
10
0.0204633
20
-0.182604
11
0.0206674
21
-0.182776
0
LINE
8
BLACK
6
CONTINUOUS
10
0.0206674
20
-0.182776
11
0.0208006
21
-0.183531
0
LINE
8
BLACK
6
CONTINUOUS
10
0.0208006
20
-0.183531
11
0.021063
21
-0.184252
0
LINE
8
BLACK
6
CONTINUOUS
10
0.021063
20
-0.184252
11
0.021063
21
-0.384252
0
LINE
8
BLACK
6
CONTINUOUS
10
0.021063
20
-0.384252
11
0.0209954
21
-0.384636
0
LINE
8
BLACK
6
CONTINUOUS
10
0.0209954
20
-0.384636
11
0.0210181
21
-0.384765
0
LINE
8
BLACK
6
CONTINUOUS
10
0.0210181
20
-0.384765
11
0.0209526
21
-0.384878
0
LINE
8
BLACK
6
CONTINUOUS
10
0.0209526
20
-0.384878
11
0.0208849
21
-0.385262
0
LINE
8
BLACK
6
CONTINUOUS
10
0.0208849
20
-0.385262
11
0.0203918
21
-0.38585
0
LINE
8
BLACK
6
CONTINUOUS
10
0.0203918
20
-0.38585
11
0.0200082
21
-0.386514
0
LINE
8
BLACK
6
CONTINUOUS
10
0.0200082
20
-0.386514
11
0.0197579
21
-0.386605
0
LINE
8
BLACK
6
CONTINUOUS
10
0.0197579
20
-0.386605
11
0.0195866
21
-0.386809
0
LINE
8
BLACK
6
CONTINUOUS
10
0.0195866
20
-0.386809
11
0.0188311
21
-0.386942
0
LINE
8
BLACK
6
CONTINUOUS
10
0.0188311
20
-0.386942
11
0.0181102
21
-0.387205
0
LINE
8
BLACK
6
CONTINUOUS
10
0.0181102
20
-0.387205
11
-0.0818898
21
-0.387205
0
LINE
8
BLACK
6
CONTINUOUS
10
-0.0818898
20
-0.387205
11
-0.0822733
21
-0.387137
0
LINE
8
BLACK
6
CONTINUOUS
10
-0.0822733
20
-0.387137
11
-0.0824025
21
-0.38716
0
LINE
8
BLACK
6
CONTINUOUS
10
-0.0824025
20
-0.38716
11
-0.0825161
21
-0.387094
0
LINE
8
BLACK
6
CONTINUOUS
10
-0.0825161
20
-0.387094
11
-0.0828997
21
-0.387027
0
LINE
8
BLACK
6
CONTINUOUS
10
-0.0828997
20
-0.387027
11
-0.0834874
21
-0.386534
0
LINE
8
BLACK
6
CONTINUOUS
10
-0.0834874
20
-0.386534
11
-0.0841517
21
-0.38615
0
LINE
8
BLACK
6
CONTINUOUS
10
-0.0841517
20
-0.38615
11
-0.0842428
21
-0.3859
0
LINE
8
BLACK
6
CONTINUOUS
10
-0.0842428
20
-0.3859
11
-0.0844469
21
-0.385728
0
LINE
8
BLACK
6
CONTINUOUS
10
-0.0844469
20
-0.385728
11
-0.0845802
21
-0.384973
0
LINE
8
BLACK
6
CONTINUOUS
10
-0.0845802
20
-0.384973
11
-0.0848425
21
-0.384252
0
LINE
8
BLACK
6
CONTINUOUS
10
-0.0848425
20
-0.384252
11
-0.0848425
21
-0.184252
0
LINE
8
BLACK
6
CONTINUOUS
10
-0.0848425
20
-0.184252
11
-0.0847749
21
-0.183868
0
LINE
8
BLACK
6
CONTINUOUS
10
-0.0847749
20
-0.183868
11
-0.0847977
21
-0.183739
0
LINE
8
BLACK
6
CONTINUOUS
10
-0.0847977
20
-0.183739
11
-0.0847321
21
-0.183626
0
LINE
8
BLACK
6
CONTINUOUS
10
-0.0847321
20
-0.183626
11
-0.0846644
21
-0.183242
0
LINE
8
BLACK
6
CONTINUOUS
10
-0.0846644
20
-0.183242
11
-0.0841713
21
-0.182654
0
LINE
8
BLACK
6
CONTINUOUS
10
-0.0841713
20
-0.182654
11
-0.0837878
21
-0.18199
0
LINE
8
BLACK
6
CONTINUOUS
10
-0.0837878
20
-0.18199
11
-0.0835374
21
-0.181899
0
LINE
8
BLACK
6
CONTINUOUS
10
-0.0835374
20
-0.181899
11
-0.0833661
21
-0.181695
0
LINE
8
BLACK
6
CONTINUOUS
10
-0.0833661
20
-0.181695
11
-0.0826106
21
-0.181562
0
LINE
8
BLACK
6
CONTINUOUS
10
-0.0826106
20
-0.181562
11
-0.0818898
21
-0.181299
0
LINE
8
BLACK
6
CONTINUOUS
10
-0.0818898
20
-0.181299
11
0.0181102
21
-0.181299
0
LINE
8
BLACK
6
CONTINUOUS
10
0.0181102
20
-0.181299
11
0.0184938
21
-0.181367
0
LINE
8
BLACK
6
CONTINUOUS
10
-0.078937
20
-0.187205
11
-0.078937
21
-0.381299
0
LINE
8
BLACK
6
CONTINUOUS
10
-0.078937
20
-0.381299
11
0.0151575
21
-0.381299
0
LINE
8
BLACK
6
CONTINUOUS
10
0.0151575
20
-0.381299
11
0.0151575
21
-0.187205
0
LINE
8
BLACK
6
CONTINUOUS
10
0.0151575
20
-0.187205
11
-0.078937
21
-0.187205
0
LINE
8
BLACK
6
CONTINUOUS
10
-0.00188976
20
-0.364252
11
-0.0618898
21
-0.364252
0
LINE
8
BLACK
6
CONTINUOUS
10
-0.0618898
20
-0.364252
11
-0.0618898
21
-0.304252
0
LINE
8
BLACK
6
CONTINUOUS
10
-0.0618898
20
-0.304252
11
-0.00188976
21
-0.304252
0
LINE
8
BLACK
6
CONTINUOUS
10
-0.00188976
20
-0.304252
11
-0.00188976
21
-0.364252
0
LINE
8
BLACK
6
CONTINUOUS
10
-0.00188976
20
-0.264252
11
-0.0618898
21
-0.264252
0
LINE
8
BLACK
6
CONTINUOUS
10
-0.0618898
20
-0.264252
11
-0.0618898
21
-0.204252
0
LINE
8
BLACK
6
CONTINUOUS
10
-0.0618898
20
-0.204252
11
-0.00188976
21
-0.204252
0
LINE
8
BLACK
6
CONTINUOUS
10
-0.00188976
20
-0.204252
11
-0.00188976
21
-0.264252
0
LINE
8
BLACK
6
CONTINUOUS
10
-0.102062
20
-0.343961
11
-0.101708
21
-0.343936
0
LINE
8
BLACK
6
CONTINUOUS
10
-0.101708
20
-0.343936
11
-0.100785
21
-0.34444
0
LINE
8
BLACK
6
CONTINUOUS
10
-0.100785
20
-0.34444
11
-0.0998011
21
-0.344808
0
LINE
8
BLACK
6
CONTINUOUS
10
-0.0998011
20
-0.344808
11
-0.0995882
21
-0.345094
0
LINE
8
BLACK
6
CONTINUOUS
10
-0.0995882
20
-0.345094
11
-0.0992761
21
-0.345264
0
LINE
8
BLACK
6
CONTINUOUS
10
-0.0992761
20
-0.345264
11
-0.0974013
21
-0.347139
0
LINE
8
BLACK
6
CONTINUOUS
10
-0.0974013
20
-0.347139
11
-0.0972489
21
-0.347343
0
LINE
8
BLACK
6
CONTINUOUS
10
-0.0972489
20
-0.347343
11
-0.0971558
21
-0.347403
0
LINE
8
BLACK
6
CONTINUOUS
10
-0.0971558
20
-0.347403
11
-0.0970807
21
-0.347568
0
LINE
8
BLACK
6
CONTINUOUS
10
-0.0970807
20
-0.347568
11
-0.0965563
21
-0.34827
0
LINE
8
BLACK
6
CONTINUOUS
10
-0.0965563
20
-0.34827
11
-0.0964814
21
-0.348618
0
LINE
8
BLACK
6
CONTINUOUS
10
-0.0964814
20
-0.348618
11
-0.0962685
21
-0.348903
0
LINE
8
BLACK
6
CONTINUOUS
10
-0.0962685
20
-0.348903
11
-0.0962307
21
-0.349438
0
LINE
8
BLACK
6
CONTINUOUS
10
-0.0962307
20
-0.349438
11
-0.096009
21
-0.349925
0
LINE
8
BLACK
6
CONTINUOUS
10
-0.096009
20
-0.349925
11
-0.0960858
21
-0.350455
0
LINE
8
BLACK
6
CONTINUOUS
10
-0.0960858
20
-0.350455
11
-0.0959731
21
-0.350979
0
LINE
8
BLACK
6
CONTINUOUS
10
-0.0959731
20
-0.350979
11
-0.096098
21
-0.351312
0
LINE
8
BLACK
6
CONTINUOUS
10
-0.096098
20
-0.351312
11
-0.0960729
21
-0.351667
0
LINE
8
BLACK
6
CONTINUOUS
10
-0.0960729
20
-0.351667
11
-0.0963296
21
-0.352137
0
LINE
8
BLACK
6
CONTINUOUS
10
-0.0963296
20
-0.352137
11
-0.0964065
21
-0.352667
0
LINE
8
BLACK
6
CONTINUOUS
10
-0.0964065
20
-0.352667
11
-0.0967576
21
-0.353072
0
LINE
8
BLACK
6
CONTINUOUS
10
-0.0967576
20
-0.353072
11
-0.0969457
21
-0.353573
0
LINE
8
BLACK
6
CONTINUOUS
10
-0.0969457
20
-0.353573
11
-0.0972307
21
-0.353786
0
LINE
8
BLACK
6
CONTINUOUS
10
-0.0972307
20
-0.353786
11
-0.0974013
21
-0.354099
0
LINE
8
BLACK
6
CONTINUOUS
10
-0.0974013
20
-0.354099
11
-0.0992761
21
-0.355973
0
LINE
8
BLACK
6
CONTINUOUS
10
-0.0992761
20
-0.355973
11
-0.100408
21
-0.356818
0
LINE
8
BLACK
6
CONTINUOUS
10
-0.100408
20
-0.356818
11
-0.100755
21
-0.356893
0
LINE
8
BLACK
6
CONTINUOUS
10
-0.100755
20
-0.356893
11
-0.10104
21
-0.357106
0
LINE
8
BLACK
6
CONTINUOUS
10
-0.10104
20
-0.357106
11
-0.102089
21
-0.35718
0
LINE
8
BLACK
6
CONTINUOUS
10
-0.102089
20
-0.35718
11
-0.103116
21
-0.357401
0
LINE
8
BLACK
6
CONTINUOUS
10
-0.103116
20
-0.357401
11
-0.103449
21
-0.357277
0
LINE
8
BLACK
6
CONTINUOUS
10
-0.103449
20
-0.357277
11
-0.103804
21
-0.357302
0
LINE
8
BLACK
6
CONTINUOUS
10
-0.103804
20
-0.357302
11
-0.104727
21
-0.356798
0
LINE
8
BLACK
6
CONTINUOUS
10
-0.104727
20
-0.356798
11
-0.105711
21
-0.356429
0
LINE
8
BLACK
6
CONTINUOUS
10
-0.105711
20
-0.356429
11
-0.105924
21
-0.356144
0
LINE
8
BLACK
6
CONTINUOUS
10
-0.105924
20
-0.356144
11
-0.106236
21
-0.355973
0
LINE
8
BLACK
6
CONTINUOUS
10
-0.106236
20
-0.355973
11
-0.108111
21
-0.354099
0
LINE
8
BLACK
6
CONTINUOUS
10
-0.108111
20
-0.354099
11
-0.108263
21
-0.353894
0
LINE
8
BLACK
6
CONTINUOUS
10
-0.108263
20
-0.353894
11
-0.108356
21
-0.353834
0
LINE
8
BLACK
6
CONTINUOUS
10
-0.108356
20
-0.353834
11
-0.108431
21
-0.353669
0
LINE
8
BLACK
6
CONTINUOUS
10
-0.108431
20
-0.353669
11
-0.108956
21
-0.352967
0
LINE
8
BLACK
6
CONTINUOUS
10
-0.108956
20
-0.352967
11
-0.10903
21
-0.352619
0
LINE
8
BLACK
6
CONTINUOUS
10
-0.10903
20
-0.352619
11
-0.109243
21
-0.352334
0
LINE
8
BLACK
6
CONTINUOUS
10
-0.109243
20
-0.352334
11
-0.109281
21
-0.3518
0
LINE
8
BLACK
6
CONTINUOUS
10
-0.109281
20
-0.3518
11
-0.109374
21
-0.351595
0
LINE
8
BLACK
6
CONTINUOUS
10
-0.109374
20
-0.351595
11
-0.10953
21
-0.352667
0
LINE
8
BLACK
6
CONTINUOUS
10
-0.10953
20
-0.352667
11
-0.111346
21
-0.35476
0
LINE
8
BLACK
6
CONTINUOUS
10
-0.111346
20
-0.35476
11
-0.114005
21
-0.35554
0
LINE
8
BLACK
6
CONTINUOUS
10
-0.114005
20
-0.35554
11
-0.140251
21
-0.35554
0
LINE
8
BLACK
6
CONTINUOUS
10
-0.140251
20
-0.35554
11
-0.141649
21
-0.355337
0
LINE
8
BLACK
6
CONTINUOUS
10
-0.141649
20
-0.355337
11
-0.143977
21
-0.353834
0
LINE
8
BLACK
6
CONTINUOUS
10
-0.143977
20
-0.353834
11
-0.145123
21
-0.351312
0
LINE
8
BLACK
6
CONTINUOUS
10
-0.145123
20
-0.351312
11
-0.144726
21
-0.34857
0
LINE
8
BLACK
6
CONTINUOUS
10
-0.144726
20
-0.34857
11
-0.14291
21
-0.346477
0
LINE
8
BLACK
6
CONTINUOUS
10
-0.14291
20
-0.346477
11
-0.140251
21
-0.345697
0
LINE
8
BLACK
6
CONTINUOUS
10
-0.140251
20
-0.345697
11
-0.114005
21
-0.345697
0
LINE
8
BLACK
6
CONTINUOUS
10
-0.114005
20
-0.345697
11
-0.112607
21
-0.3459
0
LINE
8
BLACK
6
CONTINUOUS
10
-0.112607
20
-0.3459
11
-0.110279
21
-0.347403
0
LINE
8
BLACK
6
CONTINUOUS
10
-0.110279
20
-0.347403
11
-0.10936
21
-0.349425
0
LINE
8
BLACK
6
CONTINUOUS
10
-0.10936
20
-0.349425
11
-0.109182
21
-0.3491
0
LINE
8
BLACK
6
CONTINUOUS
10
-0.109182
20
-0.3491
11
-0.109105
21
-0.34857
0
LINE
8
BLACK
6
CONTINUOUS
10
-0.109105
20
-0.34857
11
-0.108754
21
-0.348165
0
LINE
8
BLACK
6
CONTINUOUS
10
-0.108754
20
-0.348165
11
-0.108566
21
-0.347664
0
LINE
8
BLACK
6
CONTINUOUS
10
-0.108566
20
-0.347664
11
-0.108281
21
-0.347451
0
LINE
8
BLACK
6
CONTINUOUS
10
-0.108281
20
-0.347451
11
-0.108111
21
-0.347139
0
LINE
8
BLACK
6
CONTINUOUS
10
-0.108111
20
-0.347139
11
-0.106236
21
-0.345264
0
LINE
8
BLACK
6
CONTINUOUS
10
-0.106236
20
-0.345264
11
-0.105104
21
-0.344419
0
LINE
8
BLACK
6
CONTINUOUS
10
-0.105104
20
-0.344419
11
-0.104756
21
-0.344344
0
LINE
8
BLACK
6
CONTINUOUS
10
-0.104756
20
-0.344344
11
-0.104471
21
-0.344131
0
LINE
8
BLACK
6
CONTINUOUS
10
-0.104471
20
-0.344131
11
-0.103423
21
-0.344057
0
LINE
8
BLACK
6
CONTINUOUS
10
-0.103423
20
-0.344057
11
-0.102395
21
-0.343836
0
LINE
8
BLACK
6
CONTINUOUS
10
-0.102395
20
-0.343836
11
-0.102062
21
-0.343961
0
LINE
8
BLACK
6
CONTINUOUS
10
-0.0994834
20
-0.31028
11
-0.0971558
21
-0.311782
0
LINE
8
BLACK
6
CONTINUOUS
10
-0.0971558
20
-0.311782
11
-0.096009
21
-0.314305
0
LINE
8
BLACK
6
CONTINUOUS
10
-0.096009
20
-0.314305
11
-0.0964065
21
-0.317047
0
LINE
8
BLACK
6
CONTINUOUS
10
-0.0964065
20
-0.317047
11
-0.0982225
21
-0.319139
0
LINE
8
BLACK
6
CONTINUOUS
10
-0.0982225
20
-0.319139
11
-0.100881
21
-0.319919
0
LINE
8
BLACK
6
CONTINUOUS
10
-0.100881
20
-0.319919
11
-0.109083
21
-0.319919
0
LINE
8
BLACK
6
CONTINUOUS
10
-0.109083
20
-0.319919
11
-0.109083
21
-0.326247
0
LINE
8
BLACK
6
CONTINUOUS
10
-0.109083
20
-0.326247
11
-0.109286
21
-0.327644
0
LINE
8
BLACK
6
CONTINUOUS
10
-0.109286
20
-0.327644
11
-0.109525
21
-0.328014
0
LINE
8
BLACK
6
CONTINUOUS
10
-0.109525
20
-0.328014
11
-0.109603
21
-0.328448
0
LINE
8
BLACK
6
CONTINUOUS
10
-0.109603
20
-0.328448
11
-0.111478
21
-0.332197
0
LINE
8
BLACK
6
CONTINUOUS
10
-0.111478
20
-0.332197
11
-0.112284
21
-0.333357
0
LINE
8
BLACK
6
CONTINUOUS
10
-0.112284
20
-0.333357
11
-0.112358
21
-0.3334
0
LINE
8
BLACK
6
CONTINUOUS
10
-0.112358
20
-0.3334
11
-0.112399
21
-0.333476
0
LINE
8
BLACK
6
CONTINUOUS
10
-0.112399
20
-0.333476
11
-0.114274
21
-0.335351
0
LINE
8
BLACK
6
CONTINUOUS
10
-0.114274
20
-0.335351
11
-0.115406
21
-0.336196
0
LINE
8
BLACK
6
CONTINUOUS
10
-0.115406
20
-0.336196
11
-0.11549
21
-0.336214
0
LINE
8
BLACK
6
CONTINUOUS
10
-0.11549
20
-0.336214
11
-0.115553
21
-0.336273
0
LINE
8
BLACK
6
CONTINUOUS
10
-0.115553
20
-0.336273
11
-0.119303
21
-0.338147
0
LINE
8
BLACK
6
CONTINUOUS
10
-0.119303
20
-0.338147
11
-0.120644
21
-0.338591
0
LINE
8
BLACK
6
CONTINUOUS
10
-0.120644
20
-0.338591
11
-0.121081
21
-0.338543
0
LINE
8
BLACK
6
CONTINUOUS
10
-0.121081
20
-0.338543
11
-0.121504
21
-0.338667
0
LINE
8
BLACK
6
CONTINUOUS
10
-0.121504
20
-0.338667
11
-0.132752
21
-0.338667
0
LINE
8
BLACK
6
CONTINUOUS
10
-0.132752
20
-0.338667
11
-0.13415
21
-0.338464
0
LINE
8
BLACK
6
CONTINUOUS
10
-0.13415
20
-0.338464
11
-0.13452
21
-0.338226
0
LINE
8
BLACK
6
CONTINUOUS
10
-0.13452
20
-0.338226
11
-0.134953
21
-0.338147
0
LINE
8
BLACK
6
CONTINUOUS
10
-0.134953
20
-0.338147
11
-0.138703
21
-0.336273
0
LINE
8
BLACK
6
CONTINUOUS
10
-0.138703
20
-0.336273
11
-0.139862
21
-0.335466
0
LINE
8
BLACK
6
CONTINUOUS
10
-0.139862
20
-0.335466
11
-0.139906
21
-0.335392
0
LINE
8
BLACK
6
CONTINUOUS
10
-0.139906
20
-0.335392
11
-0.139982
21
-0.335351
0
LINE
8
BLACK
6
CONTINUOUS
10
-0.139982
20
-0.335351
11
-0.141856
21
-0.333476
0
LINE
8
BLACK
6
CONTINUOUS
10
-0.141856
20
-0.333476
11
-0.142701
21
-0.332344
0
LINE
8
BLACK
6
CONTINUOUS
10
-0.142701
20
-0.332344
11
-0.142719
21
-0.33226
0
LINE
8
BLACK
6
CONTINUOUS
10
-0.142719
20
-0.33226
11
-0.142778
21
-0.332197
0
LINE
8
BLACK
6
CONTINUOUS
10
-0.142778
20
-0.332197
11
-0.144653
21
-0.328448
0
LINE
8
BLACK
6
CONTINUOUS
10
-0.144653
20
-0.328448
11
-0.145097
21
-0.327107
0
LINE
8
BLACK
6
CONTINUOUS
10
-0.145097
20
-0.327107
11
-0.145049
21
-0.326669
0
LINE
8
BLACK
6
CONTINUOUS
10
-0.145049
20
-0.326669
11
-0.145172
21
-0.326247
0
LINE
8
BLACK
6
CONTINUOUS
10
-0.145172
20
-0.326247
11
-0.145172
21
-0.318748
0
LINE
8
BLACK
6
CONTINUOUS
10
-0.145172
20
-0.318748
11
-0.14497
21
-0.31735
0
LINE
8
BLACK
6
CONTINUOUS
10
-0.14497
20
-0.31735
11
-0.144731
21
-0.31698
0
LINE
8
BLACK
6
CONTINUOUS
10
-0.144731
20
-0.31698
11
-0.144676
21
-0.316675
0
LINE
8
BLACK
6
CONTINUOUS
10
-0.144676
20
-0.316675
11
-0.145123
21
-0.315692
0
LINE
8
BLACK
6
CONTINUOUS
10
-0.145123
20
-0.315692
11
-0.144726
21
-0.312949
0
LINE
8
BLACK
6
CONTINUOUS
10
-0.144726
20
-0.312949
11
-0.14291
21
-0.310857
0
LINE
8
BLACK
6
CONTINUOUS
10
-0.14291
20
-0.310857
11
-0.140251
21
-0.310077
0
LINE
8
BLACK
6
CONTINUOUS
10
-0.140251
20
-0.310077
11
-0.100881
21
-0.310077
0
LINE
8
BLACK
6
CONTINUOUS
10
-0.100881
20
-0.310077
11
-0.0994834
21
-0.31028
0
LINE
8
BLACK
6
CONTINUOUS
10
-0.13533
20
-0.319919
11
-0.13533
21
-0.325085
0
LINE
8
BLACK
6
CONTINUOUS
10
-0.13533
20
-0.325085
11
-0.134332
21
-0.327081
0
LINE
8
BLACK
6
CONTINUOUS
10
-0.134332
20
-0.327081
11
-0.133587
21
-0.327826
0
LINE
8
BLACK
6
CONTINUOUS
10
-0.133587
20
-0.327826
11
-0.13159
21
-0.328824
0
LINE
8
BLACK
6
CONTINUOUS
10
-0.13159
20
-0.328824
11
-0.122665
21
-0.328824
0
LINE
8
BLACK
6
CONTINUOUS
10
-0.122665
20
-0.328824
11
-0.120669
21
-0.327826
0
LINE
8
BLACK
6
CONTINUOUS
10
-0.120669
20
-0.327826
11
-0.119924
21
-0.327081
0
LINE
8
BLACK
6
CONTINUOUS
10
-0.119924
20
-0.327081
11
-0.118926
21
-0.325085
0
LINE
8
BLACK
6
CONTINUOUS
10
-0.118926
20
-0.325085
11
-0.118926
21
-0.319919
0
LINE
8
BLACK
6
CONTINUOUS
10
-0.118926
20
-0.319919
11
-0.13533
21
-0.319919
0
LINE
8
BLACK
6
CONTINUOUS
10
0.255895
20
-0.143572
11
0.256025
21
-0.143549
0
LINE
8
BLACK
6
CONTINUOUS
10
0.256025
20
-0.143549
11
0.256138
21
-0.143614
0
LINE
8
BLACK
6
CONTINUOUS
10
0.256138
20
-0.143614
11
0.256522
21
-0.143682
0
LINE
8
BLACK
6
CONTINUOUS
10
0.256522
20
-0.143682
11
0.257109
21
-0.144175
0
LINE
8
BLACK
6
CONTINUOUS
10
0.257109
20
-0.144175
11
0.257774
21
-0.144559
0
LINE
8
BLACK
6
CONTINUOUS
10
0.257774
20
-0.144559
11
0.257865
21
-0.144809
0
LINE
8
BLACK
6
CONTINUOUS
10
0.257865
20
-0.144809
11
0.258069
21
-0.14498
0
LINE
8
BLACK
6
CONTINUOUS
10
0.258069
20
-0.14498
11
0.258202
21
-0.145736
0
LINE
8
BLACK
6
CONTINUOUS
10
0.258202
20
-0.145736
11
0.258465
21
-0.146457
0
LINE
8
BLACK
6
CONTINUOUS
10
0.258465
20
-0.146457
11
0.258465
21
-0.311811
0
LINE
8
BLACK
6
CONTINUOUS
10
0.258465
20
-0.311811
11
0.258397
21
-0.312195
0
LINE
8
BLACK
6
CONTINUOUS
10
0.258397
20
-0.312195
11
0.25842
21
-0.312324
0
LINE
8
BLACK
6
CONTINUOUS
10
0.25842
20
-0.312324
11
0.258354
21
-0.312437
0
LINE
8
BLACK
6
CONTINUOUS
10
0.258354
20
-0.312437
11
0.258286
21
-0.312821
0
LINE
8
BLACK
6
CONTINUOUS
10
0.258286
20
-0.312821
11
0.257793
21
-0.313409
0
LINE
8
BLACK
6
CONTINUOUS
10
0.257793
20
-0.313409
11
0.25741
21
-0.314073
0
LINE
8
BLACK
6
CONTINUOUS
10
0.25741
20
-0.314073
11
0.257159
21
-0.314164
0
LINE
8
BLACK
6
CONTINUOUS
10
0.257159
20
-0.314164
11
0.256988
21
-0.314368
0
LINE
8
BLACK
6
CONTINUOUS
10
0.256988
20
-0.314368
11
0.256233
21
-0.314501
0
LINE
8
BLACK
6
CONTINUOUS
10
0.256233
20
-0.314501
11
0.255512
21
-0.314764
0
LINE
8
BLACK
6
CONTINUOUS
10
0.255512
20
-0.314764
11
0.161024
21
-0.314764
0
LINE
8
BLACK
6
CONTINUOUS
10
0.161024
20
-0.314764
11
0.16064
21
-0.314696
0
LINE
8
BLACK
6
CONTINUOUS
10
0.16064
20
-0.314696
11
0.160511
21
-0.314719
0
LINE
8
BLACK
6
CONTINUOUS
10
0.160511
20
-0.314719
11
0.160397
21
-0.314653
0
LINE
8
BLACK
6
CONTINUOUS
10
0.160397
20
-0.314653
11
0.160014
21
-0.314586
0
LINE
8
BLACK
6
CONTINUOUS
10
0.160014
20
-0.314586
11
0.159426
21
-0.314093
0
LINE
8
BLACK
6
CONTINUOUS
10
0.159426
20
-0.314093
11
0.158762
21
-0.313709
0
LINE
8
BLACK
6
CONTINUOUS
10
0.158762
20
-0.313709
11
0.158671
21
-0.313459
0
LINE
8
BLACK
6
CONTINUOUS
10
0.158671
20
-0.313459
11
0.158466
21
-0.313287
0
LINE
8
BLACK
6
CONTINUOUS
10
0.158466
20
-0.313287
11
0.158333
21
-0.312532
0
LINE
8
BLACK
6
CONTINUOUS
10
0.158333
20
-0.312532
11
0.158071
21
-0.311811
0
LINE
8
BLACK
6
CONTINUOUS
10
0.158071
20
-0.311811
11
0.158071
21
-0.146457
0
LINE
8
BLACK
6
CONTINUOUS
10
0.158071
20
-0.146457
11
0.158139
21
-0.146073
0
LINE
8
BLACK
6
CONTINUOUS
10
0.158139
20
-0.146073
11
0.158116
21
-0.145944
0
LINE
8
BLACK
6
CONTINUOUS
10
0.158116
20
-0.145944
11
0.158181
21
-0.14583
0
LINE
8
BLACK
6
CONTINUOUS
10
0.158181
20
-0.14583
11
0.158249
21
-0.145447
0
LINE
8
BLACK
6
CONTINUOUS
10
0.158249
20
-0.145447
11
0.158742
21
-0.144859
0
LINE
8
BLACK
6
CONTINUOUS
10
0.158742
20
-0.144859
11
0.159126
21
-0.144195
0
LINE
8
BLACK
6
CONTINUOUS
10
0.159126
20
-0.144195
11
0.159376
21
-0.144104
0
LINE
8
BLACK
6
CONTINUOUS
10
0.159376
20
-0.144104
11
0.159547
21
-0.1439
0
LINE
8
BLACK
6
CONTINUOUS
10
0.159547
20
-0.1439
11
0.160303
21
-0.143766
0
LINE
8
BLACK
6
CONTINUOUS
10
0.160303
20
-0.143766
11
0.161024
21
-0.143504
0
LINE
8
BLACK
6
CONTINUOUS
10
0.161024
20
-0.143504
11
0.255512
21
-0.143504
0
LINE
8
BLACK
6
CONTINUOUS
10
0.255512
20
-0.143504
11
0.255895
21
-0.143572
0
LINE
8
BLACK
6
CONTINUOUS
10
0.163976
20
-0.149409
11
0.163976
21
-0.308858
0
LINE
8
BLACK
6
CONTINUOUS
10
0.163976
20
-0.308858
11
0.252559
21
-0.308858
0
LINE
8
BLACK
6
CONTINUOUS
10
0.252559
20
-0.308858
11
0.252559
21
-0.149409
0
LINE
8
BLACK
6
CONTINUOUS
10
0.252559
20
-0.149409
11
0.163976
21
-0.149409
0
LINE
8
BLACK
6
CONTINUOUS
10
0.134562
20
-0.244388
11
0.134821
21
-0.244342
0
LINE
8
BLACK
6
CONTINUOUS
10
0.134821
20
-0.244342
11
0.136024
21
-0.244779
0
LINE
8
BLACK
6
CONTINUOUS
10
0.136024
20
-0.244779
11
0.137261
21
-0.245111
0
LINE
8
BLACK
6
CONTINUOUS
10
0.137261
20
-0.245111
11
0.137447
21
-0.245297
0
LINE
8
BLACK
6
CONTINUOUS
10
0.137447
20
-0.245297
11
0.137694
21
-0.245386
0
LINE
8
BLACK
6
CONTINUOUS
10
0.137694
20
-0.245386
11
0.138517
21
-0.246367
0
LINE
8
BLACK
6
CONTINUOUS
10
0.138517
20
-0.246367
11
0.139423
21
-0.247272
0
LINE
8
BLACK
6
CONTINUOUS
10
0.139423
20
-0.247272
11
0.139491
21
-0.247526
0
LINE
8
BLACK
6
CONTINUOUS
10
0.139491
20
-0.247526
11
0.13966
21
-0.247728
0
LINE
8
BLACK
6
CONTINUOUS
10
0.13966
20
-0.247728
11
0.139882
21
-0.248988
0
LINE
8
BLACK
6
CONTINUOUS
10
0.139882
20
-0.248988
11
0.140214
21
-0.250225
0
LINE
8
BLACK
6
CONTINUOUS
10
0.140214
20
-0.250225
11
0.140146
21
-0.250479
0
LINE
8
BLACK
6
CONTINUOUS
10
0.140146
20
-0.250479
11
0.140191
21
-0.250738
0
LINE
8
BLACK
6
CONTINUOUS
10
0.140191
20
-0.250738
11
0.139754
21
-0.251941
0
LINE
8
BLACK
6
CONTINUOUS
10
0.139754
20
-0.251941
11
0.139423
21
-0.253178
0
LINE
8
BLACK
6
CONTINUOUS
10
0.139423
20
-0.253178
11
0.139237
21
-0.253364
0
LINE
8
BLACK
6
CONTINUOUS
10
0.139237
20
-0.253364
11
0.139147
21
-0.253611
0
LINE
8
BLACK
6
CONTINUOUS
10
0.139147
20
-0.253611
11
0.138166
21
-0.254434
0
LINE
8
BLACK
6
CONTINUOUS
10
0.138166
20
-0.254434
11
0.137261
21
-0.255339
0
LINE
8
BLACK
6
CONTINUOUS
10
0.137261
20
-0.255339
11
0.137007
21
-0.255407
0
LINE
8
BLACK
6
CONTINUOUS
10
0.137007
20
-0.255407
11
0.136806
21
-0.255576
0
LINE
8
BLACK
6
CONTINUOUS
10
0.136806
20
-0.255576
11
0.106091
21
-0.26991
0
LINE
8
BLACK
6
CONTINUOUS
10
0.106091
20
-0.26991
11
0.136806
21
-0.284244
0
LINE
8
BLACK
6
CONTINUOUS
10
0.136806
20
-0.284244
11
0.137007
21
-0.284413
0
LINE
8
BLACK
6
CONTINUOUS
10
0.137007
20
-0.284413
11
0.137261
21
-0.284481
0
LINE
8
BLACK
6
CONTINUOUS
10
0.137261
20
-0.284481
11
0.138166
21
-0.285386
0
LINE
8
BLACK
6
CONTINUOUS
10
0.138166
20
-0.285386
11
0.139147
21
-0.286209
0
LINE
8
BLACK
6
CONTINUOUS
10
0.139147
20
-0.286209
11
0.139237
21
-0.286456
0
LINE
8
BLACK
6
CONTINUOUS
10
0.139237
20
-0.286456
11
0.139423
21
-0.286642
0
LINE
8
BLACK
6
CONTINUOUS
10
0.139423
20
-0.286642
11
0.139754
21
-0.287879
0
LINE
8
BLACK
6
CONTINUOUS
10
0.139754
20
-0.287879
11
0.140191
21
-0.289082
0
LINE
8
BLACK
6
CONTINUOUS
10
0.140191
20
-0.289082
11
0.140146
21
-0.289341
0
LINE
8
BLACK
6
CONTINUOUS
10
0.140146
20
-0.289341
11
0.140214
21
-0.289595
0
LINE
8
BLACK
6
CONTINUOUS
10
0.140214
20
-0.289595
11
0.139882
21
-0.290832
0
LINE
8
BLACK
6
CONTINUOUS
10
0.139882
20
-0.290832
11
0.13966
21
-0.292092
0
LINE
8
BLACK
6
CONTINUOUS
10
0.13966
20
-0.292092
11
0.139491
21
-0.292294
0
LINE
8
BLACK
6
CONTINUOUS
10
0.139491
20
-0.292294
11
0.139423
21
-0.292548
0
LINE
8
BLACK
6
CONTINUOUS
10
0.139423
20
-0.292548
11
0.138517
21
-0.293453
0
LINE
8
BLACK
6
CONTINUOUS
10
0.138517
20
-0.293453
11
0.137694
21
-0.294434
0
LINE
8
BLACK
6
CONTINUOUS
10
0.137694
20
-0.294434
11
0.137447
21
-0.294523
0
LINE
8
BLACK
6
CONTINUOUS
10
0.137447
20
-0.294523
11
0.137261
21
-0.294709
0
LINE
8
BLACK
6
CONTINUOUS
10
0.137261
20
-0.294709
11
0.136024
21
-0.295041
0
LINE
8
BLACK
6
CONTINUOUS
10
0.136024
20
-0.295041
11
0.134821
21
-0.295478
0
LINE
8
BLACK
6
CONTINUOUS
10
0.134821
20
-0.295478
11
0.134562
21
-0.295432
0
LINE
8
BLACK
6
CONTINUOUS
10
0.134562
20
-0.295432
11
0.134308
21
-0.295501
0
LINE
8
BLACK
6
CONTINUOUS
10
0.134308
20
-0.295501
11
0.0752531
21
-0.295501
0
LINE
8
BLACK
6
CONTINUOUS
10
0.0752531
20
-0.295501
11
0.0723003
21
-0.294709
0
LINE
8
BLACK
6
CONTINUOUS
10
0.0723003
20
-0.294709
11
0.0701387
21
-0.292548
0
LINE
8
BLACK
6
CONTINUOUS
10
0.0701387
20
-0.292548
11
0.0693476
21
-0.289595
0
LINE
8
BLACK
6
CONTINUOUS
10
0.0693476
20
-0.289595
11
0.0701387
21
-0.286642
0
LINE
8
BLACK
6
CONTINUOUS
10
0.0701387
20
-0.286642
11
0.0723003
21
-0.284481
0
LINE
8
BLACK
6
CONTINUOUS
10
0.0723003
20
-0.284481
11
0.0752531
21
-0.28369
0
LINE
8
BLACK
6
CONTINUOUS
10
0.0752531
20
-0.28369
11
0.107689
21
-0.28369
0
LINE
8
BLACK
6
CONTINUOUS
10
0.107689
20
-0.28369
11
0.0896286
21
-0.275261
0
LINE
8
BLACK
6
CONTINUOUS
10
0.0896286
20
-0.275261
11
0.0892297
21
-0.274927
0
LINE
8
BLACK
6
CONTINUOUS
10
0.0892297
20
-0.274927
11
0.0887402
21
-0.274749
0
LINE
8
BLACK
6
CONTINUOUS
10
0.0887402
20
-0.274749
11
0.0880772
21
-0.273959
0
LINE
8
BLACK
6
CONTINUOUS
10
0.0880772
20
-0.273959
11
0.0872875
21
-0.273296
0
LINE
8
BLACK
6
CONTINUOUS
10
0.0872875
20
-0.273296
11
0.0871094
21
-0.272806
0
LINE
8
BLACK
6
CONTINUOUS
10
0.0871094
20
-0.272806
11
0.0867745
21
-0.272407
0
LINE
8
BLACK
6
CONTINUOUS
10
0.0867745
20
-0.272407
11
0.0865952
21
-0.271392
0
LINE
8
BLACK
6
CONTINUOUS
10
0.0865952
20
-0.271392
11
0.0862428
21
-0.270423
0
LINE
8
BLACK
6
CONTINUOUS
10
0.0862428
20
-0.270423
11
0.0863334
21
-0.26991
0
LINE
8
BLACK
6
CONTINUOUS
10
0.0863334
20
-0.26991
11
0.0862428
21
-0.269397
0
LINE
8
BLACK
6
CONTINUOUS
10
0.0862428
20
-0.269397
11
0.0865952
21
-0.268428
0
LINE
8
BLACK
6
CONTINUOUS
10
0.0865952
20
-0.268428
11
0.0867745
21
-0.267413
0
LINE
8
BLACK
6
CONTINUOUS
10
0.0867745
20
-0.267413
11
0.0871094
21
-0.267014
0
LINE
8
BLACK
6
CONTINUOUS
10
0.0871094
20
-0.267014
11
0.0872875
21
-0.266524
0
LINE
8
BLACK
6
CONTINUOUS
10
0.0872875
20
-0.266524
11
0.0880772
21
-0.265861
0
LINE
8
BLACK
6
CONTINUOUS
10
0.0880772
20
-0.265861
11
0.0887402
21
-0.265071
0
LINE
8
BLACK
6
CONTINUOUS
10
0.0887402
20
-0.265071
11
0.0892297
21
-0.264893
0
LINE
8
BLACK
6
CONTINUOUS
10
0.0892297
20
-0.264893
11
0.0896286
21
-0.264559
0
LINE
8
BLACK
6
CONTINUOUS
10
0.0896286
20
-0.264559
11
0.107689
21
-0.25613
0
LINE
8
BLACK
6
CONTINUOUS
10
0.107689
20
-0.25613
11
0.0752531
21
-0.25613
0
LINE
8
BLACK
6
CONTINUOUS
10
0.0752531
20
-0.25613
11
0.0723003
21
-0.255339
0
LINE
8
BLACK
6
CONTINUOUS
10
0.0723003
20
-0.255339
11
0.0701387
21
-0.253178
0
LINE
8
BLACK
6
CONTINUOUS
10
0.0701387
20
-0.253178
11
0.0693476
21
-0.250225
0
LINE
8
BLACK
6
CONTINUOUS
10
0.0693476
20
-0.250225
11
0.0701387
21
-0.247272
0
LINE
8
BLACK
6
CONTINUOUS
10
0.0701387
20
-0.247272
11
0.0723003
21
-0.245111
0
LINE
8
BLACK
6
CONTINUOUS
10
0.0723003
20
-0.245111
11
0.0752531
21
-0.244319
0
LINE
8
BLACK
6
CONTINUOUS
10
0.0752531
20
-0.244319
11
0.134308
21
-0.244319
0
LINE
8
BLACK
6
CONTINUOUS
10
0.134308
20
-0.244319
11
0.134562
21
-0.244388
0
LINE
8
BLACK
6
CONTINUOUS
10
-0.121981
20
-0.239038
11
-0.121682
21
-0.239231
0
LINE
8
BLACK
6
CONTINUOUS
10
-0.121682
20
-0.239231
11
-0.12133
21
-0.239282
0
LINE
8
BLACK
6
CONTINUOUS
10
-0.12133
20
-0.239282
11
-0.120536
21
-0.239971
0
LINE
8
BLACK
6
CONTINUOUS
10
-0.120536
20
-0.239971
11
-0.119653
21
-0.240541
0
LINE
8
BLACK
6
CONTINUOUS
10
-0.119653
20
-0.240541
11
-0.119506
21
-0.240865
0
LINE
8
BLACK
6
CONTINUOUS
10
-0.119506
20
-0.240865
11
-0.119237
21
-0.241098
0
LINE
8
BLACK
6
CONTINUOUS
10
-0.119237
20
-0.241098
11
-0.118941
21
-0.242107
0
LINE
8
BLACK
6
CONTINUOUS
10
-0.118941
20
-0.242107
11
-0.118506
21
-0.243064
0
LINE
8
BLACK
6
CONTINUOUS
10
-0.118506
20
-0.243064
11
-0.118557
21
-0.243416
0
LINE
8
BLACK
6
CONTINUOUS
10
-0.118557
20
-0.243416
11
-0.118457
21
-0.243757
0
LINE
8
BLACK
6
CONTINUOUS
10
-0.118457
20
-0.243757
11
-0.118457
21
-0.251256
0
LINE
8
BLACK
6
CONTINUOUS
10
-0.118457
20
-0.251256
11
-0.11866
21
-0.252654
0
LINE
8
BLACK
6
CONTINUOUS
10
-0.11866
20
-0.252654
11
-0.120163
21
-0.254981
0
LINE
8
BLACK
6
CONTINUOUS
10
-0.120163
20
-0.254981
11
-0.122685
21
-0.256128
0
LINE
8
BLACK
6
CONTINUOUS
10
-0.122685
20
-0.256128
11
-0.125427
21
-0.255731
0
LINE
8
BLACK
6
CONTINUOUS
10
-0.125427
20
-0.255731
11
-0.12752
21
-0.253915
0
LINE
8
BLACK
6
CONTINUOUS
10
-0.12752
20
-0.253915
11
-0.1283
21
-0.251256
0
LINE
8
BLACK
6
CONTINUOUS
10
-0.1283
20
-0.251256
11
-0.1283
21
-0.248678
0
LINE
8
BLACK
6
CONTINUOUS
10
-0.1283
20
-0.248678
11
-0.134204
21
-0.248678
0
LINE
8
BLACK
6
CONTINUOUS
10
-0.134204
20
-0.248678
11
-0.13533
21
-0.252055
0
LINE
8
BLACK
6
CONTINUOUS
10
-0.13533
20
-0.252055
11
-0.13533
21
-0.254207
0
LINE
8
BLACK
6
CONTINUOUS
10
-0.13533
20
-0.254207
11
-0.134075
21
-0.257972
0
LINE
8
BLACK
6
CONTINUOUS
10
-0.134075
20
-0.257972
11
-0.131712
21
-0.260335
0
LINE
8
BLACK
6
CONTINUOUS
10
-0.131712
20
-0.260335
11
-0.12916
21
-0.261611
0
LINE
8
BLACK
6
CONTINUOUS
10
-0.12916
20
-0.261611
11
-0.122772
21
-0.263208
0
LINE
8
BLACK
6
CONTINUOUS
10
-0.122772
20
-0.263208
11
-0.11836
21
-0.263208
0
LINE
8
BLACK
6
CONTINUOUS
10
-0.11836
20
-0.263208
11
-0.111973
21
-0.261611
0
LINE
8
BLACK
6
CONTINUOUS
10
-0.111973
20
-0.261611
11
-0.109421
21
-0.260335
0
LINE
8
BLACK
6
CONTINUOUS
10
-0.109421
20
-0.260335
11
-0.107057
21
-0.257971
0
LINE
8
BLACK
6
CONTINUOUS
10
-0.107057
20
-0.257971
11
-0.105802
21
-0.254207
0
LINE
8
BLACK
6
CONTINUOUS
10
-0.105802
20
-0.254207
11
-0.105802
21
-0.250543
0
LINE
8
BLACK
6
CONTINUOUS
10
-0.105802
20
-0.250543
11
-0.107158
21
-0.247833
0
LINE
8
BLACK
6
CONTINUOUS
10
-0.107158
20
-0.247833
11
-0.107601
21
-0.246492
0
LINE
8
BLACK
6
CONTINUOUS
10
-0.107601
20
-0.246492
11
-0.107298
21
-0.243738
0
LINE
8
BLACK
6
CONTINUOUS
10
-0.107298
20
-0.243738
11
-0.105555
21
-0.241584
0
LINE
8
BLACK
6
CONTINUOUS
10
-0.105555
20
-0.241584
11
-0.102925
21
-0.240713
0
LINE
8
BLACK
6
CONTINUOUS
10
-0.102925
20
-0.240713
11
-0.100241
21
-0.241402
0
LINE
8
BLACK
6
CONTINUOUS
10
-0.100241
20
-0.241402
11
-0.0983542
21
-0.243431
0
LINE
8
BLACK
6
CONTINUOUS
10
-0.0983542
20
-0.243431
11
-0.0964794
21
-0.24718
0
LINE
8
BLACK
6
CONTINUOUS
10
-0.0964794
20
-0.24718
11
-0.0960356
21
-0.248521
0
LINE
8
BLACK
6
CONTINUOUS
10
-0.0960356
20
-0.248521
11
-0.0960838
21
-0.248959
0
LINE
8
BLACK
6
CONTINUOUS
10
-0.0960838
20
-0.248959
11
-0.0959599
21
-0.249381
0
LINE
8
BLACK
6
CONTINUOUS
10
-0.0959599
20
-0.249381
11
-0.0959599
21
-0.255006
0
LINE
8
BLACK
6
CONTINUOUS
10
-0.0959599
20
-0.255006
11
-0.0961626
21
-0.256403
0
LINE
8
BLACK
6
CONTINUOUS
10
-0.0961626
20
-0.256403
11
-0.0962093
21
-0.256476
0
LINE
8
BLACK
6
CONTINUOUS
10
-0.0962093
20
-0.256476
11
-0.0962124
21
-0.256562
0
LINE
8
BLACK
6
CONTINUOUS
10
-0.0962124
20
-0.256562
11
-0.0980872
21
-0.262186
0
LINE
8
BLACK
6
CONTINUOUS
10
-0.0980872
20
-0.262186
11
-0.0987215
21
-0.263448
0
LINE
8
BLACK
6
CONTINUOUS
10
-0.0987215
20
-0.263448
11
-0.0990649
21
-0.263723
0
LINE
8
BLACK
6
CONTINUOUS
10
-0.0990649
20
-0.263723
11
-0.0992761
21
-0.26411
0
LINE
8
BLACK
6
CONTINUOUS
10
-0.0992761
20
-0.26411
11
-0.103026
21
-0.267859
0
LINE
8
BLACK
6
CONTINUOUS
10
-0.103026
20
-0.267859
11
-0.104157
21
-0.268704
0
LINE
8
BLACK
6
CONTINUOUS
10
-0.104157
20
-0.268704
11
-0.104241
21
-0.268722
0
LINE
8
BLACK
6
CONTINUOUS
10
-0.104241
20
-0.268722
11
-0.104305
21
-0.268781
0
LINE
8
BLACK
6
CONTINUOUS
10
-0.104305
20
-0.268781
11
-0.108054
21
-0.270656
0
LINE
8
BLACK
6
CONTINUOUS
10
-0.108054
20
-0.270656
11
-0.108908
21
-0.270938
0
LINE
8
BLACK
6
CONTINUOUS
10
-0.108908
20
-0.270938
11
-0.109061
21
-0.271029
0
LINE
8
BLACK
6
CONTINUOUS
10
-0.109061
20
-0.271029
11
-0.11656
21
-0.272903
0
LINE
8
BLACK
6
CONTINUOUS
10
-0.11656
20
-0.272903
11
-0.117619
21
-0.273011
0
LINE
8
BLACK
6
CONTINUOUS
10
-0.117619
20
-0.273011
11
-0.117754
21
-0.27305
0
LINE
8
BLACK
6
CONTINUOUS
10
-0.117754
20
-0.27305
11
-0.123378
21
-0.27305
0
LINE
8
BLACK
6
CONTINUOUS
10
-0.123378
20
-0.27305
11
-0.124431
21
-0.272898
0
LINE
8
BLACK
6
CONTINUOUS
10
-0.124431
20
-0.272898
11
-0.124572
21
-0.272903
0
LINE
8
BLACK
6
CONTINUOUS
10
-0.124572
20
-0.272903
11
-0.132071
21
-0.271029
0
LINE
8
BLACK
6
CONTINUOUS
10
-0.132071
20
-0.271029
11
-0.132903
21
-0.270687
0
LINE
8
BLACK
6
CONTINUOUS
10
-0.132903
20
-0.270687
11
-0.133078
21
-0.270656
0
LINE
8
BLACK
6
CONTINUOUS
10
-0.133078
20
-0.270656
11
-0.136828
21
-0.268781
0
LINE
8
BLACK
6
CONTINUOUS
10
-0.136828
20
-0.268781
11
-0.137987
21
-0.267975
0
LINE
8
BLACK
6
CONTINUOUS
10
-0.137987
20
-0.267975
11
-0.138031
21
-0.267901
0
LINE
8
BLACK
6
CONTINUOUS
10
-0.138031
20
-0.267901
11
-0.138107
21
-0.267859
0
LINE
8
BLACK
6
CONTINUOUS
10
-0.138107
20
-0.267859
11
-0.141856
21
-0.26411
0
LINE
8
BLACK
6
CONTINUOUS
10
-0.141856
20
-0.26411
11
-0.142701
21
-0.262978
0
LINE
8
BLACK
6
CONTINUOUS
10
-0.142701
20
-0.262978
11
-0.142794
21
-0.262548
0
LINE
8
BLACK
6
CONTINUOUS
10
-0.142794
20
-0.262548
11
-0.143045
21
-0.262186
0
LINE
8
BLACK
6
CONTINUOUS
10
-0.143045
20
-0.262186
11
-0.14492
21
-0.256562
0
LINE
8
BLACK
6
CONTINUOUS
10
-0.14492
20
-0.256562
11
-0.14517
21
-0.255172
0
LINE
8
BLACK
6
CONTINUOUS
10
-0.14517
20
-0.255172
11
-0.145148
21
-0.255088
0
LINE
8
BLACK
6
CONTINUOUS
10
-0.145148
20
-0.255088
11
-0.145172
21
-0.255006
0
LINE
8
BLACK
6
CONTINUOUS
10
-0.145172
20
-0.255006
11
-0.145172
21
-0.251256
0
LINE
8
BLACK
6
CONTINUOUS
10
-0.145172
20
-0.251256
11
-0.14497
21
-0.249858
0
LINE
8
BLACK
6
CONTINUOUS
10
-0.14497
20
-0.249858
11
-0.144923
21
-0.249786
0
LINE
8
BLACK
6
CONTINUOUS
10
-0.144923
20
-0.249786
11
-0.14492
21
-0.2497
0
LINE
8
BLACK
6
CONTINUOUS
10
-0.14492
20
-0.2497
11
-0.143045
21
-0.244076
0
LINE
8
BLACK
6
CONTINUOUS
10
-0.143045
20
-0.244076
11
-0.142411
21
-0.242814
0
LINE
8
BLACK
6
CONTINUOUS
10
-0.142411
20
-0.242814
11
-0.142067
21
-0.242538
0
LINE
8
BLACK
6
CONTINUOUS
10
-0.142067
20
-0.242538
11
-0.141856
21
-0.242152
0
LINE
8
BLACK
6
CONTINUOUS
10
-0.141856
20
-0.242152
11
-0.139982
21
-0.240277
0
LINE
8
BLACK
6
CONTINUOUS
10
-0.139982
20
-0.240277
11
-0.139279
21
-0.239753
0
LINE
8
BLACK
6
CONTINUOUS
10
-0.139279
20
-0.239753
11
-0.13916
21
-0.239616
0
LINE
8
BLACK
6
CONTINUOUS
10
-0.13916
20
-0.239616
11
-0.139054
21
-0.239584
0
LINE
8
BLACK
6
CONTINUOUS
10
-0.139054
20
-0.239584
11
-0.13885
21
-0.239432
0
LINE
8
BLACK
6
CONTINUOUS
10
-0.13885
20
-0.239432
11
-0.137665
21
-0.239177
0
LINE
8
BLACK
6
CONTINUOUS
10
-0.137665
20
-0.239177
11
-0.136502
21
-0.238836
0
LINE
8
BLACK
6
CONTINUOUS
10
-0.136502
20
-0.238836
11
-0.123378
21
-0.238836
0
LINE
8
BLACK
6
CONTINUOUS
10
-0.123378
20
-0.238836
11
-0.121981
21
-0.239038
0
LINE
8
BLACK
6
CONTINUOUS
10
-0.0994834
20
-0.199668
11
-0.0971558
21
-0.201171
0
LINE
8
BLACK
6
CONTINUOUS
10
-0.0971558
20
-0.201171
11
-0.096009
21
-0.203694
0
LINE
8
BLACK
6
CONTINUOUS
10
-0.096009
20
-0.203694
11
-0.0964065
21
-0.206436
0
LINE
8
BLACK
6
CONTINUOUS
10
-0.0964065
20
-0.206436
11
-0.0982225
21
-0.208528
0
LINE
8
BLACK
6
CONTINUOUS
10
-0.0982225
20
-0.208528
11
-0.100881
21
-0.209308
0
LINE
8
BLACK
6
CONTINUOUS
10
-0.100881
20
-0.209308
11
-0.12172
21
-0.209308
0
LINE
8
BLACK
6
CONTINUOUS
10
-0.12172
20
-0.209308
11
-0.0984395
21
-0.222611
0
LINE
8
BLACK
6
CONTINUOUS
10
-0.0984395
20
-0.222611
11
-0.0973265
21
-0.223481
0
LINE
8
BLACK
6
CONTINUOUS
10
-0.0973265
20
-0.223481
11
-0.0972661
21
-0.223597
0
LINE
8
BLACK
6
CONTINUOUS
10
-0.0972661
20
-0.223597
11
-0.0971558
21
-0.223668
0
LINE
8
BLACK
6
CONTINUOUS
10
-0.0971558
20
-0.223668
11
-0.0966327
21
-0.224819
0
LINE
8
BLACK
6
CONTINUOUS
10
-0.0966327
20
-0.224819
11
-0.0960512
21
-0.22594
0
LINE
8
BLACK
6
CONTINUOUS
10
-0.0960512
20
-0.22594
11
-0.0960633
21
-0.226071
0
LINE
8
BLACK
6
CONTINUOUS
10
-0.0960633
20
-0.226071
11
-0.096009
21
-0.226191
0
LINE
8
BLACK
6
CONTINUOUS
10
-0.096009
20
-0.226191
11
-0.0961903
21
-0.227442
0
LINE
8
BLACK
6
CONTINUOUS
10
-0.0961903
20
-0.227442
11
-0.0963069
21
-0.228699
0
LINE
8
BLACK
6
CONTINUOUS
10
-0.0963069
20
-0.228699
11
-0.0963877
21
-0.228803
0
LINE
8
BLACK
6
CONTINUOUS
10
-0.0963877
20
-0.228803
11
-0.0964065
21
-0.228933
0
LINE
8
BLACK
6
CONTINUOUS
10
-0.0964065
20
-0.228933
11
-0.0972348
21
-0.229887
0
LINE
8
BLACK
6
CONTINUOUS
10
-0.0972348
20
-0.229887
11
-0.0980125
21
-0.230883
0
LINE
8
BLACK
6
CONTINUOUS
10
-0.0980125
20
-0.230883
11
-0.0981365
21
-0.230926
0
LINE
8
BLACK
6
CONTINUOUS
10
-0.0981365
20
-0.230926
11
-0.0982225
21
-0.231025
0
LINE
8
BLACK
6
CONTINUOUS
10
-0.0982225
20
-0.231025
11
-0.0994348
21
-0.231381
0
LINE
8
BLACK
6
CONTINUOUS
10
-0.0994348
20
-0.231381
11
-0.100627
21
-0.231799
0
LINE
8
BLACK
6
CONTINUOUS
10
-0.100627
20
-0.231799
11
-0.100755
21
-0.231768
0
LINE
8
BLACK
6
CONTINUOUS
10
-0.100755
20
-0.231768
11
-0.100881
21
-0.231805
0
LINE
8
BLACK
6
CONTINUOUS
10
-0.100881
20
-0.231805
11
-0.140251
21
-0.231805
0
LINE
8
BLACK
6
CONTINUOUS
10
-0.140251
20
-0.231805
11
-0.141649
21
-0.231603
0
LINE
8
BLACK
6
CONTINUOUS
10
-0.141649
20
-0.231603
11
-0.143977
21
-0.2301
0
LINE
8
BLACK
6
CONTINUOUS
10
-0.143977
20
-0.2301
11
-0.145123
21
-0.227578
0
LINE
8
BLACK
6
CONTINUOUS
10
-0.145123
20
-0.227578
11
-0.144726
21
-0.224836
0
LINE
8
BLACK
6
CONTINUOUS
10
-0.144726
20
-0.224836
11
-0.14291
21
-0.222743
0
LINE
8
BLACK
6
CONTINUOUS
10
-0.14291
20
-0.222743
11
-0.140251
21
-0.221963
0
LINE
8
BLACK
6
CONTINUOUS
10
-0.140251
20
-0.221963
11
-0.119412
21
-0.221963
0
LINE
8
BLACK
6
CONTINUOUS
10
-0.119412
20
-0.221963
11
-0.142693
21
-0.20866
0
LINE
8
BLACK
6
CONTINUOUS
10
-0.142693
20
-0.20866
11
-0.143806
21
-0.20779
0
LINE
8
BLACK
6
CONTINUOUS
10
-0.143806
20
-0.20779
11
-0.143866
21
-0.207674
0
LINE
8
BLACK
6
CONTINUOUS
10
-0.143866
20
-0.207674
11
-0.143977
21
-0.207603
0
LINE
8
BLACK
6
CONTINUOUS
10
-0.143977
20
-0.207603
11
-0.1445
21
-0.206452
0
LINE
8
BLACK
6
CONTINUOUS
10
-0.1445
20
-0.206452
11
-0.145081
21
-0.205331
0
LINE
8
BLACK
6
CONTINUOUS
10
-0.145081
20
-0.205331
11
-0.145069
21
-0.2052
0
LINE
8
BLACK
6
CONTINUOUS
10
-0.145069
20
-0.2052
11
-0.145123
21
-0.20508
0
LINE
8
BLACK
6
CONTINUOUS
10
-0.145123
20
-0.20508
11
-0.144942
21
-0.20383
0
LINE
8
BLACK
6
CONTINUOUS
10
-0.144942
20
-0.20383
11
-0.144825
21
-0.202572
0
LINE
8
BLACK
6
CONTINUOUS
10
-0.144825
20
-0.202572
11
-0.144745
21
-0.202468
0
LINE
8
BLACK
6
CONTINUOUS
10
-0.144745
20
-0.202468
11
-0.144726
21
-0.202338
0
LINE
8
BLACK
6
CONTINUOUS
10
-0.144726
20
-0.202338
11
-0.143898
21
-0.201384
0
LINE
8
BLACK
6
CONTINUOUS
10
-0.143898
20
-0.201384
11
-0.14312
21
-0.200388
0
LINE
8
BLACK
6
CONTINUOUS
10
-0.14312
20
-0.200388
11
-0.142996
21
-0.200345
0
LINE
8
BLACK
6
CONTINUOUS
10
-0.142996
20
-0.200345
11
-0.14291
21
-0.200246
0
LINE
8
BLACK
6
CONTINUOUS
10
-0.14291
20
-0.200246
11
-0.141698
21
-0.19989
0
LINE
8
BLACK
6
CONTINUOUS
10
-0.141698
20
-0.19989
11
-0.140505
21
-0.199472
0
LINE
8
BLACK
6
CONTINUOUS
10
-0.140505
20
-0.199472
11
-0.140377
21
-0.199503
0
LINE
8
BLACK
6
CONTINUOUS
10
-0.140377
20
-0.199503
11
-0.140251
21
-0.199466
0
LINE
8
BLACK
6
CONTINUOUS
10
-0.140251
20
-0.199466
11
-0.100881
21
-0.199466
0
LINE
8
BLACK
6
CONTINUOUS
10
-0.100881
20
-0.199466
11
-0.0994834
21
-0.199668
0
LINE
8
BLACK
6
CONTINUOUS
10
0.140214
20
-0.222103
11
0.140012
21
-0.222854
0
LINE
8
BLACK
6
CONTINUOUS
10
0.140012
20
-0.222854
11
0.140012
21
-0.223632
0
LINE
8
BLACK
6
CONTINUOUS
10
0.140012
20
-0.223632
11
0.139991
21
-0.223668
0
LINE
8
BLACK
6
CONTINUOUS
10
0.139991
20
-0.223668
11
0.139624
21
-0.224305
0
LINE
8
BLACK
6
CONTINUOUS
10
0.139624
20
-0.224305
11
0.139423
21
-0.225056
0
LINE
8
BLACK
6
CONTINUOUS
10
0.139423
20
-0.225056
11
0.138873
21
-0.225606
0
LINE
8
BLACK
6
CONTINUOUS
10
0.138873
20
-0.225606
11
0.138484
21
-0.226279
0
LINE
8
BLACK
6
CONTINUOUS
10
0.138484
20
-0.226279
11
0.135672
21
-0.229091
0
LINE
8
BLACK
6
CONTINUOUS
10
0.135672
20
-0.229091
11
0.135672
21
-0.229091
0
LINE
8
BLACK
6
CONTINUOUS
10
0.135672
20
-0.229091
11
0.135672
21
-0.229091
0
LINE
8
BLACK
6
CONTINUOUS
10
0.135672
20
-0.229091
11
0.133025
21
-0.23062
0
LINE
8
BLACK
6
CONTINUOUS
10
0.133025
20
-0.23062
11
0.129968
21
-0.23062
0
LINE
8
BLACK
6
CONTINUOUS
10
0.129968
20
-0.23062
11
0.128439
21
-0.229737
0
LINE
8
BLACK
6
CONTINUOUS
10
0.128439
20
-0.229737
11
0.12732
21
-0.229091
0
LINE
8
BLACK
6
CONTINUOUS
10
0.12732
20
-0.229091
11
0.124508
21
-0.226279
0
LINE
8
BLACK
6
CONTINUOUS
10
0.124508
20
-0.226279
11
0.124312
21
-0.22594
0
LINE
8
BLACK
6
CONTINUOUS
10
0.124312
20
-0.22594
11
0.124119
21
-0.225606
0
LINE
8
BLACK
6
CONTINUOUS
10
0.124119
20
-0.225606
11
0.12357
21
-0.225056
0
LINE
8
BLACK
6
CONTINUOUS
10
0.12357
20
-0.225056
11
0.123368
21
-0.224305
0
LINE
8
BLACK
6
CONTINUOUS
10
0.123368
20
-0.224305
11
0.123001
21
-0.223668
0
LINE
8
BLACK
6
CONTINUOUS
10
0.123001
20
-0.223668
11
0.12298
21
-0.223632
0
LINE
8
BLACK
6
CONTINUOUS
10
0.12298
20
-0.223632
11
0.12298
21
-0.222854
0
LINE
8
BLACK
6
CONTINUOUS
10
0.12298
20
-0.222854
11
0.122778
21
-0.222103
0
LINE
8
BLACK
6
CONTINUOUS
10
0.122778
20
-0.222103
11
0.12298
21
-0.221352
0
LINE
8
BLACK
6
CONTINUOUS
10
0.12298
20
-0.221352
11
0.12298
21
-0.220575
0
LINE
8
BLACK
6
CONTINUOUS
10
0.12298
20
-0.220575
11
0.123368
21
-0.219902
0
LINE
8
BLACK
6
CONTINUOUS
10
0.123368
20
-0.219902
11
0.12357
21
-0.219151
0
LINE
8
BLACK
6
CONTINUOUS
10
0.12357
20
-0.219151
11
0.124119
21
-0.218601
0
LINE
8
BLACK
6
CONTINUOUS
10
0.124119
20
-0.218601
11
0.124508
21
-0.217928
0
LINE
8
BLACK
6
CONTINUOUS
10
0.124508
20
-0.217928
11
0.124508
21
-0.217928
0
LINE
8
BLACK
6
CONTINUOUS
10
0.124508
20
-0.217928
11
0.124508
21
-0.217928
0
LINE
8
BLACK
6
CONTINUOUS
10
0.124508
20
-0.217928
11
0.12732
21
-0.215115
0
LINE
8
BLACK
6
CONTINUOUS
10
0.12732
20
-0.215115
11
0.128439
21
-0.214469
0
LINE
8
BLACK
6
CONTINUOUS
10
0.128439
20
-0.214469
11
0.129968
21
-0.213587
0
LINE
8
BLACK
6
CONTINUOUS
10
0.129968
20
-0.213587
11
0.133025
21
-0.213587
0
LINE
8
BLACK
6
CONTINUOUS
10
0.133025
20
-0.213587
11
0.134553
21
-0.21447
0
LINE
8
BLACK
6
CONTINUOUS
10
0.134553
20
-0.21447
11
0.135672
21
-0.215116
0
LINE
8
BLACK
6
CONTINUOUS
10
0.135672
20
-0.215116
11
0.138484
21
-0.217928
0
LINE
8
BLACK
6
CONTINUOUS
10
0.138484
20
-0.217928
11
0.138873
21
-0.218601
0
LINE
8
BLACK
6
CONTINUOUS
10
0.138873
20
-0.218601
11
0.139423
21
-0.219151
0
LINE
8
BLACK
6
CONTINUOUS
10
0.139423
20
-0.219151
11
0.139624
21
-0.219902
0
LINE
8
BLACK
6
CONTINUOUS
10
0.139624
20
-0.219902
11
0.140012
21
-0.220575
0
LINE
8
BLACK
6
CONTINUOUS
10
0.140012
20
-0.220575
11
0.140012
21
-0.221352
0
LINE
8
BLACK
6
CONTINUOUS
10
0.140012
20
-0.221352
11
0.140214
21
-0.222103
0
LINE
8
BLACK
6
CONTINUOUS
10
0.117576
20
-0.216989
11
0.119737
21
-0.219151
0
LINE
8
BLACK
6
CONTINUOUS
10
0.119737
20
-0.219151
11
0.120529
21
-0.222103
0
LINE
8
BLACK
6
CONTINUOUS
10
0.120529
20
-0.222103
11
0.119737
21
-0.225056
0
LINE
8
BLACK
6
CONTINUOUS
10
0.119737
20
-0.225056
11
0.117576
21
-0.227218
0
LINE
8
BLACK
6
CONTINUOUS
10
0.117576
20
-0.227218
11
0.114623
21
-0.228009
0
LINE
8
BLACK
6
CONTINUOUS
10
0.114623
20
-0.228009
11
0.0752531
21
-0.228009
0
LINE
8
BLACK
6
CONTINUOUS
10
0.0752531
20
-0.228009
11
0.0723003
21
-0.227218
0
LINE
8
BLACK
6
CONTINUOUS
10
0.0723003
20
-0.227218
11
0.0701387
21
-0.225056
0
LINE
8
BLACK
6
CONTINUOUS
10
0.0701387
20
-0.225056
11
0.0693476
21
-0.222103
0
LINE
8
BLACK
6
CONTINUOUS
10
0.0693476
20
-0.222103
11
0.0701387
21
-0.219151
0
LINE
8
BLACK
6
CONTINUOUS
10
0.0701387
20
-0.219151
11
0.0723003
21
-0.216989
0
LINE
8
BLACK
6
CONTINUOUS
10
0.0723003
20
-0.216989
11
0.0752531
21
-0.216198
0
LINE
8
BLACK
6
CONTINUOUS
10
0.0752531
20
-0.216198
11
0.114623
21
-0.216198
0
LINE
8
BLACK
6
CONTINUOUS
10
0.114623
20
-0.216198
11
0.117576
21
-0.216989
0
LINE
8
BLACK
6
CONTINUOUS
10
0.137261
20
-0.163558
11
0.139423
21
-0.16572
0
LINE
8
BLACK
6
CONTINUOUS
10
0.139423
20
-0.16572
11
0.140214
21
-0.168673
0
LINE
8
BLACK
6
CONTINUOUS
10
0.140214
20
-0.168673
11
0.139423
21
-0.171625
0
LINE
8
BLACK
6
CONTINUOUS
10
0.139423
20
-0.171625
11
0.137261
21
-0.173787
0
LINE
8
BLACK
6
CONTINUOUS
10
0.137261
20
-0.173787
11
0.134308
21
-0.174578
0
LINE
8
BLACK
6
CONTINUOUS
10
0.134308
20
-0.174578
11
0.120529
21
-0.174578
0
LINE
8
BLACK
6
CONTINUOUS
10
0.120529
20
-0.174578
11
0.120529
21
-0.185546
0
LINE
8
BLACK
6
CONTINUOUS
10
0.120529
20
-0.185546
11
0.120177
21
-0.186857
0
LINE
8
BLACK
6
CONTINUOUS
10
0.120177
20
-0.186857
11
0.119905
21
-0.188187
0
LINE
8
BLACK
6
CONTINUOUS
10
0.119905
20
-0.188187
11
0.117093
21
-0.193811
0
LINE
8
BLACK
6
CONTINUOUS
10
0.117093
20
-0.193811
11
0.116462
21
-0.194522
0
LINE
8
BLACK
6
CONTINUOUS
10
0.116462
20
-0.194522
11
0.115987
21
-0.195346
0
LINE
8
BLACK
6
CONTINUOUS
10
0.115987
20
-0.195346
11
0.113175
21
-0.198158
0
LINE
8
BLACK
6
CONTINUOUS
10
0.113175
20
-0.198158
11
0.112351
21
-0.198633
0
LINE
8
BLACK
6
CONTINUOUS
10
0.112351
20
-0.198633
11
0.11164
21
-0.199264
0
LINE
8
BLACK
6
CONTINUOUS
10
0.11164
20
-0.199264
11
0.106016
21
-0.202076
0
LINE
8
BLACK
6
CONTINUOUS
10
0.106016
20
-0.202076
11
0.104686
21
-0.202348
0
LINE
8
BLACK
6
CONTINUOUS
10
0.104686
20
-0.202348
11
0.103375
21
-0.2027
0
LINE
8
BLACK
6
CONTINUOUS
10
0.103375
20
-0.2027
11
0.0865017
21
-0.2027
0
LINE
8
BLACK
6
CONTINUOUS
10
0.0865017
20
-0.2027
11
0.0851906
21
-0.202348
0
LINE
8
BLACK
6
CONTINUOUS
10
0.0851906
20
-0.202348
11
0.0838606
21
-0.202076
0
LINE
8
BLACK
6
CONTINUOUS
10
0.0838606
20
-0.202076
11
0.0782363
21
-0.199264
0
LINE
8
BLACK
6
CONTINUOUS
10
0.0782363
20
-0.199264
11
0.077525
21
-0.198633
0
LINE
8
BLACK
6
CONTINUOUS
10
0.077525
20
-0.198633
11
0.0767015
21
-0.198158
0
LINE
8
BLACK
6
CONTINUOUS
10
0.0767015
20
-0.198158
11
0.0738894
21
-0.195346
0
LINE
8
BLACK
6
CONTINUOUS
10
0.0738894
20
-0.195346
11
0.073414
21
-0.194522
0
LINE
8
BLACK
6
CONTINUOUS
10
0.073414
20
-0.194522
11
0.0727832
21
-0.193811
0
LINE
8
BLACK
6
CONTINUOUS
10
0.0727832
20
-0.193811
11
0.069971
21
-0.188187
0
LINE
8
BLACK
6
CONTINUOUS
10
0.069971
20
-0.188187
11
0.0696989
21
-0.186857
0
LINE
8
BLACK
6
CONTINUOUS
10
0.0696989
20
-0.186857
11
0.0693476
21
-0.185546
0
LINE
8
BLACK
6
CONTINUOUS
10
0.0693476
20
-0.185546
11
0.0693476
21
-0.174297
0
LINE
8
BLACK
6
CONTINUOUS
10
0.0693476
20
-0.174297
11
0.0696989
21
-0.172986
0
LINE
8
BLACK
6
CONTINUOUS
10
0.0696989
20
-0.172986
11
0.069971
21
-0.171656
0
LINE
8
BLACK
6
CONTINUOUS
10
0.069971
20
-0.171656
11
0.0700856
21
-0.171427
0
LINE
8
BLACK
6
CONTINUOUS
10
0.0700856
20
-0.171427
11
0.0693476
21
-0.168673
0
LINE
8
BLACK
6
CONTINUOUS
10
0.0693476
20
-0.168673
11
0.0701387
21
-0.16572
0
LINE
8
BLACK
6
CONTINUOUS
10
0.0701387
20
-0.16572
11
0.0723003
21
-0.163558
0
LINE
8
BLACK
6
CONTINUOUS
10
0.0723003
20
-0.163558
11
0.0752531
21
-0.162767
0
LINE
8
BLACK
6
CONTINUOUS
10
0.0752531
20
-0.162767
11
0.134308
21
-0.162767
0
LINE
8
BLACK
6
CONTINUOUS
10
0.134308
20
-0.162767
11
0.137261
21
-0.163558
0
LINE
8
BLACK
6
CONTINUOUS
10
0.081715
20
-0.174578
11
0.0811586
21
-0.175691
0
LINE
8
BLACK
6
CONTINUOUS
10
0.0811586
20
-0.175691
11
0.0811586
21
-0.184151
0
LINE
8
BLACK
6
CONTINUOUS
10
0.0811586
20
-0.184151
11
0.0829187
21
-0.187672
0
LINE
8
BLACK
6
CONTINUOUS
10
0.0829187
20
-0.187672
11
0.0843756
21
-0.189129
0
LINE
8
BLACK
6
CONTINUOUS
10
0.0843756
20
-0.189129
11
0.0878957
21
-0.190889
0
LINE
8
BLACK
6
CONTINUOUS
10
0.0878957
20
-0.190889
11
0.10198
21
-0.190889
0
LINE
8
BLACK
6
CONTINUOUS
10
0.10198
20
-0.190889
11
0.105501
21
-0.189128
0
LINE
8
BLACK
6
CONTINUOUS
10
0.105501
20
-0.189128
11
0.106958
21
-0.187672
0
LINE
8
BLACK
6
CONTINUOUS
10
0.106958
20
-0.187672
11
0.108718
21
-0.184151
0
LINE
8
BLACK
6
CONTINUOUS
10
0.108718
20
-0.184151
11
0.108718
21
-0.175691
0
LINE
8
BLACK
6
CONTINUOUS
10
0.108718
20
-0.175691
11
0.108161
21
-0.174578
0
LINE
8
BLACK
6
CONTINUOUS
10
0.108161
20
-0.174578
11
0.081715
21
-0.174578
0
LINE
8
BLACK
6
CONTINUOUS
10
-0.116701
20
-0.158373
11
-0.11656
21
-0.158368
0
LINE
8
BLACK
6
CONTINUOUS
10
-0.11656
20
-0.158368
11
-0.109061
21
-0.160243
0
LINE
8
BLACK
6
CONTINUOUS
10
-0.109061
20
-0.160243
11
-0.108229
21
-0.160584
0
LINE
8
BLACK
6
CONTINUOUS
10
-0.108229
20
-0.160584
11
-0.108054
21
-0.160615
0
LINE
8
BLACK
6
CONTINUOUS
10
-0.108054
20
-0.160615
11
-0.104305
21
-0.16249
0
LINE
8
BLACK
6
CONTINUOUS
10
-0.104305
20
-0.16249
11
-0.103145
21
-0.163296
0
LINE
8
BLACK
6
CONTINUOUS
10
-0.103145
20
-0.163296
11
-0.103101
21
-0.16337
0
LINE
8
BLACK
6
CONTINUOUS
10
-0.103101
20
-0.16337
11
-0.103026
21
-0.163412
0
LINE
8
BLACK
6
CONTINUOUS
10
-0.103026
20
-0.163412
11
-0.0992761
21
-0.167161
0
LINE
8
BLACK
6
CONTINUOUS
10
-0.0992761
20
-0.167161
11
-0.098431
21
-0.168293
0
LINE
8
BLACK
6
CONTINUOUS
10
-0.098431
20
-0.168293
11
-0.0983383
21
-0.168723
0
LINE
8
BLACK
6
CONTINUOUS
10
-0.0983383
20
-0.168723
11
-0.0980872
21
-0.169085
0
LINE
8
BLACK
6
CONTINUOUS
10
-0.0980872
20
-0.169085
11
-0.0962124
21
-0.174709
0
LINE
8
BLACK
6
CONTINUOUS
10
-0.0962124
20
-0.174709
11
-0.0959627
21
-0.176099
0
LINE
8
BLACK
6
CONTINUOUS
10
-0.0959627
20
-0.176099
11
-0.0959842
21
-0.176183
0
LINE
8
BLACK
6
CONTINUOUS
10
-0.0959842
20
-0.176183
11
-0.0959599
21
-0.176265
0
LINE
8
BLACK
6
CONTINUOUS
10
-0.0959599
20
-0.176265
11
-0.0959599
21
-0.185639
0
LINE
8
BLACK
6
CONTINUOUS
10
-0.0959599
20
-0.185639
11
-0.0961626
21
-0.187037
0
LINE
8
BLACK
6
CONTINUOUS
10
-0.0961626
20
-0.187037
11
-0.0963555
21
-0.187336
0
LINE
8
BLACK
6
CONTINUOUS
10
-0.0963555
20
-0.187336
11
-0.0964065
21
-0.187688
0
LINE
8
BLACK
6
CONTINUOUS
10
-0.0964065
20
-0.187688
11
-0.0970954
21
-0.188482
0
LINE
8
BLACK
6
CONTINUOUS
10
-0.0970954
20
-0.188482
11
-0.0976655
21
-0.189365
0
LINE
8
BLACK
6
CONTINUOUS
10
-0.0976655
20
-0.189365
11
-0.0979893
21
-0.189512
0
LINE
8
BLACK
6
CONTINUOUS
10
-0.0979893
20
-0.189512
11
-0.0982225
21
-0.189781
0
LINE
8
BLACK
6
CONTINUOUS
10
-0.0982225
20
-0.189781
11
-0.099231
21
-0.190076
0
LINE
8
BLACK
6
CONTINUOUS
10
-0.099231
20
-0.190076
11
-0.100188
21
-0.190511
0
LINE
8
BLACK
6
CONTINUOUS
10
-0.100188
20
-0.190511
11
-0.10054
21
-0.19046
0
LINE
8
BLACK
6
CONTINUOUS
10
-0.10054
20
-0.19046
11
-0.100881
21
-0.190561
0
LINE
8
BLACK
6
CONTINUOUS
10
-0.100881
20
-0.190561
11
-0.140251
21
-0.190561
0
LINE
8
BLACK
6
CONTINUOUS
10
-0.140251
20
-0.190561
11
-0.141649
21
-0.190358
0
LINE
8
BLACK
6
CONTINUOUS
10
-0.141649
20
-0.190358
11
-0.141948
21
-0.190165
0
LINE
8
BLACK
6
CONTINUOUS
10
-0.141948
20
-0.190165
11
-0.1423
21
-0.190114
0
LINE
8
BLACK
6
CONTINUOUS
10
-0.1423
20
-0.190114
11
-0.143094
21
-0.189425
0
LINE
8
BLACK
6
CONTINUOUS
10
-0.143094
20
-0.189425
11
-0.143977
21
-0.188855
0
LINE
8
BLACK
6
CONTINUOUS
10
-0.143977
20
-0.188855
11
-0.144124
21
-0.188531
0
LINE
8
BLACK
6
CONTINUOUS
10
-0.144124
20
-0.188531
11
-0.144393
21
-0.188298
0
LINE
8
BLACK
6
CONTINUOUS
10
-0.144393
20
-0.188298
11
-0.144688
21
-0.187289
0
LINE
8
BLACK
6
CONTINUOUS
10
-0.144688
20
-0.187289
11
-0.145123
21
-0.186333
0
LINE
8
BLACK
6
CONTINUOUS
10
-0.145123
20
-0.186333
11
-0.145072
21
-0.185981
0
LINE
8
BLACK
6
CONTINUOUS
10
-0.145072
20
-0.185981
11
-0.145172
21
-0.185639
0
LINE
8
BLACK
6
CONTINUOUS
10
-0.145172
20
-0.185639
11
-0.145172
21
-0.176265
0
LINE
8
BLACK
6
CONTINUOUS
10
-0.145172
20
-0.176265
11
-0.14497
21
-0.174868
0
LINE
8
BLACK
6
CONTINUOUS
10
-0.14497
20
-0.174868
11
-0.144923
21
-0.174795
0
LINE
8
BLACK
6
CONTINUOUS
10
-0.144923
20
-0.174795
11
-0.14492
21
-0.174709
0
LINE
8
BLACK
6
CONTINUOUS
10
-0.14492
20
-0.174709
11
-0.143045
21
-0.169085
0
LINE
8
BLACK
6
CONTINUOUS
10
-0.143045
20
-0.169085
11
-0.142411
21
-0.167823
0
LINE
8
BLACK
6
CONTINUOUS
10
-0.142411
20
-0.167823
11
-0.142067
21
-0.167548
0
LINE
8
BLACK
6
CONTINUOUS
10
-0.142067
20
-0.167548
11
-0.141856
21
-0.167161
0
LINE
8
BLACK
6
CONTINUOUS
10
-0.141856
20
-0.167161
11
-0.138107
21
-0.163412
0
LINE
8
BLACK
6
CONTINUOUS
10
-0.138107
20
-0.163412
11
-0.136975
21
-0.162567
0
LINE
8
BLACK
6
CONTINUOUS
10
-0.136975
20
-0.162567
11
-0.136891
21
-0.162549
0
LINE
8
BLACK
6
CONTINUOUS
10
-0.136891
20
-0.162549
11
-0.136828
21
-0.16249
0
LINE
8
BLACK
6
CONTINUOUS
10
-0.136828
20
-0.16249
11
-0.133078
21
-0.160615
0
LINE
8
BLACK
6
CONTINUOUS
10
-0.133078
20
-0.160615
11
-0.132225
21
-0.160333
0
LINE
8
BLACK
6
CONTINUOUS
10
-0.132225
20
-0.160333
11
-0.132071
21
-0.160243
0
LINE
8
BLACK
6
CONTINUOUS
10
-0.132071
20
-0.160243
11
-0.124572
21
-0.158368
0
LINE
8
BLACK
6
CONTINUOUS
10
-0.124572
20
-0.158368
11
-0.123514
21
-0.158261
0
LINE
8
BLACK
6
CONTINUOUS
10
-0.123514
20
-0.158261
11
-0.123378
21
-0.158221
0
LINE
8
BLACK
6
CONTINUOUS
10
-0.123378
20
-0.158221
11
-0.117754
21
-0.158221
0
LINE
8
BLACK
6
CONTINUOUS
10
-0.117754
20
-0.158221
11
-0.116701
21
-0.158373
0
LINE
8
BLACK
6
CONTINUOUS
10
-0.122772
20
-0.168063
11
-0.12916
21
-0.16966
0
LINE
8
BLACK
6
CONTINUOUS
10
-0.12916
20
-0.16966
11
-0.131712
21
-0.170936
0
LINE
8
BLACK
6
CONTINUOUS
10
-0.131712
20
-0.170936
11
-0.134075
21
-0.173299
0
LINE
8
BLACK
6
CONTINUOUS
10
-0.134075
20
-0.173299
11
-0.13533
21
-0.177064
0
LINE
8
BLACK
6
CONTINUOUS
10
-0.13533
20
-0.177064
11
-0.13533
21
-0.180718
0
LINE
8
BLACK
6
CONTINUOUS
10
-0.13533
20
-0.180718
11
-0.105802
21
-0.180718
0
LINE
8
BLACK
6
CONTINUOUS
10
-0.105802
20
-0.180718
11
-0.105802
21
-0.177064
0
LINE
8
BLACK
6
CONTINUOUS
10
-0.105802
20
-0.177064
11
-0.107057
21
-0.1733
0
LINE
8
BLACK
6
CONTINUOUS
10
-0.107057
20
-0.1733
11
-0.109421
21
-0.170936
0
LINE
8
BLACK
6
CONTINUOUS
10
-0.109421
20
-0.170936
11
-0.111973
21
-0.16966
0
LINE
8
BLACK
6
CONTINUOUS
10
-0.111973
20
-0.16966
11
-0.11836
21
-0.168063
0
LINE
8
BLACK
6
CONTINUOUS
10
-0.11836
20
-0.168063
11
-0.122772
21
-0.168063
0
LINE
8
BLACK
6
CONTINUOUS
10
1.32136
20
0.105526
11
1.32352
21
0.103364
0
LINE
8
BLACK
6
CONTINUOUS
10
1.32352
20
0.103364
11
1.32431
21
0.100412
0
LINE
8
BLACK
6
CONTINUOUS
10
1.32431
20
0.100412
11
1.32431
21
0.0334824
0
LINE
8
BLACK
6
CONTINUOUS
10
1.32431
20
0.0334824
11
1.32352
21
0.0305296
0
LINE
8
BLACK
6
CONTINUOUS
10
1.32352
20
0.0305296
11
1.32136
21
0.0283681
0
LINE
8
BLACK
6
CONTINUOUS
10
1.32136
20
0.0283681
11
1.31841
21
0.0275769
0
LINE
8
BLACK
6
CONTINUOUS
10
1.31841
20
0.0275769
11
1.31546
21
0.0283681
0
LINE
8
BLACK
6
CONTINUOUS
10
1.31546
20
0.0283681
11
1.31329
21
0.0305296
0
LINE
8
BLACK
6
CONTINUOUS
10
1.31329
20
0.0305296
11
1.3125
21
0.0334824
0
LINE
8
BLACK
6
CONTINUOUS
10
1.3125
20
0.0334824
11
1.3125
21
0.100412
0
LINE
8
BLACK
6
CONTINUOUS
10
1.3125
20
0.100412
11
1.31329
21
0.103364
0
LINE
8
BLACK
6
CONTINUOUS
10
1.31329
20
0.103364
11
1.31546
21
0.105526
0
LINE
8
BLACK
6
CONTINUOUS
10
1.31546
20
0.105526
11
1.31841
21
0.106317
0
LINE
8
BLACK
6
CONTINUOUS
10
1.31841
20
0.106317
11
1.32136
21
0.105526
0
LINE
8
BLACK
6
CONTINUOUS
10
1.288
20
0.105926
11
1.28947
21
0.105539
0
LINE
8
BLACK
6
CONTINUOUS
10
1.28947
20
0.105539
11
1.28948
21
0.105529
0
LINE
8
BLACK
6
CONTINUOUS
10
1.28948
20
0.105529
11
1.28949
21
0.105526
0
LINE
8
BLACK
6
CONTINUOUS
10
1.28949
20
0.105526
11
1.29056
21
0.104456
0
LINE
8
BLACK
6
CONTINUOUS
10
1.29056
20
0.104456
11
1.29164
21
0.103387
0
LINE
8
BLACK
6
CONTINUOUS
10
1.29164
20
0.103387
11
1.29164
21
0.103374
0
LINE
8
BLACK
6
CONTINUOUS
10
1.29164
20
0.103374
11
1.29165
21
0.103364
0
LINE
8
BLACK
6
CONTINUOUS
10
1.29165
20
0.103364
11
1.29204
21
0.101904
0
LINE
8
BLACK
6
CONTINUOUS
10
1.29204
20
0.101904
11
1.29244
21
0.100438
0
LINE
8
BLACK
6
CONTINUOUS
10
1.29244
20
0.100438
11
1.29244
21
0.100425
0
LINE
8
BLACK
6
CONTINUOUS
10
1.29244
20
0.100425
11
1.29244
21
0.100412
0
LINE
8
BLACK
6
CONTINUOUS
10
1.29244
20
0.100412
11
1.29244
21
0.0334824
0
LINE
8
BLACK
6
CONTINUOUS
10
1.29244
20
0.0334824
11
1.29165
21
0.0305296
0
LINE
8
BLACK
6
CONTINUOUS
10
1.29165
20
0.0305296
11
1.28949
21
0.0283681
0
LINE
8
BLACK
6
CONTINUOUS
10
1.28949
20
0.0283681
11
1.28654
21
0.0275769
0
LINE
8
BLACK
6
CONTINUOUS
10
1.28654
20
0.0275769
11
1.28359
21
0.0283681
0
LINE
8
BLACK
6
CONTINUOUS
10
1.28359
20
0.0283681
11
1.28142
21
0.0305296
0
LINE
8
BLACK
6
CONTINUOUS
10
1.28142
20
0.0305296
11
1.28063
21
0.0334824
0
LINE
8
BLACK
6
CONTINUOUS
10
1.28063
20
0.0334824
11
1.28063
21
0.0781739
0
LINE
8
BLACK
6
CONTINUOUS
10
1.28063
20
0.0781739
11
1.25342
21
0.0305524
0
LINE
8
BLACK
6
CONTINUOUS
10
1.25342
20
0.0305524
11
1.25341
21
0.0305428
0
LINE
8
BLACK
6
CONTINUOUS
10
1.25341
20
0.0305428
11
1.25341
21
0.0305296
0
LINE
8
BLACK
6
CONTINUOUS
10
1.25341
20
0.0305296
11
1.25234
21
0.029458
0
LINE
8
BLACK
6
CONTINUOUS
10
1.25234
20
0.029458
11
1.25127
21
0.0283813
0
LINE
8
BLACK
6
CONTINUOUS
10
1.25127
20
0.0283813
11
1.25126
21
0.0283777
0
LINE
8
BLACK
6
CONTINUOUS
10
1.25126
20
0.0283777
11
1.25125
21
0.0283681
0
LINE
8
BLACK
6
CONTINUOUS
10
1.25125
20
0.0283681
11
1.24978
21
0.0279767
0
LINE
8
BLACK
6
CONTINUOUS
10
1.24978
20
0.0279767
11
1.24832
21
0.0275769
0
LINE
8
BLACK
6
CONTINUOUS
10
1.24832
20
0.0275769
11
1.24831
21
0.0275804
0
LINE
8
BLACK
6
CONTINUOUS
10
1.24831
20
0.0275804
11
1.24829
21
0.0275769
0
LINE
8
BLACK
6
CONTINUOUS
10
1.24829
20
0.0275769
11
1.24683
21
0.0279694
0
LINE
8
BLACK
6
CONTINUOUS
10
1.24683
20
0.0279694
11
1.24536
21
0.028355
0
LINE
8
BLACK
6
CONTINUOUS
10
1.24536
20
0.028355
11
1.24535
21
0.0283645
0
LINE
8
BLACK
6
CONTINUOUS
10
1.24535
20
0.0283645
11
1.24534
21
0.0283681
0
LINE
8
BLACK
6
CONTINUOUS
10
1.24534
20
0.0283681
11
1.24427
21
0.0294397
0
LINE
8
BLACK
6
CONTINUOUS
10
1.24427
20
0.0294397
11
1.24319
21
0.0305069
0
LINE
8
BLACK
6
CONTINUOUS
10
1.24319
20
0.0305069
11
1.24319
21
0.03052
0
LINE
8
BLACK
6
CONTINUOUS
10
1.24319
20
0.03052
11
1.24318
21
0.0305296
0
LINE
8
BLACK
6
CONTINUOUS
10
1.24318
20
0.0305296
11
1.24279
21
0.0319903
0
LINE
8
BLACK
6
CONTINUOUS
10
1.24279
20
0.0319903
11
1.24239
21
0.0334561
0
LINE
8
BLACK
6
CONTINUOUS
10
1.24239
20
0.0334561
11
1.24239
21
0.0334693
0
LINE
8
BLACK
6
CONTINUOUS
10
1.24239
20
0.0334693
11
1.24239
21
0.0334824
0
LINE
8
BLACK
6
CONTINUOUS
10
1.24239
20
0.0334824
11
1.24239
21
0.100412
0
LINE
8
BLACK
6
CONTINUOUS
10
1.24239
20
0.100412
11
1.24318
21
0.103364
0
LINE
8
BLACK
6
CONTINUOUS
10
1.24318
20
0.103364
11
1.24534
21
0.105526
0
LINE
8
BLACK
6
CONTINUOUS
10
1.24534
20
0.105526
11
1.24829
21
0.106317
0
LINE
8
BLACK
6
CONTINUOUS
10
1.24829
20
0.106317
11
1.25125
21
0.105526
0
LINE
8
BLACK
6
CONTINUOUS
10
1.25125
20
0.105526
11
1.25341
21
0.103364
0
LINE
8
BLACK
6
CONTINUOUS
10
1.25341
20
0.103364
11
1.2542
21
0.100412
0
LINE
8
BLACK
6
CONTINUOUS
10
1.2542
20
0.100412
11
1.2542
21
0.05572
0
LINE
8
BLACK
6
CONTINUOUS
10
1.2542
20
0.05572
11
1.28141
21
0.103341
0
LINE
8
BLACK
6
CONTINUOUS
10
1.28141
20
0.103341
11
1.28142
21
0.103351
0
LINE
8
BLACK
6
CONTINUOUS
10
1.28142
20
0.103351
11
1.28142
21
0.103364
0
LINE
8
BLACK
6
CONTINUOUS
10
1.28142
20
0.103364
11
1.2825
21
0.104436
0
LINE
8
BLACK
6
CONTINUOUS
10
1.2825
20
0.104436
11
1.28356
21
0.105513
0
LINE
8
BLACK
6
CONTINUOUS
10
1.28356
20
0.105513
11
1.28358
21
0.105516
0
LINE
8
BLACK
6
CONTINUOUS
10
1.28358
20
0.105516
11
1.28359
21
0.105526
0
LINE
8
BLACK
6
CONTINUOUS
10
1.28359
20
0.105526
11
1.28505
21
0.105917
0
LINE
8
BLACK
6
CONTINUOUS
10
1.28505
20
0.105917
11
1.28651
21
0.106317
0
LINE
8
BLACK
6
CONTINUOUS
10
1.28651
20
0.106317
11
1.28652
21
0.106314
0
LINE
8
BLACK
6
CONTINUOUS
10
1.28652
20
0.106314
11
1.28654
21
0.106317
0
LINE
8
BLACK
6
CONTINUOUS
10
1.28654
20
0.106317
11
1.288
21
0.105926
0
LINE
8
BLACK
6
CONTINUOUS
10
0.77318
20
0.105526
11
0.775342
21
0.103364
0
LINE
8
BLACK
6
CONTINUOUS
10
0.775342
20
0.103364
11
0.776133
21
0.100412
0
LINE
8
BLACK
6
CONTINUOUS
10
0.776133
20
0.100412
11
0.775342
21
0.0974588
0
LINE
8
BLACK
6
CONTINUOUS
10
0.775342
20
0.0974588
11
0.77318
21
0.0952972
0
LINE
8
BLACK
6
CONTINUOUS
10
0.77318
20
0.0952972
11
0.770228
21
0.094506
0
LINE
8
BLACK
6
CONTINUOUS
10
0.770228
20
0.094506
11
0.74181
21
0.094506
0
LINE
8
BLACK
6
CONTINUOUS
10
0.74181
20
0.094506
11
0.755549
21
0.0788035
0
LINE
8
BLACK
6
CONTINUOUS
10
0.755549
20
0.0788035
11
0.755807
21
0.07828
0
LINE
8
BLACK
6
CONTINUOUS
10
0.755807
20
0.07828
11
0.756219
21
0.0778675
0
LINE
8
BLACK
6
CONTINUOUS
10
0.756219
20
0.0778675
11
0.75647
21
0.0769306
0
LINE
8
BLACK
6
CONTINUOUS
10
0.75647
20
0.0769306
11
0.756898
21
0.0760604
0
LINE
8
BLACK
6
CONTINUOUS
10
0.756898
20
0.0760604
11
0.756859
21
0.0754783
0
LINE
8
BLACK
6
CONTINUOUS
10
0.756859
20
0.0754783
11
0.75701
21
0.0749147
0
LINE
8
BLACK
6
CONTINUOUS
10
0.75701
20
0.0749147
11
0.756759
21
0.073978
0
LINE
8
BLACK
6
CONTINUOUS
10
0.756759
20
0.073978
11
0.756695
21
0.0730102
0
LINE
8
BLACK
6
CONTINUOUS
10
0.756695
20
0.0730102
11
0.75637
21
0.0725255
0
LINE
8
BLACK
6
CONTINUOUS
10
0.75637
20
0.0725255
11
0.756219
21
0.071962
0
LINE
8
BLACK
6
CONTINUOUS
10
0.756219
20
0.071962
11
0.755534
21
0.0712762
0
LINE
8
BLACK
6
CONTINUOUS
10
0.755534
20
0.0712762
11
0.754994
21
0.0704704
0
LINE
8
BLACK
6
CONTINUOUS
10
0.754994
20
0.0704704
11
0.75447
21
0.070213
0
LINE
8
BLACK
6
CONTINUOUS
10
0.75447
20
0.070213
11
0.754058
21
0.0698004
0
LINE
8
BLACK
6
CONTINUOUS
10
0.754058
20
0.0698004
11
0.753121
21
0.0695494
0
LINE
8
BLACK
6
CONTINUOUS
10
0.753121
20
0.0695494
11
0.752251
21
0.0691214
0
LINE
8
BLACK
6
CONTINUOUS
10
0.752251
20
0.0691214
11
0.751669
21
0.0691602
0
LINE
8
BLACK
6
CONTINUOUS
10
0.751669
20
0.0691602
11
0.751105
21
0.0690092
0
LINE
8
BLACK
6
CONTINUOUS
10
0.751105
20
0.0690092
11
0.742938
21
0.0690092
0
LINE
8
BLACK
6
CONTINUOUS
10
0.742938
20
0.0690092
11
0.738668
21
0.0668741
0
LINE
8
BLACK
6
CONTINUOUS
10
0.738668
20
0.0668741
11
0.736836
21
0.0650423
0
LINE
8
BLACK
6
CONTINUOUS
10
0.736836
20
0.0650423
11
0.734701
21
0.0607722
0
LINE
8
BLACK
6
CONTINUOUS
10
0.734701
20
0.0607722
11
0.734701
21
0.0476249
0
LINE
8
BLACK
6
CONTINUOUS
10
0.734701
20
0.0476249
11
0.736836
21
0.0433548
0
LINE
8
BLACK
6
CONTINUOUS
10
0.736836
20
0.0433548
11
0.738668
21
0.041523
0
LINE
8
BLACK
6
CONTINUOUS
10
0.738668
20
0.041523
11
0.742938
21
0.0393879
0
LINE
8
BLACK
6
CONTINUOUS
10
0.742938
20
0.0393879
11
0.759272
21
0.0393879
0
LINE
8
BLACK
6
CONTINUOUS
10
0.759272
20
0.0393879
11
0.763542
21
0.041523
0
LINE
8
BLACK
6
CONTINUOUS
10
0.763542
20
0.041523
11
0.766052
21
0.0440324
0
LINE
8
BLACK
6
CONTINUOUS
10
0.766052
20
0.0440324
11
0.768699
21
0.0455609
0
LINE
8
BLACK
6
CONTINUOUS
10
0.768699
20
0.0455609
11
0.771756
21
0.0455609
0
LINE
8
BLACK
6
CONTINUOUS
10
0.771756
20
0.0455609
11
0.774403
21
0.0440325
0
LINE
8
BLACK
6
CONTINUOUS
10
0.774403
20
0.0440325
11
0.775932
21
0.0413851
0
LINE
8
BLACK
6
CONTINUOUS
10
0.775932
20
0.0413851
11
0.775932
21
0.0383282
0
LINE
8
BLACK
6
CONTINUOUS
10
0.775932
20
0.0383282
11
0.774403
21
0.0356808
0
LINE
8
BLACK
6
CONTINUOUS
10
0.774403
20
0.0356808
11
0.771216
21
0.0324937
0
LINE
8
BLACK
6
CONTINUOUS
10
0.771216
20
0.0324937
11
0.770393
21
0.0320183
0
LINE
8
BLACK
6
CONTINUOUS
10
0.770393
20
0.0320183
11
0.769681
21
0.0313874
0
LINE
8
BLACK
6
CONTINUOUS
10
0.769681
20
0.0313874
11
0.763307
21
0.0282004
0
LINE
8
BLACK
6
CONTINUOUS
10
0.763307
20
0.0282004
11
0.761977
21
0.0279282
0
LINE
8
BLACK
6
CONTINUOUS
10
0.761977
20
0.0279282
11
0.760666
21
0.0275769
0
LINE
8
BLACK
6
CONTINUOUS
10
0.760666
20
0.0275769
11
0.741544
21
0.0275769
0
LINE
8
BLACK
6
CONTINUOUS
10
0.741544
20
0.0275769
11
0.740233
21
0.0279282
0
LINE
8
BLACK
6
CONTINUOUS
10
0.740233
20
0.0279282
11
0.738903
21
0.0282004
0
LINE
8
BLACK
6
CONTINUOUS
10
0.738903
20
0.0282004
11
0.732528
21
0.0313874
0
LINE
8
BLACK
6
CONTINUOUS
10
0.732528
20
0.0313874
11
0.731817
21
0.0320183
0
LINE
8
BLACK
6
CONTINUOUS
10
0.731817
20
0.0320183
11
0.730994
21
0.0324937
0
LINE
8
BLACK
6
CONTINUOUS
10
0.730994
20
0.0324937
11
0.727806
21
0.0356808
0
LINE
8
BLACK
6
CONTINUOUS
10
0.727806
20
0.0356808
11
0.727331
21
0.0365042
0
LINE
8
BLACK
6
CONTINUOUS
10
0.727331
20
0.0365042
11
0.7267
21
0.0372156
0
LINE
8
BLACK
6
CONTINUOUS
10
0.7267
20
0.0372156
11
0.723513
21
0.0435898
0
LINE
8
BLACK
6
CONTINUOUS
10
0.723513
20
0.0435898
11
0.723241
21
0.0449197
0
LINE
8
BLACK
6
CONTINUOUS
10
0.723241
20
0.0449197
11
0.72289
21
0.0462308
0
LINE
8
BLACK
6
CONTINUOUS
10
0.72289
20
0.0462308
11
0.72289
21
0.0621663
0
LINE
8
BLACK
6
CONTINUOUS
10
0.72289
20
0.0621663
11
0.723241
21
0.0634774
0
LINE
8
BLACK
6
CONTINUOUS
10
0.723241
20
0.0634774
11
0.723513
21
0.0648073
0
LINE
8
BLACK
6
CONTINUOUS
10
0.723513
20
0.0648073
11
0.7267
21
0.0711815
0
LINE
8
BLACK
6
CONTINUOUS
10
0.7267
20
0.0711815
11
0.727331
21
0.071893
0
LINE
8
BLACK
6
CONTINUOUS
10
0.727331
20
0.071893
11
0.727807
21
0.0727163
0
LINE
8
BLACK
6
CONTINUOUS
10
0.727807
20
0.0727163
11
0.730994
21
0.0759034
0
LINE
8
BLACK
6
CONTINUOUS
10
0.730994
20
0.0759034
11
0.731817
21
0.0763789
0
LINE
8
BLACK
6
CONTINUOUS
10
0.731817
20
0.0763789
11
0.732528
21
0.0770096
0
LINE
8
BLACK
6
CONTINUOUS
10
0.732528
20
0.0770096
11
0.738717
21
0.0801041
0
LINE
8
BLACK
6
CONTINUOUS
10
0.738717
20
0.0801041
11
0.724351
21
0.0965227
0
LINE
8
BLACK
6
CONTINUOUS
10
0.724351
20
0.0965227
11
0.724093
21
0.0970463
0
LINE
8
BLACK
6
CONTINUOUS
10
0.724093
20
0.0970463
11
0.723681
21
0.0974588
0
LINE
8
BLACK
6
CONTINUOUS
10
0.723681
20
0.0974588
11
0.72343
21
0.0983955
0
LINE
8
BLACK
6
CONTINUOUS
10
0.72343
20
0.0983955
11
0.723002
21
0.0992659
0
LINE
8
BLACK
6
CONTINUOUS
10
0.723002
20
0.0992659
11
0.723041
21
0.0998481
0
LINE
8
BLACK
6
CONTINUOUS
10
0.723041
20
0.0998481
11
0.72289
21
0.100412
0
LINE
8
BLACK
6
CONTINUOUS
10
0.72289
20
0.100412
11
0.723141
21
0.101348
0
LINE
8
BLACK
6
CONTINUOUS
10
0.723141
20
0.101348
11
0.723205
21
0.102316
0
LINE
8
BLACK
6
CONTINUOUS
10
0.723205
20
0.102316
11
0.72353
21
0.102801
0
LINE
8
BLACK
6
CONTINUOUS
10
0.72353
20
0.102801
11
0.723681
21
0.103364
0
LINE
8
BLACK
6
CONTINUOUS
10
0.723681
20
0.103364
11
0.724367
21
0.10405
0
LINE
8
BLACK
6
CONTINUOUS
10
0.724367
20
0.10405
11
0.724906
21
0.104856
0
LINE
8
BLACK
6
CONTINUOUS
10
0.724906
20
0.104856
11
0.72543
21
0.105113
0
LINE
8
BLACK
6
CONTINUOUS
10
0.72543
20
0.105113
11
0.725843
21
0.105526
0
LINE
8
BLACK
6
CONTINUOUS
10
0.725843
20
0.105526
11
0.726779
21
0.105777
0
LINE
8
BLACK
6
CONTINUOUS
10
0.726779
20
0.105777
11
0.72765
21
0.106205
0
LINE
8
BLACK
6
CONTINUOUS
10
0.72765
20
0.106205
11
0.728232
21
0.106166
0
LINE
8
BLACK
6
CONTINUOUS
10
0.728232
20
0.106166
11
0.728795
21
0.106317
0
LINE
8
BLACK
6
CONTINUOUS
10
0.728795
20
0.106317
11
0.770228
21
0.106317
0
LINE
8
BLACK
6
CONTINUOUS
10
0.770228
20
0.106317
11
0.77318
21
0.105526
0
LINE
8
BLACK
6
CONTINUOUS
10
1.21937
20
0.105526
11
1.22154
21
0.103364
0
LINE
8
BLACK
6
CONTINUOUS
10
1.22154
20
0.103364
11
1.22233
21
0.100412
0
LINE
8
BLACK
6
CONTINUOUS
10
1.22233
20
0.100412
11
1.22233
21
0.0334824
0
LINE
8
BLACK
6
CONTINUOUS
10
1.22233
20
0.0334824
11
1.22154
21
0.0305296
0
LINE
8
BLACK
6
CONTINUOUS
10
1.22154
20
0.0305296
11
1.21937
21
0.0283681
0
LINE
8
BLACK
6
CONTINUOUS
10
1.21937
20
0.0283681
11
1.21642
21
0.0275769
0
LINE
8
BLACK
6
CONTINUOUS
10
1.21642
20
0.0275769
11
1.21347
21
0.0283681
0
LINE
8
BLACK
6
CONTINUOUS
10
1.21347
20
0.0283681
11
1.21131
21
0.0305296
0
LINE
8
BLACK
6
CONTINUOUS
10
1.21131
20
0.0305296
11
1.21052
21
0.0334824
0
LINE
8
BLACK
6
CONTINUOUS
10
1.21052
20
0.0334824
11
1.21052
21
0.062635
0
LINE
8
BLACK
6
CONTINUOUS
10
1.21052
20
0.062635
11
1.18408
21
0.062635
0
LINE
8
BLACK
6
CONTINUOUS
10
1.18408
20
0.062635
11
1.18408
21
0.0334824
0
LINE
8
BLACK
6
CONTINUOUS
10
1.18408
20
0.0334824
11
1.18329
21
0.0305296
0
LINE
8
BLACK
6
CONTINUOUS
10
1.18329
20
0.0305296
11
1.18113
21
0.0283681
0
LINE
8
BLACK
6
CONTINUOUS
10
1.18113
20
0.0283681
11
1.17818
21
0.0275769
0
LINE
8
BLACK
6
CONTINUOUS
10
1.17818
20
0.0275769
11
1.17522
21
0.0283681
0
LINE
8
BLACK
6
CONTINUOUS
10
1.17522
20
0.0283681
11
1.17306
21
0.0305296
0
LINE
8
BLACK
6
CONTINUOUS
10
1.17306
20
0.0305296
11
1.17227
21
0.0334824
0
LINE
8
BLACK
6
CONTINUOUS
10
1.17227
20
0.0334824
11
1.17227
21
0.100412
0
LINE
8
BLACK
6
CONTINUOUS
10
1.17227
20
0.100412
11
1.17306
21
0.103364
0
LINE
8
BLACK
6
CONTINUOUS
10
1.17306
20
0.103364
11
1.17522
21
0.105526
0
LINE
8
BLACK
6
CONTINUOUS
10
1.17522
20
0.105526
11
1.17818
21
0.106317
0
LINE
8
BLACK
6
CONTINUOUS
10
1.17818
20
0.106317
11
1.18113
21
0.105526
0
LINE
8
BLACK
6
CONTINUOUS
10
1.18113
20
0.105526
11
1.18329
21
0.103364
0
LINE
8
BLACK
6
CONTINUOUS
10
1.18329
20
0.103364
11
1.18408
21
0.100412
0
LINE
8
BLACK
6
CONTINUOUS
10
1.18408
20
0.100412
11
1.18408
21
0.074446
0
LINE
8
BLACK
6
CONTINUOUS
10
1.18408
20
0.074446
11
1.21052
21
0.074446
0
LINE
8
BLACK
6
CONTINUOUS
10
1.21052
20
0.074446
11
1.21052
21
0.100412
0
LINE
8
BLACK
6
CONTINUOUS
10
1.21052
20
0.100412
11
1.21131
21
0.103364
0
LINE
8
BLACK
6
CONTINUOUS
10
1.21131
20
0.103364
11
1.21347
21
0.105526
0
LINE
8
BLACK
6
CONTINUOUS
10
1.21347
20
0.105526
11
1.21642
21
0.106317
0
LINE
8
BLACK
6
CONTINUOUS
10
1.21642
20
0.106317
11
1.21937
21
0.105526
0
LINE
8
BLACK
6
CONTINUOUS
10
1.38829
20
0.105526
11
1.39045
21
0.103364
0
LINE
8
BLACK
6
CONTINUOUS
10
1.39045
20
0.103364
11
1.39124
21
0.100412
0
LINE
8
BLACK
6
CONTINUOUS
10
1.39124
20
0.100412
11
1.39124
21
0.0334824
0
LINE
8
BLACK
6
CONTINUOUS
10
1.39124
20
0.0334824
11
1.39045
21
0.0305296
0
LINE
8
BLACK
6
CONTINUOUS
10
1.39045
20
0.0305296
11
1.38829
21
0.0283681
0
LINE
8
BLACK
6
CONTINUOUS
10
1.38829
20
0.0283681
11
1.38534
21
0.0275769
0
LINE
8
BLACK
6
CONTINUOUS
10
1.38534
20
0.0275769
11
1.38239
21
0.0283681
0
LINE
8
BLACK
6
CONTINUOUS
10
1.38239
20
0.0283681
11
1.38022
21
0.0305296
0
LINE
8
BLACK
6
CONTINUOUS
10
1.38022
20
0.0305296
11
1.37943
21
0.0334824
0
LINE
8
BLACK
6
CONTINUOUS
10
1.37943
20
0.0334824
11
1.37943
21
0.0594479
0
LINE
8
BLACK
6
CONTINUOUS
10
1.37943
20
0.0594479
11
1.35984
21
0.0594479
0
LINE
8
BLACK
6
CONTINUOUS
10
1.35984
20
0.0594479
11
1.35853
21
0.0597993
0
LINE
8
BLACK
6
CONTINUOUS
10
1.35853
20
0.0597993
11
1.3572
21
0.0600714
0
LINE
8
BLACK
6
CONTINUOUS
10
1.3572
20
0.0600714
11
1.35083
21
0.0632585
0
LINE
8
BLACK
6
CONTINUOUS
10
1.35083
20
0.0632585
11
1.35011
21
0.0638893
0
LINE
8
BLACK
6
CONTINUOUS
10
1.35011
20
0.0638893
11
1.34929
21
0.0643647
0
LINE
8
BLACK
6
CONTINUOUS
10
1.34929
20
0.0643647
11
1.3461
21
0.0675518
0
LINE
8
BLACK
6
CONTINUOUS
10
1.3461
20
0.0675518
11
1.34563
21
0.0683751
0
LINE
8
BLACK
6
CONTINUOUS
10
1.34563
20
0.0683751
11
1.345
21
0.0690865
0
LINE
8
BLACK
6
CONTINUOUS
10
1.345
20
0.0690865
11
1.34181
21
0.0754608
0
LINE
8
BLACK
6
CONTINUOUS
10
1.34181
20
0.0754608
11
1.34154
21
0.0767907
0
LINE
8
BLACK
6
CONTINUOUS
10
1.34154
20
0.0767907
11
1.34119
21
0.0781018
0
LINE
8
BLACK
6
CONTINUOUS
10
1.34119
20
0.0781018
11
1.34119
21
0.0876631
0
LINE
8
BLACK
6
CONTINUOUS
10
1.34119
20
0.0876631
11
1.34154
21
0.0889742
0
LINE
8
BLACK
6
CONTINUOUS
10
1.34154
20
0.0889742
11
1.34181
21
0.0903041
0
LINE
8
BLACK
6
CONTINUOUS
10
1.34181
20
0.0903041
11
1.345
21
0.0966784
0
LINE
8
BLACK
6
CONTINUOUS
10
1.345
20
0.0966784
11
1.34563
21
0.0973898
0
LINE
8
BLACK
6
CONTINUOUS
10
1.34563
20
0.0973898
11
1.3461
21
0.0982131
0
LINE
8
BLACK
6
CONTINUOUS
10
1.3461
20
0.0982131
11
1.34929
21
0.1014
0
LINE
8
BLACK
6
CONTINUOUS
10
1.34929
20
0.1014
11
1.35011
21
0.101876
0
LINE
8
BLACK
6
CONTINUOUS
10
1.35011
20
0.101876
11
1.35083
21
0.102506
0
LINE
8
BLACK
6
CONTINUOUS
10
1.35083
20
0.102506
11
1.3572
21
0.105694
0
LINE
8
BLACK
6
CONTINUOUS
10
1.3572
20
0.105694
11
1.35853
21
0.105966
0
LINE
8
BLACK
6
CONTINUOUS
10
1.35853
20
0.105966
11
1.35984
21
0.106317
0
LINE
8
BLACK
6
CONTINUOUS
10
1.35984
20
0.106317
11
1.38534
21
0.106317
0
LINE
8
BLACK
6
CONTINUOUS
10
1.38534
20
0.106317
11
1.38829
21
0.105526
0
LINE
8
BLACK
6
CONTINUOUS
10
1.36124
20
0.094506
11
1.35697
21
0.0923709
0
LINE
8
BLACK
6
CONTINUOUS
10
1.35697
20
0.0923709
11
1.35513
21
0.0905391
0
LINE
8
BLACK
6
CONTINUOUS
10
1.35513
20
0.0905391
11
1.353
21
0.086269
0
LINE
8
BLACK
6
CONTINUOUS
10
1.353
20
0.086269
11
1.353
21
0.0794959
0
LINE
8
BLACK
6
CONTINUOUS
10
1.353
20
0.0794959
11
1.35513
21
0.0752258
0
LINE
8
BLACK
6
CONTINUOUS
10
1.35513
20
0.0752258
11
1.35697
21
0.073394
0
LINE
8
BLACK
6
CONTINUOUS
10
1.35697
20
0.073394
11
1.36124
21
0.0712589
0
LINE
8
BLACK
6
CONTINUOUS
10
1.36124
20
0.0712589
11
1.37943
21
0.0712589
0
LINE
8
BLACK
6
CONTINUOUS
10
1.37943
20
0.0712589
11
1.37943
21
0.094506
0
LINE
8
BLACK
6
CONTINUOUS
10
1.37943
20
0.094506
11
1.36124
21
0.094506
0
LINE
8
BLACK
6
CONTINUOUS
10
0.897477
20
0.105526
11
0.899639
21
0.103364
0
LINE
8
BLACK
6
CONTINUOUS
10
0.899639
20
0.103364
11
0.90043
21
0.100412
0
LINE
8
BLACK
6
CONTINUOUS
10
0.90043
20
0.100412
11
0.90043
21
0.0334824
0
LINE
8
BLACK
6
CONTINUOUS
10
0.90043
20
0.0334824
11
0.899639
21
0.0305296
0
LINE
8
BLACK
6
CONTINUOUS
10
0.899639
20
0.0305296
11
0.897477
21
0.0283681
0
LINE
8
BLACK
6
CONTINUOUS
10
0.897477
20
0.0283681
11
0.894525
21
0.0275769
0
LINE
8
BLACK
6
CONTINUOUS
10
0.894525
20
0.0275769
11
0.891572
21
0.0283681
0
LINE
8
BLACK
6
CONTINUOUS
10
0.891572
20
0.0283681
11
0.88941
21
0.0305296
0
LINE
8
BLACK
6
CONTINUOUS
10
0.88941
20
0.0305296
11
0.888619
21
0.0334824
0
LINE
8
BLACK
6
CONTINUOUS
10
0.888619
20
0.0334824
11
0.888619
21
0.0594479
0
LINE
8
BLACK
6
CONTINUOUS
10
0.888619
20
0.0594479
11
0.881664
21
0.0594479
0
LINE
8
BLACK
6
CONTINUOUS
10
0.881664
20
0.0594479
11
0.861117
21
0.0300958
0
LINE
8
BLACK
6
CONTINUOUS
10
0.861117
20
0.0300958
11
0.858776
21
0.0281306
0
LINE
8
BLACK
6
CONTINUOUS
10
0.858776
20
0.0281306
11
0.855765
21
0.0275993
0
LINE
8
BLACK
6
CONTINUOUS
10
0.855765
20
0.0275993
11
0.852893
21
0.0286444
0
LINE
8
BLACK
6
CONTINUOUS
10
0.852893
20
0.0286444
11
0.850927
21
0.0309859
0
LINE
8
BLACK
6
CONTINUOUS
10
0.850927
20
0.0309859
11
0.850396
21
0.0339963
0
LINE
8
BLACK
6
CONTINUOUS
10
0.850396
20
0.0339963
11
0.851441
21
0.036869
0
LINE
8
BLACK
6
CONTINUOUS
10
0.851441
20
0.036869
11
0.867521
21
0.0598393
0
LINE
8
BLACK
6
CONTINUOUS
10
0.867521
20
0.0598393
11
0.866387
21
0.0600714
0
LINE
8
BLACK
6
CONTINUOUS
10
0.866387
20
0.0600714
11
0.860013
21
0.0632585
0
LINE
8
BLACK
6
CONTINUOUS
10
0.860013
20
0.0632585
11
0.859301
21
0.0638893
0
LINE
8
BLACK
6
CONTINUOUS
10
0.859301
20
0.0638893
11
0.858478
21
0.0643646
0
LINE
8
BLACK
6
CONTINUOUS
10
0.858478
20
0.0643646
11
0.855291
21
0.0675517
0
LINE
8
BLACK
6
CONTINUOUS
10
0.855291
20
0.0675517
11
0.854815
21
0.0683752
0
LINE
8
BLACK
6
CONTINUOUS
10
0.854815
20
0.0683752
11
0.854184
21
0.0690866
0
LINE
8
BLACK
6
CONTINUOUS
10
0.854184
20
0.0690866
11
0.850997
21
0.0754608
0
LINE
8
BLACK
6
CONTINUOUS
10
0.850997
20
0.0754608
11
0.850725
21
0.0767907
0
LINE
8
BLACK
6
CONTINUOUS
10
0.850725
20
0.0767907
11
0.850374
21
0.0781018
0
LINE
8
BLACK
6
CONTINUOUS
10
0.850374
20
0.0781018
11
0.850374
21
0.0876631
0
LINE
8
BLACK
6
CONTINUOUS
10
0.850374
20
0.0876631
11
0.850725
21
0.0889743
0
LINE
8
BLACK
6
CONTINUOUS
10
0.850725
20
0.0889743
11
0.850997
21
0.0903041
0
LINE
8
BLACK
6
CONTINUOUS
10
0.850997
20
0.0903041
11
0.854184
21
0.0966783
0
LINE
8
BLACK
6
CONTINUOUS
10
0.854184
20
0.0966783
11
0.854815
21
0.0973898
0
LINE
8
BLACK
6
CONTINUOUS
10
0.854815
20
0.0973898
11
0.855291
21
0.0982132
0
LINE
8
BLACK
6
CONTINUOUS
10
0.855291
20
0.0982132
11
0.858478
21
0.1014
0
LINE
8
BLACK
6
CONTINUOUS
10
0.858478
20
0.1014
11
0.859301
21
0.101876
0
LINE
8
BLACK
6
CONTINUOUS
10
0.859301
20
0.101876
11
0.860012
21
0.102506
0
LINE
8
BLACK
6
CONTINUOUS
10
0.860012
20
0.102506
11
0.866387
21
0.105694
0
LINE
8
BLACK
6
CONTINUOUS
10
0.866387
20
0.105694
11
0.867717
21
0.105966
0
LINE
8
BLACK
6
CONTINUOUS
10
0.867717
20
0.105966
11
0.869028
21
0.106317
0
LINE
8
BLACK
6
CONTINUOUS
10
0.869028
20
0.106317
11
0.894525
21
0.106317
0
LINE
8
BLACK
6
CONTINUOUS
10
0.894525
20
0.106317
11
0.897477
21
0.105526
0
LINE
8
BLACK
6
CONTINUOUS
10
0.870422
20
0.094506
11
0.866152
21
0.0923709
0
LINE
8
BLACK
6
CONTINUOUS
10
0.866152
20
0.0923709
11
0.86432
21
0.0905391
0
LINE
8
BLACK
6
CONTINUOUS
10
0.86432
20
0.0905391
11
0.862185
21
0.086269
0
LINE
8
BLACK
6
CONTINUOUS
10
0.862185
20
0.086269
11
0.862185
21
0.0794959
0
LINE
8
BLACK
6
CONTINUOUS
10
0.862185
20
0.0794959
11
0.86432
21
0.0752258
0
LINE
8
BLACK
6
CONTINUOUS
10
0.86432
20
0.0752258
11
0.866152
21
0.073394
0
LINE
8
BLACK
6
CONTINUOUS
10
0.866152
20
0.073394
11
0.870422
21
0.0712589
0
LINE
8
BLACK
6
CONTINUOUS
10
0.870422
20
0.0712589
11
0.888619
21
0.0712589
0
LINE
8
BLACK
6
CONTINUOUS
10
0.888619
20
0.0712589
11
0.888619
21
0.094506
0
LINE
8
BLACK
6
CONTINUOUS
10
0.888619
20
0.094506
11
0.870422
21
0.094506
0
LINE
8
BLACK
6
CONTINUOUS
10
1.00515
20
0.027823
11
1.00421
21
0.0278799
0
LINE
8
BLACK
6
CONTINUOUS
10
1.00421
20
0.0278799
11
0.994644
21
0.031067
0
LINE
8
BLACK
6
CONTINUOUS
10
0.994644
20
0.031067
11
0.993511
21
0.031815
0
LINE
8
BLACK
6
CONTINUOUS
10
0.993511
20
0.031815
11
0.992336
21
0.0324937
0
LINE
8
BLACK
6
CONTINUOUS
10
0.992336
20
0.0324937
11
0.985962
21
0.0388679
0
LINE
8
BLACK
6
CONTINUOUS
10
0.985962
20
0.0388679
11
0.985486
21
0.0396912
0
LINE
8
BLACK
6
CONTINUOUS
10
0.985486
20
0.0396912
11
0.984856
21
0.0404026
0
LINE
8
BLACK
6
CONTINUOUS
10
0.984856
20
0.0404026
11
0.981668
21
0.0467769
0
LINE
8
BLACK
6
CONTINUOUS
10
0.981668
20
0.0467769
11
0.981538
21
0.0474156
0
LINE
8
BLACK
6
CONTINUOUS
10
0.981538
20
0.0474156
11
0.981221
21
0.0479856
0
LINE
8
BLACK
6
CONTINUOUS
10
0.981221
20
0.0479856
11
0.978034
21
0.060734
0
LINE
8
BLACK
6
CONTINUOUS
10
0.978034
20
0.060734
11
0.978046
21
0.0614625
0
LINE
8
BLACK
6
CONTINUOUS
10
0.978046
20
0.0614625
11
0.977858
21
0.0621663
0
LINE
8
BLACK
6
CONTINUOUS
10
0.977858
20
0.0621663
11
0.977858
21
0.0717276
0
LINE
8
BLACK
6
CONTINUOUS
10
0.977858
20
0.0717276
11
0.978046
21
0.0724314
0
LINE
8
BLACK
6
CONTINUOUS
10
0.978046
20
0.0724314
11
0.978034
21
0.0731599
0
LINE
8
BLACK
6
CONTINUOUS
10
0.978034
20
0.0731599
11
0.981221
21
0.0859083
0
LINE
8
BLACK
6
CONTINUOUS
10
0.981221
20
0.0859083
11
0.981538
21
0.0864783
0
LINE
8
BLACK
6
CONTINUOUS
10
0.981538
20
0.0864783
11
0.981668
21
0.087117
0
LINE
8
BLACK
6
CONTINUOUS
10
0.981668
20
0.087117
11
0.984856
21
0.0934913
0
LINE
8
BLACK
6
CONTINUOUS
10
0.984856
20
0.0934913
11
0.985486
21
0.0942027
0
LINE
8
BLACK
6
CONTINUOUS
10
0.985486
20
0.0942027
11
0.985962
21
0.0950261
0
LINE
8
BLACK
6
CONTINUOUS
10
0.985962
20
0.0950261
11
0.992336
21
0.1014
0
LINE
8
BLACK
6
CONTINUOUS
10
0.992336
20
0.1014
11
0.993512
21
0.102079
0
LINE
8
BLACK
6
CONTINUOUS
10
0.993512
20
0.102079
11
0.994644
21
0.102827
0
LINE
8
BLACK
6
CONTINUOUS
10
0.994644
20
0.102827
11
1.00421
21
0.106014
0
LINE
8
BLACK
6
CONTINUOUS
10
1.00421
20
0.106014
11
1.00515
21
0.106071
0
LINE
8
BLACK
6
CONTINUOUS
10
1.00515
20
0.106071
11
1.00607
21
0.106317
0
LINE
8
BLACK
6
CONTINUOUS
10
1.00607
20
0.106317
11
1.02201
21
0.106317
0
LINE
8
BLACK
6
CONTINUOUS
10
1.02201
20
0.106317
11
1.02496
21
0.105526
0
LINE
8
BLACK
6
CONTINUOUS
10
1.02496
20
0.105526
11
1.02712
21
0.103364
0
LINE
8
BLACK
6
CONTINUOUS
10
1.02712
20
0.103364
11
1.02791
21
0.100412
0
LINE
8
BLACK
6
CONTINUOUS
10
1.02791
20
0.100412
11
1.02791
21
0.0334824
0
LINE
8
BLACK
6
CONTINUOUS
10
1.02791
20
0.0334824
11
1.02712
21
0.0305296
0
LINE
8
BLACK
6
CONTINUOUS
10
1.02712
20
0.0305296
11
1.02496
21
0.0283681
0
LINE
8
BLACK
6
CONTINUOUS
10
1.02496
20
0.0283681
11
1.02201
21
0.0275769
0
LINE
8
BLACK
6
CONTINUOUS
10
1.02201
20
0.0275769
11
1.00607
21
0.0275769
0
LINE
8
BLACK
6
CONTINUOUS
10
1.00607
20
0.0275769
11
1.00515
21
0.027823
0
LINE
8
BLACK
6
CONTINUOUS
10
1.00703
20
0.094506
11
0.999702
21
0.0920628
0
LINE
8
BLACK
6
CONTINUOUS
10
0.999702
20
0.0920628
11
0.994991
21
0.087352
0
LINE
8
BLACK
6
CONTINUOUS
10
0.994991
20
0.087352
11
0.992522
21
0.0824149
0
LINE
8
BLACK
6
CONTINUOUS
10
0.992522
20
0.0824149
11
0.989669
21
0.0710007
0
LINE
8
BLACK
6
CONTINUOUS
10
0.989669
20
0.0710007
11
0.989669
21
0.0628932
0
LINE
8
BLACK
6
CONTINUOUS
10
0.989669
20
0.0628932
11
0.992522
21
0.0514792
0
LINE
8
BLACK
6
CONTINUOUS
10
0.992522
20
0.0514792
11
0.994991
21
0.0465419
0
LINE
8
BLACK
6
CONTINUOUS
10
0.994991
20
0.0465419
11
0.999702
21
0.0418311
0
LINE
8
BLACK
6
CONTINUOUS
10
0.999702
20
0.0418311
11
1.00703
21
0.0393879
0
LINE
8
BLACK
6
CONTINUOUS
10
1.00703
20
0.0393879
11
1.0161
21
0.0393879
0
LINE
8
BLACK
6
CONTINUOUS
10
1.0161
20
0.0393879
11
1.0161
21
0.094506
0
LINE
8
BLACK
6
CONTINUOUS
10
1.0161
20
0.094506
11
1.00703
21
0.094506
0
LINE
8
BLACK
6
CONTINUOUS
10
0.920256
20
0.0283681
11
0.918094
21
0.0305296
0
LINE
8
BLACK
6
CONTINUOUS
10
0.918094
20
0.0305296
11
0.917303
21
0.0334824
0
LINE
8
BLACK
6
CONTINUOUS
10
0.917303
20
0.0334824
11
0.918094
21
0.0364352
0
LINE
8
BLACK
6
CONTINUOUS
10
0.918094
20
0.0364352
11
0.920256
21
0.0385967
0
LINE
8
BLACK
6
CONTINUOUS
10
0.920256
20
0.0385967
11
0.923208
21
0.0393879
0
LINE
8
BLACK
6
CONTINUOUS
10
0.923208
20
0.0393879
11
0.949174
21
0.0393879
0
LINE
8
BLACK
6
CONTINUOUS
10
0.949174
20
0.0393879
11
0.949174
21
0.062635
0
LINE
8
BLACK
6
CONTINUOUS
10
0.949174
20
0.062635
11
0.93277
21
0.062635
0
LINE
8
BLACK
6
CONTINUOUS
10
0.93277
20
0.062635
11
0.929817
21
0.0634262
0
LINE
8
BLACK
6
CONTINUOUS
10
0.929817
20
0.0634262
11
0.927655
21
0.0655878
0
LINE
8
BLACK
6
CONTINUOUS
10
0.927655
20
0.0655878
11
0.926864
21
0.0685405
0
LINE
8
BLACK
6
CONTINUOUS
10
0.926864
20
0.0685405
11
0.927655
21
0.0714933
0
LINE
8
BLACK
6
CONTINUOUS
10
0.927655
20
0.0714933
11
0.929817
21
0.0736548
0
LINE
8
BLACK
6
CONTINUOUS
10
0.929817
20
0.0736548
11
0.93277
21
0.074446
0
LINE
8
BLACK
6
CONTINUOUS
10
0.93277
20
0.074446
11
0.949174
21
0.074446
0
LINE
8
BLACK
6
CONTINUOUS
10
0.949174
20
0.074446
11
0.949174
21
0.094506
0
LINE
8
BLACK
6
CONTINUOUS
10
0.949174
20
0.094506
11
0.923208
21
0.094506
0
LINE
8
BLACK
6
CONTINUOUS
10
0.923208
20
0.094506
11
0.920256
21
0.0952972
0
LINE
8
BLACK
6
CONTINUOUS
10
0.920256
20
0.0952972
11
0.918094
21
0.0974588
0
LINE
8
BLACK
6
CONTINUOUS
10
0.918094
20
0.0974588
11
0.917303
21
0.100412
0
LINE
8
BLACK
6
CONTINUOUS
10
0.917303
20
0.100412
11
0.918094
21
0.103364
0
LINE
8
BLACK
6
CONTINUOUS
10
0.918094
20
0.103364
11
0.920256
21
0.105526
0
LINE
8
BLACK
6
CONTINUOUS
10
0.920256
20
0.105526
11
0.923208
21
0.106317
0
LINE
8
BLACK
6
CONTINUOUS
10
0.923208
20
0.106317
11
0.955079
21
0.106317
0
LINE
8
BLACK
6
CONTINUOUS
10
0.955079
20
0.106317
11
0.958032
21
0.105526
0
LINE
8
BLACK
6
CONTINUOUS
10
0.958032
20
0.105526
11
0.960194
21
0.103364
0
LINE
8
BLACK
6
CONTINUOUS
10
0.960194
20
0.103364
11
0.960985
21
0.100412
0
LINE
8
BLACK
6
CONTINUOUS
10
0.960985
20
0.100412
11
0.960985
21
0.0334824
0
LINE
8
BLACK
6
CONTINUOUS
10
0.960985
20
0.0334824
11
0.960194
21
0.0305296
0
LINE
8
BLACK
6
CONTINUOUS
10
0.960194
20
0.0305296
11
0.958032
21
0.0283681
0
LINE
8
BLACK
6
CONTINUOUS
10
0.958032
20
0.0283681
11
0.955079
21
0.0275769
0
LINE
8
BLACK
6
CONTINUOUS
10
0.955079
20
0.0275769
11
0.923208
21
0.0275769
0
LINE
8
BLACK
6
CONTINUOUS
10
0.923208
20
0.0275769
11
0.920256
21
0.0283681
0
LINE
8
BLACK
6
CONTINUOUS
10
1.04137
20
0.0283681
11
1.0392
21
0.0305296
0
LINE
8
BLACK
6
CONTINUOUS
10
1.0392
20
0.0305296
11
1.03841
21
0.0334824
0
LINE
8
BLACK
6
CONTINUOUS
10
1.03841
20
0.0334824
11
1.0392
21
0.0364352
0
LINE
8
BLACK
6
CONTINUOUS
10
1.0392
20
0.0364352
11
1.04137
21
0.0385967
0
LINE
8
BLACK
6
CONTINUOUS
10
1.04137
20
0.0385967
11
1.04432
21
0.0393879
0
LINE
8
BLACK
6
CONTINUOUS
10
1.04432
20
0.0393879
11
1.07028
21
0.0393879
0
LINE
8
BLACK
6
CONTINUOUS
10
1.07028
20
0.0393879
11
1.07028
21
0.100412
0
LINE
8
BLACK
6
CONTINUOUS
10
1.07028
20
0.100412
11
1.07107
21
0.103364
0
LINE
8
BLACK
6
CONTINUOUS
10
1.07107
20
0.103364
11
1.07324
21
0.105526
0
LINE
8
BLACK
6
CONTINUOUS
10
1.07324
20
0.105526
11
1.07619
21
0.106317
0
LINE
8
BLACK
6
CONTINUOUS
10
1.07619
20
0.106317
11
1.07914
21
0.105526
0
LINE
8
BLACK
6
CONTINUOUS
10
1.07914
20
0.105526
11
1.0813
21
0.103364
0
LINE
8
BLACK
6
CONTINUOUS
10
1.0813
20
0.103364
11
1.08209
21
0.100412
0
LINE
8
BLACK
6
CONTINUOUS
10
1.08209
20
0.100412
11
1.08209
21
0.0334824
0
LINE
8
BLACK
6
CONTINUOUS
10
1.08209
20
0.0334824
11
1.0813
21
0.0305296
0
LINE
8
BLACK
6
CONTINUOUS
10
1.0813
20
0.0305296
11
1.07914
21
0.0283681
0
LINE
8
BLACK
6
CONTINUOUS
10
1.07914
20
0.0283681
11
1.07619
21
0.0275769
0
LINE
8
BLACK
6
CONTINUOUS
10
1.07619
20
0.0275769
11
1.04432
21
0.0275769
0
LINE
8
BLACK
6
CONTINUOUS
10
1.04432
20
0.0275769
11
1.04137
21
0.0283681
0
LINE
8
BLACK
6
CONTINUOUS
10
1.13487
20
0.105966
11
1.1362
21
0.105694
0
LINE
8
BLACK
6
CONTINUOUS
10
1.1362
20
0.105694
11
1.14257
21
0.102506
0
LINE
8
BLACK
6
CONTINUOUS
10
1.14257
20
0.102506
11
1.14328
21
0.101876
0
LINE
8
BLACK
6
CONTINUOUS
10
1.14328
20
0.101876
11
1.14411
21
0.1014
0
LINE
8
BLACK
6
CONTINUOUS
10
1.14411
20
0.1014
11
1.15048
21
0.0950261
0
LINE
8
BLACK
6
CONTINUOUS
10
1.15048
20
0.0950261
11
1.15051
21
0.0949816
0
LINE
8
BLACK
6
CONTINUOUS
10
1.15051
20
0.0949816
11
1.15055
21
0.0949552
0
LINE
8
BLACK
6
CONTINUOUS
10
1.15055
20
0.0949552
11
1.15127
21
0.093661
0
LINE
8
BLACK
6
CONTINUOUS
10
1.15127
20
0.093661
11
1.15201
21
0.0923787
0
LINE
8
BLACK
6
CONTINUOUS
10
1.15201
20
0.0923787
11
1.15201
21
0.0923274
0
LINE
8
BLACK
6
CONTINUOUS
10
1.15201
20
0.0923274
11
1.15203
21
0.0922826
0
LINE
8
BLACK
6
CONTINUOUS
10
1.15203
20
0.0922826
11
1.15522
21
0.0795341
0
LINE
8
BLACK
6
CONTINUOUS
10
1.15522
20
0.0795341
11
1.15521
21
0.0788056
0
LINE
8
BLACK
6
CONTINUOUS
10
1.15521
20
0.0788056
11
1.1554
21
0.0781018
0
LINE
8
BLACK
6
CONTINUOUS
10
1.1554
20
0.0781018
11
1.1554
21
0.0557921
0
LINE
8
BLACK
6
CONTINUOUS
10
1.1554
20
0.0557921
11
1.15521
21
0.0550883
0
LINE
8
BLACK
6
CONTINUOUS
10
1.15521
20
0.0550883
11
1.15522
21
0.0543598
0
LINE
8
BLACK
6
CONTINUOUS
10
1.15522
20
0.0543598
11
1.15203
21
0.0416114
0
LINE
8
BLACK
6
CONTINUOUS
10
1.15203
20
0.0416114
11
1.15201
21
0.0415666
0
LINE
8
BLACK
6
CONTINUOUS
10
1.15201
20
0.0415666
11
1.15201
21
0.0415153
0
LINE
8
BLACK
6
CONTINUOUS
10
1.15201
20
0.0415153
11
1.15127
21
0.0402331
0
LINE
8
BLACK
6
CONTINUOUS
10
1.15127
20
0.0402331
11
1.15055
21
0.0389387
0
LINE
8
BLACK
6
CONTINUOUS
10
1.15055
20
0.0389387
11
1.15051
21
0.0389123
0
LINE
8
BLACK
6
CONTINUOUS
10
1.15051
20
0.0389123
11
1.15048
21
0.0388679
0
LINE
8
BLACK
6
CONTINUOUS
10
1.15048
20
0.0388679
11
1.14411
21
0.0324937
0
LINE
8
BLACK
6
CONTINUOUS
10
1.14411
20
0.0324937
11
1.14328
21
0.0320183
0
LINE
8
BLACK
6
CONTINUOUS
10
1.14328
20
0.0320183
11
1.14257
21
0.0313874
0
LINE
8
BLACK
6
CONTINUOUS
10
1.14257
20
0.0313874
11
1.1362
21
0.0282004
0
LINE
8
BLACK
6
CONTINUOUS
10
1.1362
20
0.0282004
11
1.13487
21
0.0279282
0
LINE
8
BLACK
6
CONTINUOUS
10
1.13487
20
0.0279282
11
1.13356
21
0.0275769
0
LINE
8
BLACK
6
CONTINUOUS
10
1.13356
20
0.0275769
11
1.12081
21
0.0275769
0
LINE
8
BLACK
6
CONTINUOUS
10
1.12081
20
0.0275769
11
1.1195
21
0.0279282
0
LINE
8
BLACK
6
CONTINUOUS
10
1.1195
20
0.0279282
11
1.11817
21
0.0282004
0
LINE
8
BLACK
6
CONTINUOUS
10
1.11817
20
0.0282004
11
1.11179
21
0.0313874
0
LINE
8
BLACK
6
CONTINUOUS
10
1.11179
20
0.0313874
11
1.11108
21
0.0320183
0
LINE
8
BLACK
6
CONTINUOUS
10
1.11108
20
0.0320183
11
1.11026
21
0.0324937
0
LINE
8
BLACK
6
CONTINUOUS
10
1.11026
20
0.0324937
11
1.10388
21
0.0388679
0
LINE
8
BLACK
6
CONTINUOUS
10
1.10388
20
0.0388679
11
1.10386
21
0.0389123
0
LINE
8
BLACK
6
CONTINUOUS
10
1.10386
20
0.0389123
11
1.10381
21
0.0389387
0
LINE
8
BLACK
6
CONTINUOUS
10
1.10381
20
0.0389387
11
1.1031
21
0.0402329
0
LINE
8
BLACK
6
CONTINUOUS
10
1.1031
20
0.0402329
11
1.10236
21
0.0415152
0
LINE
8
BLACK
6
CONTINUOUS
10
1.10236
20
0.0415152
11
1.10236
21
0.0415666
0
LINE
8
BLACK
6
CONTINUOUS
10
1.10236
20
0.0415666
11
1.10233
21
0.0416114
0
LINE
8
BLACK
6
CONTINUOUS
10
1.10233
20
0.0416114
11
1.09914
21
0.0543598
0
LINE
8
BLACK
6
CONTINUOUS
10
1.09914
20
0.0543598
11
1.09916
21
0.0550883
0
LINE
8
BLACK
6
CONTINUOUS
10
1.09916
20
0.0550883
11
1.09897
21
0.0557921
0
LINE
8
BLACK
6
CONTINUOUS
10
1.09897
20
0.0557921
11
1.09897
21
0.0781018
0
LINE
8
BLACK
6
CONTINUOUS
10
1.09897
20
0.0781018
11
1.09916
21
0.0788056
0
LINE
8
BLACK
6
CONTINUOUS
10
1.09916
20
0.0788056
11
1.09914
21
0.0795341
0
LINE
8
BLACK
6
CONTINUOUS
10
1.09914
20
0.0795341
11
1.10233
21
0.0922826
0
LINE
8
BLACK
6
CONTINUOUS
10
1.10233
20
0.0922826
11
1.10236
21
0.0923274
0
LINE
8
BLACK
6
CONTINUOUS
10
1.10236
20
0.0923274
11
1.10236
21
0.0923787
0
LINE
8
BLACK
6
CONTINUOUS
10
1.10236
20
0.0923787
11
1.1031
21
0.093661
0
LINE
8
BLACK
6
CONTINUOUS
10
1.1031
20
0.093661
11
1.10381
21
0.0949552
0
LINE
8
BLACK
6
CONTINUOUS
10
1.10381
20
0.0949552
11
1.10386
21
0.0949816
0
LINE
8
BLACK
6
CONTINUOUS
10
1.10386
20
0.0949816
11
1.10388
21
0.0950261
0
LINE
8
BLACK
6
CONTINUOUS
10
1.10388
20
0.0950261
11
1.11026
21
0.1014
0
LINE
8
BLACK
6
CONTINUOUS
10
1.11026
20
0.1014
11
1.11108
21
0.101876
0
LINE
8
BLACK
6
CONTINUOUS
10
1.11108
20
0.101876
11
1.11179
21
0.102506
0
LINE
8
BLACK
6
CONTINUOUS
10
1.11179
20
0.102506
11
1.11817
21
0.105694
0
LINE
8
BLACK
6
CONTINUOUS
10
1.11817
20
0.105694
11
1.1195
21
0.105966
0
LINE
8
BLACK
6
CONTINUOUS
10
1.1195
20
0.105966
11
1.12081
21
0.106317
0
LINE
8
BLACK
6
CONTINUOUS
10
1.12081
20
0.106317
11
1.13356
21
0.106317
0
LINE
8
BLACK
6
CONTINUOUS
10
1.13356
20
0.106317
11
1.13487
21
0.105966
0
LINE
8
BLACK
6
CONTINUOUS
10
1.1222
20
0.094506
11
1.11793
21
0.0923709
0
LINE
8
BLACK
6
CONTINUOUS
10
1.11793
20
0.0923709
11
1.11339
21
0.087831
0
LINE
8
BLACK
6
CONTINUOUS
10
1.11339
20
0.087831
11
1.11078
21
0.0773748
0
LINE
8
BLACK
6
CONTINUOUS
10
1.11078
20
0.0773748
11
1.11078
21
0.0565191
0
LINE
8
BLACK
6
CONTINUOUS
10
1.11078
20
0.0565191
11
1.11339
21
0.0460629
0
LINE
8
BLACK
6
CONTINUOUS
10
1.11339
20
0.0460629
11
1.11793
21
0.041523
0
LINE
8
BLACK
6
CONTINUOUS
10
1.11793
20
0.041523
11
1.1222
21
0.0393879
0
LINE
8
BLACK
6
CONTINUOUS
10
1.1222
20
0.0393879
11
1.13216
21
0.0393879
0
LINE
8
BLACK
6
CONTINUOUS
10
1.13216
20
0.0393879
11
1.13643
21
0.041523
0
LINE
8
BLACK
6
CONTINUOUS
10
1.13643
20
0.041523
11
1.14097
21
0.0460629
0
LINE
8
BLACK
6
CONTINUOUS
10
1.14097
20
0.0460629
11
1.14359
21
0.0565191
0
LINE
8
BLACK
6
CONTINUOUS
10
1.14359
20
0.0565191
11
1.14359
21
0.0773748
0
LINE
8
BLACK
6
CONTINUOUS
10
1.14359
20
0.0773748
11
1.14097
21
0.087831
0
LINE
8
BLACK
6
CONTINUOUS
10
1.14097
20
0.087831
11
1.13643
21
0.0923709
0
LINE
8
BLACK
6
CONTINUOUS
10
1.13643
20
0.0923709
11
1.13216
21
0.094506
0
LINE
8
BLACK
6
CONTINUOUS
10
1.13216
20
0.094506
11
1.1222
21
0.094506
0
LINE
8
BLACK
6
CONTINUOUS
10
0.816158
20
0.105966
11
0.817488
21
0.105694
0
LINE
8
BLACK
6
CONTINUOUS
10
0.817488
20
0.105694
11
0.823862
21
0.102506
0
LINE
8
BLACK
6
CONTINUOUS
10
0.823862
20
0.102506
11
0.824574
21
0.101876
0
LINE
8
BLACK
6
CONTINUOUS
10
0.824574
20
0.101876
11
0.825397
21
0.1014
0
LINE
8
BLACK
6
CONTINUOUS
10
0.825397
20
0.1014
11
0.828584
21
0.0982131
0
LINE
8
BLACK
6
CONTINUOUS
10
0.828584
20
0.0982131
11
0.82906
21
0.0973898
0
LINE
8
BLACK
6
CONTINUOUS
10
0.82906
20
0.0973898
11
0.82969
21
0.0966783
0
LINE
8
BLACK
6
CONTINUOUS
10
0.82969
20
0.0966783
11
0.832877
21
0.0903041
0
LINE
8
BLACK
6
CONTINUOUS
10
0.832877
20
0.0903041
11
0.833008
21
0.0896654
0
LINE
8
BLACK
6
CONTINUOUS
10
0.833008
20
0.0896654
11
0.833325
21
0.0890954
0
LINE
8
BLACK
6
CONTINUOUS
10
0.833325
20
0.0890954
11
0.836512
21
0.076347
0
LINE
8
BLACK
6
CONTINUOUS
10
0.836512
20
0.076347
11
0.836499
21
0.0756185
0
LINE
8
BLACK
6
CONTINUOUS
10
0.836499
20
0.0756185
11
0.836688
21
0.0749147
0
LINE
8
BLACK
6
CONTINUOUS
10
0.836688
20
0.0749147
11
0.836688
21
0.0589792
0
LINE
8
BLACK
6
CONTINUOUS
10
0.836688
20
0.0589792
11
0.836499
21
0.0582754
0
LINE
8
BLACK
6
CONTINUOUS
10
0.836499
20
0.0582754
11
0.836512
21
0.0575469
0
LINE
8
BLACK
6
CONTINUOUS
10
0.836512
20
0.0575469
11
0.833325
21
0.0447985
0
LINE
8
BLACK
6
CONTINUOUS
10
0.833325
20
0.0447985
11
0.833008
21
0.0442285
0
LINE
8
BLACK
6
CONTINUOUS
10
0.833008
20
0.0442285
11
0.832877
21
0.0435898
0
LINE
8
BLACK
6
CONTINUOUS
10
0.832877
20
0.0435898
11
0.82969
21
0.0372156
0
LINE
8
BLACK
6
CONTINUOUS
10
0.82969
20
0.0372156
11
0.82906
21
0.0365042
0
LINE
8
BLACK
6
CONTINUOUS
10
0.82906
20
0.0365042
11
0.828584
21
0.0356808
0
LINE
8
BLACK
6
CONTINUOUS
10
0.828584
20
0.0356808
11
0.825397
21
0.0324937
0
LINE
8
BLACK
6
CONTINUOUS
10
0.825397
20
0.0324937
11
0.824574
21
0.0320183
0
LINE
8
BLACK
6
CONTINUOUS
10
0.824574
20
0.0320183
11
0.823862
21
0.0313874
0
LINE
8
BLACK
6
CONTINUOUS
10
0.823862
20
0.0313874
11
0.817488
21
0.0282004
0
LINE
8
BLACK
6
CONTINUOUS
10
0.817488
20
0.0282004
11
0.816158
21
0.0279282
0
LINE
8
BLACK
6
CONTINUOUS
10
0.816158
20
0.0279282
11
0.814847
21
0.0275769
0
LINE
8
BLACK
6
CONTINUOUS
10
0.814847
20
0.0275769
11
0.808473
21
0.0275769
0
LINE
8
BLACK
6
CONTINUOUS
10
0.808473
20
0.0275769
11
0.807162
21
0.0279282
0
LINE
8
BLACK
6
CONTINUOUS
10
0.807162
20
0.0279282
11
0.805832
21
0.0282004
0
LINE
8
BLACK
6
CONTINUOUS
10
0.805832
20
0.0282004
11
0.799458
21
0.0313874
0
LINE
8
BLACK
6
CONTINUOUS
10
0.799458
20
0.0313874
11
0.798746
21
0.0320183
0
LINE
8
BLACK
6
CONTINUOUS
10
0.798746
20
0.0320183
11
0.797923
21
0.0324937
0
LINE
8
BLACK
6
CONTINUOUS
10
0.797923
20
0.0324937
11
0.794736
21
0.0356808
0
LINE
8
BLACK
6
CONTINUOUS
10
0.794736
20
0.0356808
11
0.79426
21
0.0365042
0
LINE
8
BLACK
6
CONTINUOUS
10
0.79426
20
0.0365042
11
0.793629
21
0.0372156
0
LINE
8
BLACK
6
CONTINUOUS
10
0.793629
20
0.0372156
11
0.790442
21
0.0435898
0
LINE
8
BLACK
6
CONTINUOUS
10
0.790442
20
0.0435898
11
0.790312
21
0.0442285
0
LINE
8
BLACK
6
CONTINUOUS
10
0.790312
20
0.0442285
11
0.789995
21
0.0447985
0
LINE
8
BLACK
6
CONTINUOUS
10
0.789995
20
0.0447985
11
0.786808
21
0.0575469
0
LINE
8
BLACK
6
CONTINUOUS
10
0.786808
20
0.0575469
11
0.78682
21
0.0582754
0
LINE
8
BLACK
6
CONTINUOUS
10
0.78682
20
0.0582754
11
0.786632
21
0.0589792
0
LINE
8
BLACK
6
CONTINUOUS
10
0.786632
20
0.0589792
11
0.786632
21
0.0749147
0
LINE
8
BLACK
6
CONTINUOUS
10
0.786632
20
0.0749147
11
0.78682
21
0.0756185
0
LINE
8
BLACK
6
CONTINUOUS
10
0.78682
20
0.0756185
11
0.786808
21
0.076347
0
LINE
8
BLACK
6
CONTINUOUS
10
0.786808
20
0.076347
11
0.789995
21
0.0890954
0
LINE
8
BLACK
6
CONTINUOUS
10
0.789995
20
0.0890954
11
0.790312
21
0.0896654
0
LINE
8
BLACK
6
CONTINUOUS
10
0.790312
20
0.0896654
11
0.790442
21
0.0903041
0
LINE
8
BLACK
6
CONTINUOUS
10
0.790442
20
0.0903041
11
0.793629
21
0.0966783
0
LINE
8
BLACK
6
CONTINUOUS
10
0.793629
20
0.0966783
11
0.79426
21
0.0973898
0
LINE
8
BLACK
6
CONTINUOUS
10
0.79426
20
0.0973898
11
0.794736
21
0.0982131
0
LINE
8
BLACK
6
CONTINUOUS
10
0.794736
20
0.0982131
11
0.797923
21
0.1014
0
LINE
8
BLACK
6
CONTINUOUS
10
0.797923
20
0.1014
11
0.798746
21
0.101876
0
LINE
8
BLACK
6
CONTINUOUS
10
0.798746
20
0.101876
11
0.799458
21
0.102506
0
LINE
8
BLACK
6
CONTINUOUS
10
0.799458
20
0.102506
11
0.805832
21
0.105694
0
LINE
8
BLACK
6
CONTINUOUS
10
0.805832
20
0.105694
11
0.807162
21
0.105966
0
LINE
8
BLACK
6
CONTINUOUS
10
0.807162
20
0.105966
11
0.808473
21
0.106317
0
LINE
8
BLACK
6
CONTINUOUS
10
0.808473
20
0.106317
11
0.814847
21
0.106317
0
LINE
8
BLACK
6
CONTINUOUS
10
0.814847
20
0.106317
11
0.816158
21
0.105966
0
LINE
8
BLACK
6
CONTINUOUS
10
0.809867
20
0.094506
11
0.805597
21
0.0923709
0
LINE
8
BLACK
6
CONTINUOUS
10
0.805597
20
0.0923709
11
0.803765
21
0.0905391
0
LINE
8
BLACK
6
CONTINUOUS
10
0.803765
20
0.0905391
11
0.801296
21
0.0856019
0
LINE
8
BLACK
6
CONTINUOUS
10
0.801296
20
0.0856019
11
0.798443
21
0.0741878
0
LINE
8
BLACK
6
CONTINUOUS
10
0.798443
20
0.0741878
11
0.798443
21
0.0597062
0
LINE
8
BLACK
6
CONTINUOUS
10
0.798443
20
0.0597062
11
0.801296
21
0.048292
0
LINE
8
BLACK
6
CONTINUOUS
10
0.801296
20
0.048292
11
0.803765
21
0.0433548
0
LINE
8
BLACK
6
CONTINUOUS
10
0.803765
20
0.0433548
11
0.805597
21
0.041523
0
LINE
8
BLACK
6
CONTINUOUS
10
0.805597
20
0.041523
11
0.809867
21
0.0393879
0
LINE
8
BLACK
6
CONTINUOUS
10
0.809867
20
0.0393879
11
0.813453
21
0.0393879
0
LINE
8
BLACK
6
CONTINUOUS
10
0.813453
20
0.0393879
11
0.817723
21
0.041523
0
LINE
8
BLACK
6
CONTINUOUS
10
0.817723
20
0.041523
11
0.819555
21
0.0433548
0
LINE
8
BLACK
6
CONTINUOUS
10
0.819555
20
0.0433548
11
0.822023
21
0.048292
0
LINE
8
BLACK
6
CONTINUOUS
10
0.822023
20
0.048292
11
0.824877
21
0.0597062
0
LINE
8
BLACK
6
CONTINUOUS
10
0.824877
20
0.0597062
11
0.824877
21
0.0741878
0
LINE
8
BLACK
6
CONTINUOUS
10
0.824877
20
0.0741878
11
0.822023
21
0.0856019
0
LINE
8
BLACK
6
CONTINUOUS
10
0.822023
20
0.0856019
11
0.819555
21
0.0905391
0
LINE
8
BLACK
6
CONTINUOUS
10
0.819555
20
0.0905391
11
0.817723
21
0.0923709
0
LINE
8
BLACK
6
CONTINUOUS
10
0.817723
20
0.0923709
11
0.813453
21
0.094506
0
LINE
8
BLACK
6
CONTINUOUS
10
0.813453
20
0.094506
11
0.809867
21
0.094506
0
LINE
8
BLACK
6
CONTINUOUS
10
0.68887
20
0.106036
11
0.68923
21
0.106014
0
LINE
8
BLACK
6
CONTINUOUS
10
0.68923
20
0.106014
11
0.69022
21
0.105361
0
LINE
8
BLACK
6
CONTINUOUS
10
0.69022
20
0.105361
11
0.691281
21
0.10483
0
LINE
8
BLACK
6
CONTINUOUS
10
0.691281
20
0.10483
11
0.69148
21
0.104529
0
LINE
8
BLACK
6
CONTINUOUS
10
0.69148
20
0.104529
11
0.691781
21
0.10433
0
LINE
8
BLACK
6
CONTINUOUS
10
0.691781
20
0.10433
11
0.692312
21
0.103269
0
LINE
8
BLACK
6
CONTINUOUS
10
0.692312
20
0.103269
11
0.692965
21
0.102279
0
LINE
8
BLACK
6
CONTINUOUS
10
0.692965
20
0.102279
11
0.715275
21
0.0353499
0
LINE
8
BLACK
6
CONTINUOUS
10
0.715275
20
0.0353499
11
0.715458
21
0.0322985
0
LINE
8
BLACK
6
CONTINUOUS
10
0.715458
20
0.0322985
11
0.714091
21
0.0295643
0
LINE
8
BLACK
6
CONTINUOUS
10
0.714091
20
0.0295643
11
0.71154
21
0.02788
0
LINE
8
BLACK
6
CONTINUOUS
10
0.71154
20
0.02788
11
0.708489
21
0.0276968
0
LINE
8
BLACK
6
CONTINUOUS
10
0.708489
20
0.0276968
11
0.705754
21
0.0290639
0
LINE
8
BLACK
6
CONTINUOUS
10
0.705754
20
0.0290639
11
0.70407
21
0.0316149
0
LINE
8
BLACK
6
CONTINUOUS
10
0.70407
20
0.0316149
11
0.699042
21
0.0466995
0
LINE
8
BLACK
6
CONTINUOUS
10
0.699042
20
0.0466995
11
0.675684
21
0.0466995
0
LINE
8
BLACK
6
CONTINUOUS
10
0.675684
20
0.0466995
11
0.670656
21
0.0316149
0
LINE
8
BLACK
6
CONTINUOUS
10
0.670656
20
0.0316149
11
0.668971
21
0.0290639
0
LINE
8
BLACK
6
CONTINUOUS
10
0.668971
20
0.0290639
11
0.666237
21
0.0276968
0
LINE
8
BLACK
6
CONTINUOUS
10
0.666237
20
0.0276968
11
0.663186
21
0.02788
0
LINE
8
BLACK
6
CONTINUOUS
10
0.663186
20
0.02788
11
0.660635
21
0.0295643
0
LINE
8
BLACK
6
CONTINUOUS
10
0.660635
20
0.0295643
11
0.659268
21
0.0322985
0
LINE
8
BLACK
6
CONTINUOUS
10
0.659268
20
0.0322985
11
0.659451
21
0.0353499
0
LINE
8
BLACK
6
CONTINUOUS
10
0.659451
20
0.0353499
11
0.68176
21
0.102279
0
LINE
8
BLACK
6
CONTINUOUS
10
0.68176
20
0.102279
11
0.682414
21
0.103269
0
LINE
8
BLACK
6
CONTINUOUS
10
0.682414
20
0.103269
11
0.682944
21
0.10433
0
LINE
8
BLACK
6
CONTINUOUS
10
0.682944
20
0.10433
11
0.683246
21
0.104529
0
LINE
8
BLACK
6
CONTINUOUS
10
0.683246
20
0.104529
11
0.683445
21
0.10483
0
LINE
8
BLACK
6
CONTINUOUS
10
0.683445
20
0.10483
11
0.684506
21
0.10536
0
LINE
8
BLACK
6
CONTINUOUS
10
0.684506
20
0.10536
11
0.685495
21
0.106014
0
LINE
8
BLACK
6
CONTINUOUS
10
0.685495
20
0.106014
11
0.685856
21
0.106036
0
LINE
8
BLACK
6
CONTINUOUS
10
0.685856
20
0.106036
11
0.686179
21
0.106197
0
LINE
8
BLACK
6
CONTINUOUS
10
0.686179
20
0.106197
11
0.687363
21
0.106126
0
LINE
8
BLACK
6
CONTINUOUS
10
0.687363
20
0.106126
11
0.688547
21
0.106197
0
LINE
8
BLACK
6
CONTINUOUS
10
0.688547
20
0.106197
11
0.68887
21
0.106036
0
LINE
8
BLACK
6
CONTINUOUS
10
0.679621
20
0.0585105
11
0.695105
21
0.0585105
0
LINE
8
BLACK
6
CONTINUOUS
10
0.695105
20
0.0585105
11
0.687363
21
0.0817367
0
LINE
8
BLACK
6
CONTINUOUS
10
0.687363
20
0.0817367
11
0.679621
21
0.0585105
0
LINE
8
BLACK
6
CONTINUOUS
10
0.473133
20
0.0306703
11
0.470971
21
0.0328319
0
LINE
8
BLACK
6
CONTINUOUS
10
0.470971
20
0.0328319
11
0.470541
21
0.0344375
0
LINE
8
BLACK
6
CONTINUOUS
10
0.470541
20
0.0344375
11
0.469255
21
0.0318665
0
LINE
8
BLACK
6
CONTINUOUS
10
0.469255
20
0.0318665
11
0.466704
21
0.0301821
0
LINE
8
BLACK
6
CONTINUOUS
10
0.466704
20
0.0301821
11
0.463653
21
0.029999
0
LINE
8
BLACK
6
CONTINUOUS
10
0.463653
20
0.029999
11
0.460919
21
0.0313661
0
LINE
8
BLACK
6
CONTINUOUS
10
0.460919
20
0.0313661
11
0.459234
21
0.0339171
0
LINE
8
BLACK
6
CONTINUOUS
10
0.459234
20
0.0339171
11
0.454956
21
0.046752
0
LINE
8
BLACK
6
CONTINUOUS
10
0.454956
20
0.046752
11
0.435348
21
0.046752
0
LINE
8
BLACK
6
CONTINUOUS
10
0.435348
20
0.046752
11
0.431069
21
0.0339171
0
LINE
8
BLACK
6
CONTINUOUS
10
0.431069
20
0.0339171
11
0.429385
21
0.0313661
0
LINE
8
BLACK
6
CONTINUOUS
10
0.429385
20
0.0313661
11
0.426651
21
0.029999
0
LINE
8
BLACK
6
CONTINUOUS
10
0.426651
20
0.029999
11
0.423599
21
0.0301822
0
LINE
8
BLACK
6
CONTINUOUS
10
0.423599
20
0.0301822
11
0.421048
21
0.0318665
0
LINE
8
BLACK
6
CONTINUOUS
10
0.421048
20
0.0318665
11
0.419681
21
0.0346007
0
LINE
8
BLACK
6
CONTINUOUS
10
0.419681
20
0.0346007
11
0.419864
21
0.0376521
0
LINE
8
BLACK
6
CONTINUOUS
10
0.419864
20
0.0376521
11
0.439549
21
0.0967072
0
LINE
8
BLACK
6
CONTINUOUS
10
0.439549
20
0.0967072
11
0.440203
21
0.097697
0
LINE
8
BLACK
6
CONTINUOUS
10
0.440203
20
0.097697
11
0.440733
21
0.0987579
0
LINE
8
BLACK
6
CONTINUOUS
10
0.440733
20
0.0987579
11
0.441035
21
0.0989568
0
LINE
8
BLACK
6
CONTINUOUS
10
0.441035
20
0.0989568
11
0.441234
21
0.0992583
0
LINE
8
BLACK
6
CONTINUOUS
10
0.441234
20
0.0992583
11
0.442295
21
0.0997888
0
LINE
8
BLACK
6
CONTINUOUS
10
0.442295
20
0.0997888
11
0.443284
21
0.100442
0
LINE
8
BLACK
6
CONTINUOUS
10
0.443284
20
0.100442
11
0.443645
21
0.100464
0
LINE
8
BLACK
6
CONTINUOUS
10
0.443645
20
0.100464
11
0.443968
21
0.100625
0
LINE
8
BLACK
6
CONTINUOUS
10
0.443968
20
0.100625
11
0.445152
21
0.100554
0
LINE
8
BLACK
6
CONTINUOUS
10
0.445152
20
0.100554
11
0.446336
21
0.100625
0
LINE
8
BLACK
6
CONTINUOUS
10
0.446336
20
0.100625
11
0.446659
21
0.100464
0
LINE
8
BLACK
6
CONTINUOUS
10
0.446659
20
0.100464
11
0.447019
21
0.100442
0
LINE
8
BLACK
6
CONTINUOUS
10
0.447019
20
0.100442
11
0.448009
21
0.0997886
0
LINE
8
BLACK
6
CONTINUOUS
10
0.448009
20
0.0997886
11
0.44907
21
0.0992582
0
LINE
8
BLACK
6
CONTINUOUS
10
0.44907
20
0.0992582
11
0.449269
21
0.0989569
0
LINE
8
BLACK
6
CONTINUOUS
10
0.449269
20
0.0989569
11
0.44957
21
0.0987579
0
LINE
8
BLACK
6
CONTINUOUS
10
0.44957
20
0.0987579
11
0.450101
21
0.0976968
0
LINE
8
BLACK
6
CONTINUOUS
10
0.450101
20
0.0976968
11
0.450754
21
0.0967072
0
LINE
8
BLACK
6
CONTINUOUS
10
0.450754
20
0.0967072
11
0.470439
21
0.0376521
0
LINE
8
BLACK
6
CONTINUOUS
10
0.470439
20
0.0376521
11
0.470483
21
0.0369173
0
LINE
8
BLACK
6
CONTINUOUS
10
0.470483
20
0.0369173
11
0.470971
21
0.0387374
0
LINE
8
BLACK
6
CONTINUOUS
10
0.470971
20
0.0387374
11
0.473133
21
0.0408989
0
LINE
8
BLACK
6
CONTINUOUS
10
0.473133
20
0.0408989
11
0.476085
21
0.0416901
0
LINE
8
BLACK
6
CONTINUOUS
10
0.476085
20
0.0416901
11
0.498301
21
0.0416901
0
LINE
8
BLACK
6
CONTINUOUS
10
0.498301
20
0.0416901
11
0.498301
21
0.0948397
0
LINE
8
BLACK
6
CONTINUOUS
10
0.498301
20
0.0948397
11
0.499093
21
0.0977925
0
LINE
8
BLACK
6
CONTINUOUS
10
0.499093
20
0.0977925
11
0.501254
21
0.0999541
0
LINE
8
BLACK
6
CONTINUOUS
10
0.501254
20
0.0999541
11
0.504207
21
0.100745
0
LINE
8
BLACK
6
CONTINUOUS
10
0.504207
20
0.100745
11
0.50716
21
0.0999541
0
LINE
8
BLACK
6
CONTINUOUS
10
0.50716
20
0.0999541
11
0.509321
21
0.0977925
0
LINE
8
BLACK
6
CONTINUOUS
10
0.509321
20
0.0977925
11
0.510112
21
0.0948397
0
LINE
8
BLACK
6
CONTINUOUS
10
0.510112
20
0.0948397
11
0.510112
21
0.0357846
0
LINE
8
BLACK
6
CONTINUOUS
10
0.510112
20
0.0357846
11
0.509321
21
0.0328319
0
LINE
8
BLACK
6
CONTINUOUS
10
0.509321
20
0.0328319
11
0.50716
21
0.0306703
0
LINE
8
BLACK
6
CONTINUOUS
10
0.50716
20
0.0306703
11
0.504207
21
0.0298791
0
LINE
8
BLACK
6
CONTINUOUS
10
0.504207
20
0.0298791
11
0.476085
21
0.0298791
0
LINE
8
BLACK
6
CONTINUOUS
10
0.476085
20
0.0298791
11
0.473133
21
0.0306703
0
LINE
8
BLACK
6
CONTINUOUS
10
0.439285
20
0.058563
11
0.451019
21
0.058563
0
LINE
8
BLACK
6
CONTINUOUS
10
0.451019
20
0.058563
11
0.445152
21
0.0761649
0
LINE
8
BLACK
6
CONTINUOUS
10
0.445152
20
0.0761649
11
0.439285
21
0.058563
0
LINE
8
BLACK
6
CONTINUOUS
10
0.31148
20
0.0807089
11
0.31281
21
0.0804367
0
LINE
8
BLACK
6
CONTINUOUS
10
0.31281
20
0.0804367
11
0.318434
21
0.0776246
0
LINE
8
BLACK
6
CONTINUOUS
10
0.318434
20
0.0776246
11
0.319145
21
0.0769938
0
LINE
8
BLACK
6
CONTINUOUS
10
0.319145
20
0.0769938
11
0.319969
21
0.0765184
0
LINE
8
BLACK
6
CONTINUOUS
10
0.319969
20
0.0765184
11
0.322781
21
0.0737063
0
LINE
8
BLACK
6
CONTINUOUS
10
0.322781
20
0.0737063
11
0.323256
21
0.0728828
0
LINE
8
BLACK
6
CONTINUOUS
10
0.323256
20
0.0728828
11
0.323887
21
0.0721714
0
LINE
8
BLACK
6
CONTINUOUS
10
0.323887
20
0.0721714
11
0.326699
21
0.0665472
0
LINE
8
BLACK
6
CONTINUOUS
10
0.326699
20
0.0665472
11
0.326972
21
0.0652171
0
LINE
8
BLACK
6
CONTINUOUS
10
0.326972
20
0.0652171
11
0.327323
21
0.0639061
0
LINE
8
BLACK
6
CONTINUOUS
10
0.327323
20
0.0639061
11
0.327323
21
0.0470332
0
LINE
8
BLACK
6
CONTINUOUS
10
0.327323
20
0.0470332
11
0.326972
21
0.0457222
0
LINE
8
BLACK
6
CONTINUOUS
10
0.326972
20
0.0457222
11
0.326699
21
0.0443921
0
LINE
8
BLACK
6
CONTINUOUS
10
0.326699
20
0.0443921
11
0.323887
21
0.0387679
0
LINE
8
BLACK
6
CONTINUOUS
10
0.323887
20
0.0387679
11
0.323256
21
0.0380565
0
LINE
8
BLACK
6
CONTINUOUS
10
0.323256
20
0.0380565
11
0.322781
21
0.037233
0
LINE
8
BLACK
6
CONTINUOUS
10
0.322781
20
0.037233
11
0.319969
21
0.0344209
0
LINE
8
BLACK
6
CONTINUOUS
10
0.319969
20
0.0344209
11
0.319145
21
0.0339455
0
LINE
8
BLACK
6
CONTINUOUS
10
0.319145
20
0.0339455
11
0.318434
21
0.0333147
0
LINE
8
BLACK
6
CONTINUOUS
10
0.318434
20
0.0333147
11
0.31281
21
0.0305026
0
LINE
8
BLACK
6
CONTINUOUS
10
0.31281
20
0.0305026
11
0.31148
21
0.0302304
0
LINE
8
BLACK
6
CONTINUOUS
10
0.31148
20
0.0302304
11
0.310169
21
0.0298791
0
LINE
8
BLACK
6
CONTINUOUS
10
0.310169
20
0.0298791
11
0.29892
21
0.0298791
0
LINE
8
BLACK
6
CONTINUOUS
10
0.29892
20
0.0298791
11
0.297609
21
0.0302304
0
LINE
8
BLACK
6
CONTINUOUS
10
0.297609
20
0.0302304
11
0.296279
21
0.0305026
0
LINE
8
BLACK
6
CONTINUOUS
10
0.296279
20
0.0305026
11
0.290655
21
0.0333147
0
LINE
8
BLACK
6
CONTINUOUS
10
0.290655
20
0.0333147
11
0.288368
21
0.0353429
0
LINE
8
BLACK
6
CONTINUOUS
10
0.288368
20
0.0353429
11
0.287401
21
0.038243
0
LINE
8
BLACK
6
CONTINUOUS
10
0.287401
20
0.038243
11
0.288014
21
0.0412378
0
LINE
8
BLACK
6
CONTINUOUS
10
0.288014
20
0.0412378
11
0.290042
21
0.043525
0
LINE
8
BLACK
6
CONTINUOUS
10
0.290042
20
0.043525
11
0.292942
21
0.0444917
0
LINE
8
BLACK
6
CONTINUOUS
10
0.292942
20
0.0444917
11
0.295937
21
0.0438788
0
LINE
8
BLACK
6
CONTINUOUS
10
0.295937
20
0.0438788
11
0.300314
21
0.0416901
0
LINE
8
BLACK
6
CONTINUOUS
10
0.300314
20
0.0416901
11
0.308775
21
0.0416901
0
LINE
8
BLACK
6
CONTINUOUS
10
0.308775
20
0.0416901
11
0.312295
21
0.0434503
0
LINE
8
BLACK
6
CONTINUOUS
10
0.312295
20
0.0434503
11
0.313752
21
0.0449071
0
LINE
8
BLACK
6
CONTINUOUS
10
0.313752
20
0.0449071
11
0.315512
21
0.0484273
0
LINE
8
BLACK
6
CONTINUOUS
10
0.315512
20
0.0484273
11
0.315512
21
0.062512
0
LINE
8
BLACK
6
CONTINUOUS
10
0.315512
20
0.062512
11
0.313752
21
0.0660322
0
LINE
8
BLACK
6
CONTINUOUS
10
0.313752
20
0.0660322
11
0.312295
21
0.067489
0
LINE
8
BLACK
6
CONTINUOUS
10
0.312295
20
0.067489
11
0.308775
21
0.0692492
0
LINE
8
BLACK
6
CONTINUOUS
10
0.308775
20
0.0692492
11
0.300314
21
0.0692492
0
LINE
8
BLACK
6
CONTINUOUS
10
0.300314
20
0.0692492
11
0.295937
21
0.0670605
0
LINE
8
BLACK
6
CONTINUOUS
10
0.295937
20
0.0670605
11
0.292942
21
0.0664476
0
LINE
8
BLACK
6
CONTINUOUS
10
0.292942
20
0.0664476
11
0.290042
21
0.0674143
0
LINE
8
BLACK
6
CONTINUOUS
10
0.290042
20
0.0674143
11
0.288014
21
0.0697015
0
LINE
8
BLACK
6
CONTINUOUS
10
0.288014
20
0.0697015
11
0.287401
21
0.0726963
0
LINE
8
BLACK
6
CONTINUOUS
10
0.287401
20
0.0726963
11
0.288368
21
0.0755964
0
LINE
8
BLACK
6
CONTINUOUS
10
0.288368
20
0.0755964
11
0.290655
21
0.0776246
0
LINE
8
BLACK
6
CONTINUOUS
10
0.290655
20
0.0776246
11
0.296279
21
0.0804367
0
LINE
8
BLACK
6
CONTINUOUS
10
0.296279
20
0.0804367
11
0.297609
21
0.0807089
0
LINE
8
BLACK
6
CONTINUOUS
10
0.297609
20
0.0807089
11
0.29892
21
0.0810602
0
LINE
8
BLACK
6
CONTINUOUS
10
0.29892
20
0.0810602
11
0.310169
21
0.0810602
0
LINE
8
BLACK
6
CONTINUOUS
10
0.310169
20
0.0810602
11
0.31148
21
0.0807089
0
LINE
8
BLACK
6
CONTINUOUS
10
0.348928
20
0.0467244
11
0.349679
21
0.0465232
0
LINE
8
BLACK
6
CONTINUOUS
10
0.349679
20
0.0465232
11
0.350229
21
0.0459735
0
LINE
8
BLACK
6
CONTINUOUS
10
0.350229
20
0.0459735
11
0.350902
21
0.0455847
0
LINE
8
BLACK
6
CONTINUOUS
10
0.350902
20
0.0455847
11
0.353715
21
0.0427726
0
LINE
8
BLACK
6
CONTINUOUS
10
0.353715
20
0.0427726
11
0.354088
21
0.0421258
0
LINE
8
BLACK
6
CONTINUOUS
10
0.354088
20
0.0421258
11
0.355243
21
0.0401253
0
LINE
8
BLACK
6
CONTINUOUS
10
0.355243
20
0.0401253
11
0.355243
21
0.0370683
0
LINE
8
BLACK
6
CONTINUOUS
10
0.355243
20
0.0370683
11
0.354809
21
0.0363156
0
LINE
8
BLACK
6
CONTINUOUS
10
0.354809
20
0.0363156
11
0.353715
21
0.034421
0
LINE
8
BLACK
6
CONTINUOUS
10
0.353715
20
0.034421
11
0.350903
21
0.0316088
0
LINE
8
BLACK
6
CONTINUOUS
10
0.350903
20
0.0316088
11
0.350902
21
0.0316088
0
LINE
8
BLACK
6
CONTINUOUS
10
0.350902
20
0.0316088
11
0.350229
21
0.03122
0
LINE
8
BLACK
6
CONTINUOUS
10
0.350229
20
0.03122
11
0.349679
21
0.0306703
0
LINE
8
BLACK
6
CONTINUOUS
10
0.349679
20
0.0306703
11
0.348928
21
0.0304691
0
LINE
8
BLACK
6
CONTINUOUS
10
0.348928
20
0.0304691
11
0.348255
21
0.0300803
0
LINE
8
BLACK
6
CONTINUOUS
10
0.348255
20
0.0300803
11
0.347478
21
0.0300803
0
LINE
8
BLACK
6
CONTINUOUS
10
0.347478
20
0.0300803
11
0.346727
21
0.0298791
0
LINE
8
BLACK
6
CONTINUOUS
10
0.346727
20
0.0298791
11
0.345976
21
0.0300803
0
LINE
8
BLACK
6
CONTINUOUS
10
0.345976
20
0.0300803
11
0.345198
21
0.0300803
0
LINE
8
BLACK
6
CONTINUOUS
10
0.345198
20
0.0300803
11
0.344525
21
0.0304691
0
LINE
8
BLACK
6
CONTINUOUS
10
0.344525
20
0.0304691
11
0.343774
21
0.0306703
0
LINE
8
BLACK
6
CONTINUOUS
10
0.343774
20
0.0306703
11
0.343224
21
0.03122
0
LINE
8
BLACK
6
CONTINUOUS
10
0.343224
20
0.03122
11
0.342551
21
0.0316087
0
LINE
8
BLACK
6
CONTINUOUS
10
0.342551
20
0.0316087
11
0.339739
21
0.0344209
0
LINE
8
BLACK
6
CONTINUOUS
10
0.339739
20
0.0344209
11
0.339206
21
0.0353429
0
LINE
8
BLACK
6
CONTINUOUS
10
0.339206
20
0.0353429
11
0.338645
21
0.0363156
0
LINE
8
BLACK
6
CONTINUOUS
10
0.338645
20
0.0363156
11
0.33821
21
0.0370683
0
LINE
8
BLACK
6
CONTINUOUS
10
0.33821
20
0.0370683
11
0.33821
21
0.0401253
0
LINE
8
BLACK
6
CONTINUOUS
10
0.33821
20
0.0401253
11
0.339365
21
0.0421258
0
LINE
8
BLACK
6
CONTINUOUS
10
0.339365
20
0.0421258
11
0.339739
21
0.0427726
0
LINE
8
BLACK
6
CONTINUOUS
10
0.339739
20
0.0427726
11
0.339739
21
0.0427726
0
LINE
8
BLACK
6
CONTINUOUS
10
0.339739
20
0.0427726
11
0.339739
21
0.0427726
0
LINE
8
BLACK
6
CONTINUOUS
10
0.339739
20
0.0427726
11
0.342551
21
0.0455848
0
LINE
8
BLACK
6
CONTINUOUS
10
0.342551
20
0.0455848
11
0.343224
21
0.0459735
0
LINE
8
BLACK
6
CONTINUOUS
10
0.343224
20
0.0459735
11
0.343774
21
0.0465232
0
LINE
8
BLACK
6
CONTINUOUS
10
0.343774
20
0.0465232
11
0.344525
21
0.0467244
0
LINE
8
BLACK
6
CONTINUOUS
10
0.344525
20
0.0467244
11
0.345198
21
0.0471132
0
LINE
8
BLACK
6
CONTINUOUS
10
0.345198
20
0.0471132
11
0.345976
21
0.0471132
0
LINE
8
BLACK
6
CONTINUOUS
10
0.345976
20
0.0471132
11
0.346727
21
0.0473144
0
LINE
8
BLACK
6
CONTINUOUS
10
0.346727
20
0.0473144
11
0.347478
21
0.0471132
0
LINE
8
BLACK
6
CONTINUOUS
10
0.347478
20
0.0471132
11
0.348255
21
0.0471132
0
LINE
8
BLACK
6
CONTINUOUS
10
0.348255
20
0.0471132
11
0.348928
21
0.0467244
0
LINE
8
BLACK
6
CONTINUOUS
10
0.381974
20
0.0302304
11
0.380644
21
0.0305026
0
LINE
8
BLACK
6
CONTINUOUS
10
0.380644
20
0.0305026
11
0.375019
21
0.0333147
0
LINE
8
BLACK
6
CONTINUOUS
10
0.375019
20
0.0333147
11
0.374308
21
0.0339455
0
LINE
8
BLACK
6
CONTINUOUS
10
0.374308
20
0.0339455
11
0.373484
21
0.0344209
0
LINE
8
BLACK
6
CONTINUOUS
10
0.373484
20
0.0344209
11
0.370672
21
0.037233
0
LINE
8
BLACK
6
CONTINUOUS
10
0.370672
20
0.037233
11
0.370197
21
0.0380565
0
LINE
8
BLACK
6
CONTINUOUS
10
0.370197
20
0.0380565
11
0.369566
21
0.0387679
0
LINE
8
BLACK
6
CONTINUOUS
10
0.369566
20
0.0387679
11
0.366754
21
0.0443922
0
LINE
8
BLACK
6
CONTINUOUS
10
0.366754
20
0.0443922
11
0.366482
21
0.045722
0
LINE
8
BLACK
6
CONTINUOUS
10
0.366482
20
0.045722
11
0.36613
21
0.0470332
0
LINE
8
BLACK
6
CONTINUOUS
10
0.36613
20
0.0470332
11
0.36613
21
0.0554696
0
LINE
8
BLACK
6
CONTINUOUS
10
0.36613
20
0.0554696
11
0.366482
21
0.0567808
0
LINE
8
BLACK
6
CONTINUOUS
10
0.366482
20
0.0567808
11
0.366754
21
0.0581107
0
LINE
8
BLACK
6
CONTINUOUS
10
0.366754
20
0.0581107
11
0.369566
21
0.063735
0
LINE
8
BLACK
6
CONTINUOUS
10
0.369566
20
0.063735
11
0.370197
21
0.0644464
0
LINE
8
BLACK
6
CONTINUOUS
10
0.370197
20
0.0644464
11
0.370672
21
0.0652698
0
LINE
8
BLACK
6
CONTINUOUS
10
0.370672
20
0.0652698
11
0.373484
21
0.0680819
0
LINE
8
BLACK
6
CONTINUOUS
10
0.373484
20
0.0680819
11
0.373538
21
0.068113
0
LINE
8
BLACK
6
CONTINUOUS
10
0.373538
20
0.068113
11
0.373484
21
0.0681667
0
LINE
8
BLACK
6
CONTINUOUS
10
0.373484
20
0.0681667
11
0.373009
21
0.0689901
0
LINE
8
BLACK
6
CONTINUOUS
10
0.373009
20
0.0689901
11
0.372378
21
0.0697015
0
LINE
8
BLACK
6
CONTINUOUS
10
0.372378
20
0.0697015
11
0.369566
21
0.0753258
0
LINE
8
BLACK
6
CONTINUOUS
10
0.369566
20
0.0753258
11
0.369294
21
0.0766557
0
LINE
8
BLACK
6
CONTINUOUS
10
0.369294
20
0.0766557
11
0.368943
21
0.0779669
0
LINE
8
BLACK
6
CONTINUOUS
10
0.368943
20
0.0779669
11
0.368943
21
0.0835911
0
LINE
8
BLACK
6
CONTINUOUS
10
0.368943
20
0.0835911
11
0.369294
21
0.0849022
0
LINE
8
BLACK
6
CONTINUOUS
10
0.369294
20
0.0849022
11
0.369566
21
0.0862322
0
LINE
8
BLACK
6
CONTINUOUS
10
0.369566
20
0.0862322
11
0.372378
21
0.0918565
0
LINE
8
BLACK
6
CONTINUOUS
10
0.372378
20
0.0918565
11
0.373009
21
0.0925678
0
LINE
8
BLACK
6
CONTINUOUS
10
0.373009
20
0.0925678
11
0.373484
21
0.0933913
0
LINE
8
BLACK
6
CONTINUOUS
10
0.373484
20
0.0933913
11
0.376297
21
0.0962034
0
LINE
8
BLACK
6
CONTINUOUS
10
0.376297
20
0.0962034
11
0.37712
21
0.0966788
0
LINE
8
BLACK
6
CONTINUOUS
10
0.37712
20
0.0966788
11
0.377831
21
0.0973096
0
LINE
8
BLACK
6
CONTINUOUS
10
0.377831
20
0.0973096
11
0.383456
21
0.100122
0
LINE
8
BLACK
6
CONTINUOUS
10
0.383456
20
0.100122
11
0.384786
21
0.100394
0
LINE
8
BLACK
6
CONTINUOUS
10
0.384786
20
0.100394
11
0.386097
21
0.100745
0
LINE
8
BLACK
6
CONTINUOUS
10
0.386097
20
0.100745
11
0.405782
21
0.100745
0
LINE
8
BLACK
6
CONTINUOUS
10
0.405782
20
0.100745
11
0.408735
21
0.0999541
0
LINE
8
BLACK
6
CONTINUOUS
10
0.408735
20
0.0999541
11
0.410896
21
0.0977925
0
LINE
8
BLACK
6
CONTINUOUS
10
0.410896
20
0.0977925
11
0.411687
21
0.0948397
0
LINE
8
BLACK
6
CONTINUOUS
10
0.411687
20
0.0948397
11
0.411687
21
0.0357846
0
LINE
8
BLACK
6
CONTINUOUS
10
0.411687
20
0.0357846
11
0.410896
21
0.0328319
0
LINE
8
BLACK
6
CONTINUOUS
10
0.410896
20
0.0328319
11
0.408735
21
0.0306703
0
LINE
8
BLACK
6
CONTINUOUS
10
0.408735
20
0.0306703
11
0.405782
21
0.0298791
0
LINE
8
BLACK
6
CONTINUOUS
10
0.405782
20
0.0298791
11
0.383285
21
0.0298791
0
LINE
8
BLACK
6
CONTINUOUS
10
0.383285
20
0.0298791
11
0.381974
21
0.0302304
0
LINE
8
BLACK
6
CONTINUOUS
10
0.387055
20
0.0608127
11
0.38085
21
0.0587444
0
LINE
8
BLACK
6
CONTINUOUS
10
0.38085
20
0.0587444
11
0.379702
21
0.0575957
0
LINE
8
BLACK
6
CONTINUOUS
10
0.379702
20
0.0575957
11
0.377941
21
0.0540756
0
LINE
8
BLACK
6
CONTINUOUS
10
0.377941
20
0.0540756
11
0.377941
21
0.0484273
0
LINE
8
BLACK
6
CONTINUOUS
10
0.377941
20
0.0484273
11
0.379702
21
0.0449071
0
LINE
8
BLACK
6
CONTINUOUS
10
0.379702
20
0.0449071
11
0.381158
21
0.0434502
0
LINE
8
BLACK
6
CONTINUOUS
10
0.381158
20
0.0434502
11
0.384679
21
0.0416901
0
LINE
8
BLACK
6
CONTINUOUS
10
0.384679
20
0.0416901
11
0.399876
21
0.0416901
0
LINE
8
BLACK
6
CONTINUOUS
10
0.399876
20
0.0416901
11
0.399876
21
0.0608127
0
LINE
8
BLACK
6
CONTINUOUS
10
0.399876
20
0.0608127
11
0.387055
21
0.0608127
0
LINE
8
BLACK
6
CONTINUOUS
10
0.387491
20
0.0889342
11
0.383971
21
0.0871741
0
LINE
8
BLACK
6
CONTINUOUS
10
0.383971
20
0.0871741
11
0.382514
21
0.0857172
0
LINE
8
BLACK
6
CONTINUOUS
10
0.382514
20
0.0857172
11
0.380754
21
0.082197
0
LINE
8
BLACK
6
CONTINUOUS
10
0.380754
20
0.082197
11
0.380754
21
0.0793609
0
LINE
8
BLACK
6
CONTINUOUS
10
0.380754
20
0.0793609
11
0.382514
21
0.0758407
0
LINE
8
BLACK
6
CONTINUOUS
10
0.382514
20
0.0758407
11
0.383971
21
0.0743839
0
LINE
8
BLACK
6
CONTINUOUS
10
0.383971
20
0.0743839
11
0.387491
21
0.0726237
0
LINE
8
BLACK
6
CONTINUOUS
10
0.387491
20
0.0726237
11
0.399876
21
0.0726237
0
LINE
8
BLACK
6
CONTINUOUS
10
0.399876
20
0.0726237
11
0.399876
21
0.0889342
0
LINE
8
BLACK
6
CONTINUOUS
10
0.399876
20
0.0889342
11
0.387491
21
0.0889342
0
LINE
8
BLACK
6
CONTINUOUS
10
0.276564
20
0.080269
11
0.278725
21
0.0781074
0
LINE
8
BLACK
6
CONTINUOUS
10
0.278725
20
0.0781074
11
0.279516
21
0.0751547
0
LINE
8
BLACK
6
CONTINUOUS
10
0.279516
20
0.0751547
11
0.278725
21
0.0722019
0
LINE
8
BLACK
6
CONTINUOUS
10
0.278725
20
0.0722019
11
0.276564
21
0.0700404
0
LINE
8
BLACK
6
CONTINUOUS
10
0.276564
20
0.0700404
11
0.273611
21
0.0692492
0
LINE
8
BLACK
6
CONTINUOUS
10
0.273611
20
0.0692492
11
0.254828
21
0.0692492
0
LINE
8
BLACK
6
CONTINUOUS
10
0.254828
20
0.0692492
11
0.278254
21
0.0394332
0
LINE
8
BLACK
6
CONTINUOUS
10
0.278254
20
0.0394332
11
0.278423
21
0.0390398
0
LINE
8
BLACK
6
CONTINUOUS
10
0.278423
20
0.0390398
11
0.278725
21
0.0387374
0
LINE
8
BLACK
6
CONTINUOUS
10
0.278725
20
0.0387374
11
0.279015
21
0.0376539
0
LINE
8
BLACK
6
CONTINUOUS
10
0.279015
20
0.0376539
11
0.279457
21
0.0366226
0
LINE
8
BLACK
6
CONTINUOUS
10
0.279457
20
0.0366226
11
0.279406
21
0.0361978
0
LINE
8
BLACK
6
CONTINUOUS
10
0.279406
20
0.0361978
11
0.279516
21
0.0357846
0
LINE
8
BLACK
6
CONTINUOUS
10
0.279516
20
0.0357846
11
0.279226
21
0.034701
0
LINE
8
BLACK
6
CONTINUOUS
10
0.279226
20
0.034701
11
0.279092
21
0.0335874
0
LINE
8
BLACK
6
CONTINUOUS
10
0.279092
20
0.0335874
11
0.278836
21
0.0332451
0
LINE
8
BLACK
6
CONTINUOUS
10
0.278836
20
0.0332451
11
0.278725
21
0.0328319
0
LINE
8
BLACK
6
CONTINUOUS
10
0.278725
20
0.0328319
11
0.277932
21
0.0320385
0
LINE
8
BLACK
6
CONTINUOUS
10
0.277932
20
0.0320385
11
0.277259
21
0.031141
0
LINE
8
BLACK
6
CONTINUOUS
10
0.277259
20
0.031141
11
0.276866
21
0.0309728
0
LINE
8
BLACK
6
CONTINUOUS
10
0.276866
20
0.0309728
11
0.276564
21
0.0306703
0
LINE
8
BLACK
6
CONTINUOUS
10
0.276564
20
0.0306703
11
0.27548
21
0.0303799
0
LINE
8
BLACK
6
CONTINUOUS
10
0.27548
20
0.0303799
11
0.274449
21
0.0299389
0
LINE
8
BLACK
6
CONTINUOUS
10
0.274449
20
0.0299389
11
0.274024
21
0.0299898
0
LINE
8
BLACK
6
CONTINUOUS
10
0.274024
20
0.0299898
11
0.273611
21
0.0298791
0
LINE
8
BLACK
6
CONTINUOUS
10
0.273611
20
0.0298791
11
0.242677
21
0.0298791
0
LINE
8
BLACK
6
CONTINUOUS
10
0.242677
20
0.0298791
11
0.239724
21
0.0306703
0
LINE
8
BLACK
6
CONTINUOUS
10
0.239724
20
0.0306703
11
0.237563
21
0.0328319
0
LINE
8
BLACK
6
CONTINUOUS
10
0.237563
20
0.0328319
11
0.236772
21
0.0357846
0
LINE
8
BLACK
6
CONTINUOUS
10
0.236772
20
0.0357846
11
0.237563
21
0.0387374
0
LINE
8
BLACK
6
CONTINUOUS
10
0.237563
20
0.0387374
11
0.239724
21
0.0408989
0
LINE
8
BLACK
6
CONTINUOUS
10
0.239724
20
0.0408989
11
0.242677
21
0.0416901
0
LINE
8
BLACK
6
CONTINUOUS
10
0.242677
20
0.0416901
11
0.26146
21
0.0416901
0
LINE
8
BLACK
6
CONTINUOUS
10
0.26146
20
0.0416901
11
0.238034
21
0.0715061
0
LINE
8
BLACK
6
CONTINUOUS
10
0.238034
20
0.0715061
11
0.237865
21
0.0718994
0
LINE
8
BLACK
6
CONTINUOUS
10
0.237865
20
0.0718994
11
0.237563
21
0.0722019
0
LINE
8
BLACK
6
CONTINUOUS
10
0.237563
20
0.0722019
11
0.237273
21
0.0732853
0
LINE
8
BLACK
6
CONTINUOUS
10
0.237273
20
0.0732853
11
0.236831
21
0.0743167
0
LINE
8
BLACK
6
CONTINUOUS
10
0.236831
20
0.0743167
11
0.236882
21
0.0747415
0
LINE
8
BLACK
6
CONTINUOUS
10
0.236882
20
0.0747415
11
0.236772
21
0.0751547
0
LINE
8
BLACK
6
CONTINUOUS
10
0.236772
20
0.0751547
11
0.237062
21
0.0762382
0
LINE
8
BLACK
6
CONTINUOUS
10
0.237062
20
0.0762382
11
0.237196
21
0.0773519
0
LINE
8
BLACK
6
CONTINUOUS
10
0.237196
20
0.0773519
11
0.237452
21
0.0776942
0
LINE
8
BLACK
6
CONTINUOUS
10
0.237452
20
0.0776942
11
0.237563
21
0.0781074
0
LINE
8
BLACK
6
CONTINUOUS
10
0.237563
20
0.0781074
11
0.238356
21
0.0789007
0
LINE
8
BLACK
6
CONTINUOUS
10
0.238356
20
0.0789007
11
0.239029
21
0.0797983
0
LINE
8
BLACK
6
CONTINUOUS
10
0.239029
20
0.0797983
11
0.239422
21
0.0799665
0
LINE
8
BLACK
6
CONTINUOUS
10
0.239422
20
0.0799665
11
0.239724
21
0.080269
0
LINE
8
BLACK
6
CONTINUOUS
10
0.239724
20
0.080269
11
0.240808
21
0.0805593
0
LINE
8
BLACK
6
CONTINUOUS
10
0.240808
20
0.0805593
11
0.241839
21
0.0810005
0
LINE
8
BLACK
6
CONTINUOUS
10
0.241839
20
0.0810005
11
0.242264
21
0.0809495
0
LINE
8
BLACK
6
CONTINUOUS
10
0.242264
20
0.0809495
11
0.242677
21
0.0810602
0
LINE
8
BLACK
6
CONTINUOUS
10
0.242677
20
0.0810602
11
0.273611
21
0.0810602
0
LINE
8
BLACK
6
CONTINUOUS
10
0.273611
20
0.0810602
11
0.276564
21
0.080269
0
LINE
8
BLACK
6
CONTINUOUS
10
0.572935
20
0.100414
11
0.574196
21
0.100191
0
LINE
8
BLACK
6
CONTINUOUS
10
0.574196
20
0.100191
11
0.574397
21
0.100022
0
LINE
8
BLACK
6
CONTINUOUS
10
0.574397
20
0.100022
11
0.574651
21
0.0999541
0
LINE
8
BLACK
6
CONTINUOUS
10
0.574651
20
0.0999541
11
0.575556
21
0.0990489
0
LINE
8
BLACK
6
CONTINUOUS
10
0.575556
20
0.0990489
11
0.576537
21
0.0982256
0
LINE
8
BLACK
6
CONTINUOUS
10
0.576537
20
0.0982256
11
0.576627
21
0.0979784
0
LINE
8
BLACK
6
CONTINUOUS
10
0.576627
20
0.0979784
11
0.576813
21
0.0977925
0
LINE
8
BLACK
6
CONTINUOUS
10
0.576813
20
0.0977925
11
0.577144
21
0.0965559
0
LINE
8
BLACK
6
CONTINUOUS
10
0.577144
20
0.0965559
11
0.577582
21
0.0953527
0
LINE
8
BLACK
6
CONTINUOUS
10
0.577582
20
0.0953527
11
0.577536
21
0.0950937
0
LINE
8
BLACK
6
CONTINUOUS
10
0.577536
20
0.0950937
11
0.577604
21
0.0948397
0
LINE
8
BLACK
6
CONTINUOUS
10
0.577604
20
0.0948397
11
0.577604
21
0.0357846
0
LINE
8
BLACK
6
CONTINUOUS
10
0.577604
20
0.0357846
11
0.576813
21
0.0328319
0
LINE
8
BLACK
6
CONTINUOUS
10
0.576813
20
0.0328319
11
0.574651
21
0.0306703
0
LINE
8
BLACK
6
CONTINUOUS
10
0.574651
20
0.0306703
11
0.571699
21
0.0298791
0
LINE
8
BLACK
6
CONTINUOUS
10
0.571699
20
0.0298791
11
0.568746
21
0.0306703
0
LINE
8
BLACK
6
CONTINUOUS
10
0.568746
20
0.0306703
11
0.566584
21
0.0328319
0
LINE
8
BLACK
6
CONTINUOUS
10
0.566584
20
0.0328319
11
0.565793
21
0.0357846
0
LINE
8
BLACK
6
CONTINUOUS
10
0.565793
20
0.0357846
11
0.565793
21
0.0682203
0
LINE
8
BLACK
6
CONTINUOUS
10
0.565793
20
0.0682203
11
0.557365
21
0.0501601
0
LINE
8
BLACK
6
CONTINUOUS
10
0.557365
20
0.0501601
11
0.55703
21
0.0497612
0
LINE
8
BLACK
6
CONTINUOUS
10
0.55703
20
0.0497612
11
0.556852
21
0.0492716
0
LINE
8
BLACK
6
CONTINUOUS
10
0.556852
20
0.0492716
11
0.556062
21
0.0486085
0
LINE
8
BLACK
6
CONTINUOUS
10
0.556062
20
0.0486085
11
0.555399
21
0.047819
0
LINE
8
BLACK
6
CONTINUOUS
10
0.555399
20
0.047819
11
0.55491
21
0.047641
0
LINE
8
BLACK
6
CONTINUOUS
10
0.55491
20
0.047641
11
0.554511
21
0.047306
0
LINE
8
BLACK
6
CONTINUOUS
10
0.554511
20
0.047306
11
0.553495
21
0.0471266
0
LINE
8
BLACK
6
CONTINUOUS
10
0.553495
20
0.0471266
11
0.552526
21
0.0467743
0
LINE
8
BLACK
6
CONTINUOUS
10
0.552526
20
0.0467743
11
0.552014
21
0.0468649
0
LINE
8
BLACK
6
CONTINUOUS
10
0.552014
20
0.0468649
11
0.551501
21
0.0467743
0
LINE
8
BLACK
6
CONTINUOUS
10
0.551501
20
0.0467743
11
0.550531
21
0.0471267
0
LINE
8
BLACK
6
CONTINUOUS
10
0.550531
20
0.0471267
11
0.549516
21
0.047306
0
LINE
8
BLACK
6
CONTINUOUS
10
0.549516
20
0.047306
11
0.549117
21
0.0476409
0
LINE
8
BLACK
6
CONTINUOUS
10
0.549117
20
0.0476409
11
0.548628
21
0.0478189
0
LINE
8
BLACK
6
CONTINUOUS
10
0.548628
20
0.0478189
11
0.547965
21
0.0486087
0
LINE
8
BLACK
6
CONTINUOUS
10
0.547965
20
0.0486087
11
0.547175
21
0.0492717
0
LINE
8
BLACK
6
CONTINUOUS
10
0.547175
20
0.0492717
11
0.546997
21
0.0497612
0
LINE
8
BLACK
6
CONTINUOUS
10
0.546997
20
0.0497612
11
0.546662
21
0.0501601
0
LINE
8
BLACK
6
CONTINUOUS
10
0.546662
20
0.0501601
11
0.538234
21
0.0682203
0
LINE
8
BLACK
6
CONTINUOUS
10
0.538234
20
0.0682203
11
0.538234
21
0.0357846
0
LINE
8
BLACK
6
CONTINUOUS
10
0.538234
20
0.0357846
11
0.537443
21
0.0328319
0
LINE
8
BLACK
6
CONTINUOUS
10
0.537443
20
0.0328319
11
0.535281
21
0.0306703
0
LINE
8
BLACK
6
CONTINUOUS
10
0.535281
20
0.0306703
11
0.532328
21
0.0298791
0
LINE
8
BLACK
6
CONTINUOUS
10
0.532328
20
0.0298791
11
0.529376
21
0.0306703
0
LINE
8
BLACK
6
CONTINUOUS
10
0.529376
20
0.0306703
11
0.527214
21
0.0328319
0
LINE
8
BLACK
6
CONTINUOUS
10
0.527214
20
0.0328319
11
0.526423
21
0.0357846
0
LINE
8
BLACK
6
CONTINUOUS
10
0.526423
20
0.0357846
11
0.526423
21
0.0948397
0
LINE
8
BLACK
6
CONTINUOUS
10
0.526423
20
0.0948397
11
0.526491
21
0.0950937
0
LINE
8
BLACK
6
CONTINUOUS
10
0.526491
20
0.0950937
11
0.526445
21
0.0953527
0
LINE
8
BLACK
6
CONTINUOUS
10
0.526445
20
0.0953527
11
0.526883
21
0.0965557
0
LINE
8
BLACK
6
CONTINUOUS
10
0.526883
20
0.0965557
11
0.527214
21
0.0977925
0
LINE
8
BLACK
6
CONTINUOUS
10
0.527214
20
0.0977925
11
0.5274
21
0.0979785
0
LINE
8
BLACK
6
CONTINUOUS
10
0.5274
20
0.0979785
11
0.52749
21
0.0982256
0
LINE
8
BLACK
6
CONTINUOUS
10
0.52749
20
0.0982256
11
0.52847
21
0.0990487
0
LINE
8
BLACK
6
CONTINUOUS
10
0.52847
20
0.0990487
11
0.529376
21
0.0999541
0
LINE
8
BLACK
6
CONTINUOUS
10
0.529376
20
0.0999541
11
0.52963
21
0.100022
0
LINE
8
BLACK
6
CONTINUOUS
10
0.52963
20
0.100022
11
0.529831
21
0.100191
0
LINE
8
BLACK
6
CONTINUOUS
10
0.529831
20
0.100191
11
0.531092
21
0.100414
0
LINE
8
BLACK
6
CONTINUOUS
10
0.531092
20
0.100414
11
0.532328
21
0.100745
0
LINE
8
BLACK
6
CONTINUOUS
10
0.532328
20
0.100745
11
0.532582
21
0.100677
0
LINE
8
BLACK
6
CONTINUOUS
10
0.532582
20
0.100677
11
0.532841
21
0.100723
0
LINE
8
BLACK
6
CONTINUOUS
10
0.532841
20
0.100723
11
0.534044
21
0.100285
0
LINE
8
BLACK
6
CONTINUOUS
10
0.534044
20
0.100285
11
0.535281
21
0.0999541
0
LINE
8
BLACK
6
CONTINUOUS
10
0.535281
20
0.0999541
11
0.535467
21
0.0997681
0
LINE
8
BLACK
6
CONTINUOUS
10
0.535467
20
0.0997681
11
0.535714
21
0.0996782
0
LINE
8
BLACK
6
CONTINUOUS
10
0.535714
20
0.0996782
11
0.536537
21
0.0986979
0
LINE
8
BLACK
6
CONTINUOUS
10
0.536537
20
0.0986979
11
0.537443
21
0.0977925
0
LINE
8
BLACK
6
CONTINUOUS
10
0.537443
20
0.0977925
11
0.537511
21
0.0975384
0
LINE
8
BLACK
6
CONTINUOUS
10
0.537511
20
0.0975384
11
0.53768
21
0.0973371
0
LINE
8
BLACK
6
CONTINUOUS
10
0.53768
20
0.0973371
11
0.552013
21
0.0666223
0
LINE
8
BLACK
6
CONTINUOUS
10
0.552013
20
0.0666223
11
0.566347
21
0.0973371
0
LINE
8
BLACK
6
CONTINUOUS
10
0.566347
20
0.0973371
11
0.566516
21
0.0975384
0
LINE
8
BLACK
6
CONTINUOUS
10
0.566516
20
0.0975384
11
0.566584
21
0.0977925
0
LINE
8
BLACK
6
CONTINUOUS
10
0.566584
20
0.0977925
11
0.567489
21
0.0986978
0
LINE
8
BLACK
6
CONTINUOUS
10
0.567489
20
0.0986978
11
0.568313
21
0.0996783
0
LINE
8
BLACK
6
CONTINUOUS
10
0.568313
20
0.0996783
11
0.56856
21
0.0997681
0
LINE
8
BLACK
6
CONTINUOUS
10
0.56856
20
0.0997681
11
0.568746
21
0.0999541
0
LINE
8
BLACK
6
CONTINUOUS
10
0.568746
20
0.0999541
11
0.569982
21
0.100285
0
LINE
8
BLACK
6
CONTINUOUS
10
0.569982
20
0.100285
11
0.571186
21
0.100723
0
LINE
8
BLACK
6
CONTINUOUS
10
0.571186
20
0.100723
11
0.571445
21
0.100677
0
LINE
8
BLACK
6
CONTINUOUS
10
0.571445
20
0.100677
11
0.571699
21
0.100745
0
LINE
8
BLACK
6
CONTINUOUS
10
0.571699
20
0.100745
11
0.572935
21
0.100414
  0
ENDSEC
  0
EOF
