  0
SECTION
  2
HEADER
  9
$ANGBASE
  50
0.0
  9
$ANGDIR
  70
1
  9
$MEASUREMENT
  70
0
  0
ENDSEC
  0
SECTION
  2
TABLES
  0
TABLE
  2
LTYPE
  70
4
  0
LTYPE
  5
40F
  2
CONTINUOUS
  70
0
  3
Solid line
  72
65
  73
0
  40
0.0
  0
LTYPE
  5
410
  2
DASHDOT
 70
0
  3
Dash Dot ____ _ ____ _
 72
65
 73
4
 40
2.0
 49
1.25
 49
-0.25
 49
0.25
 49
-0.25
  0
LTYPE
  5
411
  2
DASHED
 70
0
  3
Dashed __ __ __ __ __
 72
65
 73
2
 40
0.75
 49
0.5
 49
-0.25
  0
LTYPE
  5
43B
  2
DOTTED
 70
0
  3
Dotted .  .  .  .
 72
65
 73
2
 40
0.2
 49
0.0
 49
-0.2
  0
ENDTAB
  0
TABLE
  2
STYLE
  70
4
  0
STYLE
  2
KICAD
  70
0
  40
0
  41
1
  42
1
  50
0
  71
0
  3
isocp.shx
  0
STYLE
  2
KICADB
  70
0
  40
0
  41
1
  42
1
  50
0
  71
0
  3
isocp.shx
  0
STYLE
  2
KICADI
  70
0
  40
0
  41
1
  42
1
  50
15
  71
0
  3
isocp.shx
  0
STYLE
  2
KICADBI
  70
0
  40
0
  41
1
  42
1
  50
15
  71
0
  3
isocp.shx
  0
ENDTAB
  0
TABLE
  2
LAYER
  70
1
  0
LAYER
  2
BLACK
  70
0
  62
7
  6
CONTINUOUS
  0
ENDTAB
  0
ENDSEC
  0
SECTION
  2
ENTITIES
0
LINE
8
BLACK
6
CONTINUOUS
10
0.0140628
20
-0.67519
11
0.0279486
21
-0.677549
0
LINE
8
BLACK
6
CONTINUOUS
10
0.0279486
20
-0.677549
11
0.041483
21
-0.681448
0
LINE
8
BLACK
6
CONTINUOUS
10
0.041483
20
-0.681448
11
0.0544958
21
-0.686838
0
LINE
8
BLACK
6
CONTINUOUS
10
0.0544958
20
-0.686838
11
0.0668232
21
-0.693651
0
LINE
8
BLACK
6
CONTINUOUS
10
0.0668232
20
-0.693651
11
0.0783103
21
-0.701802
0
LINE
8
BLACK
6
CONTINUOUS
10
0.0783103
20
-0.701802
11
0.0888126
21
-0.711187
0
LINE
8
BLACK
6
CONTINUOUS
10
0.0888126
20
-0.711187
11
0.098198
21
-0.72169
0
LINE
8
BLACK
6
CONTINUOUS
10
0.098198
20
-0.72169
11
0.106349
21
-0.733177
0
LINE
8
BLACK
6
CONTINUOUS
10
0.106349
20
-0.733177
11
0.113162
21
-0.745504
0
LINE
8
BLACK
6
CONTINUOUS
10
0.113162
20
-0.745504
11
0.118552
21
-0.758517
0
LINE
8
BLACK
6
CONTINUOUS
10
0.118552
20
-0.758517
11
0.122451
21
-0.772051
0
LINE
8
BLACK
6
CONTINUOUS
10
0.122451
20
-0.772051
11
0.12481
21
-0.785937
0
LINE
8
BLACK
6
CONTINUOUS
10
0.12481
20
-0.785937
11
0.1256
21
-0.8
0
LINE
8
BLACK
6
CONTINUOUS
10
0.1256
20
-0.8
11
0.12481
21
-0.814063
0
LINE
8
BLACK
6
CONTINUOUS
10
0.12481
20
-0.814063
11
0.122451
21
-0.827949
0
LINE
8
BLACK
6
CONTINUOUS
10
0.122451
20
-0.827949
11
0.118552
21
-0.841483
0
LINE
8
BLACK
6
CONTINUOUS
10
0.118552
20
-0.841483
11
0.113162
21
-0.854496
0
LINE
8
BLACK
6
CONTINUOUS
10
0.113162
20
-0.854496
11
0.106349
21
-0.866823
0
LINE
8
BLACK
6
CONTINUOUS
10
0.106349
20
-0.866823
11
0.098198
21
-0.87831
0
LINE
8
BLACK
6
CONTINUOUS
10
0.098198
20
-0.87831
11
0.0888126
21
-0.888813
0
LINE
8
BLACK
6
CONTINUOUS
10
0.0888126
20
-0.888813
11
0.0783103
21
-0.898198
0
LINE
8
BLACK
6
CONTINUOUS
10
0.0783103
20
-0.898198
11
0.0668232
21
-0.906349
0
LINE
8
BLACK
6
CONTINUOUS
10
0.0668232
20
-0.906349
11
0.0544958
21
-0.913162
0
LINE
8
BLACK
6
CONTINUOUS
10
0.0544958
20
-0.913162
11
0.041483
21
-0.918552
0
LINE
8
BLACK
6
CONTINUOUS
10
0.041483
20
-0.918552
11
0.0279486
21
-0.922451
0
LINE
8
BLACK
6
CONTINUOUS
10
0.0279486
20
-0.922451
11
0.0140628
21
-0.92481
0
LINE
8
BLACK
6
CONTINUOUS
10
0.0140628
20
-0.92481
11
0
21
-0.9256
0
LINE
8
BLACK
6
CONTINUOUS
10
0
20
-0.9256
11
-0.0140628
21
-0.92481
0
LINE
8
BLACK
6
CONTINUOUS
10
-0.0140628
20
-0.92481
11
-0.0279486
21
-0.922451
0
LINE
8
BLACK
6
CONTINUOUS
10
-0.0279486
20
-0.922451
11
-0.041483
21
-0.918552
0
LINE
8
BLACK
6
CONTINUOUS
10
-0.041483
20
-0.918552
11
-0.0544958
21
-0.913162
0
LINE
8
BLACK
6
CONTINUOUS
10
-0.0544958
20
-0.913162
11
-0.0668232
21
-0.906349
0
LINE
8
BLACK
6
CONTINUOUS
10
-0.0668232
20
-0.906349
11
-0.0783103
21
-0.898198
0
LINE
8
BLACK
6
CONTINUOUS
10
-0.0783103
20
-0.898198
11
-0.0888126
21
-0.888813
0
LINE
8
BLACK
6
CONTINUOUS
10
-0.0888126
20
-0.888813
11
-0.098198
21
-0.87831
0
LINE
8
BLACK
6
CONTINUOUS
10
-0.098198
20
-0.87831
11
-0.106349
21
-0.866823
0
LINE
8
BLACK
6
CONTINUOUS
10
-0.106349
20
-0.866823
11
-0.113162
21
-0.854496
0
LINE
8
BLACK
6
CONTINUOUS
10
-0.113162
20
-0.854496
11
-0.118552
21
-0.841483
0
LINE
8
BLACK
6
CONTINUOUS
10
-0.118552
20
-0.841483
11
-0.122451
21
-0.827949
0
LINE
8
BLACK
6
CONTINUOUS
10
-0.122451
20
-0.827949
11
-0.12481
21
-0.814063
0
LINE
8
BLACK
6
CONTINUOUS
10
-0.12481
20
-0.814063
11
-0.1256
21
-0.8
0
LINE
8
BLACK
6
CONTINUOUS
10
-0.1256
20
-0.8
11
-0.12481
21
-0.785937
0
LINE
8
BLACK
6
CONTINUOUS
10
-0.12481
20
-0.785937
11
-0.122451
21
-0.772051
0
LINE
8
BLACK
6
CONTINUOUS
10
-0.122451
20
-0.772051
11
-0.118552
21
-0.758517
0
LINE
8
BLACK
6
CONTINUOUS
10
-0.118552
20
-0.758517
11
-0.113162
21
-0.745504
0
LINE
8
BLACK
6
CONTINUOUS
10
-0.113162
20
-0.745504
11
-0.106349
21
-0.733177
0
LINE
8
BLACK
6
CONTINUOUS
10
-0.106349
20
-0.733177
11
-0.098198
21
-0.72169
0
LINE
8
BLACK
6
CONTINUOUS
10
-0.098198
20
-0.72169
11
-0.0888126
21
-0.711187
0
LINE
8
BLACK
6
CONTINUOUS
10
-0.0888126
20
-0.711187
11
-0.0783103
21
-0.701802
0
LINE
8
BLACK
6
CONTINUOUS
10
-0.0783103
20
-0.701802
11
-0.0668232
21
-0.693651
0
LINE
8
BLACK
6
CONTINUOUS
10
-0.0668232
20
-0.693651
11
-0.0544958
21
-0.686838
0
LINE
8
BLACK
6
CONTINUOUS
10
-0.0544958
20
-0.686838
11
-0.041483
21
-0.681448
0
LINE
8
BLACK
6
CONTINUOUS
10
-0.041483
20
-0.681448
11
-0.0279486
21
-0.677549
0
LINE
8
BLACK
6
CONTINUOUS
10
-0.0279486
20
-0.677549
11
-0.0140628
21
-0.67519
0
LINE
8
BLACK
6
CONTINUOUS
10
-0.0140628
20
-0.67519
11
0
21
-0.6744
0
LINE
8
BLACK
6
CONTINUOUS
10
0
20
-0.6744
11
0.0140628
21
-0.67519
0
LINE
8
BLACK
6
CONTINUOUS
10
-0.110038
20
-0.812862
11
-0.107801
21
-0.825549
0
LINE
8
BLACK
6
CONTINUOUS
10
-0.107801
20
-0.825549
11
-0.104106
21
-0.837892
0
LINE
8
BLACK
6
CONTINUOUS
10
-0.104106
20
-0.837892
11
-0.0990033
21
-0.849721
0
LINE
8
BLACK
6
CONTINUOUS
10
-0.0990033
20
-0.849721
11
-0.0925616
21
-0.860879
0
LINE
8
BLACK
6
CONTINUOUS
10
-0.0925616
20
-0.860879
11
-0.0848681
21
-0.871213
0
LINE
8
BLACK
6
CONTINUOUS
10
-0.0848681
20
-0.871213
11
-0.076027
21
-0.880584
0
LINE
8
BLACK
6
CONTINUOUS
10
-0.076027
20
-0.880584
11
-0.0661577
21
-0.888865
0
LINE
8
BLACK
6
CONTINUOUS
10
-0.0661577
20
-0.888865
11
-0.0553937
21
-0.895945
0
LINE
8
BLACK
6
CONTINUOUS
10
-0.0553937
20
-0.895945
11
-0.0438807
21
-0.901727
0
LINE
8
BLACK
6
CONTINUOUS
10
-0.0438807
20
-0.901727
11
-0.0317742
21
-0.906133
0
LINE
8
BLACK
6
CONTINUOUS
10
-0.0317742
20
-0.906133
11
-0.019238
21
-0.909104
0
LINE
8
BLACK
6
CONTINUOUS
10
-0.019238
20
-0.909104
11
-0.00644173
21
-0.9106
0
LINE
8
BLACK
6
CONTINUOUS
10
-0.00644173
20
-0.9106
11
0.00644173
21
-0.9106
0
LINE
8
BLACK
6
CONTINUOUS
10
0.00644173
20
-0.9106
11
0.019238
21
-0.909104
0
LINE
8
BLACK
6
CONTINUOUS
10
0.019238
20
-0.909104
11
0.0317742
21
-0.906133
0
LINE
8
BLACK
6
CONTINUOUS
10
0.0317742
20
-0.906133
11
0.0438807
21
-0.901727
0
LINE
8
BLACK
6
CONTINUOUS
10
0.0438807
20
-0.901727
11
0.0553937
21
-0.895945
0
LINE
8
BLACK
6
CONTINUOUS
10
0.0553937
20
-0.895945
11
0.0661577
21
-0.888865
0
LINE
8
BLACK
6
CONTINUOUS
10
0.0661577
20
-0.888865
11
0.076027
21
-0.880584
0
LINE
8
BLACK
6
CONTINUOUS
10
0.076027
20
-0.880584
11
0.0848681
21
-0.871213
0
LINE
8
BLACK
6
CONTINUOUS
10
0.0848681
20
-0.871213
11
0.0925616
21
-0.860879
0
LINE
8
BLACK
6
CONTINUOUS
10
0.0925616
20
-0.860879
11
0.0990033
21
-0.849721
0
LINE
8
BLACK
6
CONTINUOUS
10
0.0990033
20
-0.849721
11
0.104106
21
-0.837892
0
LINE
8
BLACK
6
CONTINUOUS
10
0.104106
20
-0.837892
11
0.107801
21
-0.825549
0
LINE
8
BLACK
6
CONTINUOUS
10
0.107801
20
-0.825549
11
0.110038
21
-0.812862
0
LINE
8
BLACK
6
CONTINUOUS
10
0.110038
20
-0.812862
11
0.110787
21
-0.8
0
LINE
8
BLACK
6
CONTINUOUS
10
0.110787
20
-0.8
11
0.110038
21
-0.787138
0
LINE
8
BLACK
6
CONTINUOUS
10
0.110038
20
-0.787138
11
0.107801
21
-0.774451
0
LINE
8
BLACK
6
CONTINUOUS
10
0.107801
20
-0.774451
11
0.104106
21
-0.762108
0
LINE
8
BLACK
6
CONTINUOUS
10
0.104106
20
-0.762108
11
0.0990033
21
-0.750279
0
LINE
8
BLACK
6
CONTINUOUS
10
0.0990033
20
-0.750279
11
0.0925616
21
-0.739121
0
LINE
8
BLACK
6
CONTINUOUS
10
0.0925616
20
-0.739121
11
0.0848681
21
-0.728787
0
LINE
8
BLACK
6
CONTINUOUS
10
0.0848681
20
-0.728787
11
0.076027
21
-0.719416
0
LINE
8
BLACK
6
CONTINUOUS
10
0.076027
20
-0.719416
11
0.0661577
21
-0.711135
0
LINE
8
BLACK
6
CONTINUOUS
10
0.0661577
20
-0.711135
11
0.0553937
21
-0.704055
0
LINE
8
BLACK
6
CONTINUOUS
10
0.0553937
20
-0.704055
11
0.0438807
21
-0.698273
0
LINE
8
BLACK
6
CONTINUOUS
10
0.0438807
20
-0.698273
11
0.0317742
21
-0.693867
0
LINE
8
BLACK
6
CONTINUOUS
10
0.0317742
20
-0.693867
11
0.019238
21
-0.690896
0
LINE
8
BLACK
6
CONTINUOUS
10
0.019238
20
-0.690896
11
0.00644173
21
-0.6894
0
LINE
8
BLACK
6
CONTINUOUS
10
0.00644173
20
-0.6894
11
-0.00644173
21
-0.6894
0
LINE
8
BLACK
6
CONTINUOUS
10
-0.00644173
20
-0.6894
11
-0.019238
21
-0.690896
0
LINE
8
BLACK
6
CONTINUOUS
10
-0.019238
20
-0.690896
11
-0.0317742
21
-0.693867
0
LINE
8
BLACK
6
CONTINUOUS
10
-0.0317742
20
-0.693867
11
-0.0438807
21
-0.698273
0
LINE
8
BLACK
6
CONTINUOUS
10
-0.0438807
20
-0.698273
11
-0.0553937
21
-0.704055
0
LINE
8
BLACK
6
CONTINUOUS
10
-0.0553937
20
-0.704055
11
-0.0661577
21
-0.711135
0
LINE
8
BLACK
6
CONTINUOUS
10
-0.0661577
20
-0.711135
11
-0.076027
21
-0.719416
0
LINE
8
BLACK
6
CONTINUOUS
10
-0.076027
20
-0.719416
11
-0.0848681
21
-0.728787
0
LINE
8
BLACK
6
CONTINUOUS
10
-0.0848681
20
-0.728787
11
-0.0925616
21
-0.739121
0
LINE
8
BLACK
6
CONTINUOUS
10
-0.0925616
20
-0.739121
11
-0.0990033
21
-0.750279
0
LINE
8
BLACK
6
CONTINUOUS
10
-0.0990033
20
-0.750279
11
-0.104106
21
-0.762108
0
LINE
8
BLACK
6
CONTINUOUS
10
-0.104106
20
-0.762108
11
-0.107801
21
-0.774451
0
LINE
8
BLACK
6
CONTINUOUS
10
-0.107801
20
-0.774451
11
-0.110038
21
-0.787138
0
LINE
8
BLACK
6
CONTINUOUS
10
-0.110038
20
-0.787138
11
-0.110787
21
-0.8
0
LINE
8
BLACK
6
CONTINUOUS
10
-0.110787
20
-0.8
11
-0.110038
21
-0.812862
0
LINE
8
BLACK
6
CONTINUOUS
10
1.61406
20
-0.67519
11
1.62795
21
-0.677549
0
LINE
8
BLACK
6
CONTINUOUS
10
1.62795
20
-0.677549
11
1.64148
21
-0.681448
0
LINE
8
BLACK
6
CONTINUOUS
10
1.64148
20
-0.681448
11
1.6545
21
-0.686838
0
LINE
8
BLACK
6
CONTINUOUS
10
1.6545
20
-0.686838
11
1.66682
21
-0.693651
0
LINE
8
BLACK
6
CONTINUOUS
10
1.66682
20
-0.693651
11
1.67831
21
-0.701802
0
LINE
8
BLACK
6
CONTINUOUS
10
1.67831
20
-0.701802
11
1.68881
21
-0.711187
0
LINE
8
BLACK
6
CONTINUOUS
10
1.68881
20
-0.711187
11
1.6982
21
-0.72169
0
LINE
8
BLACK
6
CONTINUOUS
10
1.6982
20
-0.72169
11
1.70635
21
-0.733177
0
LINE
8
BLACK
6
CONTINUOUS
10
1.70635
20
-0.733177
11
1.71316
21
-0.745504
0
LINE
8
BLACK
6
CONTINUOUS
10
1.71316
20
-0.745504
11
1.71855
21
-0.758517
0
LINE
8
BLACK
6
CONTINUOUS
10
1.71855
20
-0.758517
11
1.72245
21
-0.772051
0
LINE
8
BLACK
6
CONTINUOUS
10
1.72245
20
-0.772051
11
1.72481
21
-0.785937
0
LINE
8
BLACK
6
CONTINUOUS
10
1.72481
20
-0.785937
11
1.7256
21
-0.8
0
LINE
8
BLACK
6
CONTINUOUS
10
1.7256
20
-0.8
11
1.72481
21
-0.814063
0
LINE
8
BLACK
6
CONTINUOUS
10
1.72481
20
-0.814063
11
1.72245
21
-0.827949
0
LINE
8
BLACK
6
CONTINUOUS
10
1.72245
20
-0.827949
11
1.71855
21
-0.841483
0
LINE
8
BLACK
6
CONTINUOUS
10
1.71855
20
-0.841483
11
1.71316
21
-0.854496
0
LINE
8
BLACK
6
CONTINUOUS
10
1.71316
20
-0.854496
11
1.70635
21
-0.866823
0
LINE
8
BLACK
6
CONTINUOUS
10
1.70635
20
-0.866823
11
1.6982
21
-0.87831
0
LINE
8
BLACK
6
CONTINUOUS
10
1.6982
20
-0.87831
11
1.68881
21
-0.888813
0
LINE
8
BLACK
6
CONTINUOUS
10
1.68881
20
-0.888813
11
1.67831
21
-0.898198
0
LINE
8
BLACK
6
CONTINUOUS
10
1.67831
20
-0.898198
11
1.66682
21
-0.906349
0
LINE
8
BLACK
6
CONTINUOUS
10
1.66682
20
-0.906349
11
1.6545
21
-0.913162
0
LINE
8
BLACK
6
CONTINUOUS
10
1.6545
20
-0.913162
11
1.64148
21
-0.918552
0
LINE
8
BLACK
6
CONTINUOUS
10
1.64148
20
-0.918552
11
1.62795
21
-0.922451
0
LINE
8
BLACK
6
CONTINUOUS
10
1.62795
20
-0.922451
11
1.61406
21
-0.92481
0
LINE
8
BLACK
6
CONTINUOUS
10
1.61406
20
-0.92481
11
1.6
21
-0.9256
0
LINE
8
BLACK
6
CONTINUOUS
10
1.6
20
-0.9256
11
1.58594
21
-0.92481
0
LINE
8
BLACK
6
CONTINUOUS
10
1.58594
20
-0.92481
11
1.57205
21
-0.922451
0
LINE
8
BLACK
6
CONTINUOUS
10
1.57205
20
-0.922451
11
1.55852
21
-0.918552
0
LINE
8
BLACK
6
CONTINUOUS
10
1.55852
20
-0.918552
11
1.5455
21
-0.913162
0
LINE
8
BLACK
6
CONTINUOUS
10
1.5455
20
-0.913162
11
1.53318
21
-0.906349
0
LINE
8
BLACK
6
CONTINUOUS
10
1.53318
20
-0.906349
11
1.52169
21
-0.898198
0
LINE
8
BLACK
6
CONTINUOUS
10
1.52169
20
-0.898198
11
1.51119
21
-0.888813
0
LINE
8
BLACK
6
CONTINUOUS
10
1.51119
20
-0.888813
11
1.5018
21
-0.87831
0
LINE
8
BLACK
6
CONTINUOUS
10
1.5018
20
-0.87831
11
1.49365
21
-0.866823
0
LINE
8
BLACK
6
CONTINUOUS
10
1.49365
20
-0.866823
11
1.48684
21
-0.854496
0
LINE
8
BLACK
6
CONTINUOUS
10
1.48684
20
-0.854496
11
1.48145
21
-0.841483
0
LINE
8
BLACK
6
CONTINUOUS
10
1.48145
20
-0.841483
11
1.47755
21
-0.827949
0
LINE
8
BLACK
6
CONTINUOUS
10
1.47755
20
-0.827949
11
1.47519
21
-0.814063
0
LINE
8
BLACK
6
CONTINUOUS
10
1.47519
20
-0.814063
11
1.4744
21
-0.8
0
LINE
8
BLACK
6
CONTINUOUS
10
1.4744
20
-0.8
11
1.47519
21
-0.785937
0
LINE
8
BLACK
6
CONTINUOUS
10
1.47519
20
-0.785937
11
1.47755
21
-0.772051
0
LINE
8
BLACK
6
CONTINUOUS
10
1.47755
20
-0.772051
11
1.48145
21
-0.758517
0
LINE
8
BLACK
6
CONTINUOUS
10
1.48145
20
-0.758517
11
1.48684
21
-0.745504
0
LINE
8
BLACK
6
CONTINUOUS
10
1.48684
20
-0.745504
11
1.49365
21
-0.733177
0
LINE
8
BLACK
6
CONTINUOUS
10
1.49365
20
-0.733177
11
1.5018
21
-0.72169
0
LINE
8
BLACK
6
CONTINUOUS
10
1.5018
20
-0.72169
11
1.51119
21
-0.711187
0
LINE
8
BLACK
6
CONTINUOUS
10
1.51119
20
-0.711187
11
1.52169
21
-0.701802
0
LINE
8
BLACK
6
CONTINUOUS
10
1.52169
20
-0.701802
11
1.53318
21
-0.693651
0
LINE
8
BLACK
6
CONTINUOUS
10
1.53318
20
-0.693651
11
1.5455
21
-0.686838
0
LINE
8
BLACK
6
CONTINUOUS
10
1.5455
20
-0.686838
11
1.55852
21
-0.681448
0
LINE
8
BLACK
6
CONTINUOUS
10
1.55852
20
-0.681448
11
1.57205
21
-0.677549
0
LINE
8
BLACK
6
CONTINUOUS
10
1.57205
20
-0.677549
11
1.58594
21
-0.67519
0
LINE
8
BLACK
6
CONTINUOUS
10
1.58594
20
-0.67519
11
1.6
21
-0.6744
0
LINE
8
BLACK
6
CONTINUOUS
10
1.6
20
-0.6744
11
1.61406
21
-0.67519
0
LINE
8
BLACK
6
CONTINUOUS
10
1.48996
20
-0.812862
11
1.4922
21
-0.825549
0
LINE
8
BLACK
6
CONTINUOUS
10
1.4922
20
-0.825549
11
1.49589
21
-0.837892
0
LINE
8
BLACK
6
CONTINUOUS
10
1.49589
20
-0.837892
11
1.501
21
-0.849721
0
LINE
8
BLACK
6
CONTINUOUS
10
1.501
20
-0.849721
11
1.50744
21
-0.860879
0
LINE
8
BLACK
6
CONTINUOUS
10
1.50744
20
-0.860879
11
1.51513
21
-0.871213
0
LINE
8
BLACK
6
CONTINUOUS
10
1.51513
20
-0.871213
11
1.52397
21
-0.880584
0
LINE
8
BLACK
6
CONTINUOUS
10
1.52397
20
-0.880584
11
1.53384
21
-0.888865
0
LINE
8
BLACK
6
CONTINUOUS
10
1.53384
20
-0.888865
11
1.54461
21
-0.895945
0
LINE
8
BLACK
6
CONTINUOUS
10
1.54461
20
-0.895945
11
1.55612
21
-0.901727
0
LINE
8
BLACK
6
CONTINUOUS
10
1.55612
20
-0.901727
11
1.56823
21
-0.906133
0
LINE
8
BLACK
6
CONTINUOUS
10
1.56823
20
-0.906133
11
1.58076
21
-0.909104
0
LINE
8
BLACK
6
CONTINUOUS
10
1.58076
20
-0.909104
11
1.59356
21
-0.9106
0
LINE
8
BLACK
6
CONTINUOUS
10
1.59356
20
-0.9106
11
1.60644
21
-0.9106
0
LINE
8
BLACK
6
CONTINUOUS
10
1.60644
20
-0.9106
11
1.61924
21
-0.909104
0
LINE
8
BLACK
6
CONTINUOUS
10
1.61924
20
-0.909104
11
1.63177
21
-0.906133
0
LINE
8
BLACK
6
CONTINUOUS
10
1.63177
20
-0.906133
11
1.64388
21
-0.901727
0
LINE
8
BLACK
6
CONTINUOUS
10
1.64388
20
-0.901727
11
1.65539
21
-0.895945
0
LINE
8
BLACK
6
CONTINUOUS
10
1.65539
20
-0.895945
11
1.66616
21
-0.888865
0
LINE
8
BLACK
6
CONTINUOUS
10
1.66616
20
-0.888865
11
1.67603
21
-0.880584
0
LINE
8
BLACK
6
CONTINUOUS
10
1.67603
20
-0.880584
11
1.68487
21
-0.871213
0
LINE
8
BLACK
6
CONTINUOUS
10
1.68487
20
-0.871213
11
1.69256
21
-0.860879
0
LINE
8
BLACK
6
CONTINUOUS
10
1.69256
20
-0.860879
11
1.699
21
-0.849721
0
LINE
8
BLACK
6
CONTINUOUS
10
1.699
20
-0.849721
11
1.70411
21
-0.837892
0
LINE
8
BLACK
6
CONTINUOUS
10
1.70411
20
-0.837892
11
1.7078
21
-0.825549
0
LINE
8
BLACK
6
CONTINUOUS
10
1.7078
20
-0.825549
11
1.71004
21
-0.812862
0
LINE
8
BLACK
6
CONTINUOUS
10
1.71004
20
-0.812862
11
1.71079
21
-0.8
0
LINE
8
BLACK
6
CONTINUOUS
10
1.71079
20
-0.8
11
1.71004
21
-0.787138
0
LINE
8
BLACK
6
CONTINUOUS
10
1.71004
20
-0.787138
11
1.7078
21
-0.774451
0
LINE
8
BLACK
6
CONTINUOUS
10
1.7078
20
-0.774451
11
1.70411
21
-0.762108
0
LINE
8
BLACK
6
CONTINUOUS
10
1.70411
20
-0.762108
11
1.699
21
-0.750279
0
LINE
8
BLACK
6
CONTINUOUS
10
1.699
20
-0.750279
11
1.69256
21
-0.739121
0
LINE
8
BLACK
6
CONTINUOUS
10
1.69256
20
-0.739121
11
1.68487
21
-0.728787
0
LINE
8
BLACK
6
CONTINUOUS
10
1.68487
20
-0.728787
11
1.67603
21
-0.719416
0
LINE
8
BLACK
6
CONTINUOUS
10
1.67603
20
-0.719416
11
1.66616
21
-0.711135
0
LINE
8
BLACK
6
CONTINUOUS
10
1.66616
20
-0.711135
11
1.65539
21
-0.704055
0
LINE
8
BLACK
6
CONTINUOUS
10
1.65539
20
-0.704055
11
1.64388
21
-0.698273
0
LINE
8
BLACK
6
CONTINUOUS
10
1.64388
20
-0.698273
11
1.63177
21
-0.693867
0
LINE
8
BLACK
6
CONTINUOUS
10
1.63177
20
-0.693867
11
1.61924
21
-0.690896
0
LINE
8
BLACK
6
CONTINUOUS
10
1.61924
20
-0.690896
11
1.60644
21
-0.6894
0
LINE
8
BLACK
6
CONTINUOUS
10
1.60644
20
-0.6894
11
1.59356
21
-0.6894
0
LINE
8
BLACK
6
CONTINUOUS
10
1.59356
20
-0.6894
11
1.58076
21
-0.690896
0
LINE
8
BLACK
6
CONTINUOUS
10
1.58076
20
-0.690896
11
1.56823
21
-0.693867
0
LINE
8
BLACK
6
CONTINUOUS
10
1.56823
20
-0.693867
11
1.55612
21
-0.698273
0
LINE
8
BLACK
6
CONTINUOUS
10
1.55612
20
-0.698273
11
1.54461
21
-0.704055
0
LINE
8
BLACK
6
CONTINUOUS
10
1.54461
20
-0.704055
11
1.53384
21
-0.711135
0
LINE
8
BLACK
6
CONTINUOUS
10
1.53384
20
-0.711135
11
1.52397
21
-0.719416
0
LINE
8
BLACK
6
CONTINUOUS
10
1.52397
20
-0.719416
11
1.51513
21
-0.728787
0
LINE
8
BLACK
6
CONTINUOUS
10
1.51513
20
-0.728787
11
1.50744
21
-0.739121
0
LINE
8
BLACK
6
CONTINUOUS
10
1.50744
20
-0.739121
11
1.501
21
-0.750279
0
LINE
8
BLACK
6
CONTINUOUS
10
1.501
20
-0.750279
11
1.49589
21
-0.762108
0
LINE
8
BLACK
6
CONTINUOUS
10
1.49589
20
-0.762108
11
1.4922
21
-0.774451
0
LINE
8
BLACK
6
CONTINUOUS
10
1.4922
20
-0.774451
11
1.48996
21
-0.787138
0
LINE
8
BLACK
6
CONTINUOUS
10
1.48996
20
-0.787138
11
1.48921
21
-0.8
0
LINE
8
BLACK
6
CONTINUOUS
10
1.48921
20
-0.8
11
1.48996
21
-0.812862
0
LINE
8
BLACK
6
CONTINUOUS
10
0.464099
20
-0.401599
11
0.46479
21
-0.403497
0
LINE
8
BLACK
6
CONTINUOUS
10
0.46479
20
-0.403497
11
0.46479
21
-0.431618
0
LINE
8
BLACK
6
CONTINUOUS
10
0.46479
20
-0.431618
11
0.464637
21
-0.432488
0
LINE
8
BLACK
6
CONTINUOUS
10
0.464637
20
-0.432488
11
0.464638
21
-0.432552
0
LINE
8
BLACK
6
CONTINUOUS
10
0.464638
20
-0.432552
11
0.462764
21
-0.438176
0
LINE
8
BLACK
6
CONTINUOUS
10
0.462764
20
-0.438176
11
0.462275
21
-0.439078
0
LINE
8
BLACK
6
CONTINUOUS
10
0.462275
20
-0.439078
11
0.462125
21
-0.43917
0
LINE
8
BLACK
6
CONTINUOUS
10
0.462125
20
-0.43917
11
0.46205
21
-0.43933
0
LINE
8
BLACK
6
CONTINUOUS
10
0.46205
20
-0.43933
11
0.458301
21
-0.44308
0
LINE
8
BLACK
6
CONTINUOUS
10
0.458301
20
-0.44308
11
0.457461
21
-0.443668
0
LINE
8
BLACK
6
CONTINUOUS
10
0.457461
20
-0.443668
11
0.457285
21
-0.443684
0
LINE
8
BLACK
6
CONTINUOUS
10
0.457285
20
-0.443684
11
0.457147
21
-0.443793
0
LINE
8
BLACK
6
CONTINUOUS
10
0.457147
20
-0.443793
11
0.451522
21
-0.445668
0
LINE
8
BLACK
6
CONTINUOUS
10
0.451522
20
-0.445668
11
0.450649
21
-0.445798
0
LINE
8
BLACK
6
CONTINUOUS
10
0.450649
20
-0.445798
11
0.450589
21
-0.44582
0
LINE
8
BLACK
6
CONTINUOUS
10
0.450589
20
-0.44582
11
0.446839
21
-0.44582
0
LINE
8
BLACK
6
CONTINUOUS
10
0.446839
20
-0.44582
11
0.445829
21
-0.445642
0
LINE
8
BLACK
6
CONTINUOUS
10
0.445829
20
-0.445642
11
0.444282
21
-0.444343
0
LINE
8
BLACK
6
CONTINUOUS
10
0.444282
20
-0.444343
11
0.443931
21
-0.442354
0
LINE
8
BLACK
6
CONTINUOUS
10
0.443931
20
-0.442354
11
0.444941
21
-0.440605
0
LINE
8
BLACK
6
CONTINUOUS
10
0.444941
20
-0.440605
11
0.446839
21
-0.439914
0
LINE
8
BLACK
6
CONTINUOUS
10
0.446839
20
-0.439914
11
0.45011
21
-0.439914
0
LINE
8
BLACK
6
CONTINUOUS
10
0.45011
20
-0.439914
11
0.454618
21
-0.438411
0
LINE
8
BLACK
6
CONTINUOUS
10
0.454618
20
-0.438411
11
0.457382
21
-0.435648
0
LINE
8
BLACK
6
CONTINUOUS
10
0.457382
20
-0.435648
11
0.458884
21
-0.431139
0
LINE
8
BLACK
6
CONTINUOUS
10
0.458884
20
-0.431139
11
0.458884
21
-0.403497
0
LINE
8
BLACK
6
CONTINUOUS
10
0.458884
20
-0.403497
11
0.459063
21
-0.402487
0
LINE
8
BLACK
6
CONTINUOUS
10
0.459063
20
-0.402487
11
0.460361
21
-0.40094
0
LINE
8
BLACK
6
CONTINUOUS
10
0.460361
20
-0.40094
11
0.46235
21
-0.400589
0
LINE
8
BLACK
6
CONTINUOUS
10
0.46235
20
-0.400589
11
0.464099
21
-0.401599
0
LINE
8
BLACK
6
CONTINUOUS
10
0.490304
20
-0.400618
11
0.490471
21
-0.400589
0
LINE
8
BLACK
6
CONTINUOUS
10
0.490471
20
-0.400589
11
0.491214
21
-0.401017
0
LINE
8
BLACK
6
CONTINUOUS
10
0.491214
20
-0.401017
11
0.491998
21
-0.401362
0
LINE
8
BLACK
6
CONTINUOUS
10
0.491998
20
-0.401362
11
0.492074
21
-0.401514
0
LINE
8
BLACK
6
CONTINUOUS
10
0.492074
20
-0.401514
11
0.492221
21
-0.401599
0
LINE
8
BLACK
6
CONTINUOUS
10
0.492221
20
-0.401599
11
0.492514
21
-0.402404
0
LINE
8
BLACK
6
CONTINUOUS
10
0.492514
20
-0.402404
11
0.492894
21
-0.403172
0
LINE
8
BLACK
6
CONTINUOUS
10
0.492894
20
-0.403172
11
0.492853
21
-0.403337
0
LINE
8
BLACK
6
CONTINUOUS
10
0.492853
20
-0.403337
11
0.492911
21
-0.403497
0
LINE
8
BLACK
6
CONTINUOUS
10
0.492911
20
-0.403497
11
0.492911
21
-0.439914
0
LINE
8
BLACK
6
CONTINUOUS
10
0.492911
20
-0.439914
11
0.501207
21
-0.439914
0
LINE
8
BLACK
6
CONTINUOUS
10
0.501207
20
-0.439914
11
0.502217
21
-0.440092
0
LINE
8
BLACK
6
CONTINUOUS
10
0.502217
20
-0.440092
11
0.503764
21
-0.441391
0
LINE
8
BLACK
6
CONTINUOUS
10
0.503764
20
-0.441391
11
0.504115
21
-0.44338
0
LINE
8
BLACK
6
CONTINUOUS
10
0.504115
20
-0.44338
11
0.503105
21
-0.445129
0
LINE
8
BLACK
6
CONTINUOUS
10
0.503105
20
-0.445129
11
0.501207
21
-0.44582
0
LINE
8
BLACK
6
CONTINUOUS
10
0.501207
20
-0.44582
11
0.47871
21
-0.44582
0
LINE
8
BLACK
6
CONTINUOUS
10
0.47871
20
-0.44582
11
0.4777
21
-0.445642
0
LINE
8
BLACK
6
CONTINUOUS
10
0.4777
20
-0.445642
11
0.476153
21
-0.444343
0
LINE
8
BLACK
6
CONTINUOUS
10
0.476153
20
-0.444343
11
0.475802
21
-0.442354
0
LINE
8
BLACK
6
CONTINUOUS
10
0.475802
20
-0.442354
11
0.476812
21
-0.440605
0
LINE
8
BLACK
6
CONTINUOUS
10
0.476812
20
-0.440605
11
0.47871
21
-0.439914
0
LINE
8
BLACK
6
CONTINUOUS
10
0.47871
20
-0.439914
11
0.487006
21
-0.439914
0
LINE
8
BLACK
6
CONTINUOUS
10
0.487006
20
-0.439914
11
0.487006
21
-0.4125
0
LINE
8
BLACK
6
CONTINUOUS
10
0.487006
20
-0.4125
11
0.484548
21
-0.414959
0
LINE
8
BLACK
6
CONTINUOUS
10
0.484548
20
-0.414959
11
0.483824
21
-0.415465
0
LINE
8
BLACK
6
CONTINUOUS
10
0.483824
20
-0.415465
11
0.48378
21
-0.415512
0
LINE
8
BLACK
6
CONTINUOUS
10
0.48378
20
-0.415512
11
0.480031
21
-0.417386
0
LINE
8
BLACK
6
CONTINUOUS
10
0.480031
20
-0.417386
11
0.479048
21
-0.417679
0
LINE
8
BLACK
6
CONTINUOUS
10
0.479048
20
-0.417679
11
0.477083
21
-0.417209
0
LINE
8
BLACK
6
CONTINUOUS
10
0.477083
20
-0.417209
11
0.47588
21
-0.415587
0
LINE
8
BLACK
6
CONTINUOUS
10
0.47588
20
-0.415587
11
0.476001
21
-0.413571
0
LINE
8
BLACK
6
CONTINUOUS
10
0.476001
20
-0.413571
11
0.47739
21
-0.412104
0
LINE
8
BLACK
6
CONTINUOUS
10
0.47739
20
-0.412104
11
0.480711
21
-0.410444
0
LINE
8
BLACK
6
CONTINUOUS
10
0.480711
20
-0.410444
11
0.483914
21
-0.40724
0
LINE
8
BLACK
6
CONTINUOUS
10
0.483914
20
-0.40724
11
0.487502
21
-0.401859
0
LINE
8
BLACK
6
CONTINUOUS
10
0.487502
20
-0.401859
11
0.48821
21
-0.401117
0
LINE
8
BLACK
6
CONTINUOUS
10
0.48821
20
-0.401117
11
0.488373
21
-0.40107
0
LINE
8
BLACK
6
CONTINUOUS
10
0.488373
20
-0.40107
11
0.488482
21
-0.40094
0
LINE
8
BLACK
6
CONTINUOUS
10
0.488482
20
-0.40094
11
0.489326
21
-0.400791
0
LINE
8
BLACK
6
CONTINUOUS
10
0.489326
20
-0.400791
11
0.490149
21
-0.40055
0
LINE
8
BLACK
6
CONTINUOUS
10
0.490149
20
-0.40055
11
0.490304
21
-0.400618
0
LINE
8
BLACK
6
CONTINUOUS
10
0.487559
20
-0.322992
11
0.488951
21
-0.323569
0
LINE
8
BLACK
6
CONTINUOUS
10
0.488951
20
-0.323569
11
0.489528
21
-0.324961
0
LINE
8
BLACK
6
CONTINUOUS
10
0.489528
20
-0.324961
11
0.489528
21
-0.372992
0
LINE
8
BLACK
6
CONTINUOUS
10
0.489528
20
-0.372992
11
0.624961
21
-0.372992
0
LINE
8
BLACK
6
CONTINUOUS
10
0.624961
20
-0.372992
11
0.626353
21
-0.373569
0
LINE
8
BLACK
6
CONTINUOUS
10
0.626353
20
-0.373569
11
0.626929
21
-0.374961
0
LINE
8
BLACK
6
CONTINUOUS
10
0.626929
20
-0.374961
11
0.626929
21
-0.474961
0
LINE
8
BLACK
6
CONTINUOUS
10
0.626929
20
-0.474961
11
0.626353
21
-0.476353
0
LINE
8
BLACK
6
CONTINUOUS
10
0.626353
20
-0.476353
11
0.624961
21
-0.476929
0
LINE
8
BLACK
6
CONTINUOUS
10
0.624961
20
-0.476929
11
0.589528
21
-0.476929
0
LINE
8
BLACK
6
CONTINUOUS
10
0.589528
20
-0.476929
11
0.589528
21
-0.524961
0
LINE
8
BLACK
6
CONTINUOUS
10
0.589528
20
-0.524961
11
0.588951
21
-0.526353
0
LINE
8
BLACK
6
CONTINUOUS
10
0.588951
20
-0.526353
11
0.587559
21
-0.526929
0
LINE
8
BLACK
6
CONTINUOUS
10
0.587559
20
-0.526929
11
0.562362
21
-0.526929
0
LINE
8
BLACK
6
CONTINUOUS
10
0.562362
20
-0.526929
11
0.56097
21
-0.526353
0
LINE
8
BLACK
6
CONTINUOUS
10
0.56097
20
-0.526353
11
0.560394
21
-0.524961
0
LINE
8
BLACK
6
CONTINUOUS
10
0.560394
20
-0.524961
11
0.560394
21
-0.476929
0
LINE
8
BLACK
6
CONTINUOUS
10
0.560394
20
-0.476929
11
0.389528
21
-0.476929
0
LINE
8
BLACK
6
CONTINUOUS
10
0.389528
20
-0.476929
11
0.389528
21
-0.524961
0
LINE
8
BLACK
6
CONTINUOUS
10
0.389528
20
-0.524961
11
0.388951
21
-0.526353
0
LINE
8
BLACK
6
CONTINUOUS
10
0.388951
20
-0.526353
11
0.387559
21
-0.526929
0
LINE
8
BLACK
6
CONTINUOUS
10
0.387559
20
-0.526929
11
0.362362
21
-0.526929
0
LINE
8
BLACK
6
CONTINUOUS
10
0.362362
20
-0.526929
11
0.36097
21
-0.526353
0
LINE
8
BLACK
6
CONTINUOUS
10
0.36097
20
-0.526353
11
0.360394
21
-0.524961
0
LINE
8
BLACK
6
CONTINUOUS
10
0.360394
20
-0.524961
11
0.360394
21
-0.524961
0
LINE
8
BLACK
6
CONTINUOUS
10
0.360394
20
-0.524961
11
0.360394
21
-0.475776
0
LINE
8
BLACK
6
CONTINUOUS
10
0.360394
20
-0.475776
11
0.323569
21
-0.438951
0
LINE
8
BLACK
6
CONTINUOUS
10
0.323569
20
-0.438951
11
0.322992
21
-0.437559
0
LINE
8
BLACK
6
CONTINUOUS
10
0.322992
20
-0.437559
11
0.322992
21
-0.374961
0
LINE
8
BLACK
6
CONTINUOUS
10
0.322992
20
-0.374961
11
0.323569
21
-0.373569
0
LINE
8
BLACK
6
CONTINUOUS
10
0.323569
20
-0.373569
11
0.324961
21
-0.372992
0
LINE
8
BLACK
6
CONTINUOUS
10
0.324961
20
-0.372992
11
0.460394
21
-0.372992
0
LINE
8
BLACK
6
CONTINUOUS
10
0.460394
20
-0.372992
11
0.460394
21
-0.324961
0
LINE
8
BLACK
6
CONTINUOUS
10
0.460394
20
-0.324961
11
0.46097
21
-0.323569
0
LINE
8
BLACK
6
CONTINUOUS
10
0.46097
20
-0.323569
11
0.462362
21
-0.322992
0
LINE
8
BLACK
6
CONTINUOUS
10
0.462362
20
-0.322992
11
0.487559
21
-0.322992
0
LINE
8
BLACK
6
CONTINUOUS
10
0.564331
20
-0.476929
11
0.564331
21
-0.522992
0
LINE
8
BLACK
6
CONTINUOUS
10
0.564331
20
-0.522992
11
0.585591
21
-0.522992
0
LINE
8
BLACK
6
CONTINUOUS
10
0.585591
20
-0.522992
11
0.585591
21
-0.476929
0
LINE
8
BLACK
6
CONTINUOUS
10
0.585591
20
-0.476929
11
0.564331
21
-0.476929
0
LINE
8
BLACK
6
CONTINUOUS
10
0.364331
20
-0.476929
11
0.364331
21
-0.522992
0
LINE
8
BLACK
6
CONTINUOUS
10
0.364331
20
-0.522992
11
0.385591
21
-0.522992
0
LINE
8
BLACK
6
CONTINUOUS
10
0.385591
20
-0.522992
11
0.385591
21
-0.476929
0
LINE
8
BLACK
6
CONTINUOUS
10
0.385591
20
-0.476929
11
0.364331
21
-0.476929
0
LINE
8
BLACK
6
CONTINUOUS
10
0.487559
20
-0.376929
11
0.462362
21
-0.376929
0
LINE
8
BLACK
6
CONTINUOUS
10
0.462362
20
-0.376929
11
0.326929
21
-0.376929
0
LINE
8
BLACK
6
CONTINUOUS
10
0.326929
20
-0.376929
11
0.326929
21
-0.436744
0
LINE
8
BLACK
6
CONTINUOUS
10
0.326929
20
-0.436744
11
0.363178
21
-0.472992
0
LINE
8
BLACK
6
CONTINUOUS
10
0.363178
20
-0.472992
11
0.622992
21
-0.472992
0
LINE
8
BLACK
6
CONTINUOUS
10
0.622992
20
-0.472992
11
0.622992
21
-0.376929
0
LINE
8
BLACK
6
CONTINUOUS
10
0.622992
20
-0.376929
11
0.487559
21
-0.376929
0
LINE
8
BLACK
6
CONTINUOUS
10
0.464331
20
-0.326929
11
0.464331
21
-0.372992
0
LINE
8
BLACK
6
CONTINUOUS
10
0.464331
20
-0.372992
11
0.485591
21
-0.372992
0
LINE
8
BLACK
6
CONTINUOUS
10
0.485591
20
-0.372992
11
0.485591
21
-0.326929
0
LINE
8
BLACK
6
CONTINUOUS
10
0.485591
20
-0.326929
11
0.464331
21
-0.326929
0
LINE
8
BLACK
6
CONTINUOUS
10
0.0140628
20
0.12481
11
0.0279486
21
0.122451
0
LINE
8
BLACK
6
CONTINUOUS
10
0.0279486
20
0.122451
11
0.041483
21
0.118552
0
LINE
8
BLACK
6
CONTINUOUS
10
0.041483
20
0.118552
11
0.0544958
21
0.113162
0
LINE
8
BLACK
6
CONTINUOUS
10
0.0544958
20
0.113162
11
0.0668232
21
0.106349
0
LINE
8
BLACK
6
CONTINUOUS
10
0.0668232
20
0.106349
11
0.0783103
21
0.098198
0
LINE
8
BLACK
6
CONTINUOUS
10
0.0783103
20
0.098198
11
0.0888126
21
0.0888126
0
LINE
8
BLACK
6
CONTINUOUS
10
0.0888126
20
0.0888126
11
0.098198
21
0.0783103
0
LINE
8
BLACK
6
CONTINUOUS
10
0.098198
20
0.0783103
11
0.106349
21
0.0668232
0
LINE
8
BLACK
6
CONTINUOUS
10
0.106349
20
0.0668232
11
0.113162
21
0.0544958
0
LINE
8
BLACK
6
CONTINUOUS
10
0.113162
20
0.0544958
11
0.118552
21
0.041483
0
LINE
8
BLACK
6
CONTINUOUS
10
0.118552
20
0.041483
11
0.122451
21
0.0279486
0
LINE
8
BLACK
6
CONTINUOUS
10
0.122451
20
0.0279486
11
0.12481
21
0.0140628
0
LINE
8
BLACK
6
CONTINUOUS
10
0.12481
20
0.0140628
11
0.1256
21
0
0
LINE
8
BLACK
6
CONTINUOUS
10
0.1256
20
0
11
0.12481
21
-0.0140628
0
LINE
8
BLACK
6
CONTINUOUS
10
0.12481
20
-0.0140628
11
0.122451
21
-0.0279486
0
LINE
8
BLACK
6
CONTINUOUS
10
0.122451
20
-0.0279486
11
0.118552
21
-0.041483
0
LINE
8
BLACK
6
CONTINUOUS
10
0.118552
20
-0.041483
11
0.113162
21
-0.0544958
0
LINE
8
BLACK
6
CONTINUOUS
10
0.113162
20
-0.0544958
11
0.106349
21
-0.0668232
0
LINE
8
BLACK
6
CONTINUOUS
10
0.106349
20
-0.0668232
11
0.098198
21
-0.0783103
0
LINE
8
BLACK
6
CONTINUOUS
10
0.098198
20
-0.0783103
11
0.0888126
21
-0.0888126
0
LINE
8
BLACK
6
CONTINUOUS
10
0.0888126
20
-0.0888126
11
0.0783103
21
-0.098198
0
LINE
8
BLACK
6
CONTINUOUS
10
0.0783103
20
-0.098198
11
0.0668232
21
-0.106349
0
LINE
8
BLACK
6
CONTINUOUS
10
0.0668232
20
-0.106349
11
0.0544958
21
-0.113162
0
LINE
8
BLACK
6
CONTINUOUS
10
0.0544958
20
-0.113162
11
0.041483
21
-0.118552
0
LINE
8
BLACK
6
CONTINUOUS
10
0.041483
20
-0.118552
11
0.0279486
21
-0.122451
0
LINE
8
BLACK
6
CONTINUOUS
10
0.0279486
20
-0.122451
11
0.0140628
21
-0.12481
0
LINE
8
BLACK
6
CONTINUOUS
10
0.0140628
20
-0.12481
11
0
21
-0.1256
0
LINE
8
BLACK
6
CONTINUOUS
10
0
20
-0.1256
11
-0.0140628
21
-0.12481
0
LINE
8
BLACK
6
CONTINUOUS
10
-0.0140628
20
-0.12481
11
-0.0279486
21
-0.122451
0
LINE
8
BLACK
6
CONTINUOUS
10
-0.0279486
20
-0.122451
11
-0.041483
21
-0.118552
0
LINE
8
BLACK
6
CONTINUOUS
10
-0.041483
20
-0.118552
11
-0.0544958
21
-0.113162
0
LINE
8
BLACK
6
CONTINUOUS
10
-0.0544958
20
-0.113162
11
-0.0668232
21
-0.106349
0
LINE
8
BLACK
6
CONTINUOUS
10
-0.0668232
20
-0.106349
11
-0.0783103
21
-0.098198
0
LINE
8
BLACK
6
CONTINUOUS
10
-0.0783103
20
-0.098198
11
-0.0888126
21
-0.0888126
0
LINE
8
BLACK
6
CONTINUOUS
10
-0.0888126
20
-0.0888126
11
-0.098198
21
-0.0783103
0
LINE
8
BLACK
6
CONTINUOUS
10
-0.098198
20
-0.0783103
11
-0.106349
21
-0.0668232
0
LINE
8
BLACK
6
CONTINUOUS
10
-0.106349
20
-0.0668232
11
-0.113162
21
-0.0544958
0
LINE
8
BLACK
6
CONTINUOUS
10
-0.113162
20
-0.0544958
11
-0.118552
21
-0.041483
0
LINE
8
BLACK
6
CONTINUOUS
10
-0.118552
20
-0.041483
11
-0.122451
21
-0.0279486
0
LINE
8
BLACK
6
CONTINUOUS
10
-0.122451
20
-0.0279486
11
-0.12481
21
-0.0140628
0
LINE
8
BLACK
6
CONTINUOUS
10
-0.12481
20
-0.0140628
11
-0.1256
21
0
0
LINE
8
BLACK
6
CONTINUOUS
10
-0.1256
20
0
11
-0.12481
21
0.0140628
0
LINE
8
BLACK
6
CONTINUOUS
10
-0.12481
20
0.0140628
11
-0.122451
21
0.0279486
0
LINE
8
BLACK
6
CONTINUOUS
10
-0.122451
20
0.0279486
11
-0.118552
21
0.041483
0
LINE
8
BLACK
6
CONTINUOUS
10
-0.118552
20
0.041483
11
-0.113162
21
0.0544958
0
LINE
8
BLACK
6
CONTINUOUS
10
-0.113162
20
0.0544958
11
-0.106349
21
0.0668232
0
LINE
8
BLACK
6
CONTINUOUS
10
-0.106349
20
0.0668232
11
-0.098198
21
0.0783103
0
LINE
8
BLACK
6
CONTINUOUS
10
-0.098198
20
0.0783103
11
-0.0888126
21
0.0888126
0
LINE
8
BLACK
6
CONTINUOUS
10
-0.0888126
20
0.0888126
11
-0.0783103
21
0.098198
0
LINE
8
BLACK
6
CONTINUOUS
10
-0.0783103
20
0.098198
11
-0.0668232
21
0.106349
0
LINE
8
BLACK
6
CONTINUOUS
10
-0.0668232
20
0.106349
11
-0.0544958
21
0.113162
0
LINE
8
BLACK
6
CONTINUOUS
10
-0.0544958
20
0.113162
11
-0.041483
21
0.118552
0
LINE
8
BLACK
6
CONTINUOUS
10
-0.041483
20
0.118552
11
-0.0279486
21
0.122451
0
LINE
8
BLACK
6
CONTINUOUS
10
-0.0279486
20
0.122451
11
-0.0140628
21
0.12481
0
LINE
8
BLACK
6
CONTINUOUS
10
-0.0140628
20
0.12481
11
0
21
0.1256
0
LINE
8
BLACK
6
CONTINUOUS
10
0
20
0.1256
11
0.0140628
21
0.12481
0
LINE
8
BLACK
6
CONTINUOUS
10
-0.110038
20
-0.0128617
11
-0.107801
21
-0.0255493
0
LINE
8
BLACK
6
CONTINUOUS
10
-0.107801
20
-0.0255493
11
-0.104106
21
-0.0378915
0
LINE
8
BLACK
6
CONTINUOUS
10
-0.104106
20
-0.0378915
11
-0.0990033
21
-0.0497213
0
LINE
8
BLACK
6
CONTINUOUS
10
-0.0990033
20
-0.0497213
11
-0.0925616
21
-0.0608787
0
LINE
8
BLACK
6
CONTINUOUS
10
-0.0925616
20
-0.0608787
11
-0.0848681
21
-0.0712128
0
LINE
8
BLACK
6
CONTINUOUS
10
-0.0848681
20
-0.0712128
11
-0.076027
21
-0.0805839
0
LINE
8
BLACK
6
CONTINUOUS
10
-0.076027
20
-0.0805839
11
-0.0661577
21
-0.0888652
0
LINE
8
BLACK
6
CONTINUOUS
10
-0.0661577
20
-0.0888652
11
-0.0553937
21
-0.0959447
0
LINE
8
BLACK
6
CONTINUOUS
10
-0.0553937
20
-0.0959447
11
-0.0438807
21
-0.101727
0
LINE
8
BLACK
6
CONTINUOUS
10
-0.0438807
20
-0.101727
11
-0.0317742
21
-0.106133
0
LINE
8
BLACK
6
CONTINUOUS
10
-0.0317742
20
-0.106133
11
-0.019238
21
-0.109104
0
LINE
8
BLACK
6
CONTINUOUS
10
-0.019238
20
-0.109104
11
-0.00644173
21
-0.1106
0
LINE
8
BLACK
6
CONTINUOUS
10
-0.00644173
20
-0.1106
11
0.00644173
21
-0.1106
0
LINE
8
BLACK
6
CONTINUOUS
10
0.00644173
20
-0.1106
11
0.019238
21
-0.109104
0
LINE
8
BLACK
6
CONTINUOUS
10
0.019238
20
-0.109104
11
0.0317742
21
-0.106133
0
LINE
8
BLACK
6
CONTINUOUS
10
0.0317742
20
-0.106133
11
0.0438807
21
-0.101727
0
LINE
8
BLACK
6
CONTINUOUS
10
0.0438807
20
-0.101727
11
0.0553937
21
-0.0959447
0
LINE
8
BLACK
6
CONTINUOUS
10
0.0553937
20
-0.0959447
11
0.0661577
21
-0.0888652
0
LINE
8
BLACK
6
CONTINUOUS
10
0.0661577
20
-0.0888652
11
0.076027
21
-0.0805839
0
LINE
8
BLACK
6
CONTINUOUS
10
0.076027
20
-0.0805839
11
0.0848681
21
-0.0712128
0
LINE
8
BLACK
6
CONTINUOUS
10
0.0848681
20
-0.0712128
11
0.0925616
21
-0.0608787
0
LINE
8
BLACK
6
CONTINUOUS
10
0.0925616
20
-0.0608787
11
0.0990033
21
-0.0497213
0
LINE
8
BLACK
6
CONTINUOUS
10
0.0990033
20
-0.0497213
11
0.104106
21
-0.0378915
0
LINE
8
BLACK
6
CONTINUOUS
10
0.104106
20
-0.0378915
11
0.107801
21
-0.0255493
0
LINE
8
BLACK
6
CONTINUOUS
10
0.107801
20
-0.0255493
11
0.110038
21
-0.0128617
0
LINE
8
BLACK
6
CONTINUOUS
10
0.110038
20
-0.0128617
11
0.110787
21
0
0
LINE
8
BLACK
6
CONTINUOUS
10
0.110787
20
0
11
0.110038
21
0.0128617
0
LINE
8
BLACK
6
CONTINUOUS
10
0.110038
20
0.0128617
11
0.107801
21
0.0255493
0
LINE
8
BLACK
6
CONTINUOUS
10
0.107801
20
0.0255493
11
0.104106
21
0.0378915
0
LINE
8
BLACK
6
CONTINUOUS
10
0.104106
20
0.0378915
11
0.0990033
21
0.0497213
0
LINE
8
BLACK
6
CONTINUOUS
10
0.0990033
20
0.0497213
11
0.0925616
21
0.0608787
0
LINE
8
BLACK
6
CONTINUOUS
10
0.0925616
20
0.0608787
11
0.0848681
21
0.0712128
0
LINE
8
BLACK
6
CONTINUOUS
10
0.0848681
20
0.0712128
11
0.076027
21
0.0805839
0
LINE
8
BLACK
6
CONTINUOUS
10
0.076027
20
0.0805839
11
0.0661577
21
0.0888652
0
LINE
8
BLACK
6
CONTINUOUS
10
0.0661577
20
0.0888652
11
0.0553937
21
0.0959447
0
LINE
8
BLACK
6
CONTINUOUS
10
0.0553937
20
0.0959447
11
0.0438807
21
0.101727
0
LINE
8
BLACK
6
CONTINUOUS
10
0.0438807
20
0.101727
11
0.0317742
21
0.106133
0
LINE
8
BLACK
6
CONTINUOUS
10
0.0317742
20
0.106133
11
0.019238
21
0.109104
0
LINE
8
BLACK
6
CONTINUOUS
10
0.019238
20
0.109104
11
0.00644173
21
0.1106
0
LINE
8
BLACK
6
CONTINUOUS
10
0.00644173
20
0.1106
11
-0.00644173
21
0.1106
0
LINE
8
BLACK
6
CONTINUOUS
10
-0.00644173
20
0.1106
11
-0.019238
21
0.109104
0
LINE
8
BLACK
6
CONTINUOUS
10
-0.019238
20
0.109104
11
-0.0317742
21
0.106133
0
LINE
8
BLACK
6
CONTINUOUS
10
-0.0317742
20
0.106133
11
-0.0438807
21
0.101727
0
LINE
8
BLACK
6
CONTINUOUS
10
-0.0438807
20
0.101727
11
-0.0553937
21
0.0959447
0
LINE
8
BLACK
6
CONTINUOUS
10
-0.0553937
20
0.0959447
11
-0.0661577
21
0.0888652
0
LINE
8
BLACK
6
CONTINUOUS
10
-0.0661577
20
0.0888652
11
-0.076027
21
0.0805839
0
LINE
8
BLACK
6
CONTINUOUS
10
-0.076027
20
0.0805839
11
-0.0848681
21
0.0712128
0
LINE
8
BLACK
6
CONTINUOUS
10
-0.0848681
20
0.0712128
11
-0.0925616
21
0.0608787
0
LINE
8
BLACK
6
CONTINUOUS
10
-0.0925616
20
0.0608787
11
-0.0990033
21
0.0497213
0
LINE
8
BLACK
6
CONTINUOUS
10
-0.0990033
20
0.0497213
11
-0.104106
21
0.0378915
0
LINE
8
BLACK
6
CONTINUOUS
10
-0.104106
20
0.0378915
11
-0.107801
21
0.0255493
0
LINE
8
BLACK
6
CONTINUOUS
10
-0.107801
20
0.0255493
11
-0.110038
21
0.0128617
0
LINE
8
BLACK
6
CONTINUOUS
10
-0.110038
20
0.0128617
11
-0.110787
21
0
0
LINE
8
BLACK
6
CONTINUOUS
10
-0.110787
20
0
11
-0.110038
21
-0.0128617
0
LINE
8
BLACK
6
CONTINUOUS
10
1.61406
20
0.12481
11
1.62795
21
0.122451
0
LINE
8
BLACK
6
CONTINUOUS
10
1.62795
20
0.122451
11
1.64148
21
0.118552
0
LINE
8
BLACK
6
CONTINUOUS
10
1.64148
20
0.118552
11
1.6545
21
0.113162
0
LINE
8
BLACK
6
CONTINUOUS
10
1.6545
20
0.113162
11
1.66682
21
0.106349
0
LINE
8
BLACK
6
CONTINUOUS
10
1.66682
20
0.106349
11
1.67831
21
0.098198
0
LINE
8
BLACK
6
CONTINUOUS
10
1.67831
20
0.098198
11
1.68881
21
0.0888126
0
LINE
8
BLACK
6
CONTINUOUS
10
1.68881
20
0.0888126
11
1.6982
21
0.0783103
0
LINE
8
BLACK
6
CONTINUOUS
10
1.6982
20
0.0783103
11
1.70635
21
0.0668232
0
LINE
8
BLACK
6
CONTINUOUS
10
1.70635
20
0.0668232
11
1.71316
21
0.0544958
0
LINE
8
BLACK
6
CONTINUOUS
10
1.71316
20
0.0544958
11
1.71855
21
0.041483
0
LINE
8
BLACK
6
CONTINUOUS
10
1.71855
20
0.041483
11
1.72245
21
0.0279486
0
LINE
8
BLACK
6
CONTINUOUS
10
1.72245
20
0.0279486
11
1.72481
21
0.0140628
0
LINE
8
BLACK
6
CONTINUOUS
10
1.72481
20
0.0140628
11
1.7256
21
0
0
LINE
8
BLACK
6
CONTINUOUS
10
1.7256
20
0
11
1.72481
21
-0.0140628
0
LINE
8
BLACK
6
CONTINUOUS
10
1.72481
20
-0.0140628
11
1.72245
21
-0.0279486
0
LINE
8
BLACK
6
CONTINUOUS
10
1.72245
20
-0.0279486
11
1.71855
21
-0.041483
0
LINE
8
BLACK
6
CONTINUOUS
10
1.71855
20
-0.041483
11
1.71316
21
-0.0544958
0
LINE
8
BLACK
6
CONTINUOUS
10
1.71316
20
-0.0544958
11
1.70635
21
-0.0668232
0
LINE
8
BLACK
6
CONTINUOUS
10
1.70635
20
-0.0668232
11
1.6982
21
-0.0783103
0
LINE
8
BLACK
6
CONTINUOUS
10
1.6982
20
-0.0783103
11
1.68881
21
-0.0888126
0
LINE
8
BLACK
6
CONTINUOUS
10
1.68881
20
-0.0888126
11
1.67831
21
-0.098198
0
LINE
8
BLACK
6
CONTINUOUS
10
1.67831
20
-0.098198
11
1.66682
21
-0.106349
0
LINE
8
BLACK
6
CONTINUOUS
10
1.66682
20
-0.106349
11
1.6545
21
-0.113162
0
LINE
8
BLACK
6
CONTINUOUS
10
1.6545
20
-0.113162
11
1.64148
21
-0.118552
0
LINE
8
BLACK
6
CONTINUOUS
10
1.64148
20
-0.118552
11
1.62795
21
-0.122451
0
LINE
8
BLACK
6
CONTINUOUS
10
1.62795
20
-0.122451
11
1.61406
21
-0.12481
0
LINE
8
BLACK
6
CONTINUOUS
10
1.61406
20
-0.12481
11
1.6
21
-0.1256
0
LINE
8
BLACK
6
CONTINUOUS
10
1.6
20
-0.1256
11
1.58594
21
-0.12481
0
LINE
8
BLACK
6
CONTINUOUS
10
1.58594
20
-0.12481
11
1.57205
21
-0.122451
0
LINE
8
BLACK
6
CONTINUOUS
10
1.57205
20
-0.122451
11
1.55852
21
-0.118552
0
LINE
8
BLACK
6
CONTINUOUS
10
1.55852
20
-0.118552
11
1.5455
21
-0.113162
0
LINE
8
BLACK
6
CONTINUOUS
10
1.5455
20
-0.113162
11
1.53318
21
-0.106349
0
LINE
8
BLACK
6
CONTINUOUS
10
1.53318
20
-0.106349
11
1.52169
21
-0.098198
0
LINE
8
BLACK
6
CONTINUOUS
10
1.52169
20
-0.098198
11
1.51119
21
-0.0888126
0
LINE
8
BLACK
6
CONTINUOUS
10
1.51119
20
-0.0888126
11
1.5018
21
-0.0783103
0
LINE
8
BLACK
6
CONTINUOUS
10
1.5018
20
-0.0783103
11
1.49365
21
-0.0668232
0
LINE
8
BLACK
6
CONTINUOUS
10
1.49365
20
-0.0668232
11
1.48684
21
-0.0544958
0
LINE
8
BLACK
6
CONTINUOUS
10
1.48684
20
-0.0544958
11
1.48145
21
-0.041483
0
LINE
8
BLACK
6
CONTINUOUS
10
1.48145
20
-0.041483
11
1.47755
21
-0.0279486
0
LINE
8
BLACK
6
CONTINUOUS
10
1.47755
20
-0.0279486
11
1.47519
21
-0.0140628
0
LINE
8
BLACK
6
CONTINUOUS
10
1.47519
20
-0.0140628
11
1.4744
21
0
0
LINE
8
BLACK
6
CONTINUOUS
10
1.4744
20
0
11
1.47519
21
0.0140628
0
LINE
8
BLACK
6
CONTINUOUS
10
1.47519
20
0.0140628
11
1.47755
21
0.0279486
0
LINE
8
BLACK
6
CONTINUOUS
10
1.47755
20
0.0279486
11
1.48145
21
0.041483
0
LINE
8
BLACK
6
CONTINUOUS
10
1.48145
20
0.041483
11
1.48684
21
0.0544958
0
LINE
8
BLACK
6
CONTINUOUS
10
1.48684
20
0.0544958
11
1.49365
21
0.0668232
0
LINE
8
BLACK
6
CONTINUOUS
10
1.49365
20
0.0668232
11
1.5018
21
0.0783103
0
LINE
8
BLACK
6
CONTINUOUS
10
1.5018
20
0.0783103
11
1.51119
21
0.0888126
0
LINE
8
BLACK
6
CONTINUOUS
10
1.51119
20
0.0888126
11
1.52169
21
0.098198
0
LINE
8
BLACK
6
CONTINUOUS
10
1.52169
20
0.098198
11
1.53318
21
0.106349
0
LINE
8
BLACK
6
CONTINUOUS
10
1.53318
20
0.106349
11
1.5455
21
0.113162
0
LINE
8
BLACK
6
CONTINUOUS
10
1.5455
20
0.113162
11
1.55852
21
0.118552
0
LINE
8
BLACK
6
CONTINUOUS
10
1.55852
20
0.118552
11
1.57205
21
0.122451
0
LINE
8
BLACK
6
CONTINUOUS
10
1.57205
20
0.122451
11
1.58594
21
0.12481
0
LINE
8
BLACK
6
CONTINUOUS
10
1.58594
20
0.12481
11
1.6
21
0.1256
0
LINE
8
BLACK
6
CONTINUOUS
10
1.6
20
0.1256
11
1.61406
21
0.12481
0
LINE
8
BLACK
6
CONTINUOUS
10
1.48996
20
-0.0128617
11
1.4922
21
-0.0255493
0
LINE
8
BLACK
6
CONTINUOUS
10
1.4922
20
-0.0255493
11
1.49589
21
-0.0378915
0
LINE
8
BLACK
6
CONTINUOUS
10
1.49589
20
-0.0378915
11
1.501
21
-0.0497213
0
LINE
8
BLACK
6
CONTINUOUS
10
1.501
20
-0.0497213
11
1.50744
21
-0.0608787
0
LINE
8
BLACK
6
CONTINUOUS
10
1.50744
20
-0.0608787
11
1.51513
21
-0.0712128
0
LINE
8
BLACK
6
CONTINUOUS
10
1.51513
20
-0.0712128
11
1.52397
21
-0.0805839
0
LINE
8
BLACK
6
CONTINUOUS
10
1.52397
20
-0.0805839
11
1.53384
21
-0.0888652
0
LINE
8
BLACK
6
CONTINUOUS
10
1.53384
20
-0.0888652
11
1.54461
21
-0.0959447
0
LINE
8
BLACK
6
CONTINUOUS
10
1.54461
20
-0.0959447
11
1.55612
21
-0.101727
0
LINE
8
BLACK
6
CONTINUOUS
10
1.55612
20
-0.101727
11
1.56823
21
-0.106133
0
LINE
8
BLACK
6
CONTINUOUS
10
1.56823
20
-0.106133
11
1.58076
21
-0.109104
0
LINE
8
BLACK
6
CONTINUOUS
10
1.58076
20
-0.109104
11
1.59356
21
-0.1106
0
LINE
8
BLACK
6
CONTINUOUS
10
1.59356
20
-0.1106
11
1.60644
21
-0.1106
0
LINE
8
BLACK
6
CONTINUOUS
10
1.60644
20
-0.1106
11
1.61924
21
-0.109104
0
LINE
8
BLACK
6
CONTINUOUS
10
1.61924
20
-0.109104
11
1.63177
21
-0.106133
0
LINE
8
BLACK
6
CONTINUOUS
10
1.63177
20
-0.106133
11
1.64388
21
-0.101727
0
LINE
8
BLACK
6
CONTINUOUS
10
1.64388
20
-0.101727
11
1.65539
21
-0.0959447
0
LINE
8
BLACK
6
CONTINUOUS
10
1.65539
20
-0.0959447
11
1.66616
21
-0.0888652
0
LINE
8
BLACK
6
CONTINUOUS
10
1.66616
20
-0.0888652
11
1.67603
21
-0.0805839
0
LINE
8
BLACK
6
CONTINUOUS
10
1.67603
20
-0.0805839
11
1.68487
21
-0.0712128
0
LINE
8
BLACK
6
CONTINUOUS
10
1.68487
20
-0.0712128
11
1.69256
21
-0.0608787
0
LINE
8
BLACK
6
CONTINUOUS
10
1.69256
20
-0.0608787
11
1.699
21
-0.0497213
0
LINE
8
BLACK
6
CONTINUOUS
10
1.699
20
-0.0497213
11
1.70411
21
-0.0378915
0
LINE
8
BLACK
6
CONTINUOUS
10
1.70411
20
-0.0378915
11
1.7078
21
-0.0255493
0
LINE
8
BLACK
6
CONTINUOUS
10
1.7078
20
-0.0255493
11
1.71004
21
-0.0128617
0
LINE
8
BLACK
6
CONTINUOUS
10
1.71004
20
-0.0128617
11
1.71079
21
0
0
LINE
8
BLACK
6
CONTINUOUS
10
1.71079
20
0
11
1.71004
21
0.0128617
0
LINE
8
BLACK
6
CONTINUOUS
10
1.71004
20
0.0128617
11
1.7078
21
0.0255493
0
LINE
8
BLACK
6
CONTINUOUS
10
1.7078
20
0.0255493
11
1.70411
21
0.0378915
0
LINE
8
BLACK
6
CONTINUOUS
10
1.70411
20
0.0378915
11
1.699
21
0.0497213
0
LINE
8
BLACK
6
CONTINUOUS
10
1.699
20
0.0497213
11
1.69256
21
0.0608787
0
LINE
8
BLACK
6
CONTINUOUS
10
1.69256
20
0.0608787
11
1.68487
21
0.0712128
0
LINE
8
BLACK
6
CONTINUOUS
10
1.68487
20
0.0712128
11
1.67603
21
0.0805839
0
LINE
8
BLACK
6
CONTINUOUS
10
1.67603
20
0.0805839
11
1.66616
21
0.0888652
0
LINE
8
BLACK
6
CONTINUOUS
10
1.66616
20
0.0888652
11
1.65539
21
0.0959447
0
LINE
8
BLACK
6
CONTINUOUS
10
1.65539
20
0.0959447
11
1.64388
21
0.101727
0
LINE
8
BLACK
6
CONTINUOUS
10
1.64388
20
0.101727
11
1.63177
21
0.106133
0
LINE
8
BLACK
6
CONTINUOUS
10
1.63177
20
0.106133
11
1.61924
21
0.109104
0
LINE
8
BLACK
6
CONTINUOUS
10
1.61924
20
0.109104
11
1.60644
21
0.1106
0
LINE
8
BLACK
6
CONTINUOUS
10
1.60644
20
0.1106
11
1.59356
21
0.1106
0
LINE
8
BLACK
6
CONTINUOUS
10
1.59356
20
0.1106
11
1.58076
21
0.109104
0
LINE
8
BLACK
6
CONTINUOUS
10
1.58076
20
0.109104
11
1.56823
21
0.106133
0
LINE
8
BLACK
6
CONTINUOUS
10
1.56823
20
0.106133
11
1.55612
21
0.101727
0
LINE
8
BLACK
6
CONTINUOUS
10
1.55612
20
0.101727
11
1.54461
21
0.0959447
0
LINE
8
BLACK
6
CONTINUOUS
10
1.54461
20
0.0959447
11
1.53384
21
0.0888652
0
LINE
8
BLACK
6
CONTINUOUS
10
1.53384
20
0.0888652
11
1.52397
21
0.0805839
0
LINE
8
BLACK
6
CONTINUOUS
10
1.52397
20
0.0805839
11
1.51513
21
0.0712128
0
LINE
8
BLACK
6
CONTINUOUS
10
1.51513
20
0.0712128
11
1.50744
21
0.0608787
0
LINE
8
BLACK
6
CONTINUOUS
10
1.50744
20
0.0608787
11
1.501
21
0.0497213
0
LINE
8
BLACK
6
CONTINUOUS
10
1.501
20
0.0497213
11
1.49589
21
0.0378915
0
LINE
8
BLACK
6
CONTINUOUS
10
1.49589
20
0.0378915
11
1.4922
21
0.0255493
0
LINE
8
BLACK
6
CONTINUOUS
10
1.4922
20
0.0255493
11
1.48996
21
0.0128617
0
LINE
8
BLACK
6
CONTINUOUS
10
1.48996
20
0.0128617
11
1.48921
21
0
0
LINE
8
BLACK
6
CONTINUOUS
10
1.48921
20
0
11
1.48996
21
-0.0128617
  0
ENDSEC
  0
EOF
