  0
SECTION
  2
HEADER
  9
$ANGBASE
  50
0.0
  9
$ANGDIR
  70
1
  9
$MEASUREMENT
  70
0
  0
ENDSEC
  0
SECTION
  2
TABLES
  0
TABLE
  2
LTYPE
  70
4
  0
LTYPE
  5
40F
  2
CONTINUOUS
  70
0
  3
Solid line
  72
65
  73
0
  40
0.0
  0
LTYPE
  5
410
  2
DASHDOT
 70
0
  3
Dash Dot ____ _ ____ _
 72
65
 73
4
 40
2.0
 49
1.25
 49
-0.25
 49
0.25
 49
-0.25
  0
LTYPE
  5
411
  2
DASHED
 70
0
  3
Dashed __ __ __ __ __
 72
65
 73
2
 40
0.75
 49
0.5
 49
-0.25
  0
LTYPE
  5
43B
  2
DOTTED
 70
0
  3
Dotted .  .  .  .
 72
65
 73
2
 40
0.2
 49
0.0
 49
-0.2
  0
ENDTAB
  0
TABLE
  2
STYLE
  70
4
  0
STYLE
  2
KICAD
  70
0
  40
0
  41
1
  42
1
  50
0
  71
0
  3
isocp.shx
  0
STYLE
  2
KICADB
  70
0
  40
0
  41
1
  42
1
  50
0
  71
0
  3
isocp.shx
  0
STYLE
  2
KICADI
  70
0
  40
0
  41
1
  42
1
  50
15
  71
0
  3
isocp.shx
  0
STYLE
  2
KICADBI
  70
0
  40
0
  41
1
  42
1
  50
15
  71
0
  3
isocp.shx
  0
ENDTAB
  0
TABLE
  2
LAYER
  70
1
  0
LAYER
  2
BLACK
  70
0
  62
7
  6
CONTINUOUS
  0
ENDTAB
  0
ENDSEC
  0
SECTION
  2
ENTITIES
0
LINE
8
BLACK
6
CONTINUOUS
10
0.39022
20
-0.867382
11
0.39155
21
-0.867654
0
LINE
8
BLACK
6
CONTINUOUS
10
0.39155
20
-0.867654
11
0.397174
21
-0.870466
0
LINE
8
BLACK
6
CONTINUOUS
10
0.397174
20
-0.870466
11
0.397886
21
-0.871097
0
LINE
8
BLACK
6
CONTINUOUS
10
0.397886
20
-0.871097
11
0.398709
21
-0.871572
0
LINE
8
BLACK
6
CONTINUOUS
10
0.398709
20
-0.871572
11
0.401521
21
-0.874384
0
LINE
8
BLACK
6
CONTINUOUS
10
0.401521
20
-0.874384
11
0.401997
21
-0.875208
0
LINE
8
BLACK
6
CONTINUOUS
10
0.401997
20
-0.875208
11
0.402627
21
-0.875919
0
LINE
8
BLACK
6
CONTINUOUS
10
0.402627
20
-0.875919
11
0.40544
21
-0.881543
0
LINE
8
BLACK
6
CONTINUOUS
10
0.40544
20
-0.881543
11
0.405712
21
-0.882873
0
LINE
8
BLACK
6
CONTINUOUS
10
0.405712
20
-0.882873
11
0.406063
21
-0.884184
0
LINE
8
BLACK
6
CONTINUOUS
10
0.406063
20
-0.884184
11
0.406063
21
-0.889809
0
LINE
8
BLACK
6
CONTINUOUS
10
0.406063
20
-0.889809
11
0.405712
21
-0.89112
0
LINE
8
BLACK
6
CONTINUOUS
10
0.405712
20
-0.89112
11
0.40544
21
-0.89245
0
LINE
8
BLACK
6
CONTINUOUS
10
0.40544
20
-0.89245
11
0.402627
21
-0.898074
0
LINE
8
BLACK
6
CONTINUOUS
10
0.402627
20
-0.898074
11
0.401997
21
-0.898786
0
LINE
8
BLACK
6
CONTINUOUS
10
0.401997
20
-0.898786
11
0.401521
21
-0.899609
0
LINE
8
BLACK
6
CONTINUOUS
10
0.401521
20
-0.899609
11
0.401467
21
-0.899663
0
LINE
8
BLACK
6
CONTINUOUS
10
0.401467
20
-0.899663
11
0.401521
21
-0.899694
0
LINE
8
BLACK
6
CONTINUOUS
10
0.401521
20
-0.899694
11
0.404333
21
-0.902506
0
LINE
8
BLACK
6
CONTINUOUS
10
0.404333
20
-0.902506
11
0.404809
21
-0.903329
0
LINE
8
BLACK
6
CONTINUOUS
10
0.404809
20
-0.903329
11
0.40544
21
-0.904041
0
LINE
8
BLACK
6
CONTINUOUS
10
0.40544
20
-0.904041
11
0.408252
21
-0.909665
0
LINE
8
BLACK
6
CONTINUOUS
10
0.408252
20
-0.909665
11
0.408524
21
-0.910995
0
LINE
8
BLACK
6
CONTINUOUS
10
0.408524
20
-0.910995
11
0.408875
21
-0.912306
0
LINE
8
BLACK
6
CONTINUOUS
10
0.408875
20
-0.912306
11
0.408875
21
-0.920742
0
LINE
8
BLACK
6
CONTINUOUS
10
0.408875
20
-0.920742
11
0.408524
21
-0.922054
0
LINE
8
BLACK
6
CONTINUOUS
10
0.408524
20
-0.922054
11
0.408252
21
-0.923383
0
LINE
8
BLACK
6
CONTINUOUS
10
0.408252
20
-0.923383
11
0.40544
21
-0.929008
0
LINE
8
BLACK
6
CONTINUOUS
10
0.40544
20
-0.929008
11
0.404809
21
-0.929719
0
LINE
8
BLACK
6
CONTINUOUS
10
0.404809
20
-0.929719
11
0.404333
21
-0.930543
0
LINE
8
BLACK
6
CONTINUOUS
10
0.404333
20
-0.930543
11
0.401521
21
-0.933355
0
LINE
8
BLACK
6
CONTINUOUS
10
0.401521
20
-0.933355
11
0.400698
21
-0.93383
0
LINE
8
BLACK
6
CONTINUOUS
10
0.400698
20
-0.93383
11
0.399986
21
-0.934461
0
LINE
8
BLACK
6
CONTINUOUS
10
0.399986
20
-0.934461
11
0.394362
21
-0.937273
0
LINE
8
BLACK
6
CONTINUOUS
10
0.394362
20
-0.937273
11
0.393032
21
-0.937545
0
LINE
8
BLACK
6
CONTINUOUS
10
0.393032
20
-0.937545
11
0.391721
21
-0.937896
0
LINE
8
BLACK
6
CONTINUOUS
10
0.391721
20
-0.937896
11
0.369224
21
-0.937896
0
LINE
8
BLACK
6
CONTINUOUS
10
0.369224
20
-0.937896
11
0.366271
21
-0.937105
0
LINE
8
BLACK
6
CONTINUOUS
10
0.366271
20
-0.937105
11
0.364109
21
-0.934944
0
LINE
8
BLACK
6
CONTINUOUS
10
0.364109
20
-0.934944
11
0.363318
21
-0.931991
0
LINE
8
BLACK
6
CONTINUOUS
10
0.363318
20
-0.931991
11
0.363318
21
-0.872936
0
LINE
8
BLACK
6
CONTINUOUS
10
0.363318
20
-0.872936
11
0.364109
21
-0.869983
0
LINE
8
BLACK
6
CONTINUOUS
10
0.364109
20
-0.869983
11
0.366271
21
-0.867822
0
LINE
8
BLACK
6
CONTINUOUS
10
0.366271
20
-0.867822
11
0.369224
21
-0.86703
0
LINE
8
BLACK
6
CONTINUOUS
10
0.369224
20
-0.86703
11
0.388909
21
-0.86703
0
LINE
8
BLACK
6
CONTINUOUS
10
0.388909
20
-0.86703
11
0.39022
21
-0.867382
0
LINE
8
BLACK
6
CONTINUOUS
10
0.375129
20
-0.906963
11
0.375129
21
-0.926085
0
LINE
8
BLACK
6
CONTINUOUS
10
0.375129
20
-0.926085
11
0.390327
21
-0.926085
0
LINE
8
BLACK
6
CONTINUOUS
10
0.390327
20
-0.926085
11
0.393847
21
-0.924325
0
LINE
8
BLACK
6
CONTINUOUS
10
0.393847
20
-0.924325
11
0.395304
21
-0.922869
0
LINE
8
BLACK
6
CONTINUOUS
10
0.395304
20
-0.922869
11
0.397064
21
-0.919348
0
LINE
8
BLACK
6
CONTINUOUS
10
0.397064
20
-0.919348
11
0.397064
21
-0.9137
0
LINE
8
BLACK
6
CONTINUOUS
10
0.397064
20
-0.9137
11
0.395304
21
-0.91018
0
LINE
8
BLACK
6
CONTINUOUS
10
0.395304
20
-0.91018
11
0.394155
21
-0.909031
0
LINE
8
BLACK
6
CONTINUOUS
10
0.394155
20
-0.909031
11
0.38795
21
-0.906963
0
LINE
8
BLACK
6
CONTINUOUS
10
0.38795
20
-0.906963
11
0.375129
21
-0.906963
0
LINE
8
BLACK
6
CONTINUOUS
10
0.375129
20
-0.878841
11
0.375129
21
-0.895152
0
LINE
8
BLACK
6
CONTINUOUS
10
0.375129
20
-0.895152
11
0.387515
21
-0.895152
0
LINE
8
BLACK
6
CONTINUOUS
10
0.387515
20
-0.895152
11
0.391035
21
-0.893392
0
LINE
8
BLACK
6
CONTINUOUS
10
0.391035
20
-0.893392
11
0.392492
21
-0.891935
0
LINE
8
BLACK
6
CONTINUOUS
10
0.392492
20
-0.891935
11
0.394252
21
-0.888415
0
LINE
8
BLACK
6
CONTINUOUS
10
0.394252
20
-0.888415
11
0.394252
21
-0.885579
0
LINE
8
BLACK
6
CONTINUOUS
10
0.394252
20
-0.885579
11
0.392492
21
-0.882058
0
LINE
8
BLACK
6
CONTINUOUS
10
0.392492
20
-0.882058
11
0.391035
21
-0.880602
0
LINE
8
BLACK
6
CONTINUOUS
10
0.391035
20
-0.880602
11
0.387515
21
-0.878841
0
LINE
8
BLACK
6
CONTINUOUS
10
0.387515
20
-0.878841
11
0.375129
21
-0.878841
0
LINE
8
BLACK
6
CONTINUOUS
10
0.273751
20
-0.867822
11
0.275913
21
-0.869983
0
LINE
8
BLACK
6
CONTINUOUS
10
0.275913
20
-0.869983
11
0.276704
21
-0.872936
0
LINE
8
BLACK
6
CONTINUOUS
10
0.276704
20
-0.872936
11
0.276704
21
-0.926085
0
LINE
8
BLACK
6
CONTINUOUS
10
0.276704
20
-0.926085
11
0.29892
21
-0.926085
0
LINE
8
BLACK
6
CONTINUOUS
10
0.29892
20
-0.926085
11
0.301873
21
-0.926877
0
LINE
8
BLACK
6
CONTINUOUS
10
0.301873
20
-0.926877
11
0.304034
21
-0.929038
0
LINE
8
BLACK
6
CONTINUOUS
10
0.304034
20
-0.929038
11
0.304522
21
-0.930858
0
LINE
8
BLACK
6
CONTINUOUS
10
0.304522
20
-0.930858
11
0.304566
21
-0.930124
0
LINE
8
BLACK
6
CONTINUOUS
10
0.304566
20
-0.930124
11
0.324251
21
-0.871068
0
LINE
8
BLACK
6
CONTINUOUS
10
0.324251
20
-0.871068
11
0.324905
21
-0.870079
0
LINE
8
BLACK
6
CONTINUOUS
10
0.324905
20
-0.870079
11
0.325435
21
-0.869018
0
LINE
8
BLACK
6
CONTINUOUS
10
0.325435
20
-0.869018
11
0.325737
21
-0.868819
0
LINE
8
BLACK
6
CONTINUOUS
10
0.325737
20
-0.868819
11
0.325936
21
-0.868517
0
LINE
8
BLACK
6
CONTINUOUS
10
0.325936
20
-0.868517
11
0.326997
21
-0.867987
0
LINE
8
BLACK
6
CONTINUOUS
10
0.326997
20
-0.867987
11
0.327986
21
-0.867333
0
LINE
8
BLACK
6
CONTINUOUS
10
0.327986
20
-0.867333
11
0.328347
21
-0.867312
0
LINE
8
BLACK
6
CONTINUOUS
10
0.328347
20
-0.867312
11
0.32867
21
-0.86715
0
LINE
8
BLACK
6
CONTINUOUS
10
0.32867
20
-0.86715
11
0.329854
21
-0.867221
0
LINE
8
BLACK
6
CONTINUOUS
10
0.329854
20
-0.867221
11
0.331038
21
-0.86715
0
LINE
8
BLACK
6
CONTINUOUS
10
0.331038
20
-0.86715
11
0.331361
21
-0.867312
0
LINE
8
BLACK
6
CONTINUOUS
10
0.331361
20
-0.867312
11
0.331721
21
-0.867333
0
LINE
8
BLACK
6
CONTINUOUS
10
0.331721
20
-0.867333
11
0.332711
21
-0.867987
0
LINE
8
BLACK
6
CONTINUOUS
10
0.332711
20
-0.867987
11
0.333772
21
-0.868517
0
LINE
8
BLACK
6
CONTINUOUS
10
0.333772
20
-0.868517
11
0.333971
21
-0.868819
0
LINE
8
BLACK
6
CONTINUOUS
10
0.333971
20
-0.868819
11
0.334272
21
-0.869018
0
LINE
8
BLACK
6
CONTINUOUS
10
0.334272
20
-0.869018
11
0.334803
21
-0.870079
0
LINE
8
BLACK
6
CONTINUOUS
10
0.334803
20
-0.870079
11
0.335456
21
-0.871068
0
LINE
8
BLACK
6
CONTINUOUS
10
0.335456
20
-0.871068
11
0.355141
21
-0.930124
0
LINE
8
BLACK
6
CONTINUOUS
10
0.355141
20
-0.930124
11
0.355324
21
-0.933175
0
LINE
8
BLACK
6
CONTINUOUS
10
0.355324
20
-0.933175
11
0.353957
21
-0.935909
0
LINE
8
BLACK
6
CONTINUOUS
10
0.353957
20
-0.935909
11
0.351406
21
-0.937593
0
LINE
8
BLACK
6
CONTINUOUS
10
0.351406
20
-0.937593
11
0.348355
21
-0.937777
0
LINE
8
BLACK
6
CONTINUOUS
10
0.348355
20
-0.937777
11
0.345621
21
-0.93641
0
LINE
8
BLACK
6
CONTINUOUS
10
0.345621
20
-0.93641
11
0.343936
21
-0.933858
0
LINE
8
BLACK
6
CONTINUOUS
10
0.343936
20
-0.933858
11
0.339658
21
-0.921024
0
LINE
8
BLACK
6
CONTINUOUS
10
0.339658
20
-0.921024
11
0.320049
21
-0.921024
0
LINE
8
BLACK
6
CONTINUOUS
10
0.320049
20
-0.921024
11
0.315771
21
-0.933858
0
LINE
8
BLACK
6
CONTINUOUS
10
0.315771
20
-0.933858
11
0.314087
21
-0.936409
0
LINE
8
BLACK
6
CONTINUOUS
10
0.314087
20
-0.936409
11
0.311353
21
-0.937777
0
LINE
8
BLACK
6
CONTINUOUS
10
0.311353
20
-0.937777
11
0.308301
21
-0.937593
0
LINE
8
BLACK
6
CONTINUOUS
10
0.308301
20
-0.937593
11
0.30575
21
-0.935909
0
LINE
8
BLACK
6
CONTINUOUS
10
0.30575
20
-0.935909
11
0.304465
21
-0.933338
0
LINE
8
BLACK
6
CONTINUOUS
10
0.304465
20
-0.933338
11
0.304034
21
-0.934944
0
LINE
8
BLACK
6
CONTINUOUS
10
0.304034
20
-0.934944
11
0.301873
21
-0.937105
0
LINE
8
BLACK
6
CONTINUOUS
10
0.301873
20
-0.937105
11
0.29892
21
-0.937896
0
LINE
8
BLACK
6
CONTINUOUS
10
0.29892
20
-0.937896
11
0.270799
21
-0.937896
0
LINE
8
BLACK
6
CONTINUOUS
10
0.270799
20
-0.937896
11
0.267846
21
-0.937105
0
LINE
8
BLACK
6
CONTINUOUS
10
0.267846
20
-0.937105
11
0.265684
21
-0.934944
0
LINE
8
BLACK
6
CONTINUOUS
10
0.265684
20
-0.934944
11
0.264893
21
-0.931991
0
LINE
8
BLACK
6
CONTINUOUS
10
0.264893
20
-0.931991
11
0.264893
21
-0.872936
0
LINE
8
BLACK
6
CONTINUOUS
10
0.264893
20
-0.872936
11
0.265684
21
-0.869983
0
LINE
8
BLACK
6
CONTINUOUS
10
0.265684
20
-0.869983
11
0.267846
21
-0.867822
0
LINE
8
BLACK
6
CONTINUOUS
10
0.267846
20
-0.867822
11
0.270799
21
-0.86703
0
LINE
8
BLACK
6
CONTINUOUS
10
0.270799
20
-0.86703
11
0.273751
21
-0.867822
0
LINE
8
BLACK
6
CONTINUOUS
10
0.323986
20
-0.909213
11
0.335721
21
-0.909213
0
LINE
8
BLACK
6
CONTINUOUS
10
0.335721
20
-0.909213
11
0.329854
21
-0.891611
0
LINE
8
BLACK
6
CONTINUOUS
10
0.329854
20
-0.891611
11
0.323986
21
-0.909213
0
LINE
8
BLACK
6
CONTINUOUS
10
0.243914
20
-0.867362
11
0.245175
21
-0.867584
0
LINE
8
BLACK
6
CONTINUOUS
10
0.245175
20
-0.867584
11
0.245376
21
-0.867754
0
LINE
8
BLACK
6
CONTINUOUS
10
0.245376
20
-0.867754
11
0.24563
21
-0.867822
0
LINE
8
BLACK
6
CONTINUOUS
10
0.24563
20
-0.867822
11
0.246535
21
-0.868727
0
LINE
8
BLACK
6
CONTINUOUS
10
0.246535
20
-0.868727
11
0.247516
21
-0.86955
0
LINE
8
BLACK
6
CONTINUOUS
10
0.247516
20
-0.86955
11
0.247606
21
-0.869797
0
LINE
8
BLACK
6
CONTINUOUS
10
0.247606
20
-0.869797
11
0.247791
21
-0.869983
0
LINE
8
BLACK
6
CONTINUOUS
10
0.247791
20
-0.869983
11
0.248123
21
-0.87122
0
LINE
8
BLACK
6
CONTINUOUS
10
0.248123
20
-0.87122
11
0.24856
21
-0.872423
0
LINE
8
BLACK
6
CONTINUOUS
10
0.24856
20
-0.872423
11
0.248515
21
-0.872682
0
LINE
8
BLACK
6
CONTINUOUS
10
0.248515
20
-0.872682
11
0.248583
21
-0.872936
0
LINE
8
BLACK
6
CONTINUOUS
10
0.248583
20
-0.872936
11
0.248583
21
-0.931991
0
LINE
8
BLACK
6
CONTINUOUS
10
0.248583
20
-0.931991
11
0.247791
21
-0.934944
0
LINE
8
BLACK
6
CONTINUOUS
10
0.247791
20
-0.934944
11
0.24563
21
-0.937105
0
LINE
8
BLACK
6
CONTINUOUS
10
0.24563
20
-0.937105
11
0.242677
21
-0.937896
0
LINE
8
BLACK
6
CONTINUOUS
10
0.242677
20
-0.937896
11
0.239724
21
-0.937105
0
LINE
8
BLACK
6
CONTINUOUS
10
0.239724
20
-0.937105
11
0.237563
21
-0.934944
0
LINE
8
BLACK
6
CONTINUOUS
10
0.237563
20
-0.934944
11
0.236772
21
-0.931991
0
LINE
8
BLACK
6
CONTINUOUS
10
0.236772
20
-0.931991
11
0.236772
21
-0.899555
0
LINE
8
BLACK
6
CONTINUOUS
10
0.236772
20
-0.899555
11
0.228344
21
-0.917615
0
LINE
8
BLACK
6
CONTINUOUS
10
0.228344
20
-0.917615
11
0.228009
21
-0.918014
0
LINE
8
BLACK
6
CONTINUOUS
10
0.228009
20
-0.918014
11
0.227831
21
-0.918504
0
LINE
8
BLACK
6
CONTINUOUS
10
0.227831
20
-0.918504
11
0.227041
21
-0.919167
0
LINE
8
BLACK
6
CONTINUOUS
10
0.227041
20
-0.919167
11
0.226378
21
-0.919957
0
LINE
8
BLACK
6
CONTINUOUS
10
0.226378
20
-0.919957
11
0.225889
21
-0.920135
0
LINE
8
BLACK
6
CONTINUOUS
10
0.225889
20
-0.920135
11
0.225489
21
-0.92047
0
LINE
8
BLACK
6
CONTINUOUS
10
0.225489
20
-0.92047
11
0.224474
21
-0.920649
0
LINE
8
BLACK
6
CONTINUOUS
10
0.224474
20
-0.920649
11
0.223505
21
-0.921001
0
LINE
8
BLACK
6
CONTINUOUS
10
0.223505
20
-0.921001
11
0.222992
21
-0.920911
0
LINE
8
BLACK
6
CONTINUOUS
10
0.222992
20
-0.920911
11
0.222479
21
-0.921001
0
LINE
8
BLACK
6
CONTINUOUS
10
0.222479
20
-0.921001
11
0.22151
21
-0.920649
0
LINE
8
BLACK
6
CONTINUOUS
10
0.22151
20
-0.920649
11
0.220495
21
-0.92047
0
LINE
8
BLACK
6
CONTINUOUS
10
0.220495
20
-0.92047
11
0.220096
21
-0.920135
0
LINE
8
BLACK
6
CONTINUOUS
10
0.220096
20
-0.920135
11
0.219606
21
-0.919957
0
LINE
8
BLACK
6
CONTINUOUS
10
0.219606
20
-0.919957
11
0.218943
21
-0.919167
0
LINE
8
BLACK
6
CONTINUOUS
10
0.218943
20
-0.919167
11
0.218154
21
-0.918504
0
LINE
8
BLACK
6
CONTINUOUS
10
0.218154
20
-0.918504
11
0.217976
21
-0.918014
0
LINE
8
BLACK
6
CONTINUOUS
10
0.217976
20
-0.918014
11
0.217641
21
-0.917615
0
LINE
8
BLACK
6
CONTINUOUS
10
0.217641
20
-0.917615
11
0.209213
21
-0.899555
0
LINE
8
BLACK
6
CONTINUOUS
10
0.209213
20
-0.899555
11
0.209213
21
-0.931991
0
LINE
8
BLACK
6
CONTINUOUS
10
0.209213
20
-0.931991
11
0.208421
21
-0.934944
0
LINE
8
BLACK
6
CONTINUOUS
10
0.208421
20
-0.934944
11
0.20626
21
-0.937105
0
LINE
8
BLACK
6
CONTINUOUS
10
0.20626
20
-0.937105
11
0.203307
21
-0.937896
0
LINE
8
BLACK
6
CONTINUOUS
10
0.203307
20
-0.937896
11
0.200354
21
-0.937105
0
LINE
8
BLACK
6
CONTINUOUS
10
0.200354
20
-0.937105
11
0.198193
21
-0.934944
0
LINE
8
BLACK
6
CONTINUOUS
10
0.198193
20
-0.934944
11
0.197402
21
-0.931991
0
LINE
8
BLACK
6
CONTINUOUS
10
0.197402
20
-0.931991
11
0.197402
21
-0.872936
0
LINE
8
BLACK
6
CONTINUOUS
10
0.197402
20
-0.872936
11
0.19747
21
-0.872682
0
LINE
8
BLACK
6
CONTINUOUS
10
0.19747
20
-0.872682
11
0.197424
21
-0.872423
0
LINE
8
BLACK
6
CONTINUOUS
10
0.197424
20
-0.872423
11
0.197861
21
-0.87122
0
LINE
8
BLACK
6
CONTINUOUS
10
0.197861
20
-0.87122
11
0.198193
21
-0.869983
0
LINE
8
BLACK
6
CONTINUOUS
10
0.198193
20
-0.869983
11
0.198379
21
-0.869797
0
LINE
8
BLACK
6
CONTINUOUS
10
0.198379
20
-0.869797
11
0.198469
21
-0.86955
0
LINE
8
BLACK
6
CONTINUOUS
10
0.198469
20
-0.86955
11
0.199449
21
-0.868727
0
LINE
8
BLACK
6
CONTINUOUS
10
0.199449
20
-0.868727
11
0.200354
21
-0.867822
0
LINE
8
BLACK
6
CONTINUOUS
10
0.200354
20
-0.867822
11
0.200608
21
-0.867753
0
LINE
8
BLACK
6
CONTINUOUS
10
0.200608
20
-0.867753
11
0.20081
21
-0.867584
0
LINE
8
BLACK
6
CONTINUOUS
10
0.20081
20
-0.867584
11
0.20207
21
-0.867362
0
LINE
8
BLACK
6
CONTINUOUS
10
0.20207
20
-0.867362
11
0.203307
21
-0.86703
0
LINE
8
BLACK
6
CONTINUOUS
10
0.203307
20
-0.86703
11
0.203561
21
-0.867098
0
LINE
8
BLACK
6
CONTINUOUS
10
0.203561
20
-0.867098
11
0.20382
21
-0.867053
0
LINE
8
BLACK
6
CONTINUOUS
10
0.20382
20
-0.867053
11
0.205023
21
-0.86749
0
LINE
8
BLACK
6
CONTINUOUS
10
0.205023
20
-0.86749
11
0.20626
21
-0.867822
0
LINE
8
BLACK
6
CONTINUOUS
10
0.20626
20
-0.867822
11
0.206446
21
-0.868008
0
LINE
8
BLACK
6
CONTINUOUS
10
0.206446
20
-0.868008
11
0.206693
21
-0.868097
0
LINE
8
BLACK
6
CONTINUOUS
10
0.206693
20
-0.868097
11
0.207516
21
-0.869078
0
LINE
8
BLACK
6
CONTINUOUS
10
0.207516
20
-0.869078
11
0.208421
21
-0.869983
0
LINE
8
BLACK
6
CONTINUOUS
10
0.208421
20
-0.869983
11
0.208489
21
-0.870237
0
LINE
8
BLACK
6
CONTINUOUS
10
0.208489
20
-0.870237
11
0.208659
21
-0.870439
0
LINE
8
BLACK
6
CONTINUOUS
10
0.208659
20
-0.870439
11
0.222992
21
-0.901153
0
LINE
8
BLACK
6
CONTINUOUS
10
0.222992
20
-0.901153
11
0.237326
21
-0.870439
0
LINE
8
BLACK
6
CONTINUOUS
10
0.237326
20
-0.870439
11
0.237495
21
-0.870237
0
LINE
8
BLACK
6
CONTINUOUS
10
0.237495
20
-0.870237
11
0.237563
21
-0.869983
0
LINE
8
BLACK
6
CONTINUOUS
10
0.237563
20
-0.869983
11
0.238468
21
-0.869078
0
LINE
8
BLACK
6
CONTINUOUS
10
0.238468
20
-0.869078
11
0.239291
21
-0.868097
0
LINE
8
BLACK
6
CONTINUOUS
10
0.239291
20
-0.868097
11
0.239539
21
-0.868007
0
LINE
8
BLACK
6
CONTINUOUS
10
0.239539
20
-0.868007
11
0.239724
21
-0.867822
0
LINE
8
BLACK
6
CONTINUOUS
10
0.239724
20
-0.867822
11
0.240961
21
-0.86749
0
LINE
8
BLACK
6
CONTINUOUS
10
0.240961
20
-0.86749
11
0.242164
21
-0.867053
0
LINE
8
BLACK
6
CONTINUOUS
10
0.242164
20
-0.867053
11
0.242423
21
-0.867098
0
LINE
8
BLACK
6
CONTINUOUS
10
0.242423
20
-0.867098
11
0.242677
21
-0.86703
0
LINE
8
BLACK
6
CONTINUOUS
10
0.242677
20
-0.86703
11
0.243914
21
-0.867362
0
LINE
8
BLACK
6
CONTINUOUS
10
-0.173476
20
0.169817
11
-0.171302
21
0.172543
0
LINE
8
BLACK
6
CONTINUOUS
10
-0.171302
20
0.172543
11
-0.168161
21
0.174056
0
LINE
8
BLACK
6
CONTINUOUS
10
-0.168161
20
0.174056
11
-0.166417
21
0.174252
0
LINE
8
BLACK
6
CONTINUOUS
10
-0.166417
20
0.174252
11
1.76642
21
0.174252
0
LINE
8
BLACK
6
CONTINUOUS
10
1.76642
20
0.174252
11
1.76982
21
0.173476
0
LINE
8
BLACK
6
CONTINUOUS
10
1.76982
20
0.173476
11
1.77254
21
0.171302
0
LINE
8
BLACK
6
CONTINUOUS
10
1.77254
20
0.171302
11
1.77406
21
0.168161
0
LINE
8
BLACK
6
CONTINUOUS
10
1.77406
20
0.168161
11
1.77425
21
0.166417
0
LINE
8
BLACK
6
CONTINUOUS
10
1.77425
20
0.166417
11
1.77425
21
-0.966417
0
LINE
8
BLACK
6
CONTINUOUS
10
1.77425
20
-0.966417
11
1.77348
21
-0.969817
0
LINE
8
BLACK
6
CONTINUOUS
10
1.77348
20
-0.969817
11
1.7713
21
-0.972543
0
LINE
8
BLACK
6
CONTINUOUS
10
1.7713
20
-0.972543
11
1.76816
21
-0.974056
0
LINE
8
BLACK
6
CONTINUOUS
10
1.76816
20
-0.974056
11
1.76642
21
-0.974252
0
LINE
8
BLACK
6
CONTINUOUS
10
1.76642
20
-0.974252
11
0.449612
21
-0.974252
0
LINE
8
BLACK
6
CONTINUOUS
10
0.449612
20
-0.974252
11
0.446213
21
-0.973476
0
LINE
8
BLACK
6
CONTINUOUS
10
0.446213
20
-0.973476
11
0.443487
21
-0.971302
0
LINE
8
BLACK
6
CONTINUOUS
10
0.443487
20
-0.971302
11
0.441974
21
-0.968161
0
LINE
8
BLACK
6
CONTINUOUS
10
0.441974
20
-0.968161
11
0.441777
21
-0.966417
0
LINE
8
BLACK
6
CONTINUOUS
10
0.441777
20
-0.966417
11
0.441777
21
-0.818366
0
LINE
8
BLACK
6
CONTINUOUS
10
0.441777
20
-0.818366
11
0.161687
21
-0.818366
0
LINE
8
BLACK
6
CONTINUOUS
10
0.161687
20
-0.818366
11
0.161687
21
-0.966417
0
LINE
8
BLACK
6
CONTINUOUS
10
0.161687
20
-0.966417
11
0.160911
21
-0.969817
0
LINE
8
BLACK
6
CONTINUOUS
10
0.160911
20
-0.969817
11
0.158737
21
-0.972543
0
LINE
8
BLACK
6
CONTINUOUS
10
0.158737
20
-0.972543
11
0.155596
21
-0.974056
0
LINE
8
BLACK
6
CONTINUOUS
10
0.155596
20
-0.974056
11
0.153853
21
-0.974252
0
LINE
8
BLACK
6
CONTINUOUS
10
0.153853
20
-0.974252
11
-0.166417
21
-0.974252
0
LINE
8
BLACK
6
CONTINUOUS
10
-0.166417
20
-0.974252
11
-0.169817
21
-0.973476
0
LINE
8
BLACK
6
CONTINUOUS
10
-0.169817
20
-0.973476
11
-0.172543
21
-0.971302
0
LINE
8
BLACK
6
CONTINUOUS
10
-0.172543
20
-0.971302
11
-0.174056
21
-0.968161
0
LINE
8
BLACK
6
CONTINUOUS
10
-0.174056
20
-0.968161
11
-0.174252
21
-0.966417
0
LINE
8
BLACK
6
CONTINUOUS
10
-0.174252
20
-0.966417
11
-0.174252
21
0.166417
0
LINE
8
BLACK
6
CONTINUOUS
10
-0.174252
20
0.166417
11
-0.173476
21
0.169817
0
LINE
8
BLACK
6
CONTINUOUS
10
0.18932
20
-0.647949
11
0.192983
21
-0.653997
0
LINE
8
BLACK
6
CONTINUOUS
10
0.192983
20
-0.653997
11
0.197894
21
-0.659083
0
LINE
8
BLACK
6
CONTINUOUS
10
0.197894
20
-0.659083
11
0.203811
21
-0.662954
0
LINE
8
BLACK
6
CONTINUOUS
10
0.203811
20
-0.662954
11
0.204221
21
-0.663107
0
LINE
8
BLACK
6
CONTINUOUS
10
0.204221
20
-0.663107
11
0.210027
21
-0.665266
0
LINE
8
BLACK
6
CONTINUOUS
10
0.210027
20
-0.665266
11
0.210027
21
-0.665266
0
LINE
8
BLACK
6
CONTINUOUS
10
0.210027
20
-0.665266
11
0.210438
21
-0.665419
0
LINE
8
BLACK
6
CONTINUOUS
10
0.210438
20
-0.665419
11
0.210872
21
-0.665477
0
LINE
8
BLACK
6
CONTINUOUS
10
0.210872
20
-0.665477
11
0.210872
21
-0.665477
0
LINE
8
BLACK
6
CONTINUOUS
10
0.210872
20
-0.665477
11
0.215531
21
-0.666098
0
LINE
8
BLACK
6
CONTINUOUS
10
0.215531
20
-0.666098
11
0.217446
21
-0.666354
0
LINE
8
BLACK
6
CONTINUOUS
10
0.217446
20
-0.666354
11
0.217882
21
-0.666314
0
LINE
8
BLACK
6
CONTINUOUS
10
0.217882
20
-0.666314
11
0.224051
21
-0.665753
0
LINE
8
BLACK
6
CONTINUOUS
10
0.224051
20
-0.665753
11
0.224051
21
-0.665753
0
LINE
8
BLACK
6
CONTINUOUS
10
0.224051
20
-0.665753
11
0.224487
21
-0.665713
0
LINE
8
BLACK
6
CONTINUOUS
10
0.224487
20
-0.665713
11
0.22785
21
-0.664621
0
LINE
8
BLACK
6
CONTINUOUS
10
0.22785
20
-0.664621
11
0.230795
21
-0.663664
0
LINE
8
BLACK
6
CONTINUOUS
10
0.230795
20
-0.663664
11
0.230795
21
-0.663664
0
LINE
8
BLACK
6
CONTINUOUS
10
0.230795
20
-0.663664
11
0.231212
21
-0.663528
0
LINE
8
BLACK
6
CONTINUOUS
10
0.231212
20
-0.663528
11
0.232175
21
-0.662954
0
LINE
8
BLACK
6
CONTINUOUS
10
0.232175
20
-0.662954
11
0.236909
21
-0.660132
0
LINE
8
BLACK
6
CONTINUOUS
10
0.236909
20
-0.660132
11
0.236909
21
-0.660132
0
LINE
8
BLACK
6
CONTINUOUS
10
0.236909
20
-0.660132
11
0.237285
21
-0.659908
0
LINE
8
BLACK
6
CONTINUOUS
10
0.237285
20
-0.659908
11
0.237379
21
-0.659818
0
LINE
8
BLACK
6
CONTINUOUS
10
0.237379
20
-0.659818
11
0.240416
21
-0.658444
0
LINE
8
BLACK
6
CONTINUOUS
10
0.240416
20
-0.658444
11
0.241976
21
-0.658287
0
LINE
8
BLACK
6
CONTINUOUS
10
0.241976
20
-0.658287
11
0.456204
21
-0.658287
0
LINE
8
BLACK
6
CONTINUOUS
10
0.456204
20
-0.658287
11
0.457227
21
-0.658354
0
LINE
8
BLACK
6
CONTINUOUS
10
0.457227
20
-0.658354
11
0.457758
21
-0.658424
0
LINE
8
BLACK
6
CONTINUOUS
10
0.457758
20
-0.658424
11
0.457759
21
-0.658424
0
LINE
8
BLACK
6
CONTINUOUS
10
0.457759
20
-0.658424
11
0.458268
21
-0.658491
0
LINE
8
BLACK
6
CONTINUOUS
10
0.458268
20
-0.658491
11
0.459308
21
-0.658354
0
LINE
8
BLACK
6
CONTINUOUS
10
0.459308
20
-0.658354
11
0.459817
21
-0.658287
0
LINE
8
BLACK
6
CONTINUOUS
10
0.459817
20
-0.658287
11
0.464439
21
-0.657679
0
LINE
8
BLACK
6
CONTINUOUS
10
0.464439
20
-0.657679
11
0.470191
21
-0.655297
0
LINE
8
BLACK
6
CONTINUOUS
10
0.470191
20
-0.655297
11
0.475129
21
-0.651507
0
LINE
8
BLACK
6
CONTINUOUS
10
0.475129
20
-0.651507
11
0.475768
21
-0.650674
0
LINE
8
BLACK
6
CONTINUOUS
10
0.475768
20
-0.650674
11
0.476444
21
-0.649904
0
LINE
8
BLACK
6
CONTINUOUS
10
0.476444
20
-0.649904
11
0.568758
21
-0.55759
0
LINE
8
BLACK
6
CONTINUOUS
10
0.568758
20
-0.55759
11
0.57171
21
-0.555735
0
LINE
8
BLACK
6
CONTINUOUS
10
0.57171
20
-0.555735
11
0.574298
21
-0.555295
0
LINE
8
BLACK
6
CONTINUOUS
10
0.574298
20
-0.555295
11
0.593736
21
-0.555295
0
LINE
8
BLACK
6
CONTINUOUS
10
0.593736
20
-0.555295
11
0.595887
21
-0.555295
0
LINE
8
BLACK
6
CONTINUOUS
10
0.595887
20
-0.555295
11
0.59619
21
-0.555247
0
LINE
8
BLACK
6
CONTINUOUS
10
0.59619
20
-0.555247
11
0.59619
21
-0.555247
0
LINE
8
BLACK
6
CONTINUOUS
10
0.59619
20
-0.555247
11
0.59897
21
-0.554807
0
LINE
8
BLACK
6
CONTINUOUS
10
0.59897
20
-0.554807
11
0.59897
21
-0.554807
0
LINE
8
BLACK
6
CONTINUOUS
10
0.59897
20
-0.554807
11
0.599579
21
-0.55471
0
LINE
8
BLACK
6
CONTINUOUS
10
0.599579
20
-0.55471
11
0.600128
21
-0.554431
0
LINE
8
BLACK
6
CONTINUOUS
10
0.600128
20
-0.554431
11
0.600128
21
-0.55443
0
LINE
8
BLACK
6
CONTINUOUS
10
0.600128
20
-0.55443
11
0.60348
21
-0.552723
0
LINE
8
BLACK
6
CONTINUOUS
10
0.60348
20
-0.552723
11
0.604029
21
-0.552443
0
LINE
8
BLACK
6
CONTINUOUS
10
0.604029
20
-0.552443
11
0.607561
21
-0.548911
0
LINE
8
BLACK
6
CONTINUOUS
10
0.607561
20
-0.548911
11
0.609829
21
-0.544461
0
LINE
8
BLACK
6
CONTINUOUS
10
0.609829
20
-0.544461
11
0.610413
21
-0.540768
0
LINE
8
BLACK
6
CONTINUOUS
10
0.610413
20
-0.540768
11
0.610413
21
-0.439468
0
LINE
8
BLACK
6
CONTINUOUS
10
0.610413
20
-0.439468
11
0.610365
21
-0.439164
0
LINE
8
BLACK
6
CONTINUOUS
10
0.610365
20
-0.439164
11
0.609925
21
-0.436385
0
LINE
8
BLACK
6
CONTINUOUS
10
0.609925
20
-0.436385
11
0.609925
21
-0.436384
0
LINE
8
BLACK
6
CONTINUOUS
10
0.609925
20
-0.436384
11
0.609829
21
-0.435775
0
LINE
8
BLACK
6
CONTINUOUS
10
0.609829
20
-0.435775
11
0.607561
21
-0.431325
0
LINE
8
BLACK
6
CONTINUOUS
10
0.607561
20
-0.431325
11
0.604029
21
-0.427793
0
LINE
8
BLACK
6
CONTINUOUS
10
0.604029
20
-0.427793
11
0.599579
21
-0.425526
0
LINE
8
BLACK
6
CONTINUOUS
10
0.599579
20
-0.425526
11
0.595887
21
-0.424941
0
LINE
8
BLACK
6
CONTINUOUS
10
0.595887
20
-0.424941
11
0.595579
21
-0.424941
0
LINE
8
BLACK
6
CONTINUOUS
10
0.595579
20
-0.424941
11
0.574946
21
-0.424941
0
LINE
8
BLACK
6
CONTINUOUS
10
0.574946
20
-0.424941
11
0.554035
21
-0.424941
0
LINE
8
BLACK
6
CONTINUOUS
10
0.554035
20
-0.424941
11
0.553731
21
-0.424989
0
LINE
8
BLACK
6
CONTINUOUS
10
0.553731
20
-0.424989
11
0.553731
21
-0.424989
0
LINE
8
BLACK
6
CONTINUOUS
10
0.553731
20
-0.424989
11
0.550952
21
-0.425429
0
LINE
8
BLACK
6
CONTINUOUS
10
0.550952
20
-0.425429
11
0.550951
21
-0.425429
0
LINE
8
BLACK
6
CONTINUOUS
10
0.550951
20
-0.425429
11
0.550342
21
-0.425526
0
LINE
8
BLACK
6
CONTINUOUS
10
0.550342
20
-0.425526
11
0.549793
21
-0.425806
0
LINE
8
BLACK
6
CONTINUOUS
10
0.549793
20
-0.425806
11
0.549793
21
-0.425806
0
LINE
8
BLACK
6
CONTINUOUS
10
0.549793
20
-0.425806
11
0.54872
21
-0.426352
0
LINE
8
BLACK
6
CONTINUOUS
10
0.54872
20
-0.426352
11
0.545892
21
-0.427793
0
LINE
8
BLACK
6
CONTINUOUS
10
0.545892
20
-0.427793
11
0.54236
21
-0.431325
0
LINE
8
BLACK
6
CONTINUOUS
10
0.54236
20
-0.431325
11
0.540093
21
-0.435775
0
LINE
8
BLACK
6
CONTINUOUS
10
0.540093
20
-0.435775
11
0.539508
21
-0.439468
0
LINE
8
BLACK
6
CONTINUOUS
10
0.539508
20
-0.439468
11
0.539508
21
-0.439776
0
LINE
8
BLACK
6
CONTINUOUS
10
0.539508
20
-0.439776
11
0.539508
21
-0.516726
0
LINE
8
BLACK
6
CONTINUOUS
10
0.539508
20
-0.516726
11
0.538732
21
-0.520125
0
LINE
8
BLACK
6
CONTINUOUS
10
0.538732
20
-0.520125
11
0.537213
21
-0.522266
0
LINE
8
BLACK
6
CONTINUOUS
10
0.537213
20
-0.522266
11
0.45077
21
-0.608709
0
LINE
8
BLACK
6
CONTINUOUS
10
0.45077
20
-0.608709
11
0.447817
21
-0.610564
0
LINE
8
BLACK
6
CONTINUOUS
10
0.447817
20
-0.610564
11
0.44523
21
-0.611004
0
LINE
8
BLACK
6
CONTINUOUS
10
0.44523
20
-0.611004
11
0.241953
21
-0.611004
0
LINE
8
BLACK
6
CONTINUOUS
10
0.241953
20
-0.611004
11
0.238554
21
-0.610228
0
LINE
8
BLACK
6
CONTINUOUS
10
0.238554
20
-0.610228
11
0.237755
21
-0.609784
0
LINE
8
BLACK
6
CONTINUOUS
10
0.237755
20
-0.609784
11
0.232383
21
-0.606375
0
LINE
8
BLACK
6
CONTINUOUS
10
0.232383
20
-0.606375
11
0.232383
21
-0.606375
0
LINE
8
BLACK
6
CONTINUOUS
10
0.232383
20
-0.606375
11
0.232013
21
-0.60614
0
LINE
8
BLACK
6
CONTINUOUS
10
0.232013
20
-0.60614
11
0.228508
21
-0.604892
0
LINE
8
BLACK
6
CONTINUOUS
10
0.228508
20
-0.604892
11
0.225765
21
-0.603915
0
LINE
8
BLACK
6
CONTINUOUS
10
0.225765
20
-0.603915
11
0.225765
21
-0.603915
0
LINE
8
BLACK
6
CONTINUOUS
10
0.225765
20
-0.603915
11
0.225352
21
-0.603768
0
LINE
8
BLACK
6
CONTINUOUS
10
0.225352
20
-0.603768
11
0.224917
21
-0.603717
0
LINE
8
BLACK
6
CONTINUOUS
10
0.224917
20
-0.603717
11
0.224917
21
-0.603717
0
LINE
8
BLACK
6
CONTINUOUS
10
0.224917
20
-0.603717
11
0.218767
21
-0.602983
0
LINE
8
BLACK
6
CONTINUOUS
10
0.218767
20
-0.602983
11
0.218766
21
-0.602983
0
LINE
8
BLACK
6
CONTINUOUS
10
0.218766
20
-0.602983
11
0.218332
21
-0.602931
0
LINE
8
BLACK
6
CONTINUOUS
10
0.218332
20
-0.602931
11
0.2113
21
-0.60367
0
LINE
8
BLACK
6
CONTINUOUS
10
0.2113
20
-0.60367
11
0.210885
21
-0.603812
0
LINE
8
BLACK
6
CONTINUOUS
10
0.210885
20
-0.603812
11
0.210885
21
-0.603812
0
LINE
8
BLACK
6
CONTINUOUS
10
0.210885
20
-0.603812
11
0.207797
21
-0.604863
0
LINE
8
BLACK
6
CONTINUOUS
10
0.207797
20
-0.604863
11
0.204607
21
-0.605949
0
LINE
8
BLACK
6
CONTINUOUS
10
0.204607
20
-0.605949
11
0.200892
21
-0.608234
0
LINE
8
BLACK
6
CONTINUOUS
10
0.200892
20
-0.608234
11
0.198958
21
-0.609424
0
LINE
8
BLACK
6
CONTINUOUS
10
0.198958
20
-0.609424
11
0.198957
21
-0.609424
0
LINE
8
BLACK
6
CONTINUOUS
10
0.198957
20
-0.609424
11
0.198584
21
-0.609654
0
LINE
8
BLACK
6
CONTINUOUS
10
0.198584
20
-0.609654
11
0.193533
21
-0.614601
0
LINE
8
BLACK
6
CONTINUOUS
10
0.193533
20
-0.614601
11
0.189703
21
-0.620544
0
LINE
8
BLACK
6
CONTINUOUS
10
0.189703
20
-0.620544
11
0.187284
21
-0.627188
0
LINE
8
BLACK
6
CONTINUOUS
10
0.187284
20
-0.627188
11
0.186398
21
-0.634203
0
LINE
8
BLACK
6
CONTINUOUS
10
0.186398
20
-0.634203
11
0.187088
21
-0.64124
0
LINE
8
BLACK
6
CONTINUOUS
10
0.187088
20
-0.64124
11
0.18932
21
-0.647949
0
LINE
8
BLACK
6
CONTINUOUS
10
0.485843
20
-0.289528
11
0.485097
21
-0.289698
0
LINE
8
BLACK
6
CONTINUOUS
10
0.485097
20
-0.289698
11
0.484961
21
-0.28998
0
LINE
8
BLACK
6
CONTINUOUS
10
0.484961
20
-0.28998
11
0.484961
21
-0.310394
0
LINE
8
BLACK
6
CONTINUOUS
10
0.484961
20
-0.310394
11
0.494646
21
-0.310394
0
LINE
8
BLACK
6
CONTINUOUS
10
0.494646
20
-0.310394
11
0.494646
21
-0.349803
0
LINE
8
BLACK
6
CONTINUOUS
10
0.494646
20
-0.349803
11
0.514629
21
-0.349803
0
LINE
8
BLACK
6
CONTINUOUS
10
0.514629
20
-0.349803
11
0.515376
21
-0.349633
0
LINE
8
BLACK
6
CONTINUOUS
10
0.515376
20
-0.349633
11
0.515512
21
-0.34935
0
LINE
8
BLACK
6
CONTINUOUS
10
0.515512
20
-0.34935
11
0.515512
21
-0.309009
0
LINE
8
BLACK
6
CONTINUOUS
10
0.515512
20
-0.309009
11
0.515483
21
-0.308538
0
LINE
8
BLACK
6
CONTINUOUS
10
0.515483
20
-0.308538
11
0.51516
21
-0.305869
0
LINE
8
BLACK
6
CONTINUOUS
10
0.51516
20
-0.305869
11
0.514915
21
-0.304902
0
LINE
8
BLACK
6
CONTINUOUS
10
0.514915
20
-0.304902
11
0.513192
21
-0.300551
0
LINE
8
BLACK
6
CONTINUOUS
10
0.513192
20
-0.300551
11
0.512673
21
-0.299629
0
LINE
8
BLACK
6
CONTINUOUS
10
0.512673
20
-0.299629
11
0.509862
21
-0.295926
0
LINE
8
BLACK
6
CONTINUOUS
10
0.509862
20
-0.295926
11
0.509114
21
-0.295178
0
LINE
8
BLACK
6
CONTINUOUS
10
0.509114
20
-0.295178
11
0.505411
21
-0.292367
0
LINE
8
BLACK
6
CONTINUOUS
10
0.505411
20
-0.292367
11
0.504489
21
-0.291847
0
LINE
8
BLACK
6
CONTINUOUS
10
0.504489
20
-0.291847
11
0.500138
21
-0.290125
0
LINE
8
BLACK
6
CONTINUOUS
10
0.500138
20
-0.290125
11
0.49917
21
-0.289879
0
LINE
8
BLACK
6
CONTINUOUS
10
0.49917
20
-0.289879
11
0.496501
21
-0.289556
0
LINE
8
BLACK
6
CONTINUOUS
10
0.496501
20
-0.289556
11
0.496031
21
-0.289528
0
LINE
8
BLACK
6
CONTINUOUS
10
0.496031
20
-0.289528
11
0.485843
21
-0.289528
0
LINE
8
BLACK
6
CONTINUOUS
10
-0.021007
20
-0.183386
11
-0.0217538
21
-0.183556
0
LINE
8
BLACK
6
CONTINUOUS
10
-0.0217538
20
-0.183556
11
-0.0218898
21
-0.183839
0
LINE
8
BLACK
6
CONTINUOUS
10
-0.0218898
20
-0.183839
11
-0.0218898
21
-0.204252
0
LINE
8
BLACK
6
CONTINUOUS
10
-0.0218898
20
-0.204252
11
-0.00188976
21
-0.204252
0
LINE
8
BLACK
6
CONTINUOUS
10
-0.00188976
20
-0.204252
11
-0.00188976
21
-0.224252
0
LINE
8
BLACK
6
CONTINUOUS
10
-0.00188976
20
-0.224252
11
0.0180936
21
-0.224252
0
LINE
8
BLACK
6
CONTINUOUS
10
0.0180936
20
-0.224252
11
0.0188404
21
-0.224081
0
LINE
8
BLACK
6
CONTINUOUS
10
0.0188404
20
-0.224081
11
0.0189764
21
-0.223799
0
LINE
8
BLACK
6
CONTINUOUS
10
0.0189764
20
-0.223799
11
0.0189764
21
-0.202867
0
LINE
8
BLACK
6
CONTINUOUS
10
0.0189764
20
-0.202867
11
0.018948
21
-0.202396
0
LINE
8
BLACK
6
CONTINUOUS
10
0.018948
20
-0.202396
11
0.018625
21
-0.199727
0
LINE
8
BLACK
6
CONTINUOUS
10
0.018625
20
-0.199727
11
0.0183793
21
-0.19876
0
LINE
8
BLACK
6
CONTINUOUS
10
0.0183793
20
-0.19876
11
0.0166566
21
-0.194409
0
LINE
8
BLACK
6
CONTINUOUS
10
0.0166566
20
-0.194409
11
0.0161372
21
-0.193487
0
LINE
8
BLACK
6
CONTINUOUS
10
0.0161372
20
-0.193487
11
0.0133264
21
-0.189784
0
LINE
8
BLACK
6
CONTINUOUS
10
0.0133264
20
-0.189784
11
0.0125782
21
-0.189036
0
LINE
8
BLACK
6
CONTINUOUS
10
0.0125782
20
-0.189036
11
0.00887516
21
-0.186225
0
LINE
8
BLACK
6
CONTINUOUS
10
0.00887516
20
-0.186225
11
0.00795335
21
-0.185706
0
LINE
8
BLACK
6
CONTINUOUS
10
0.00795335
20
-0.185706
11
0.00360213
21
-0.183983
0
LINE
8
BLACK
6
CONTINUOUS
10
0.00360213
20
-0.183983
11
0.0026348
21
-0.183737
0
LINE
8
BLACK
6
CONTINUOUS
10
0.0026348
20
-0.183737
11
-3.4252e-05
21
-0.183414
0
LINE
8
BLACK
6
CONTINUOUS
10
-3.4252e-05
20
-0.183414
11
-0.000504882
21
-0.183386
0
LINE
8
BLACK
6
CONTINUOUS
10
-0.000504882
20
-0.183386
11
-0.021007
21
-0.183386
0
LINE
8
BLACK
6
CONTINUOUS
10
0.485413
20
-0.430079
11
0.496031
21
-0.430079
0
LINE
8
BLACK
6
CONTINUOUS
10
0.496031
20
-0.430079
11
0.496501
21
-0.43005
0
LINE
8
BLACK
6
CONTINUOUS
10
0.496501
20
-0.43005
11
0.49917
21
-0.429727
0
LINE
8
BLACK
6
CONTINUOUS
10
0.49917
20
-0.429727
11
0.500138
21
-0.429482
0
LINE
8
BLACK
6
CONTINUOUS
10
0.500138
20
-0.429482
11
0.504489
21
-0.427759
0
LINE
8
BLACK
6
CONTINUOUS
10
0.504489
20
-0.427759
11
0.505411
21
-0.42724
0
LINE
8
BLACK
6
CONTINUOUS
10
0.505411
20
-0.42724
11
0.509114
21
-0.424429
0
LINE
8
BLACK
6
CONTINUOUS
10
0.509114
20
-0.424429
11
0.509862
21
-0.423681
0
LINE
8
BLACK
6
CONTINUOUS
10
0.509862
20
-0.423681
11
0.512673
21
-0.419978
0
LINE
8
BLACK
6
CONTINUOUS
10
0.512673
20
-0.419978
11
0.513192
21
-0.419056
0
LINE
8
BLACK
6
CONTINUOUS
10
0.513192
20
-0.419056
11
0.514915
21
-0.414704
0
LINE
8
BLACK
6
CONTINUOUS
10
0.514915
20
-0.414704
11
0.51516
21
-0.413737
0
LINE
8
BLACK
6
CONTINUOUS
10
0.51516
20
-0.413737
11
0.515483
21
-0.411068
0
LINE
8
BLACK
6
CONTINUOUS
10
0.515483
20
-0.411068
11
0.515512
21
-0.410597
0
LINE
8
BLACK
6
CONTINUOUS
10
0.515512
20
-0.410597
11
0.515512
21
-0.370686
0
LINE
8
BLACK
6
CONTINUOUS
10
0.515512
20
-0.370686
11
0.515341
21
-0.369939
0
LINE
8
BLACK
6
CONTINUOUS
10
0.515341
20
-0.369939
11
0.515059
21
-0.369803
0
LINE
8
BLACK
6
CONTINUOUS
10
0.515059
20
-0.369803
11
0.494646
21
-0.369803
0
LINE
8
BLACK
6
CONTINUOUS
10
0.494646
20
-0.369803
11
0.494646
21
-0.409213
0
LINE
8
BLACK
6
CONTINUOUS
10
0.494646
20
-0.409213
11
0.484961
21
-0.409213
0
LINE
8
BLACK
6
CONTINUOUS
10
0.484961
20
-0.409213
11
0.484961
21
-0.429196
0
LINE
8
BLACK
6
CONTINUOUS
10
0.484961
20
-0.429196
11
0.485131
21
-0.429943
0
LINE
8
BLACK
6
CONTINUOUS
10
0.485131
20
-0.429943
11
0.485413
21
-0.430079
0
LINE
8
BLACK
6
CONTINUOUS
10
-0.0824045
20
-0.268777
11
-0.0821589
21
-0.269744
0
LINE
8
BLACK
6
CONTINUOUS
10
-0.0821589
20
-0.269744
11
-0.0804361
21
-0.274095
0
LINE
8
BLACK
6
CONTINUOUS
10
-0.0804361
20
-0.274095
11
-0.0799167
21
-0.275017
0
LINE
8
BLACK
6
CONTINUOUS
10
-0.0799167
20
-0.275017
11
-0.0771059
21
-0.27872
0
LINE
8
BLACK
6
CONTINUOUS
10
-0.0771059
20
-0.27872
11
-0.0763578
21
-0.279468
0
LINE
8
BLACK
6
CONTINUOUS
10
-0.0763578
20
-0.279468
11
-0.0738738
21
-0.281354
0
LINE
8
BLACK
6
CONTINUOUS
10
-0.0738738
20
-0.281354
11
-0.0716352
21
-0.284027
0
LINE
8
BLACK
6
CONTINUOUS
10
-0.0716352
20
-0.284027
11
-0.0707782
21
-0.287407
0
LINE
8
BLACK
6
CONTINUOUS
10
-0.0707782
20
-0.287407
11
-0.0714726
21
-0.290824
0
LINE
8
BLACK
6
CONTINUOUS
10
-0.0714726
20
-0.290824
11
-0.0730707
21
-0.293134
0
LINE
8
BLACK
6
CONTINUOUS
10
-0.0730707
20
-0.293134
11
-0.0748051
21
-0.294868
0
LINE
8
BLACK
6
CONTINUOUS
10
-0.0748051
20
-0.294868
11
-0.0770727
21
-0.299319
0
LINE
8
BLACK
6
CONTINUOUS
10
-0.0770727
20
-0.299319
11
-0.0776575
21
-0.303011
0
LINE
8
BLACK
6
CONTINUOUS
10
-0.0776575
20
-0.303011
11
-0.0776574
21
-0.365493
0
LINE
8
BLACK
6
CONTINUOUS
10
-0.0776574
20
-0.365493
11
-0.0776093
21
-0.365796
0
LINE
8
BLACK
6
CONTINUOUS
10
-0.0776093
20
-0.365796
11
-0.0776093
21
-0.365797
0
LINE
8
BLACK
6
CONTINUOUS
10
-0.0776093
20
-0.365797
11
-0.0771692
21
-0.368576
0
LINE
8
BLACK
6
CONTINUOUS
10
-0.0771692
20
-0.368576
11
-0.0771691
21
-0.368576
0
LINE
8
BLACK
6
CONTINUOUS
10
-0.0771691
20
-0.368576
11
-0.0770727
21
-0.369185
0
LINE
8
BLACK
6
CONTINUOUS
10
-0.0770727
20
-0.369185
11
-0.0767927
21
-0.369735
0
LINE
8
BLACK
6
CONTINUOUS
10
-0.0767927
20
-0.369735
11
-0.0767927
21
-0.369735
0
LINE
8
BLACK
6
CONTINUOUS
10
-0.0767927
20
-0.369735
11
-0.075085
21
-0.373086
0
LINE
8
BLACK
6
CONTINUOUS
10
-0.075085
20
-0.373086
11
-0.0748051
21
-0.373636
0
LINE
8
BLACK
6
CONTINUOUS
10
-0.0748051
20
-0.373636
11
-0.0712733
21
-0.377167
0
LINE
8
BLACK
6
CONTINUOUS
10
-0.0712733
20
-0.377167
11
-0.066823
21
-0.379435
0
LINE
8
BLACK
6
CONTINUOUS
10
-0.066823
20
-0.379435
11
-0.0631307
21
-0.38002
0
LINE
8
BLACK
6
CONTINUOUS
10
-0.0631307
20
-0.38002
11
-0.0628226
21
-0.38002
0
LINE
8
BLACK
6
CONTINUOUS
10
-0.0628226
20
-0.38002
11
-0.0318678
21
-0.38002
0
LINE
8
BLACK
6
CONTINUOUS
10
-0.0318678
20
-0.38002
11
-0.000648898
21
-0.38002
0
LINE
8
BLACK
6
CONTINUOUS
10
-0.000648898
20
-0.38002
11
-0.000345236
21
-0.379972
0
LINE
8
BLACK
6
CONTINUOUS
10
-0.000345236
20
-0.379972
11
-0.000345
21
-0.379972
0
LINE
8
BLACK
6
CONTINUOUS
10
-0.000345
20
-0.379972
11
0.00243429
21
-0.379531
0
LINE
8
BLACK
6
CONTINUOUS
10
0.00243429
20
-0.379531
11
0.00243441
21
-0.379531
0
LINE
8
BLACK
6
CONTINUOUS
10
0.00243441
20
-0.379531
11
0.00304346
21
-0.379435
0
LINE
8
BLACK
6
CONTINUOUS
10
0.00304346
20
-0.379435
11
0.00359291
21
-0.379155
0
LINE
8
BLACK
6
CONTINUOUS
10
0.00359291
20
-0.379155
11
0.00359303
21
-0.379155
0
LINE
8
BLACK
6
CONTINUOUS
10
0.00359303
20
-0.379155
11
0.00694441
21
-0.377447
0
LINE
8
BLACK
6
CONTINUOUS
10
0.00694441
20
-0.377447
11
0.00749378
21
-0.377167
0
LINE
8
BLACK
6
CONTINUOUS
10
0.00749378
20
-0.377167
11
0.0110256
21
-0.373636
0
LINE
8
BLACK
6
CONTINUOUS
10
0.0110256
20
-0.373636
11
0.0132931
21
-0.369185
0
LINE
8
BLACK
6
CONTINUOUS
10
0.0132931
20
-0.369185
11
0.013878
21
-0.365493
0
LINE
8
BLACK
6
CONTINUOUS
10
0.013878
20
-0.365493
11
0.0138779
21
-0.303011
0
LINE
8
BLACK
6
CONTINUOUS
10
0.0138779
20
-0.303011
11
0.0138297
21
-0.302707
0
LINE
8
BLACK
6
CONTINUOUS
10
0.0138297
20
-0.302707
11
0.0133896
21
-0.299928
0
LINE
8
BLACK
6
CONTINUOUS
10
0.0133896
20
-0.299928
11
0.0133896
21
-0.299928
0
LINE
8
BLACK
6
CONTINUOUS
10
0.0133896
20
-0.299928
11
0.0132931
21
-0.299319
0
LINE
8
BLACK
6
CONTINUOUS
10
0.0132931
20
-0.299319
11
0.0125452
21
-0.297851
0
LINE
8
BLACK
6
CONTINUOUS
10
0.0125452
20
-0.297851
11
0.0113055
21
-0.295418
0
LINE
8
BLACK
6
CONTINUOUS
10
0.0113055
20
-0.295418
11
0.0110256
21
-0.294868
0
LINE
8
BLACK
6
CONTINUOUS
10
0.0110256
20
-0.294868
11
0.00929118
21
-0.293134
0
LINE
8
BLACK
6
CONTINUOUS
10
0.00929118
20
-0.293134
11
0.0074361
21
-0.290182
0
LINE
8
BLACK
6
CONTINUOUS
10
0.0074361
20
-0.290182
11
0.00704571
21
-0.286717
0
LINE
8
BLACK
6
CONTINUOUS
10
0.00704571
20
-0.286717
11
0.00819732
21
-0.283426
0
LINE
8
BLACK
6
CONTINUOUS
10
0.00819732
20
-0.283426
11
0.0100943
21
-0.281354
0
LINE
8
BLACK
6
CONTINUOUS
10
0.0100943
20
-0.281354
11
0.0125782
21
-0.279468
0
LINE
8
BLACK
6
CONTINUOUS
10
0.0125782
20
-0.279468
11
0.0133264
21
-0.27872
0
LINE
8
BLACK
6
CONTINUOUS
10
0.0133264
20
-0.27872
11
0.0161372
21
-0.275017
0
LINE
8
BLACK
6
CONTINUOUS
10
0.0161372
20
-0.275017
11
0.0166566
21
-0.274095
0
LINE
8
BLACK
6
CONTINUOUS
10
0.0166566
20
-0.274095
11
0.0183793
21
-0.269744
0
LINE
8
BLACK
6
CONTINUOUS
10
0.0183793
20
-0.269744
11
0.018625
21
-0.268777
0
LINE
8
BLACK
6
CONTINUOUS
10
0.018625
20
-0.268777
11
0.018948
21
-0.266107
0
LINE
8
BLACK
6
CONTINUOUS
10
0.018948
20
-0.266107
11
0.0189764
21
-0.265637
0
LINE
8
BLACK
6
CONTINUOUS
10
0.0189764
20
-0.265637
11
0.0189764
21
-0.245135
0
LINE
8
BLACK
6
CONTINUOUS
10
0.0189764
20
-0.245135
11
0.0188059
21
-0.244388
0
LINE
8
BLACK
6
CONTINUOUS
10
0.0188059
20
-0.244388
11
0.0185236
21
-0.244252
0
LINE
8
BLACK
6
CONTINUOUS
10
0.0185236
20
-0.244252
11
-0.00188976
21
-0.244252
0
LINE
8
BLACK
6
CONTINUOUS
10
-0.00188976
20
-0.244252
11
-0.00188976
21
-0.264252
0
LINE
8
BLACK
6
CONTINUOUS
10
-0.00188976
20
-0.264252
11
-0.0618898
21
-0.264252
0
LINE
8
BLACK
6
CONTINUOUS
10
-0.0618898
20
-0.264252
11
-0.0618898
21
-0.244252
0
LINE
8
BLACK
6
CONTINUOUS
10
-0.0618898
20
-0.244252
11
-0.0818731
21
-0.244252
0
LINE
8
BLACK
6
CONTINUOUS
10
-0.0818731
20
-0.244252
11
-0.08262
21
-0.244422
0
LINE
8
BLACK
6
CONTINUOUS
10
-0.08262
20
-0.244422
11
-0.0827559
21
-0.244705
0
LINE
8
BLACK
6
CONTINUOUS
10
-0.0827559
20
-0.244705
11
-0.0827559
21
-0.265637
0
LINE
8
BLACK
6
CONTINUOUS
10
-0.0827559
20
-0.265637
11
-0.0827276
21
-0.266107
0
LINE
8
BLACK
6
CONTINUOUS
10
-0.0827276
20
-0.266107
11
-0.0824045
21
-0.268777
0
LINE
8
BLACK
6
CONTINUOUS
10
0.455276
20
-0.409213
11
0.455276
21
-0.369803
0
LINE
8
BLACK
6
CONTINUOUS
10
0.455276
20
-0.369803
11
0.435292
21
-0.369803
0
LINE
8
BLACK
6
CONTINUOUS
10
0.435292
20
-0.369803
11
0.434545
21
-0.369974
0
LINE
8
BLACK
6
CONTINUOUS
10
0.434545
20
-0.369974
11
0.434409
21
-0.370256
0
LINE
8
BLACK
6
CONTINUOUS
10
0.434409
20
-0.370256
11
0.434409
21
-0.410597
0
LINE
8
BLACK
6
CONTINUOUS
10
0.434409
20
-0.410597
11
0.434438
21
-0.411068
0
LINE
8
BLACK
6
CONTINUOUS
10
0.434438
20
-0.411068
11
0.434761
21
-0.413737
0
LINE
8
BLACK
6
CONTINUOUS
10
0.434761
20
-0.413737
11
0.435006
21
-0.414704
0
LINE
8
BLACK
6
CONTINUOUS
10
0.435006
20
-0.414704
11
0.436729
21
-0.419056
0
LINE
8
BLACK
6
CONTINUOUS
10
0.436729
20
-0.419056
11
0.437249
21
-0.419978
0
LINE
8
BLACK
6
CONTINUOUS
10
0.437249
20
-0.419978
11
0.440059
21
-0.423681
0
LINE
8
BLACK
6
CONTINUOUS
10
0.440059
20
-0.423681
11
0.440808
21
-0.424429
0
LINE
8
BLACK
6
CONTINUOUS
10
0.440808
20
-0.424429
11
0.444511
21
-0.42724
0
LINE
8
BLACK
6
CONTINUOUS
10
0.444511
20
-0.42724
11
0.445432
21
-0.427759
0
LINE
8
BLACK
6
CONTINUOUS
10
0.445432
20
-0.427759
11
0.449784
21
-0.429482
0
LINE
8
BLACK
6
CONTINUOUS
10
0.449784
20
-0.429482
11
0.450751
21
-0.429727
0
LINE
8
BLACK
6
CONTINUOUS
10
0.450751
20
-0.429727
11
0.45342
21
-0.43005
0
LINE
8
BLACK
6
CONTINUOUS
10
0.45342
20
-0.43005
11
0.453891
21
-0.430079
0
LINE
8
BLACK
6
CONTINUOUS
10
0.453891
20
-0.430079
11
0.464078
21
-0.430079
0
LINE
8
BLACK
6
CONTINUOUS
10
0.464078
20
-0.430079
11
0.464825
21
-0.429908
0
LINE
8
BLACK
6
CONTINUOUS
10
0.464825
20
-0.429908
11
0.464961
21
-0.429626
0
LINE
8
BLACK
6
CONTINUOUS
10
0.464961
20
-0.429626
11
0.464961
21
-0.409213
0
LINE
8
BLACK
6
CONTINUOUS
10
0.464961
20
-0.409213
11
0.455276
21
-0.409213
0
LINE
8
BLACK
6
CONTINUOUS
10
0.434862
20
-0.349803
11
0.455276
21
-0.349803
0
LINE
8
BLACK
6
CONTINUOUS
10
0.455276
20
-0.349803
11
0.455276
21
-0.310394
0
LINE
8
BLACK
6
CONTINUOUS
10
0.455276
20
-0.310394
11
0.464961
21
-0.310394
0
LINE
8
BLACK
6
CONTINUOUS
10
0.464961
20
-0.310394
11
0.464961
21
-0.29041
0
LINE
8
BLACK
6
CONTINUOUS
10
0.464961
20
-0.29041
11
0.46479
21
-0.289664
0
LINE
8
BLACK
6
CONTINUOUS
10
0.46479
20
-0.289664
11
0.464508
21
-0.289528
0
LINE
8
BLACK
6
CONTINUOUS
10
0.464508
20
-0.289528
11
0.453891
21
-0.289528
0
LINE
8
BLACK
6
CONTINUOUS
10
0.453891
20
-0.289528
11
0.45342
21
-0.289556
0
LINE
8
BLACK
6
CONTINUOUS
10
0.45342
20
-0.289556
11
0.450751
21
-0.289879
0
LINE
8
BLACK
6
CONTINUOUS
10
0.450751
20
-0.289879
11
0.449784
21
-0.290125
0
LINE
8
BLACK
6
CONTINUOUS
10
0.449784
20
-0.290125
11
0.445432
21
-0.291847
0
LINE
8
BLACK
6
CONTINUOUS
10
0.445432
20
-0.291847
11
0.444511
21
-0.292367
0
LINE
8
BLACK
6
CONTINUOUS
10
0.444511
20
-0.292367
11
0.440808
21
-0.295178
0
LINE
8
BLACK
6
CONTINUOUS
10
0.440808
20
-0.295178
11
0.440059
21
-0.295926
0
LINE
8
BLACK
6
CONTINUOUS
10
0.440059
20
-0.295926
11
0.437249
21
-0.299629
0
LINE
8
BLACK
6
CONTINUOUS
10
0.437249
20
-0.299629
11
0.436729
21
-0.300551
0
LINE
8
BLACK
6
CONTINUOUS
10
0.436729
20
-0.300551
11
0.435006
21
-0.304902
0
LINE
8
BLACK
6
CONTINUOUS
10
0.435006
20
-0.304902
11
0.434761
21
-0.305869
0
LINE
8
BLACK
6
CONTINUOUS
10
0.434761
20
-0.305869
11
0.434438
21
-0.308538
0
LINE
8
BLACK
6
CONTINUOUS
10
0.434438
20
-0.308538
11
0.434409
21
-0.309009
0
LINE
8
BLACK
6
CONTINUOUS
10
0.434409
20
-0.309009
11
0.434409
21
-0.34892
0
LINE
8
BLACK
6
CONTINUOUS
10
0.434409
20
-0.34892
11
0.43458
21
-0.349667
0
LINE
8
BLACK
6
CONTINUOUS
10
0.43458
20
-0.349667
11
0.434862
21
-0.349803
0
LINE
8
BLACK
6
CONTINUOUS
10
0.339556
20
-0.541072
11
0.339556
21
-0.541072
0
LINE
8
BLACK
6
CONTINUOUS
10
0.339556
20
-0.541072
11
0.339996
21
-0.543852
0
LINE
8
BLACK
6
CONTINUOUS
10
0.339996
20
-0.543852
11
0.339996
21
-0.543852
0
LINE
8
BLACK
6
CONTINUOUS
10
0.339996
20
-0.543852
11
0.340093
21
-0.544461
0
LINE
8
BLACK
6
CONTINUOUS
10
0.340093
20
-0.544461
11
0.34236
21
-0.548911
0
LINE
8
BLACK
6
CONTINUOUS
10
0.34236
20
-0.548911
11
0.345892
21
-0.552443
0
LINE
8
BLACK
6
CONTINUOUS
10
0.345892
20
-0.552443
11
0.350342
21
-0.55471
0
LINE
8
BLACK
6
CONTINUOUS
10
0.350342
20
-0.55471
11
0.354035
21
-0.555295
0
LINE
8
BLACK
6
CONTINUOUS
10
0.354035
20
-0.555295
11
0.354343
21
-0.555295
0
LINE
8
BLACK
6
CONTINUOUS
10
0.354343
20
-0.555295
11
0.374975
21
-0.555295
0
LINE
8
BLACK
6
CONTINUOUS
10
0.374975
20
-0.555295
11
0.395887
21
-0.555295
0
LINE
8
BLACK
6
CONTINUOUS
10
0.395887
20
-0.555295
11
0.39619
21
-0.555247
0
LINE
8
BLACK
6
CONTINUOUS
10
0.39619
20
-0.555247
11
0.39619
21
-0.555247
0
LINE
8
BLACK
6
CONTINUOUS
10
0.39619
20
-0.555247
11
0.39897
21
-0.554807
0
LINE
8
BLACK
6
CONTINUOUS
10
0.39897
20
-0.554807
11
0.39897
21
-0.554807
0
LINE
8
BLACK
6
CONTINUOUS
10
0.39897
20
-0.554807
11
0.399579
21
-0.55471
0
LINE
8
BLACK
6
CONTINUOUS
10
0.399579
20
-0.55471
11
0.400128
21
-0.554431
0
LINE
8
BLACK
6
CONTINUOUS
10
0.400128
20
-0.554431
11
0.400128
21
-0.55443
0
LINE
8
BLACK
6
CONTINUOUS
10
0.400128
20
-0.55443
11
0.40348
21
-0.552723
0
LINE
8
BLACK
6
CONTINUOUS
10
0.40348
20
-0.552723
11
0.404029
21
-0.552443
0
LINE
8
BLACK
6
CONTINUOUS
10
0.404029
20
-0.552443
11
0.407561
21
-0.548911
0
LINE
8
BLACK
6
CONTINUOUS
10
0.407561
20
-0.548911
11
0.409829
21
-0.544461
0
LINE
8
BLACK
6
CONTINUOUS
10
0.409829
20
-0.544461
11
0.410413
21
-0.540768
0
LINE
8
BLACK
6
CONTINUOUS
10
0.410413
20
-0.540768
11
0.410413
21
-0.439468
0
LINE
8
BLACK
6
CONTINUOUS
10
0.410413
20
-0.439468
11
0.410365
21
-0.439164
0
LINE
8
BLACK
6
CONTINUOUS
10
0.410365
20
-0.439164
11
0.409925
21
-0.436385
0
LINE
8
BLACK
6
CONTINUOUS
10
0.409925
20
-0.436385
11
0.409925
21
-0.436384
0
LINE
8
BLACK
6
CONTINUOUS
10
0.409925
20
-0.436384
11
0.409829
21
-0.435775
0
LINE
8
BLACK
6
CONTINUOUS
10
0.409829
20
-0.435775
11
0.407561
21
-0.431325
0
LINE
8
BLACK
6
CONTINUOUS
10
0.407561
20
-0.431325
11
0.404029
21
-0.427793
0
LINE
8
BLACK
6
CONTINUOUS
10
0.404029
20
-0.427793
11
0.40288
21
-0.427208
0
LINE
8
BLACK
6
CONTINUOUS
10
0.40288
20
-0.427208
11
0.400204
21
-0.424973
0
LINE
8
BLACK
6
CONTINUOUS
10
0.400204
20
-0.424973
11
0.398762
21
-0.421799
0
LINE
8
BLACK
6
CONTINUOUS
10
0.398762
20
-0.421799
11
0.398602
21
-0.420227
0
LINE
8
BLACK
6
CONTINUOUS
10
0.398602
20
-0.420227
11
0.398602
21
-0.299888
0
LINE
8
BLACK
6
CONTINUOUS
10
0.398602
20
-0.299888
11
0.399378
21
-0.296489
0
LINE
8
BLACK
6
CONTINUOUS
10
0.399378
20
-0.296489
11
0.400897
21
-0.294348
0
LINE
8
BLACK
6
CONTINUOUS
10
0.400897
20
-0.294348
11
0.451986
21
-0.243259
0
LINE
8
BLACK
6
CONTINUOUS
10
0.451986
20
-0.243259
11
0.454938
21
-0.241404
0
LINE
8
BLACK
6
CONTINUOUS
10
0.454938
20
-0.241404
11
0.457526
21
-0.240965
0
LINE
8
BLACK
6
CONTINUOUS
10
0.457526
20
-0.240965
11
0.640112
21
-0.240965
0
LINE
8
BLACK
6
CONTINUOUS
10
0.640112
20
-0.240965
11
0.643511
21
-0.24174
0
LINE
8
BLACK
6
CONTINUOUS
10
0.643511
20
-0.24174
11
0.645652
21
-0.243259
0
LINE
8
BLACK
6
CONTINUOUS
10
0.645652
20
-0.243259
11
0.694142
21
-0.29175
0
LINE
8
BLACK
6
CONTINUOUS
10
0.694142
20
-0.29175
11
0.695997
21
-0.294702
0
LINE
8
BLACK
6
CONTINUOUS
10
0.695997
20
-0.294702
11
0.696437
21
-0.29729
0
LINE
8
BLACK
6
CONTINUOUS
10
0.696437
20
-0.29729
11
0.696437
21
-0.297851
0
LINE
8
BLACK
6
CONTINUOUS
10
0.696437
20
-0.297851
11
0.695661
21
-0.30125
0
LINE
8
BLACK
6
CONTINUOUS
10
0.695661
20
-0.30125
11
0.695188
21
-0.302095
0
LINE
8
BLACK
6
CONTINUOUS
10
0.695188
20
-0.302095
11
0.691671
21
-0.307552
0
LINE
8
BLACK
6
CONTINUOUS
10
0.691671
20
-0.307552
11
0.689253
21
-0.314196
0
LINE
8
BLACK
6
CONTINUOUS
10
0.689253
20
-0.314196
11
0.689198
21
-0.31463
0
LINE
8
BLACK
6
CONTINUOUS
10
0.689198
20
-0.31463
11
0.689198
21
-0.31463
0
LINE
8
BLACK
6
CONTINUOUS
10
0.689198
20
-0.31463
11
0.688931
21
-0.316743
0
LINE
8
BLACK
6
CONTINUOUS
10
0.688931
20
-0.316743
11
0.688367
21
-0.321211
0
LINE
8
BLACK
6
CONTINUOUS
10
0.688367
20
-0.321211
11
0.688409
21
-0.321647
0
LINE
8
BLACK
6
CONTINUOUS
10
0.688409
20
-0.321647
11
0.688409
21
-0.321647
0
LINE
8
BLACK
6
CONTINUOUS
10
0.688409
20
-0.321647
11
0.688473
21
-0.322293
0
LINE
8
BLACK
6
CONTINUOUS
10
0.688473
20
-0.322293
11
0.689057
21
-0.328247
0
LINE
8
BLACK
6
CONTINUOUS
10
0.689057
20
-0.328247
11
0.691288
21
-0.334957
0
LINE
8
BLACK
6
CONTINUOUS
10
0.691288
20
-0.334957
11
0.694951
21
-0.341004
0
LINE
8
BLACK
6
CONTINUOUS
10
0.694951
20
-0.341004
11
0.699863
21
-0.346091
0
LINE
8
BLACK
6
CONTINUOUS
10
0.699863
20
-0.346091
11
0.705779
21
-0.349962
0
LINE
8
BLACK
6
CONTINUOUS
10
0.705779
20
-0.349962
11
0.70619
21
-0.350115
0
LINE
8
BLACK
6
CONTINUOUS
10
0.70619
20
-0.350115
11
0.711995
21
-0.352274
0
LINE
8
BLACK
6
CONTINUOUS
10
0.711995
20
-0.352274
11
0.711996
21
-0.352274
0
LINE
8
BLACK
6
CONTINUOUS
10
0.711996
20
-0.352274
11
0.712406
21
-0.352427
0
LINE
8
BLACK
6
CONTINUOUS
10
0.712406
20
-0.352427
11
0.71284
21
-0.352485
0
LINE
8
BLACK
6
CONTINUOUS
10
0.71284
20
-0.352485
11
0.71284
21
-0.352485
0
LINE
8
BLACK
6
CONTINUOUS
10
0.71284
20
-0.352485
11
0.717499
21
-0.353106
0
LINE
8
BLACK
6
CONTINUOUS
10
0.717499
20
-0.353106
11
0.719415
21
-0.353362
0
LINE
8
BLACK
6
CONTINUOUS
10
0.719415
20
-0.353362
11
0.719851
21
-0.353322
0
LINE
8
BLACK
6
CONTINUOUS
10
0.719851
20
-0.353322
11
0.72602
21
-0.352761
0
LINE
8
BLACK
6
CONTINUOUS
10
0.72602
20
-0.352761
11
0.72602
21
-0.352761
0
LINE
8
BLACK
6
CONTINUOUS
10
0.72602
20
-0.352761
11
0.726456
21
-0.352721
0
LINE
8
BLACK
6
CONTINUOUS
10
0.726456
20
-0.352721
11
0.729818
21
-0.351629
0
LINE
8
BLACK
6
CONTINUOUS
10
0.729818
20
-0.351629
11
0.732764
21
-0.350671
0
LINE
8
BLACK
6
CONTINUOUS
10
0.732764
20
-0.350671
11
0.732764
21
-0.350671
0
LINE
8
BLACK
6
CONTINUOUS
10
0.732764
20
-0.350671
11
0.73318
21
-0.350536
0
LINE
8
BLACK
6
CONTINUOUS
10
0.73318
20
-0.350536
11
0.73441
21
-0.349803
0
LINE
8
BLACK
6
CONTINUOUS
10
0.73441
20
-0.349803
11
0.738878
21
-0.34714
0
LINE
8
BLACK
6
CONTINUOUS
10
0.738878
20
-0.34714
11
0.738878
21
-0.34714
0
LINE
8
BLACK
6
CONTINUOUS
10
0.738878
20
-0.34714
11
0.739254
21
-0.346916
0
LINE
8
BLACK
6
CONTINUOUS
10
0.739254
20
-0.346916
11
0.744374
21
-0.34204
0
LINE
8
BLACK
6
CONTINUOUS
10
0.744374
20
-0.34204
11
0.745062
21
-0.341004
0
LINE
8
BLACK
6
CONTINUOUS
10
0.745062
20
-0.341004
11
0.748044
21
-0.336515
0
LINE
8
BLACK
6
CONTINUOUS
10
0.748044
20
-0.336515
11
0.748287
21
-0.33615
0
LINE
8
BLACK
6
CONTINUOUS
10
0.748287
20
-0.33615
11
0.750798
21
-0.329541
0
LINE
8
BLACK
6
CONTINUOUS
10
0.750798
20
-0.329541
11
0.751782
21
-0.322539
0
LINE
8
BLACK
6
CONTINUOUS
10
0.751782
20
-0.322539
11
0.751794
21
-0.321654
0
LINE
8
BLACK
6
CONTINUOUS
10
0.751794
20
-0.321654
11
0.751766
21
-0.321409
0
LINE
8
BLACK
6
CONTINUOUS
10
0.751766
20
-0.321409
11
0.751055
21
-0.315063
0
LINE
8
BLACK
6
CONTINUOUS
10
0.751055
20
-0.315063
11
0.751055
21
-0.315062
0
LINE
8
BLACK
6
CONTINUOUS
10
0.751055
20
-0.315062
11
0.751006
21
-0.314627
0
LINE
8
BLACK
6
CONTINUOUS
10
0.751006
20
-0.314627
11
0.750712
21
-0.313785
0
LINE
8
BLACK
6
CONTINUOUS
10
0.750712
20
-0.313785
11
0.748825
21
-0.308364
0
LINE
8
BLACK
6
CONTINUOUS
10
0.748825
20
-0.308364
11
0.748681
21
-0.30795
0
LINE
8
BLACK
6
CONTINUOUS
10
0.748681
20
-0.30795
11
0.744934
21
-0.301954
0
LINE
8
BLACK
6
CONTINUOUS
10
0.744934
20
-0.301954
11
0.745052
21
-0.30188
0
LINE
8
BLACK
6
CONTINUOUS
10
0.745052
20
-0.30188
11
0.743912
21
-0.299494
0
LINE
8
BLACK
6
CONTINUOUS
10
0.743912
20
-0.299494
11
0.74372
21
-0.297773
0
LINE
8
BLACK
6
CONTINUOUS
10
0.74372
20
-0.297773
11
0.74372
21
-0.286315
0
LINE
8
BLACK
6
CONTINUOUS
10
0.74372
20
-0.286315
11
0.743788
21
-0.285293
0
LINE
8
BLACK
6
CONTINUOUS
10
0.743788
20
-0.285293
11
0.743857
21
-0.284761
0
LINE
8
BLACK
6
CONTINUOUS
10
0.743857
20
-0.284761
11
0.743857
21
-0.284761
0
LINE
8
BLACK
6
CONTINUOUS
10
0.743857
20
-0.284761
11
0.743924
21
-0.284252
0
LINE
8
BLACK
6
CONTINUOUS
10
0.743924
20
-0.284252
11
0.743112
21
-0.27808
0
LINE
8
BLACK
6
CONTINUOUS
10
0.743112
20
-0.27808
11
0.74073
21
-0.272329
0
LINE
8
BLACK
6
CONTINUOUS
10
0.74073
20
-0.272329
11
0.737892
21
-0.268631
0
LINE
8
BLACK
6
CONTINUOUS
10
0.737892
20
-0.268631
11
0.737892
21
-0.26863
0
LINE
8
BLACK
6
CONTINUOUS
10
0.737892
20
-0.26863
11
0.737253
21
-0.267798
0
LINE
8
BLACK
6
CONTINUOUS
10
0.737253
20
-0.267798
11
0.737253
21
-0.267798
0
LINE
8
BLACK
6
CONTINUOUS
10
0.737253
20
-0.267798
11
0.73694
21
-0.26739
0
LINE
8
BLACK
6
CONTINUOUS
10
0.73694
20
-0.26739
11
0.736107
21
-0.266751
0
LINE
8
BLACK
6
CONTINUOUS
10
0.736107
20
-0.266751
11
0.735337
21
-0.266076
0
LINE
8
BLACK
6
CONTINUOUS
10
0.735337
20
-0.266076
11
0.671326
21
-0.202065
0
LINE
8
BLACK
6
CONTINUOUS
10
0.671326
20
-0.202065
11
0.67065
21
-0.201294
0
LINE
8
BLACK
6
CONTINUOUS
10
0.67065
20
-0.201294
11
0.670011
21
-0.200461
0
LINE
8
BLACK
6
CONTINUOUS
10
0.670011
20
-0.200461
11
0.665072
21
-0.196672
0
LINE
8
BLACK
6
CONTINUOUS
10
0.665072
20
-0.196672
11
0.659796
21
-0.194486
0
LINE
8
BLACK
6
CONTINUOUS
10
0.659796
20
-0.194486
11
0.659796
21
-0.194486
0
LINE
8
BLACK
6
CONTINUOUS
10
0.659796
20
-0.194486
11
0.659321
21
-0.19429
0
LINE
8
BLACK
6
CONTINUOUS
10
0.659321
20
-0.19429
11
0.654699
21
-0.193681
0
LINE
8
BLACK
6
CONTINUOUS
10
0.654699
20
-0.193681
11
0.653659
21
-0.193544
0
LINE
8
BLACK
6
CONTINUOUS
10
0.653659
20
-0.193544
11
0.65315
21
-0.193477
0
LINE
8
BLACK
6
CONTINUOUS
10
0.65315
20
-0.193477
11
0.652641
21
-0.193544
0
LINE
8
BLACK
6
CONTINUOUS
10
0.652641
20
-0.193544
11
0.65264
21
-0.193544
0
LINE
8
BLACK
6
CONTINUOUS
10
0.65264
20
-0.193544
11
0.652109
21
-0.193614
0
LINE
8
BLACK
6
CONTINUOUS
10
0.652109
20
-0.193614
11
0.651086
21
-0.193681
0
LINE
8
BLACK
6
CONTINUOUS
10
0.651086
20
-0.193681
11
0.446551
21
-0.193681
0
LINE
8
BLACK
6
CONTINUOUS
10
0.446551
20
-0.193681
11
0.445529
21
-0.193614
0
LINE
8
BLACK
6
CONTINUOUS
10
0.445529
20
-0.193614
11
0.444997
21
-0.193544
0
LINE
8
BLACK
6
CONTINUOUS
10
0.444997
20
-0.193544
11
0.444997
21
-0.193544
0
LINE
8
BLACK
6
CONTINUOUS
10
0.444997
20
-0.193544
11
0.444488
21
-0.193477
0
LINE
8
BLACK
6
CONTINUOUS
10
0.444488
20
-0.193477
11
0.443979
21
-0.193544
0
LINE
8
BLACK
6
CONTINUOUS
10
0.443979
20
-0.193544
11
0.442939
21
-0.193681
0
LINE
8
BLACK
6
CONTINUOUS
10
0.442939
20
-0.193681
11
0.438316
21
-0.19429
0
LINE
8
BLACK
6
CONTINUOUS
10
0.438316
20
-0.19429
11
0.432565
21
-0.196672
0
LINE
8
BLACK
6
CONTINUOUS
10
0.432565
20
-0.196672
11
0.427627
21
-0.200461
0
LINE
8
BLACK
6
CONTINUOUS
10
0.427627
20
-0.200461
11
0.426988
21
-0.201294
0
LINE
8
BLACK
6
CONTINUOUS
10
0.426988
20
-0.201294
11
0.426312
21
-0.202065
0
LINE
8
BLACK
6
CONTINUOUS
10
0.426312
20
-0.202065
11
0.359702
21
-0.268674
0
LINE
8
BLACK
6
CONTINUOUS
10
0.359702
20
-0.268674
11
0.358932
21
-0.26935
0
LINE
8
BLACK
6
CONTINUOUS
10
0.358932
20
-0.26935
11
0.358099
21
-0.269989
0
LINE
8
BLACK
6
CONTINUOUS
10
0.358099
20
-0.269989
11
0.35431
21
-0.274928
0
LINE
8
BLACK
6
CONTINUOUS
10
0.35431
20
-0.274928
11
0.351927
21
-0.280679
0
LINE
8
BLACK
6
CONTINUOUS
10
0.351927
20
-0.280679
11
0.351115
21
-0.28685
0
LINE
8
BLACK
6
CONTINUOUS
10
0.351115
20
-0.28685
11
0.351182
21
-0.287359
0
LINE
8
BLACK
6
CONTINUOUS
10
0.351182
20
-0.287359
11
0.351182
21
-0.28736
0
LINE
8
BLACK
6
CONTINUOUS
10
0.351182
20
-0.28736
11
0.351252
21
-0.287891
0
LINE
8
BLACK
6
CONTINUOUS
10
0.351252
20
-0.287891
11
0.351319
21
-0.288914
0
LINE
8
BLACK
6
CONTINUOUS
10
0.351319
20
-0.288914
11
0.351319
21
-0.420227
0
LINE
8
BLACK
6
CONTINUOUS
10
0.351319
20
-0.420227
11
0.350543
21
-0.423626
0
LINE
8
BLACK
6
CONTINUOUS
10
0.350543
20
-0.423626
11
0.348369
21
-0.426352
0
LINE
8
BLACK
6
CONTINUOUS
10
0.348369
20
-0.426352
11
0.347041
21
-0.427208
0
LINE
8
BLACK
6
CONTINUOUS
10
0.347041
20
-0.427208
11
0.345892
21
-0.427793
0
LINE
8
BLACK
6
CONTINUOUS
10
0.345892
20
-0.427793
11
0.34236
21
-0.431325
0
LINE
8
BLACK
6
CONTINUOUS
10
0.34236
20
-0.431325
11
0.340093
21
-0.435775
0
LINE
8
BLACK
6
CONTINUOUS
10
0.340093
20
-0.435775
11
0.339508
21
-0.439468
0
LINE
8
BLACK
6
CONTINUOUS
10
0.339508
20
-0.439468
11
0.339508
21
-0.540768
0
LINE
8
BLACK
6
CONTINUOUS
10
0.339508
20
-0.540768
11
0.339556
21
-0.541072
0
LINE
8
BLACK
6
CONTINUOUS
10
-0.0823031
20
-0.224252
11
-0.0618898
21
-0.224252
0
LINE
8
BLACK
6
CONTINUOUS
10
-0.0618898
20
-0.224252
11
-0.0618898
21
-0.204252
0
LINE
8
BLACK
6
CONTINUOUS
10
-0.0618898
20
-0.204252
11
-0.0418898
21
-0.204252
0
LINE
8
BLACK
6
CONTINUOUS
10
-0.0418898
20
-0.204252
11
-0.0418898
21
-0.184269
0
LINE
8
BLACK
6
CONTINUOUS
10
-0.0418898
20
-0.184269
11
-0.0420602
21
-0.183522
0
LINE
8
BLACK
6
CONTINUOUS
10
-0.0420602
20
-0.183522
11
-0.0423425
21
-0.183386
0
LINE
8
BLACK
6
CONTINUOUS
10
-0.0423425
20
-0.183386
11
-0.0632746
21
-0.183386
0
LINE
8
BLACK
6
CONTINUOUS
10
-0.0632746
20
-0.183386
11
-0.0637453
21
-0.183414
0
LINE
8
BLACK
6
CONTINUOUS
10
-0.0637453
20
-0.183414
11
-0.0664143
21
-0.183737
0
LINE
8
BLACK
6
CONTINUOUS
10
-0.0664143
20
-0.183737
11
-0.0673817
21
-0.183983
0
LINE
8
BLACK
6
CONTINUOUS
10
-0.0673817
20
-0.183983
11
-0.0717329
21
-0.185706
0
LINE
8
BLACK
6
CONTINUOUS
10
-0.0717329
20
-0.185706
11
-0.0726547
21
-0.186225
0
LINE
8
BLACK
6
CONTINUOUS
10
-0.0726547
20
-0.186225
11
-0.0763578
21
-0.189036
0
LINE
8
BLACK
6
CONTINUOUS
10
-0.0763578
20
-0.189036
11
-0.0771059
21
-0.189784
0
LINE
8
BLACK
6
CONTINUOUS
10
-0.0771059
20
-0.189784
11
-0.0799167
21
-0.193487
0
LINE
8
BLACK
6
CONTINUOUS
10
-0.0799167
20
-0.193487
11
-0.0804361
21
-0.194409
0
LINE
8
BLACK
6
CONTINUOUS
10
-0.0804361
20
-0.194409
11
-0.0821589
21
-0.19876
0
LINE
8
BLACK
6
CONTINUOUS
10
-0.0821589
20
-0.19876
11
-0.0824045
21
-0.199727
0
LINE
8
BLACK
6
CONTINUOUS
10
-0.0824045
20
-0.199727
11
-0.0827276
21
-0.202396
0
LINE
8
BLACK
6
CONTINUOUS
10
-0.0827276
20
-0.202396
11
-0.0827559
21
-0.202867
0
LINE
8
BLACK
6
CONTINUOUS
10
-0.0827559
20
-0.202867
11
-0.0827559
21
-0.223369
0
LINE
8
BLACK
6
CONTINUOUS
10
-0.0827559
20
-0.223369
11
-0.0825854
21
-0.224116
0
LINE
8
BLACK
6
CONTINUOUS
10
-0.0825854
20
-0.224116
11
-0.0823031
21
-0.224252
0
LINE
8
BLACK
6
CONTINUOUS
10
0.594646
20
-0.539528
11
0.564521
21
-0.539528
0
LINE
8
BLACK
6
CONTINUOUS
10
0.564521
20
-0.539528
11
0.463826
21
-0.640223
0
LINE
8
BLACK
6
CONTINUOUS
10
0.463826
20
-0.640223
11
0.462711
21
-0.640921
0
LINE
8
BLACK
6
CONTINUOUS
10
0.462711
20
-0.640921
11
0.461682
21
-0.641741
0
LINE
8
BLACK
6
CONTINUOUS
10
0.461682
20
-0.641741
11
0.461241
21
-0.641841
0
LINE
8
BLACK
6
CONTINUOUS
10
0.461241
20
-0.641841
11
0.460857
21
-0.642082
0
LINE
8
BLACK
6
CONTINUOUS
10
0.460857
20
-0.642082
11
0.45955
21
-0.642227
0
LINE
8
BLACK
6
CONTINUOUS
10
0.45955
20
-0.642227
11
0.458268
21
-0.64252
0
LINE
8
BLACK
6
CONTINUOUS
10
0.458268
20
-0.64252
11
0.231555
21
-0.64252
0
LINE
8
BLACK
6
CONTINUOUS
10
0.231555
20
-0.64252
11
0.230851
21
-0.643902
0
LINE
8
BLACK
6
CONTINUOUS
10
0.230851
20
-0.643902
11
0.227367
21
-0.647386
0
LINE
8
BLACK
6
CONTINUOUS
10
0.227367
20
-0.647386
11
0.222977
21
-0.649623
0
LINE
8
BLACK
6
CONTINUOUS
10
0.222977
20
-0.649623
11
0.21811
21
-0.650394
0
LINE
8
BLACK
6
CONTINUOUS
10
0.21811
20
-0.650394
11
0.213244
21
-0.649623
0
LINE
8
BLACK
6
CONTINUOUS
10
0.213244
20
-0.649623
11
0.208854
21
-0.647386
0
LINE
8
BLACK
6
CONTINUOUS
10
0.208854
20
-0.647386
11
0.20537
21
-0.643902
0
LINE
8
BLACK
6
CONTINUOUS
10
0.20537
20
-0.643902
11
0.203133
21
-0.639512
0
LINE
8
BLACK
6
CONTINUOUS
10
0.203133
20
-0.639512
11
0.202362
21
-0.634646
0
LINE
8
BLACK
6
CONTINUOUS
10
0.202362
20
-0.634646
11
0.203133
21
-0.629779
0
LINE
8
BLACK
6
CONTINUOUS
10
0.203133
20
-0.629779
11
0.20537
21
-0.625389
0
LINE
8
BLACK
6
CONTINUOUS
10
0.20537
20
-0.625389
11
0.208854
21
-0.621905
0
LINE
8
BLACK
6
CONTINUOUS
10
0.208854
20
-0.621905
11
0.213244
21
-0.619668
0
LINE
8
BLACK
6
CONTINUOUS
10
0.213244
20
-0.619668
11
0.21811
21
-0.618898
0
LINE
8
BLACK
6
CONTINUOUS
10
0.21811
20
-0.618898
11
0.222977
21
-0.619668
0
LINE
8
BLACK
6
CONTINUOUS
10
0.222977
20
-0.619668
11
0.227367
21
-0.621905
0
LINE
8
BLACK
6
CONTINUOUS
10
0.227367
20
-0.621905
11
0.230851
21
-0.625389
0
LINE
8
BLACK
6
CONTINUOUS
10
0.230851
20
-0.625389
11
0.231555
21
-0.626772
0
LINE
8
BLACK
6
CONTINUOUS
10
0.231555
20
-0.626772
11
0.455006
21
-0.626772
0
LINE
8
BLACK
6
CONTINUOUS
10
0.455006
20
-0.626772
11
0.555276
21
-0.526502
0
LINE
8
BLACK
6
CONTINUOUS
10
0.555276
20
-0.526502
11
0.555276
21
-0.440709
0
LINE
8
BLACK
6
CONTINUOUS
10
0.555276
20
-0.440709
11
0.594646
21
-0.440709
0
LINE
8
BLACK
6
CONTINUOUS
10
0.594646
20
-0.440709
11
0.594646
21
-0.539528
0
LINE
8
BLACK
6
CONTINUOUS
10
0.654445
20
-0.209744
11
0.655752
21
-0.209891
0
LINE
8
BLACK
6
CONTINUOUS
10
0.655752
20
-0.209891
11
0.656135
21
-0.210132
0
LINE
8
BLACK
6
CONTINUOUS
10
0.656135
20
-0.210132
11
0.656577
21
-0.210234
0
LINE
8
BLACK
6
CONTINUOUS
10
0.656577
20
-0.210234
11
0.657604
21
-0.211055
0
LINE
8
BLACK
6
CONTINUOUS
10
0.657604
20
-0.211055
11
0.658717
21
-0.211755
0
LINE
8
BLACK
6
CONTINUOUS
10
0.658717
20
-0.211755
11
0.725656
21
-0.278694
0
LINE
8
BLACK
6
CONTINUOUS
10
0.725656
20
-0.278694
11
0.726354
21
-0.279809
0
LINE
8
BLACK
6
CONTINUOUS
10
0.726354
20
-0.279809
11
0.727174
21
-0.280837
0
LINE
8
BLACK
6
CONTINUOUS
10
0.727174
20
-0.280837
11
0.727274
21
-0.281279
0
LINE
8
BLACK
6
CONTINUOUS
10
0.727274
20
-0.281279
11
0.727515
21
-0.281662
0
LINE
8
BLACK
6
CONTINUOUS
10
0.727515
20
-0.281662
11
0.72766
21
-0.28297
0
LINE
8
BLACK
6
CONTINUOUS
10
0.72766
20
-0.28297
11
0.727953
21
-0.284252
0
LINE
8
BLACK
6
CONTINUOUS
10
0.727953
20
-0.284252
11
0.727953
21
-0.308209
0
LINE
8
BLACK
6
CONTINUOUS
10
0.727953
20
-0.308209
11
0.729335
21
-0.308913
0
LINE
8
BLACK
6
CONTINUOUS
10
0.729335
20
-0.308913
11
0.732819
21
-0.312397
0
LINE
8
BLACK
6
CONTINUOUS
10
0.732819
20
-0.312397
11
0.735056
21
-0.316787
0
LINE
8
BLACK
6
CONTINUOUS
10
0.735056
20
-0.316787
11
0.735827
21
-0.321654
0
LINE
8
BLACK
6
CONTINUOUS
10
0.735827
20
-0.321654
11
0.735056
21
-0.32652
0
LINE
8
BLACK
6
CONTINUOUS
10
0.735056
20
-0.32652
11
0.732819
21
-0.33091
0
LINE
8
BLACK
6
CONTINUOUS
10
0.732819
20
-0.33091
11
0.729335
21
-0.334394
0
LINE
8
BLACK
6
CONTINUOUS
10
0.729335
20
-0.334394
11
0.724945
21
-0.336631
0
LINE
8
BLACK
6
CONTINUOUS
10
0.724945
20
-0.336631
11
0.720079
21
-0.337402
0
LINE
8
BLACK
6
CONTINUOUS
10
0.720079
20
-0.337402
11
0.715212
21
-0.336631
0
LINE
8
BLACK
6
CONTINUOUS
10
0.715212
20
-0.336631
11
0.710822
21
-0.334394
0
LINE
8
BLACK
6
CONTINUOUS
10
0.710822
20
-0.334394
11
0.707338
21
-0.33091
0
LINE
8
BLACK
6
CONTINUOUS
10
0.707338
20
-0.33091
11
0.705101
21
-0.32652
0
LINE
8
BLACK
6
CONTINUOUS
10
0.705101
20
-0.32652
11
0.704331
21
-0.321654
0
LINE
8
BLACK
6
CONTINUOUS
10
0.704331
20
-0.321654
11
0.705101
21
-0.316787
0
LINE
8
BLACK
6
CONTINUOUS
10
0.705101
20
-0.316787
11
0.707338
21
-0.312397
0
LINE
8
BLACK
6
CONTINUOUS
10
0.707338
20
-0.312397
11
0.710822
21
-0.308913
0
LINE
8
BLACK
6
CONTINUOUS
10
0.710822
20
-0.308913
11
0.712205
21
-0.308209
0
LINE
8
BLACK
6
CONTINUOUS
10
0.712205
20
-0.308209
11
0.712205
21
-0.287513
0
LINE
8
BLACK
6
CONTINUOUS
10
0.712205
20
-0.287513
11
0.649888
21
-0.225197
0
LINE
8
BLACK
6
CONTINUOUS
10
0.649888
20
-0.225197
11
0.44775
21
-0.225197
0
LINE
8
BLACK
6
CONTINUOUS
10
0.44775
20
-0.225197
11
0.382835
21
-0.290112
0
LINE
8
BLACK
6
CONTINUOUS
10
0.382835
20
-0.290112
11
0.382835
21
-0.440709
0
LINE
8
BLACK
6
CONTINUOUS
10
0.382835
20
-0.440709
11
0.394646
21
-0.440709
0
LINE
8
BLACK
6
CONTINUOUS
10
0.394646
20
-0.440709
11
0.394646
21
-0.539528
0
LINE
8
BLACK
6
CONTINUOUS
10
0.394646
20
-0.539528
11
0.355276
21
-0.539528
0
LINE
8
BLACK
6
CONTINUOUS
10
0.355276
20
-0.539528
11
0.355276
21
-0.440709
0
LINE
8
BLACK
6
CONTINUOUS
10
0.355276
20
-0.440709
11
0.367087
21
-0.440709
0
LINE
8
BLACK
6
CONTINUOUS
10
0.367087
20
-0.440709
11
0.367087
21
-0.286837
0
LINE
8
BLACK
6
CONTINUOUS
10
0.367087
20
-0.286837
11
0.367381
21
-0.285555
0
LINE
8
BLACK
6
CONTINUOUS
10
0.367381
20
-0.285555
11
0.367529
21
-0.284248
0
LINE
8
BLACK
6
CONTINUOUS
10
0.367529
20
-0.284248
11
0.36777
21
-0.283865
0
LINE
8
BLACK
6
CONTINUOUS
10
0.36777
20
-0.283865
11
0.367871
21
-0.283423
0
LINE
8
BLACK
6
CONTINUOUS
10
0.367871
20
-0.283423
11
0.368693
21
-0.282396
0
LINE
8
BLACK
6
CONTINUOUS
10
0.368693
20
-0.282396
11
0.369393
21
-0.281283
0
LINE
8
BLACK
6
CONTINUOUS
10
0.369393
20
-0.281283
11
0.43893
21
-0.211745
0
LINE
8
BLACK
6
CONTINUOUS
10
0.43893
20
-0.211745
11
0.440045
21
-0.211047
0
LINE
8
BLACK
6
CONTINUOUS
10
0.440045
20
-0.211047
11
0.441074
21
-0.210228
0
LINE
8
BLACK
6
CONTINUOUS
10
0.441074
20
-0.210228
11
0.441515
21
-0.210127
0
LINE
8
BLACK
6
CONTINUOUS
10
0.441515
20
-0.210127
11
0.441899
21
-0.209887
0
LINE
8
BLACK
6
CONTINUOUS
10
0.441899
20
-0.209887
11
0.443206
21
-0.209741
0
LINE
8
BLACK
6
CONTINUOUS
10
0.443206
20
-0.209741
11
0.444488
21
-0.209449
0
LINE
8
BLACK
6
CONTINUOUS
10
0.444488
20
-0.209449
11
0.653163
21
-0.209449
0
LINE
8
BLACK
6
CONTINUOUS
10
0.653163
20
-0.209449
11
0.654445
21
-0.209744
0
LINE
8
BLACK
6
CONTINUOUS
10
-0.00188976
20
-0.364252
11
-0.0618898
21
-0.364252
0
LINE
8
BLACK
6
CONTINUOUS
10
-0.0618898
20
-0.364252
11
-0.0618898
21
-0.304252
0
LINE
8
BLACK
6
CONTINUOUS
10
-0.0618898
20
-0.304252
11
-0.00188976
21
-0.304252
0
LINE
8
BLACK
6
CONTINUOUS
10
-0.00188976
20
-0.304252
11
-0.00188976
21
-0.364252
0
CIRCLE
8
BLACK
10
0.720079
20
-0.321654
40
0.00787402
0
CIRCLE
8
BLACK
10
0.21811
20
-0.634646
40
0.00787402
  0
ENDSEC
  0
EOF
