<!DOCTYPE svg PUBLIC "-//W3C//DTD SVG 1.1//EN" "http://www.w3.org/Graphics/SVG/1.1/DTD/svg11.dtd">
<svg xmlns="http://www.w3.org/2000/svg" version="1.1" width="60.392mm" height="40.072mm" viewBox="1397340.0 666040.0 603920.0 400720.0">
            <title>Picture generated by PcbDraw </title>
            <desc>Picture generated by PcbDraw</desc>
        <defs><clipPath id="cut-off"><path d=" M 1950760.0 1016260.0 L 1950760.0 716540.0 L 1447840.0 716540.0 L 1447840.0 1016260.0 L 1950760.0 1016260.0 " style="fill-rule: evenodd;"/></clipPath><mask id="pads-mask"><g style="fill:#ffffff; fill-opacity:0.0;  stroke:#ffffff; stroke-width:0.000000; stroke-opacity:1;  stroke-linecap:round; stroke-linejoin:round;">
<g style="fill:#ffffff; fill-opacity:1.0;  stroke:#ffffff; stroke-width:0.010000; stroke-opacity:1;  stroke-linecap:round; stroke-linejoin:round;">
<circle cx="1496100.000000" cy="764800.000000" r="32000.000000"/> 
</g>
<g style="fill:#ffffff; fill-opacity:1.0;  stroke:#ffffff; stroke-width:0.010000; stroke-opacity:1;  stroke-linecap:round; stroke-linejoin:round;">
<circle cx="1902500.000000" cy="764800.000000" r="32000.000000"/> 
</g>
<g style="fill:#ffffff; fill-opacity:1.0;  stroke:#ffffff; stroke-width:0.010000; stroke-opacity:1;  stroke-linecap:round; stroke-linejoin:round;">
<path style="fill:#ffffff; fill-opacity:1.0;  stroke:#ffffff; stroke-width:0.010000; stroke-opacity:1;  stroke-linecap:round; stroke-linejoin:round;fill-rule:evenodd;" d="M 1586340.000000,903840.000000 1585574.630000,903687.760000 1584925.790000,903254.210000 1584492.240000,902605.370000 1584340.000000,901840.000000 1584340.000000,876740.000000 1584492.240000,875974.630000 1584925.790000,875325.790000 1585574.630000,874892.240000 1586340.000000,874740.000000 1596340.000000,874740.000000 1597105.370000,874892.240000 1597754.210000,875325.790000 1598187.760000,875974.630000 1598340.000000,876740.000000 1598340.000000,901840.000000 1598187.760000,902605.370000 1597754.210000,903254.210000 1597105.370000,903687.760000 1596340.000000,903840.000000 Z"/> 
<path style="fill:#ffffff; fill-opacity:1.0;  stroke:#ffffff; stroke-width:0.010000; stroke-opacity:1;  stroke-linecap:round; stroke-linejoin:round;fill-rule:evenodd;" d="M 1611740.000000,870740.000000 1610974.630000,870587.760000 1610325.790000,870154.210000 1609892.240000,869505.370000 1609740.000000,868740.000000 1609740.000000,843640.000000 1609892.240000,842874.630000 1610325.790000,842225.790000 1610974.630000,841792.240000 1611740.000000,841640.000000 1621740.000000,841640.000000 1622505.370000,841792.240000 1623154.210000,842225.790000 1623587.760000,842874.630000 1623740.000000,843640.000000 1623740.000000,868740.000000 1623587.760000,869505.370000 1623154.210000,870154.210000 1622505.370000,870587.760000 1621740.000000,870740.000000 Z"/> 
<path style="fill:#ffffff; fill-opacity:1.0;  stroke:#ffffff; stroke-width:0.010000; stroke-opacity:1;  stroke-linecap:round; stroke-linejoin:round;fill-rule:evenodd;" d="M 1637140.000000,903840.000000 1636374.630000,903687.760000 1635725.790000,903254.210000 1635292.240000,902605.370000 1635140.000000,901840.000000 1635140.000000,876740.000000 1635292.240000,875974.630000 1635725.790000,875325.790000 1636374.630000,874892.240000 1637140.000000,874740.000000 1647140.000000,874740.000000 1647905.370000,874892.240000 1648554.210000,875325.790000 1648987.760000,875974.630000 1649140.000000,876740.000000 1649140.000000,901840.000000 1648987.760000,902605.370000 1648554.210000,903254.210000 1647905.370000,903687.760000 1647140.000000,903840.000000 Z"/> 
</g>
<g style="fill:#ffffff; fill-opacity:1.0;  stroke:#ffffff; stroke-width:0.010000; stroke-opacity:1;  stroke-linecap:round; stroke-linejoin:round;">
<circle cx="1496100.000000" cy="968000.000000" r="32000.000000"/> 
</g>
<g style="fill:#ffffff; fill-opacity:1.0;  stroke:#ffffff; stroke-width:0.010000; stroke-opacity:1;  stroke-linecap:round; stroke-linejoin:round;">
<circle cx="1902500.000000" cy="968000.000000" r="32000.000000"/> 
</g>
<g style="fill:#ffffff; fill-opacity:1.0;  stroke:#ffffff; stroke-width:0.010000; stroke-opacity:1;  stroke-linecap:round; stroke-linejoin:round;">
<path style="fill:#ffffff; fill-opacity:1.0;  stroke:#ffffff; stroke-width:0.010000; stroke-opacity:1;  stroke-linecap:round; stroke-linejoin:round;fill-rule:evenodd;" d="M 1497620.000000,831920.000000 1497467.760000,832685.370000 1497034.210000,833334.210000 1496385.370000,833767.760000 1495620.000000,833920.000000 1480380.000000,833920.000000 1479614.630000,833767.760000 1478965.790000,833334.210000 1478532.240000,832685.370000 1478380.000000,831920.000000 1478380.000000,816680.000000 1478532.240000,815914.630000 1478965.790000,815265.790000 1479614.630000,814832.240000 1480380.000000,814680.000000 1495620.000000,814680.000000 1496385.370000,814832.240000 1497034.210000,815265.790000 1497467.760000,815914.630000 1497620.000000,816680.000000 Z"/> 
<path style="fill:#ffffff; fill-opacity:1.0;  stroke:#ffffff; stroke-width:0.010000; stroke-opacity:1;  stroke-linecap:round; stroke-linejoin:round;fill-rule:evenodd;" d="M 1497620.000000,857320.000000 1497467.760000,858085.370000 1497034.210000,858734.210000 1496385.370000,859167.760000 1495620.000000,859320.000000 1480380.000000,859320.000000 1479614.630000,859167.760000 1478965.790000,858734.210000 1478532.240000,858085.370000 1478380.000000,857320.000000 1478380.000000,842080.000000 1478532.240000,841314.630000 1478965.790000,840665.790000 1479614.630000,840232.240000 1480380.000000,840080.000000 1495620.000000,840080.000000 1496385.370000,840232.240000 1497034.210000,840665.790000 1497467.760000,841314.630000 1497620.000000,842080.000000 Z"/> 
</g>
</g> 
</mask><mask id="pads-mask-silkscreen"><rect x="1447340.0" y="716040.0" width="503920.0" height="300720.0" fill="white"/><g style="fill:#000000; fill-opacity:0.0;  stroke:#000000; stroke-width:0.000000; stroke-opacity:1;  stroke-linecap:round; stroke-linejoin:round;">
<g style="fill:#000000; fill-opacity:1.0;  stroke:#000000; stroke-width:0.010000; stroke-opacity:1;  stroke-linecap:round; stroke-linejoin:round;">
<circle cx="1496100.000000" cy="764800.000000" r="32000.000000"/> 
</g>
<g style="fill:#000000; fill-opacity:1.0;  stroke:#000000; stroke-width:0.010000; stroke-opacity:1;  stroke-linecap:round; stroke-linejoin:round;">
<circle cx="1902500.000000" cy="764800.000000" r="32000.000000"/> 
</g>
<g style="fill:#000000; fill-opacity:1.0;  stroke:#000000; stroke-width:0.010000; stroke-opacity:1;  stroke-linecap:round; stroke-linejoin:round;">
<path style="fill:#000000; fill-opacity:1.0;  stroke:#000000; stroke-width:0.010000; stroke-opacity:1;  stroke-linecap:round; stroke-linejoin:round;fill-rule:evenodd;" d="M 1586340.000000,903840.000000 1585574.630000,903687.760000 1584925.790000,903254.210000 1584492.240000,902605.370000 1584340.000000,901840.000000 1584340.000000,876740.000000 1584492.240000,875974.630000 1584925.790000,875325.790000 1585574.630000,874892.240000 1586340.000000,874740.000000 1596340.000000,874740.000000 1597105.370000,874892.240000 1597754.210000,875325.790000 1598187.760000,875974.630000 1598340.000000,876740.000000 1598340.000000,901840.000000 1598187.760000,902605.370000 1597754.210000,903254.210000 1597105.370000,903687.760000 1596340.000000,903840.000000 Z"/> 
<path style="fill:#000000; fill-opacity:1.0;  stroke:#000000; stroke-width:0.010000; stroke-opacity:1;  stroke-linecap:round; stroke-linejoin:round;fill-rule:evenodd;" d="M 1611740.000000,870740.000000 1610974.630000,870587.760000 1610325.790000,870154.210000 1609892.240000,869505.370000 1609740.000000,868740.000000 1609740.000000,843640.000000 1609892.240000,842874.630000 1610325.790000,842225.790000 1610974.630000,841792.240000 1611740.000000,841640.000000 1621740.000000,841640.000000 1622505.370000,841792.240000 1623154.210000,842225.790000 1623587.760000,842874.630000 1623740.000000,843640.000000 1623740.000000,868740.000000 1623587.760000,869505.370000 1623154.210000,870154.210000 1622505.370000,870587.760000 1621740.000000,870740.000000 Z"/> 
<path style="fill:#000000; fill-opacity:1.0;  stroke:#000000; stroke-width:0.010000; stroke-opacity:1;  stroke-linecap:round; stroke-linejoin:round;fill-rule:evenodd;" d="M 1637140.000000,903840.000000 1636374.630000,903687.760000 1635725.790000,903254.210000 1635292.240000,902605.370000 1635140.000000,901840.000000 1635140.000000,876740.000000 1635292.240000,875974.630000 1635725.790000,875325.790000 1636374.630000,874892.240000 1637140.000000,874740.000000 1647140.000000,874740.000000 1647905.370000,874892.240000 1648554.210000,875325.790000 1648987.760000,875974.630000 1649140.000000,876740.000000 1649140.000000,901840.000000 1648987.760000,902605.370000 1648554.210000,903254.210000 1647905.370000,903687.760000 1647140.000000,903840.000000 Z"/> 
</g>
<g style="fill:#000000; fill-opacity:1.0;  stroke:#000000; stroke-width:0.010000; stroke-opacity:1;  stroke-linecap:round; stroke-linejoin:round;">
<circle cx="1496100.000000" cy="968000.000000" r="32000.000000"/> 
</g>
<g style="fill:#000000; fill-opacity:1.0;  stroke:#000000; stroke-width:0.010000; stroke-opacity:1;  stroke-linecap:round; stroke-linejoin:round;">
<circle cx="1902500.000000" cy="968000.000000" r="32000.000000"/> 
</g>
<g style="fill:#000000; fill-opacity:1.0;  stroke:#000000; stroke-width:0.010000; stroke-opacity:1;  stroke-linecap:round; stroke-linejoin:round;">
<path style="fill:#000000; fill-opacity:1.0;  stroke:#000000; stroke-width:0.010000; stroke-opacity:1;  stroke-linecap:round; stroke-linejoin:round;fill-rule:evenodd;" d="M 1497620.000000,831920.000000 1497467.760000,832685.370000 1497034.210000,833334.210000 1496385.370000,833767.760000 1495620.000000,833920.000000 1480380.000000,833920.000000 1479614.630000,833767.760000 1478965.790000,833334.210000 1478532.240000,832685.370000 1478380.000000,831920.000000 1478380.000000,816680.000000 1478532.240000,815914.630000 1478965.790000,815265.790000 1479614.630000,814832.240000 1480380.000000,814680.000000 1495620.000000,814680.000000 1496385.370000,814832.240000 1497034.210000,815265.790000 1497467.760000,815914.630000 1497620.000000,816680.000000 Z"/> 
<path style="fill:#000000; fill-opacity:1.0;  stroke:#000000; stroke-width:0.010000; stroke-opacity:1;  stroke-linecap:round; stroke-linejoin:round;fill-rule:evenodd;" d="M 1497620.000000,857320.000000 1497467.760000,858085.370000 1497034.210000,858734.210000 1496385.370000,859167.760000 1495620.000000,859320.000000 1480380.000000,859320.000000 1479614.630000,859167.760000 1478965.790000,858734.210000 1478532.240000,858085.370000 1478380.000000,857320.000000 1478380.000000,842080.000000 1478532.240000,841314.630000 1478965.790000,840665.790000 1479614.630000,840232.240000 1480380.000000,840080.000000 1495620.000000,840080.000000 1496385.370000,840232.240000 1497034.210000,840665.790000 1497467.760000,841314.630000 1497620.000000,842080.000000 Z"/> 
</g>
</g> 
</mask><mask id="hole-mask"><g><rect x="1447340.0" y="716040.0" fill="white" width="503920.0" height="300720.0"/><polyline stroke-linecap="round" stroke="black" stroke-width="30000.0" points="-0.0 0 0.0 0" transform="translate(1496100.0 764800.0) rotate(-0.0)"/><polyline stroke-linecap="round" stroke="black" stroke-width="30000.0" points="-0.0 0 0.0 0" transform="translate(1902500.0 764800.0) rotate(-0.0)"/><polyline stroke-linecap="round" stroke="black" stroke-width="30000.0" points="-0.0 0 0.0 0" transform="translate(1496100.0 968000.0) rotate(-0.0)"/><polyline stroke-linecap="round" stroke="black" stroke-width="30000.0" points="-0.0 0 0.0 0" transform="translate(1902500.0 968000.0) rotate(-0.0)"/><polyline stroke-linecap="round" stroke="black" stroke-width="8890.0" points="-0.0 0 0.0 0" transform="translate(1488000.0 824300.0) rotate(-180.0)"/><polyline stroke-linecap="round" stroke="black" stroke-width="8890.0" points="-0.0 0 0.0 0" transform="translate(1488000.0 849700.0) rotate(-180.0)"/><polyline stroke-linecap="round" stroke="black" stroke-width="4000.0" points="-0.0 0 0.0 0" transform="translate(1679000.0 846500.0) rotate(0)"/><polyline stroke-linecap="round" stroke="black" stroke-width="4000.0" points="-0.0 0 0.0 0" transform="translate(1551500.0 926000.0) rotate(0)"/></g></mask></defs><g transform="" id="boardContainer"><g id="substrate" clip-path="url(#cut-off)" mask="url(#hole-mask)"><g id="substrate-board" style="fill:#f1f4f3; stroke:#f1f4f3;"><path d=" M 1950760.0 1016260.0 L 1950760.0 716540.0 L 1447840.0 716540.0 L 1447840.0 1016260.0 L 1950760.0 1016260.0 " style="fill-rule: evenodd;"/><g style="fill-opacity: 0.0;stroke-width: 1000.000000;stroke-opacity: 1;stroke-linecap: round;stroke-linejoin: round">
<path d="M1447840 1016260 L1950760 1016260 "/>
<path d="M1447840 716540 L1950760 716540 "/>
<path d="M1950760 716540 L1950760 1016260 "/>
<path d="M1447840 1016260 L1447840 716540 "/>
</g> 
</g><g id="substrate-clad" style="fill:#72786c; stroke:#72786c;"><g style="fill-opacity: 0.0;stroke-width: 0.000000;stroke-opacity: 1;stroke-linecap: round;stroke-linejoin: round">
<g style="fill-opacity: 1.0;stroke-width: 0.010000;stroke-opacity: 1;stroke-linecap: round;stroke-linejoin: round">
<circle cx="1496100.000000" cy="764800.000000" r="32000.000000"/> 
</g>
<g style="fill-opacity: 1.0;stroke-width: 0.010000;stroke-opacity: 1;stroke-linecap: round;stroke-linejoin: round">
<circle cx="1902500.000000" cy="764800.000000" r="32000.000000"/> 
</g>
<g style="fill-opacity: 1.0;stroke-width: 0.010000;stroke-opacity: 1;stroke-linecap: round;stroke-linejoin: round">
<path style="fill-opacity: 1.0;stroke-width: 0.010000;stroke-opacity: 1;stroke-linecap: round;stroke-linejoin: round;fill-rule: evenodd" d="M 1586340.000000,903840.000000 1585574.630000,903687.760000 1584925.790000,903254.210000 1584492.240000,902605.370000 1584340.000000,901840.000000 1584340.000000,876740.000000 1584492.240000,875974.630000 1584925.790000,875325.790000 1585574.630000,874892.240000 1586340.000000,874740.000000 1596340.000000,874740.000000 1597105.370000,874892.240000 1597754.210000,875325.790000 1598187.760000,875974.630000 1598340.000000,876740.000000 1598340.000000,901840.000000 1598187.760000,902605.370000 1597754.210000,903254.210000 1597105.370000,903687.760000 1596340.000000,903840.000000 Z"/> 
<path style="fill-opacity: 1.0;stroke-width: 0.010000;stroke-opacity: 1;stroke-linecap: round;stroke-linejoin: round;fill-rule: evenodd" d="M 1611740.000000,870740.000000 1610974.630000,870587.760000 1610325.790000,870154.210000 1609892.240000,869505.370000 1609740.000000,868740.000000 1609740.000000,843640.000000 1609892.240000,842874.630000 1610325.790000,842225.790000 1610974.630000,841792.240000 1611740.000000,841640.000000 1621740.000000,841640.000000 1622505.370000,841792.240000 1623154.210000,842225.790000 1623587.760000,842874.630000 1623740.000000,843640.000000 1623740.000000,868740.000000 1623587.760000,869505.370000 1623154.210000,870154.210000 1622505.370000,870587.760000 1621740.000000,870740.000000 Z"/> 
<path style="fill-opacity: 1.0;stroke-width: 0.010000;stroke-opacity: 1;stroke-linecap: round;stroke-linejoin: round;fill-rule: evenodd" d="M 1637140.000000,903840.000000 1636374.630000,903687.760000 1635725.790000,903254.210000 1635292.240000,902605.370000 1635140.000000,901840.000000 1635140.000000,876740.000000 1635292.240000,875974.630000 1635725.790000,875325.790000 1636374.630000,874892.240000 1637140.000000,874740.000000 1647140.000000,874740.000000 1647905.370000,874892.240000 1648554.210000,875325.790000 1648987.760000,875974.630000 1649140.000000,876740.000000 1649140.000000,901840.000000 1648987.760000,902605.370000 1648554.210000,903254.210000 1647905.370000,903687.760000 1647140.000000,903840.000000 Z"/> 
</g>
<g style="fill-opacity: 1.0;stroke-width: 0.010000;stroke-opacity: 1;stroke-linecap: round;stroke-linejoin: round">
<circle cx="1496100.000000" cy="968000.000000" r="32000.000000"/> 
</g>
<g style="fill-opacity: 1.0;stroke-width: 0.010000;stroke-opacity: 1;stroke-linecap: round;stroke-linejoin: round">
<circle cx="1902500.000000" cy="968000.000000" r="32000.000000"/> 
</g>
<g style="fill-opacity: 1.0;stroke-width: 0.010000;stroke-opacity: 1;stroke-linecap: round;stroke-linejoin: round">
<path style="fill-opacity: 1.0;stroke-width: 0.010000;stroke-opacity: 1;stroke-linecap: round;stroke-linejoin: round;fill-rule: evenodd" d="M 1497620.000000,831920.000000 1497467.760000,832685.370000 1497034.210000,833334.210000 1496385.370000,833767.760000 1495620.000000,833920.000000 1480380.000000,833920.000000 1479614.630000,833767.760000 1478965.790000,833334.210000 1478532.240000,832685.370000 1478380.000000,831920.000000 1478380.000000,816680.000000 1478532.240000,815914.630000 1478965.790000,815265.790000 1479614.630000,814832.240000 1480380.000000,814680.000000 1495620.000000,814680.000000 1496385.370000,814832.240000 1497034.210000,815265.790000 1497467.760000,815914.630000 1497620.000000,816680.000000 Z"/> 
<path style="fill-opacity: 1.0;stroke-width: 0.010000;stroke-opacity: 1;stroke-linecap: round;stroke-linejoin: round;fill-rule: evenodd" d="M 1497620.000000,857320.000000 1497467.760000,858085.370000 1497034.210000,858734.210000 1496385.370000,859167.760000 1495620.000000,859320.000000 1480380.000000,859320.000000 1479614.630000,859167.760000 1478965.790000,858734.210000 1478532.240000,858085.370000 1478380.000000,857320.000000 1478380.000000,842080.000000 1478532.240000,841314.630000 1478965.790000,840665.790000 1479614.630000,840232.240000 1480380.000000,840080.000000 1495620.000000,840080.000000 1496385.370000,840232.240000 1497034.210000,840665.790000 1497467.760000,841314.630000 1497620.000000,842080.000000 Z"/> 
</g>
</g> 
</g><g id="substrate-copper" style="fill:#f8f8f7; stroke:#f8f8f7;"><g style="fill-opacity: 0.0;stroke-width: 3000.000000;stroke-opacity: 1;stroke-linecap: round;stroke-linejoin: round">
<text x="1572740.000000" y="1002240.000000" textLength="61042.860000" font-size="20000.000000" lengthAdjust="spacingAndGlyphs" text-anchor="middle" opacity="0">MLAB</text>
<g class="stroked-text"><desc>MLAB</desc>
<path d="M1547740 1001525 L1547740 986525 L1552740 997240 L1557740 986525 L1557740 1001525 "/>
<path d="M1572025 1001525 L1564882 1001525 L1564882 986525 "/>
<path d="M1576311 997240 L1583454 997240 "/>
<path d="M1574882 1001525 L1579882 986525 L1584882 1001525 "/>
<path d="M1594882 993668 L1597025 994382 L1597740 995097 L1598454 996525 L1598454 998668 L1597740 1000097 L1597025 1000811 L1595597 1001525 L1589882 1001525 L1589882 986525 L1594882 986525 L1596311 987240 L1597025 987954 L1597740 989382 L1597740 990811 L1597025 992240 L1596311 992954 L1594882 993668 L1589882 993668 "/>
</g><g style="fill-opacity: 1.0;stroke-width: 0.010000;stroke-opacity: 1;stroke-linecap: round;stroke-linejoin: round">
<circle cx="1496100.000000" cy="764800.000000" r="30000.000000"/> 
</g>
<g style="fill-opacity: 1.0;stroke-width: 0.010000;stroke-opacity: 1;stroke-linecap: round;stroke-linejoin: round">
<circle cx="1902500.000000" cy="764800.000000" r="30000.000000"/> 
</g>
<g style="fill-opacity: 1.0;stroke-width: 0.010000;stroke-opacity: 1;stroke-linecap: round;stroke-linejoin: round">
<path style="fill-opacity: 1.0;stroke-width: 0.010000;stroke-opacity: 1;stroke-linecap: round;stroke-linejoin: round;fill-rule: evenodd" d="M 1596340.000000,901840.000000 1586340.000000,901840.000000 1586340.000000,876740.000000 1596340.000000,876740.000000 Z"/> 
<path style="fill-opacity: 1.0;stroke-width: 0.010000;stroke-opacity: 1;stroke-linecap: round;stroke-linejoin: round;fill-rule: evenodd" d="M 1621740.000000,868740.000000 1611740.000000,868740.000000 1611740.000000,843640.000000 1621740.000000,843640.000000 Z"/> 
<path style="fill-opacity: 1.0;stroke-width: 0.010000;stroke-opacity: 1;stroke-linecap: round;stroke-linejoin: round;fill-rule: evenodd" d="M 1647140.000000,901840.000000 1637140.000000,901840.000000 1637140.000000,876740.000000 1647140.000000,876740.000000 Z"/> 
</g>
<g style="fill-opacity: 1.0;stroke-width: 0.010000;stroke-opacity: 1;stroke-linecap: round;stroke-linejoin: round">
<circle cx="1496100.000000" cy="968000.000000" r="30000.000000"/> 
</g>
<g style="fill-opacity: 1.0;stroke-width: 0.010000;stroke-opacity: 1;stroke-linecap: round;stroke-linejoin: round">
<circle cx="1902500.000000" cy="968000.000000" r="30000.000000"/> 
</g>
<g style="fill-opacity: 1.0;stroke-width: 0.010000;stroke-opacity: 1;stroke-linecap: round;stroke-linejoin: round">
<path style="fill-opacity: 1.0;stroke-width: 0.010000;stroke-opacity: 1;stroke-linecap: round;stroke-linejoin: round;fill-rule: evenodd" d="M 1495620.000000,816680.000000 1495620.000000,831920.000000 1480380.000000,831920.000000 1480380.000000,816680.000000 Z"/> 
<path style="fill-opacity: 1.0;stroke-width: 0.010000;stroke-opacity: 1;stroke-linecap: round;stroke-linejoin: round;fill-rule: evenodd" d="M 1495620.000000,842080.000000 1495620.000000,857320.000000 1480380.000000,857320.000000 1480380.000000,842080.000000 Z"/> 
</g>
<g style="fill-opacity: 1.0;stroke-width: 0.010000;stroke-opacity: 1;stroke-linecap: round;stroke-linejoin: round">
<circle cx="1679000.000000" cy="846500.000000" r="4000.000000"/> 
</g>
<g style="fill-opacity: 1.0;stroke-width: 0.010000;stroke-opacity: 1;stroke-linecap: round;stroke-linejoin: round">
<circle cx="1551500.000000" cy="926000.000000" r="4000.000000"/> 
</g>
<g style="fill-opacity: 0.0;stroke-width: 4000.000000;stroke-opacity: 1;stroke-linecap: round;stroke-linejoin: round">
<path d="M1589050 887000 L1591340 889290 "/>
<path d="M1679000 837000 L1679000 846500 "/>
<path d="M1591340 837660 L1609000 820000 "/>
<path d="M1591340 889290 L1591340 837660 "/>
<path d="M1662000 820000 L1679000 837000 "/>
<path d="M1609000 820000 L1662000 820000 "/>
<path d="M1642140 889290 L1642140 896360 "/>
<path d="M1612500 926000 L1551500 926000 "/>
<path d="M1642140 889290 L1644716 886714 "/>
<path d="M1642140 896360 L1612500 926000 "/>
</g>
<g style="fill-opacity: 0.0;stroke-width: 4000.000000;stroke-opacity: 1;stroke-linecap: round;stroke-linejoin: round">
<g style="fill-opacity: 1.0;stroke-width: 0.010000;stroke-opacity: 1;stroke-linecap: round;stroke-linejoin: round">
<path style="fill-opacity: 1.0;stroke-width: 0.010000;stroke-opacity: 1;stroke-linecap: round;stroke-linejoin: round;fill-rule: evenodd" d="M 1945628.430000,720742.070000 1946320.840000,721294.260000 1946705.110000,722092.180000 1946755.000000,722535.000000 1946755.000000,1010265.000000 1946557.930000,1011128.430000 1946005.740000,1011820.840000 1945207.820000,1012205.110000 1944765.000000,1012255.000000 1608806.430000,1012255.000000 1607943.000000,1012057.930000 1607250.590000,1011505.740000 1606866.320000,1010707.820000 1606816.430000,1010265.000000 1606816.430000,976410.000000 1538663.570000,976410.000000 1538663.570000,1010265.000000 1538466.500000,1011128.430000 1537914.310000,1011820.840000 1537116.390000,1012205.110000 1536673.570000,1012255.000000 1453835.000000,1012255.000000 1452971.570000,1012057.930000 1452279.160000,1011505.740000 1451894.890000,1010707.820000 1451845.000000,1010265.000000 1451845.000000,925887.530000 1543445.140000,925887.530000 1543620.390000,927674.860000 1544187.260000,929378.960000 1545117.590000,930915.120000 1546365.140000,932206.990000 1547867.890000,933190.360000 1547972.140000,933229.130000 1549446.850000,933777.570000 1549446.870000,933777.570000 1549551.160000,933816.360000 1549661.430000,933831.070000 1549661.460000,933831.080000 1550844.860000,933988.980000 1551331.300000,934053.880000 1551442.070000,934043.800000 1553008.960000,933901.210000 1553008.980000,933901.210000 1553119.810000,933891.120000 1553973.820000,933613.630000 1554721.960000,933370.550000 1554721.990000,933370.540000 1554827.820000,933336.150000 1555072.390000,933190.360000 1556274.850000,932473.560000 1556274.890000,932473.530000 1556370.440000,932416.570000 1556394.390000,932393.760000 1557165.570000,932044.860000 1557561.850000,932005.000000 1611975.920000,932005.000000 1612235.670000,932022.030000 1612370.650000,932039.800000 1612370.720000,932039.800000 1612500.000000,932056.820000 1612764.260000,932022.030000 1612893.610000,932005.000000 1614067.620000,931850.440000 1615528.410000,931245.360000 1616782.820000,930282.820000 1616945.170000,930071.250000 1617116.740000,929875.610000 1640564.490000,906427.860000 1641314.370000,905956.670000 1641971.630000,905845.000000 1646909.050000,905844.990000 1647455.180000,905844.990000 1647532.310000,905832.770000 1647532.370000,905832.770000 1648238.310000,905720.970000 1648238.340000,905720.960000 1648393.040000,905696.460000 1648532.600000,905625.350000 1648532.630000,905625.340000 1649383.880000,905191.600000 1649523.420000,905120.500000 1650420.500000,904223.420000 1650996.460000,903093.040000 1651145.000000,902155.190000 1651144.990000,876424.820000 1651132.750000,876347.530000 1651020.970000,875641.690000 1651020.960000,875641.660000 1650996.460000,875486.960000 1650420.500000,874356.580000 1649523.420000,873459.500000 1648393.040000,872883.540000 1647455.190000,872735.000000 1647376.950000,872735.000000 1642136.270000,872735.010000 1636824.820000,872735.010000 1636747.690000,872747.230000 1636747.630000,872747.230000 1636041.690000,872859.030000 1636041.660000,872859.040000 1635886.960000,872883.540000 1635747.400000,872954.650000 1635747.370000,872954.660000 1635474.830000,873093.530000 1634756.580000,873459.500000 1633859.500000,874356.580000 1633283.540000,875486.960000 1633135.000000,876424.810000 1633135.000000,876503.050000 1633135.010000,896048.360000 1632937.940000,896911.790000 1632552.150000,897455.500000 1610595.510000,919412.140000 1609845.630000,919883.330000 1609188.370000,919995.000000 1557556.140000,919995.000000 1556692.710000,919797.930000 1556489.840000,919685.210000 1555125.340000,918819.270000 1555125.330000,918819.260000 1555031.360000,918759.630000 1554141.090000,918442.620000 1553444.360000,918194.520000 1553444.320000,918194.510000 1553339.510000,918157.190000 1553229.040000,918144.020000 1553229.010000,918144.010000 1551666.710000,917957.720000 1551666.690000,917957.720000 1551556.240000,917944.550000 1549770.170000,918132.270000 1549664.820000,918168.130000 1549664.790000,918168.140000 1548880.350000,918435.190000 1548070.070000,918711.030000 1547126.510000,919291.510000 1546635.210000,919593.760000 1546635.190000,919593.770000 1546540.450000,919652.060000 1545257.320000,920908.590000 1544284.460000,922418.170000 1543670.220000,924105.780000 1543445.140000,925887.530000 1451845.000000,925887.530000 1451845.000000,876424.810000 1582335.000000,876424.810000 1582335.010000,902155.180000 1582347.230000,902232.310000 1582347.230000,902232.370000 1582459.030000,902938.310000 1582459.040000,902938.340000 1582483.540000,903093.040000 1583059.500000,904223.420000 1583956.580000,905120.500000 1585086.960000,905696.460000 1586024.810000,905845.000000 1586103.050000,905845.000000 1591343.730000,905844.990000 1596655.180000,905844.990000 1596732.310000,905832.770000 1596732.370000,905832.770000 1597438.310000,905720.970000 1597438.340000,905720.960000 1597593.040000,905696.460000 1597732.600000,905625.350000 1597732.630000,905625.340000 1598583.880000,905191.600000 1598723.420000,905120.500000 1599620.500000,904223.420000 1600196.460000,903093.040000 1600345.000000,902155.190000 1600344.990000,876424.820000 1600332.750000,876347.530000 1600220.970000,875641.690000 1600220.960000,875641.660000 1600196.460000,875486.960000 1599620.500000,874356.580000 1598723.420000,873459.500000 1598431.560000,873310.790000 1597751.710000,872743.210000 1597385.450000,871936.860000 1597345.000000,871537.690000 1597345.000000,869091.760000 1606440.000000,869091.760000 1606447.200000,869211.300000 1606529.250000,869889.240000 1606591.650000,870134.940000 1607029.220000,871240.150000 1607161.150000,871474.290000 1607875.100000,872414.870000 1608065.130000,872604.900000 1609005.710000,873318.850000 1609239.850000,873450.780000 1610345.060000,873888.350000 1610590.760000,873950.750000 1611268.700000,874032.800000 1611388.240000,874040.000000 1613975.770000,874040.000000 1614165.470000,873996.700000 1614200.000000,873925.000000 1614200.000000,873815.770000 1619280.000000,873815.770000 1619323.300000,874005.470000 1619395.000000,874040.000000 1622091.760000,874040.000000 1622211.300000,874032.800000 1622889.240000,873950.750000 1623134.940000,873888.350000 1624240.150000,873450.780000 1624474.290000,873318.850000 1625414.870000,872604.900000 1625604.900000,872414.870000 1626318.850000,871474.290000 1626450.780000,871240.150000 1626888.350000,870134.940000 1626950.750000,869889.240000 1627032.800000,869211.300000 1627040.000000,869091.760000 1627040.000000,858954.230000 1626996.700000,858764.530000 1626925.000000,858730.000000 1619504.230000,858730.000000 1619314.530000,858773.300000 1619280.000000,858845.000000 1619280.000000,873815.770000 1614200.000000,873815.770000 1614200.000000,858954.230000 1614156.700000,858764.530000 1614085.000000,858730.000000 1606664.230000,858730.000000 1606474.530000,858773.300000 1606440.000000,858845.000000 1606440.000000,869091.760000 1597345.000000,869091.760000 1597345.000000,853425.770000 1606440.000000,853425.770000 1606483.300000,853615.470000 1606555.000000,853650.000000 1613975.770000,853650.000000 1614165.470000,853606.700000 1614200.000000,853535.000000 1614200.000000,853425.770000 1619280.000000,853425.770000 1619323.300000,853615.470000 1619395.000000,853650.000000 1626815.770000,853650.000000 1627005.470000,853606.700000 1627040.000000,853535.000000 1627040.000000,843288.240000 1627032.800000,843168.700000 1626950.750000,842490.760000 1626888.350000,842245.060000 1626450.780000,841139.850000 1626318.850000,840905.710000 1625604.900000,839965.130000 1625414.870000,839775.100000 1624474.290000,839061.150000 1624240.150000,838929.220000 1623134.940000,838491.650000 1622889.240000,838429.250000 1622211.300000,838347.200000 1622091.760000,838340.000000 1619504.230000,838340.000000 1619314.530000,838383.300000 1619280.000000,838455.000000 1619280.000000,853425.770000 1614200.000000,853425.770000 1614200.000000,838564.230000 1614156.700000,838374.530000 1614085.000000,838340.000000 1611388.240000,838340.000000 1611268.700000,838347.200000 1610590.760000,838429.250000 1610345.060000,838491.650000 1609239.850000,838929.220000 1609005.710000,839061.150000 1608065.130000,839775.100000 1607875.100000,839965.130000 1607161.150000,840905.710000 1607029.220000,841139.850000 1606591.650000,842245.060000 1606529.250000,842490.760000 1606447.200000,843168.700000 1606440.000000,843288.240000 1606440.000000,853425.770000 1597345.000000,853425.770000 1597345.000000,840971.630000 1597542.070000,840108.200000 1597927.860000,839564.490000 1610904.490000,826587.860000 1611654.370000,826116.670000 1612311.630000,826005.000000 1658688.370000,826005.000000 1659551.800000,826202.070000 1660095.510000,826587.860000 1672412.140000,838904.490000 1672883.330000,839654.370000 1672995.000000,840311.630000 1672995.000000,840454.090000 1672797.930000,841317.520000 1672677.730000,841532.080000 1671784.460000,842918.170000 1671170.220000,844605.780000 1671156.280000,844716.110000 1671156.280000,844716.120000 1671088.500000,845252.690000 1670945.140000,846387.530000 1670956.000000,846498.290000 1670956.000000,846498.300000 1670972.100000,846662.440000 1671120.390000,848174.860000 1671687.260000,849878.960000 1672617.590000,851415.120000 1673865.140000,852706.990000 1675367.890000,853690.360000 1675472.140000,853729.130000 1676946.850000,854277.570000 1676946.870000,854277.570000 1677051.160000,854316.360000 1677161.430000,854331.070000 1677161.460000,854331.080000 1678344.860000,854488.980000 1678831.300000,854553.880000 1678942.070000,854543.800000 1680508.960000,854401.210000 1680508.980000,854401.210000 1680619.810000,854391.120000 1681473.810000,854113.640000 1682221.960000,853870.550000 1682221.990000,853870.540000 1682327.820000,853836.150000 1682640.090000,853650.000000 1683774.890000,852973.530000 1683774.900000,852973.520000 1683870.440000,852916.570000 1685170.990000,851678.070000 1685345.700000,851415.120000 1686103.250000,850274.900000 1686164.830000,850182.220000 1686802.570000,848503.360000 1687052.510000,846724.930000 1687055.650000,846500.000000 1687048.690000,846437.940000 1686867.870000,844825.880000 1686867.860000,844825.840000 1686855.460000,844715.280000 1686780.940000,844501.270000 1686301.450000,843124.370000 1686264.850000,843019.270000 1685313.160000,841496.250000 1685343.200000,841477.480000 1685053.580000,840871.430000 1685005.000000,840434.430000 1685005.000000,837524.080000 1685022.030000,837264.330000 1685039.800000,837129.350000 1685039.800000,837129.280000 1685056.820000,837000.000000 1684850.440000,835432.380000 1684245.360000,833971.590000 1683524.500000,833032.150000 1683524.470000,833032.110000 1683362.220000,832820.650000 1683362.190000,832820.620000 1683282.820000,832717.180000 1683071.250000,832554.830000 1682875.610000,832383.260000 1666616.740000,816124.390000 1666445.170000,815928.750000 1666282.820000,815717.180000 1665028.410000,814754.640000 1663688.140000,814199.480000 1663688.100000,814199.460000 1663567.620000,814149.560000 1662393.610000,813995.000000 1662129.280000,813960.200000 1662000.000000,813943.180000 1661870.720000,813960.200000 1661870.650000,813960.200000 1661735.670000,813977.970000 1661475.920000,813995.000000 1609524.080000,813995.000000 1609264.330000,813977.970000 1609129.350000,813960.200000 1609129.280000,813960.200000 1609000.000000,813943.180000 1608870.720000,813960.200000 1608606.390000,813995.000000 1607432.380000,814149.560000 1605971.590000,814754.640000 1604717.180000,815717.180000 1604554.830000,815928.750000 1604383.260000,816124.390000 1587464.390000,833043.260000 1587268.750000,833214.830000 1587057.180000,833377.180000 1586094.640000,834631.590000 1585489.560000,836092.380000 1585283.180000,837660.000000 1585300.200000,837789.280000 1585300.200000,837789.350000 1585317.970000,837924.330000 1585335.000000,838184.080000 1585335.000000,871537.690000 1585137.930000,872401.120000 1584585.740000,873093.530000 1584248.450000,873310.790000 1583956.580000,873459.500000 1583059.500000,874356.580000 1582483.540000,875486.960000 1582335.000000,876424.810000 1451845.000000,876424.810000 1451845.000000,832271.760000 1475080.000000,832271.760000 1475087.200000,832391.300000 1475169.250000,833069.240000 1475231.650000,833314.940000 1475669.220000,834420.150000 1475801.150000,834654.290000 1476515.100000,835594.870000 1476705.130000,835784.900000 1477336.060000,836263.810000 1477904.660000,836942.820000 1478122.330000,837801.290000 1477945.970000,838669.180000 1477540.040000,839256.040000 1477099.500000,839696.580000 1476523.540000,840826.960000 1476375.000000,841764.810000 1476375.010000,857635.180000 1476387.230000,857712.310000 1476387.230000,857712.370000 1476499.030000,858418.310000 1476499.040000,858418.340000 1476523.540000,858573.040000 1476594.650000,858712.600000 1476594.660000,858712.630000 1477028.400000,859563.880000 1477099.500000,859703.420000 1477996.580000,860600.500000 1479126.960000,861176.460000 1480064.810000,861325.000000 1480143.050000,861325.000000 1488005.580000,861324.990000 1495935.180000,861324.990000 1496012.310000,861312.770000 1496012.370000,861312.770000 1496718.310000,861200.970000 1496718.340000,861200.960000 1496873.040000,861176.460000 1497012.600000,861105.350000 1497012.630000,861105.340000 1497863.880000,860671.600000 1498003.420000,860600.500000 1498900.500000,859703.420000 1499476.460000,858573.040000 1499625.000000,857635.190000 1499624.990000,841764.820000 1499612.750000,841687.530000 1499500.970000,840981.690000 1499500.960000,840981.660000 1499476.460000,840826.960000 1499286.480000,840454.090000 1498971.600000,839836.120000 1498900.500000,839696.580000 1498459.960000,839256.040000 1497988.770000,838506.160000 1497889.610000,837626.090000 1498182.120000,836790.160000 1498663.940000,836263.810000 1499294.870000,835784.900000 1499484.900000,835594.870000 1500198.850000,834654.290000 1500330.780000,834420.150000 1500768.350000,833314.940000 1500830.750000,833069.240000 1500912.800000,832391.300000 1500920.000000,832271.760000 1500920.000000,827064.230000 1500876.700000,826874.530000 1500805.000000,826840.000000 1475304.230000,826840.000000 1475114.530000,826883.300000 1475080.000000,826955.000000 1475080.000000,832271.760000 1451845.000000,832271.760000 1451845.000000,821535.770000 1475080.000000,821535.770000 1475123.300000,821725.470000 1475195.000000,821760.000000 1485235.770000,821760.000000 1485425.470000,821716.700000 1485460.000000,821645.000000 1485460.000000,821535.770000 1490540.000000,821535.770000 1490583.300000,821725.470000 1490655.000000,821760.000000 1500695.770000,821760.000000 1500885.470000,821716.700000 1500920.000000,821645.000000 1500920.000000,816328.240000 1500912.800000,816208.700000 1500830.750000,815530.760000 1500768.350000,815285.060000 1500330.780000,814179.850000 1500198.850000,813945.710000 1499484.900000,813005.130000 1499294.870000,812815.100000 1498354.290000,812101.150000 1498120.150000,811969.220000 1497014.940000,811531.650000 1496769.240000,811469.250000 1496091.300000,811387.200000 1495971.760000,811380.000000 1490764.230000,811380.000000 1490574.530000,811423.300000 1490540.000000,811495.000000 1490540.000000,821535.770000 1485460.000000,821535.770000 1485460.000000,811604.230000 1485416.700000,811414.530000 1485345.000000,811380.000000 1480028.240000,811380.000000 1479908.700000,811387.200000 1479230.760000,811469.250000 1478985.060000,811531.650000 1477879.850000,811969.220000 1477645.710000,812101.150000 1476705.130000,812815.100000 1476515.100000,813005.130000 1475801.150000,813945.710000 1475669.220000,814179.850000 1475231.650000,815285.060000 1475169.250000,815530.760000 1475087.200000,816208.700000 1475080.000000,816328.240000 1475080.000000,821535.770000 1451845.000000,821535.770000 1451845.000000,722535.000000 1452042.070000,721671.570000 1452594.260000,720979.160000 1453392.180000,720594.890000 1453835.000000,720545.000000 1944765.000000,720545.000000 Z"/> 
</g>
</g>
</g> 
</g><g id="substrate-pads" style="fill:#c4c1ba; stroke:#c4c1ba;" mask="url(#pads-mask)"><g style="fill-opacity: 0.0;stroke-width: 3000.000000;stroke-opacity: 1;stroke-linecap: round;stroke-linejoin: round">
<text x="1572740.000000" y="1002240.000000" textLength="61042.860000" font-size="20000.000000" lengthAdjust="spacingAndGlyphs" text-anchor="middle" opacity="0">MLAB</text>
<g class="stroked-text"><desc>MLAB</desc>
<path d="M1547740 1001525 L1547740 986525 L1552740 997240 L1557740 986525 L1557740 1001525 "/>
<path d="M1572025 1001525 L1564882 1001525 L1564882 986525 "/>
<path d="M1576311 997240 L1583454 997240 "/>
<path d="M1574882 1001525 L1579882 986525 L1584882 1001525 "/>
<path d="M1594882 993668 L1597025 994382 L1597740 995097 L1598454 996525 L1598454 998668 L1597740 1000097 L1597025 1000811 L1595597 1001525 L1589882 1001525 L1589882 986525 L1594882 986525 L1596311 987240 L1597025 987954 L1597740 989382 L1597740 990811 L1597025 992240 L1596311 992954 L1594882 993668 L1589882 993668 "/>
</g><g style="fill-opacity: 1.0;stroke-width: 0.010000;stroke-opacity: 1;stroke-linecap: round;stroke-linejoin: round">
<circle cx="1496100.000000" cy="764800.000000" r="30000.000000"/> 
</g>
<g style="fill-opacity: 1.0;stroke-width: 0.010000;stroke-opacity: 1;stroke-linecap: round;stroke-linejoin: round">
<circle cx="1902500.000000" cy="764800.000000" r="30000.000000"/> 
</g>
<g style="fill-opacity: 1.0;stroke-width: 0.010000;stroke-opacity: 1;stroke-linecap: round;stroke-linejoin: round">
<path style="fill-opacity: 1.0;stroke-width: 0.010000;stroke-opacity: 1;stroke-linecap: round;stroke-linejoin: round;fill-rule: evenodd" d="M 1596340.000000,901840.000000 1586340.000000,901840.000000 1586340.000000,876740.000000 1596340.000000,876740.000000 Z"/> 
<path style="fill-opacity: 1.0;stroke-width: 0.010000;stroke-opacity: 1;stroke-linecap: round;stroke-linejoin: round;fill-rule: evenodd" d="M 1621740.000000,868740.000000 1611740.000000,868740.000000 1611740.000000,843640.000000 1621740.000000,843640.000000 Z"/> 
<path style="fill-opacity: 1.0;stroke-width: 0.010000;stroke-opacity: 1;stroke-linecap: round;stroke-linejoin: round;fill-rule: evenodd" d="M 1647140.000000,901840.000000 1637140.000000,901840.000000 1637140.000000,876740.000000 1647140.000000,876740.000000 Z"/> 
</g>
<g style="fill-opacity: 1.0;stroke-width: 0.010000;stroke-opacity: 1;stroke-linecap: round;stroke-linejoin: round">
<circle cx="1496100.000000" cy="968000.000000" r="30000.000000"/> 
</g>
<g style="fill-opacity: 1.0;stroke-width: 0.010000;stroke-opacity: 1;stroke-linecap: round;stroke-linejoin: round">
<circle cx="1902500.000000" cy="968000.000000" r="30000.000000"/> 
</g>
<g style="fill-opacity: 1.0;stroke-width: 0.010000;stroke-opacity: 1;stroke-linecap: round;stroke-linejoin: round">
<path style="fill-opacity: 1.0;stroke-width: 0.010000;stroke-opacity: 1;stroke-linecap: round;stroke-linejoin: round;fill-rule: evenodd" d="M 1495620.000000,816680.000000 1495620.000000,831920.000000 1480380.000000,831920.000000 1480380.000000,816680.000000 Z"/> 
<path style="fill-opacity: 1.0;stroke-width: 0.010000;stroke-opacity: 1;stroke-linecap: round;stroke-linejoin: round;fill-rule: evenodd" d="M 1495620.000000,842080.000000 1495620.000000,857320.000000 1480380.000000,857320.000000 1480380.000000,842080.000000 Z"/> 
</g>
<g style="fill-opacity: 1.0;stroke-width: 0.010000;stroke-opacity: 1;stroke-linecap: round;stroke-linejoin: round">
<circle cx="1679000.000000" cy="846500.000000" r="4000.000000"/> 
</g>
<g style="fill-opacity: 1.0;stroke-width: 0.010000;stroke-opacity: 1;stroke-linecap: round;stroke-linejoin: round">
<circle cx="1551500.000000" cy="926000.000000" r="4000.000000"/> 
</g>
<g style="fill-opacity: 0.0;stroke-width: 4000.000000;stroke-opacity: 1;stroke-linecap: round;stroke-linejoin: round">
<path d="M1589050 887000 L1591340 889290 "/>
<path d="M1679000 837000 L1679000 846500 "/>
<path d="M1591340 837660 L1609000 820000 "/>
<path d="M1591340 889290 L1591340 837660 "/>
<path d="M1662000 820000 L1679000 837000 "/>
<path d="M1609000 820000 L1662000 820000 "/>
<path d="M1642140 889290 L1642140 896360 "/>
<path d="M1612500 926000 L1551500 926000 "/>
<path d="M1642140 889290 L1644716 886714 "/>
<path d="M1642140 896360 L1612500 926000 "/>
</g>
<g style="fill-opacity: 0.0;stroke-width: 4000.000000;stroke-opacity: 1;stroke-linecap: round;stroke-linejoin: round">
<g style="fill-opacity: 1.0;stroke-width: 0.010000;stroke-opacity: 1;stroke-linecap: round;stroke-linejoin: round">
<path style="fill-opacity: 1.0;stroke-width: 0.010000;stroke-opacity: 1;stroke-linecap: round;stroke-linejoin: round;fill-rule: evenodd" d="M 1945628.430000,720742.070000 1946320.840000,721294.260000 1946705.110000,722092.180000 1946755.000000,722535.000000 1946755.000000,1010265.000000 1946557.930000,1011128.430000 1946005.740000,1011820.840000 1945207.820000,1012205.110000 1944765.000000,1012255.000000 1608806.430000,1012255.000000 1607943.000000,1012057.930000 1607250.590000,1011505.740000 1606866.320000,1010707.820000 1606816.430000,1010265.000000 1606816.430000,976410.000000 1538663.570000,976410.000000 1538663.570000,1010265.000000 1538466.500000,1011128.430000 1537914.310000,1011820.840000 1537116.390000,1012205.110000 1536673.570000,1012255.000000 1453835.000000,1012255.000000 1452971.570000,1012057.930000 1452279.160000,1011505.740000 1451894.890000,1010707.820000 1451845.000000,1010265.000000 1451845.000000,925887.530000 1543445.140000,925887.530000 1543620.390000,927674.860000 1544187.260000,929378.960000 1545117.590000,930915.120000 1546365.140000,932206.990000 1547867.890000,933190.360000 1547972.140000,933229.130000 1549446.850000,933777.570000 1549446.870000,933777.570000 1549551.160000,933816.360000 1549661.430000,933831.070000 1549661.460000,933831.080000 1550844.860000,933988.980000 1551331.300000,934053.880000 1551442.070000,934043.800000 1553008.960000,933901.210000 1553008.980000,933901.210000 1553119.810000,933891.120000 1553973.820000,933613.630000 1554721.960000,933370.550000 1554721.990000,933370.540000 1554827.820000,933336.150000 1555072.390000,933190.360000 1556274.850000,932473.560000 1556274.890000,932473.530000 1556370.440000,932416.570000 1556394.390000,932393.760000 1557165.570000,932044.860000 1557561.850000,932005.000000 1611975.920000,932005.000000 1612235.670000,932022.030000 1612370.650000,932039.800000 1612370.720000,932039.800000 1612500.000000,932056.820000 1612764.260000,932022.030000 1612893.610000,932005.000000 1614067.620000,931850.440000 1615528.410000,931245.360000 1616782.820000,930282.820000 1616945.170000,930071.250000 1617116.740000,929875.610000 1640564.490000,906427.860000 1641314.370000,905956.670000 1641971.630000,905845.000000 1646909.050000,905844.990000 1647455.180000,905844.990000 1647532.310000,905832.770000 1647532.370000,905832.770000 1648238.310000,905720.970000 1648238.340000,905720.960000 1648393.040000,905696.460000 1648532.600000,905625.350000 1648532.630000,905625.340000 1649383.880000,905191.600000 1649523.420000,905120.500000 1650420.500000,904223.420000 1650996.460000,903093.040000 1651145.000000,902155.190000 1651144.990000,876424.820000 1651132.750000,876347.530000 1651020.970000,875641.690000 1651020.960000,875641.660000 1650996.460000,875486.960000 1650420.500000,874356.580000 1649523.420000,873459.500000 1648393.040000,872883.540000 1647455.190000,872735.000000 1647376.950000,872735.000000 1642136.270000,872735.010000 1636824.820000,872735.010000 1636747.690000,872747.230000 1636747.630000,872747.230000 1636041.690000,872859.030000 1636041.660000,872859.040000 1635886.960000,872883.540000 1635747.400000,872954.650000 1635747.370000,872954.660000 1635474.830000,873093.530000 1634756.580000,873459.500000 1633859.500000,874356.580000 1633283.540000,875486.960000 1633135.000000,876424.810000 1633135.000000,876503.050000 1633135.010000,896048.360000 1632937.940000,896911.790000 1632552.150000,897455.500000 1610595.510000,919412.140000 1609845.630000,919883.330000 1609188.370000,919995.000000 1557556.140000,919995.000000 1556692.710000,919797.930000 1556489.840000,919685.210000 1555125.340000,918819.270000 1555125.330000,918819.260000 1555031.360000,918759.630000 1554141.090000,918442.620000 1553444.360000,918194.520000 1553444.320000,918194.510000 1553339.510000,918157.190000 1553229.040000,918144.020000 1553229.010000,918144.010000 1551666.710000,917957.720000 1551666.690000,917957.720000 1551556.240000,917944.550000 1549770.170000,918132.270000 1549664.820000,918168.130000 1549664.790000,918168.140000 1548880.350000,918435.190000 1548070.070000,918711.030000 1547126.510000,919291.510000 1546635.210000,919593.760000 1546635.190000,919593.770000 1546540.450000,919652.060000 1545257.320000,920908.590000 1544284.460000,922418.170000 1543670.220000,924105.780000 1543445.140000,925887.530000 1451845.000000,925887.530000 1451845.000000,876424.810000 1582335.000000,876424.810000 1582335.010000,902155.180000 1582347.230000,902232.310000 1582347.230000,902232.370000 1582459.030000,902938.310000 1582459.040000,902938.340000 1582483.540000,903093.040000 1583059.500000,904223.420000 1583956.580000,905120.500000 1585086.960000,905696.460000 1586024.810000,905845.000000 1586103.050000,905845.000000 1591343.730000,905844.990000 1596655.180000,905844.990000 1596732.310000,905832.770000 1596732.370000,905832.770000 1597438.310000,905720.970000 1597438.340000,905720.960000 1597593.040000,905696.460000 1597732.600000,905625.350000 1597732.630000,905625.340000 1598583.880000,905191.600000 1598723.420000,905120.500000 1599620.500000,904223.420000 1600196.460000,903093.040000 1600345.000000,902155.190000 1600344.990000,876424.820000 1600332.750000,876347.530000 1600220.970000,875641.690000 1600220.960000,875641.660000 1600196.460000,875486.960000 1599620.500000,874356.580000 1598723.420000,873459.500000 1598431.560000,873310.790000 1597751.710000,872743.210000 1597385.450000,871936.860000 1597345.000000,871537.690000 1597345.000000,869091.760000 1606440.000000,869091.760000 1606447.200000,869211.300000 1606529.250000,869889.240000 1606591.650000,870134.940000 1607029.220000,871240.150000 1607161.150000,871474.290000 1607875.100000,872414.870000 1608065.130000,872604.900000 1609005.710000,873318.850000 1609239.850000,873450.780000 1610345.060000,873888.350000 1610590.760000,873950.750000 1611268.700000,874032.800000 1611388.240000,874040.000000 1613975.770000,874040.000000 1614165.470000,873996.700000 1614200.000000,873925.000000 1614200.000000,873815.770000 1619280.000000,873815.770000 1619323.300000,874005.470000 1619395.000000,874040.000000 1622091.760000,874040.000000 1622211.300000,874032.800000 1622889.240000,873950.750000 1623134.940000,873888.350000 1624240.150000,873450.780000 1624474.290000,873318.850000 1625414.870000,872604.900000 1625604.900000,872414.870000 1626318.850000,871474.290000 1626450.780000,871240.150000 1626888.350000,870134.940000 1626950.750000,869889.240000 1627032.800000,869211.300000 1627040.000000,869091.760000 1627040.000000,858954.230000 1626996.700000,858764.530000 1626925.000000,858730.000000 1619504.230000,858730.000000 1619314.530000,858773.300000 1619280.000000,858845.000000 1619280.000000,873815.770000 1614200.000000,873815.770000 1614200.000000,858954.230000 1614156.700000,858764.530000 1614085.000000,858730.000000 1606664.230000,858730.000000 1606474.530000,858773.300000 1606440.000000,858845.000000 1606440.000000,869091.760000 1597345.000000,869091.760000 1597345.000000,853425.770000 1606440.000000,853425.770000 1606483.300000,853615.470000 1606555.000000,853650.000000 1613975.770000,853650.000000 1614165.470000,853606.700000 1614200.000000,853535.000000 1614200.000000,853425.770000 1619280.000000,853425.770000 1619323.300000,853615.470000 1619395.000000,853650.000000 1626815.770000,853650.000000 1627005.470000,853606.700000 1627040.000000,853535.000000 1627040.000000,843288.240000 1627032.800000,843168.700000 1626950.750000,842490.760000 1626888.350000,842245.060000 1626450.780000,841139.850000 1626318.850000,840905.710000 1625604.900000,839965.130000 1625414.870000,839775.100000 1624474.290000,839061.150000 1624240.150000,838929.220000 1623134.940000,838491.650000 1622889.240000,838429.250000 1622211.300000,838347.200000 1622091.760000,838340.000000 1619504.230000,838340.000000 1619314.530000,838383.300000 1619280.000000,838455.000000 1619280.000000,853425.770000 1614200.000000,853425.770000 1614200.000000,838564.230000 1614156.700000,838374.530000 1614085.000000,838340.000000 1611388.240000,838340.000000 1611268.700000,838347.200000 1610590.760000,838429.250000 1610345.060000,838491.650000 1609239.850000,838929.220000 1609005.710000,839061.150000 1608065.130000,839775.100000 1607875.100000,839965.130000 1607161.150000,840905.710000 1607029.220000,841139.850000 1606591.650000,842245.060000 1606529.250000,842490.760000 1606447.200000,843168.700000 1606440.000000,843288.240000 1606440.000000,853425.770000 1597345.000000,853425.770000 1597345.000000,840971.630000 1597542.070000,840108.200000 1597927.860000,839564.490000 1610904.490000,826587.860000 1611654.370000,826116.670000 1612311.630000,826005.000000 1658688.370000,826005.000000 1659551.800000,826202.070000 1660095.510000,826587.860000 1672412.140000,838904.490000 1672883.330000,839654.370000 1672995.000000,840311.630000 1672995.000000,840454.090000 1672797.930000,841317.520000 1672677.730000,841532.080000 1671784.460000,842918.170000 1671170.220000,844605.780000 1671156.280000,844716.110000 1671156.280000,844716.120000 1671088.500000,845252.690000 1670945.140000,846387.530000 1670956.000000,846498.290000 1670956.000000,846498.300000 1670972.100000,846662.440000 1671120.390000,848174.860000 1671687.260000,849878.960000 1672617.590000,851415.120000 1673865.140000,852706.990000 1675367.890000,853690.360000 1675472.140000,853729.130000 1676946.850000,854277.570000 1676946.870000,854277.570000 1677051.160000,854316.360000 1677161.430000,854331.070000 1677161.460000,854331.080000 1678344.860000,854488.980000 1678831.300000,854553.880000 1678942.070000,854543.800000 1680508.960000,854401.210000 1680508.980000,854401.210000 1680619.810000,854391.120000 1681473.810000,854113.640000 1682221.960000,853870.550000 1682221.990000,853870.540000 1682327.820000,853836.150000 1682640.090000,853650.000000 1683774.890000,852973.530000 1683774.900000,852973.520000 1683870.440000,852916.570000 1685170.990000,851678.070000 1685345.700000,851415.120000 1686103.250000,850274.900000 1686164.830000,850182.220000 1686802.570000,848503.360000 1687052.510000,846724.930000 1687055.650000,846500.000000 1687048.690000,846437.940000 1686867.870000,844825.880000 1686867.860000,844825.840000 1686855.460000,844715.280000 1686780.940000,844501.270000 1686301.450000,843124.370000 1686264.850000,843019.270000 1685313.160000,841496.250000 1685343.200000,841477.480000 1685053.580000,840871.430000 1685005.000000,840434.430000 1685005.000000,837524.080000 1685022.030000,837264.330000 1685039.800000,837129.350000 1685039.800000,837129.280000 1685056.820000,837000.000000 1684850.440000,835432.380000 1684245.360000,833971.590000 1683524.500000,833032.150000 1683524.470000,833032.110000 1683362.220000,832820.650000 1683362.190000,832820.620000 1683282.820000,832717.180000 1683071.250000,832554.830000 1682875.610000,832383.260000 1666616.740000,816124.390000 1666445.170000,815928.750000 1666282.820000,815717.180000 1665028.410000,814754.640000 1663688.140000,814199.480000 1663688.100000,814199.460000 1663567.620000,814149.560000 1662393.610000,813995.000000 1662129.280000,813960.200000 1662000.000000,813943.180000 1661870.720000,813960.200000 1661870.650000,813960.200000 1661735.670000,813977.970000 1661475.920000,813995.000000 1609524.080000,813995.000000 1609264.330000,813977.970000 1609129.350000,813960.200000 1609129.280000,813960.200000 1609000.000000,813943.180000 1608870.720000,813960.200000 1608606.390000,813995.000000 1607432.380000,814149.560000 1605971.590000,814754.640000 1604717.180000,815717.180000 1604554.830000,815928.750000 1604383.260000,816124.390000 1587464.390000,833043.260000 1587268.750000,833214.830000 1587057.180000,833377.180000 1586094.640000,834631.590000 1585489.560000,836092.380000 1585283.180000,837660.000000 1585300.200000,837789.280000 1585300.200000,837789.350000 1585317.970000,837924.330000 1585335.000000,838184.080000 1585335.000000,871537.690000 1585137.930000,872401.120000 1584585.740000,873093.530000 1584248.450000,873310.790000 1583956.580000,873459.500000 1583059.500000,874356.580000 1582483.540000,875486.960000 1582335.000000,876424.810000 1451845.000000,876424.810000 1451845.000000,832271.760000 1475080.000000,832271.760000 1475087.200000,832391.300000 1475169.250000,833069.240000 1475231.650000,833314.940000 1475669.220000,834420.150000 1475801.150000,834654.290000 1476515.100000,835594.870000 1476705.130000,835784.900000 1477336.060000,836263.810000 1477904.660000,836942.820000 1478122.330000,837801.290000 1477945.970000,838669.180000 1477540.040000,839256.040000 1477099.500000,839696.580000 1476523.540000,840826.960000 1476375.000000,841764.810000 1476375.010000,857635.180000 1476387.230000,857712.310000 1476387.230000,857712.370000 1476499.030000,858418.310000 1476499.040000,858418.340000 1476523.540000,858573.040000 1476594.650000,858712.600000 1476594.660000,858712.630000 1477028.400000,859563.880000 1477099.500000,859703.420000 1477996.580000,860600.500000 1479126.960000,861176.460000 1480064.810000,861325.000000 1480143.050000,861325.000000 1488005.580000,861324.990000 1495935.180000,861324.990000 1496012.310000,861312.770000 1496012.370000,861312.770000 1496718.310000,861200.970000 1496718.340000,861200.960000 1496873.040000,861176.460000 1497012.600000,861105.350000 1497012.630000,861105.340000 1497863.880000,860671.600000 1498003.420000,860600.500000 1498900.500000,859703.420000 1499476.460000,858573.040000 1499625.000000,857635.190000 1499624.990000,841764.820000 1499612.750000,841687.530000 1499500.970000,840981.690000 1499500.960000,840981.660000 1499476.460000,840826.960000 1499286.480000,840454.090000 1498971.600000,839836.120000 1498900.500000,839696.580000 1498459.960000,839256.040000 1497988.770000,838506.160000 1497889.610000,837626.090000 1498182.120000,836790.160000 1498663.940000,836263.810000 1499294.870000,835784.900000 1499484.900000,835594.870000 1500198.850000,834654.290000 1500330.780000,834420.150000 1500768.350000,833314.940000 1500830.750000,833069.240000 1500912.800000,832391.300000 1500920.000000,832271.760000 1500920.000000,827064.230000 1500876.700000,826874.530000 1500805.000000,826840.000000 1475304.230000,826840.000000 1475114.530000,826883.300000 1475080.000000,826955.000000 1475080.000000,832271.760000 1451845.000000,832271.760000 1451845.000000,821535.770000 1475080.000000,821535.770000 1475123.300000,821725.470000 1475195.000000,821760.000000 1485235.770000,821760.000000 1485425.470000,821716.700000 1485460.000000,821645.000000 1485460.000000,821535.770000 1490540.000000,821535.770000 1490583.300000,821725.470000 1490655.000000,821760.000000 1500695.770000,821760.000000 1500885.470000,821716.700000 1500920.000000,821645.000000 1500920.000000,816328.240000 1500912.800000,816208.700000 1500830.750000,815530.760000 1500768.350000,815285.060000 1500330.780000,814179.850000 1500198.850000,813945.710000 1499484.900000,813005.130000 1499294.870000,812815.100000 1498354.290000,812101.150000 1498120.150000,811969.220000 1497014.940000,811531.650000 1496769.240000,811469.250000 1496091.300000,811387.200000 1495971.760000,811380.000000 1490764.230000,811380.000000 1490574.530000,811423.300000 1490540.000000,811495.000000 1490540.000000,821535.770000 1485460.000000,821535.770000 1485460.000000,811604.230000 1485416.700000,811414.530000 1485345.000000,811380.000000 1480028.240000,811380.000000 1479908.700000,811387.200000 1479230.760000,811469.250000 1478985.060000,811531.650000 1477879.850000,811969.220000 1477645.710000,812101.150000 1476705.130000,812815.100000 1476515.100000,813005.130000 1475801.150000,813945.710000 1475669.220000,814179.850000 1475231.650000,815285.060000 1475169.250000,815530.760000 1475087.200000,816208.700000 1475080.000000,816328.240000 1475080.000000,821535.770000 1451845.000000,821535.770000 1451845.000000,722535.000000 1452042.070000,721671.570000 1452594.260000,720979.160000 1453392.180000,720594.890000 1453835.000000,720545.000000 1944765.000000,720545.000000 Z"/> 
</g>
</g>
</g> 
</g><g id="substrate-silk" style="fill:#0b1013; stroke:#0b1013;" mask="url(#pads-mask-silkscreen)"><g style="fill-opacity: 0.0;stroke-width: 3000.000000;stroke-opacity: 1;stroke-linecap: round;stroke-linejoin: round">
<text x="1757500.000000" y="758000.000000" textLength="192519.050000" font-size="22666.660000" lengthAdjust="spacingAndGlyphs" text-anchor="middle" opacity="0">PINHOLDER03A</text>
<g class="stroked-text"><desc>PINHOLDER03A</desc>
<path d="M1667238 757190 L1667238 740190 L1673714 740190 L1675333 741000 L1676142 741809 L1676952 743428 L1676952 745857 L1676142 747476 L1675333 748285 L1673714 749095 L1667238 749095 "/>
<path d="M1684238 757190 L1684238 740190 "/>
<path d="M1692333 757190 L1692333 740190 L1702047 757190 L1702047 740190 "/>
<path d="M1710142 757190 L1710142 740190 "/>
<path d="M1710142 748285 L1719857 748285 "/>
<path d="M1719857 757190 L1719857 740190 "/>
<path d="M1731190 740190 L1734428 740190 L1736047 741000 L1737666 742619 L1738476 745857 L1738476 751523 L1737666 754761 L1736047 756380 L1734428 757190 L1731190 757190 L1729571 756380 L1727952 754761 L1727142 751523 L1727142 745857 L1727952 742619 L1729571 741000 L1731190 740190 "/>
<path d="M1753857 757190 L1745761 757190 L1745761 740190 "/>
<path d="M1759523 757190 L1759523 740190 L1763571 740190 L1766000 741000 L1767619 742619 L1768428 744238 L1769238 747476 L1769238 749904 L1768428 753142 L1767619 754761 L1766000 756380 L1763571 757190 L1759523 757190 "/>
<path d="M1776523 748285 L1782190 748285 "/>
<path d="M1784619 757190 L1776523 757190 L1776523 740190 L1784619 740190 "/>
<path d="M1801619 757190 L1795952 749095 "/>
<path d="M1791904 757190 L1791904 740190 L1798380 740190 L1800000 741000 L1800809 741809 L1801619 743428 L1801619 745857 L1800809 747476 L1800000 748285 L1798380 749095 L1791904 749095 "/>
<path d="M1812142 740190 L1813761 740190 L1815380 741000 L1816190 741809 L1817000 743428 L1817809 746666 L1817809 750714 L1817000 753952 L1816190 755571 L1815380 756380 L1813761 757190 L1812142 757190 L1810523 756380 L1809714 755571 L1808904 753952 L1808095 750714 L1808095 746666 L1808904 743428 L1809714 741809 L1810523 741000 L1812142 740190 "/>
<path d="M1823476 740190 L1834000 740190 L1828333 746666 L1830761 746666 L1832380 747476 L1833190 748285 L1834000 749904 L1834000 753952 L1833190 755571 L1832380 756380 L1830761 757190 L1825904 757190 L1824285 756380 L1823476 755571 "/>
<path d="M1840476 752333 L1848571 752333 "/>
<path d="M1838857 757190 L1844523 740190 L1850190 757190 "/>
</g></g>
<g style="fill-opacity: 0.0;stroke-width: 1500.000000;stroke-opacity: 1;stroke-linecap: round;stroke-linejoin: round">
<text x="1617000.000000" y="918500.000000" textLength="60566.670000" font-size="13333.330000" lengthAdjust="spacingAndGlyphs" text-anchor="middle" opacity="0">K     A</text>
<g class="stroked-text"><desc>K     A</desc>
<path d="M1591047 918023 L1591047 908023 "/>
<path d="M1596761 918023 L1592476 912309 "/>
<path d="M1596761 908023 L1591047 913738 "/>
<path d="M1638666 915166 L1643428 915166 "/>
<path d="M1637714 918023 L1641047 908023 L1644380 918023 "/>
</g></g>
<g style="fill-opacity: 0.0;stroke-width: 3000.000000;stroke-opacity: 1;stroke-linecap: round;stroke-linejoin: round">
<text x="1600454.000000" y="755530.000000" textLength="91235.710000" font-size="20000.000000" lengthAdjust="spacingAndGlyphs" text-anchor="middle" opacity="0">MLAB.cz</text>
<g class="stroked-text"><desc>MLAB.cz</desc>
<path d="M1559382 754815 L1559382 739815 L1564382 750530 L1569382 739815 L1569382 754815 "/>
<path d="M1583668 754815 L1576525 754815 L1576525 739815 "/>
<path d="M1587954 750530 L1595096 750530 "/>
<path d="M1586525 754815 L1591525 739815 L1596525 754815 "/>
<path d="M1606525 746958 L1608668 747672 L1609382 748387 L1610096 749815 L1610096 751958 L1609382 753387 L1608668 754101 L1607239 754815 L1601525 754815 L1601525 739815 L1606525 739815 L1607954 740530 L1608668 741244 L1609382 742672 L1609382 744101 L1608668 745530 L1607954 746244 L1606525 746958 L1601525 746958 "/>
<path d="M1616525 753387 L1617239 754101 L1616525 754815 L1615811 754101 L1616525 753387 L1616525 754815 "/>
<path d="M1630096 754101 L1628668 754815 L1625811 754815 L1624382 754101 L1623668 753387 L1622954 751958 L1622954 747672 L1623668 746244 L1624382 745530 L1625811 744815 L1628668 744815 L1630096 745530 "/>
<path d="M1635096 744815 L1642954 744815 L1635096 754815 L1642954 754815 "/>
</g></g>
<g style="fill-opacity: 0.0;stroke-width: 1500.000000;stroke-opacity: 1;stroke-linecap: round;stroke-linejoin: round">
<text x="1616740.000000" y="884000.000000" textLength="21042.860000" font-size="13333.330000" lengthAdjust="spacingAndGlyphs" text-anchor="middle" opacity="0">J1</text>
<g class="stroked-text"><desc>J1</desc>
<path d="M1613406 873523 L1613406 880666 L1612930 882095 L1611978 883047 L1610549 883523 L1609597 883523 "/>
<path d="M1623406 883523 L1617692 883523 "/>
<path d="M1620549 883523 L1620549 873523 L1619597 874952 L1618644 875904 L1617692 876380 "/>
</g></g>
<g style="fill-opacity: 0.0;stroke-width: 1200.000000;stroke-opacity: 1;stroke-linecap: round;stroke-linejoin: round">
<path d="M1655440 886040 L1655440 859440 "/>
<path d="M1598940 886040 L1634540 886040 "/>
<path d="M1578040 886040 L1578040 859440 "/>
<path d="M1578040 886040 L1583740 886040 "/>
<path d="M1624340 859440 L1655440 859440 "/>
<path d="M1649740 859440 L1655440 859440 "/>
<path d="M1583740 886040 L1583740 901240 "/>
<path d="M1578040 859440 L1609140 859440 "/>
</g> 
</g><g id="substrate-outline" style="fill:#000000; stroke:#000000; stroke-width: 1500.0"><g style="fill-opacity: 0.0;stroke-opacity: 1;stroke-linecap: round;stroke-linejoin: round">
<path d="M1447840 1016260 L1950760 1016260 "/>
<path d="M1447840 716540 L1950760 716540 "/>
<path d="M1950760 716540 L1950760 1016260 "/>
<path d="M1447840 1016260 L1447840 716540 "/>
</g> 
<path d="M -15000.0 0.0 A 15000.0 15000.0 0 1 1 15000.0 0.0 L 15000.0 -0.0 A 15000.0 15000.0 0 1 1 -15000.0 -0.0 Z" transform="translate(1496100.0 764800.0) rotate(-0.0)"/><path d="M -15000.0 0.0 A 15000.0 15000.0 0 1 1 15000.0 0.0 L 15000.0 -0.0 A 15000.0 15000.0 0 1 1 -15000.0 -0.0 Z" transform="translate(1902500.0 764800.0) rotate(-0.0)"/><path d="M -15000.0 0.0 A 15000.0 15000.0 0 1 1 15000.0 0.0 L 15000.0 -0.0 A 15000.0 15000.0 0 1 1 -15000.0 -0.0 Z" transform="translate(1496100.0 968000.0) rotate(-0.0)"/><path d="M -15000.0 0.0 A 15000.0 15000.0 0 1 1 15000.0 0.0 L 15000.0 -0.0 A 15000.0 15000.0 0 1 1 -15000.0 -0.0 Z" transform="translate(1902500.0 968000.0) rotate(-0.0)"/><path d="M -4445.0 0.0 A 4445.0 4445.0 0 1 1 4445.0 0.0 L 4445.0 -0.0 A 4445.0 4445.0 0 1 1 -4445.0 -0.0 Z" transform="translate(1488000.0 824300.0) rotate(-180.0)"/><path d="M -4445.0 0.0 A 4445.0 4445.0 0 1 1 4445.0 0.0 L 4445.0 -0.0 A 4445.0 4445.0 0 1 1 -4445.0 -0.0 Z" transform="translate(1488000.0 849700.0) rotate(-180.0)"/><path d="M -2000.0 0.0 A 2000.0 2000.0 0 1 1 2000.0 0.0 L 2000.0 -0.0 A 2000.0 2000.0 0 1 1 -2000.0 -0.0 Z" transform="translate(1679000.0 846500.0) rotate(0)"/><path d="M -2000.0 0.0 A 2000.0 2000.0 0 1 1 2000.0 0.0 L 2000.0 -0.0 A 2000.0 2000.0 0 1 1 -2000.0 -0.0 Z" transform="translate(1551500.0 926000.0) rotate(0)"/></g></g><g id="substrate-paste" style="fill:#8a8a8a; stroke:#8a8a8a;"><g style="fill-opacity: 0.0;stroke-width: 0.000000;stroke-opacity: 1;stroke-linecap: round;stroke-linejoin: round">
<g style="fill-opacity: 1.0;stroke-width: 0.010000;stroke-opacity: 1;stroke-linecap: round;stroke-linejoin: round">
<path style="fill-opacity: 1.0;stroke-width: 0.010000;stroke-opacity: 1;stroke-linecap: round;stroke-linejoin: round;fill-rule: evenodd" d="M 1596340.000000,901840.000000 1586340.000000,901840.000000 1586340.000000,876740.000000 1596340.000000,876740.000000 Z"/> 
<path style="fill-opacity: 1.0;stroke-width: 0.010000;stroke-opacity: 1;stroke-linecap: round;stroke-linejoin: round;fill-rule: evenodd" d="M 1621740.000000,868740.000000 1611740.000000,868740.000000 1611740.000000,843640.000000 1621740.000000,843640.000000 Z"/> 
<path style="fill-opacity: 1.0;stroke-width: 0.010000;stroke-opacity: 1;stroke-linecap: round;stroke-linejoin: round;fill-rule: evenodd" d="M 1647140.000000,901840.000000 1637140.000000,901840.000000 1637140.000000,876740.000000 1647140.000000,876740.000000 Z"/> 
</g>
</g> 
</g></g><g transform="" id="componentContainer"><!--Mlab_Mechanical:MountingHole_3mm:M3--><g transform="translate(1496100.0 764800.0) scale(10000.0, 10000.0) rotate(-0.0) translate(-0.75 -0.75)"><g id="pref_12_Mlab_Mechanical__MountingHole_3mm_HOLE"><defs xmlns:xlink="http://www.w3.org/1999/xlink" id="pref_13defs13">
    <linearGradient id="pref_13linearGradient13300">
      <stop style="stop-color:#e5e5e5;stop-opacity:1;" offset="0" id="pref_13stop13298"/>
    </linearGradient>
    <linearGradient id="pref_13linearGradient10336">
      <stop style="stop-color:#cfcfcf;stop-opacity:1" offset="0" id="pref_13stop10332"/>
      <stop style="stop-color:#cdcdcd;stop-opacity:0" offset="1" id="pref_13stop10334"/>
    </linearGradient>
    <linearGradient id="pref_13linearGradient9067">
      <stop style="stop-color:#d3d3d3;stop-opacity:1;" offset="0" id="pref_13stop9051"/>
      <stop style="stop-color:#c8c8c8;stop-opacity:1;" offset="0.1656336" id="pref_13stop9053"/>
      <stop style="stop-color:#d8d8d8;stop-opacity:0.52030832" offset="0.29162589" id="pref_13stop9055"/>
      <stop style="stop-color:#c6c6c6;stop-opacity:0.51711833" offset="0.38067153" id="pref_13stop9057"/>
      <stop style="stop-color:#bbbbbb;stop-opacity:0.45933419" offset="0.51505035" id="pref_13stop9059"/>
      <stop style="stop-color:#8e8e8e;stop-opacity:0.47450981" offset="0.5970481" id="pref_13stop9061"/>
      <stop style="stop-color:#656565;stop-opacity:0.56470591" offset="0.7681157" id="pref_13stop9063"/>
      <stop style="stop-color:#606060;stop-opacity:0.28235294;" offset="0.95913506" id="pref_13stop9743"/>
      <stop style="stop-color:#b5b5b5;stop-opacity:0.21568628" offset="1" id="pref_13stop9065"/>
    </linearGradient>
    <linearGradient id="pref_13linearGradient3692">
      <stop style="stop-color:#e4e4e4;stop-opacity:1" offset="0" id="pref_13stop6926"/>
      <stop style="stop-color:#e5e5e5;stop-opacity:1" offset="0.1656336" id="pref_13stop6928"/>
      <stop style="stop-color:#f5f5f5;stop-opacity:1" offset="0.29162589" id="pref_13stop6930"/>
      <stop style="stop-color:#c6c6c6;stop-opacity:1;" offset="0.38067153" id="pref_13stop6932"/>
      <stop style="stop-color:#dddddd;stop-opacity:1" offset="0.57577699" id="pref_13stop6934"/>
      <stop style="stop-color:#f2f2f2;stop-opacity:1" offset="0.66836077" id="pref_13stop6936"/>
      <stop style="stop-color:#ebebeb;stop-opacity:1" offset="0.79280978" id="pref_13stop6938"/>
      <stop style="stop-color:#efefef;stop-opacity:1" offset="1" id="pref_13stop6940"/>
    </linearGradient>
    <linearGradient id="pref_13linearGradient5758">
      <stop style="stop-color:#f6f6f6;stop-opacity:0.89019608" offset="0" id="pref_13stop5754"/>
      <stop style="stop-color:#646464;stop-opacity:0.9921568" offset="1" id="pref_13stop5756"/>
    </linearGradient>
    <linearGradient id="pref_13linearGradient3692-7">
      <stop style="stop-color:#d3d3d3;stop-opacity:1;" offset="0" id="pref_13stop3688"/>
      <stop style="stop-color:#c8c8c8;stop-opacity:1;" offset="0.1656336" id="pref_13stop4378"/>
      <stop style="stop-color:#ededed;stop-opacity:1" offset="0.29162589" id="pref_13stop4444"/>
      <stop style="stop-color:#c6c6c6;stop-opacity:1;" offset="0.38067153" id="pref_13stop4376"/>
      <stop style="stop-color:#dbdbdb;stop-opacity:1" offset="0.57577699" id="pref_13stop4308"/>
      <stop style="stop-color:#c8c8c8;stop-opacity:1" offset="0.66836077" id="pref_13stop4242"/>
      <stop style="stop-color:#b8b8b8;stop-opacity:1;" offset="0.79280978" id="pref_13stop4310"/>
      <stop style="stop-color:#aeaeae;stop-opacity:1" offset="1" id="pref_13stop3690"/>
    </linearGradient>
    <linearGradient id="pref_13linearGradient3156">
      <stop style="stop-color:#d3d3d3;stop-opacity:1;" offset="0" id="pref_13stop3152"/>
      <stop style="stop-color:#d3d3d3;stop-opacity:0.89019608;" offset="0.93029171" id="pref_13stop3290"/>
      <stop style="stop-color:#757575;stop-opacity:1" offset="1" id="pref_13stop3154"/>
    </linearGradient>
    <radialGradient xlink:href="#pref_13linearGradient3156" id="pref_13radialGradient3160" cx="0.75" cy="0.75" fx="0.75" fy="0.75" r="2.75" gradientUnits="userSpaceOnUse" gradientTransform="matrix(0.96363636,0,0,0.96363636,0.02727275,0.02727275)"/>
    <linearGradient xlink:href="#pref_13linearGradient3692-7" id="pref_13linearGradient3694" x1="-0.69187778" y1="-1.1810942" x2="2.8737183" y2="2.1900826" gradientUnits="userSpaceOnUse" gradientTransform="matrix(0.92592591,0,0,0.92592591,0.05555555,0.05555555)"/>
    <linearGradient xlink:href="#pref_13linearGradient5758" id="pref_13linearGradient5760" x1="-15.456677" y1="-15.474042" x2="-4.6413889" y2="-6.7602329" gradientUnits="userSpaceOnUse"/>
    <linearGradient xlink:href="#pref_13linearGradient3692" id="pref_13linearGradient6924" gradientUnits="userSpaceOnUse" x1="1.4987922" y1="4.3924975" x2="-1.0811033" y2="-3.0084407"/>
    <radialGradient xlink:href="#pref_13linearGradient9067" id="pref_13radialGradient8763" cx="0.75" cy="0.75" fx="0.75" fy="0.75" r="2.5" gradientUnits="userSpaceOnUse"/>
    <radialGradient xlink:href="#pref_13linearGradient10336" id="pref_13radialGradient10338" cx="-9.3072596" cy="-12.247526" fx="-9.3072596" fy="-12.247526" r="5.7490053" gradientTransform="matrix(0.25618062,-0.83918687,0.82829029,0.2528542,1.5718983,-16.37084)" gradientUnits="userSpaceOnUse"/>
  </defs>
  <circle style="opacity:1;fill:url(#pref_13linearGradient6924);fill-opacity:1;stroke:#cecece;stroke-width:0.05;stroke-miterlimit:4;stroke-dasharray:none;stroke-opacity:1" id="pref_13path6642" cx="0.75" cy="0.75" r="3.5"/>
  <circle style="fill:url(#pref_13radialGradient3160);fill-opacity:1;stroke-width:0.0358194" id="pref_13path1030-6" cx="0.75" cy="0.75" r="2.6500001"/>
  <circle style="opacity:1;fill:url(#pref_13linearGradient3694);fill-opacity:1;stroke-width:0.033792" id="pref_13path1030" cx="0.75" cy="0.75" r="2.5"/>
  <circle style="fill:url(#pref_13radialGradient8763);fill-opacity:1;stroke-width:0.034;stroke-miterlimit:4;stroke-dasharray:none" id="pref_13path1030-7" cx="0.75" cy="0.75" r="2.5"/>
  <path xmlns:sodipodi="http://sodipodi.sourceforge.net/DTD/sodipodi-0.dtd" sodipodi:type="star" style="opacity:1;fill:#b6b6b6;fill-opacity:1;stroke:url(#pref_13linearGradient5760);stroke-width:0.398303;stroke-miterlimit:4;stroke-dasharray:none;stroke-opacity:1" id="pref_13path1288-3" sodipodi:sides="6" sodipodi:cx="-9.9017067" sodipodi:cy="-10.789671" sodipodi:r1="5.7490053" sodipodi:r2="4.9787846" sodipodi:arg1="1.0471976" sodipodi:arg2="1.5707963" transform="matrix(0.24392497,0.05945068,-0.05945068,0.24392497,2.5238203,3.9705334)" d="m -7.0272043,-5.8108862 -5.7490057,-2e-7 -2.874502,-4.9787846 2.874503,-4.978785 5.7490052,1e-6 2.8745024,4.978784 z"/>
  <path xmlns:sodipodi="http://sodipodi.sourceforge.net/DTD/sodipodi-0.dtd" sodipodi:type="star" style="opacity:1;fill:url(#pref_13radialGradient10338);fill-opacity:1;stroke:none;stroke-width:0.398303;stroke-miterlimit:4;stroke-dasharray:none;stroke-opacity:1" id="pref_13path1288-3-6" sodipodi:sides="6" sodipodi:cx="-9.9017067" sodipodi:cy="-10.789671" sodipodi:r1="5.7490053" sodipodi:r2="4.9787846" sodipodi:arg1="1.0471976" sodipodi:arg2="1.5707963" transform="matrix(0.24487282,0.0596817,-0.0596817,0.24487282,2.5307131,3.9830479)" d="m -7.0272043,-5.8108862 -5.7490057,-2e-7 -2.874502,-4.9787846 2.874503,-4.978785 5.7490052,1e-6 2.8745024,4.978784 z"/>
</g></g><!--Mlab_Mechanical:MountingHole_3mm:M2--><g transform="translate(1902500.0 764800.0) scale(10000.0, 10000.0) rotate(-0.0) translate(-0.75 -0.75)"><use xmlns:xlink="http://www.w3.org/1999/xlink" xlink:href="#pref_12_Mlab_Mechanical__MountingHole_3mm_HOLE"/></g><!--Mlab_Mechanical:MountingHole_3mm:M4--><g transform="translate(1496100.0 968000.0) scale(10000.0, 10000.0) rotate(-0.0) translate(-0.75 -0.75)"><use xmlns:xlink="http://www.w3.org/1999/xlink" xlink:href="#pref_12_Mlab_Mechanical__MountingHole_3mm_HOLE"/></g><!--Mlab_Mechanical:MountingHole_3mm:M1--><g transform="translate(1902500.0 968000.0) scale(10000.0, 10000.0) rotate(-0.0) translate(-0.75 -0.75)"><use xmlns:xlink="http://www.w3.org/1999/xlink" xlink:href="#pref_12_Mlab_Mechanical__MountingHole_3mm_HOLE"/></g></g></svg>