<!DOCTYPE svg PUBLIC "-//W3C//DTD SVG 1.1//EN" "http://www.w3.org/Graphics/SVG/1.1/DTD/svg11.dtd">
<svg xmlns="http://www.w3.org/2000/svg" version="1.1" width="60.391999mm" height="40.072mm" viewBox="-200.126 66.604 60.391999999999996 40.072">
            <title>Picture generated by PcbDraw </title>
            <desc>Picture generated by PcbDraw</desc>
        <defs><clipPath id="cut-off"><path d=" M 195.076 101.626 L 195.076 71.654 L 144.784 71.654 L 144.784 101.626 L 195.076 101.626 " style="fill-rule: evenodd;"/></clipPath><mask id="pads-mask"><g style="fill:#ffffff; fill-opacity:0.0;  stroke:#ffffff; stroke-width:0.0000; stroke-opacity:1;  stroke-linecap:round; stroke-linejoin:round;">
<g style="fill:#ffffff; fill-opacity:1.0000;  stroke:#ffffff; stroke-width:0.0000; stroke-opacity:1;  stroke-linecap:round; stroke-linejoin:round;">
<circle cx="149.6100" cy="76.4800" r="3.2000"/> 
</g>
<g style="fill:#ffffff; fill-opacity:1.0000;  stroke:#ffffff; stroke-width:0.0000; stroke-opacity:1;  stroke-linecap:round; stroke-linejoin:round;">
<circle cx="190.2500" cy="76.4800" r="3.2000"/> 
</g>
<g style="fill:#ffffff; fill-opacity:1.0000;  stroke:#ffffff; stroke-width:0.0000; stroke-opacity:1;  stroke-linecap:round; stroke-linejoin:round;">
<circle cx="149.6100" cy="96.8000" r="3.2000"/> 
</g>
<g style="fill:#ffffff; fill-opacity:1.0000;  stroke:#ffffff; stroke-width:0.0000; stroke-opacity:1;  stroke-linecap:round; stroke-linejoin:round;">
<circle cx="190.2500" cy="96.8000" r="3.2000"/> 
</g>
<g style="fill:#ffffff; fill-opacity:1.0000;  stroke:#ffffff; stroke-width:0.0000; stroke-opacity:1;  stroke-linecap:round; stroke-linejoin:round;">
<path style="fill:#ffffff; fill-opacity:1.0000;  stroke:#ffffff; stroke-width:0.0000; stroke-opacity:1;  stroke-linecap:round; stroke-linejoin:round;fill-rule:evenodd;" d="M 155.9000,80.2000 155.9765,80.2152 156.0414,80.2586 156.0848,80.3235 156.1000,80.4000 156.1000,84.2000 156.0848,84.2765 156.0414,84.3414 155.9765,84.3848 155.9000,84.4000 153.9000,84.4000 153.8235,84.3848 153.7586,84.3414 153.7152,84.2765 153.7000,84.2000 153.7000,80.4000 153.7152,80.3235 153.7586,80.2586 153.8235,80.2152 153.9000,80.2000 Z"/> 
</g>
<g style="fill:#ffffff; fill-opacity:1.0000;  stroke:#ffffff; stroke-width:0.0000; stroke-opacity:1;  stroke-linecap:round; stroke-linejoin:round;">
<circle cx="167.9000" cy="84.6500" r="0.4549"/> 
</g>
<g style="fill:#ffffff; fill-opacity:1.0000;  stroke:#ffffff; stroke-width:0.0000; stroke-opacity:1;  stroke-linecap:round; stroke-linejoin:round;">
<path style="fill:#ffffff; fill-opacity:1.0000;  stroke:#ffffff; stroke-width:0.0000; stroke-opacity:1;  stroke-linecap:round; stroke-linejoin:round;fill-rule:evenodd;" d="M 149.7620,83.1920 149.7468,83.2685 149.7034,83.3334 149.6385,83.3768 149.5620,83.3920 148.0380,83.3920 147.9615,83.3768 147.8966,83.3334 147.8532,83.2685 147.8380,83.1920 147.8380,81.6680 147.8532,81.5915 147.8966,81.5266 147.9615,81.4832 148.0380,81.4680 149.5620,81.4680 149.6385,81.4832 149.7034,81.5266 149.7468,81.5915 149.7620,81.6680 Z"/> 
<path style="fill:#ffffff; fill-opacity:1.0000;  stroke:#ffffff; stroke-width:0.0000; stroke-opacity:1;  stroke-linecap:round; stroke-linejoin:round;fill-rule:evenodd;" d="M 149.7620,85.7320 149.7468,85.8085 149.7034,85.8734 149.6385,85.9168 149.5620,85.9320 148.0380,85.9320 147.9615,85.9168 147.8966,85.8734 147.8532,85.8085 147.8380,85.7320 147.8380,84.2080 147.8532,84.1315 147.8966,84.0666 147.9615,84.0232 148.0380,84.0080 149.5620,84.0080 149.6385,84.0232 149.7034,84.0666 149.7468,84.1315 149.7620,84.2080 Z"/> 
</g>
<g style="fill:#ffffff; fill-opacity:1.0000;  stroke:#ffffff; stroke-width:0.0000; stroke-opacity:1;  stroke-linecap:round; stroke-linejoin:round;">
<path style="fill:#ffffff; fill-opacity:1.0000;  stroke:#ffffff; stroke-width:0.0000; stroke-opacity:1;  stroke-linecap:round; stroke-linejoin:round;fill-rule:evenodd;" d="M 153.8500,93.1000 153.7735,93.0848 153.7086,93.0414 153.6652,92.9765 153.6500,92.9000 153.6500,89.1000 153.6652,89.0235 153.7086,88.9586 153.7735,88.9152 153.8500,88.9000 155.8500,88.9000 155.9265,88.9152 155.9914,88.9586 156.0348,89.0235 156.0500,89.1000 156.0500,92.9000 156.0348,92.9765 155.9914,93.0414 155.9265,93.0848 155.8500,93.1000 Z"/> 
</g>
<g style="fill:#ffffff; fill-opacity:1.0000;  stroke:#ffffff; stroke-width:0.0000; stroke-opacity:1;  stroke-linecap:round; stroke-linejoin:round;">
<g>
<path style="fill:#ffffff; fill-opacity:1.0000;  stroke:#ffffff; stroke-width:0.0000; stroke-opacity:1;  stroke-linecap:round; stroke-linejoin:round;fill-rule:evenodd;" d="M 195.0615,71.6685 195.0760,71.7035 195.0760,101.5765 195.0615,101.6115 195.0265,101.6260 144.8335,101.6260 144.7985,101.6115 144.7840,101.5765 144.7840,71.7035 144.7985,71.6685 144.8335,71.6540 195.0265,71.6540 Z"/> 
</g>
</g>
</g> 
</mask><mask id="pads-mask-silkscreen"><rect x="144.734" y="71.604" width="50.392" height="30.072" fill="white"/><g style="fill:#000000; fill-opacity:0.0;  stroke:#000000; stroke-width:0.0000; stroke-opacity:1;  stroke-linecap:round; stroke-linejoin:round;">
<g style="fill:#000000; fill-opacity:1.0000;  stroke:#000000; stroke-width:0.0000; stroke-opacity:1;  stroke-linecap:round; stroke-linejoin:round;">
<circle cx="149.6100" cy="76.4800" r="3.2000"/> 
</g>
<g style="fill:#000000; fill-opacity:1.0000;  stroke:#000000; stroke-width:0.0000; stroke-opacity:1;  stroke-linecap:round; stroke-linejoin:round;">
<circle cx="190.2500" cy="76.4800" r="3.2000"/> 
</g>
<g style="fill:#000000; fill-opacity:1.0000;  stroke:#000000; stroke-width:0.0000; stroke-opacity:1;  stroke-linecap:round; stroke-linejoin:round;">
<circle cx="149.6100" cy="96.8000" r="3.2000"/> 
</g>
<g style="fill:#000000; fill-opacity:1.0000;  stroke:#000000; stroke-width:0.0000; stroke-opacity:1;  stroke-linecap:round; stroke-linejoin:round;">
<circle cx="190.2500" cy="96.8000" r="3.2000"/> 
</g>
<g style="fill:#000000; fill-opacity:1.0000;  stroke:#000000; stroke-width:0.0000; stroke-opacity:1;  stroke-linecap:round; stroke-linejoin:round;">
<path style="fill:#000000; fill-opacity:1.0000;  stroke:#000000; stroke-width:0.0000; stroke-opacity:1;  stroke-linecap:round; stroke-linejoin:round;fill-rule:evenodd;" d="M 155.9000,80.2000 155.9765,80.2152 156.0414,80.2586 156.0848,80.3235 156.1000,80.4000 156.1000,84.2000 156.0848,84.2765 156.0414,84.3414 155.9765,84.3848 155.9000,84.4000 153.9000,84.4000 153.8235,84.3848 153.7586,84.3414 153.7152,84.2765 153.7000,84.2000 153.7000,80.4000 153.7152,80.3235 153.7586,80.2586 153.8235,80.2152 153.9000,80.2000 Z"/> 
</g>
<g style="fill:#000000; fill-opacity:1.0000;  stroke:#000000; stroke-width:0.0000; stroke-opacity:1;  stroke-linecap:round; stroke-linejoin:round;">
<circle cx="167.9000" cy="84.6500" r="0.4549"/> 
</g>
<g style="fill:#000000; fill-opacity:1.0000;  stroke:#000000; stroke-width:0.0000; stroke-opacity:1;  stroke-linecap:round; stroke-linejoin:round;">
<path style="fill:#000000; fill-opacity:1.0000;  stroke:#000000; stroke-width:0.0000; stroke-opacity:1;  stroke-linecap:round; stroke-linejoin:round;fill-rule:evenodd;" d="M 149.7620,83.1920 149.7468,83.2685 149.7034,83.3334 149.6385,83.3768 149.5620,83.3920 148.0380,83.3920 147.9615,83.3768 147.8966,83.3334 147.8532,83.2685 147.8380,83.1920 147.8380,81.6680 147.8532,81.5915 147.8966,81.5266 147.9615,81.4832 148.0380,81.4680 149.5620,81.4680 149.6385,81.4832 149.7034,81.5266 149.7468,81.5915 149.7620,81.6680 Z"/> 
<path style="fill:#000000; fill-opacity:1.0000;  stroke:#000000; stroke-width:0.0000; stroke-opacity:1;  stroke-linecap:round; stroke-linejoin:round;fill-rule:evenodd;" d="M 149.7620,85.7320 149.7468,85.8085 149.7034,85.8734 149.6385,85.9168 149.5620,85.9320 148.0380,85.9320 147.9615,85.9168 147.8966,85.8734 147.8532,85.8085 147.8380,85.7320 147.8380,84.2080 147.8532,84.1315 147.8966,84.0666 147.9615,84.0232 148.0380,84.0080 149.5620,84.0080 149.6385,84.0232 149.7034,84.0666 149.7468,84.1315 149.7620,84.2080 Z"/> 
</g>
<g style="fill:#000000; fill-opacity:1.0000;  stroke:#000000; stroke-width:0.0000; stroke-opacity:1;  stroke-linecap:round; stroke-linejoin:round;">
<path style="fill:#000000; fill-opacity:1.0000;  stroke:#000000; stroke-width:0.0000; stroke-opacity:1;  stroke-linecap:round; stroke-linejoin:round;fill-rule:evenodd;" d="M 153.8500,93.1000 153.7735,93.0848 153.7086,93.0414 153.6652,92.9765 153.6500,92.9000 153.6500,89.1000 153.6652,89.0235 153.7086,88.9586 153.7735,88.9152 153.8500,88.9000 155.8500,88.9000 155.9265,88.9152 155.9914,88.9586 156.0348,89.0235 156.0500,89.1000 156.0500,92.9000 156.0348,92.9765 155.9914,93.0414 155.9265,93.0848 155.8500,93.1000 Z"/> 
</g>
<g style="fill:#000000; fill-opacity:1.0000;  stroke:#000000; stroke-width:0.0000; stroke-opacity:1;  stroke-linecap:round; stroke-linejoin:round;">
<g>
<path style="fill:#000000; fill-opacity:1.0000;  stroke:#000000; stroke-width:0.0000; stroke-opacity:1;  stroke-linecap:round; stroke-linejoin:round;fill-rule:evenodd;" d="M 195.0615,71.6685 195.0760,71.7035 195.0760,101.5765 195.0615,101.6115 195.0265,101.6260 144.8335,101.6260 144.7985,101.6115 144.7840,101.5765 144.7840,71.7035 144.7985,71.6685 144.8335,71.6540 195.0265,71.6540 Z"/> 
</g>
</g>
</g> 
</mask><mask id="hole-mask"><g><rect x="144.734" y="71.604" fill="white" width="50.392" height="30.072"/><polyline stroke-linecap="round" stroke="black" stroke-width="3.0" points="-0.0 0 0.0 0" transform="translate(149.61 76.48) rotate(-0.0)"/><polyline stroke-linecap="round" stroke="black" stroke-width="3.0" points="-0.0 0 0.0 0" transform="translate(190.25 76.48) rotate(-0.0)"/><polyline stroke-linecap="round" stroke="black" stroke-width="3.0" points="-0.0 0 0.0 0" transform="translate(149.61 96.8) rotate(-0.0)"/><polyline stroke-linecap="round" stroke="black" stroke-width="3.0" points="-0.0 0 0.0 0" transform="translate(190.25 96.8) rotate(-0.0)"/><polyline stroke-linecap="round" stroke="black" stroke-width="0.889" points="-0.0 0 0.0 0" transform="translate(148.8 82.43) rotate(-180.0)"/><polyline stroke-linecap="round" stroke="black" stroke-width="0.889" points="-0.0 0 0.0 0" transform="translate(148.8 84.97) rotate(-180.0)"/><polyline stroke-linecap="round" stroke="black" stroke-width="0.4" points="-0.0 0 0.0 0" transform="translate(167.9 84.65) rotate(-0.0)"/><polyline stroke-linecap="round" stroke="black" stroke-width="0.4" points="-0.0 0 0.0 0" transform="translate(155.15 92.6) rotate(-0.0)"/></g></mask></defs><g transform="scale(-1,1)" id="boardContainer"><g id="substrate" clip-path="url(#cut-off)" mask="url(#hole-mask)"><g id="substrate-board" style="fill:#f1f4f3; stroke:#f1f4f3;"><path d=" M 195.076 101.626 L 195.076 71.654 L 144.784 71.654 L 144.784 101.626 L 195.076 101.626 " style="fill-rule: evenodd;"/><g style="fill-opacity: 0.0;stroke-width: 0.1000;stroke-opacity: 1;stroke-linecap: round;stroke-linejoin: round">
<path d="M144.7840 101.6260 L195.0760 101.6260 "/>
<path d="M144.7840 71.6540 L195.0760 71.6540 "/>
<path d="M195.0760 71.6540 L195.0760 101.6260 "/>
<path d="M144.7840 101.6260 L144.7840 71.6540 "/>
</g> 
</g><g id="substrate-clad" style="fill:#72786c; stroke:#72786c;"><g style="fill-opacity: 0.0;stroke-width: 0.0000;stroke-opacity: 1;stroke-linecap: round;stroke-linejoin: round">
<g style="fill-opacity: 1.0000;stroke-width: 0.0000;stroke-opacity: 1;stroke-linecap: round;stroke-linejoin: round">
<circle cx="149.6100" cy="76.4800" r="3.2000"/> 
</g>
<g style="fill-opacity: 1.0000;stroke-width: 0.0000;stroke-opacity: 1;stroke-linecap: round;stroke-linejoin: round">
<circle cx="190.2500" cy="76.4800" r="3.2000"/> 
</g>
<g style="fill-opacity: 1.0000;stroke-width: 0.0000;stroke-opacity: 1;stroke-linecap: round;stroke-linejoin: round">
<circle cx="149.6100" cy="96.8000" r="3.2000"/> 
</g>
<g style="fill-opacity: 1.0000;stroke-width: 0.0000;stroke-opacity: 1;stroke-linecap: round;stroke-linejoin: round">
<circle cx="190.2500" cy="96.8000" r="3.2000"/> 
</g>
<g style="fill-opacity: 1.0000;stroke-width: 0.0000;stroke-opacity: 1;stroke-linecap: round;stroke-linejoin: round">
<path style="fill-opacity: 1.0000;stroke-width: 0.0000;stroke-opacity: 1;stroke-linecap: round;stroke-linejoin: round;fill-rule: evenodd" d="M 155.9000,80.2000 155.9765,80.2152 156.0414,80.2586 156.0848,80.3235 156.1000,80.4000 156.1000,84.2000 156.0848,84.2765 156.0414,84.3414 155.9765,84.3848 155.9000,84.4000 153.9000,84.4000 153.8235,84.3848 153.7586,84.3414 153.7152,84.2765 153.7000,84.2000 153.7000,80.4000 153.7152,80.3235 153.7586,80.2586 153.8235,80.2152 153.9000,80.2000 Z"/> 
</g>
<g style="fill-opacity: 1.0000;stroke-width: 0.0000;stroke-opacity: 1;stroke-linecap: round;stroke-linejoin: round">
<circle cx="167.9000" cy="84.6500" r="0.4549"/> 
</g>
<g style="fill-opacity: 1.0000;stroke-width: 0.0000;stroke-opacity: 1;stroke-linecap: round;stroke-linejoin: round">
<path style="fill-opacity: 1.0000;stroke-width: 0.0000;stroke-opacity: 1;stroke-linecap: round;stroke-linejoin: round;fill-rule: evenodd" d="M 149.7620,83.1920 149.7468,83.2685 149.7034,83.3334 149.6385,83.3768 149.5620,83.3920 148.0380,83.3920 147.9615,83.3768 147.8966,83.3334 147.8532,83.2685 147.8380,83.1920 147.8380,81.6680 147.8532,81.5915 147.8966,81.5266 147.9615,81.4832 148.0380,81.4680 149.5620,81.4680 149.6385,81.4832 149.7034,81.5266 149.7468,81.5915 149.7620,81.6680 Z"/> 
<path style="fill-opacity: 1.0000;stroke-width: 0.0000;stroke-opacity: 1;stroke-linecap: round;stroke-linejoin: round;fill-rule: evenodd" d="M 149.7620,85.7320 149.7468,85.8085 149.7034,85.8734 149.6385,85.9168 149.5620,85.9320 148.0380,85.9320 147.9615,85.9168 147.8966,85.8734 147.8532,85.8085 147.8380,85.7320 147.8380,84.2080 147.8532,84.1315 147.8966,84.0666 147.9615,84.0232 148.0380,84.0080 149.5620,84.0080 149.6385,84.0232 149.7034,84.0666 149.7468,84.1315 149.7620,84.2080 Z"/> 
</g>
<g style="fill-opacity: 1.0000;stroke-width: 0.0000;stroke-opacity: 1;stroke-linecap: round;stroke-linejoin: round">
<path style="fill-opacity: 1.0000;stroke-width: 0.0000;stroke-opacity: 1;stroke-linecap: round;stroke-linejoin: round;fill-rule: evenodd" d="M 153.8500,93.1000 153.7735,93.0848 153.7086,93.0414 153.6652,92.9765 153.6500,92.9000 153.6500,89.1000 153.6652,89.0235 153.7086,88.9586 153.7735,88.9152 153.8500,88.9000 155.8500,88.9000 155.9265,88.9152 155.9914,88.9586 156.0348,89.0235 156.0500,89.1000 156.0500,92.9000 156.0348,92.9765 155.9914,93.0414 155.9265,93.0848 155.8500,93.1000 Z"/> 
</g>
<g style="fill-opacity: 1.0000;stroke-width: 0.0000;stroke-opacity: 1;stroke-linecap: round;stroke-linejoin: round">
<g>
<path style="fill-opacity: 1.0000;stroke-width: 0.0000;stroke-opacity: 1;stroke-linecap: round;stroke-linejoin: round;fill-rule: evenodd" d="M 195.0615,71.6685 195.0760,71.7035 195.0760,101.5765 195.0615,101.6115 195.0265,101.6260 144.8335,101.6260 144.7985,101.6115 144.7840,101.5765 144.7840,71.7035 144.7985,71.6685 144.8335,71.6540 195.0265,71.6540 Z"/> 
</g>
</g>
</g> 
</g><g id="substrate-copper" style="fill:#f8f8f7; stroke:#f8f8f7;"><g style="fill-opacity: 0.0;stroke-width: 0.3000;stroke-opacity: 1;stroke-linecap: round;stroke-linejoin: round">
<text x="157.3240" y="100.1740" transform="scale(-1 1) translate(-314.648000 0)" textLength="6.1643" font-size="2.0000" lengthAdjust="spacingAndGlyphs" text-anchor="middle" opacity="0">MLAB</text>
<g class="stroked-text"><desc>MLAB</desc>
<path d="M159.8240 100.1023 L159.8240 98.6023 "/>
<path d="M159.8240 98.6023 L159.3240 99.6738 "/>
<path d="M159.3240 99.6738 L158.8240 98.6023 "/>
<path d="M158.8240 98.6023 L158.8240 100.1023 "/>
<path d="M157.3954 100.1023 L158.1097 100.1023 "/>
<path d="M158.1097 100.1023 L158.1097 98.6023 "/>
<path d="M156.9669 99.6738 L156.2526 99.6738 "/>
<path d="M157.1097 100.1023 L156.6097 98.6023 "/>
<path d="M156.6097 98.6023 L156.1097 100.1023 "/>
<path d="M155.1097 99.3166 L154.8954 99.3880 "/>
<path d="M154.8954 99.3880 L154.8240 99.4595 "/>
<path d="M154.8240 99.4595 L154.7526 99.6023 "/>
<path d="M154.7526 99.6023 L154.7526 99.8166 "/>
<path d="M154.7526 99.8166 L154.8240 99.9595 "/>
<path d="M154.8240 99.9595 L154.8954 100.0309 "/>
<path d="M154.8954 100.0309 L155.0383 100.1023 "/>
<path d="M155.0383 100.1023 L155.6097 100.1023 "/>
<path d="M155.6097 100.1023 L155.6097 98.6023 "/>
<path d="M155.6097 98.6023 L155.1097 98.6023 "/>
<path d="M155.1097 98.6023 L154.9669 98.6738 "/>
<path d="M154.9669 98.6738 L154.8954 98.7452 "/>
<path d="M154.8954 98.7452 L154.8240 98.8880 "/>
<path d="M154.8240 98.8880 L154.8240 99.0309 "/>
<path d="M154.8240 99.0309 L154.8954 99.1738 "/>
<path d="M154.8954 99.1738 L154.9669 99.2452 "/>
<path d="M154.9669 99.2452 L155.1097 99.3166 "/>
<path d="M155.1097 99.3166 L155.6097 99.3166 "/>
</g><g style="fill-opacity: 1.0000;stroke-width: 0.0000;stroke-opacity: 1;stroke-linecap: round;stroke-linejoin: round">
<circle cx="149.6100" cy="76.4800" r="3.0000"/> 
</g>
<g style="fill-opacity: 1.0000;stroke-width: 0.0000;stroke-opacity: 1;stroke-linecap: round;stroke-linejoin: round">
<circle cx="190.2500" cy="76.4800" r="3.0000"/> 
</g>
<g style="fill-opacity: 1.0000;stroke-width: 0.0000;stroke-opacity: 1;stroke-linecap: round;stroke-linejoin: round">
<circle cx="149.6100" cy="96.8000" r="3.0000"/> 
</g>
<g style="fill-opacity: 1.0000;stroke-width: 0.0000;stroke-opacity: 1;stroke-linecap: round;stroke-linejoin: round">
<circle cx="190.2500" cy="96.8000" r="3.0000"/> 
</g>
<g style="fill-opacity: 1.0000;stroke-width: 0.0000;stroke-opacity: 1;stroke-linecap: round;stroke-linejoin: round">
<path style="fill-opacity: 1.0000;stroke-width: 0.0000;stroke-opacity: 1;stroke-linecap: round;stroke-linejoin: round;fill-rule: evenodd" d="M 153.9000,80.4000 155.9000,80.4000 155.9000,84.2000 153.9000,84.2000 Z"/> 
</g>
<g style="fill-opacity: 1.0000;stroke-width: 0.0000;stroke-opacity: 1;stroke-linecap: round;stroke-linejoin: round">
<circle cx="167.9000" cy="84.6500" r="0.2550"/> 
</g>
<g style="fill-opacity: 1.0000;stroke-width: 0.0000;stroke-opacity: 1;stroke-linecap: round;stroke-linejoin: round">
<path style="fill-opacity: 1.0000;stroke-width: 0.0000;stroke-opacity: 1;stroke-linecap: round;stroke-linejoin: round;fill-rule: evenodd" d="M 149.5620,81.6680 149.5620,83.1920 148.0380,83.1920 148.0380,81.6680 Z"/> 
<path style="fill-opacity: 1.0000;stroke-width: 0.0000;stroke-opacity: 1;stroke-linecap: round;stroke-linejoin: round;fill-rule: evenodd" d="M 149.5620,84.2080 149.5620,85.7320 148.0380,85.7320 148.0380,84.2080 Z"/> 
</g>
<g style="fill-opacity: 1.0000;stroke-width: 0.0000;stroke-opacity: 1;stroke-linecap: round;stroke-linejoin: round">
<path style="fill-opacity: 1.0000;stroke-width: 0.0000;stroke-opacity: 1;stroke-linecap: round;stroke-linejoin: round;fill-rule: evenodd" d="M 155.8500,92.9000 153.8500,92.9000 153.8500,89.1000 155.8500,89.1000 Z"/> 
</g>
<g style="fill-opacity: 1.0000;stroke-width: 0.0000;stroke-opacity: 1;stroke-linecap: round;stroke-linejoin: round">
<circle cx="167.9000" cy="84.6500" r="0.4000"/> 
</g>
<g style="fill-opacity: 1.0000;stroke-width: 0.0000;stroke-opacity: 1;stroke-linecap: round;stroke-linejoin: round">
<circle cx="155.1500" cy="92.6000" r="0.4000"/> 
</g>
<g style="fill-opacity: 0.0;stroke-width: 0.4000;stroke-opacity: 1;stroke-linecap: round;stroke-linejoin: round">
<path d="M154.9000 83.1996 L153.1296 84.9700 "/>
<path d="M154.9000 82.3000 L154.9000 83.1996 "/>
<path d="M153.1296 84.9700 L148.8000 84.9700 "/>
</g>
<g style="fill-opacity: 0.0;stroke-width: 0.4000;stroke-opacity: 1;stroke-linecap: round;stroke-linejoin: round">
<g style="fill-opacity: 1.0000;stroke-width: 0.0000;stroke-opacity: 1;stroke-linecap: round;stroke-linejoin: round">
<path style="fill-opacity: 1.0000;stroke-width: 0.0000;stroke-opacity: 1;stroke-linecap: round;stroke-linejoin: round;fill-rule: evenodd" d="M 172.3161,84.1440 172.3626,84.1977 172.3740,84.2500 172.3740,88.9980 172.3540,89.0661 172.3003,89.1126 172.2480,89.1240 167.5000,89.1240 167.4319,89.1040 167.3854,89.0503 167.3740,88.9980 167.3740,84.2500 167.3940,84.1819 167.4477,84.1354 167.5000,84.1240 172.2480,84.1240 Z"/> 
</g>
</g>
</g> 
</g><g id="substrate-pads" style="fill:#c4c1ba; stroke:#c4c1ba;" mask="url(#pads-mask)"><g style="fill-opacity: 0.0;stroke-width: 0.3000;stroke-opacity: 1;stroke-linecap: round;stroke-linejoin: round">
<text x="157.3240" y="100.1740" transform="scale(-1 1) translate(-314.648000 0)" textLength="6.1643" font-size="2.0000" lengthAdjust="spacingAndGlyphs" text-anchor="middle" opacity="0">MLAB</text>
<g class="stroked-text"><desc>MLAB</desc>
<path d="M159.8240 100.1023 L159.8240 98.6023 "/>
<path d="M159.8240 98.6023 L159.3240 99.6738 "/>
<path d="M159.3240 99.6738 L158.8240 98.6023 "/>
<path d="M158.8240 98.6023 L158.8240 100.1023 "/>
<path d="M157.3954 100.1023 L158.1097 100.1023 "/>
<path d="M158.1097 100.1023 L158.1097 98.6023 "/>
<path d="M156.9669 99.6738 L156.2526 99.6738 "/>
<path d="M157.1097 100.1023 L156.6097 98.6023 "/>
<path d="M156.6097 98.6023 L156.1097 100.1023 "/>
<path d="M155.1097 99.3166 L154.8954 99.3880 "/>
<path d="M154.8954 99.3880 L154.8240 99.4595 "/>
<path d="M154.8240 99.4595 L154.7526 99.6023 "/>
<path d="M154.7526 99.6023 L154.7526 99.8166 "/>
<path d="M154.7526 99.8166 L154.8240 99.9595 "/>
<path d="M154.8240 99.9595 L154.8954 100.0309 "/>
<path d="M154.8954 100.0309 L155.0383 100.1023 "/>
<path d="M155.0383 100.1023 L155.6097 100.1023 "/>
<path d="M155.6097 100.1023 L155.6097 98.6023 "/>
<path d="M155.6097 98.6023 L155.1097 98.6023 "/>
<path d="M155.1097 98.6023 L154.9669 98.6738 "/>
<path d="M154.9669 98.6738 L154.8954 98.7452 "/>
<path d="M154.8954 98.7452 L154.8240 98.8880 "/>
<path d="M154.8240 98.8880 L154.8240 99.0309 "/>
<path d="M154.8240 99.0309 L154.8954 99.1738 "/>
<path d="M154.8954 99.1738 L154.9669 99.2452 "/>
<path d="M154.9669 99.2452 L155.1097 99.3166 "/>
<path d="M155.1097 99.3166 L155.6097 99.3166 "/>
</g><g style="fill-opacity: 1.0000;stroke-width: 0.0000;stroke-opacity: 1;stroke-linecap: round;stroke-linejoin: round">
<circle cx="149.6100" cy="76.4800" r="3.0000"/> 
</g>
<g style="fill-opacity: 1.0000;stroke-width: 0.0000;stroke-opacity: 1;stroke-linecap: round;stroke-linejoin: round">
<circle cx="190.2500" cy="76.4800" r="3.0000"/> 
</g>
<g style="fill-opacity: 1.0000;stroke-width: 0.0000;stroke-opacity: 1;stroke-linecap: round;stroke-linejoin: round">
<circle cx="149.6100" cy="96.8000" r="3.0000"/> 
</g>
<g style="fill-opacity: 1.0000;stroke-width: 0.0000;stroke-opacity: 1;stroke-linecap: round;stroke-linejoin: round">
<circle cx="190.2500" cy="96.8000" r="3.0000"/> 
</g>
<g style="fill-opacity: 1.0000;stroke-width: 0.0000;stroke-opacity: 1;stroke-linecap: round;stroke-linejoin: round">
<path style="fill-opacity: 1.0000;stroke-width: 0.0000;stroke-opacity: 1;stroke-linecap: round;stroke-linejoin: round;fill-rule: evenodd" d="M 153.9000,80.4000 155.9000,80.4000 155.9000,84.2000 153.9000,84.2000 Z"/> 
</g>
<g style="fill-opacity: 1.0000;stroke-width: 0.0000;stroke-opacity: 1;stroke-linecap: round;stroke-linejoin: round">
<circle cx="167.9000" cy="84.6500" r="0.2550"/> 
</g>
<g style="fill-opacity: 1.0000;stroke-width: 0.0000;stroke-opacity: 1;stroke-linecap: round;stroke-linejoin: round">
<path style="fill-opacity: 1.0000;stroke-width: 0.0000;stroke-opacity: 1;stroke-linecap: round;stroke-linejoin: round;fill-rule: evenodd" d="M 149.5620,81.6680 149.5620,83.1920 148.0380,83.1920 148.0380,81.6680 Z"/> 
<path style="fill-opacity: 1.0000;stroke-width: 0.0000;stroke-opacity: 1;stroke-linecap: round;stroke-linejoin: round;fill-rule: evenodd" d="M 149.5620,84.2080 149.5620,85.7320 148.0380,85.7320 148.0380,84.2080 Z"/> 
</g>
<g style="fill-opacity: 1.0000;stroke-width: 0.0000;stroke-opacity: 1;stroke-linecap: round;stroke-linejoin: round">
<path style="fill-opacity: 1.0000;stroke-width: 0.0000;stroke-opacity: 1;stroke-linecap: round;stroke-linejoin: round;fill-rule: evenodd" d="M 155.8500,92.9000 153.8500,92.9000 153.8500,89.1000 155.8500,89.1000 Z"/> 
</g>
<g style="fill-opacity: 1.0000;stroke-width: 0.0000;stroke-opacity: 1;stroke-linecap: round;stroke-linejoin: round">
<circle cx="167.9000" cy="84.6500" r="0.4000"/> 
</g>
<g style="fill-opacity: 1.0000;stroke-width: 0.0000;stroke-opacity: 1;stroke-linecap: round;stroke-linejoin: round">
<circle cx="155.1500" cy="92.6000" r="0.4000"/> 
</g>
<g style="fill-opacity: 0.0;stroke-width: 0.4000;stroke-opacity: 1;stroke-linecap: round;stroke-linejoin: round">
<path d="M154.9000 83.1996 L153.1296 84.9700 "/>
<path d="M154.9000 82.3000 L154.9000 83.1996 "/>
<path d="M153.1296 84.9700 L148.8000 84.9700 "/>
</g>
<g style="fill-opacity: 0.0;stroke-width: 0.4000;stroke-opacity: 1;stroke-linecap: round;stroke-linejoin: round">
<g style="fill-opacity: 1.0000;stroke-width: 0.0000;stroke-opacity: 1;stroke-linecap: round;stroke-linejoin: round">
<path style="fill-opacity: 1.0000;stroke-width: 0.0000;stroke-opacity: 1;stroke-linecap: round;stroke-linejoin: round;fill-rule: evenodd" d="M 172.3161,84.1440 172.3626,84.1977 172.3740,84.2500 172.3740,88.9980 172.3540,89.0661 172.3003,89.1126 172.2480,89.1240 167.5000,89.1240 167.4319,89.1040 167.3854,89.0503 167.3740,88.9980 167.3740,84.2500 167.3940,84.1819 167.4477,84.1354 167.5000,84.1240 172.2480,84.1240 Z"/> 
</g>
</g>
</g> 
</g><g id="substrate-silk" style="fill:#0b1013; stroke:#0b1013;" mask="url(#pads-mask-silkscreen)"><g style="fill-opacity: 0.0;stroke-width: 0.3000;stroke-opacity: 1;stroke-linecap: round;stroke-linejoin: round">
<text x="175.7714" y="75.7105" transform="scale(-1 1) translate(-351.542800 0)" textLength="19.2719" font-size="2.2667" lengthAdjust="spacingAndGlyphs" text-anchor="middle" opacity="0">PINHOLDER03A</text>
<g class="stroked-text"><desc>PINHOLDER03A</desc>
<path d="M184.7976 75.6314 L184.7976 73.9314 "/>
<path d="M184.7976 73.9314 L184.1500 73.9314 "/>
<path d="M184.1500 73.9314 L183.9881 74.0123 "/>
<path d="M183.9881 74.0123 L183.9071 74.0933 "/>
<path d="M183.9071 74.0933 L183.8262 74.2552 "/>
<path d="M183.8262 74.2552 L183.8262 74.4980 "/>
<path d="M183.8262 74.4980 L183.9071 74.6599 "/>
<path d="M183.9071 74.6599 L183.9881 74.7409 "/>
<path d="M183.9881 74.7409 L184.1500 74.8218 "/>
<path d="M184.1500 74.8218 L184.7976 74.8218 "/>
<path d="M183.0976 75.6314 L183.0976 73.9314 "/>
<path d="M182.2881 75.6314 L182.2881 73.9314 "/>
<path d="M182.2881 73.9314 L181.3166 75.6314 "/>
<path d="M181.3166 75.6314 L181.3166 73.9314 "/>
<path d="M180.5071 75.6314 L180.5071 73.9314 "/>
<path d="M180.5071 74.7409 L179.5357 74.7409 "/>
<path d="M179.5357 75.6314 L179.5357 73.9314 "/>
<path d="M178.4024 73.9314 L178.0785 73.9314 "/>
<path d="M178.0785 73.9314 L177.9166 74.0123 "/>
<path d="M177.9166 74.0123 L177.7547 74.1742 "/>
<path d="M177.7547 74.1742 L177.6738 74.4980 "/>
<path d="M177.6738 74.4980 L177.6738 75.0647 "/>
<path d="M177.6738 75.0647 L177.7547 75.3885 "/>
<path d="M177.7547 75.3885 L177.9166 75.5504 "/>
<path d="M177.9166 75.5504 L178.0785 75.6314 "/>
<path d="M178.0785 75.6314 L178.4024 75.6314 "/>
<path d="M178.4024 75.6314 L178.5643 75.5504 "/>
<path d="M178.5643 75.5504 L178.7262 75.3885 "/>
<path d="M178.7262 75.3885 L178.8071 75.0647 "/>
<path d="M178.8071 75.0647 L178.8071 74.4980 "/>
<path d="M178.8071 74.4980 L178.7262 74.1742 "/>
<path d="M178.7262 74.1742 L178.5643 74.0123 "/>
<path d="M178.5643 74.0123 L178.4024 73.9314 "/>
<path d="M176.1357 75.6314 L176.9452 75.6314 "/>
<path d="M176.9452 75.6314 L176.9452 73.9314 "/>
<path d="M175.5690 75.6314 L175.5690 73.9314 "/>
<path d="M175.5690 73.9314 L175.1643 73.9314 "/>
<path d="M175.1643 73.9314 L174.9214 74.0123 "/>
<path d="M174.9214 74.0123 L174.7595 74.1742 "/>
<path d="M174.7595 74.1742 L174.6785 74.3361 "/>
<path d="M174.6785 74.3361 L174.5976 74.6599 "/>
<path d="M174.5976 74.6599 L174.5976 74.9028 "/>
<path d="M174.5976 74.9028 L174.6785 75.2266 "/>
<path d="M174.6785 75.2266 L174.7595 75.3885 "/>
<path d="M174.7595 75.3885 L174.9214 75.5504 "/>
<path d="M174.9214 75.5504 L175.1643 75.6314 "/>
<path d="M175.1643 75.6314 L175.5690 75.6314 "/>
<path d="M173.8690 74.7409 L173.3024 74.7409 "/>
<path d="M173.0595 75.6314 L173.8690 75.6314 "/>
<path d="M173.8690 75.6314 L173.8690 73.9314 "/>
<path d="M173.8690 73.9314 L173.0595 73.9314 "/>
<path d="M171.3595 75.6314 L171.9262 74.8218 "/>
<path d="M172.3309 75.6314 L172.3309 73.9314 "/>
<path d="M172.3309 73.9314 L171.6833 73.9314 "/>
<path d="M171.6833 73.9314 L171.5214 74.0123 "/>
<path d="M171.5214 74.0123 L171.4404 74.0933 "/>
<path d="M171.4404 74.0933 L171.3595 74.2552 "/>
<path d="M171.3595 74.2552 L171.3595 74.4980 "/>
<path d="M171.3595 74.4980 L171.4404 74.6599 "/>
<path d="M171.4404 74.6599 L171.5214 74.7409 "/>
<path d="M171.5214 74.7409 L171.6833 74.8218 "/>
<path d="M171.6833 74.8218 L172.3309 74.8218 "/>
<path d="M170.3071 73.9314 L170.1452 73.9314 "/>
<path d="M170.1452 73.9314 L169.9833 74.0123 "/>
<path d="M169.9833 74.0123 L169.9024 74.0933 "/>
<path d="M169.9024 74.0933 L169.8214 74.2552 "/>
<path d="M169.8214 74.2552 L169.7404 74.5790 "/>
<path d="M169.7404 74.5790 L169.7404 74.9837 "/>
<path d="M169.7404 74.9837 L169.8214 75.3075 "/>
<path d="M169.8214 75.3075 L169.9024 75.4694 "/>
<path d="M169.9024 75.4694 L169.9833 75.5504 "/>
<path d="M169.9833 75.5504 L170.1452 75.6314 "/>
<path d="M170.1452 75.6314 L170.3071 75.6314 "/>
<path d="M170.3071 75.6314 L170.4690 75.5504 "/>
<path d="M170.4690 75.5504 L170.5500 75.4694 "/>
<path d="M170.5500 75.4694 L170.6309 75.3075 "/>
<path d="M170.6309 75.3075 L170.7119 74.9837 "/>
<path d="M170.7119 74.9837 L170.7119 74.5790 "/>
<path d="M170.7119 74.5790 L170.6309 74.2552 "/>
<path d="M170.6309 74.2552 L170.5500 74.0933 "/>
<path d="M170.5500 74.0933 L170.4690 74.0123 "/>
<path d="M170.4690 74.0123 L170.3071 73.9314 "/>
<path d="M169.1738 73.9314 L168.1214 73.9314 "/>
<path d="M168.1214 73.9314 L168.6881 74.5790 "/>
<path d="M168.6881 74.5790 L168.4452 74.5790 "/>
<path d="M168.4452 74.5790 L168.2833 74.6599 "/>
<path d="M168.2833 74.6599 L168.2024 74.7409 "/>
<path d="M168.2024 74.7409 L168.1214 74.9028 "/>
<path d="M168.1214 74.9028 L168.1214 75.3075 "/>
<path d="M168.1214 75.3075 L168.2024 75.4694 "/>
<path d="M168.2024 75.4694 L168.2833 75.5504 "/>
<path d="M168.2833 75.5504 L168.4452 75.6314 "/>
<path d="M168.4452 75.6314 L168.9309 75.6314 "/>
<path d="M168.9309 75.6314 L169.0928 75.5504 "/>
<path d="M169.0928 75.5504 L169.1738 75.4694 "/>
<path d="M167.4738 75.1456 L166.6643 75.1456 "/>
<path d="M167.6357 75.6314 L167.0690 73.9314 "/>
<path d="M167.0690 73.9314 L166.5024 75.6314 "/>
</g><g transform="rotate(90.000000 151.9500 91.0500)">
<text x="151.9500" y="91.8000" transform="scale(-1 1) translate(-303.900000 0)" textLength="1.7357" font-size="2.0000" lengthAdjust="spacingAndGlyphs" text-anchor="middle" opacity="0">A</text>
</g>
<g class="stroked-text"><desc>A</desc>
<path d="M151.7002 91.4071 L151.7002 90.6929 "/>
<path d="M151.2717 91.5500 L152.7717 91.0500 "/>
<path d="M152.7717 91.0500 L151.2717 90.5500 "/>
</g></g>
<g style="fill-opacity: 0.0;stroke-width: 0.2500;stroke-opacity: 1;stroke-linecap: round;stroke-linejoin: round">
<g transform="rotate(90.000000 146.5000 83.6000)">
<text x="146.5000" y="84.1000" transform="scale(-1 1) translate(-293.000000 0)" textLength="6.7583" font-size="1.3333" lengthAdjust="spacingAndGlyphs" text-anchor="middle" opacity="0">Mid GND</text>
</g>
<g class="stroked-text"><desc>Mid GND</desc>
<path d="M146.0504 86.5286 L147.0504 86.5286 "/>
<path d="M147.0504 86.5286 L146.3361 86.1952 "/>
<path d="M146.3361 86.1952 L147.0504 85.8619 "/>
<path d="M147.0504 85.8619 L146.0504 85.8619 "/>
<path d="M146.0504 85.3857 L146.7170 85.3857 "/>
<path d="M147.0504 85.3857 L147.0028 85.4333 "/>
<path d="M147.0028 85.4333 L146.9551 85.3857 "/>
<path d="M146.9551 85.3857 L147.0028 85.3381 "/>
<path d="M147.0028 85.3381 L147.0504 85.3857 "/>
<path d="M147.0504 85.3857 L146.9551 85.3857 "/>
<path d="M146.0504 84.4810 L147.0504 84.4810 "/>
<path d="M146.0980 84.4810 L146.0504 84.5762 "/>
<path d="M146.0504 84.5762 L146.0504 84.7667 "/>
<path d="M146.0504 84.7667 L146.0980 84.8619 "/>
<path d="M146.0980 84.8619 L146.1456 84.9095 "/>
<path d="M146.1456 84.9095 L146.2409 84.9571 "/>
<path d="M146.2409 84.9571 L146.5266 84.9571 "/>
<path d="M146.5266 84.9571 L146.6218 84.9095 "/>
<path d="M146.6218 84.9095 L146.6694 84.8619 "/>
<path d="M146.6694 84.8619 L146.7170 84.7667 "/>
<path d="M146.7170 84.7667 L146.7170 84.5762 "/>
<path d="M146.7170 84.5762 L146.6694 84.4810 "/>
<path d="M147.0028 82.7190 L147.0504 82.8143 "/>
<path d="M147.0504 82.8143 L147.0504 82.9571 "/>
<path d="M147.0504 82.9571 L147.0028 83.1000 "/>
<path d="M147.0028 83.1000 L146.9075 83.1952 "/>
<path d="M146.9075 83.1952 L146.8123 83.2429 "/>
<path d="M146.8123 83.2429 L146.6218 83.2905 "/>
<path d="M146.6218 83.2905 L146.4790 83.2905 "/>
<path d="M146.4790 83.2905 L146.2885 83.2429 "/>
<path d="M146.2885 83.2429 L146.1932 83.1952 "/>
<path d="M146.1932 83.1952 L146.0980 83.1000 "/>
<path d="M146.0980 83.1000 L146.0504 82.9571 "/>
<path d="M146.0504 82.9571 L146.0504 82.8619 "/>
<path d="M146.0504 82.8619 L146.0980 82.7190 "/>
<path d="M146.0980 82.7190 L146.1456 82.6714 "/>
<path d="M146.1456 82.6714 L146.4790 82.6714 "/>
<path d="M146.4790 82.6714 L146.4790 82.8619 "/>
<path d="M146.0504 82.2429 L147.0504 82.2429 "/>
<path d="M147.0504 82.2429 L146.0504 81.6714 "/>
<path d="M146.0504 81.6714 L147.0504 81.6714 "/>
<path d="M146.0504 81.1952 L147.0504 81.1952 "/>
<path d="M147.0504 81.1952 L147.0504 80.9571 "/>
<path d="M147.0504 80.9571 L147.0028 80.8143 "/>
<path d="M147.0028 80.8143 L146.9075 80.7190 "/>
<path d="M146.9075 80.7190 L146.8123 80.6714 "/>
<path d="M146.8123 80.6714 L146.6218 80.6238 "/>
<path d="M146.6218 80.6238 L146.4790 80.6238 "/>
<path d="M146.4790 80.6238 L146.2885 80.6714 "/>
<path d="M146.2885 80.6714 L146.1932 80.7190 "/>
<path d="M146.1932 80.7190 L146.0980 80.8143 "/>
<path d="M146.0980 80.8143 L146.0504 80.9571 "/>
<path d="M146.0504 80.9571 L146.0504 81.1952 "/>
</g></g>
<g style="fill-opacity: 0.0;stroke-width: 0.3000;stroke-opacity: 1;stroke-linecap: round;stroke-linejoin: round">
<text x="160.0240" y="75.6425" transform="scale(-1 1) translate(-320.048000 0)" textLength="9.3786" font-size="2.0000" lengthAdjust="spacingAndGlyphs" text-anchor="middle" opacity="0">MLAB.cz</text>
<g class="stroked-text"><desc>MLAB.cz</desc>
<path d="M164.1311 75.5708 L164.1311 74.0708 "/>
<path d="M164.1311 74.0708 L163.6311 75.1423 "/>
<path d="M163.6311 75.1423 L163.1311 74.0708 "/>
<path d="M163.1311 74.0708 L163.1311 75.5708 "/>
<path d="M161.7026 75.5708 L162.4169 75.5708 "/>
<path d="M162.4169 75.5708 L162.4169 74.0708 "/>
<path d="M161.2740 75.1423 L160.5597 75.1423 "/>
<path d="M161.4169 75.5708 L160.9169 74.0708 "/>
<path d="M160.9169 74.0708 L160.4169 75.5708 "/>
<path d="M159.4169 74.7851 L159.2026 74.8565 "/>
<path d="M159.2026 74.8565 L159.1311 74.9280 "/>
<path d="M159.1311 74.9280 L159.0597 75.0708 "/>
<path d="M159.0597 75.0708 L159.0597 75.2851 "/>
<path d="M159.0597 75.2851 L159.1311 75.4280 "/>
<path d="M159.1311 75.4280 L159.2026 75.4994 "/>
<path d="M159.2026 75.4994 L159.3454 75.5708 "/>
<path d="M159.3454 75.5708 L159.9169 75.5708 "/>
<path d="M159.9169 75.5708 L159.9169 74.0708 "/>
<path d="M159.9169 74.0708 L159.4169 74.0708 "/>
<path d="M159.4169 74.0708 L159.2740 74.1423 "/>
<path d="M159.2740 74.1423 L159.2026 74.2137 "/>
<path d="M159.2026 74.2137 L159.1311 74.3565 "/>
<path d="M159.1311 74.3565 L159.1311 74.4994 "/>
<path d="M159.1311 74.4994 L159.2026 74.6423 "/>
<path d="M159.2026 74.6423 L159.2740 74.7137 "/>
<path d="M159.2740 74.7137 L159.4169 74.7851 "/>
<path d="M159.4169 74.7851 L159.9169 74.7851 "/>
<path d="M158.4169 75.4280 L158.3454 75.4994 "/>
<path d="M158.3454 75.4994 L158.4169 75.5708 "/>
<path d="M158.4169 75.5708 L158.4883 75.4994 "/>
<path d="M158.4883 75.4994 L158.4169 75.4280 "/>
<path d="M158.4169 75.4280 L158.4169 75.5708 "/>
<path d="M157.0597 75.4994 L157.2026 75.5708 "/>
<path d="M157.2026 75.5708 L157.4883 75.5708 "/>
<path d="M157.4883 75.5708 L157.6311 75.4994 "/>
<path d="M157.6311 75.4994 L157.7026 75.4280 "/>
<path d="M157.7026 75.4280 L157.7740 75.2851 "/>
<path d="M157.7740 75.2851 L157.7740 74.8565 "/>
<path d="M157.7740 74.8565 L157.7026 74.7137 "/>
<path d="M157.7026 74.7137 L157.6311 74.6423 "/>
<path d="M157.6311 74.6423 L157.4883 74.5708 "/>
<path d="M157.4883 74.5708 L157.2026 74.5708 "/>
<path d="M157.2026 74.5708 L157.0597 74.6423 "/>
<path d="M156.5597 74.5708 L155.7740 74.5708 "/>
<path d="M155.7740 74.5708 L156.5597 75.5708 "/>
<path d="M156.5597 75.5708 L155.7740 75.5708 "/>
</g><g transform="rotate(90.000000 152.2000 82.3000)">
<text x="152.2000" y="83.0500" transform="scale(-1 1) translate(-304.400000 0)" textLength="4.2357" font-size="2.0000" lengthAdjust="spacingAndGlyphs" text-anchor="middle" opacity="0">Mid</text>
</g>
<g class="stroked-text"><desc>Mid</desc>
<path d="M151.5217 83.8357 L153.0217 83.8357 "/>
<path d="M153.0217 83.8357 L151.9502 83.3357 "/>
<path d="M151.9502 83.3357 L153.0217 82.8357 "/>
<path d="M153.0217 82.8357 L151.5217 82.8357 "/>
<path d="M151.5217 82.1214 L152.5217 82.1214 "/>
<path d="M153.0217 82.1214 L152.9502 82.1929 "/>
<path d="M152.9502 82.1929 L152.8788 82.1214 "/>
<path d="M152.8788 82.1214 L152.9502 82.0500 "/>
<path d="M152.9502 82.0500 L153.0217 82.1214 "/>
<path d="M153.0217 82.1214 L152.8788 82.1214 "/>
<path d="M151.5217 80.7643 L153.0217 80.7643 "/>
<path d="M151.5931 80.7643 L151.5217 80.9071 "/>
<path d="M151.5217 80.9071 L151.5217 81.1929 "/>
<path d="M151.5217 81.1929 L151.5931 81.3357 "/>
<path d="M151.5931 81.3357 L151.6645 81.4071 "/>
<path d="M151.6645 81.4071 L151.8074 81.4786 "/>
<path d="M151.8074 81.4786 L152.2360 81.4786 "/>
<path d="M152.2360 81.4786 L152.3788 81.4071 "/>
<path d="M152.3788 81.4071 L152.4502 81.3357 "/>
<path d="M152.4502 81.3357 L152.5217 81.1929 "/>
<path d="M152.5217 81.1929 L152.5217 80.9071 "/>
<path d="M152.5217 80.9071 L152.4502 80.7643 "/>
</g></g>
<g style="fill-opacity: 0.0;stroke-width: 0.1500;stroke-opacity: 1;stroke-linecap: round;stroke-linejoin: round">
<path d="M153.7000 80.2000 L153.7000 84.4000 "/>
<path d="M153.7000 84.4000 L156.1000 84.4000 "/>
<path d="M156.1000 84.4000 L156.1000 80.2000 "/>
<path d="M156.1000 80.2000 L153.7000 80.2000 "/>
<path d="M147.5300 86.2400 L150.0700 86.2400 "/>
<path d="M150.0700 86.2400 L150.0700 81.1600 "/>
<path d="M150.0700 81.1600 L147.5300 81.1600 "/>
<path d="M147.5300 81.1600 L147.5300 86.2400 "/>
<path d="M156.0500 93.1000 L156.0500 88.9000 "/>
<path d="M153.6500 93.1000 L156.0500 93.1000 "/>
<path d="M156.0500 88.9000 L153.6500 88.9000 "/>
<path d="M153.6500 88.9000 L153.6500 93.1000 "/>
<g style="fill-opacity: 1.0000;stroke-width: 0.0000;stroke-opacity: 1;stroke-linecap: round;stroke-linejoin: round">
<path style="fill-opacity: 1.0000;stroke-width: 0.0000;stroke-opacity: 1;stroke-linecap: round;stroke-linejoin: round;fill-rule: evenodd" d="M 149.5620,81.6680 149.5620,83.1920 148.0380,83.1920 148.0380,81.6680 Z"/> 
<path style="fill-opacity: 1.0000;stroke-width: 0.0000;stroke-opacity: 1;stroke-linecap: round;stroke-linejoin: round;fill-rule: evenodd" d="M 149.5620,84.2080 149.5620,85.7320 148.0380,85.7320 148.0380,84.2080 Z"/> 
</g>
</g> 
</g><g id="substrate-outline" style="fill:#000000; stroke:#000000; stroke-width: 0.15"><g style="fill-opacity: 0.0;stroke-opacity: 1;stroke-linecap: round;stroke-linejoin: round">
<path d="M144.7840 101.6260 L195.0760 101.6260 "/>
<path d="M144.7840 71.6540 L195.0760 71.6540 "/>
<path d="M195.0760 71.6540 L195.0760 101.6260 "/>
<path d="M144.7840 101.6260 L144.7840 71.6540 "/>
</g> 
<path d="M -1.5 0.0 A 1.5 1.5 0 1 1 1.5 0.0 L 1.5 -0.0 A 1.5 1.5 0 1 1 -1.5 -0.0 Z" transform="translate(149.61 76.48) rotate(-0.0)"/><path d="M -1.5 0.0 A 1.5 1.5 0 1 1 1.5 0.0 L 1.5 -0.0 A 1.5 1.5 0 1 1 -1.5 -0.0 Z" transform="translate(190.25 76.48) rotate(-0.0)"/><path d="M -1.5 0.0 A 1.5 1.5 0 1 1 1.5 0.0 L 1.5 -0.0 A 1.5 1.5 0 1 1 -1.5 -0.0 Z" transform="translate(149.61 96.8) rotate(-0.0)"/><path d="M -1.5 0.0 A 1.5 1.5 0 1 1 1.5 0.0 L 1.5 -0.0 A 1.5 1.5 0 1 1 -1.5 -0.0 Z" transform="translate(190.25 96.8) rotate(-0.0)"/><path d="M -0.4445 0.0 A 0.4445 0.4445 0 1 1 0.4445 0.0 L 0.4445 -0.0 A 0.4445 0.4445 0 1 1 -0.4445 -0.0 Z" transform="translate(148.8 82.43) rotate(-180.0)"/><path d="M -0.4445 0.0 A 0.4445 0.4445 0 1 1 0.4445 0.0 L 0.4445 -0.0 A 0.4445 0.4445 0 1 1 -0.4445 -0.0 Z" transform="translate(148.8 84.97) rotate(-180.0)"/><path d="M -0.2 0.0 A 0.2 0.2 0 1 1 0.2 0.0 L 0.2 -0.0 A 0.2 0.2 0 1 1 -0.2 -0.0 Z" transform="translate(167.9 84.65) rotate(-0.0)"/><path d="M -0.2 0.0 A 0.2 0.2 0 1 1 0.2 0.0 L 0.2 -0.0 A 0.2 0.2 0 1 1 -0.2 -0.0 Z" transform="translate(155.15 92.6) rotate(-0.0)"/></g></g><g id="substrate-paste" style="fill:#8a8a8a; stroke:#8a8a8a;"><g style="fill-opacity: 0.0;stroke-width: 0.0000;stroke-opacity: 1;stroke-linecap: round;stroke-linejoin: round">
<g style="fill-opacity: 1.0000;stroke-width: 0.0000;stroke-opacity: 1;stroke-linecap: round;stroke-linejoin: round">
<path style="fill-opacity: 1.0000;stroke-width: 0.0000;stroke-opacity: 1;stroke-linecap: round;stroke-linejoin: round;fill-rule: evenodd" d="M 153.9000,80.4000 155.9000,80.4000 155.9000,84.2000 153.9000,84.2000 Z"/> 
</g>
<g style="fill-opacity: 1.0000;stroke-width: 0.0000;stroke-opacity: 1;stroke-linecap: round;stroke-linejoin: round">
<path style="fill-opacity: 1.0000;stroke-width: 0.0000;stroke-opacity: 1;stroke-linecap: round;stroke-linejoin: round;fill-rule: evenodd" d="M 155.8500,92.9000 153.8500,92.9000 153.8500,89.1000 155.8500,89.1000 Z"/> 
</g>
</g> 
</g></g><g transform="scale(-1,1)" id="componentContainer"><!--Mlab_Pin_Headers:Straight_1x02:J2--><g transform="translate(148.8 83.7) scale(0.9999997307694067, 1.0000000583655464) rotate(-180.0) translate(-1.3 -2.5699997)"><g id="pref_12_Mlab_Pin_Headers__Straight_1x02_HEADER_1x02"><g id="pref_13pin" style="display:inline">
    <rect style="opacity:1;fill:#000000;fill-opacity:1;fill-rule:nonzero;stroke:#141414;stroke-width:1.15387;stroke-linecap:round;stroke-linejoin:bevel;stroke-miterlimit:4;stroke-dasharray:none;stroke-opacity:1" id="pref_13rect4686" width="1.4461316" height="1.4461316" x="0.57693499" y="0.57693422"/>
    <rect y="1.0419546" x="1.0419546" height="0.51612419" width="0.51612419" id="pref_13rect156830" style="opacity:1;fill:#fcf23a;fill-opacity:1;fill-rule:nonzero;stroke:#eb9d02;stroke-width:0.123876;stroke-linecap:round;stroke-linejoin:bevel;stroke-miterlimit:4;stroke-dasharray:none;stroke-opacity:1"/>
  </g>
  <g transform="translate(0,2.5400182)" id="pref_13g13" style="display:inline">
    <rect style="opacity:1;fill:#000000;fill-opacity:1;fill-rule:nonzero;stroke:#141414;stroke-width:1.15387;stroke-linecap:round;stroke-linejoin:bevel;stroke-miterlimit:4;stroke-dasharray:none;stroke-opacity:1" id="pref_13rect9" width="1.4461316" height="1.4461316" x="0.57693499" y="0.57693422"/>
    <rect y="1.0419546" x="1.0419546" height="0.51612419" width="0.51612419" id="pref_13rect11" style="opacity:1;fill:#fcf23a;fill-opacity:1;fill-rule:nonzero;stroke:#eb9d02;stroke-width:0.123876;stroke-linecap:round;stroke-linejoin:bevel;stroke-miterlimit:4;stroke-dasharray:none;stroke-opacity:1"/>
  </g>
  </g></g><!--Mlab_Mechanical:MountingHole_3mm.back:M3--><g transform="translate(149.61 76.48) scale(1.0, 1.0) rotate(-0.0) translate(-0.75 -0.75)"><g id="pref_12_Mlab_Mechanical__MountingHole_3mmback_HOLE"><defs xmlns:xlink="http://www.w3.org/1999/xlink" id="pref_14defs13">
    <linearGradient id="pref_14linearGradient3674">
      <stop style="stop-color:#2b2b2b;stop-opacity:1" offset="0" id="pref_14stop3666"/>
      <stop style="stop-color:#5e5e5e;stop-opacity:0.78431374" offset="0.48605427" id="pref_14stop4288"/>
      <stop style="stop-color:#838383;stop-opacity:0" offset="0.53796667" id="pref_14stop3668"/>
      <stop style="stop-color:#dcdcdc;stop-opacity:0" offset="0.76845002" id="pref_14stop3670"/>
      <stop style="stop-color:#e4e4e4;stop-opacity:0.88235301" offset="1" id="pref_14stop3672"/>
    </linearGradient>
    <linearGradient id="pref_14linearGradient2885">
      <stop style="stop-color:#8f8f8f;stop-opacity:1" offset="0" id="pref_14stop2881"/>
      <stop style="stop-color:#e5e5e5;stop-opacity:1" offset="1" id="pref_14stop2883"/>
    </linearGradient>
    <linearGradient id="pref_14linearGradient1894">
      <stop style="stop-color:#b2b2b2;stop-opacity:1" offset="0" id="pref_14stop1890"/>
      <stop style="stop-color:#838383;stop-opacity:1" offset="0.3359659" id="pref_14stop2785"/>
      <stop style="stop-color:#dcdcdc;stop-opacity:1" offset="0.76141548" id="pref_14stop2655"/>
      <stop style="stop-color:#bebebe;stop-opacity:1" offset="1" id="pref_14stop1892"/>
    </linearGradient>
    <linearGradient id="pref_14linearGradient3692-7">
      <stop style="stop-color:#d3d3d3;stop-opacity:1;" offset="0" id="pref_14stop3688"/>
      <stop style="stop-color:#b2b2b2;stop-opacity:1" offset="0.81006318" id="pref_14stop5318"/>
      <stop style="stop-color:#c8c8c8;stop-opacity:1" offset="0.87439835" id="pref_14stop4242"/>
      <stop style="stop-color:#b8b8b8;stop-opacity:1;" offset="0.94349736" id="pref_14stop4310"/>
      <stop style="stop-color:#aeaeae;stop-opacity:1" offset="1" id="pref_14stop3690"/>
    </linearGradient>
    <radialGradient xlink:href="#pref_14linearGradient3692-7" id="pref_14radialGradient1176" cx="0.75" cy="0.75" fx="0.75" fy="0.75" r="1.5" gradientUnits="userSpaceOnUse"/>
    <linearGradient xlink:href="#pref_14linearGradient1894" id="pref_14linearGradient1902" x1="-0.24704969" y1="-10.608996" x2="8.4657993" y2="-5.57863" gradientUnits="userSpaceOnUse"/>
    <linearGradient xlink:href="#pref_14linearGradient2885" id="pref_14linearGradient2887" x1="-0.24704971" y1="-8.0938129" x2="8.4657997" y2="-8.0938129" gradientUnits="userSpaceOnUse"/>
    <radialGradient xlink:href="#pref_14linearGradient3674" id="pref_14radialGradient3506" cx="4.109375" cy="-8.0938129" fx="4.109375" fy="-8.0938129" r="4.3564248" gradientTransform="matrix(1.1330715,0.01077876,-0.01098402,1.1546483,-0.63574335,1.2074004)" gradientUnits="userSpaceOnUse"/>
    <linearGradient xlink:href="#pref_14linearGradient1894" id="pref_14linearGradient1902-1" x1="-0.24704969" y1="-10.608996" x2="8.4657993" y2="-5.57863" gradientUnits="userSpaceOnUse"/>
    <linearGradient xlink:href="#pref_14linearGradient2885" id="pref_14linearGradient2887-3" x1="-0.2470497" y1="-8.0938129" x2="8.4657993" y2="-8.0938129" gradientUnits="userSpaceOnUse"/>
    <radialGradient xlink:href="#pref_14linearGradient3674" id="pref_14radialGradient3506-6" cx="4.109375" cy="-8.0938129" fx="4.109375" fy="-8.0938129" r="4.3564248" gradientTransform="matrix(1.1330715,0.01077876,-0.01098402,1.1546483,-0.63574335,1.2074004)" gradientUnits="userSpaceOnUse"/>
    <linearGradient xlink:href="#pref_14linearGradient3692" id="pref_14linearGradient6924" gradientUnits="userSpaceOnUse" x1="1.4987922" y1="4.3924975" x2="-1.0811033" y2="-3.0084407"/>
    <linearGradient id="pref_14linearGradient3692">
      <stop style="stop-color:#e4e4e4;stop-opacity:1" offset="0" id="pref_14stop6926"/>
      <stop style="stop-color:#e5e5e5;stop-opacity:1" offset="0.1656336" id="pref_14stop6928"/>
      <stop style="stop-color:#f5f5f5;stop-opacity:1" offset="0.29162589" id="pref_14stop6930"/>
      <stop style="stop-color:#c6c6c6;stop-opacity:1;" offset="0.38067153" id="pref_14stop6932"/>
      <stop style="stop-color:#dddddd;stop-opacity:1" offset="0.57577699" id="pref_14stop6934"/>
      <stop style="stop-color:#f2f2f2;stop-opacity:1" offset="0.66836077" id="pref_14stop6936"/>
      <stop style="stop-color:#ebebeb;stop-opacity:1" offset="0.79280978" id="pref_14stop6938"/>
      <stop style="stop-color:#efefef;stop-opacity:1" offset="1" id="pref_14stop6940"/>
    </linearGradient>
  </defs>
  <circle style="fill:url(#pref_14linearGradient6924);fill-opacity:1;stroke:#cecece;stroke-width:0.05;stroke-miterlimit:4;stroke-dasharray:none;stroke-opacity:1" id="pref_14path6642" cx="0.75" cy="0.75" r="3.5"/>
  <g xmlns:sodipodi="http://sodipodi.sourceforge.net/DTD/sodipodi-0.dtd" id="pref_14g5432-9" transform="rotate(16.945707,0.75000009,0.75000001)">
    <path sodipodi:type="star" style="opacity:1;fill:url(#pref_14linearGradient1902-1);fill-opacity:1;stroke:url(#pref_14linearGradient2887-3);stroke-width:0.0984229;stroke-linecap:round;stroke-linejoin:round;stroke-miterlimit:4;stroke-dasharray:none" id="pref_14path1634-2" sodipodi:sides="6" sodipodi:cx="4.109375" sodipodi:cy="-8.0938129" sodipodi:r1="5.0303659" sodipodi:r2="4.3564248" sodipodi:arg1="0.52359878" sodipodi:arg2="1.0471976" transform="matrix(0.47378978,0.39955401,-0.39955401,0.47378978,-4.4308952,2.9428486)" d="m 8.4657997,-5.57863 -4.3564247,2.515183 -4.35642471,-2.515183 2e-8,-5.030366 4.35642469,-2.515183 4.3564247,2.515183 z"/>
    <path sodipodi:type="star" style="opacity:1;fill:url(#pref_14radialGradient3506-6);fill-opacity:1;stroke:none;stroke-width:0.0984229;stroke-linecap:round;stroke-linejoin:round;stroke-miterlimit:4;stroke-dasharray:none" id="pref_14path1634-9-0" sodipodi:sides="6" sodipodi:cx="4.109375" sodipodi:cy="-8.0938129" sodipodi:r1="5.0303659" sodipodi:r2="4.3564248" sodipodi:arg1="0.52359878" sodipodi:arg2="1.0471976" transform="matrix(0.47378978,0.39955401,-0.39955401,0.47378978,-4.4308952,2.9428486)" d="m 8.4657997,-5.57863 -4.3564247,2.515183 -4.35642471,-2.515183 2e-8,-5.030366 4.35642469,-2.515183 4.3564247,2.515183 z"/>
  </g>
  <g xmlns:sodipodi="http://sodipodi.sourceforge.net/DTD/sodipodi-0.dtd" id="pref_14g5432">
    <path sodipodi:type="star" style="opacity:1;fill:url(#pref_14linearGradient1902);fill-opacity:1;stroke:url(#pref_14linearGradient2887);stroke-width:0.0984229;stroke-linecap:round;stroke-linejoin:round;stroke-miterlimit:4;stroke-dasharray:none" id="pref_14path1634" sodipodi:sides="6" sodipodi:cx="4.109375" sodipodi:cy="-8.0938129" sodipodi:r1="5.0303659" sodipodi:r2="4.3564248" sodipodi:arg1="0.52359878" sodipodi:arg2="1.0471976" d="m 8.4657997,-5.57863 -4.3564247,2.515183 -4.35642471,-2.515183 2e-8,-5.030366 4.35642469,-2.515183 4.3564247,2.515183 z" transform="matrix(0.47378978,0.39955401,-0.39955401,0.47378978,-4.4308952,2.9428486)"/>
    <path sodipodi:type="star" style="opacity:1;fill:url(#pref_14radialGradient3506);fill-opacity:1;stroke:none;stroke-width:0.0984229;stroke-linecap:round;stroke-linejoin:round;stroke-miterlimit:4;stroke-dasharray:none" id="pref_14path1634-9" sodipodi:sides="6" sodipodi:cx="4.109375" sodipodi:cy="-8.0938129" sodipodi:r1="5.0303659" sodipodi:r2="4.3564248" sodipodi:arg1="0.52359878" sodipodi:arg2="1.0471976" transform="matrix(0.47378978,0.39955401,-0.39955401,0.47378978,-4.4308952,2.9428486)" d="m 8.4657997,-5.57863 -4.3564247,2.515183 -4.35642471,-2.515183 2e-8,-5.030366 4.35642469,-2.515183 4.3564247,2.515183 z"/>
  </g>
  <circle style="opacity:1;fill:url(#pref_14radialGradient1176);fill-opacity:1;stroke-width:0.0202753;stroke:#848484;stroke-opacity:1" id="pref_14path1030" cx="0.75" cy="0.75" r="1.5"/>
</g></g><!--Mlab_Mechanical:MountingHole_3mm.back:M2--><g transform="translate(190.25 76.48) scale(1.0, 1.0) rotate(-0.0) translate(-0.75 -0.75)"><use xmlns:xlink="http://www.w3.org/1999/xlink" xlink:href="#pref_12_Mlab_Mechanical__MountingHole_3mmback_HOLE"/></g><!--Mlab_Mechanical:MountingHole_3mm.back:M4--><g transform="translate(149.61 96.8) scale(1.0, 1.0) rotate(-0.0) translate(-0.75 -0.75)"><use xmlns:xlink="http://www.w3.org/1999/xlink" xlink:href="#pref_12_Mlab_Mechanical__MountingHole_3mmback_HOLE"/></g><!--Mlab_Mechanical:MountingHole_3mm.back:M1--><g transform="translate(190.25 96.8) scale(1.0, 1.0) rotate(-0.0) translate(-0.75 -0.75)"><use xmlns:xlink="http://www.w3.org/1999/xlink" xlink:href="#pref_12_Mlab_Mechanical__MountingHole_3mmback_HOLE"/></g></g></svg>