<!DOCTYPE svg PUBLIC "-//W3C//DTD SVG 1.1//EN" "http://www.w3.org/Graphics/SVG/1.1/DTD/svg11.dtd">
<svg xmlns="http://www.w3.org/2000/svg" version="1.1" width="37.090821mm" height="60.5mm" viewBox="1042491.79 604100.0 370908.20999999996 605000.0">
            <title>Picture generated by PcbDraw </title>
            <desc>Picture generated by PcbDraw</desc>
        <defs><clipPath id="cut-off"><path d=" M 1362400.0 655100.0 L 1093491.0 655151.0 L 1093491.0 1158071.0 L 1362400.0 1158100.0 L 1362400.0 655100.0 " style="fill-rule: evenodd;"/></clipPath><mask id="pads-mask"><g style="fill:#ffffff; fill-opacity:0.0;  stroke:#ffffff; stroke-width:0.000000; stroke-opacity:1;  stroke-linecap:round; stroke-linejoin:round;">
<g style="fill:#ffffff; fill-opacity:1.0;  stroke:#ffffff; stroke-width:0.010000; stroke-opacity:1;  stroke-linecap:round; stroke-linejoin:round;">
<circle cx="1141751.790000" cy="703411.460000" r="30000.000000"/> 
</g>
<g style="fill:#ffffff; fill-opacity:1.0;  stroke:#ffffff; stroke-width:0.010000; stroke-opacity:1;  stroke-linecap:round; stroke-linejoin:round;">
<circle cx="1141751.790000" cy="1109811.460000" r="30000.000000"/> 
</g>
<g style="fill:#ffffff; fill-opacity:1.0;  stroke:#ffffff; stroke-width:0.010000; stroke-opacity:1;  stroke-linecap:round; stroke-linejoin:round;">
<circle cx="1207500.000000" cy="907500.000000" r="2549.500000"/> 
</g>
<g style="fill:#ffffff; fill-opacity:1.0;  stroke:#ffffff; stroke-width:0.010000; stroke-opacity:1;  stroke-linecap:round; stroke-linejoin:round;">
<path style="fill:#ffffff; fill-opacity:1.0;  stroke:#ffffff; stroke-width:0.010000; stroke-opacity:1;  stroke-linecap:round; stroke-linejoin:round;fill-rule:evenodd;" d="M 1239000.000000,751500.000000 1239000.000000,771500.000000 1201000.000000,771500.000000 1201000.000000,751500.000000 Z"/> 
</g>
<g style="fill:#ffffff; fill-opacity:1.0;  stroke:#ffffff; stroke-width:0.010000; stroke-opacity:1;  stroke-linecap:round; stroke-linejoin:round;">
<g>
<path style="fill:#ffffff; fill-opacity:1.0;  stroke:#ffffff; stroke-width:0.010000; stroke-opacity:1;  stroke-linecap:round; stroke-linejoin:round;fill-rule:evenodd;" d="M 1362254.950000,655245.010000 1362400.000000,655595.090000 1362400.000000,1157604.950000 1362255.020000,1157954.970000 1361904.950000,1158099.950000 1093986.740000,1158071.510000 1093636.730000,1157926.490000 1093491.790000,1157576.510000 1093491.790000,655646.370000 1093636.770000,655296.350000 1093986.700000,655151.370000 1361904.910000,655100.090000 Z"/> 
</g>
</g>
</g> 
</mask><mask id="pads-mask-silkscreen"><rect x="1092491.79" y="654100.0" width="270908.21" height="505000.0" fill="white"/><g style="fill:#000000; fill-opacity:0.0;  stroke:#000000; stroke-width:0.000000; stroke-opacity:1;  stroke-linecap:round; stroke-linejoin:round;">
<g style="fill:#000000; fill-opacity:1.0;  stroke:#000000; stroke-width:0.010000; stroke-opacity:1;  stroke-linecap:round; stroke-linejoin:round;">
<circle cx="1141751.790000" cy="703411.460000" r="30000.000000"/> 
</g>
<g style="fill:#000000; fill-opacity:1.0;  stroke:#000000; stroke-width:0.010000; stroke-opacity:1;  stroke-linecap:round; stroke-linejoin:round;">
<circle cx="1141751.790000" cy="1109811.460000" r="30000.000000"/> 
</g>
<g style="fill:#000000; fill-opacity:1.0;  stroke:#000000; stroke-width:0.010000; stroke-opacity:1;  stroke-linecap:round; stroke-linejoin:round;">
<circle cx="1207500.000000" cy="907500.000000" r="2549.500000"/> 
</g>
<g style="fill:#000000; fill-opacity:1.0;  stroke:#000000; stroke-width:0.010000; stroke-opacity:1;  stroke-linecap:round; stroke-linejoin:round;">
<path style="fill:#000000; fill-opacity:1.0;  stroke:#000000; stroke-width:0.010000; stroke-opacity:1;  stroke-linecap:round; stroke-linejoin:round;fill-rule:evenodd;" d="M 1239000.000000,751500.000000 1239000.000000,771500.000000 1201000.000000,771500.000000 1201000.000000,751500.000000 Z"/> 
</g>
<g style="fill:#000000; fill-opacity:1.0;  stroke:#000000; stroke-width:0.010000; stroke-opacity:1;  stroke-linecap:round; stroke-linejoin:round;">
<g>
<path style="fill:#000000; fill-opacity:1.0;  stroke:#000000; stroke-width:0.010000; stroke-opacity:1;  stroke-linecap:round; stroke-linejoin:round;fill-rule:evenodd;" d="M 1362254.950000,655245.010000 1362400.000000,655595.090000 1362400.000000,1157604.950000 1362255.020000,1157954.970000 1361904.950000,1158099.950000 1093986.740000,1158071.510000 1093636.730000,1157926.490000 1093491.790000,1157576.510000 1093491.790000,655646.370000 1093636.770000,655296.350000 1093986.700000,655151.370000 1361904.910000,655100.090000 Z"/> 
</g>
</g>
</g> 
</mask><mask id="hole-mask"><g><rect x="1092491.79" y="654100.0" fill="white" width="270908.21" height="505000.0"/><polyline stroke-linecap="round" stroke="black" stroke-width="30000.0" points="-0.0 0 0.0 0" transform="translate(1141751.79 703411.46) rotate(-0.0)"/><polyline stroke-linecap="round" stroke="black" stroke-width="30000.0" points="-0.0 0 0.0 0" transform="translate(1141751.79 1109811.46) rotate(-0.0)"/><polyline stroke-linecap="round" stroke="black" stroke-width="4000.0" points="-0.0 0 0.0 0" transform="translate(1197000.0 888000.0) rotate(0)"/><polyline stroke-linecap="round" stroke="black" stroke-width="4000.0" points="-0.0 0 0.0 0" transform="translate(1244800.0 765200.0) rotate(0)"/></g></mask></defs><g transform="" id="boardContainer"><g id="substrate" clip-path="url(#cut-off)" mask="url(#hole-mask)"><g id="substrate-board" style="fill:#f1f4f3; stroke:#f1f4f3;"><path d=" M 1362400.0 655100.0 L 1093491.0 655151.0 L 1093491.0 1158071.0 L 1362400.0 1158100.0 L 1362400.0 655100.0 " style="fill-rule: evenodd;"/><g style="fill-opacity: 0.0;stroke-width: 2000.000000;stroke-opacity: 1;stroke-linecap: round;stroke-linejoin: round">
<path d="M1362400 1158100 L1362400 655100 "/>
<path d="M1093491 1158071 L1093491 655151 "/>
<path d="M1093491 1158071 L1362400 1158100 "/>
<path d="M1093491 655151 L1362400 655100 "/>
</g> 
</g><g id="substrate-clad" style="fill:#72786c; stroke:#72786c;"><g style="fill-opacity: 0.0;stroke-width: 0.000000;stroke-opacity: 1;stroke-linecap: round;stroke-linejoin: round">
<g style="fill-opacity: 1.0;stroke-width: 0.010000;stroke-opacity: 1;stroke-linecap: round;stroke-linejoin: round">
<circle cx="1141751.790000" cy="703411.460000" r="30000.000000"/> 
</g>
<g style="fill-opacity: 1.0;stroke-width: 0.010000;stroke-opacity: 1;stroke-linecap: round;stroke-linejoin: round">
<circle cx="1141751.790000" cy="1109811.460000" r="30000.000000"/> 
</g>
<g style="fill-opacity: 1.0;stroke-width: 0.010000;stroke-opacity: 1;stroke-linecap: round;stroke-linejoin: round">
<circle cx="1207500.000000" cy="907500.000000" r="2549.500000"/> 
</g>
<g style="fill-opacity: 1.0;stroke-width: 0.010000;stroke-opacity: 1;stroke-linecap: round;stroke-linejoin: round">
<path style="fill-opacity: 1.0;stroke-width: 0.010000;stroke-opacity: 1;stroke-linecap: round;stroke-linejoin: round;fill-rule: evenodd" d="M 1239000.000000,751500.000000 1239000.000000,771500.000000 1201000.000000,771500.000000 1201000.000000,751500.000000 Z"/> 
</g>
<g style="fill-opacity: 1.0;stroke-width: 0.010000;stroke-opacity: 1;stroke-linecap: round;stroke-linejoin: round">
<g>
<path style="fill-opacity: 1.0;stroke-width: 0.010000;stroke-opacity: 1;stroke-linecap: round;stroke-linejoin: round;fill-rule: evenodd" d="M 1362254.950000,655245.010000 1362400.000000,655595.090000 1362400.000000,1157604.950000 1362255.020000,1157954.970000 1361904.950000,1158099.950000 1093986.740000,1158071.510000 1093636.730000,1157926.490000 1093491.790000,1157576.510000 1093491.790000,655646.370000 1093636.770000,655296.350000 1093986.700000,655151.370000 1361904.910000,655100.090000 Z"/> 
</g>
</g>
</g> 
</g><g id="substrate-copper" style="fill:#f8f8f7; stroke:#f8f8f7;"><g style="fill-opacity: 0.0;stroke-width: 3000.000000;stroke-opacity: 1;stroke-linecap: round;stroke-linejoin: round">
<text x="1266703.470000" y="1140777.450000" textLength="59092.860000" font-size="20000.000000" lengthAdjust="spacingAndGlyphs" text-anchor="middle" opacity="0">MLAB</text>
<g class="stroked-text"><desc>MLAB</desc>
<path d="M1241703 1140063 L1241703 1125063 L1246703 1135777 L1251703 1125063 L1251703 1140063 "/>
<path d="M1265989 1140063 L1258846 1140063 L1258846 1125063 "/>
<path d="M1270274 1135777 L1277417 1135777 "/>
<path d="M1268846 1140063 L1273846 1125063 L1278846 1140063 "/>
<path d="M1288846 1132206 L1290989 1132920 L1291703 1133634 L1292417 1135063 L1292417 1137206 L1291703 1138634 L1290989 1139348 L1289560 1140063 L1283846 1140063 L1283846 1125063 L1288846 1125063 L1290274 1125777 L1290989 1126491 L1291703 1127920 L1291703 1129348 L1290989 1130777 L1290274 1131491 L1288846 1132206 L1283846 1132206 "/>
</g><g style="fill-opacity: 1.0;stroke-width: 0.010000;stroke-opacity: 1;stroke-linecap: round;stroke-linejoin: round">
<circle cx="1141751.790000" cy="703411.460000" r="30000.000000"/> 
</g>
<g style="fill-opacity: 1.0;stroke-width: 0.010000;stroke-opacity: 1;stroke-linecap: round;stroke-linejoin: round">
<circle cx="1141751.790000" cy="1109811.460000" r="30000.000000"/> 
</g>
<g style="fill-opacity: 1.0;stroke-width: 0.010000;stroke-opacity: 1;stroke-linecap: round;stroke-linejoin: round">
<circle cx="1207500.000000" cy="907500.000000" r="2549.500000"/> 
</g>
<g style="fill-opacity: 1.0;stroke-width: 0.010000;stroke-opacity: 1;stroke-linecap: round;stroke-linejoin: round">
<path style="fill-opacity: 1.0;stroke-width: 0.010000;stroke-opacity: 1;stroke-linecap: round;stroke-linejoin: round;fill-rule: evenodd" d="M 1239000.000000,751500.000000 1239000.000000,771500.000000 1201000.000000,771500.000000 1201000.000000,751500.000000 Z"/> 
</g>
<g style="fill-opacity: 1.0;stroke-width: 0.010000;stroke-opacity: 1;stroke-linecap: round;stroke-linejoin: round">
<circle cx="1197000.000000" cy="888000.000000" r="4000.000000"/> 
</g>
<g style="fill-opacity: 1.0;stroke-width: 0.010000;stroke-opacity: 1;stroke-linecap: round;stroke-linejoin: round">
<circle cx="1244800.000000" cy="765200.000000" r="4000.000000"/> 
</g>
<g style="fill-opacity: 0.0;stroke-width: 4000.000000;stroke-opacity: 1;stroke-linecap: round;stroke-linejoin: round">
<path d="M1244800 765200 L1241100 761500 "/>
<path d="M1241100 761500 L1220000 761500 "/>
</g>
<g style="fill-opacity: 0.0;stroke-width: 4000.000000;stroke-opacity: 1;stroke-linecap: round;stroke-linejoin: round">
<g style="fill-opacity: 1.0;stroke-width: 0.010000;stroke-opacity: 1;stroke-linecap: round;stroke-linejoin: round">
<path style="fill-opacity: 1.0;stroke-width: 0.010000;stroke-opacity: 1;stroke-linecap: round;stroke-linejoin: round;fill-rule: evenodd" d="M 1241921.210000,882700.020000 1242386.140000,883236.580000 1242500.000000,883760.000000 1242500.000000,931240.000000 1242299.980000,931921.210000 1241763.420000,932386.140000 1241240.000000,932500.000000 1193760.000000,932500.000000 1193078.790000,932299.980000 1192613.860000,931763.420000 1192500.000000,931240.000000 1192500.000000,883760.000000 1192700.020000,883078.790000 1193236.580000,882613.860000 1193760.000000,882500.000000 1241240.000000,882500.000000 Z"/> 
</g>
</g>
</g> 
</g><g id="substrate-pads" style="fill:#c4c1ba; stroke:#c4c1ba;" mask="url(#pads-mask)"><g style="fill-opacity: 0.0;stroke-width: 3000.000000;stroke-opacity: 1;stroke-linecap: round;stroke-linejoin: round">
<text x="1266703.470000" y="1140777.450000" textLength="61042.860000" font-size="20000.000000" lengthAdjust="spacingAndGlyphs" text-anchor="middle" opacity="0">MLAB</text>
<g class="stroked-text"><desc>MLAB</desc>
<path d="M1241703 1140063 L1241703 1125063 L1246703 1135777 L1251703 1125063 L1251703 1140063 "/>
<path d="M1265989 1140063 L1258846 1140063 L1258846 1125063 "/>
<path d="M1270274 1135777 L1277417 1135777 "/>
<path d="M1268846 1140063 L1273846 1125063 L1278846 1140063 "/>
<path d="M1288846 1132206 L1290989 1132920 L1291703 1133634 L1292417 1135063 L1292417 1137206 L1291703 1138634 L1290989 1139348 L1289560 1140063 L1283846 1140063 L1283846 1125063 L1288846 1125063 L1290274 1125777 L1290989 1126491 L1291703 1127920 L1291703 1129348 L1290989 1130777 L1290274 1131491 L1288846 1132206 L1283846 1132206 "/>
</g><g style="fill-opacity: 1.0;stroke-width: 0.010000;stroke-opacity: 1;stroke-linecap: round;stroke-linejoin: round">
<circle cx="1141751.790000" cy="703411.460000" r="30000.000000"/> 
</g>
<g style="fill-opacity: 1.0;stroke-width: 0.010000;stroke-opacity: 1;stroke-linecap: round;stroke-linejoin: round">
<circle cx="1141751.790000" cy="1109811.460000" r="30000.000000"/> 
</g>
<g style="fill-opacity: 1.0;stroke-width: 0.010000;stroke-opacity: 1;stroke-linecap: round;stroke-linejoin: round">
<circle cx="1207500.000000" cy="907500.000000" r="2549.500000"/> 
</g>
<g style="fill-opacity: 1.0;stroke-width: 0.010000;stroke-opacity: 1;stroke-linecap: round;stroke-linejoin: round">
<path style="fill-opacity: 1.0;stroke-width: 0.010000;stroke-opacity: 1;stroke-linecap: round;stroke-linejoin: round;fill-rule: evenodd" d="M 1239000.000000,751500.000000 1239000.000000,771500.000000 1201000.000000,771500.000000 1201000.000000,751500.000000 Z"/> 
</g>
<g style="fill-opacity: 1.0;stroke-width: 0.010000;stroke-opacity: 1;stroke-linecap: round;stroke-linejoin: round">
<circle cx="1197000.000000" cy="888000.000000" r="4000.000000"/> 
</g>
<g style="fill-opacity: 1.0;stroke-width: 0.010000;stroke-opacity: 1;stroke-linecap: round;stroke-linejoin: round">
<circle cx="1244800.000000" cy="765200.000000" r="4000.000000"/> 
</g>
<g style="fill-opacity: 0.0;stroke-width: 4000.000000;stroke-opacity: 1;stroke-linecap: round;stroke-linejoin: round">
<path d="M1244800 765200 L1241100 761500 "/>
<path d="M1241100 761500 L1220000 761500 "/>
</g>
<g style="fill-opacity: 0.0;stroke-width: 4000.000000;stroke-opacity: 1;stroke-linecap: round;stroke-linejoin: round">
<g style="fill-opacity: 1.0;stroke-width: 0.010000;stroke-opacity: 1;stroke-linecap: round;stroke-linejoin: round">
<path style="fill-opacity: 1.0;stroke-width: 0.010000;stroke-opacity: 1;stroke-linecap: round;stroke-linejoin: round;fill-rule: evenodd" d="M 1241921.210000,882700.020000 1242386.140000,883236.580000 1242500.000000,883760.000000 1242500.000000,931240.000000 1242299.980000,931921.210000 1241763.420000,932386.140000 1241240.000000,932500.000000 1193760.000000,932500.000000 1193078.790000,932299.980000 1192613.860000,931763.420000 1192500.000000,931240.000000 1192500.000000,883760.000000 1192700.020000,883078.790000 1193236.580000,882613.860000 1193760.000000,882500.000000 1241240.000000,882500.000000 Z"/> 
</g>
</g>
</g> 
</g><g id="substrate-silk" style="fill:#0b1013; stroke:#0b1013;" mask="url(#pads-mask-silkscreen)"><g style="fill-opacity: 0.0;stroke-width: 3000.000000;stroke-opacity: 1;stroke-linecap: round;stroke-linejoin: round">
<g transform="rotate(-90.000000 1340800.000000 1053200.000000)">
<text x="1340800.000000" y="1061700.000000" textLength="192519.050000" font-size="22666.660000" lengthAdjust="spacingAndGlyphs" text-anchor="middle" opacity="0">PINHOLDER01A</text>
</g>
<g class="stroked-text"><desc>PINHOLDER01A</desc>
<path d="M1348490 1143461 L1331490 1143461 L1331490 1136985 L1332300 1135366 L1333109 1134557 L1334728 1133747 L1337157 1133747 L1338776 1134557 L1339585 1135366 L1340395 1136985 L1340395 1143461 "/>
<path d="M1348490 1126461 L1331490 1126461 "/>
<path d="M1348490 1118366 L1331490 1118366 L1348490 1108652 L1331490 1108652 "/>
<path d="M1348490 1100557 L1331490 1100557 "/>
<path d="M1339585 1100557 L1339585 1090842 "/>
<path d="M1348490 1090842 L1331490 1090842 "/>
<path d="M1331490 1079509 L1331490 1076271 L1332300 1074652 L1333919 1073033 L1337157 1072223 L1342823 1072223 L1346061 1073033 L1347680 1074652 L1348490 1076271 L1348490 1079509 L1347680 1081128 L1346061 1082747 L1342823 1083557 L1337157 1083557 L1333919 1082747 L1332300 1081128 L1331490 1079509 "/>
<path d="M1348490 1056842 L1348490 1064938 L1331490 1064938 "/>
<path d="M1348490 1051176 L1331490 1051176 L1331490 1047128 L1332300 1044700 L1333919 1043080 L1335538 1042271 L1338776 1041461 L1341204 1041461 L1344442 1042271 L1346061 1043080 L1347680 1044700 L1348490 1047128 L1348490 1051176 "/>
<path d="M1339585 1034176 L1339585 1028509 "/>
<path d="M1348490 1026080 L1348490 1034176 L1331490 1034176 L1331490 1026080 "/>
<path d="M1348490 1009080 L1340395 1014747 "/>
<path d="M1348490 1018795 L1331490 1018795 L1331490 1012319 L1332300 1010700 L1333109 1009890 L1334728 1009080 L1337157 1009080 L1338776 1009890 L1339585 1010700 L1340395 1012319 L1340395 1018795 "/>
<path d="M1331490 998557 L1331490 996938 L1332300 995319 L1333109 994509 L1334728 993700 L1337966 992890 L1342014 992890 L1345252 993700 L1346871 994509 L1347680 995319 L1348490 996938 L1348490 998557 L1347680 1000176 L1346871 1000985 L1345252 1001795 L1342014 1002604 L1337966 1002604 L1334728 1001795 L1333109 1000985 L1332300 1000176 L1331490 998557 "/>
<path d="M1348490 976700 L1348490 986414 "/>
<path d="M1348490 981557 L1331490 981557 L1333919 983176 L1335538 984795 L1336347 986414 "/>
<path d="M1343633 970223 L1343633 962128 "/>
<path d="M1348490 971842 L1331490 966176 L1348490 960509 "/>
</g></g>
<g style="fill-opacity: 0.0;stroke-width: 1500.000000;stroke-opacity: 1;stroke-linecap: round;stroke-linejoin: round">
<path d="M1241000 773500 L1199000 773500 "/>
<path d="M1241000 749500 L1241000 773500 "/>
<path d="M1199000 773500 L1199000 749500 "/>
<path d="M1199000 749500 L1241000 749500 "/>
</g> 
</g><g id="substrate-outline" style="fill:#000000; stroke:#000000; stroke-width: 1500.0"><g style="fill-opacity: 0.0;stroke-opacity: 1;stroke-linecap: round;stroke-linejoin: round">
<path d="M1362400 1158100 L1362400 655100 "/>
<path d="M1093491 1158071 L1093491 655151 "/>
<path d="M1093491 1158071 L1362400 1158100 "/>
<path d="M1093491 655151 L1362400 655100 "/>
</g> 
<path d="M -15000.0 0.0 A 15000.0 15000.0 0 1 1 15000.0 0.0 L 15000.0 -0.0 A 15000.0 15000.0 0 1 1 -15000.0 -0.0 Z" transform="translate(1141751.79 703411.46) rotate(-0.0)"/><path d="M -15000.0 0.0 A 15000.0 15000.0 0 1 1 15000.0 0.0 L 15000.0 -0.0 A 15000.0 15000.0 0 1 1 -15000.0 -0.0 Z" transform="translate(1141751.79 1109811.46) rotate(-0.0)"/><path d="M -2000.0 0.0 A 2000.0 2000.0 0 1 1 2000.0 0.0 L 2000.0 -0.0 A 2000.0 2000.0 0 1 1 -2000.0 -0.0 Z" transform="translate(1197000.0 888000.0) rotate(0)"/><path d="M -2000.0 0.0 A 2000.0 2000.0 0 1 1 2000.0 0.0 L 2000.0 -0.0 A 2000.0 2000.0 0 1 1 -2000.0 -0.0 Z" transform="translate(1244800.0 765200.0) rotate(0)"/></g></g><g id="substrate-paste" style="fill:#8a8a8a; stroke:#8a8a8a;"><g style="fill-opacity: 0.0;stroke-width: 0.000000;stroke-opacity: 1;stroke-linecap: round;stroke-linejoin: round">
<g style="fill-opacity: 1.0;stroke-width: 0.010000;stroke-opacity: 1;stroke-linecap: round;stroke-linejoin: round">
<path style="fill-opacity: 1.0;stroke-width: 0.010000;stroke-opacity: 1;stroke-linecap: round;stroke-linejoin: round;fill-rule: evenodd" d="M 1239000.000000,751500.000000 1239000.000000,771500.000000 1201000.000000,771500.000000 1201000.000000,751500.000000 Z"/> 
</g>
</g> 
</g></g></svg>