<!DOCTYPE svg PUBLIC "-//W3C//DTD SVG 1.1//EN" "http://www.w3.org/Graphics/SVG/1.1/DTD/svg11.dtd">
<svg xmlns="http://www.w3.org/2000/svg" version="1.1" width="60.391999mm" height="40.072mm" viewBox="139.734 66.604 60.391999999999996 40.072">
            <title>Picture generated by PcbDraw </title>
            <desc>Picture generated by PcbDraw</desc>
        <defs><clipPath id="cut-off"><path d=" M 195.076 101.626 L 195.076 71.654 L 144.784 71.654 L 144.784 101.626 L 195.076 101.626 " style="fill-rule: evenodd;"/></clipPath><mask id="pads-mask"><g style="fill:#ffffff; fill-opacity:0.0;  stroke:#ffffff; stroke-width:0.0000; stroke-opacity:1;  stroke-linecap:round; stroke-linejoin:round;">
<g style="fill:#ffffff; fill-opacity:1.0000;  stroke:#ffffff; stroke-width:0.0000; stroke-opacity:1;  stroke-linecap:round; stroke-linejoin:round;">
<circle cx="149.6100" cy="76.4800" r="3.2000"/> 
</g>
<g style="fill:#ffffff; fill-opacity:1.0000;  stroke:#ffffff; stroke-width:0.0000; stroke-opacity:1;  stroke-linecap:round; stroke-linejoin:round;">
<circle cx="190.2500" cy="76.4800" r="3.2000"/> 
</g>
<g style="fill:#ffffff; fill-opacity:1.0000;  stroke:#ffffff; stroke-width:0.0000; stroke-opacity:1;  stroke-linecap:round; stroke-linejoin:round;">
<path style="fill:#ffffff; fill-opacity:1.0000;  stroke:#ffffff; stroke-width:0.0000; stroke-opacity:1;  stroke-linecap:round; stroke-linejoin:round;fill-rule:evenodd;" d="M 158.6340,90.3840 158.5575,90.3688 158.4926,90.3254 158.4492,90.2605 158.4340,90.1840 158.4340,87.6740 158.4492,87.5975 158.4926,87.5326 158.5575,87.4892 158.6340,87.4740 159.6340,87.4740 159.7105,87.4892 159.7754,87.5326 159.8188,87.5975 159.8340,87.6740 159.8340,90.1840 159.8188,90.2605 159.7754,90.3254 159.7105,90.3688 159.6340,90.3840 Z"/> 
<path style="fill:#ffffff; fill-opacity:1.0000;  stroke:#ffffff; stroke-width:0.0000; stroke-opacity:1;  stroke-linecap:round; stroke-linejoin:round;fill-rule:evenodd;" d="M 161.1740,87.0740 161.0975,87.0588 161.0326,87.0154 160.9892,86.9505 160.9740,86.8740 160.9740,84.3640 160.9892,84.2875 161.0326,84.2226 161.0975,84.1792 161.1740,84.1640 162.1740,84.1640 162.2505,84.1792 162.3154,84.2226 162.3588,84.2875 162.3740,84.3640 162.3740,86.8740 162.3588,86.9505 162.3154,87.0154 162.2505,87.0588 162.1740,87.0740 Z"/> 
<path style="fill:#ffffff; fill-opacity:1.0000;  stroke:#ffffff; stroke-width:0.0000; stroke-opacity:1;  stroke-linecap:round; stroke-linejoin:round;fill-rule:evenodd;" d="M 163.7140,90.3840 163.6375,90.3688 163.5726,90.3254 163.5292,90.2605 163.5140,90.1840 163.5140,87.6740 163.5292,87.5975 163.5726,87.5326 163.6375,87.4892 163.7140,87.4740 164.7140,87.4740 164.7905,87.4892 164.8554,87.5326 164.8988,87.5975 164.9140,87.6740 164.9140,90.1840 164.8988,90.2605 164.8554,90.3254 164.7905,90.3688 164.7140,90.3840 Z"/> 
</g>
<g style="fill:#ffffff; fill-opacity:1.0000;  stroke:#ffffff; stroke-width:0.0000; stroke-opacity:1;  stroke-linecap:round; stroke-linejoin:round;">
<circle cx="149.6100" cy="96.8000" r="3.2000"/> 
</g>
<g style="fill:#ffffff; fill-opacity:1.0000;  stroke:#ffffff; stroke-width:0.0000; stroke-opacity:1;  stroke-linecap:round; stroke-linejoin:round;">
<circle cx="190.2500" cy="96.8000" r="3.2000"/> 
</g>
<g style="fill:#ffffff; fill-opacity:1.0000;  stroke:#ffffff; stroke-width:0.0000; stroke-opacity:1;  stroke-linecap:round; stroke-linejoin:round;">
<path style="fill:#ffffff; fill-opacity:1.0000;  stroke:#ffffff; stroke-width:0.0000; stroke-opacity:1;  stroke-linecap:round; stroke-linejoin:round;fill-rule:evenodd;" d="M 149.7620,83.1920 149.7468,83.2685 149.7034,83.3334 149.6385,83.3768 149.5620,83.3920 148.0380,83.3920 147.9615,83.3768 147.8966,83.3334 147.8532,83.2685 147.8380,83.1920 147.8380,81.6680 147.8532,81.5915 147.8966,81.5266 147.9615,81.4832 148.0380,81.4680 149.5620,81.4680 149.6385,81.4832 149.7034,81.5266 149.7468,81.5915 149.7620,81.6680 Z"/> 
<path style="fill:#ffffff; fill-opacity:1.0000;  stroke:#ffffff; stroke-width:0.0000; stroke-opacity:1;  stroke-linecap:round; stroke-linejoin:round;fill-rule:evenodd;" d="M 149.7620,85.7320 149.7468,85.8085 149.7034,85.8734 149.6385,85.9168 149.5620,85.9320 148.0380,85.9320 147.9615,85.9168 147.8966,85.8734 147.8532,85.8085 147.8380,85.7320 147.8380,84.2080 147.8532,84.1315 147.8966,84.0666 147.9615,84.0232 148.0380,84.0080 149.5620,84.0080 149.6385,84.0232 149.7034,84.0666 149.7468,84.1315 149.7620,84.2080 Z"/> 
</g>
</g> 
</mask><mask id="pads-mask-silkscreen"><rect x="144.734" y="71.604" width="50.392" height="30.072" fill="white"/><g style="fill:#000000; fill-opacity:0.0;  stroke:#000000; stroke-width:0.0000; stroke-opacity:1;  stroke-linecap:round; stroke-linejoin:round;">
<g style="fill:#000000; fill-opacity:1.0000;  stroke:#000000; stroke-width:0.0000; stroke-opacity:1;  stroke-linecap:round; stroke-linejoin:round;">
<circle cx="149.6100" cy="76.4800" r="3.2000"/> 
</g>
<g style="fill:#000000; fill-opacity:1.0000;  stroke:#000000; stroke-width:0.0000; stroke-opacity:1;  stroke-linecap:round; stroke-linejoin:round;">
<circle cx="190.2500" cy="76.4800" r="3.2000"/> 
</g>
<g style="fill:#000000; fill-opacity:1.0000;  stroke:#000000; stroke-width:0.0000; stroke-opacity:1;  stroke-linecap:round; stroke-linejoin:round;">
<path style="fill:#000000; fill-opacity:1.0000;  stroke:#000000; stroke-width:0.0000; stroke-opacity:1;  stroke-linecap:round; stroke-linejoin:round;fill-rule:evenodd;" d="M 158.6340,90.3840 158.5575,90.3688 158.4926,90.3254 158.4492,90.2605 158.4340,90.1840 158.4340,87.6740 158.4492,87.5975 158.4926,87.5326 158.5575,87.4892 158.6340,87.4740 159.6340,87.4740 159.7105,87.4892 159.7754,87.5326 159.8188,87.5975 159.8340,87.6740 159.8340,90.1840 159.8188,90.2605 159.7754,90.3254 159.7105,90.3688 159.6340,90.3840 Z"/> 
<path style="fill:#000000; fill-opacity:1.0000;  stroke:#000000; stroke-width:0.0000; stroke-opacity:1;  stroke-linecap:round; stroke-linejoin:round;fill-rule:evenodd;" d="M 161.1740,87.0740 161.0975,87.0588 161.0326,87.0154 160.9892,86.9505 160.9740,86.8740 160.9740,84.3640 160.9892,84.2875 161.0326,84.2226 161.0975,84.1792 161.1740,84.1640 162.1740,84.1640 162.2505,84.1792 162.3154,84.2226 162.3588,84.2875 162.3740,84.3640 162.3740,86.8740 162.3588,86.9505 162.3154,87.0154 162.2505,87.0588 162.1740,87.0740 Z"/> 
<path style="fill:#000000; fill-opacity:1.0000;  stroke:#000000; stroke-width:0.0000; stroke-opacity:1;  stroke-linecap:round; stroke-linejoin:round;fill-rule:evenodd;" d="M 163.7140,90.3840 163.6375,90.3688 163.5726,90.3254 163.5292,90.2605 163.5140,90.1840 163.5140,87.6740 163.5292,87.5975 163.5726,87.5326 163.6375,87.4892 163.7140,87.4740 164.7140,87.4740 164.7905,87.4892 164.8554,87.5326 164.8988,87.5975 164.9140,87.6740 164.9140,90.1840 164.8988,90.2605 164.8554,90.3254 164.7905,90.3688 164.7140,90.3840 Z"/> 
</g>
<g style="fill:#000000; fill-opacity:1.0000;  stroke:#000000; stroke-width:0.0000; stroke-opacity:1;  stroke-linecap:round; stroke-linejoin:round;">
<circle cx="149.6100" cy="96.8000" r="3.2000"/> 
</g>
<g style="fill:#000000; fill-opacity:1.0000;  stroke:#000000; stroke-width:0.0000; stroke-opacity:1;  stroke-linecap:round; stroke-linejoin:round;">
<circle cx="190.2500" cy="96.8000" r="3.2000"/> 
</g>
<g style="fill:#000000; fill-opacity:1.0000;  stroke:#000000; stroke-width:0.0000; stroke-opacity:1;  stroke-linecap:round; stroke-linejoin:round;">
<path style="fill:#000000; fill-opacity:1.0000;  stroke:#000000; stroke-width:0.0000; stroke-opacity:1;  stroke-linecap:round; stroke-linejoin:round;fill-rule:evenodd;" d="M 149.7620,83.1920 149.7468,83.2685 149.7034,83.3334 149.6385,83.3768 149.5620,83.3920 148.0380,83.3920 147.9615,83.3768 147.8966,83.3334 147.8532,83.2685 147.8380,83.1920 147.8380,81.6680 147.8532,81.5915 147.8966,81.5266 147.9615,81.4832 148.0380,81.4680 149.5620,81.4680 149.6385,81.4832 149.7034,81.5266 149.7468,81.5915 149.7620,81.6680 Z"/> 
<path style="fill:#000000; fill-opacity:1.0000;  stroke:#000000; stroke-width:0.0000; stroke-opacity:1;  stroke-linecap:round; stroke-linejoin:round;fill-rule:evenodd;" d="M 149.7620,85.7320 149.7468,85.8085 149.7034,85.8734 149.6385,85.9168 149.5620,85.9320 148.0380,85.9320 147.9615,85.9168 147.8966,85.8734 147.8532,85.8085 147.8380,85.7320 147.8380,84.2080 147.8532,84.1315 147.8966,84.0666 147.9615,84.0232 148.0380,84.0080 149.5620,84.0080 149.6385,84.0232 149.7034,84.0666 149.7468,84.1315 149.7620,84.2080 Z"/> 
</g>
</g> 
</mask><mask id="hole-mask"><g><rect x="144.734" y="71.604" fill="white" width="50.392" height="30.072"/><polyline stroke-linecap="round" stroke="black" stroke-width="3.0" points="-0.0 0 0.0 0" transform="translate(149.61 76.48) rotate(-0.0)"/><polyline stroke-linecap="round" stroke="black" stroke-width="3.0" points="-0.0 0 0.0 0" transform="translate(190.25 76.48) rotate(-0.0)"/><polyline stroke-linecap="round" stroke="black" stroke-width="3.0" points="-0.0 0 0.0 0" transform="translate(149.61 96.8) rotate(-0.0)"/><polyline stroke-linecap="round" stroke="black" stroke-width="3.0" points="-0.0 0 0.0 0" transform="translate(190.25 96.8) rotate(-0.0)"/><polyline stroke-linecap="round" stroke="black" stroke-width="0.889" points="-0.0 0 0.0 0" transform="translate(148.8 82.43) rotate(-180.0)"/><polyline stroke-linecap="round" stroke="black" stroke-width="0.889" points="-0.0 0 0.0 0" transform="translate(148.8 84.97) rotate(-180.0)"/><polyline stroke-linecap="round" stroke="black" stroke-width="0.4" points="-0.0 0 0.0 0" transform="translate(167.9 84.65) rotate(-0.0)"/><polyline stroke-linecap="round" stroke="black" stroke-width="0.4" points="-0.0 0 0.0 0" transform="translate(155.15 92.6) rotate(-0.0)"/></g></mask></defs><g transform="" id="boardContainer"><g id="substrate" clip-path="url(#cut-off)" mask="url(#hole-mask)"><g id="substrate-board" style="fill:#f1f4f3; stroke:#f1f4f3;"><path d=" M 195.076 101.626 L 195.076 71.654 L 144.784 71.654 L 144.784 101.626 L 195.076 101.626 " style="fill-rule: evenodd;"/><g style="fill-opacity: 0.0;stroke-width: 0.1000;stroke-opacity: 1;stroke-linecap: round;stroke-linejoin: round">
<path d="M144.7840 101.6260 L195.0760 101.6260 "/>
<path d="M144.7840 71.6540 L195.0760 71.6540 "/>
<path d="M195.0760 71.6540 L195.0760 101.6260 "/>
<path d="M144.7840 101.6260 L144.7840 71.6540 "/>
</g> 
</g><g id="substrate-clad" style="fill:#72786c; stroke:#72786c;"><g style="fill-opacity: 0.0;stroke-width: 0.0000;stroke-opacity: 1;stroke-linecap: round;stroke-linejoin: round">
<g style="fill-opacity: 1.0000;stroke-width: 0.0000;stroke-opacity: 1;stroke-linecap: round;stroke-linejoin: round">
<circle cx="149.6100" cy="76.4800" r="3.2000"/> 
</g>
<g style="fill-opacity: 1.0000;stroke-width: 0.0000;stroke-opacity: 1;stroke-linecap: round;stroke-linejoin: round">
<circle cx="190.2500" cy="76.4800" r="3.2000"/> 
</g>
<g style="fill-opacity: 1.0000;stroke-width: 0.0000;stroke-opacity: 1;stroke-linecap: round;stroke-linejoin: round">
<path style="fill-opacity: 1.0000;stroke-width: 0.0000;stroke-opacity: 1;stroke-linecap: round;stroke-linejoin: round;fill-rule: evenodd" d="M 158.6340,90.3840 158.5575,90.3688 158.4926,90.3254 158.4492,90.2605 158.4340,90.1840 158.4340,87.6740 158.4492,87.5975 158.4926,87.5326 158.5575,87.4892 158.6340,87.4740 159.6340,87.4740 159.7105,87.4892 159.7754,87.5326 159.8188,87.5975 159.8340,87.6740 159.8340,90.1840 159.8188,90.2605 159.7754,90.3254 159.7105,90.3688 159.6340,90.3840 Z"/> 
<path style="fill-opacity: 1.0000;stroke-width: 0.0000;stroke-opacity: 1;stroke-linecap: round;stroke-linejoin: round;fill-rule: evenodd" d="M 161.1740,87.0740 161.0975,87.0588 161.0326,87.0154 160.9892,86.9505 160.9740,86.8740 160.9740,84.3640 160.9892,84.2875 161.0326,84.2226 161.0975,84.1792 161.1740,84.1640 162.1740,84.1640 162.2505,84.1792 162.3154,84.2226 162.3588,84.2875 162.3740,84.3640 162.3740,86.8740 162.3588,86.9505 162.3154,87.0154 162.2505,87.0588 162.1740,87.0740 Z"/> 
<path style="fill-opacity: 1.0000;stroke-width: 0.0000;stroke-opacity: 1;stroke-linecap: round;stroke-linejoin: round;fill-rule: evenodd" d="M 163.7140,90.3840 163.6375,90.3688 163.5726,90.3254 163.5292,90.2605 163.5140,90.1840 163.5140,87.6740 163.5292,87.5975 163.5726,87.5326 163.6375,87.4892 163.7140,87.4740 164.7140,87.4740 164.7905,87.4892 164.8554,87.5326 164.8988,87.5975 164.9140,87.6740 164.9140,90.1840 164.8988,90.2605 164.8554,90.3254 164.7905,90.3688 164.7140,90.3840 Z"/> 
</g>
<g style="fill-opacity: 1.0000;stroke-width: 0.0000;stroke-opacity: 1;stroke-linecap: round;stroke-linejoin: round">
<circle cx="149.6100" cy="96.8000" r="3.2000"/> 
</g>
<g style="fill-opacity: 1.0000;stroke-width: 0.0000;stroke-opacity: 1;stroke-linecap: round;stroke-linejoin: round">
<circle cx="190.2500" cy="96.8000" r="3.2000"/> 
</g>
<g style="fill-opacity: 1.0000;stroke-width: 0.0000;stroke-opacity: 1;stroke-linecap: round;stroke-linejoin: round">
<path style="fill-opacity: 1.0000;stroke-width: 0.0000;stroke-opacity: 1;stroke-linecap: round;stroke-linejoin: round;fill-rule: evenodd" d="M 149.7620,83.1920 149.7468,83.2685 149.7034,83.3334 149.6385,83.3768 149.5620,83.3920 148.0380,83.3920 147.9615,83.3768 147.8966,83.3334 147.8532,83.2685 147.8380,83.1920 147.8380,81.6680 147.8532,81.5915 147.8966,81.5266 147.9615,81.4832 148.0380,81.4680 149.5620,81.4680 149.6385,81.4832 149.7034,81.5266 149.7468,81.5915 149.7620,81.6680 Z"/> 
<path style="fill-opacity: 1.0000;stroke-width: 0.0000;stroke-opacity: 1;stroke-linecap: round;stroke-linejoin: round;fill-rule: evenodd" d="M 149.7620,85.7320 149.7468,85.8085 149.7034,85.8734 149.6385,85.9168 149.5620,85.9320 148.0380,85.9320 147.9615,85.9168 147.8966,85.8734 147.8532,85.8085 147.8380,85.7320 147.8380,84.2080 147.8532,84.1315 147.8966,84.0666 147.9615,84.0232 148.0380,84.0080 149.5620,84.0080 149.6385,84.0232 149.7034,84.0666 149.7468,84.1315 149.7620,84.2080 Z"/> 
</g>
</g> 
</g><g id="substrate-copper" style="fill:#f8f8f7; stroke:#f8f8f7;"><g style="fill-opacity: 0.0;stroke-width: 0.3000;stroke-opacity: 1;stroke-linecap: round;stroke-linejoin: round">
<text x="157.2740" y="100.2240" textLength="6.1643" font-size="2.0000" lengthAdjust="spacingAndGlyphs" text-anchor="middle" opacity="0">MLAB</text>
<g class="stroked-text"><desc>MLAB</desc>
<path d="M154.7740 100.1523 L154.7740 98.6523 "/>
<path d="M154.7740 98.6523 L155.2740 99.7238 "/>
<path d="M155.2740 99.7238 L155.7740 98.6523 "/>
<path d="M155.7740 98.6523 L155.7740 100.1523 "/>
<path d="M157.2026 100.1523 L156.4883 100.1523 "/>
<path d="M156.4883 100.1523 L156.4883 98.6523 "/>
<path d="M157.6311 99.7238 L158.3454 99.7238 "/>
<path d="M157.4883 100.1523 L157.9883 98.6523 "/>
<path d="M157.9883 98.6523 L158.4883 100.1523 "/>
<path d="M159.4883 99.3666 L159.7026 99.4380 "/>
<path d="M159.7026 99.4380 L159.7740 99.5095 "/>
<path d="M159.7740 99.5095 L159.8454 99.6523 "/>
<path d="M159.8454 99.6523 L159.8454 99.8666 "/>
<path d="M159.8454 99.8666 L159.7740 100.0095 "/>
<path d="M159.7740 100.0095 L159.7026 100.0809 "/>
<path d="M159.7026 100.0809 L159.5597 100.1523 "/>
<path d="M159.5597 100.1523 L158.9883 100.1523 "/>
<path d="M158.9883 100.1523 L158.9883 98.6523 "/>
<path d="M158.9883 98.6523 L159.4883 98.6523 "/>
<path d="M159.4883 98.6523 L159.6311 98.7238 "/>
<path d="M159.6311 98.7238 L159.7026 98.7952 "/>
<path d="M159.7026 98.7952 L159.7740 98.9380 "/>
<path d="M159.7740 98.9380 L159.7740 99.0809 "/>
<path d="M159.7740 99.0809 L159.7026 99.2238 "/>
<path d="M159.7026 99.2238 L159.6311 99.2952 "/>
<path d="M159.6311 99.2952 L159.4883 99.3666 "/>
<path d="M159.4883 99.3666 L158.9883 99.3666 "/>
</g><g style="fill-opacity: 1.0000;stroke-width: 0.0000;stroke-opacity: 1;stroke-linecap: round;stroke-linejoin: round">
<circle cx="149.6100" cy="76.4800" r="3.0000"/> 
</g>
<g style="fill-opacity: 1.0000;stroke-width: 0.0000;stroke-opacity: 1;stroke-linecap: round;stroke-linejoin: round">
<circle cx="190.2500" cy="76.4800" r="3.0000"/> 
</g>
<g style="fill-opacity: 1.0000;stroke-width: 0.0000;stroke-opacity: 1;stroke-linecap: round;stroke-linejoin: round">
<path style="fill-opacity: 1.0000;stroke-width: 0.0000;stroke-opacity: 1;stroke-linecap: round;stroke-linejoin: round;fill-rule: evenodd" d="M 159.6340,90.1840 158.6340,90.1840 158.6340,87.6740 159.6340,87.6740 Z"/> 
<path style="fill-opacity: 1.0000;stroke-width: 0.0000;stroke-opacity: 1;stroke-linecap: round;stroke-linejoin: round;fill-rule: evenodd" d="M 162.1740,86.8740 161.1740,86.8740 161.1740,84.3640 162.1740,84.3640 Z"/> 
<path style="fill-opacity: 1.0000;stroke-width: 0.0000;stroke-opacity: 1;stroke-linecap: round;stroke-linejoin: round;fill-rule: evenodd" d="M 164.7140,90.1840 163.7140,90.1840 163.7140,87.6740 164.7140,87.6740 Z"/> 
</g>
<g style="fill-opacity: 1.0000;stroke-width: 0.0000;stroke-opacity: 1;stroke-linecap: round;stroke-linejoin: round">
<circle cx="149.6100" cy="96.8000" r="3.0000"/> 
</g>
<g style="fill-opacity: 1.0000;stroke-width: 0.0000;stroke-opacity: 1;stroke-linecap: round;stroke-linejoin: round">
<circle cx="190.2500" cy="96.8000" r="3.0000"/> 
</g>
<g style="fill-opacity: 1.0000;stroke-width: 0.0000;stroke-opacity: 1;stroke-linecap: round;stroke-linejoin: round">
<path style="fill-opacity: 1.0000;stroke-width: 0.0000;stroke-opacity: 1;stroke-linecap: round;stroke-linejoin: round;fill-rule: evenodd" d="M 149.5620,81.6680 149.5620,83.1920 148.0380,83.1920 148.0380,81.6680 Z"/> 
<path style="fill-opacity: 1.0000;stroke-width: 0.0000;stroke-opacity: 1;stroke-linecap: round;stroke-linejoin: round;fill-rule: evenodd" d="M 149.5620,84.2080 149.5620,85.7320 148.0380,85.7320 148.0380,84.2080 Z"/> 
</g>
<g style="fill-opacity: 1.0000;stroke-width: 0.0000;stroke-opacity: 1;stroke-linecap: round;stroke-linejoin: round">
<circle cx="167.9000" cy="84.6500" r="0.4000"/> 
</g>
<g style="fill-opacity: 1.0000;stroke-width: 0.0000;stroke-opacity: 1;stroke-linecap: round;stroke-linejoin: round">
<circle cx="155.1500" cy="92.6000" r="0.4000"/> 
</g>
<g style="fill-opacity: 0.0;stroke-width: 0.4000;stroke-opacity: 1;stroke-linecap: round;stroke-linejoin: round">
<path d="M158.9050 88.7000 L159.1340 88.9290 "/>
<path d="M167.9000 83.7000 L167.9000 84.6500 "/>
<path d="M159.1340 83.7660 L160.9000 82.0000 "/>
<path d="M159.1340 88.9290 L159.1340 83.7660 "/>
<path d="M166.2000 82.0000 L167.9000 83.7000 "/>
<path d="M160.9000 82.0000 L166.2000 82.0000 "/>
<path d="M164.2140 88.9290 L164.2140 89.6360 "/>
<path d="M161.2500 92.6000 L155.1500 92.6000 "/>
<path d="M164.2140 88.9290 L164.4716 88.6714 "/>
<path d="M164.2140 89.6360 L161.2500 92.6000 "/>
</g>
<g style="fill-opacity: 0.0;stroke-width: 0.4000;stroke-opacity: 1;stroke-linecap: round;stroke-linejoin: round">
<g style="fill-opacity: 1.0000;stroke-width: 0.0000;stroke-opacity: 1;stroke-linecap: round;stroke-linejoin: round">
<path style="fill-opacity: 1.0000;stroke-width: 0.0000;stroke-opacity: 1;stroke-linecap: round;stroke-linejoin: round;fill-rule: evenodd" d="M 194.9628,71.6742 195.0321,71.7294 195.0705,71.8092 195.0755,71.8535 195.0755,101.4265 195.0558,101.5128 195.0006,101.5821 194.9208,101.6205 194.8765,101.6255 144.9835,101.6255 144.8972,101.6058 144.8279,101.5506 144.7895,101.4708 144.7845,101.4265 144.7845,97.7342 153.5771,97.7342 153.5771,101.2138 160.9709,101.2138 160.9709,97.7342 153.5771,97.7342 144.7845,97.7342 144.7845,92.6000 154.3444,92.6000 154.3646,92.7793 154.3646,92.7793 154.3646,92.7793 154.4242,92.9495 154.4242,92.9495 154.5202,93.1023 154.6477,93.2298 154.6477,93.2298 154.6477,93.2298 154.8005,93.3258 154.9707,93.3854 155.1500,93.4056 155.3293,93.3854 155.4995,93.3258 155.6504,93.2310 155.7340,93.2018 155.7562,93.2005 161.2041,93.2005 161.2171,93.2014 161.2299,93.2030 161.2500,93.2057 161.4068,93.1850 161.5528,93.1245 161.5819,93.1023 161.6783,93.0283 161.6985,93.0019 161.7071,92.9922 164.0564,90.6428 164.1314,90.5957 164.1972,90.5845 164.7455,90.5845 164.8393,90.5696 164.9523,90.5121 165.0420,90.4223 165.0996,90.3093 165.1145,90.2155 165.1145,87.6425 165.0996,87.5487 165.0420,87.4357 165.0420,87.4357 165.0420,87.4357 164.9523,87.3459 164.8393,87.2884 164.8393,87.2884 164.8393,87.2884 164.8393,87.2884 164.7738,87.2780 164.7455,87.2735 164.7455,87.2735 163.6825,87.2735 163.5887,87.2884 163.5887,87.2884 163.4757,87.3460 163.3859,87.4357 163.3284,87.5487 163.3284,87.5487 163.3135,87.6425 163.3135,89.6048 163.2938,89.6912 163.2552,89.7455 161.0596,91.9412 160.9846,91.9883 160.9188,91.9995 155.7562,91.9995 155.6699,91.9798 155.6504,91.9690 155.6062,91.9412 155.5817,91.9259 155.4995,91.8742 155.3293,91.8146 155.3293,91.8146 155.3293,91.8146 155.1500,91.7944 154.9707,91.8146 154.9707,91.8146 154.9707,91.8146 154.8005,91.8742 154.8005,91.8742 154.6477,91.9702 154.5202,92.0977 154.4242,92.2505 154.4242,92.2505 154.3646,92.4207 154.3646,92.4207 154.3444,92.6000 144.7845,92.6000 144.7845,90.2155 158.2335,90.2155 158.2463,90.2965 158.2484,90.3093 158.2484,90.3093 158.2484,90.3093 158.3060,90.4223 158.3957,90.5121 158.5087,90.5696 158.5087,90.5696 158.6025,90.5845 159.6655,90.5845 159.7593,90.5696 159.8723,90.5121 159.9621,90.4223 160.0196,90.3093 160.0345,90.2155 160.0345,87.6425 160.0196,87.5487 159.9621,87.4357 159.9620,87.4357 159.9620,87.4357 159.8723,87.3460 159.8723,87.3459 159.8432,87.3311 159.7752,87.2743 159.7385,87.1937 159.7345,87.1538 159.7345,85.8730 160.6440,85.8730 160.6440,86.9155 160.6542,87.0007 160.7077,87.1362 160.7077,87.1362 160.7957,87.2523 160.7957,87.2523 160.9118,87.3403 160.9118,87.3403 161.0473,87.3938 161.1325,87.4040 161.4200,87.4040 161.4200,85.8730 161.9280,85.8730 161.9280,87.4040 162.2155,87.4040 162.3007,87.3938 162.4362,87.3403 162.4362,87.3403 162.5523,87.2523 162.5523,87.2523 162.6403,87.1362 162.6403,87.1362 162.6938,87.0007 162.7040,86.9155 162.7040,85.8730 161.9280,85.8730 161.4200,85.8730 160.6440,85.8730 159.7345,85.8730 159.7345,85.3650 160.6440,85.3650 161.4200,85.3650 161.4200,83.8340 161.9280,83.8340 161.9280,85.3650 162.7040,85.3650 162.7040,84.3225 162.6938,84.2373 162.6403,84.1018 162.6403,84.1018 162.5523,83.9857 162.5523,83.9857 162.4362,83.8977 162.4362,83.8977 162.3007,83.8442 162.2155,83.8340 161.9280,83.8340 161.4200,83.8340 161.1325,83.8340 161.0473,83.8442 160.9118,83.8977 160.9118,83.8977 160.7957,83.9857 160.7957,83.9857 160.7077,84.1018 160.7077,84.1018 160.6542,84.2373 160.6440,84.3225 160.6440,85.3650 159.7345,85.3650 159.7345,84.0972 159.7542,84.0108 159.7928,83.9565 161.0904,82.6588 161.1654,82.6117 161.2312,82.6005 165.8688,82.6005 165.9552,82.6202 166.0096,82.6588 167.2412,83.8904 167.2883,83.9654 167.2995,84.0312 167.2995,84.0438 167.2798,84.1301 167.2690,84.1496 167.1742,84.3005 167.1742,84.3005 167.1146,84.4707 167.1146,84.4707 167.0944,84.6500 167.1146,84.8293 167.1146,84.8293 167.1146,84.8293 167.1742,84.9995 167.1742,84.9995 167.2702,85.1523 167.3977,85.2798 167.3977,85.2798 167.3977,85.2798 167.5505,85.3758 167.7207,85.4354 167.9000,85.4556 168.0793,85.4354 168.2495,85.3758 168.4023,85.2798 168.5298,85.1523 168.6258,84.9995 168.6854,84.8293 168.7056,84.6500 168.6854,84.4707 168.6258,84.3005 168.5310,84.1496 168.5018,84.0660 168.5005,84.0438 168.5005,83.7459 168.5014,83.7329 168.5029,83.7214 168.5057,83.7000 168.4850,83.5432 168.4245,83.3972 168.4245,83.3972 168.3524,83.3032 168.3283,83.2717 168.3154,83.2618 168.3020,83.2515 168.2922,83.2429 166.6571,81.6078 166.6485,81.5980 166.6283,81.5717 166.5887,81.5413 166.5028,81.4755 166.5028,81.4755 166.3568,81.4150 166.3568,81.4150 166.3568,81.4150 166.3568,81.4150 166.3568,81.4150 166.2394,81.3995 166.2394,81.3995 166.2131,81.3960 166.2000,81.3943 166.2000,81.3943 166.1671,81.3986 166.1541,81.3995 160.9459,81.3995 160.9329,81.3986 160.9000,81.3943 160.8606,81.3995 160.8606,81.3995 160.7432,81.4150 160.7432,81.4150 160.5972,81.4755 160.5972,81.4755 160.4717,81.5717 160.4515,81.5980 160.4429,81.6078 158.7418,83.3089 158.7320,83.3175 158.7057,83.3377 158.5962,83.4804 158.5924,83.5043 158.5917,83.5060 158.5490,83.6092 158.5490,83.6092 158.5283,83.7660 158.5326,83.7989 158.5335,83.8119 158.5335,87.1538 158.5138,87.2401 158.4586,87.3094 158.4248,87.3311 158.3957,87.3459 158.3957,87.3460 158.3059,87.4357 158.2484,87.5487 158.2484,87.5487 158.2335,87.6425 158.2335,90.2155 144.7845,90.2155 144.7845,83.2335 147.5080,83.2335 147.5182,83.3187 147.5717,83.4542 147.5717,83.4542 147.6597,83.5703 147.7336,83.6263 147.7905,83.6942 147.8123,83.7800 147.7947,83.8668 147.7540,83.9256 147.7099,83.9697 147.6524,84.0827 147.6524,84.0827 147.6375,84.1765 147.6375,85.7635 147.6503,85.8445 147.6524,85.8573 147.6524,85.8573 147.6524,85.8573 147.7100,85.9703 147.7997,86.0600 147.9127,86.1176 147.9127,86.1176 148.0065,86.1325 149.5935,86.1325 149.6873,86.1176 149.8003,86.0600 149.8901,85.9703 149.9476,85.8573 149.9625,85.7635 149.9625,84.1765 149.9476,84.0827 149.8901,83.9697 149.8900,83.9697 149.8900,83.9697 149.8460,83.9256 149.7988,83.8506 149.7889,83.7626 149.8182,83.6790 149.8664,83.6263 149.9403,83.5703 150.0283,83.4542 150.0283,83.4542 150.0818,83.3187 150.0920,83.2335 150.0920,82.6840 149.1666,82.6840 149.2184,82.5942 149.2483,82.4636 149.2383,82.3300 149.1893,82.2052 149.1660,82.1760 150.0920,82.1760 150.0920,81.6265 150.0818,81.5413 150.0283,81.4058 150.0283,81.4058 149.9403,81.2897 149.9403,81.2897 149.8242,81.2017 149.8242,81.2017 149.6887,81.1482 149.6035,81.1380 149.0540,81.1380 149.0540,82.0652 148.9950,82.0250 148.8670,81.9855 148.7667,81.9855 148.6675,82.0005 148.5468,82.0586 148.5460,82.0593 148.5460,81.1380 147.9965,81.1380 147.9113,81.1482 147.7758,81.2017 147.7758,81.2017 147.6597,81.2897 147.6597,81.2897 147.5717,81.4058 147.5717,81.4058 147.5182,81.5413 147.5080,81.6265 147.5080,82.1760 148.4334,82.1760 148.3816,82.2658 148.3517,82.3964 148.3617,82.5300 148.4107,82.6548 148.4340,82.6840 147.5080,82.6840 147.5080,83.2335 144.7845,83.2335 144.7845,71.8535 144.8042,71.7672 144.8594,71.6979 144.9392,71.6595 144.9835,71.6545 194.8765,71.6545 Z"/> 
</g>
</g>
</g> 
</g><g id="substrate-pads" style="fill:#c4c1ba; stroke:#c4c1ba;" mask="url(#pads-mask)"><g style="fill-opacity: 0.0;stroke-width: 0.3000;stroke-opacity: 1;stroke-linecap: round;stroke-linejoin: round">
<text x="157.2740" y="100.2240" textLength="6.1643" font-size="2.0000" lengthAdjust="spacingAndGlyphs" text-anchor="middle" opacity="0">MLAB</text>
<g class="stroked-text"><desc>MLAB</desc>
<path d="M154.7740 100.1523 L154.7740 98.6523 "/>
<path d="M154.7740 98.6523 L155.2740 99.7238 "/>
<path d="M155.2740 99.7238 L155.7740 98.6523 "/>
<path d="M155.7740 98.6523 L155.7740 100.1523 "/>
<path d="M157.2026 100.1523 L156.4883 100.1523 "/>
<path d="M156.4883 100.1523 L156.4883 98.6523 "/>
<path d="M157.6311 99.7238 L158.3454 99.7238 "/>
<path d="M157.4883 100.1523 L157.9883 98.6523 "/>
<path d="M157.9883 98.6523 L158.4883 100.1523 "/>
<path d="M159.4883 99.3666 L159.7026 99.4380 "/>
<path d="M159.7026 99.4380 L159.7740 99.5095 "/>
<path d="M159.7740 99.5095 L159.8454 99.6523 "/>
<path d="M159.8454 99.6523 L159.8454 99.8666 "/>
<path d="M159.8454 99.8666 L159.7740 100.0095 "/>
<path d="M159.7740 100.0095 L159.7026 100.0809 "/>
<path d="M159.7026 100.0809 L159.5597 100.1523 "/>
<path d="M159.5597 100.1523 L158.9883 100.1523 "/>
<path d="M158.9883 100.1523 L158.9883 98.6523 "/>
<path d="M158.9883 98.6523 L159.4883 98.6523 "/>
<path d="M159.4883 98.6523 L159.6311 98.7238 "/>
<path d="M159.6311 98.7238 L159.7026 98.7952 "/>
<path d="M159.7026 98.7952 L159.7740 98.9380 "/>
<path d="M159.7740 98.9380 L159.7740 99.0809 "/>
<path d="M159.7740 99.0809 L159.7026 99.2238 "/>
<path d="M159.7026 99.2238 L159.6311 99.2952 "/>
<path d="M159.6311 99.2952 L159.4883 99.3666 "/>
<path d="M159.4883 99.3666 L158.9883 99.3666 "/>
</g><g style="fill-opacity: 1.0000;stroke-width: 0.0000;stroke-opacity: 1;stroke-linecap: round;stroke-linejoin: round">
<circle cx="149.6100" cy="76.4800" r="3.0000"/> 
</g>
<g style="fill-opacity: 1.0000;stroke-width: 0.0000;stroke-opacity: 1;stroke-linecap: round;stroke-linejoin: round">
<circle cx="190.2500" cy="76.4800" r="3.0000"/> 
</g>
<g style="fill-opacity: 1.0000;stroke-width: 0.0000;stroke-opacity: 1;stroke-linecap: round;stroke-linejoin: round">
<path style="fill-opacity: 1.0000;stroke-width: 0.0000;stroke-opacity: 1;stroke-linecap: round;stroke-linejoin: round;fill-rule: evenodd" d="M 159.6340,90.1840 158.6340,90.1840 158.6340,87.6740 159.6340,87.6740 Z"/> 
<path style="fill-opacity: 1.0000;stroke-width: 0.0000;stroke-opacity: 1;stroke-linecap: round;stroke-linejoin: round;fill-rule: evenodd" d="M 162.1740,86.8740 161.1740,86.8740 161.1740,84.3640 162.1740,84.3640 Z"/> 
<path style="fill-opacity: 1.0000;stroke-width: 0.0000;stroke-opacity: 1;stroke-linecap: round;stroke-linejoin: round;fill-rule: evenodd" d="M 164.7140,90.1840 163.7140,90.1840 163.7140,87.6740 164.7140,87.6740 Z"/> 
</g>
<g style="fill-opacity: 1.0000;stroke-width: 0.0000;stroke-opacity: 1;stroke-linecap: round;stroke-linejoin: round">
<circle cx="149.6100" cy="96.8000" r="3.0000"/> 
</g>
<g style="fill-opacity: 1.0000;stroke-width: 0.0000;stroke-opacity: 1;stroke-linecap: round;stroke-linejoin: round">
<circle cx="190.2500" cy="96.8000" r="3.0000"/> 
</g>
<g style="fill-opacity: 1.0000;stroke-width: 0.0000;stroke-opacity: 1;stroke-linecap: round;stroke-linejoin: round">
<path style="fill-opacity: 1.0000;stroke-width: 0.0000;stroke-opacity: 1;stroke-linecap: round;stroke-linejoin: round;fill-rule: evenodd" d="M 149.5620,81.6680 149.5620,83.1920 148.0380,83.1920 148.0380,81.6680 Z"/> 
<path style="fill-opacity: 1.0000;stroke-width: 0.0000;stroke-opacity: 1;stroke-linecap: round;stroke-linejoin: round;fill-rule: evenodd" d="M 149.5620,84.2080 149.5620,85.7320 148.0380,85.7320 148.0380,84.2080 Z"/> 
</g>
<g style="fill-opacity: 1.0000;stroke-width: 0.0000;stroke-opacity: 1;stroke-linecap: round;stroke-linejoin: round">
<circle cx="167.9000" cy="84.6500" r="0.4000"/> 
</g>
<g style="fill-opacity: 1.0000;stroke-width: 0.0000;stroke-opacity: 1;stroke-linecap: round;stroke-linejoin: round">
<circle cx="155.1500" cy="92.6000" r="0.4000"/> 
</g>
<g style="fill-opacity: 0.0;stroke-width: 0.4000;stroke-opacity: 1;stroke-linecap: round;stroke-linejoin: round">
<path d="M158.9050 88.7000 L159.1340 88.9290 "/>
<path d="M167.9000 83.7000 L167.9000 84.6500 "/>
<path d="M159.1340 83.7660 L160.9000 82.0000 "/>
<path d="M159.1340 88.9290 L159.1340 83.7660 "/>
<path d="M166.2000 82.0000 L167.9000 83.7000 "/>
<path d="M160.9000 82.0000 L166.2000 82.0000 "/>
<path d="M164.2140 88.9290 L164.2140 89.6360 "/>
<path d="M161.2500 92.6000 L155.1500 92.6000 "/>
<path d="M164.2140 88.9290 L164.4716 88.6714 "/>
<path d="M164.2140 89.6360 L161.2500 92.6000 "/>
</g>
<g style="fill-opacity: 0.0;stroke-width: 0.4000;stroke-opacity: 1;stroke-linecap: round;stroke-linejoin: round">
<g style="fill-opacity: 1.0000;stroke-width: 0.0000;stroke-opacity: 1;stroke-linecap: round;stroke-linejoin: round">
<path style="fill-opacity: 1.0000;stroke-width: 0.0000;stroke-opacity: 1;stroke-linecap: round;stroke-linejoin: round;fill-rule: evenodd" d="M 194.9628,71.6742 195.0321,71.7294 195.0705,71.8092 195.0755,71.8535 195.0755,101.4265 195.0558,101.5128 195.0006,101.5821 194.9208,101.6205 194.8765,101.6255 144.9835,101.6255 144.8972,101.6058 144.8279,101.5506 144.7895,101.4708 144.7845,101.4265 144.7845,97.7342 153.5771,97.7342 153.5771,101.2138 160.9709,101.2138 160.9709,97.7342 153.5771,97.7342 144.7845,97.7342 144.7845,92.6000 154.3444,92.6000 154.3646,92.7793 154.3646,92.7793 154.3646,92.7793 154.4242,92.9495 154.4242,92.9495 154.5202,93.1023 154.6477,93.2298 154.6477,93.2298 154.6477,93.2298 154.8005,93.3258 154.9707,93.3854 155.1500,93.4056 155.3293,93.3854 155.4995,93.3258 155.6504,93.2310 155.7340,93.2018 155.7562,93.2005 161.2041,93.2005 161.2171,93.2014 161.2299,93.2030 161.2500,93.2057 161.4068,93.1850 161.5528,93.1245 161.5819,93.1023 161.6783,93.0283 161.6985,93.0019 161.7071,92.9922 164.0564,90.6428 164.1314,90.5957 164.1972,90.5845 164.7455,90.5845 164.8393,90.5696 164.9523,90.5121 165.0420,90.4223 165.0996,90.3093 165.1145,90.2155 165.1145,87.6425 165.0996,87.5487 165.0420,87.4357 165.0420,87.4357 165.0420,87.4357 164.9523,87.3459 164.8393,87.2884 164.8393,87.2884 164.8393,87.2884 164.8393,87.2884 164.7738,87.2780 164.7455,87.2735 164.7455,87.2735 163.6825,87.2735 163.5887,87.2884 163.5887,87.2884 163.4757,87.3460 163.3859,87.4357 163.3284,87.5487 163.3284,87.5487 163.3135,87.6425 163.3135,89.6048 163.2938,89.6912 163.2552,89.7455 161.0596,91.9412 160.9846,91.9883 160.9188,91.9995 155.7562,91.9995 155.6699,91.9798 155.6504,91.9690 155.6062,91.9412 155.5817,91.9259 155.4995,91.8742 155.3293,91.8146 155.3293,91.8146 155.3293,91.8146 155.1500,91.7944 154.9707,91.8146 154.9707,91.8146 154.9707,91.8146 154.8005,91.8742 154.8005,91.8742 154.6477,91.9702 154.5202,92.0977 154.4242,92.2505 154.4242,92.2505 154.3646,92.4207 154.3646,92.4207 154.3444,92.6000 144.7845,92.6000 144.7845,90.2155 158.2335,90.2155 158.2463,90.2965 158.2484,90.3093 158.2484,90.3093 158.2484,90.3093 158.3060,90.4223 158.3957,90.5121 158.5087,90.5696 158.5087,90.5696 158.6025,90.5845 159.6655,90.5845 159.7593,90.5696 159.8723,90.5121 159.9621,90.4223 160.0196,90.3093 160.0345,90.2155 160.0345,87.6425 160.0196,87.5487 159.9621,87.4357 159.9620,87.4357 159.9620,87.4357 159.8723,87.3460 159.8723,87.3459 159.8432,87.3311 159.7752,87.2743 159.7385,87.1937 159.7345,87.1538 159.7345,85.8730 160.6440,85.8730 160.6440,86.9155 160.6542,87.0007 160.7077,87.1362 160.7077,87.1362 160.7957,87.2523 160.7957,87.2523 160.9118,87.3403 160.9118,87.3403 161.0473,87.3938 161.1325,87.4040 161.4200,87.4040 161.4200,85.8730 161.9280,85.8730 161.9280,87.4040 162.2155,87.4040 162.3007,87.3938 162.4362,87.3403 162.4362,87.3403 162.5523,87.2523 162.5523,87.2523 162.6403,87.1362 162.6403,87.1362 162.6938,87.0007 162.7040,86.9155 162.7040,85.8730 161.9280,85.8730 161.4200,85.8730 160.6440,85.8730 159.7345,85.8730 159.7345,85.3650 160.6440,85.3650 161.4200,85.3650 161.4200,83.8340 161.9280,83.8340 161.9280,85.3650 162.7040,85.3650 162.7040,84.3225 162.6938,84.2373 162.6403,84.1018 162.6403,84.1018 162.5523,83.9857 162.5523,83.9857 162.4362,83.8977 162.4362,83.8977 162.3007,83.8442 162.2155,83.8340 161.9280,83.8340 161.4200,83.8340 161.1325,83.8340 161.0473,83.8442 160.9118,83.8977 160.9118,83.8977 160.7957,83.9857 160.7957,83.9857 160.7077,84.1018 160.7077,84.1018 160.6542,84.2373 160.6440,84.3225 160.6440,85.3650 159.7345,85.3650 159.7345,84.0972 159.7542,84.0108 159.7928,83.9565 161.0904,82.6588 161.1654,82.6117 161.2312,82.6005 165.8688,82.6005 165.9552,82.6202 166.0096,82.6588 167.2412,83.8904 167.2883,83.9654 167.2995,84.0312 167.2995,84.0438 167.2798,84.1301 167.2690,84.1496 167.1742,84.3005 167.1742,84.3005 167.1146,84.4707 167.1146,84.4707 167.0944,84.6500 167.1146,84.8293 167.1146,84.8293 167.1146,84.8293 167.1742,84.9995 167.1742,84.9995 167.2702,85.1523 167.3977,85.2798 167.3977,85.2798 167.3977,85.2798 167.5505,85.3758 167.7207,85.4354 167.9000,85.4556 168.0793,85.4354 168.2495,85.3758 168.4023,85.2798 168.5298,85.1523 168.6258,84.9995 168.6854,84.8293 168.7056,84.6500 168.6854,84.4707 168.6258,84.3005 168.5310,84.1496 168.5018,84.0660 168.5005,84.0438 168.5005,83.7459 168.5014,83.7329 168.5029,83.7214 168.5057,83.7000 168.4850,83.5432 168.4245,83.3972 168.4245,83.3972 168.3524,83.3032 168.3283,83.2717 168.3154,83.2618 168.3020,83.2515 168.2922,83.2429 166.6571,81.6078 166.6485,81.5980 166.6283,81.5717 166.5887,81.5413 166.5028,81.4755 166.5028,81.4755 166.3568,81.4150 166.3568,81.4150 166.3568,81.4150 166.3568,81.4150 166.3568,81.4150 166.2394,81.3995 166.2394,81.3995 166.2131,81.3960 166.2000,81.3943 166.2000,81.3943 166.1671,81.3986 166.1541,81.3995 160.9459,81.3995 160.9329,81.3986 160.9000,81.3943 160.8606,81.3995 160.8606,81.3995 160.7432,81.4150 160.7432,81.4150 160.5972,81.4755 160.5972,81.4755 160.4717,81.5717 160.4515,81.5980 160.4429,81.6078 158.7418,83.3089 158.7320,83.3175 158.7057,83.3377 158.5962,83.4804 158.5924,83.5043 158.5917,83.5060 158.5490,83.6092 158.5490,83.6092 158.5283,83.7660 158.5326,83.7989 158.5335,83.8119 158.5335,87.1538 158.5138,87.2401 158.4586,87.3094 158.4248,87.3311 158.3957,87.3459 158.3957,87.3460 158.3059,87.4357 158.2484,87.5487 158.2484,87.5487 158.2335,87.6425 158.2335,90.2155 144.7845,90.2155 144.7845,83.2335 147.5080,83.2335 147.5182,83.3187 147.5717,83.4542 147.5717,83.4542 147.6597,83.5703 147.7336,83.6263 147.7905,83.6942 147.8123,83.7800 147.7947,83.8668 147.7540,83.9256 147.7099,83.9697 147.6524,84.0827 147.6524,84.0827 147.6375,84.1765 147.6375,85.7635 147.6503,85.8445 147.6524,85.8573 147.6524,85.8573 147.6524,85.8573 147.7100,85.9703 147.7997,86.0600 147.9127,86.1176 147.9127,86.1176 148.0065,86.1325 149.5935,86.1325 149.6873,86.1176 149.8003,86.0600 149.8901,85.9703 149.9476,85.8573 149.9625,85.7635 149.9625,84.1765 149.9476,84.0827 149.8901,83.9697 149.8900,83.9697 149.8900,83.9697 149.8460,83.9256 149.7988,83.8506 149.7889,83.7626 149.8182,83.6790 149.8664,83.6263 149.9403,83.5703 150.0283,83.4542 150.0283,83.4542 150.0818,83.3187 150.0920,83.2335 150.0920,82.6840 149.1666,82.6840 149.2184,82.5942 149.2483,82.4636 149.2383,82.3300 149.1893,82.2052 149.1660,82.1760 150.0920,82.1760 150.0920,81.6265 150.0818,81.5413 150.0283,81.4058 150.0283,81.4058 149.9403,81.2897 149.9403,81.2897 149.8242,81.2017 149.8242,81.2017 149.6887,81.1482 149.6035,81.1380 149.0540,81.1380 149.0540,82.0652 148.9950,82.0250 148.8670,81.9855 148.7667,81.9855 148.6675,82.0005 148.5468,82.0586 148.5460,82.0593 148.5460,81.1380 147.9965,81.1380 147.9113,81.1482 147.7758,81.2017 147.7758,81.2017 147.6597,81.2897 147.6597,81.2897 147.5717,81.4058 147.5717,81.4058 147.5182,81.5413 147.5080,81.6265 147.5080,82.1760 148.4334,82.1760 148.3816,82.2658 148.3517,82.3964 148.3617,82.5300 148.4107,82.6548 148.4340,82.6840 147.5080,82.6840 147.5080,83.2335 144.7845,83.2335 144.7845,71.8535 144.8042,71.7672 144.8594,71.6979 144.9392,71.6595 144.9835,71.6545 194.8765,71.6545 Z"/> 
</g>
</g>
</g> 
</g><g id="substrate-silk" style="fill:#0b1013; stroke:#0b1013;" mask="url(#pads-mask-silkscreen)"><g style="fill-opacity: 0.0;stroke-width: 0.3000;stroke-opacity: 1;stroke-linecap: round;stroke-linejoin: round">
<text x="175.7500" y="75.8000" textLength="19.2719" font-size="2.2667" lengthAdjust="spacingAndGlyphs" text-anchor="middle" opacity="0">PINHOLDER03A</text>
<g class="stroked-text"><desc>PINHOLDER03A</desc>
<path d="M166.7238 75.7209 L166.7238 74.0209 "/>
<path d="M166.7238 74.0209 L167.3714 74.0209 "/>
<path d="M167.3714 74.0209 L167.5333 74.1018 "/>
<path d="M167.5333 74.1018 L167.6143 74.1828 "/>
<path d="M167.6143 74.1828 L167.6952 74.3447 "/>
<path d="M167.6952 74.3447 L167.6952 74.5875 "/>
<path d="M167.6952 74.5875 L167.6143 74.7494 "/>
<path d="M167.6143 74.7494 L167.5333 74.8304 "/>
<path d="M167.5333 74.8304 L167.3714 74.9113 "/>
<path d="M167.3714 74.9113 L166.7238 74.9113 "/>
<path d="M168.4238 75.7209 L168.4238 74.0209 "/>
<path d="M169.2333 75.7209 L169.2333 74.0209 "/>
<path d="M169.2333 74.0209 L170.2048 75.7209 "/>
<path d="M170.2048 75.7209 L170.2048 74.0209 "/>
<path d="M171.0143 75.7209 L171.0143 74.0209 "/>
<path d="M171.0143 74.8304 L171.9857 74.8304 "/>
<path d="M171.9857 75.7209 L171.9857 74.0209 "/>
<path d="M173.1190 74.0209 L173.4429 74.0209 "/>
<path d="M173.4429 74.0209 L173.6048 74.1018 "/>
<path d="M173.6048 74.1018 L173.7667 74.2637 "/>
<path d="M173.7667 74.2637 L173.8476 74.5875 "/>
<path d="M173.8476 74.5875 L173.8476 75.1542 "/>
<path d="M173.8476 75.1542 L173.7667 75.4780 "/>
<path d="M173.7667 75.4780 L173.6048 75.6399 "/>
<path d="M173.6048 75.6399 L173.4429 75.7209 "/>
<path d="M173.4429 75.7209 L173.1190 75.7209 "/>
<path d="M173.1190 75.7209 L172.9571 75.6399 "/>
<path d="M172.9571 75.6399 L172.7952 75.4780 "/>
<path d="M172.7952 75.4780 L172.7143 75.1542 "/>
<path d="M172.7143 75.1542 L172.7143 74.5875 "/>
<path d="M172.7143 74.5875 L172.7952 74.2637 "/>
<path d="M172.7952 74.2637 L172.9571 74.1018 "/>
<path d="M172.9571 74.1018 L173.1190 74.0209 "/>
<path d="M175.3857 75.7209 L174.5762 75.7209 "/>
<path d="M174.5762 75.7209 L174.5762 74.0209 "/>
<path d="M175.9524 75.7209 L175.9524 74.0209 "/>
<path d="M175.9524 74.0209 L176.3571 74.0209 "/>
<path d="M176.3571 74.0209 L176.6000 74.1018 "/>
<path d="M176.6000 74.1018 L176.7619 74.2637 "/>
<path d="M176.7619 74.2637 L176.8429 74.4256 "/>
<path d="M176.8429 74.4256 L176.9238 74.7494 "/>
<path d="M176.9238 74.7494 L176.9238 74.9923 "/>
<path d="M176.9238 74.9923 L176.8429 75.3161 "/>
<path d="M176.8429 75.3161 L176.7619 75.4780 "/>
<path d="M176.7619 75.4780 L176.6000 75.6399 "/>
<path d="M176.6000 75.6399 L176.3571 75.7209 "/>
<path d="M176.3571 75.7209 L175.9524 75.7209 "/>
<path d="M177.6524 74.8304 L178.2190 74.8304 "/>
<path d="M178.4619 75.7209 L177.6524 75.7209 "/>
<path d="M177.6524 75.7209 L177.6524 74.0209 "/>
<path d="M177.6524 74.0209 L178.4619 74.0209 "/>
<path d="M180.1619 75.7209 L179.5952 74.9113 "/>
<path d="M179.1905 75.7209 L179.1905 74.0209 "/>
<path d="M179.1905 74.0209 L179.8381 74.0209 "/>
<path d="M179.8381 74.0209 L180.0000 74.1018 "/>
<path d="M180.0000 74.1018 L180.0810 74.1828 "/>
<path d="M180.0810 74.1828 L180.1619 74.3447 "/>
<path d="M180.1619 74.3447 L180.1619 74.5875 "/>
<path d="M180.1619 74.5875 L180.0810 74.7494 "/>
<path d="M180.0810 74.7494 L180.0000 74.8304 "/>
<path d="M180.0000 74.8304 L179.8381 74.9113 "/>
<path d="M179.8381 74.9113 L179.1905 74.9113 "/>
<path d="M181.2143 74.0209 L181.3762 74.0209 "/>
<path d="M181.3762 74.0209 L181.5381 74.1018 "/>
<path d="M181.5381 74.1018 L181.6190 74.1828 "/>
<path d="M181.6190 74.1828 L181.7000 74.3447 "/>
<path d="M181.7000 74.3447 L181.7810 74.6685 "/>
<path d="M181.7810 74.6685 L181.7810 75.0732 "/>
<path d="M181.7810 75.0732 L181.7000 75.3970 "/>
<path d="M181.7000 75.3970 L181.6190 75.5589 "/>
<path d="M181.6190 75.5589 L181.5381 75.6399 "/>
<path d="M181.5381 75.6399 L181.3762 75.7209 "/>
<path d="M181.3762 75.7209 L181.2143 75.7209 "/>
<path d="M181.2143 75.7209 L181.0524 75.6399 "/>
<path d="M181.0524 75.6399 L180.9714 75.5589 "/>
<path d="M180.9714 75.5589 L180.8905 75.3970 "/>
<path d="M180.8905 75.3970 L180.8095 75.0732 "/>
<path d="M180.8095 75.0732 L180.8095 74.6685 "/>
<path d="M180.8095 74.6685 L180.8905 74.3447 "/>
<path d="M180.8905 74.3447 L180.9714 74.1828 "/>
<path d="M180.9714 74.1828 L181.0524 74.1018 "/>
<path d="M181.0524 74.1018 L181.2143 74.0209 "/>
<path d="M182.3476 74.0209 L183.4000 74.0209 "/>
<path d="M183.4000 74.0209 L182.8333 74.6685 "/>
<path d="M182.8333 74.6685 L183.0762 74.6685 "/>
<path d="M183.0762 74.6685 L183.2381 74.7494 "/>
<path d="M183.2381 74.7494 L183.3190 74.8304 "/>
<path d="M183.3190 74.8304 L183.4000 74.9923 "/>
<path d="M183.4000 74.9923 L183.4000 75.3970 "/>
<path d="M183.4000 75.3970 L183.3190 75.5589 "/>
<path d="M183.3190 75.5589 L183.2381 75.6399 "/>
<path d="M183.2381 75.6399 L183.0762 75.7209 "/>
<path d="M183.0762 75.7209 L182.5905 75.7209 "/>
<path d="M182.5905 75.7209 L182.4286 75.6399 "/>
<path d="M182.4286 75.6399 L182.3476 75.5589 "/>
<path d="M184.0476 75.2351 L184.8571 75.2351 "/>
<path d="M183.8857 75.7209 L184.4524 74.0209 "/>
<path d="M184.4524 74.0209 L185.0190 75.7209 "/>
</g></g>
<g style="fill-opacity: 0.0;stroke-width: 0.1500;stroke-opacity: 1;stroke-linecap: round;stroke-linejoin: round">
<text x="161.7000" y="91.8500" textLength="5.8417" font-size="1.3333" lengthAdjust="spacingAndGlyphs" text-anchor="middle" opacity="0">K     A</text>
<g class="stroked-text"><desc>K     A</desc>
<path d="M159.1048 91.8048 L159.1048 90.8048 "/>
<path d="M159.6762 91.8048 L159.2476 91.2334 "/>
<path d="M159.6762 90.8048 L159.1048 91.3762 "/>
<path d="M163.8667 91.5191 L164.3429 91.5191 "/>
<path d="M163.7714 91.8048 L164.1048 90.8048 "/>
<path d="M164.1048 90.8048 L164.4381 91.8048 "/>
</g></g>
<g style="fill-opacity: 0.0;stroke-width: 0.3000;stroke-opacity: 1;stroke-linecap: round;stroke-linejoin: round">
<text x="160.0454" y="75.5530" textLength="9.3786" font-size="2.0000" lengthAdjust="spacingAndGlyphs" text-anchor="middle" opacity="0">MLAB.cz</text>
<g class="stroked-text"><desc>MLAB.cz</desc>
<path d="M155.9383 75.4813 L155.9383 73.9813 "/>
<path d="M155.9383 73.9813 L156.4383 75.0528 "/>
<path d="M156.4383 75.0528 L156.9383 73.9813 "/>
<path d="M156.9383 73.9813 L156.9383 75.4813 "/>
<path d="M158.3668 75.4813 L157.6525 75.4813 "/>
<path d="M157.6525 75.4813 L157.6525 73.9813 "/>
<path d="M158.7954 75.0528 L159.5097 75.0528 "/>
<path d="M158.6525 75.4813 L159.1525 73.9813 "/>
<path d="M159.1525 73.9813 L159.6525 75.4813 "/>
<path d="M160.6525 74.6956 L160.8668 74.7670 "/>
<path d="M160.8668 74.7670 L160.9383 74.8385 "/>
<path d="M160.9383 74.8385 L161.0097 74.9813 "/>
<path d="M161.0097 74.9813 L161.0097 75.1956 "/>
<path d="M161.0097 75.1956 L160.9383 75.3385 "/>
<path d="M160.9383 75.3385 L160.8668 75.4099 "/>
<path d="M160.8668 75.4099 L160.7240 75.4813 "/>
<path d="M160.7240 75.4813 L160.1525 75.4813 "/>
<path d="M160.1525 75.4813 L160.1525 73.9813 "/>
<path d="M160.1525 73.9813 L160.6525 73.9813 "/>
<path d="M160.6525 73.9813 L160.7954 74.0528 "/>
<path d="M160.7954 74.0528 L160.8668 74.1242 "/>
<path d="M160.8668 74.1242 L160.9383 74.2670 "/>
<path d="M160.9383 74.2670 L160.9383 74.4099 "/>
<path d="M160.9383 74.4099 L160.8668 74.5528 "/>
<path d="M160.8668 74.5528 L160.7954 74.6242 "/>
<path d="M160.7954 74.6242 L160.6525 74.6956 "/>
<path d="M160.6525 74.6956 L160.1525 74.6956 "/>
<path d="M161.6525 75.3385 L161.7240 75.4099 "/>
<path d="M161.7240 75.4099 L161.6525 75.4813 "/>
<path d="M161.6525 75.4813 L161.5811 75.4099 "/>
<path d="M161.5811 75.4099 L161.6525 75.3385 "/>
<path d="M161.6525 75.3385 L161.6525 75.4813 "/>
<path d="M163.0097 75.4099 L162.8668 75.4813 "/>
<path d="M162.8668 75.4813 L162.5811 75.4813 "/>
<path d="M162.5811 75.4813 L162.4383 75.4099 "/>
<path d="M162.4383 75.4099 L162.3668 75.3385 "/>
<path d="M162.3668 75.3385 L162.2954 75.1956 "/>
<path d="M162.2954 75.1956 L162.2954 74.7670 "/>
<path d="M162.2954 74.7670 L162.3668 74.6242 "/>
<path d="M162.3668 74.6242 L162.4383 74.5528 "/>
<path d="M162.4383 74.5528 L162.5811 74.4813 "/>
<path d="M162.5811 74.4813 L162.8668 74.4813 "/>
<path d="M162.8668 74.4813 L163.0097 74.5528 "/>
<path d="M163.5097 74.4813 L164.2954 74.4813 "/>
<path d="M164.2954 74.4813 L163.5097 75.4813 "/>
<path d="M163.5097 75.4813 L164.2954 75.4813 "/>
</g></g>
<g style="fill-opacity: 0.0;stroke-width: 0.1500;stroke-opacity: 1;stroke-linecap: round;stroke-linejoin: round">
<text x="161.6740" y="88.4000" textLength="1.8893" font-size="1.3333" lengthAdjust="spacingAndGlyphs" text-anchor="middle" opacity="0">J1</text>
<g class="stroked-text"><desc>J1</desc>
<path d="M161.3407 87.3548 L161.3407 88.0691 "/>
<path d="M161.3407 88.0691 L161.2930 88.2120 "/>
<path d="M161.2930 88.2120 L161.1978 88.3072 "/>
<path d="M161.1978 88.3072 L161.0550 88.3548 "/>
<path d="M161.0550 88.3548 L160.9597 88.3548 "/>
<path d="M162.3407 88.3548 L161.7692 88.3548 "/>
<path d="M162.0550 88.3548 L162.0550 87.3548 "/>
<path d="M162.0550 87.3548 L161.9597 87.4977 "/>
<path d="M161.9597 87.4977 L161.8645 87.5929 "/>
<path d="M161.8645 87.5929 L161.7692 87.6405 "/>
</g></g>
<g style="fill-opacity: 0.0;stroke-width: 0.1200;stroke-opacity: 1;stroke-linecap: round;stroke-linejoin: round">
<path d="M165.5440 88.6040 L165.5440 85.9440 "/>
<path d="M159.8940 88.6040 L163.4540 88.6040 "/>
<path d="M157.8040 88.6040 L157.8040 85.9440 "/>
<path d="M157.8040 88.6040 L158.3740 88.6040 "/>
<path d="M162.4340 85.9440 L165.5440 85.9440 "/>
<path d="M164.9740 85.9440 L165.5440 85.9440 "/>
<path d="M158.3740 88.6040 L158.3740 90.1240 "/>
<path d="M157.8040 85.9440 L160.9140 85.9440 "/>
</g> 
</g><g id="substrate-outline" style="fill:#000000; stroke:#000000; stroke-width: 0.15"><g style="fill-opacity: 0.0;stroke-opacity: 1;stroke-linecap: round;stroke-linejoin: round">
<path d="M144.7840 101.6260 L195.0760 101.6260 "/>
<path d="M144.7840 71.6540 L195.0760 71.6540 "/>
<path d="M195.0760 71.6540 L195.0760 101.6260 "/>
<path d="M144.7840 101.6260 L144.7840 71.6540 "/>
</g> 
<path d="M -1.5 0.0 A 1.5 1.5 0 1 1 1.5 0.0 L 1.5 -0.0 A 1.5 1.5 0 1 1 -1.5 -0.0 Z" transform="translate(149.61 76.48) rotate(-0.0)"/><path d="M -1.5 0.0 A 1.5 1.5 0 1 1 1.5 0.0 L 1.5 -0.0 A 1.5 1.5 0 1 1 -1.5 -0.0 Z" transform="translate(190.25 76.48) rotate(-0.0)"/><path d="M -1.5 0.0 A 1.5 1.5 0 1 1 1.5 0.0 L 1.5 -0.0 A 1.5 1.5 0 1 1 -1.5 -0.0 Z" transform="translate(149.61 96.8) rotate(-0.0)"/><path d="M -1.5 0.0 A 1.5 1.5 0 1 1 1.5 0.0 L 1.5 -0.0 A 1.5 1.5 0 1 1 -1.5 -0.0 Z" transform="translate(190.25 96.8) rotate(-0.0)"/><path d="M -0.4445 0.0 A 0.4445 0.4445 0 1 1 0.4445 0.0 L 0.4445 -0.0 A 0.4445 0.4445 0 1 1 -0.4445 -0.0 Z" transform="translate(148.8 82.43) rotate(-180.0)"/><path d="M -0.4445 0.0 A 0.4445 0.4445 0 1 1 0.4445 0.0 L 0.4445 -0.0 A 0.4445 0.4445 0 1 1 -0.4445 -0.0 Z" transform="translate(148.8 84.97) rotate(-180.0)"/><path d="M -0.2 0.0 A 0.2 0.2 0 1 1 0.2 0.0 L 0.2 -0.0 A 0.2 0.2 0 1 1 -0.2 -0.0 Z" transform="translate(167.9 84.65) rotate(-0.0)"/><path d="M -0.2 0.0 A 0.2 0.2 0 1 1 0.2 0.0 L 0.2 -0.0 A 0.2 0.2 0 1 1 -0.2 -0.0 Z" transform="translate(155.15 92.6) rotate(-0.0)"/></g></g><g id="substrate-paste" style="fill:#8a8a8a; stroke:#8a8a8a;"><g style="fill-opacity: 0.0;stroke-width: 0.0000;stroke-opacity: 1;stroke-linecap: round;stroke-linejoin: round">
<g style="fill-opacity: 1.0000;stroke-width: 0.0000;stroke-opacity: 1;stroke-linecap: round;stroke-linejoin: round">
<path style="fill-opacity: 1.0000;stroke-width: 0.0000;stroke-opacity: 1;stroke-linecap: round;stroke-linejoin: round;fill-rule: evenodd" d="M 159.6340,90.1840 158.6340,90.1840 158.6340,87.6740 159.6340,87.6740 Z"/> 
<path style="fill-opacity: 1.0000;stroke-width: 0.0000;stroke-opacity: 1;stroke-linecap: round;stroke-linejoin: round;fill-rule: evenodd" d="M 162.1740,86.8740 161.1740,86.8740 161.1740,84.3640 162.1740,84.3640 Z"/> 
<path style="fill-opacity: 1.0000;stroke-width: 0.0000;stroke-opacity: 1;stroke-linecap: round;stroke-linejoin: round;fill-rule: evenodd" d="M 164.7140,90.1840 163.7140,90.1840 163.7140,87.6740 164.7140,87.6740 Z"/> 
</g>
</g> 
</g></g><g transform="" id="componentContainer"><!--Mlab_Mechanical:MountingHole_3mm:M3--><g transform="translate(149.61 76.48) scale(1.0, 1.0) rotate(-0.0) translate(-0.75 -0.75)"><g id="pref_12_Mlab_Mechanical__MountingHole_3mm_HOLE"><defs xmlns:xlink="http://www.w3.org/1999/xlink" id="pref_13defs13">
    <linearGradient id="pref_13linearGradient13300">
      <stop style="stop-color:#e5e5e5;stop-opacity:1;" offset="0" id="pref_13stop13298"/>
    </linearGradient>
    <linearGradient id="pref_13linearGradient10336">
      <stop style="stop-color:#cfcfcf;stop-opacity:1" offset="0" id="pref_13stop10332"/>
      <stop style="stop-color:#cdcdcd;stop-opacity:0" offset="1" id="pref_13stop10334"/>
    </linearGradient>
    <linearGradient id="pref_13linearGradient9067">
      <stop style="stop-color:#d3d3d3;stop-opacity:1;" offset="0" id="pref_13stop9051"/>
      <stop style="stop-color:#c8c8c8;stop-opacity:1;" offset="0.1656336" id="pref_13stop9053"/>
      <stop style="stop-color:#d8d8d8;stop-opacity:0.52030832" offset="0.29162589" id="pref_13stop9055"/>
      <stop style="stop-color:#c6c6c6;stop-opacity:0.51711833" offset="0.38067153" id="pref_13stop9057"/>
      <stop style="stop-color:#bbbbbb;stop-opacity:0.45933419" offset="0.51505035" id="pref_13stop9059"/>
      <stop style="stop-color:#8e8e8e;stop-opacity:0.47450981" offset="0.5970481" id="pref_13stop9061"/>
      <stop style="stop-color:#656565;stop-opacity:0.56470591" offset="0.7681157" id="pref_13stop9063"/>
      <stop style="stop-color:#606060;stop-opacity:0.28235294;" offset="0.95913506" id="pref_13stop9743"/>
      <stop style="stop-color:#b5b5b5;stop-opacity:0.21568628" offset="1" id="pref_13stop9065"/>
    </linearGradient>
    <linearGradient id="pref_13linearGradient3692">
      <stop style="stop-color:#e4e4e4;stop-opacity:1" offset="0" id="pref_13stop6926"/>
      <stop style="stop-color:#e5e5e5;stop-opacity:1" offset="0.1656336" id="pref_13stop6928"/>
      <stop style="stop-color:#f5f5f5;stop-opacity:1" offset="0.29162589" id="pref_13stop6930"/>
      <stop style="stop-color:#c6c6c6;stop-opacity:1;" offset="0.38067153" id="pref_13stop6932"/>
      <stop style="stop-color:#dddddd;stop-opacity:1" offset="0.57577699" id="pref_13stop6934"/>
      <stop style="stop-color:#f2f2f2;stop-opacity:1" offset="0.66836077" id="pref_13stop6936"/>
      <stop style="stop-color:#ebebeb;stop-opacity:1" offset="0.79280978" id="pref_13stop6938"/>
      <stop style="stop-color:#efefef;stop-opacity:1" offset="1" id="pref_13stop6940"/>
    </linearGradient>
    <linearGradient id="pref_13linearGradient5758">
      <stop style="stop-color:#f6f6f6;stop-opacity:0.89019608" offset="0" id="pref_13stop5754"/>
      <stop style="stop-color:#646464;stop-opacity:0.9921568" offset="1" id="pref_13stop5756"/>
    </linearGradient>
    <linearGradient id="pref_13linearGradient3692-7">
      <stop style="stop-color:#d3d3d3;stop-opacity:1;" offset="0" id="pref_13stop3688"/>
      <stop style="stop-color:#c8c8c8;stop-opacity:1;" offset="0.1656336" id="pref_13stop4378"/>
      <stop style="stop-color:#ededed;stop-opacity:1" offset="0.29162589" id="pref_13stop4444"/>
      <stop style="stop-color:#c6c6c6;stop-opacity:1;" offset="0.38067153" id="pref_13stop4376"/>
      <stop style="stop-color:#dbdbdb;stop-opacity:1" offset="0.57577699" id="pref_13stop4308"/>
      <stop style="stop-color:#c8c8c8;stop-opacity:1" offset="0.66836077" id="pref_13stop4242"/>
      <stop style="stop-color:#b8b8b8;stop-opacity:1;" offset="0.79280978" id="pref_13stop4310"/>
      <stop style="stop-color:#aeaeae;stop-opacity:1" offset="1" id="pref_13stop3690"/>
    </linearGradient>
    <linearGradient id="pref_13linearGradient3156">
      <stop style="stop-color:#d3d3d3;stop-opacity:1;" offset="0" id="pref_13stop3152"/>
      <stop style="stop-color:#d3d3d3;stop-opacity:0.89019608;" offset="0.93029171" id="pref_13stop3290"/>
      <stop style="stop-color:#757575;stop-opacity:1" offset="1" id="pref_13stop3154"/>
    </linearGradient>
    <radialGradient xlink:href="#pref_13linearGradient3156" id="pref_13radialGradient3160" cx="0.75" cy="0.75" fx="0.75" fy="0.75" r="2.75" gradientUnits="userSpaceOnUse" gradientTransform="matrix(0.96363636,0,0,0.96363636,0.02727275,0.02727275)"/>
    <linearGradient xlink:href="#pref_13linearGradient3692-7" id="pref_13linearGradient3694" x1="-0.69187778" y1="-1.1810942" x2="2.8737183" y2="2.1900826" gradientUnits="userSpaceOnUse" gradientTransform="matrix(0.92592591,0,0,0.92592591,0.05555555,0.05555555)"/>
    <linearGradient xlink:href="#pref_13linearGradient5758" id="pref_13linearGradient5760" x1="-15.456677" y1="-15.474042" x2="-4.6413889" y2="-6.7602329" gradientUnits="userSpaceOnUse"/>
    <linearGradient xlink:href="#pref_13linearGradient3692" id="pref_13linearGradient6924" gradientUnits="userSpaceOnUse" x1="1.4987922" y1="4.3924975" x2="-1.0811033" y2="-3.0084407"/>
    <radialGradient xlink:href="#pref_13linearGradient9067" id="pref_13radialGradient8763" cx="0.75" cy="0.75" fx="0.75" fy="0.75" r="2.5" gradientUnits="userSpaceOnUse"/>
    <radialGradient xlink:href="#pref_13linearGradient10336" id="pref_13radialGradient10338" cx="-9.3072596" cy="-12.247526" fx="-9.3072596" fy="-12.247526" r="5.7490053" gradientTransform="matrix(0.25618062,-0.83918687,0.82829029,0.2528542,1.5718983,-16.37084)" gradientUnits="userSpaceOnUse"/>
  </defs>
  <circle style="opacity:1;fill:url(#pref_13linearGradient6924);fill-opacity:1;stroke:#cecece;stroke-width:0.05;stroke-miterlimit:4;stroke-dasharray:none;stroke-opacity:1" id="pref_13path6642" cx="0.75" cy="0.75" r="3.5"/>
  <circle style="fill:url(#pref_13radialGradient3160);fill-opacity:1;stroke-width:0.0358194" id="pref_13path1030-6" cx="0.75" cy="0.75" r="2.6500001"/>
  <circle style="opacity:1;fill:url(#pref_13linearGradient3694);fill-opacity:1;stroke-width:0.033792" id="pref_13path1030" cx="0.75" cy="0.75" r="2.5"/>
  <circle style="fill:url(#pref_13radialGradient8763);fill-opacity:1;stroke-width:0.034;stroke-miterlimit:4;stroke-dasharray:none" id="pref_13path1030-7" cx="0.75" cy="0.75" r="2.5"/>
  <path xmlns:sodipodi="http://sodipodi.sourceforge.net/DTD/sodipodi-0.dtd" sodipodi:type="star" style="opacity:1;fill:#b6b6b6;fill-opacity:1;stroke:url(#pref_13linearGradient5760);stroke-width:0.398303;stroke-miterlimit:4;stroke-dasharray:none;stroke-opacity:1" id="pref_13path1288-3" sodipodi:sides="6" sodipodi:cx="-9.9017067" sodipodi:cy="-10.789671" sodipodi:r1="5.7490053" sodipodi:r2="4.9787846" sodipodi:arg1="1.0471976" sodipodi:arg2="1.5707963" transform="matrix(0.24392497,0.05945068,-0.05945068,0.24392497,2.5238203,3.9705334)" d="m -7.0272043,-5.8108862 -5.7490057,-2e-7 -2.874502,-4.9787846 2.874503,-4.978785 5.7490052,1e-6 2.8745024,4.978784 z"/>
  <path xmlns:sodipodi="http://sodipodi.sourceforge.net/DTD/sodipodi-0.dtd" sodipodi:type="star" style="opacity:1;fill:url(#pref_13radialGradient10338);fill-opacity:1;stroke:none;stroke-width:0.398303;stroke-miterlimit:4;stroke-dasharray:none;stroke-opacity:1" id="pref_13path1288-3-6" sodipodi:sides="6" sodipodi:cx="-9.9017067" sodipodi:cy="-10.789671" sodipodi:r1="5.7490053" sodipodi:r2="4.9787846" sodipodi:arg1="1.0471976" sodipodi:arg2="1.5707963" transform="matrix(0.24487282,0.0596817,-0.0596817,0.24487282,2.5307131,3.9830479)" d="m -7.0272043,-5.8108862 -5.7490057,-2e-7 -2.874502,-4.9787846 2.874503,-4.978785 5.7490052,1e-6 2.8745024,4.978784 z"/>
</g></g><!--Mlab_Mechanical:MountingHole_3mm:M2--><g transform="translate(190.25 76.48) scale(1.0, 1.0) rotate(-0.0) translate(-0.75 -0.75)"><use xmlns:xlink="http://www.w3.org/1999/xlink" xlink:href="#pref_12_Mlab_Mechanical__MountingHole_3mm_HOLE"/></g><!--Mlab_Mechanical:MountingHole_3mm:M4--><g transform="translate(149.61 96.8) scale(1.0, 1.0) rotate(-0.0) translate(-0.75 -0.75)"><use xmlns:xlink="http://www.w3.org/1999/xlink" xlink:href="#pref_12_Mlab_Mechanical__MountingHole_3mm_HOLE"/></g><!--Mlab_Mechanical:MountingHole_3mm:M1--><g transform="translate(190.25 96.8) scale(1.0, 1.0) rotate(-0.0) translate(-0.75 -0.75)"><use xmlns:xlink="http://www.w3.org/1999/xlink" xlink:href="#pref_12_Mlab_Mechanical__MountingHole_3mm_HOLE"/></g></g></svg>