<!DOCTYPE svg PUBLIC "-//W3C//DTD SVG 1.1//EN" "http://www.w3.org/Graphics/SVG/1.1/DTD/svg11.dtd">
<svg xmlns="http://www.w3.org/2000/svg" version="1.1" width="60.392mm" height="40.072mm" viewBox="-2001260.0 666040.0 603920.0 400720.0">
            <title>Picture generated by PcbDraw </title>
            <desc>Picture generated by PcbDraw</desc>
        <defs><clipPath id="cut-off"><path d=" M 1950760.0 1016260.0 L 1950760.0 716540.0 L 1447840.0 716540.0 L 1447840.0 1016260.0 L 1950760.0 1016260.0 " style="fill-rule: evenodd;"/></clipPath><mask id="pads-mask"><g style="fill:#ffffff; fill-opacity:0.0;  stroke:#ffffff; stroke-width:0.000000; stroke-opacity:1;  stroke-linecap:round; stroke-linejoin:round;">
<g style="fill:#ffffff; fill-opacity:1.0;  stroke:#ffffff; stroke-width:0.010000; stroke-opacity:1;  stroke-linecap:round; stroke-linejoin:round;">
<circle cx="1496100.000000" cy="764800.000000" r="32000.000000"/> 
</g>
<g style="fill:#ffffff; fill-opacity:1.0;  stroke:#ffffff; stroke-width:0.010000; stroke-opacity:1;  stroke-linecap:round; stroke-linejoin:round;">
<circle cx="1902500.000000" cy="764800.000000" r="32000.000000"/> 
</g>
<g style="fill:#ffffff; fill-opacity:1.0;  stroke:#ffffff; stroke-width:0.010000; stroke-opacity:1;  stroke-linecap:round; stroke-linejoin:round;">
<circle cx="1496100.000000" cy="968000.000000" r="32000.000000"/> 
</g>
<g style="fill:#ffffff; fill-opacity:1.0;  stroke:#ffffff; stroke-width:0.010000; stroke-opacity:1;  stroke-linecap:round; stroke-linejoin:round;">
<circle cx="1902500.000000" cy="968000.000000" r="32000.000000"/> 
</g>
<g style="fill:#ffffff; fill-opacity:1.0;  stroke:#ffffff; stroke-width:0.010000; stroke-opacity:1;  stroke-linecap:round; stroke-linejoin:round;">
<path style="fill:#ffffff; fill-opacity:1.0;  stroke:#ffffff; stroke-width:0.010000; stroke-opacity:1;  stroke-linecap:round; stroke-linejoin:round;fill-rule:evenodd;" d="M 1559000.000000,802000.000000 1559765.370000,802152.240000 1560414.210000,802585.790000 1560847.760000,803234.630000 1561000.000000,804000.000000 1561000.000000,842000.000000 1560847.760000,842765.370000 1560414.210000,843414.210000 1559765.370000,843847.760000 1559000.000000,844000.000000 1539000.000000,844000.000000 1538234.630000,843847.760000 1537585.790000,843414.210000 1537152.240000,842765.370000 1537000.000000,842000.000000 1537000.000000,804000.000000 1537152.240000,803234.630000 1537585.790000,802585.790000 1538234.630000,802152.240000 1539000.000000,802000.000000 Z"/> 
</g>
<g style="fill:#ffffff; fill-opacity:1.0;  stroke:#ffffff; stroke-width:0.010000; stroke-opacity:1;  stroke-linecap:round; stroke-linejoin:round;">
<circle cx="1679000.000000" cy="846500.000000" r="4549.500000"/> 
</g>
<g style="fill:#ffffff; fill-opacity:1.0;  stroke:#ffffff; stroke-width:0.010000; stroke-opacity:1;  stroke-linecap:round; stroke-linejoin:round;">
<path style="fill:#ffffff; fill-opacity:1.0;  stroke:#ffffff; stroke-width:0.010000; stroke-opacity:1;  stroke-linecap:round; stroke-linejoin:round;fill-rule:evenodd;" d="M 1497620.000000,831920.000000 1497467.760000,832685.370000 1497034.210000,833334.210000 1496385.370000,833767.760000 1495620.000000,833920.000000 1480380.000000,833920.000000 1479614.630000,833767.760000 1478965.790000,833334.210000 1478532.240000,832685.370000 1478380.000000,831920.000000 1478380.000000,816680.000000 1478532.240000,815914.630000 1478965.790000,815265.790000 1479614.630000,814832.240000 1480380.000000,814680.000000 1495620.000000,814680.000000 1496385.370000,814832.240000 1497034.210000,815265.790000 1497467.760000,815914.630000 1497620.000000,816680.000000 Z"/> 
<path style="fill:#ffffff; fill-opacity:1.0;  stroke:#ffffff; stroke-width:0.010000; stroke-opacity:1;  stroke-linecap:round; stroke-linejoin:round;fill-rule:evenodd;" d="M 1497620.000000,857320.000000 1497467.760000,858085.370000 1497034.210000,858734.210000 1496385.370000,859167.760000 1495620.000000,859320.000000 1480380.000000,859320.000000 1479614.630000,859167.760000 1478965.790000,858734.210000 1478532.240000,858085.370000 1478380.000000,857320.000000 1478380.000000,842080.000000 1478532.240000,841314.630000 1478965.790000,840665.790000 1479614.630000,840232.240000 1480380.000000,840080.000000 1495620.000000,840080.000000 1496385.370000,840232.240000 1497034.210000,840665.790000 1497467.760000,841314.630000 1497620.000000,842080.000000 Z"/> 
</g>
<g style="fill:#ffffff; fill-opacity:1.0;  stroke:#ffffff; stroke-width:0.010000; stroke-opacity:1;  stroke-linecap:round; stroke-linejoin:round;">
<path style="fill:#ffffff; fill-opacity:1.0;  stroke:#ffffff; stroke-width:0.010000; stroke-opacity:1;  stroke-linecap:round; stroke-linejoin:round;fill-rule:evenodd;" d="M 1538500.000000,931000.000000 1537734.630000,930847.760000 1537085.790000,930414.210000 1536652.240000,929765.370000 1536500.000000,929000.000000 1536500.000000,891000.000000 1536652.240000,890234.630000 1537085.790000,889585.790000 1537734.630000,889152.240000 1538500.000000,889000.000000 1558500.000000,889000.000000 1559265.370000,889152.240000 1559914.210000,889585.790000 1560347.760000,890234.630000 1560500.000000,891000.000000 1560500.000000,929000.000000 1560347.760000,929765.370000 1559914.210000,930414.210000 1559265.370000,930847.760000 1558500.000000,931000.000000 Z"/> 
</g>
<g style="fill:#ffffff; fill-opacity:1.0;  stroke:#ffffff; stroke-width:0.010000; stroke-opacity:1;  stroke-linecap:round; stroke-linejoin:round;">
<g>
<path style="fill:#ffffff; fill-opacity:1.0;  stroke:#ffffff; stroke-width:0.010000; stroke-opacity:1;  stroke-linecap:round; stroke-linejoin:round;fill-rule:evenodd;" d="M 1950615.020000,716684.980000 1950760.000000,717035.000000 1950760.000000,1015765.000000 1950615.020000,1016115.020000 1950265.000000,1016260.000000 1448335.000000,1016260.000000 1447984.980000,1016115.020000 1447840.000000,1015765.000000 1447840.000000,717035.000000 1447984.980000,716684.980000 1448335.000000,716540.000000 1950265.000000,716540.000000 Z"/> 
</g>
</g>
</g> 
</mask><mask id="pads-mask-silkscreen"><rect x="1447340.0" y="716040.0" width="503920.0" height="300720.0" fill="white"/><g style="fill:#000000; fill-opacity:0.0;  stroke:#000000; stroke-width:0.000000; stroke-opacity:1;  stroke-linecap:round; stroke-linejoin:round;">
<g style="fill:#000000; fill-opacity:1.0;  stroke:#000000; stroke-width:0.010000; stroke-opacity:1;  stroke-linecap:round; stroke-linejoin:round;">
<circle cx="1496100.000000" cy="764800.000000" r="32000.000000"/> 
</g>
<g style="fill:#000000; fill-opacity:1.0;  stroke:#000000; stroke-width:0.010000; stroke-opacity:1;  stroke-linecap:round; stroke-linejoin:round;">
<circle cx="1902500.000000" cy="764800.000000" r="32000.000000"/> 
</g>
<g style="fill:#000000; fill-opacity:1.0;  stroke:#000000; stroke-width:0.010000; stroke-opacity:1;  stroke-linecap:round; stroke-linejoin:round;">
<circle cx="1496100.000000" cy="968000.000000" r="32000.000000"/> 
</g>
<g style="fill:#000000; fill-opacity:1.0;  stroke:#000000; stroke-width:0.010000; stroke-opacity:1;  stroke-linecap:round; stroke-linejoin:round;">
<circle cx="1902500.000000" cy="968000.000000" r="32000.000000"/> 
</g>
<g style="fill:#000000; fill-opacity:1.0;  stroke:#000000; stroke-width:0.010000; stroke-opacity:1;  stroke-linecap:round; stroke-linejoin:round;">
<path style="fill:#000000; fill-opacity:1.0;  stroke:#000000; stroke-width:0.010000; stroke-opacity:1;  stroke-linecap:round; stroke-linejoin:round;fill-rule:evenodd;" d="M 1559000.000000,802000.000000 1559765.370000,802152.240000 1560414.210000,802585.790000 1560847.760000,803234.630000 1561000.000000,804000.000000 1561000.000000,842000.000000 1560847.760000,842765.370000 1560414.210000,843414.210000 1559765.370000,843847.760000 1559000.000000,844000.000000 1539000.000000,844000.000000 1538234.630000,843847.760000 1537585.790000,843414.210000 1537152.240000,842765.370000 1537000.000000,842000.000000 1537000.000000,804000.000000 1537152.240000,803234.630000 1537585.790000,802585.790000 1538234.630000,802152.240000 1539000.000000,802000.000000 Z"/> 
</g>
<g style="fill:#000000; fill-opacity:1.0;  stroke:#000000; stroke-width:0.010000; stroke-opacity:1;  stroke-linecap:round; stroke-linejoin:round;">
<circle cx="1679000.000000" cy="846500.000000" r="4549.500000"/> 
</g>
<g style="fill:#000000; fill-opacity:1.0;  stroke:#000000; stroke-width:0.010000; stroke-opacity:1;  stroke-linecap:round; stroke-linejoin:round;">
<path style="fill:#000000; fill-opacity:1.0;  stroke:#000000; stroke-width:0.010000; stroke-opacity:1;  stroke-linecap:round; stroke-linejoin:round;fill-rule:evenodd;" d="M 1497620.000000,831920.000000 1497467.760000,832685.370000 1497034.210000,833334.210000 1496385.370000,833767.760000 1495620.000000,833920.000000 1480380.000000,833920.000000 1479614.630000,833767.760000 1478965.790000,833334.210000 1478532.240000,832685.370000 1478380.000000,831920.000000 1478380.000000,816680.000000 1478532.240000,815914.630000 1478965.790000,815265.790000 1479614.630000,814832.240000 1480380.000000,814680.000000 1495620.000000,814680.000000 1496385.370000,814832.240000 1497034.210000,815265.790000 1497467.760000,815914.630000 1497620.000000,816680.000000 Z"/> 
<path style="fill:#000000; fill-opacity:1.0;  stroke:#000000; stroke-width:0.010000; stroke-opacity:1;  stroke-linecap:round; stroke-linejoin:round;fill-rule:evenodd;" d="M 1497620.000000,857320.000000 1497467.760000,858085.370000 1497034.210000,858734.210000 1496385.370000,859167.760000 1495620.000000,859320.000000 1480380.000000,859320.000000 1479614.630000,859167.760000 1478965.790000,858734.210000 1478532.240000,858085.370000 1478380.000000,857320.000000 1478380.000000,842080.000000 1478532.240000,841314.630000 1478965.790000,840665.790000 1479614.630000,840232.240000 1480380.000000,840080.000000 1495620.000000,840080.000000 1496385.370000,840232.240000 1497034.210000,840665.790000 1497467.760000,841314.630000 1497620.000000,842080.000000 Z"/> 
</g>
<g style="fill:#000000; fill-opacity:1.0;  stroke:#000000; stroke-width:0.010000; stroke-opacity:1;  stroke-linecap:round; stroke-linejoin:round;">
<path style="fill:#000000; fill-opacity:1.0;  stroke:#000000; stroke-width:0.010000; stroke-opacity:1;  stroke-linecap:round; stroke-linejoin:round;fill-rule:evenodd;" d="M 1538500.000000,931000.000000 1537734.630000,930847.760000 1537085.790000,930414.210000 1536652.240000,929765.370000 1536500.000000,929000.000000 1536500.000000,891000.000000 1536652.240000,890234.630000 1537085.790000,889585.790000 1537734.630000,889152.240000 1538500.000000,889000.000000 1558500.000000,889000.000000 1559265.370000,889152.240000 1559914.210000,889585.790000 1560347.760000,890234.630000 1560500.000000,891000.000000 1560500.000000,929000.000000 1560347.760000,929765.370000 1559914.210000,930414.210000 1559265.370000,930847.760000 1558500.000000,931000.000000 Z"/> 
</g>
<g style="fill:#000000; fill-opacity:1.0;  stroke:#000000; stroke-width:0.010000; stroke-opacity:1;  stroke-linecap:round; stroke-linejoin:round;">
<g>
<path style="fill:#000000; fill-opacity:1.0;  stroke:#000000; stroke-width:0.010000; stroke-opacity:1;  stroke-linecap:round; stroke-linejoin:round;fill-rule:evenodd;" d="M 1950615.020000,716684.980000 1950760.000000,717035.000000 1950760.000000,1015765.000000 1950615.020000,1016115.020000 1950265.000000,1016260.000000 1448335.000000,1016260.000000 1447984.980000,1016115.020000 1447840.000000,1015765.000000 1447840.000000,717035.000000 1447984.980000,716684.980000 1448335.000000,716540.000000 1950265.000000,716540.000000 Z"/> 
</g>
</g>
</g> 
</mask><mask id="hole-mask"><g><rect x="1447340.0" y="716040.0" fill="white" width="503920.0" height="300720.0"/><polyline stroke-linecap="round" stroke="black" stroke-width="30000.0" points="-0.0 0 0.0 0" transform="translate(1496100.0 764800.0) rotate(-0.0)"/><polyline stroke-linecap="round" stroke="black" stroke-width="30000.0" points="-0.0 0 0.0 0" transform="translate(1902500.0 764800.0) rotate(-0.0)"/><polyline stroke-linecap="round" stroke="black" stroke-width="30000.0" points="-0.0 0 0.0 0" transform="translate(1496100.0 968000.0) rotate(-0.0)"/><polyline stroke-linecap="round" stroke="black" stroke-width="30000.0" points="-0.0 0 0.0 0" transform="translate(1902500.0 968000.0) rotate(-0.0)"/><polyline stroke-linecap="round" stroke="black" stroke-width="8890.0" points="-0.0 0 0.0 0" transform="translate(1488000.0 824300.0) rotate(-180.0)"/><polyline stroke-linecap="round" stroke="black" stroke-width="8890.0" points="-0.0 0 0.0 0" transform="translate(1488000.0 849700.0) rotate(-180.0)"/><polyline stroke-linecap="round" stroke="black" stroke-width="4000.0" points="-0.0 0 0.0 0" transform="translate(1679000.0 846500.0) rotate(0)"/><polyline stroke-linecap="round" stroke="black" stroke-width="4000.0" points="-0.0 0 0.0 0" transform="translate(1551500.0 926000.0) rotate(0)"/></g></mask></defs><g transform="scale(-1,1)" id="boardContainer"><g id="substrate" clip-path="url(#cut-off)" mask="url(#hole-mask)"><g id="substrate-board" style="fill:#f1f4f3; stroke:#f1f4f3;"><path d=" M 1950760.0 1016260.0 L 1950760.0 716540.0 L 1447840.0 716540.0 L 1447840.0 1016260.0 L 1950760.0 1016260.0 " style="fill-rule: evenodd;"/><g style="fill-opacity: 0.0;stroke-width: 1000.000000;stroke-opacity: 1;stroke-linecap: round;stroke-linejoin: round">
<path d="M1447840 1016260 L1950760 1016260 "/>
<path d="M1447840 716540 L1950760 716540 "/>
<path d="M1950760 716540 L1950760 1016260 "/>
<path d="M1447840 1016260 L1447840 716540 "/>
</g> 
</g><g id="substrate-clad" style="fill:#72786c; stroke:#72786c;"><g style="fill-opacity: 0.0;stroke-width: 0.000000;stroke-opacity: 1;stroke-linecap: round;stroke-linejoin: round">
<g style="fill-opacity: 1.0;stroke-width: 0.010000;stroke-opacity: 1;stroke-linecap: round;stroke-linejoin: round">
<circle cx="1496100.000000" cy="764800.000000" r="32000.000000"/> 
</g>
<g style="fill-opacity: 1.0;stroke-width: 0.010000;stroke-opacity: 1;stroke-linecap: round;stroke-linejoin: round">
<circle cx="1902500.000000" cy="764800.000000" r="32000.000000"/> 
</g>
<g style="fill-opacity: 1.0;stroke-width: 0.010000;stroke-opacity: 1;stroke-linecap: round;stroke-linejoin: round">
<circle cx="1496100.000000" cy="968000.000000" r="32000.000000"/> 
</g>
<g style="fill-opacity: 1.0;stroke-width: 0.010000;stroke-opacity: 1;stroke-linecap: round;stroke-linejoin: round">
<circle cx="1902500.000000" cy="968000.000000" r="32000.000000"/> 
</g>
<g style="fill-opacity: 1.0;stroke-width: 0.010000;stroke-opacity: 1;stroke-linecap: round;stroke-linejoin: round">
<path style="fill-opacity: 1.0;stroke-width: 0.010000;stroke-opacity: 1;stroke-linecap: round;stroke-linejoin: round;fill-rule: evenodd" d="M 1559000.000000,802000.000000 1559765.370000,802152.240000 1560414.210000,802585.790000 1560847.760000,803234.630000 1561000.000000,804000.000000 1561000.000000,842000.000000 1560847.760000,842765.370000 1560414.210000,843414.210000 1559765.370000,843847.760000 1559000.000000,844000.000000 1539000.000000,844000.000000 1538234.630000,843847.760000 1537585.790000,843414.210000 1537152.240000,842765.370000 1537000.000000,842000.000000 1537000.000000,804000.000000 1537152.240000,803234.630000 1537585.790000,802585.790000 1538234.630000,802152.240000 1539000.000000,802000.000000 Z"/> 
</g>
<g style="fill-opacity: 1.0;stroke-width: 0.010000;stroke-opacity: 1;stroke-linecap: round;stroke-linejoin: round">
<circle cx="1679000.000000" cy="846500.000000" r="4549.500000"/> 
</g>
<g style="fill-opacity: 1.0;stroke-width: 0.010000;stroke-opacity: 1;stroke-linecap: round;stroke-linejoin: round">
<path style="fill-opacity: 1.0;stroke-width: 0.010000;stroke-opacity: 1;stroke-linecap: round;stroke-linejoin: round;fill-rule: evenodd" d="M 1497620.000000,831920.000000 1497467.760000,832685.370000 1497034.210000,833334.210000 1496385.370000,833767.760000 1495620.000000,833920.000000 1480380.000000,833920.000000 1479614.630000,833767.760000 1478965.790000,833334.210000 1478532.240000,832685.370000 1478380.000000,831920.000000 1478380.000000,816680.000000 1478532.240000,815914.630000 1478965.790000,815265.790000 1479614.630000,814832.240000 1480380.000000,814680.000000 1495620.000000,814680.000000 1496385.370000,814832.240000 1497034.210000,815265.790000 1497467.760000,815914.630000 1497620.000000,816680.000000 Z"/> 
<path style="fill-opacity: 1.0;stroke-width: 0.010000;stroke-opacity: 1;stroke-linecap: round;stroke-linejoin: round;fill-rule: evenodd" d="M 1497620.000000,857320.000000 1497467.760000,858085.370000 1497034.210000,858734.210000 1496385.370000,859167.760000 1495620.000000,859320.000000 1480380.000000,859320.000000 1479614.630000,859167.760000 1478965.790000,858734.210000 1478532.240000,858085.370000 1478380.000000,857320.000000 1478380.000000,842080.000000 1478532.240000,841314.630000 1478965.790000,840665.790000 1479614.630000,840232.240000 1480380.000000,840080.000000 1495620.000000,840080.000000 1496385.370000,840232.240000 1497034.210000,840665.790000 1497467.760000,841314.630000 1497620.000000,842080.000000 Z"/> 
</g>
<g style="fill-opacity: 1.0;stroke-width: 0.010000;stroke-opacity: 1;stroke-linecap: round;stroke-linejoin: round">
<path style="fill-opacity: 1.0;stroke-width: 0.010000;stroke-opacity: 1;stroke-linecap: round;stroke-linejoin: round;fill-rule: evenodd" d="M 1538500.000000,931000.000000 1537734.630000,930847.760000 1537085.790000,930414.210000 1536652.240000,929765.370000 1536500.000000,929000.000000 1536500.000000,891000.000000 1536652.240000,890234.630000 1537085.790000,889585.790000 1537734.630000,889152.240000 1538500.000000,889000.000000 1558500.000000,889000.000000 1559265.370000,889152.240000 1559914.210000,889585.790000 1560347.760000,890234.630000 1560500.000000,891000.000000 1560500.000000,929000.000000 1560347.760000,929765.370000 1559914.210000,930414.210000 1559265.370000,930847.760000 1558500.000000,931000.000000 Z"/> 
</g>
<g style="fill-opacity: 1.0;stroke-width: 0.010000;stroke-opacity: 1;stroke-linecap: round;stroke-linejoin: round">
<g>
<path style="fill-opacity: 1.0;stroke-width: 0.010000;stroke-opacity: 1;stroke-linecap: round;stroke-linejoin: round;fill-rule: evenodd" d="M 1950615.020000,716684.980000 1950760.000000,717035.000000 1950760.000000,1015765.000000 1950615.020000,1016115.020000 1950265.000000,1016260.000000 1448335.000000,1016260.000000 1447984.980000,1016115.020000 1447840.000000,1015765.000000 1447840.000000,717035.000000 1447984.980000,716684.980000 1448335.000000,716540.000000 1950265.000000,716540.000000 Z"/> 
</g>
</g>
</g> 
</g><g id="substrate-copper" style="fill:#f8f8f7; stroke:#f8f8f7;"><g style="fill-opacity: 0.0;stroke-width: 3000.000000;stroke-opacity: 1;stroke-linecap: round;stroke-linejoin: round">
<text x="1573240.000000" y="1001740.000000" transform="scale(-1 1) translate(-3146480.000000 0)" textLength="55192.860000" font-size="20000.000000" lengthAdjust="spacingAndGlyphs" text-anchor="middle" opacity="0">MLAB</text>
<g class="stroked-text"><desc>MLAB</desc>
<path d="M1598240 1001025 L1598240 986025 L1593240 996740 L1588240 986025 L1588240 1001025 "/>
<path d="M1573954 1001025 L1581097 1001025 L1581097 986025 "/>
<path d="M1569668 996740 L1562525 996740 "/>
<path d="M1571097 1001025 L1566097 986025 L1561097 1001025 "/>
<path d="M1551097 993168 L1548954 993882 L1548240 994597 L1547525 996025 L1547525 998168 L1548240 999597 L1548954 1000311 L1550382 1001025 L1556097 1001025 L1556097 986025 L1551097 986025 L1549668 986740 L1548954 987454 L1548240 988882 L1548240 990311 L1548954 991740 L1549668 992454 L1551097 993168 L1556097 993168 "/>
</g><g style="fill-opacity: 1.0;stroke-width: 0.010000;stroke-opacity: 1;stroke-linecap: round;stroke-linejoin: round">
<circle cx="1496100.000000" cy="764800.000000" r="30000.000000"/> 
</g>
<g style="fill-opacity: 1.0;stroke-width: 0.010000;stroke-opacity: 1;stroke-linecap: round;stroke-linejoin: round">
<circle cx="1902500.000000" cy="764800.000000" r="30000.000000"/> 
</g>
<g style="fill-opacity: 1.0;stroke-width: 0.010000;stroke-opacity: 1;stroke-linecap: round;stroke-linejoin: round">
<circle cx="1496100.000000" cy="968000.000000" r="30000.000000"/> 
</g>
<g style="fill-opacity: 1.0;stroke-width: 0.010000;stroke-opacity: 1;stroke-linecap: round;stroke-linejoin: round">
<circle cx="1902500.000000" cy="968000.000000" r="30000.000000"/> 
</g>
<g style="fill-opacity: 1.0;stroke-width: 0.010000;stroke-opacity: 1;stroke-linecap: round;stroke-linejoin: round">
<path style="fill-opacity: 1.0;stroke-width: 0.010000;stroke-opacity: 1;stroke-linecap: round;stroke-linejoin: round;fill-rule: evenodd" d="M 1539000.000000,804000.000000 1559000.000000,804000.000000 1559000.000000,842000.000000 1539000.000000,842000.000000 Z"/> 
</g>
<g style="fill-opacity: 1.0;stroke-width: 0.010000;stroke-opacity: 1;stroke-linecap: round;stroke-linejoin: round">
<circle cx="1679000.000000" cy="846500.000000" r="2549.500000"/> 
</g>
<g style="fill-opacity: 1.0;stroke-width: 0.010000;stroke-opacity: 1;stroke-linecap: round;stroke-linejoin: round">
<path style="fill-opacity: 1.0;stroke-width: 0.010000;stroke-opacity: 1;stroke-linecap: round;stroke-linejoin: round;fill-rule: evenodd" d="M 1495620.000000,816680.000000 1495620.000000,831920.000000 1480380.000000,831920.000000 1480380.000000,816680.000000 Z"/> 
<path style="fill-opacity: 1.0;stroke-width: 0.010000;stroke-opacity: 1;stroke-linecap: round;stroke-linejoin: round;fill-rule: evenodd" d="M 1495620.000000,842080.000000 1495620.000000,857320.000000 1480380.000000,857320.000000 1480380.000000,842080.000000 Z"/> 
</g>
<g style="fill-opacity: 1.0;stroke-width: 0.010000;stroke-opacity: 1;stroke-linecap: round;stroke-linejoin: round">
<path style="fill-opacity: 1.0;stroke-width: 0.010000;stroke-opacity: 1;stroke-linecap: round;stroke-linejoin: round;fill-rule: evenodd" d="M 1558500.000000,929000.000000 1538500.000000,929000.000000 1538500.000000,891000.000000 1558500.000000,891000.000000 Z"/> 
</g>
<g style="fill-opacity: 1.0;stroke-width: 0.010000;stroke-opacity: 1;stroke-linecap: round;stroke-linejoin: round">
<circle cx="1679000.000000" cy="846500.000000" r="4000.000000"/> 
</g>
<g style="fill-opacity: 1.0;stroke-width: 0.010000;stroke-opacity: 1;stroke-linecap: round;stroke-linejoin: round">
<circle cx="1551500.000000" cy="926000.000000" r="4000.000000"/> 
</g>
<g style="fill-opacity: 0.0;stroke-width: 4000.000000;stroke-opacity: 1;stroke-linecap: round;stroke-linejoin: round">
<path d="M1549000 831996 L1531296 849700 "/>
<path d="M1549000 823000 L1549000 831996 "/>
<path d="M1531296 849700 L1488000 849700 "/>
</g>
<g style="fill-opacity: 0.0;stroke-width: 4000.000000;stroke-opacity: 1;stroke-linecap: round;stroke-linejoin: round">
<g style="fill-opacity: 1.0;stroke-width: 0.010000;stroke-opacity: 1;stroke-linecap: round;stroke-linejoin: round">
<path style="fill-opacity: 1.0;stroke-width: 0.010000;stroke-opacity: 1;stroke-linecap: round;stroke-linejoin: round;fill-rule: evenodd" d="M 1723161.210000,841440.020000 1723626.140000,841976.580000 1723740.000000,842500.000000 1723740.000000,889980.000000 1723539.980000,890661.210000 1723003.420000,891126.140000 1722480.000000,891240.000000 1675000.000000,891240.000000 1674318.790000,891039.980000 1673853.860000,890503.420000 1673740.000000,889980.000000 1673740.000000,842500.000000 1673940.020000,841818.790000 1674476.580000,841353.860000 1675000.000000,841240.000000 1722480.000000,841240.000000 Z"/> 
</g>
</g>
</g> 
</g><g id="substrate-pads" style="fill:#c4c1ba; stroke:#c4c1ba;" mask="url(#pads-mask)"><g style="fill-opacity: 0.0;stroke-width: 3000.000000;stroke-opacity: 1;stroke-linecap: round;stroke-linejoin: round">
<text x="1573240.000000" y="1001740.000000" transform="scale(-1 1) translate(-3146480.000000 0)" textLength="53242.860000" font-size="20000.000000" lengthAdjust="spacingAndGlyphs" text-anchor="middle" opacity="0">MLAB</text>
<g class="stroked-text"><desc>MLAB</desc>
<path d="M1598240 1001025 L1598240 986025 L1593240 996740 L1588240 986025 L1588240 1001025 "/>
<path d="M1573954 1001025 L1581097 1001025 L1581097 986025 "/>
<path d="M1569668 996740 L1562525 996740 "/>
<path d="M1571097 1001025 L1566097 986025 L1561097 1001025 "/>
<path d="M1551097 993168 L1548954 993882 L1548240 994597 L1547525 996025 L1547525 998168 L1548240 999597 L1548954 1000311 L1550382 1001025 L1556097 1001025 L1556097 986025 L1551097 986025 L1549668 986740 L1548954 987454 L1548240 988882 L1548240 990311 L1548954 991740 L1549668 992454 L1551097 993168 L1556097 993168 "/>
</g><g style="fill-opacity: 1.0;stroke-width: 0.010000;stroke-opacity: 1;stroke-linecap: round;stroke-linejoin: round">
<circle cx="1496100.000000" cy="764800.000000" r="30000.000000"/> 
</g>
<g style="fill-opacity: 1.0;stroke-width: 0.010000;stroke-opacity: 1;stroke-linecap: round;stroke-linejoin: round">
<circle cx="1902500.000000" cy="764800.000000" r="30000.000000"/> 
</g>
<g style="fill-opacity: 1.0;stroke-width: 0.010000;stroke-opacity: 1;stroke-linecap: round;stroke-linejoin: round">
<circle cx="1496100.000000" cy="968000.000000" r="30000.000000"/> 
</g>
<g style="fill-opacity: 1.0;stroke-width: 0.010000;stroke-opacity: 1;stroke-linecap: round;stroke-linejoin: round">
<circle cx="1902500.000000" cy="968000.000000" r="30000.000000"/> 
</g>
<g style="fill-opacity: 1.0;stroke-width: 0.010000;stroke-opacity: 1;stroke-linecap: round;stroke-linejoin: round">
<path style="fill-opacity: 1.0;stroke-width: 0.010000;stroke-opacity: 1;stroke-linecap: round;stroke-linejoin: round;fill-rule: evenodd" d="M 1539000.000000,804000.000000 1559000.000000,804000.000000 1559000.000000,842000.000000 1539000.000000,842000.000000 Z"/> 
</g>
<g style="fill-opacity: 1.0;stroke-width: 0.010000;stroke-opacity: 1;stroke-linecap: round;stroke-linejoin: round">
<circle cx="1679000.000000" cy="846500.000000" r="2549.500000"/> 
</g>
<g style="fill-opacity: 1.0;stroke-width: 0.010000;stroke-opacity: 1;stroke-linecap: round;stroke-linejoin: round">
<path style="fill-opacity: 1.0;stroke-width: 0.010000;stroke-opacity: 1;stroke-linecap: round;stroke-linejoin: round;fill-rule: evenodd" d="M 1495620.000000,816680.000000 1495620.000000,831920.000000 1480380.000000,831920.000000 1480380.000000,816680.000000 Z"/> 
<path style="fill-opacity: 1.0;stroke-width: 0.010000;stroke-opacity: 1;stroke-linecap: round;stroke-linejoin: round;fill-rule: evenodd" d="M 1495620.000000,842080.000000 1495620.000000,857320.000000 1480380.000000,857320.000000 1480380.000000,842080.000000 Z"/> 
</g>
<g style="fill-opacity: 1.0;stroke-width: 0.010000;stroke-opacity: 1;stroke-linecap: round;stroke-linejoin: round">
<path style="fill-opacity: 1.0;stroke-width: 0.010000;stroke-opacity: 1;stroke-linecap: round;stroke-linejoin: round;fill-rule: evenodd" d="M 1558500.000000,929000.000000 1538500.000000,929000.000000 1538500.000000,891000.000000 1558500.000000,891000.000000 Z"/> 
</g>
<g style="fill-opacity: 1.0;stroke-width: 0.010000;stroke-opacity: 1;stroke-linecap: round;stroke-linejoin: round">
<circle cx="1679000.000000" cy="846500.000000" r="4000.000000"/> 
</g>
<g style="fill-opacity: 1.0;stroke-width: 0.010000;stroke-opacity: 1;stroke-linecap: round;stroke-linejoin: round">
<circle cx="1551500.000000" cy="926000.000000" r="4000.000000"/> 
</g>
<g style="fill-opacity: 0.0;stroke-width: 4000.000000;stroke-opacity: 1;stroke-linecap: round;stroke-linejoin: round">
<path d="M1549000 831996 L1531296 849700 "/>
<path d="M1549000 823000 L1549000 831996 "/>
<path d="M1531296 849700 L1488000 849700 "/>
</g>
<g style="fill-opacity: 0.0;stroke-width: 4000.000000;stroke-opacity: 1;stroke-linecap: round;stroke-linejoin: round">
<g style="fill-opacity: 1.0;stroke-width: 0.010000;stroke-opacity: 1;stroke-linecap: round;stroke-linejoin: round">
<path style="fill-opacity: 1.0;stroke-width: 0.010000;stroke-opacity: 1;stroke-linecap: round;stroke-linejoin: round;fill-rule: evenodd" d="M 1723161.210000,841440.020000 1723626.140000,841976.580000 1723740.000000,842500.000000 1723740.000000,889980.000000 1723539.980000,890661.210000 1723003.420000,891126.140000 1722480.000000,891240.000000 1675000.000000,891240.000000 1674318.790000,891039.980000 1673853.860000,890503.420000 1673740.000000,889980.000000 1673740.000000,842500.000000 1673940.020000,841818.790000 1674476.580000,841353.860000 1675000.000000,841240.000000 1722480.000000,841240.000000 Z"/> 
</g>
</g>
</g> 
</g><g id="substrate-silk" style="fill:#0b1013; stroke:#0b1013;" mask="url(#pads-mask-silkscreen)"><g style="fill-opacity: 0.0;stroke-width: 3000.000000;stroke-opacity: 1;stroke-linecap: round;stroke-linejoin: round">
<text x="1757714.000000" y="757105.000000" transform="scale(-1 1) translate(-3515428.000000 0)" textLength="184719.050000" font-size="22666.660000" lengthAdjust="spacingAndGlyphs" text-anchor="middle" opacity="0">PINHOLDER03A</text>
<g class="stroked-text"><desc>PINHOLDER03A</desc>
<path d="M1847975 756295 L1847975 739295 L1841499 739295 L1839880 740105 L1839071 740914 L1838261 742533 L1838261 744962 L1839071 746581 L1839880 747390 L1841499 748200 L1847975 748200 "/>
<path d="M1830975 756295 L1830975 739295 "/>
<path d="M1822880 756295 L1822880 739295 L1813166 756295 L1813166 739295 "/>
<path d="M1805071 756295 L1805071 739295 "/>
<path d="M1805071 747390 L1795356 747390 "/>
<path d="M1795356 756295 L1795356 739295 "/>
<path d="M1784023 739295 L1780785 739295 L1779166 740105 L1777547 741724 L1776737 744962 L1776737 750628 L1777547 753866 L1779166 755485 L1780785 756295 L1784023 756295 L1785642 755485 L1787261 753866 L1788071 750628 L1788071 744962 L1787261 741724 L1785642 740105 L1784023 739295 "/>
<path d="M1761356 756295 L1769452 756295 L1769452 739295 "/>
<path d="M1755690 756295 L1755690 739295 L1751642 739295 L1749214 740105 L1747594 741724 L1746785 743343 L1745975 746581 L1745975 749009 L1746785 752247 L1747594 753866 L1749214 755485 L1751642 756295 L1755690 756295 "/>
<path d="M1738690 747390 L1733023 747390 "/>
<path d="M1730594 756295 L1738690 756295 L1738690 739295 L1730594 739295 "/>
<path d="M1713594 756295 L1719261 748200 "/>
<path d="M1723309 756295 L1723309 739295 L1716833 739295 L1715214 740105 L1714404 740914 L1713594 742533 L1713594 744962 L1714404 746581 L1715214 747390 L1716833 748200 L1723309 748200 "/>
<path d="M1703071 739295 L1701452 739295 L1699833 740105 L1699023 740914 L1698214 742533 L1697404 745771 L1697404 749819 L1698214 753057 L1699023 754676 L1699833 755485 L1701452 756295 L1703071 756295 L1704690 755485 L1705499 754676 L1706309 753057 L1707118 749819 L1707118 745771 L1706309 742533 L1705499 740914 L1704690 740105 L1703071 739295 "/>
<path d="M1691737 739295 L1681214 739295 L1686880 745771 L1684452 745771 L1682833 746581 L1682023 747390 L1681214 749009 L1681214 753057 L1682023 754676 L1682833 755485 L1684452 756295 L1689309 756295 L1690928 755485 L1691737 754676 "/>
<path d="M1674737 751438 L1666642 751438 "/>
<path d="M1676356 756295 L1670690 739295 L1665023 756295 "/>
</g><g transform="rotate(90.000000 1519500.000000 910500.000000)">
<text x="1519500.000000" y="918000.000000" transform="scale(-1 1) translate(-3039000.000000 0)" textLength="8957.140000" font-size="20000.000000" lengthAdjust="spacingAndGlyphs" text-anchor="middle" opacity="0">A</text>
</g>
<g class="stroked-text"><desc>A</desc>
<path d="M1517000 914071 L1517000 906928 "/>
<path d="M1512714 915500 L1527714 910500 L1512714 905500 "/>
</g></g>
<g style="fill-opacity: 0.0;stroke-width: 2500.000000;stroke-opacity: 1;stroke-linecap: round;stroke-linejoin: round">
<g transform="rotate(90.000000 1465000.000000 836000.000000)">
<text x="1465000.000000" y="841000.000000" transform="scale(-1 1) translate(-2930000.000000 0)" textLength="59433.330000" font-size="13333.330000" lengthAdjust="spacingAndGlyphs" text-anchor="middle" opacity="0">Mid GND</text>
</g>
<g class="stroked-text"><desc>Mid GND</desc>
<path d="M1460476 865285 L1470476 865285 L1463333 861952 L1470476 858619 L1460476 858619 "/>
<path d="M1460476 853857 L1467142 853857 "/>
<path d="M1470476 853857 L1470000 854333 L1469523 853857 L1470000 853380 L1470476 853857 L1469523 853857 "/>
<path d="M1460476 844809 L1470476 844809 "/>
<path d="M1460952 844809 L1460476 845761 L1460476 847666 L1460952 848619 L1461428 849095 L1462380 849571 L1465238 849571 L1466190 849095 L1466666 848619 L1467142 847666 L1467142 845761 L1466666 844809 "/>
<path d="M1470000 827190 L1470476 828142 L1470476 829571 L1470000 831000 L1469047 831952 L1468095 832428 L1466190 832904 L1464761 832904 L1462857 832428 L1461904 831952 L1460952 831000 L1460476 829571 L1460476 828619 L1460952 827190 L1461428 826714 L1464761 826714 L1464761 828619 "/>
<path d="M1460476 822428 L1470476 822428 L1460476 816714 L1470476 816714 "/>
<path d="M1460476 811952 L1470476 811952 L1470476 809571 L1470000 808142 L1469047 807190 L1468095 806714 L1466190 806238 L1464761 806238 L1462857 806714 L1461904 807190 L1460952 808142 L1460476 809571 L1460476 811952 "/>
</g></g>
<g style="fill-opacity: 0.0;stroke-width: 3000.000000;stroke-opacity: 1;stroke-linecap: round;stroke-linejoin: round">
<text x="1600240.000000" y="756425.000000" transform="scale(-1 1) translate(-3200480.000000 0)" textLength="86035.710000" font-size="20000.000000" lengthAdjust="spacingAndGlyphs" text-anchor="middle" opacity="0">MLAB.cz</text>
<g class="stroked-text"><desc>MLAB.cz</desc>
<path d="M1641311 755710 L1641311 740710 L1636311 751425 L1631311 740710 L1631311 755710 "/>
<path d="M1617025 755710 L1624168 755710 L1624168 740710 "/>
<path d="M1612740 751425 L1605597 751425 "/>
<path d="M1614168 755710 L1609168 740710 L1604168 755710 "/>
<path d="M1594168 747853 L1592025 748567 L1591311 749282 L1590597 750710 L1590597 752853 L1591311 754282 L1592025 754996 L1593454 755710 L1599168 755710 L1599168 740710 L1594168 740710 L1592740 741425 L1592025 742139 L1591311 743567 L1591311 744996 L1592025 746425 L1592740 747139 L1594168 747853 L1599168 747853 "/>
<path d="M1584168 754282 L1583454 754996 L1584168 755710 L1584882 754996 L1584168 754282 L1584168 755710 "/>
<path d="M1570597 754996 L1572025 755710 L1574882 755710 L1576311 754996 L1577025 754282 L1577740 752853 L1577740 748567 L1577025 747139 L1576311 746425 L1574882 745710 L1572025 745710 L1570597 746425 "/>
<path d="M1565597 745710 L1557740 745710 L1565597 755710 L1557740 755710 "/>
</g><g transform="rotate(90.000000 1522000.000000 823000.000000)">
<text x="1522000.000000" y="830500.000000" transform="scale(-1 1) translate(-3044000.000000 0)" textLength="33957.140000" font-size="20000.000000" lengthAdjust="spacingAndGlyphs" text-anchor="middle" opacity="0">Mid</text>
</g>
<g class="stroked-text"><desc>Mid</desc>
<path d="M1515214 838357 L1530214 838357 L1519500 833357 L1530214 828357 L1515214 828357 "/>
<path d="M1515214 821214 L1525214 821214 "/>
<path d="M1530214 821214 L1529500 821928 L1528785 821214 L1529500 820500 L1530214 821214 L1528785 821214 "/>
<path d="M1515214 807642 L1530214 807642 "/>
<path d="M1515928 807642 L1515214 809071 L1515214 811928 L1515928 813357 L1516642 814071 L1518071 814785 L1522357 814785 L1523785 814071 L1524500 813357 L1525214 811928 L1525214 809071 L1524500 807642 "/>
</g></g>
<g style="fill-opacity: 0.0;stroke-width: 1500.000000;stroke-opacity: 1;stroke-linecap: round;stroke-linejoin: round">
<path d="M1537000 802000 L1537000 844000 "/>
<path d="M1537000 844000 L1561000 844000 "/>
<path d="M1561000 844000 L1561000 802000 "/>
<path d="M1561000 802000 L1537000 802000 "/>
<path d="M1475300 862400 L1500700 862400 "/>
<path d="M1500700 862400 L1500700 811600 "/>
<path d="M1500700 811600 L1475300 811600 "/>
<path d="M1475300 811600 L1475300 862400 "/>
<path d="M1560500 931000 L1560500 889000 "/>
<path d="M1536500 931000 L1560500 931000 "/>
<path d="M1560500 889000 L1536500 889000 "/>
<path d="M1536500 889000 L1536500 931000 "/>
<g style="fill-opacity: 1.0;stroke-width: 0.010000;stroke-opacity: 1;stroke-linecap: round;stroke-linejoin: round">
<path style="fill-opacity: 1.0;stroke-width: 0.010000;stroke-opacity: 1;stroke-linecap: round;stroke-linejoin: round;fill-rule: evenodd" d="M 1495620.000000,816680.000000 1495620.000000,831920.000000 1480380.000000,831920.000000 1480380.000000,816680.000000 Z"/> 
<path style="fill-opacity: 1.0;stroke-width: 0.010000;stroke-opacity: 1;stroke-linecap: round;stroke-linejoin: round;fill-rule: evenodd" d="M 1495620.000000,842080.000000 1495620.000000,857320.000000 1480380.000000,857320.000000 1480380.000000,842080.000000 Z"/> 
</g>
</g> 
</g><g id="substrate-outline" style="fill:#000000; stroke:#000000; stroke-width: 1500.0"><g style="fill-opacity: 0.0;stroke-opacity: 1;stroke-linecap: round;stroke-linejoin: round">
<path d="M1447840 1016260 L1950760 1016260 "/>
<path d="M1447840 716540 L1950760 716540 "/>
<path d="M1950760 716540 L1950760 1016260 "/>
<path d="M1447840 1016260 L1447840 716540 "/>
</g> 
<path d="M -15000.0 0.0 A 15000.0 15000.0 0 1 1 15000.0 0.0 L 15000.0 -0.0 A 15000.0 15000.0 0 1 1 -15000.0 -0.0 Z" transform="translate(1496100.0 764800.0) rotate(-0.0)"/><path d="M -15000.0 0.0 A 15000.0 15000.0 0 1 1 15000.0 0.0 L 15000.0 -0.0 A 15000.0 15000.0 0 1 1 -15000.0 -0.0 Z" transform="translate(1902500.0 764800.0) rotate(-0.0)"/><path d="M -15000.0 0.0 A 15000.0 15000.0 0 1 1 15000.0 0.0 L 15000.0 -0.0 A 15000.0 15000.0 0 1 1 -15000.0 -0.0 Z" transform="translate(1496100.0 968000.0) rotate(-0.0)"/><path d="M -15000.0 0.0 A 15000.0 15000.0 0 1 1 15000.0 0.0 L 15000.0 -0.0 A 15000.0 15000.0 0 1 1 -15000.0 -0.0 Z" transform="translate(1902500.0 968000.0) rotate(-0.0)"/><path d="M -4445.0 0.0 A 4445.0 4445.0 0 1 1 4445.0 0.0 L 4445.0 -0.0 A 4445.0 4445.0 0 1 1 -4445.0 -0.0 Z" transform="translate(1488000.0 824300.0) rotate(-180.0)"/><path d="M -4445.0 0.0 A 4445.0 4445.0 0 1 1 4445.0 0.0 L 4445.0 -0.0 A 4445.0 4445.0 0 1 1 -4445.0 -0.0 Z" transform="translate(1488000.0 849700.0) rotate(-180.0)"/><path d="M -2000.0 0.0 A 2000.0 2000.0 0 1 1 2000.0 0.0 L 2000.0 -0.0 A 2000.0 2000.0 0 1 1 -2000.0 -0.0 Z" transform="translate(1679000.0 846500.0) rotate(0)"/><path d="M -2000.0 0.0 A 2000.0 2000.0 0 1 1 2000.0 0.0 L 2000.0 -0.0 A 2000.0 2000.0 0 1 1 -2000.0 -0.0 Z" transform="translate(1551500.0 926000.0) rotate(0)"/></g></g><g id="substrate-paste" style="fill:#8a8a8a; stroke:#8a8a8a;"><g style="fill-opacity: 0.0;stroke-width: 0.000000;stroke-opacity: 1;stroke-linecap: round;stroke-linejoin: round">
<g style="fill-opacity: 1.0;stroke-width: 0.010000;stroke-opacity: 1;stroke-linecap: round;stroke-linejoin: round">
<path style="fill-opacity: 1.0;stroke-width: 0.010000;stroke-opacity: 1;stroke-linecap: round;stroke-linejoin: round;fill-rule: evenodd" d="M 1539000.000000,804000.000000 1559000.000000,804000.000000 1559000.000000,842000.000000 1539000.000000,842000.000000 Z"/> 
</g>
<g style="fill-opacity: 1.0;stroke-width: 0.010000;stroke-opacity: 1;stroke-linecap: round;stroke-linejoin: round">
<path style="fill-opacity: 1.0;stroke-width: 0.010000;stroke-opacity: 1;stroke-linecap: round;stroke-linejoin: round;fill-rule: evenodd" d="M 1558500.000000,929000.000000 1538500.000000,929000.000000 1538500.000000,891000.000000 1558500.000000,891000.000000 Z"/> 
</g>
</g> 
</g></g><g transform="scale(-1,1)" id="componentContainer"><!--Mlab_Pin_Headers:Straight_1x02:J2--><g transform="translate(1488000.0 837000.0) scale(9999.997307694068, 10000.000583655465) rotate(-180.0) translate(-1.3 -2.5699997)"><g id="pref_12_Mlab_Pin_Headers__Straight_1x02_HEADER_1x02"><g id="pref_13pin" style="display:inline">
    <rect style="opacity:1;fill:#000000;fill-opacity:1;fill-rule:nonzero;stroke:#141414;stroke-width:1.15387;stroke-linecap:round;stroke-linejoin:bevel;stroke-miterlimit:4;stroke-dasharray:none;stroke-opacity:1" id="pref_13rect4686" width="1.4461316" height="1.4461316" x="0.57693499" y="0.57693422"/>
    <rect y="1.0419546" x="1.0419546" height="0.51612419" width="0.51612419" id="pref_13rect156830" style="opacity:1;fill:#fcf23a;fill-opacity:1;fill-rule:nonzero;stroke:#eb9d02;stroke-width:0.123876;stroke-linecap:round;stroke-linejoin:bevel;stroke-miterlimit:4;stroke-dasharray:none;stroke-opacity:1"/>
  </g>
  <g transform="translate(0,2.5400182)" id="pref_13g13" style="display:inline">
    <rect style="opacity:1;fill:#000000;fill-opacity:1;fill-rule:nonzero;stroke:#141414;stroke-width:1.15387;stroke-linecap:round;stroke-linejoin:bevel;stroke-miterlimit:4;stroke-dasharray:none;stroke-opacity:1" id="pref_13rect9" width="1.4461316" height="1.4461316" x="0.57693499" y="0.57693422"/>
    <rect y="1.0419546" x="1.0419546" height="0.51612419" width="0.51612419" id="pref_13rect11" style="opacity:1;fill:#fcf23a;fill-opacity:1;fill-rule:nonzero;stroke:#eb9d02;stroke-width:0.123876;stroke-linecap:round;stroke-linejoin:bevel;stroke-miterlimit:4;stroke-dasharray:none;stroke-opacity:1"/>
  </g>
  </g></g><!--Mlab_Mechanical:MountingHole_3mm.back:M3--><g transform="translate(1496100.0 764800.0) scale(10000.0, 10000.0) rotate(-0.0) translate(-0.75 -0.75)"><g id="pref_12_Mlab_Mechanical__MountingHole_3mmback_HOLE"><defs xmlns:xlink="http://www.w3.org/1999/xlink" id="pref_14defs13">
    <linearGradient id="pref_14linearGradient3674">
      <stop style="stop-color:#2b2b2b;stop-opacity:1" offset="0" id="pref_14stop3666"/>
      <stop style="stop-color:#5e5e5e;stop-opacity:0.78431374" offset="0.48605427" id="pref_14stop4288"/>
      <stop style="stop-color:#838383;stop-opacity:0" offset="0.53796667" id="pref_14stop3668"/>
      <stop style="stop-color:#dcdcdc;stop-opacity:0" offset="0.76845002" id="pref_14stop3670"/>
      <stop style="stop-color:#e4e4e4;stop-opacity:0.88235301" offset="1" id="pref_14stop3672"/>
    </linearGradient>
    <linearGradient id="pref_14linearGradient2885">
      <stop style="stop-color:#8f8f8f;stop-opacity:1" offset="0" id="pref_14stop2881"/>
      <stop style="stop-color:#e5e5e5;stop-opacity:1" offset="1" id="pref_14stop2883"/>
    </linearGradient>
    <linearGradient id="pref_14linearGradient1894">
      <stop style="stop-color:#b2b2b2;stop-opacity:1" offset="0" id="pref_14stop1890"/>
      <stop style="stop-color:#838383;stop-opacity:1" offset="0.3359659" id="pref_14stop2785"/>
      <stop style="stop-color:#dcdcdc;stop-opacity:1" offset="0.76141548" id="pref_14stop2655"/>
      <stop style="stop-color:#bebebe;stop-opacity:1" offset="1" id="pref_14stop1892"/>
    </linearGradient>
    <linearGradient id="pref_14linearGradient3692-7">
      <stop style="stop-color:#d3d3d3;stop-opacity:1;" offset="0" id="pref_14stop3688"/>
      <stop style="stop-color:#b2b2b2;stop-opacity:1" offset="0.81006318" id="pref_14stop5318"/>
      <stop style="stop-color:#c8c8c8;stop-opacity:1" offset="0.87439835" id="pref_14stop4242"/>
      <stop style="stop-color:#b8b8b8;stop-opacity:1;" offset="0.94349736" id="pref_14stop4310"/>
      <stop style="stop-color:#aeaeae;stop-opacity:1" offset="1" id="pref_14stop3690"/>
    </linearGradient>
    <radialGradient xlink:href="#pref_14linearGradient3692-7" id="pref_14radialGradient1176" cx="0.75" cy="0.75" fx="0.75" fy="0.75" r="1.5" gradientUnits="userSpaceOnUse"/>
    <linearGradient xlink:href="#pref_14linearGradient1894" id="pref_14linearGradient1902" x1="-0.24704969" y1="-10.608996" x2="8.4657993" y2="-5.57863" gradientUnits="userSpaceOnUse"/>
    <linearGradient xlink:href="#pref_14linearGradient2885" id="pref_14linearGradient2887" x1="-0.24704971" y1="-8.0938129" x2="8.4657997" y2="-8.0938129" gradientUnits="userSpaceOnUse"/>
    <radialGradient xlink:href="#pref_14linearGradient3674" id="pref_14radialGradient3506" cx="4.109375" cy="-8.0938129" fx="4.109375" fy="-8.0938129" r="4.3564248" gradientTransform="matrix(1.1330715,0.01077876,-0.01098402,1.1546483,-0.63574335,1.2074004)" gradientUnits="userSpaceOnUse"/>
    <linearGradient xlink:href="#pref_14linearGradient1894" id="pref_14linearGradient1902-1" x1="-0.24704969" y1="-10.608996" x2="8.4657993" y2="-5.57863" gradientUnits="userSpaceOnUse"/>
    <linearGradient xlink:href="#pref_14linearGradient2885" id="pref_14linearGradient2887-3" x1="-0.2470497" y1="-8.0938129" x2="8.4657993" y2="-8.0938129" gradientUnits="userSpaceOnUse"/>
    <radialGradient xlink:href="#pref_14linearGradient3674" id="pref_14radialGradient3506-6" cx="4.109375" cy="-8.0938129" fx="4.109375" fy="-8.0938129" r="4.3564248" gradientTransform="matrix(1.1330715,0.01077876,-0.01098402,1.1546483,-0.63574335,1.2074004)" gradientUnits="userSpaceOnUse"/>
    <linearGradient xlink:href="#pref_14linearGradient3692" id="pref_14linearGradient6924" gradientUnits="userSpaceOnUse" x1="1.4987922" y1="4.3924975" x2="-1.0811033" y2="-3.0084407"/>
    <linearGradient id="pref_14linearGradient3692">
      <stop style="stop-color:#e4e4e4;stop-opacity:1" offset="0" id="pref_14stop6926"/>
      <stop style="stop-color:#e5e5e5;stop-opacity:1" offset="0.1656336" id="pref_14stop6928"/>
      <stop style="stop-color:#f5f5f5;stop-opacity:1" offset="0.29162589" id="pref_14stop6930"/>
      <stop style="stop-color:#c6c6c6;stop-opacity:1;" offset="0.38067153" id="pref_14stop6932"/>
      <stop style="stop-color:#dddddd;stop-opacity:1" offset="0.57577699" id="pref_14stop6934"/>
      <stop style="stop-color:#f2f2f2;stop-opacity:1" offset="0.66836077" id="pref_14stop6936"/>
      <stop style="stop-color:#ebebeb;stop-opacity:1" offset="0.79280978" id="pref_14stop6938"/>
      <stop style="stop-color:#efefef;stop-opacity:1" offset="1" id="pref_14stop6940"/>
    </linearGradient>
  </defs>
  <circle style="fill:url(#pref_14linearGradient6924);fill-opacity:1;stroke:#cecece;stroke-width:0.05;stroke-miterlimit:4;stroke-dasharray:none;stroke-opacity:1" id="pref_14path6642" cx="0.75" cy="0.75" r="3.5"/>
  <g xmlns:sodipodi="http://sodipodi.sourceforge.net/DTD/sodipodi-0.dtd" id="pref_14g5432-9" transform="rotate(16.945707,0.75000009,0.75000001)">
    <path sodipodi:type="star" style="opacity:1;fill:url(#pref_14linearGradient1902-1);fill-opacity:1;stroke:url(#pref_14linearGradient2887-3);stroke-width:0.0984229;stroke-linecap:round;stroke-linejoin:round;stroke-miterlimit:4;stroke-dasharray:none" id="pref_14path1634-2" sodipodi:sides="6" sodipodi:cx="4.109375" sodipodi:cy="-8.0938129" sodipodi:r1="5.0303659" sodipodi:r2="4.3564248" sodipodi:arg1="0.52359878" sodipodi:arg2="1.0471976" transform="matrix(0.47378978,0.39955401,-0.39955401,0.47378978,-4.4308952,2.9428486)" d="m 8.4657997,-5.57863 -4.3564247,2.515183 -4.35642471,-2.515183 2e-8,-5.030366 4.35642469,-2.515183 4.3564247,2.515183 z"/>
    <path sodipodi:type="star" style="opacity:1;fill:url(#pref_14radialGradient3506-6);fill-opacity:1;stroke:none;stroke-width:0.0984229;stroke-linecap:round;stroke-linejoin:round;stroke-miterlimit:4;stroke-dasharray:none" id="pref_14path1634-9-0" sodipodi:sides="6" sodipodi:cx="4.109375" sodipodi:cy="-8.0938129" sodipodi:r1="5.0303659" sodipodi:r2="4.3564248" sodipodi:arg1="0.52359878" sodipodi:arg2="1.0471976" transform="matrix(0.47378978,0.39955401,-0.39955401,0.47378978,-4.4308952,2.9428486)" d="m 8.4657997,-5.57863 -4.3564247,2.515183 -4.35642471,-2.515183 2e-8,-5.030366 4.35642469,-2.515183 4.3564247,2.515183 z"/>
  </g>
  <g xmlns:sodipodi="http://sodipodi.sourceforge.net/DTD/sodipodi-0.dtd" id="pref_14g5432">
    <path sodipodi:type="star" style="opacity:1;fill:url(#pref_14linearGradient1902);fill-opacity:1;stroke:url(#pref_14linearGradient2887);stroke-width:0.0984229;stroke-linecap:round;stroke-linejoin:round;stroke-miterlimit:4;stroke-dasharray:none" id="pref_14path1634" sodipodi:sides="6" sodipodi:cx="4.109375" sodipodi:cy="-8.0938129" sodipodi:r1="5.0303659" sodipodi:r2="4.3564248" sodipodi:arg1="0.52359878" sodipodi:arg2="1.0471976" d="m 8.4657997,-5.57863 -4.3564247,2.515183 -4.35642471,-2.515183 2e-8,-5.030366 4.35642469,-2.515183 4.3564247,2.515183 z" transform="matrix(0.47378978,0.39955401,-0.39955401,0.47378978,-4.4308952,2.9428486)"/>
    <path sodipodi:type="star" style="opacity:1;fill:url(#pref_14radialGradient3506);fill-opacity:1;stroke:none;stroke-width:0.0984229;stroke-linecap:round;stroke-linejoin:round;stroke-miterlimit:4;stroke-dasharray:none" id="pref_14path1634-9" sodipodi:sides="6" sodipodi:cx="4.109375" sodipodi:cy="-8.0938129" sodipodi:r1="5.0303659" sodipodi:r2="4.3564248" sodipodi:arg1="0.52359878" sodipodi:arg2="1.0471976" transform="matrix(0.47378978,0.39955401,-0.39955401,0.47378978,-4.4308952,2.9428486)" d="m 8.4657997,-5.57863 -4.3564247,2.515183 -4.35642471,-2.515183 2e-8,-5.030366 4.35642469,-2.515183 4.3564247,2.515183 z"/>
  </g>
  <circle style="opacity:1;fill:url(#pref_14radialGradient1176);fill-opacity:1;stroke-width:0.0202753;stroke:#848484;stroke-opacity:1" id="pref_14path1030" cx="0.75" cy="0.75" r="1.5"/>
</g></g><!--Mlab_Mechanical:MountingHole_3mm.back:M2--><g transform="translate(1902500.0 764800.0) scale(10000.0, 10000.0) rotate(-0.0) translate(-0.75 -0.75)"><use xmlns:xlink="http://www.w3.org/1999/xlink" xlink:href="#pref_12_Mlab_Mechanical__MountingHole_3mmback_HOLE"/></g><!--Mlab_Mechanical:MountingHole_3mm.back:M4--><g transform="translate(1496100.0 968000.0) scale(10000.0, 10000.0) rotate(-0.0) translate(-0.75 -0.75)"><use xmlns:xlink="http://www.w3.org/1999/xlink" xlink:href="#pref_12_Mlab_Mechanical__MountingHole_3mmback_HOLE"/></g><!--Mlab_Mechanical:MountingHole_3mm.back:M1--><g transform="translate(1902500.0 968000.0) scale(10000.0, 10000.0) rotate(-0.0) translate(-0.75 -0.75)"><use xmlns:xlink="http://www.w3.org/1999/xlink" xlink:href="#pref_12_Mlab_Mechanical__MountingHole_3mmback_HOLE"/></g></g></svg>