<?xml version="1.0" standalone="no"?>
 <!DOCTYPE svg PUBLIC "-//W3C//DTD SVG 1.1//EN" 
 "http://www.w3.org/Graphics/SVG/1.1/DTD/svg11.dtd"> 
<svg
  xmlns:svg="http://www.w3.org/2000/svg"
  xmlns="http://www.w3.org/2000/svg"
  xmlns:xlink="http://www.w3.org/1999/xlink"
  version="1.1"
  width="29.700220cm" height="21.000720cm" viewBox="0 0 116930 82680">
<title>SVG Picture created as PINHOLDER01.svg date 2023/04/12 09:05:17 </title>
  <desc>Picture generated by Eeschema-SVG </desc>
<g style="fill:#000000; fill-opacity:1.000000;stroke:#000000; stroke-opacity:1.000000;
stroke-linecap:round; stroke-linejoin:round;"
 transform="translate(0 0) scale(1 1)">
</g>
<g style="fill:#840000; fill-opacity:0.0; 
stroke:#840000; stroke-width:0.000000; stroke-opacity:1; 
stroke-linecap:round; stroke-linejoin:round;">
</g>
<g style="fill:#840000; fill-opacity:0.0; 
stroke:#840000; stroke-width:60.000000; stroke-opacity:1; 
stroke-linecap:round; stroke-linejoin:round;">
<rect x="69685.905512" y="65357.165354" width="42519.685039" height="12598.425197" rx="0.000000" />
<rect x="3937.007874" y="3937.007874" width="109055.984252" height="74805.984252" rx="0.000000" />
<rect x="4724.409449" y="4724.409449" width="107481.181102" height="73231.181102" rx="0.000000" />
<path d="M23622 4724
L23622 3937
" />
<path d="M43307 4724
L43307 3937
" />
<path d="M62992 4724
L62992 3937
" />
<path d="M82677 4724
L82677 3937
" />
<path d="M102362 4724
L102362 3937
" />
<text x="13779.527559" y="4586.614173"
textLength="487.480315" font-size="682.401575" lengthAdjust="spacingAndGlyphs"
text-anchor="start" opacity="0">1</text>
<g class="stroked-text"><desc>1</desc>
<path d="M14199 4562
L13907 4562
" />
<path d="M14053 4562
L14053 4050
L14004 4123
L13955 4172
L13907 4196
" />
</g><text x="33464.566929" y="4586.614173"
textLength="547.440945" font-size="682.401575" lengthAdjust="spacingAndGlyphs"
text-anchor="start" opacity="0">2</text>
<g class="stroked-text"><desc>2</desc>
<path d="M33592 4099
L33616 4074
L33665 4050
L33787 4050
L33835 4074
L33860 4099
L33884 4147
L33884 4196
L33860 4269
L33567 4562
L33884 4562
" />
</g><text x="53149.606299" y="4586.614173"
textLength="547.440945" font-size="682.401575" lengthAdjust="spacingAndGlyphs"
text-anchor="start" opacity="0">3</text>
<g class="stroked-text"><desc>3</desc>
<path d="M53252 4050
L53569 4050
L53398 4245
L53472 4245
L53520 4269
L53545 4294
L53569 4342
L53569 4464
L53545 4513
L53520 4537
L53472 4562
L53325 4562
L53277 4537
L53252 4513
" />
</g><text x="72834.645669" y="4586.614173"
textLength="547.440945" font-size="682.401575" lengthAdjust="spacingAndGlyphs"
text-anchor="start" opacity="0">4</text>
<g class="stroked-text"><desc>4</desc>
<path d="M73205 4221
L73205 4562
" />
<path d="M73083 4026
L72962 4391
L73278 4391
" />
</g><text x="92519.685039" y="4586.614173"
textLength="547.440945" font-size="682.401575" lengthAdjust="spacingAndGlyphs"
text-anchor="start" opacity="0">5</text>
<g class="stroked-text"><desc>5</desc>
<path d="M92915 4050
L92671 4050
L92647 4294
L92671 4269
L92720 4245
L92842 4245
L92890 4269
L92915 4294
L92939 4342
L92939 4464
L92915 4513
L92890 4537
L92842 4562
L92720 4562
L92671 4537
L92647 4513
" />
</g><text x="112204.724409" y="4586.614173"
textLength="547.440945" font-size="682.401575" lengthAdjust="spacingAndGlyphs"
text-anchor="start" opacity="0">6</text>
<g class="stroked-text"><desc>6</desc>
<path d="M112575 4050
L112478 4050
L112429 4074
L112405 4099
L112356 4172
L112332 4269
L112332 4464
L112356 4513
L112380 4537
L112429 4562
L112527 4562
L112575 4537
L112600 4513
L112624 4464
L112624 4342
L112600 4294
L112575 4269
L112527 4245
L112429 4245
L112380 4269
L112356 4294
L112332 4342
" />
</g><path d="M23622 77955
L23622 78742
" />
<path d="M43307 77955
L43307 78742
" />
<path d="M62992 77955
L62992 78742
" />
<path d="M82677 77955
L82677 78742
" />
<path d="M102362 77955
L102362 78742
" />
<text x="13779.527559" y="78605.196850"
textLength="547.440945" font-size="682.401575" lengthAdjust="spacingAndGlyphs"
text-anchor="start" opacity="0">1</text>
<g class="stroked-text"><desc>1</desc>
<path d="M14199 78580
L13907 78580
" />
<path d="M14053 78580
L14053 78068
L14004 78142
L13955 78190
L13907 78215
" />
</g><text x="33464.566929" y="78605.196850"
textLength="547.440945" font-size="682.401575" lengthAdjust="spacingAndGlyphs"
text-anchor="start" opacity="0">2</text>
<g class="stroked-text"><desc>2</desc>
<path d="M33592 78117
L33616 78093
L33665 78068
L33787 78068
L33835 78093
L33860 78117
L33884 78166
L33884 78215
L33860 78288
L33567 78580
L33884 78580
" />
</g><text x="53149.606299" y="78605.196850"
textLength="547.440945" font-size="682.401575" lengthAdjust="spacingAndGlyphs"
text-anchor="start" opacity="0">3</text>
<g class="stroked-text"><desc>3</desc>
<path d="M53252 78068
L53569 78068
L53398 78263
L53472 78263
L53520 78288
L53545 78312
L53569 78361
L53569 78483
L53545 78532
L53520 78556
L53472 78580
L53325 78580
L53277 78556
L53252 78532
" />
</g><text x="72834.645669" y="78605.196850"
textLength="547.440945" font-size="682.401575" lengthAdjust="spacingAndGlyphs"
text-anchor="start" opacity="0">4</text>
<g class="stroked-text"><desc>4</desc>
<path d="M73205 78239
L73205 78580
" />
<path d="M73083 78044
L72962 78410
L73278 78410
" />
</g><text x="92519.685039" y="78605.196850"
textLength="547.440945" font-size="682.401575" lengthAdjust="spacingAndGlyphs"
text-anchor="start" opacity="0">5</text>
<g class="stroked-text"><desc>5</desc>
<path d="M92915 78068
L92671 78068
L92647 78312
L92671 78288
L92720 78263
L92842 78263
L92890 78288
L92915 78312
L92939 78361
L92939 78483
L92915 78532
L92890 78556
L92842 78580
L92720 78580
L92671 78556
L92647 78532
" />
</g><text x="112204.724409" y="78605.196850"
textLength="547.440945" font-size="682.401575" lengthAdjust="spacingAndGlyphs"
text-anchor="start" opacity="0">6</text>
<g class="stroked-text"><desc>6</desc>
<path d="M112575 78068
L112478 78068
L112429 78093
L112405 78117
L112356 78190
L112332 78288
L112332 78483
L112356 78532
L112380 78556
L112429 78580
L112527 78580
L112575 78556
L112600 78532
L112624 78483
L112624 78361
L112600 78312
L112575 78288
L112527 78263
L112429 78263
L112380 78288
L112356 78312
L112332 78361
" />
</g><path d="M3937 23622
L4724 23622
" />
<path d="M3937 43307
L4724 43307
" />
<path d="M3937 62992
L4724 62992
" />
<text x="4330.708661" y="14035.433071"
textLength="498.700787" font-size="682.401575" lengthAdjust="spacingAndGlyphs"
text-anchor="middle" opacity="0">A</text>
<g class="stroked-text"><desc>A</desc>
<path d="M4208 13864
L4452 13864
" />
<path d="M4160 14011
L4330 13499
L4501 14011
" />
</g><text x="4330.708661" y="33720.472441"
textLength="571.811024" font-size="682.401575" lengthAdjust="spacingAndGlyphs"
text-anchor="middle" opacity="0">B</text>
<g class="stroked-text"><desc>B</desc>
<path d="M4367 33427
L4440 33452
L4464 33476
L4489 33525
L4489 33598
L4464 33647
L4440 33671
L4391 33696
L4196 33696
L4196 33184
L4367 33184
L4415 33208
L4440 33233
L4464 33281
L4464 33330
L4440 33379
L4415 33403
L4367 33427
L4196 33427
" />
</g><text x="4330.708661" y="53405.511811"
textLength="571.811024" font-size="682.401575" lengthAdjust="spacingAndGlyphs"
text-anchor="middle" opacity="0">C</text>
<g class="stroked-text"><desc>C</desc>
<path d="M4489 53332
L4464 53356
L4391 53381
L4342 53381
L4269 53356
L4221 53307
L4196 53259
L4172 53161
L4172 53088
L4196 52991
L4221 52942
L4269 52893
L4342 52869
L4391 52869
L4464 52893
L4489 52918
" />
</g><text x="4330.708661" y="73090.551181"
textLength="571.811024" font-size="682.401575" lengthAdjust="spacingAndGlyphs"
text-anchor="middle" opacity="0">D</text>
<g class="stroked-text"><desc>D</desc>
<path d="M4196 73066
L4196 72554
L4318 72554
L4391 72578
L4440 72627
L4464 72676
L4489 72773
L4489 72846
L4464 72944
L4440 72993
L4391 73041
L4318 73066
L4196 73066
" />
</g><path d="M112992 23622
L112205 23622
" />
<path d="M112992 43307
L112205 43307
" />
<path d="M112992 62992
L112205 62992
" />
<text x="112599.291339" y="14035.433071"
textLength="498.700787" font-size="682.401575" lengthAdjust="spacingAndGlyphs"
text-anchor="middle" opacity="0">A</text>
<g class="stroked-text"><desc>A</desc>
<path d="M112477 13864
L112721 13864
" />
<path d="M112428 14011
L112599 13499
L112769 14011
" />
</g><text x="112599.291339" y="33720.472441"
textLength="571.811024" font-size="682.401575" lengthAdjust="spacingAndGlyphs"
text-anchor="middle" opacity="0">B</text>
<g class="stroked-text"><desc>B</desc>
<path d="M112635 33427
L112708 33452
L112733 33476
L112757 33525
L112757 33598
L112733 33647
L112708 33671
L112660 33696
L112465 33696
L112465 33184
L112635 33184
L112684 33208
L112708 33233
L112733 33281
L112733 33330
L112708 33379
L112684 33403
L112635 33427
L112465 33427
" />
</g><text x="112599.291339" y="53405.511811"
textLength="571.811024" font-size="682.401575" lengthAdjust="spacingAndGlyphs"
text-anchor="middle" opacity="0">C</text>
<g class="stroked-text"><desc>C</desc>
<path d="M112757 53332
L112733 53356
L112660 53381
L112611 53381
L112538 53356
L112489 53307
L112465 53259
L112440 53161
L112440 53088
L112465 52991
L112489 52942
L112538 52893
L112611 52869
L112660 52869
L112733 52893
L112757 52918
" />
</g><text x="112599.291339" y="73090.551181"
textLength="571.811024" font-size="682.401575" lengthAdjust="spacingAndGlyphs"
text-anchor="middle" opacity="0">D</text>
<g class="stroked-text"><desc>D</desc>
<path d="M112465 73066
L112465 72554
L112587 72554
L112660 72578
L112708 72627
L112733 72676
L112757 72773
L112757 72846
L112733 72944
L112708 72993
L112660 73041
L112587 73066
L112465 73066
" />
</g><text x="78741.023622" y="76321.732283"
textLength="8721.417323" font-size="787.401575" lengthAdjust="spacingAndGlyphs"
text-anchor="start" opacity="0">Date: 2023-04-12</text>
<g class="stroked-text"><desc>Date: 2023-04-12</desc>
<path d="M78911 76293
L78911 75703
L79052 75703
L79136 75731
L79192 75787
L79220 75843
L79249 75956
L79249 76040
L79220 76152
L79192 76209
L79136 76265
L79052 76293
L78911 76293
" />
<path d="M79755 76293
L79755 75984
L79727 75928
L79670 75899
L79558 75899
L79502 75928
" />
<path d="M79755 76265
L79699 76293
L79558 76293
L79502 76265
L79474 76209
L79474 76152
L79502 76096
L79558 76068
L79699 76068
L79755 76040
" />
<path d="M79952 75899
L80177 75899
" />
<path d="M80036 75703
L80036 76209
L80064 76265
L80120 76293
L80177 76293
" />
<path d="M80598 76265
L80542 76293
L80430 76293
L80373 76265
L80345 76209
L80345 75984
L80373 75928
L80430 75899
L80542 75899
L80598 75928
L80627 75984
L80627 76040
L80345 76096
" />
<path d="M80880 76237
L80908 76265
L80880 76293
L80852 76265
L80880 76237
L80880 76293
" />
<path d="M80880 75928
L80908 75956
L80880 75984
L80852 75956
L80880 75928
L80880 75984
" />
<path d="M81583 75759
L81611 75731
L81667 75703
L81808 75703
L81864 75731
L81892 75759
L81920 75815
L81920 75871
L81892 75956
L81555 76293
L81920 76293
" />
<path d="M82286 75703
L82342 75703
L82398 75731
L82426 75759
L82454 75815
L82483 75928
L82483 76068
L82454 76181
L82426 76237
L82398 76265
L82342 76293
L82286 76293
L82229 76265
L82201 76237
L82173 76181
L82145 76068
L82145 75928
L82173 75815
L82201 75759
L82229 75731
L82286 75703
" />
<path d="M82708 75759
L82736 75731
L82792 75703
L82932 75703
L82989 75731
L83017 75759
L83045 75815
L83045 75871
L83017 75956
L82679 76293
L83045 76293
" />
<path d="M83242 75703
L83607 75703
L83411 75928
L83495 75928
L83551 75956
L83579 75984
L83607 76040
L83607 76181
L83579 76237
L83551 76265
L83495 76293
L83326 76293
L83270 76265
L83242 76237
" />
<path d="M83860 76068
L84310 76068
" />
<path d="M84704 75703
L84760 75703
L84817 75731
L84845 75759
L84873 75815
L84901 75928
L84901 76068
L84873 76181
L84845 76237
L84817 76265
L84760 76293
L84704 76293
L84648 76265
L84620 76237
L84592 76181
L84564 76068
L84564 75928
L84592 75815
L84620 75759
L84648 75731
L84704 75703
" />
<path d="M85407 75899
L85407 76293
" />
<path d="M85267 75674
L85126 76096
L85492 76096
" />
<path d="M85717 76068
L86166 76068
" />
<path d="M86757 76293
L86420 76293
" />
<path d="M86588 76293
L86588 75703
L86532 75787
L86476 75843
L86420 75871
" />
<path d="M86982 75759
L87010 75731
L87066 75703
L87207 75703
L87263 75731
L87291 75759
L87319 75815
L87319 75871
L87291 75956
L86954 76293
L87319 76293
" />
</g><path d="M69685 76577
L112205 76577
" />
<text x="70079.606299" y="77424.094488"
textLength="22388.464567" font-size="787.401575" lengthAdjust="spacingAndGlyphs"
text-anchor="start" opacity="0">KiCad E.D.A.  eeschema 6.0.11+dfsg-1~bpo11+1</text>
<g class="stroked-text"><desc>KiCad E.D.A.  eeschema 6.0.11+dfsg-1~bpo11+1</desc>
<path d="M70250 77395
L70250 76805
" />
<path d="M70587 77395
L70334 77058
" />
<path d="M70587 76805
L70250 77142
" />
<path d="M70840 77395
L70840 77002
" />
<path d="M70840 76805
L70812 76833
L70840 76861
L70868 76833
L70840 76805
L70840 76861
" />
<path d="M71459 77339
L71431 77367
L71346 77395
L71290 77395
L71206 77367
L71150 77311
L71121 77255
L71093 77142
L71093 77058
L71121 76946
L71150 76889
L71206 76833
L71290 76805
L71346 76805
L71431 76833
L71459 76861
" />
<path d="M71965 77395
L71965 77086
L71937 77030
L71881 77002
L71768 77002
L71712 77030
" />
<path d="M71965 77367
L71909 77395
L71768 77395
L71712 77367
L71684 77311
L71684 77255
L71712 77199
L71768 77170
L71909 77170
L71965 77142
" />
<path d="M72499 77395
L72499 76805
" />
<path d="M72499 77367
L72443 77395
L72331 77395
L72274 77367
L72246 77339
L72218 77283
L72218 77114
L72246 77058
L72274 77030
L72331 77002
L72443 77002
L72499 77030
" />
<path d="M73231 77086
L73427 77086
" />
<path d="M73512 77395
L73231 77395
L73231 76805
L73512 76805
" />
<path d="M73765 77339
L73793 77367
L73765 77395
L73737 77367
L73765 77339
L73765 77395
" />
<path d="M74046 77395
L74046 76805
L74187 76805
L74271 76833
L74327 76889
L74355 76946
L74384 77058
L74384 77142
L74355 77255
L74327 77311
L74271 77367
L74187 77395
L74046 77395
" />
<path d="M74637 77339
L74665 77367
L74637 77395
L74609 77367
L74637 77339
L74637 77395
" />
<path d="M74890 77227
L75171 77227
" />
<path d="M74834 77395
L75030 76805
L75227 77395
" />
<path d="M75424 77339
L75452 77367
L75424 77395
L75396 77367
L75424 77339
L75424 77395
" />
<path d="M76830 77367
L76774 77395
L76661 77395
L76605 77367
L76577 77311
L76577 77086
L76605 77030
L76661 77002
L76774 77002
L76830 77030
L76858 77086
L76858 77142
L76577 77199
" />
<path d="M77336 77367
L77280 77395
L77168 77395
L77111 77367
L77083 77311
L77083 77086
L77111 77030
L77168 77002
L77280 77002
L77336 77030
L77364 77086
L77364 77142
L77083 77199
" />
<path d="M77589 77367
L77646 77395
L77758 77395
L77814 77367
L77842 77311
L77842 77283
L77814 77227
L77758 77199
L77674 77199
L77618 77170
L77589 77114
L77589 77086
L77618 77030
L77674 77002
L77758 77002
L77814 77030
" />
<path d="M78349 77367
L78292 77395
L78180 77395
L78124 77367
L78096 77339
L78067 77283
L78067 77114
L78096 77058
L78124 77030
L78180 77002
L78292 77002
L78349 77030
" />
<path d="M78602 77395
L78602 76805
" />
<path d="M78855 77395
L78855 77086
L78827 77030
L78771 77002
L78686 77002
L78630 77030
L78602 77058
" />
<path d="M79361 77367
L79305 77395
L79192 77395
L79136 77367
L79108 77311
L79108 77086
L79136 77030
L79192 77002
L79305 77002
L79361 77030
L79389 77086
L79389 77142
L79108 77199
" />
<path d="M79642 77395
L79642 77002
" />
<path d="M79642 77058
L79670 77030
L79727 77002
L79811 77002
L79867 77030
L79895 77086
L79895 77395
" />
<path d="M79895 77086
L79923 77030
L79980 77002
L80064 77002
L80120 77030
L80148 77086
L80148 77395
" />
<path d="M80683 77395
L80683 77086
L80655 77030
L80598 77002
L80486 77002
L80430 77030
" />
<path d="M80683 77367
L80627 77395
L80486 77395
L80430 77367
L80402 77311
L80402 77255
L80430 77199
L80486 77170
L80627 77170
L80683 77142
" />
<path d="M81667 76805
L81555 76805
L81498 76833
L81470 76861
L81414 76946
L81386 77058
L81386 77283
L81414 77339
L81442 77367
L81498 77395
L81611 77395
L81667 77367
L81695 77339
L81723 77283
L81723 77142
L81695 77086
L81667 77058
L81611 77030
L81498 77030
L81442 77058
L81414 77086
L81386 77142
" />
<path d="M81976 77339
L82004 77367
L81976 77395
L81948 77367
L81976 77339
L81976 77395
" />
<path d="M82370 76805
L82426 76805
L82483 76833
L82511 76861
L82539 76917
L82567 77030
L82567 77170
L82539 77283
L82511 77339
L82483 77367
L82426 77395
L82370 77395
L82314 77367
L82286 77339
L82258 77283
L82229 77170
L82229 77030
L82258 76917
L82286 76861
L82314 76833
L82370 76805
" />
<path d="M82820 77339
L82848 77367
L82820 77395
L82792 77367
L82820 77339
L82820 77395
" />
<path d="M83411 77395
L83073 77395
" />
<path d="M83242 77395
L83242 76805
L83186 76889
L83129 76946
L83073 76974
" />
<path d="M83973 77395
L83636 77395
" />
<path d="M83804 77395
L83804 76805
L83748 76889
L83692 76946
L83636 76974
" />
<path d="M84226 77170
L84676 77170
" />
<path d="M84451 77395
L84451 76946
" />
<path d="M85210 77395
L85210 76805
" />
<path d="M85210 77367
L85154 77395
L85042 77395
L84985 77367
L84957 77339
L84929 77283
L84929 77114
L84957 77058
L84985 77030
L85042 77002
L85154 77002
L85210 77030
" />
<path d="M85407 77002
L85632 77002
" />
<path d="M85492 77395
L85492 76889
L85520 76833
L85576 76805
L85632 76805
" />
<path d="M85801 77367
L85857 77395
L85970 77395
L86026 77367
L86054 77311
L86054 77283
L86026 77227
L85970 77199
L85885 77199
L85829 77170
L85801 77114
L85801 77086
L85829 77030
L85885 77002
L85970 77002
L86026 77030
" />
<path d="M86560 77002
L86560 77480
L86532 77536
L86504 77564
L86448 77592
L86363 77592
L86307 77564
" />
<path d="M86560 77367
L86504 77395
L86391 77395
L86335 77367
L86307 77339
L86279 77283
L86279 77114
L86307 77058
L86335 77030
L86391 77002
L86504 77002
L86560 77030
" />
<path d="M86841 77170
L87291 77170
" />
<path d="M87882 77395
L87544 77395
" />
<path d="M87713 77395
L87713 76805
L87657 76889
L87601 76946
L87544 76974
" />
<path d="M88051 77170
L88079 77142
L88135 77114
L88247 77170
L88304 77142
L88332 77114
" />
<path d="M88557 77395
L88557 76805
" />
<path d="M88557 77030
L88613 77002
L88726 77002
L88782 77030
L88810 77058
L88838 77114
L88838 77283
L88810 77339
L88782 77367
L88726 77395
L88613 77395
L88557 77367
" />
<path d="M89091 77002
L89091 77592
" />
<path d="M89091 77030
L89147 77002
L89260 77002
L89316 77030
L89344 77058
L89372 77114
L89372 77283
L89344 77339
L89316 77367
L89260 77395
L89147 77395
L89091 77367
" />
<path d="M89710 77395
L89654 77367
L89625 77339
L89597 77283
L89597 77114
L89625 77058
L89654 77030
L89710 77002
L89794 77002
L89850 77030
L89878 77058
L89907 77114
L89907 77283
L89878 77339
L89850 77367
L89794 77395
L89710 77395
" />
<path d="M90469 77395
L90132 77395
" />
<path d="M90300 77395
L90300 76805
L90244 76889
L90188 76946
L90132 76974
" />
<path d="M91031 77395
L90694 77395
" />
<path d="M90863 77395
L90863 76805
L90807 76889
L90750 76946
L90694 76974
" />
<path d="M91285 77170
L91735 77170
" />
<path d="M91510 77395
L91510 76946
" />
<path d="M92325 77395
L91988 77395
" />
<path d="M92156 77395
L92156 76805
L92100 76889
L92044 76946
L91988 76974
" />
</g><path d="M69685 75396
L112205 75396
" />
</g>
<g style="fill:#840000; fill-opacity:0.0; 
stroke:#840000; stroke-width:118.110236; stroke-opacity:1; 
stroke-linecap:round; stroke-linejoin:round;">
<text x="103544.173228" y="76321.732283"
textLength="3968.897638" font-size="787.401575" lengthAdjust="spacingAndGlyphs"
text-anchor="start" opacity="0">Rev: 01A</text>
<g class="stroked-text"><desc>Rev: 01A</desc>
<path d="M104098 76293
L103902 76012
" />
<path d="M103761 76293
L103761 75703
L103986 75703
L104042 75731
L104070 75759
L104098 75815
L104098 75899
L104070 75956
L104042 75984
L103986 76012
L103761 76012
" />
<path d="M104577 76265
L104520 76293
L104408 76293
L104352 76265
L104323 76209
L104323 75984
L104352 75928
L104408 75899
L104520 75899
L104577 75928
L104605 75984
L104605 76040
L104323 76096
" />
<path d="M104802 75899
L104942 76293
L105083 75899
" />
<path d="M105308 76237
L105336 76265
L105308 76293
L105280 76265
L105308 76237
L105308 76293
" />
<path d="M105308 75928
L105336 75956
L105308 75984
L105280 75956
L105308 75928
L105308 75984
" />
<path d="M106151 75703
L106208 75703
L106264 75731
L106292 75759
L106320 75815
L106348 75928
L106348 76068
L106320 76181
L106292 76237
L106264 76265
L106208 76293
L106151 76293
L106095 76265
L106067 76237
L106039 76181
L106011 76068
L106011 75928
L106039 75815
L106067 75759
L106095 75731
L106151 75703
" />
<path d="M106911 76293
L106573 76293
" />
<path d="M106742 76293
L106742 75703
L106686 75787
L106629 75843
L106573 75871
" />
<path d="M107136 76124
L107417 76124
" />
<path d="M107079 76293
L107276 75703
L107473 76293
" />
</g></g>
<g style="fill:#840000; fill-opacity:0.0; 
stroke:#840000; stroke-width:60.000000; stroke-opacity:1; 
stroke-linecap:round; stroke-linejoin:round;">
<text x="70079.606299" y="76321.732283"
textLength="3781.220472" font-size="787.401575" lengthAdjust="spacingAndGlyphs"
text-anchor="start" opacity="0">Size: A4</text>
<g class="stroked-text"><desc>Size: A4</desc>
<path d="M70222 76265
L70306 76293
L70447 76293
L70503 76265
L70531 76237
L70559 76181
L70559 76124
L70531 76068
L70503 76040
L70447 76012
L70334 75984
L70278 75956
L70250 75928
L70222 75871
L70222 75815
L70250 75759
L70278 75731
L70334 75703
L70475 75703
L70559 75731
" />
<path d="M70812 76293
L70812 75899
" />
<path d="M70812 75703
L70784 75731
L70812 75759
L70840 75731
L70812 75703
L70812 75759
" />
<path d="M71037 75899
L71346 75899
L71037 76293
L71346 76293
" />
<path d="M71796 76265
L71740 76293
L71628 76293
L71571 76265
L71543 76209
L71543 75984
L71571 75928
L71628 75899
L71740 75899
L71796 75928
L71825 75984
L71825 76040
L71543 76096
" />
<path d="M72078 76237
L72106 76265
L72078 76293
L72049 76265
L72078 76237
L72078 76293
" />
<path d="M72078 75928
L72106 75956
L72078 75984
L72049 75956
L72078 75928
L72078 75984
" />
<path d="M72781 76124
L73062 76124
" />
<path d="M72724 76293
L72921 75703
L73118 76293
" />
<path d="M73568 75899
L73568 76293
" />
<path d="M73427 75674
L73287 76096
L73652 76096
" />
</g><text x="103544.173228" y="77424.094488"
textLength="3350.196850" font-size="787.401575" lengthAdjust="spacingAndGlyphs"
text-anchor="start" opacity="0">Id: 1/1</text>
<g class="stroked-text"><desc>Id: 1/1</desc>
<path d="M103714 77395
L103714 76805
" />
<path d="M104249 77395
L104249 76805
" />
<path d="M104249 77367
L104192 77395
L104080 77395
L104024 77367
L103995 77339
L103967 77283
L103967 77114
L103995 77058
L104024 77030
L104080 77002
L104192 77002
L104249 77030
" />
<path d="M104530 77339
L104558 77367
L104530 77395
L104502 77367
L104530 77339
L104530 77395
" />
<path d="M104530 77030
L104558 77058
L104530 77086
L104502 77058
L104530 77030
L104530 77086
" />
<path d="M105570 77395
L105233 77395
" />
<path d="M105402 77395
L105402 76805
L105345 76889
L105289 76946
L105233 76974
" />
<path d="M106245 76777
L105739 77536
" />
<path d="M106751 77395
L106414 77395
" />
<path d="M106583 77395
L106583 76805
L106526 76889
L106470 76946
L106414 76974
" />
</g><path d="M69685 73821
L112205 73821
" />
</g>
<g style="fill:#840000; fill-opacity:0.0; 
stroke:#840000; stroke-width:157.480315; stroke-opacity:1; 
stroke-linecap:round; stroke-linejoin:round;">
<text x="70079.606299" y="74924.094488"
textLength="12441.929134" font-size="1049.842520" lengthAdjust="spacingAndGlyphs"
text-anchor="start" opacity="0">Title: PINHOLDER01A</text>
<g class="stroked-text"><desc>Title: PINHOLDER01A</desc>
<path d="M70360 74099
L70810 74099
" />
<path d="M70486 74886
L70585 74099
" />
<path d="M70974 74886
L71039 74361
" />
<path d="M71072 74099
L71030 74136
L71063 74174
L71105 74136
L71072 74099
L71063 74174
" />
<path d="M71302 74361
L71602 74361
" />
<path d="M71447 74099
L71363 74774
L71391 74849
L71461 74886
L71536 74886
" />
<path d="M71911 74886
L71841 74849
L71812 74774
L71897 74099
" />
<path d="M72516 74849
L72436 74886
L72286 74886
L72216 74849
L72187 74774
L72225 74474
L72272 74399
L72352 74361
L72501 74361
L72572 74399
L72600 74474
L72591 74549
L72206 74624
" />
<path d="M72895 74811
L72928 74849
L72886 74886
L72853 74849
L72895 74811
L72886 74886
" />
<path d="M72947 74399
L72980 74436
L72937 74474
L72905 74436
L72947 74399
L72937 74474
" />
<path d="M73861 74886
L73959 74099
L74259 74099
L74329 74136
L74362 74174
L74390 74249
L74376 74361
L74329 74436
L74287 74474
L74207 74511
L73908 74511
" />
<path d="M74648 74886
L74747 74099
" />
<path d="M75023 74886
L75121 74099
L75473 74886
L75571 74099
" />
<path d="M75848 74886
L75946 74099
" />
<path d="M75900 74474
L76349 74474
" />
<path d="M76298 74886
L76396 74099
" />
<path d="M76921 74099
L77071 74099
L77142 74136
L77207 74211
L77226 74361
L77193 74624
L77137 74774
L77052 74849
L76973 74886
L76823 74886
L76752 74849
L76687 74774
L76668 74624
L76701 74361
L76757 74211
L76842 74136
L76921 74099
" />
<path d="M77873 74886
L77498 74886
L77596 74099
" />
<path d="M78135 74886
L78234 74099
L78421 74099
L78529 74136
L78594 74211
L78623 74286
L78641 74436
L78627 74549
L78571 74699
L78524 74774
L78440 74849
L78323 74886
L78135 74886
" />
<path d="M78974 74474
L79237 74474
" />
<path d="M79297 74886
L78923 74886
L79021 74099
L79396 74099
" />
<path d="M80085 74886
L79869 74511
" />
<path d="M79635 74886
L79733 74099
L80033 74099
L80104 74136
L80136 74174
L80165 74249
L80151 74361
L80104 74436
L80061 74474
L79982 74511
L79682 74511
" />
<path d="M80671 74099
L80746 74099
L80816 74136
L80849 74174
L80877 74249
L80896 74399
L80872 74586
L80816 74736
L80769 74811
L80727 74849
L80647 74886
L80572 74886
L80502 74849
L80469 74811
L80441 74736
L80422 74586
L80446 74399
L80502 74249
L80549 74174
L80591 74136
L80671 74099
" />
<path d="M81585 74886
L81135 74886
" />
<path d="M81360 74886
L81458 74099
L81369 74211
L81285 74286
L81205 74324
" />
<path d="M81913 74661
L82288 74661
" />
<path d="M81810 74886
L82171 74099
L82335 74886
" />
</g></g>
<g style="fill:#840000; fill-opacity:0.0; 
stroke:#840000; stroke-width:60.000000; stroke-opacity:1; 
stroke-linecap:round; stroke-linejoin:round;">
<text x="70079.606299" y="73408.346457"
textLength="13168.740157" font-size="787.401575" lengthAdjust="spacingAndGlyphs"
text-anchor="start" opacity="0">File: PINHOLDER01.kicad_sch</text>
<g class="stroked-text"><desc>File: PINHOLDER01.kicad_sch</desc>
<path d="M70447 73070
L70250 73070
" />
<path d="M70250 73380
L70250 72789
L70531 72789
" />
<path d="M70756 73380
L70756 72986
" />
<path d="M70756 72789
L70728 72817
L70756 72845
L70784 72817
L70756 72789
L70756 72845
" />
<path d="M71121 73380
L71065 73352
L71037 73295
L71037 72789
" />
<path d="M71571 73352
L71515 73380
L71403 73380
L71346 73352
L71318 73295
L71318 73070
L71346 73014
L71403 72986
L71515 72986
L71571 73014
L71600 73070
L71600 73127
L71318 73183
" />
<path d="M71853 73323
L71881 73352
L71853 73380
L71825 73352
L71853 73323
L71853 73380
" />
<path d="M71853 73014
L71881 73042
L71853 73070
L71825 73042
L71853 73014
L71853 73070
" />
<path d="M72584 73380
L72584 72789
L72809 72789
L72865 72817
L72893 72845
L72921 72902
L72921 72986
L72893 73042
L72865 73070
L72809 73098
L72584 73098
" />
<path d="M73174 73380
L73174 72789
" />
<path d="M73456 73380
L73456 72789
L73793 73380
L73793 72789
" />
<path d="M74074 73380
L74074 72789
" />
<path d="M74074 73070
L74412 73070
" />
<path d="M74412 73380
L74412 72789
" />
<path d="M74805 72789
L74918 72789
L74974 72817
L75030 72874
L75058 72986
L75058 73183
L75030 73295
L74974 73352
L74918 73380
L74805 73380
L74749 73352
L74693 73295
L74665 73183
L74665 72986
L74693 72874
L74749 72817
L74805 72789
" />
<path d="M75593 73380
L75312 73380
L75312 72789
" />
<path d="M75790 73380
L75790 72789
L75930 72789
L76015 72817
L76071 72874
L76099 72930
L76127 73042
L76127 73127
L76099 73239
L76071 73295
L76015 73352
L75930 73380
L75790 73380
" />
<path d="M76380 73070
L76577 73070
" />
<path d="M76661 73380
L76380 73380
L76380 72789
L76661 72789
" />
<path d="M77252 73380
L77055 73098
" />
<path d="M76915 73380
L76915 72789
L77139 72789
L77196 72817
L77224 72845
L77252 72902
L77252 72986
L77224 73042
L77196 73070
L77139 73098
L76915 73098
" />
<path d="M77618 72789
L77674 72789
L77730 72817
L77758 72845
L77786 72902
L77814 73014
L77814 73155
L77786 73267
L77758 73323
L77730 73352
L77674 73380
L77618 73380
L77561 73352
L77533 73323
L77505 73267
L77477 73155
L77477 73014
L77505 72902
L77533 72845
L77561 72817
L77618 72789
" />
<path d="M78377 73380
L78039 73380
" />
<path d="M78208 73380
L78208 72789
L78152 72874
L78096 72930
L78039 72958
" />
<path d="M78630 73323
L78658 73352
L78630 73380
L78602 73352
L78630 73323
L78630 73380
" />
<path d="M78911 73380
L78911 72789
" />
<path d="M78967 73155
L79136 73380
" />
<path d="M79136 72986
L78911 73211
" />
<path d="M79389 73380
L79389 72986
" />
<path d="M79389 72789
L79361 72817
L79389 72845
L79417 72817
L79389 72789
L79389 72845
" />
<path d="M79923 73352
L79867 73380
L79755 73380
L79699 73352
L79670 73323
L79642 73267
L79642 73098
L79670 73042
L79699 73014
L79755 72986
L79867 72986
L79923 73014
" />
<path d="M80430 73380
L80430 73070
L80402 73014
L80345 72986
L80233 72986
L80177 73014
" />
<path d="M80430 73352
L80373 73380
L80233 73380
L80177 73352
L80148 73295
L80148 73239
L80177 73183
L80233 73155
L80373 73155
L80430 73127
" />
<path d="M80964 73380
L80964 72789
" />
<path d="M80964 73352
L80908 73380
L80795 73380
L80739 73352
L80711 73323
L80683 73267
L80683 73098
L80711 73042
L80739 73014
L80795 72986
L80908 72986
L80964 73014
" />
<path d="M81105 73436
L81555 73436
" />
<path d="M81667 73352
L81723 73380
L81836 73380
L81892 73352
L81920 73295
L81920 73267
L81892 73211
L81836 73183
L81751 73183
L81695 73155
L81667 73098
L81667 73070
L81695 73014
L81751 72986
L81836 72986
L81892 73014
" />
<path d="M82426 73352
L82370 73380
L82258 73380
L82201 73352
L82173 73323
L82145 73267
L82145 73098
L82173 73042
L82201 73014
L82258 72986
L82370 72986
L82426 73014
" />
<path d="M82679 73380
L82679 72789
" />
<path d="M82932 73380
L82932 73070
L82904 73014
L82848 72986
L82764 72986
L82708 73014
L82679 73042
" />
</g><path d="M69685 71459
L112205 71459
" />
<text x="70079.606299" y="72345.354331"
textLength="3856.417323" font-size="787.401575" lengthAdjust="spacingAndGlyphs"
text-anchor="start" opacity="0">Sheet: /</text>
<g class="stroked-text"><desc>Sheet: /</desc>
<path d="M70222 72289
L70306 72317
L70447 72317
L70503 72289
L70531 72260
L70559 72204
L70559 72148
L70531 72092
L70503 72064
L70447 72035
L70334 72007
L70278 71979
L70250 71951
L70222 71895
L70222 71839
L70250 71782
L70278 71754
L70334 71726
L70475 71726
L70559 71754
" />
<path d="M70812 72317
L70812 71726
" />
<path d="M71065 72317
L71065 72007
L71037 71951
L70981 71923
L70897 71923
L70840 71951
L70812 71979
" />
<path d="M71571 72289
L71515 72317
L71403 72317
L71346 72289
L71318 72232
L71318 72007
L71346 71951
L71403 71923
L71515 71923
L71571 71951
L71600 72007
L71600 72064
L71318 72120
" />
<path d="M72078 72289
L72021 72317
L71909 72317
L71853 72289
L71825 72232
L71825 72007
L71853 71951
L71909 71923
L72021 71923
L72078 71951
L72106 72007
L72106 72064
L71825 72120
" />
<path d="M72274 71923
L72499 71923
" />
<path d="M72359 71726
L72359 72232
L72387 72289
L72443 72317
L72499 72317
" />
<path d="M72696 72260
L72724 72289
L72696 72317
L72668 72289
L72696 72260
L72696 72317
" />
<path d="M72696 71951
L72724 71979
L72696 72007
L72668 71979
L72696 71951
L72696 72007
" />
<path d="M73849 71698
L73343 72457
" />
</g></g>
<g style="fill:#840000; fill-opacity:0.0; 
stroke:#840000; stroke-width:118.110236; stroke-opacity:1; 
stroke-linecap:round; stroke-linejoin:round;">
<text x="70079.606299" y="71164.251969"
textLength="5628.070866" font-size="787.401575" lengthAdjust="spacingAndGlyphs"
text-anchor="start" opacity="0">www.mlab.cz</text>
<g class="stroked-text"><desc>www.mlab.cz</desc>
<path d="M70240 70742
L70353 71136
L70465 70854
L70578 71136
L70690 70742
" />
<path d="M70859 70742
L70971 71136
L71084 70854
L71196 71136
L71309 70742
" />
<path d="M71478 70742
L71590 71136
L71703 70854
L71815 71136
L71928 70742
" />
<path d="M72152 71079
L72181 71107
L72152 71136
L72124 71107
L72152 71079
L72152 71136
" />
<path d="M72434 71136
L72434 70742
" />
<path d="M72434 70798
L72462 70770
L72518 70742
L72602 70742
L72659 70770
L72687 70826
L72687 71136
" />
<path d="M72687 70826
L72715 70770
L72771 70742
L72856 70742
L72912 70770
L72940 70826
L72940 71136
" />
<path d="M73305 71136
L73249 71107
L73221 71051
L73221 70545
" />
<path d="M73784 71136
L73784 70826
L73755 70770
L73699 70742
L73587 70742
L73530 70770
" />
<path d="M73784 71107
L73727 71136
L73587 71136
L73530 71107
L73502 71051
L73502 70995
L73530 70939
L73587 70911
L73727 70911
L73784 70883
" />
<path d="M74065 71136
L74065 70545
" />
<path d="M74065 70770
L74121 70742
L74233 70742
L74290 70770
L74318 70798
L74346 70854
L74346 71023
L74318 71079
L74290 71107
L74233 71136
L74121 71136
L74065 71107
" />
<path d="M74599 71079
L74627 71107
L74599 71136
L74571 71107
L74599 71079
L74599 71136
" />
<path d="M75133 71107
L75077 71136
L74965 71136
L74908 71107
L74880 71079
L74852 71023
L74852 70854
L74880 70798
L74908 70770
L74965 70742
L75077 70742
L75133 70770
" />
<path d="M75330 70742
L75640 70742
L75330 71136
L75640 71136
" />
</g></g>
<g style="fill:#840000; fill-opacity:0.0; 
stroke:#840000; stroke-width:60.000000; stroke-opacity:1; 
stroke-linecap:round; stroke-linejoin:round;">
<text x="70079.606299" y="69983.149606"
textLength="153.543307" font-size="787.401575" lengthAdjust="spacingAndGlyphs"
text-anchor="start" opacity="0"></text>
<g class="stroked-text"><desc></desc>
</g><text x="70079.606299" y="68802.047244"
textLength="60.000000" font-size="787.401575" lengthAdjust="spacingAndGlyphs"
text-anchor="start" opacity="0"></text>
<g class="stroked-text"><desc></desc>
</g><text x="70079.606299" y="67620.944882"
textLength="60.000000" font-size="787.401575" lengthAdjust="spacingAndGlyphs"
text-anchor="start" opacity="0"></text>
<g class="stroked-text"><desc></desc>
</g><text x="70079.606299" y="66439.842520"
textLength="60.000000" font-size="787.401575" lengthAdjust="spacingAndGlyphs"
text-anchor="start" opacity="0"></text>
<g class="stroked-text"><desc></desc>
</g><path d="M77559 75396
L77559 76577
" />
<path d="M102756 75396
L102756 77955
" />
<g >
<path style="fill:#840000; fill-opacity:0.0; 
stroke:#840000; stroke-width:60.000000; stroke-opacity:1; 
stroke-linecap:round; stroke-linejoin:round;fill:none"
d="M 107500.000000,9500.000000
107500.000000,10000.000000
108000.000000,10000.000000
107500.000000,10500.000000
107000.000000,10000.000000
107500.000000,10000.000000
" /> 
</g>
<g style="fill:#006464; fill-opacity:0.0; 
stroke:#006464; stroke-width:60.000000; stroke-opacity:1; 
stroke-linecap:round; stroke-linejoin:round;">
<text x="107500.000000" y="11300.000000"
textLength="1888.582677" font-size="800.000000" lengthAdjust="spacingAndGlyphs"
text-anchor="middle" opacity="0">GND</text>
<g class="stroked-text"><desc>GND</desc>
<path d="M107042 10700
L106985 10671
L106900 10671
L106814 10700
L106757 10757
L106728 10814
L106700 10928
L106700 11014
L106728 11128
L106757 11185
L106814 11242
L106900 11271
L106957 11271
L107042 11242
L107071 11214
L107071 11014
L106957 11014
" />
<path d="M107328 11271
L107328 10671
L107671 11271
L107671 10671
" />
<path d="M107957 11271
L107957 10671
L108100 10671
L108185 10700
L108242 10757
L108271 10814
L108300 10928
L108300 11014
L108271 11128
L108242 11185
L108185 11242
L108100 11271
L107957 11271
" />
</g></g>
</g>
<g style="fill:#006464; fill-opacity:0.0; 
stroke:#006464; stroke-width:60.000000; stroke-opacity:1; 
stroke-linecap:round; stroke-linejoin:round;">
<g >
</g>
<g style="fill:#840000; fill-opacity:0.0; 
stroke:#840000; stroke-width:60.000000; stroke-opacity:1; 
stroke-linecap:round; stroke-linejoin:round;">
</g>
<g style="fill:#840000; fill-opacity:0.0; 
stroke:#840000; stroke-width:100.000000; stroke-opacity:1; 
stroke-linecap:round; stroke-linejoin:round;">
<circle cx="103500.000000" cy="10000.000000" r="250.000000" /> 
</g>
<g style="fill:#840000; fill-opacity:0.0; 
stroke:#840000; stroke-width:60.000000; stroke-opacity:1; 
stroke-linecap:round; stroke-linejoin:round;">
<path d="M103500 9750
L103500 9500
" />
</g>
<g style="fill:#006464; fill-opacity:0.0; 
stroke:#006464; stroke-width:60.000000; stroke-opacity:1; 
stroke-linecap:round; stroke-linejoin:round;">
<text x="103500.000000" y="11300.000000"
textLength="1317.125984" font-size="800.000000" lengthAdjust="spacingAndGlyphs"
text-anchor="middle" opacity="0">M4</text>
<g class="stroked-text"><desc>M4</desc>
<path d="M103014 11271
L103014 10671
L103214 11100
L103414 10671
L103414 11271
" />
<path d="M103957 10871
L103957 11271
" />
<path d="M103814 10642
L103671 11071
L104042 11071
" />
</g></g>
</g>
<g style="fill:#006464; fill-opacity:0.0; 
stroke:#006464; stroke-width:60.000000; stroke-opacity:1; 
stroke-linecap:round; stroke-linejoin:round;">
<g >
</g>
<g style="fill:#840000; fill-opacity:0.0; 
stroke:#840000; stroke-width:60.000000; stroke-opacity:1; 
stroke-linecap:round; stroke-linejoin:round;">
</g>
<g style="fill:#840000; fill-opacity:0.0; 
stroke:#840000; stroke-width:100.000000; stroke-opacity:1; 
stroke-linecap:round; stroke-linejoin:round;">
<circle cx="101500.000000" cy="10000.000000" r="250.000000" /> 
</g>
<g style="fill:#840000; fill-opacity:0.0; 
stroke:#840000; stroke-width:60.000000; stroke-opacity:1; 
stroke-linecap:round; stroke-linejoin:round;">
<path d="M101500 9750
L101500 9500
" />
</g>
<g style="fill:#006464; fill-opacity:0.0; 
stroke:#006464; stroke-width:60.000000; stroke-opacity:1; 
stroke-linecap:round; stroke-linejoin:round;">
<text x="101500.000000" y="11300.000000"
textLength="1317.125984" font-size="800.000000" lengthAdjust="spacingAndGlyphs"
text-anchor="middle" opacity="0">M3</text>
<g class="stroked-text"><desc>M3</desc>
<path d="M101014 11271
L101014 10671
L101214 11100
L101414 10671
L101414 11271
" />
<path d="M101642 10671
L102014 10671
L101814 10900
L101900 10900
L101957 10928
L101985 10957
L102014 11014
L102014 11157
L101985 11214
L101957 11242
L101900 11271
L101728 11271
L101671 11242
L101642 11214
" />
</g></g>
</g>
<g style="fill:#006464; fill-opacity:0.0; 
stroke:#006464; stroke-width:60.000000; stroke-opacity:1; 
stroke-linecap:round; stroke-linejoin:round;">
<g >
</g>
<g style="fill:#840000; fill-opacity:0.0; 
stroke:#840000; stroke-width:60.000000; stroke-opacity:1; 
stroke-linecap:round; stroke-linejoin:round;">
</g>
<g style="fill:#FFFFC2; fill-opacity:0.0; 
stroke:#FFFFC2; stroke-width:60.000000; stroke-opacity:1; 
stroke-linecap:round; stroke-linejoin:round;">
</g>
<g style="fill:#FFFFC2; fill-opacity:0.6; 
stroke:#FFFFC2; stroke-width:0.039370; stroke-opacity:1; 
stroke-linecap:round; stroke-linejoin:round;">
<rect x="59000.000000" y="37500.000000" width="1000.000000" height="3000.000000" rx="0.000000" />
</g>
<g style="fill:#840000; fill-opacity:0.6; 
stroke:#840000; stroke-width:0.039370; stroke-opacity:1; 
stroke-linecap:round; stroke-linejoin:round;">
</g>
<g style="fill:#840000; fill-opacity:0.0; 
stroke:#840000; stroke-width:60.000000; stroke-opacity:1; 
stroke-linecap:round; stroke-linejoin:round;">
<rect x="59000.000000" y="37500.000000" width="1000.000000" height="3000.000000" rx="0.000000" />
<rect x="59000.000000" y="37500.000000" width="1000.000000" height="3000.000000" rx="0.000000" />
<circle cx="59500.000000" cy="40000.000000" r="150.000000" /> 
<path style="fill:#840000; fill-opacity:0.0; 
stroke:#840000; stroke-width:60.000000; stroke-opacity:1; 
stroke-linecap:round; stroke-linejoin:round;fill:none"
d="M 59000.000000,40000.000000
59350.000000,40000.000000
" /> 
<path style="fill:#840000; fill-opacity:0.0; 
stroke:#840000; stroke-width:60.000000; stroke-opacity:1; 
stroke-linecap:round; stroke-linejoin:round;fill:none"
d="M 59000.000000,39000.000000
59350.000000,39000.000000
" /> 
<path style="fill:#840000; fill-opacity:0.0; 
stroke:#840000; stroke-width:60.000000; stroke-opacity:1; 
stroke-linecap:round; stroke-linejoin:round;fill:none"
d="M 59000.000000,38000.000000
59350.000000,38000.000000
" /> 
<circle cx="59500.000000" cy="39000.000000" r="150.000000" /> 
<circle cx="59500.000000" cy="38000.000000" r="150.000000" /> 
<path d="M59000 38000
L57500 38000
" />
</g>
<g style="fill:#A90000; fill-opacity:0.0; 
stroke:#A90000; stroke-width:60.000000; stroke-opacity:1; 
stroke-linecap:round; stroke-linejoin:round;">
<text x="58250.000000" y="37900.000000"
textLength="536.181102" font-size="666.653543" lengthAdjust="spacingAndGlyphs"
text-anchor="middle" opacity="0">1</text>
<g class="stroked-text"><desc>1</desc>
<path d="M58392 37876
L58107 37876
" />
<path d="M58250 37876
L58250 37376
L58202 37447
L58154 37495
L58107 37519
" />
</g></g>
<g style="fill:#840000; fill-opacity:0.0; 
stroke:#840000; stroke-width:60.000000; stroke-opacity:1; 
stroke-linecap:round; stroke-linejoin:round;">
<path d="M59000 39000
L57500 39000
" />
</g>
<g style="fill:#A90000; fill-opacity:0.0; 
stroke:#A90000; stroke-width:60.000000; stroke-opacity:1; 
stroke-linecap:round; stroke-linejoin:round;">
<text x="58250.000000" y="38900.000000"
textLength="536.181102" font-size="666.653543" lengthAdjust="spacingAndGlyphs"
text-anchor="middle" opacity="0">2</text>
<g class="stroked-text"><desc>2</desc>
<path d="M58107 38423
L58130 38400
L58178 38376
L58297 38376
L58345 38400
L58369 38423
L58392 38471
L58392 38519
L58369 38590
L58083 38876
L58392 38876
" />
</g></g>
<g style="fill:#840000; fill-opacity:0.0; 
stroke:#840000; stroke-width:60.000000; stroke-opacity:1; 
stroke-linecap:round; stroke-linejoin:round;">
<path d="M59000 40000
L57500 40000
" />
</g>
<g style="fill:#A90000; fill-opacity:0.0; 
stroke:#A90000; stroke-width:60.000000; stroke-opacity:1; 
stroke-linecap:round; stroke-linejoin:round;">
<text x="58250.000000" y="39900.000000"
textLength="536.181102" font-size="666.653543" lengthAdjust="spacingAndGlyphs"
text-anchor="middle" opacity="0">3</text>
<g class="stroked-text"><desc>3</desc>
<path d="M58083 39376
L58392 39376
L58226 39566
L58297 39566
L58345 39590
L58369 39614
L58392 39661
L58392 39780
L58369 39828
L58345 39852
L58297 39876
L58154 39876
L58107 39852
L58083 39828
" />
</g></g>
<g style="fill:#006464; fill-opacity:0.0; 
stroke:#006464; stroke-width:60.000000; stroke-opacity:1; 
stroke-linecap:round; stroke-linejoin:round;">
<text x="61051.771654" y="39550.000000"
textLength="1088.582677" font-size="800.000000" lengthAdjust="spacingAndGlyphs"
text-anchor="middle" opacity="0">J1</text>
<g class="stroked-text"><desc>J1</desc>
<path d="M60851 38921
L60851 39350
L60823 39435
L60766 39492
L60680 39521
L60623 39521
" />
<path d="M61451 39521
L61108 39521
" />
<path d="M61280 39521
L61280 38921
L61223 39007
L61166 39064
L61108 39092
" />
</g></g>
</g>
<g style="fill:#006464; fill-opacity:0.0; 
stroke:#006464; stroke-width:60.000000; stroke-opacity:1; 
stroke-linecap:round; stroke-linejoin:round;">
<g >
</g>
<g style="fill:#840000; fill-opacity:0.0; 
stroke:#840000; stroke-width:60.000000; stroke-opacity:1; 
stroke-linecap:round; stroke-linejoin:round;">
<circle cx="51000.000000" cy="36700.000000" r="300.000000" /> 
<path d="M51000 37000
L51000 38000
" />
</g>
<g style="fill:#006464; fill-opacity:0.0; 
stroke:#006464; stroke-width:60.000000; stroke-opacity:1; 
stroke-linecap:round; stroke-linejoin:round;">
<text x="52709.803150" y="36949.921260"
textLength="1417.125984" font-size="666.653543" lengthAdjust="spacingAndGlyphs"
text-anchor="middle" opacity="0">TP2</text>
<g class="stroked-text"><desc>TP2</desc>
<path d="M52078 36426
L52364 36426
" />
<path d="M52221 36926
L52221 36426
" />
<path d="M52531 36926
L52531 36426
L52721 36426
L52769 36449
L52793 36473
L52816 36521
L52816 36592
L52793 36640
L52769 36664
L52721 36687
L52531 36687
" />
<path d="M53007 36473
L53031 36449
L53078 36426
L53197 36426
L53245 36449
L53269 36473
L53293 36521
L53293 36568
L53269 36640
L52983 36926
L53293 36926
" />
</g></g>
</g>
<g style="fill:#006464; fill-opacity:0.0; 
stroke:#006464; stroke-width:60.000000; stroke-opacity:1; 
stroke-linecap:round; stroke-linejoin:round;">
<g >
</g>
<g style="fill:#840000; fill-opacity:0.0; 
stroke:#840000; stroke-width:60.000000; stroke-opacity:1; 
stroke-linecap:round; stroke-linejoin:round;">
<circle cx="46000.000000" cy="36700.000000" r="300.000000" /> 
<path d="M46000 37000
L46000 38000
" />
</g>
<g style="fill:#006464; fill-opacity:0.0; 
stroke:#006464; stroke-width:60.000000; stroke-opacity:1; 
stroke-linecap:round; stroke-linejoin:round;">
<text x="47709.803150" y="36949.921260"
textLength="1417.125984" font-size="666.653543" lengthAdjust="spacingAndGlyphs"
text-anchor="middle" opacity="0">TP1</text>
<g class="stroked-text"><desc>TP1</desc>
<path d="M47078 36426
L47364 36426
" />
<path d="M47221 36926
L47221 36426
" />
<path d="M47531 36926
L47531 36426
L47721 36426
L47769 36449
L47793 36473
L47816 36521
L47816 36592
L47793 36640
L47769 36664
L47721 36687
L47531 36687
" />
<path d="M48293 36926
L48007 36926
" />
<path d="M48150 36926
L48150 36426
L48102 36497
L48055 36545
L48007 36568
" />
</g></g>
</g>
<g style="fill:#006464; fill-opacity:0.0; 
stroke:#006464; stroke-width:60.000000; stroke-opacity:1; 
stroke-linecap:round; stroke-linejoin:round;">
<g >
</g>
<g style="fill:#840000; fill-opacity:0.0; 
stroke:#840000; stroke-width:60.000000; stroke-opacity:1; 
stroke-linecap:round; stroke-linejoin:round;">
<path style="fill:#840000; fill-opacity:0.0; 
stroke:#840000; stroke-width:60.000000; stroke-opacity:1; 
stroke-linecap:round; stroke-linejoin:round;fill:none"
d="M 56500.000000,41500.000000
56500.000000,42000.000000
57000.000000,42000.000000
56500.000000,42500.000000
56000.000000,42000.000000
56500.000000,42000.000000
" /> 
</g>
<g style="fill:#006464; fill-opacity:0.0; 
stroke:#006464; stroke-width:60.000000; stroke-opacity:1; 
stroke-linecap:round; stroke-linejoin:round;">
<text x="56500.000000" y="43749.960630"
textLength="1583.818898" font-size="666.653543" lengthAdjust="spacingAndGlyphs"
text-anchor="middle" opacity="0">GND</text>
<g class="stroked-text"><desc>GND</desc>
<path d="M56119 43249
L56071 43226
L56000 43226
L55928 43249
L55880 43297
L55857 43345
L55833 43440
L55833 43511
L55857 43607
L55880 43654
L55928 43702
L56000 43726
L56047 43726
L56119 43702
L56142 43678
L56142 43511
L56047 43511
" />
<path d="M56357 43726
L56357 43226
L56642 43726
L56642 43226
" />
<path d="M56880 43726
L56880 43226
L57000 43226
L57071 43249
L57119 43297
L57142 43345
L57166 43440
L57166 43511
L57142 43607
L57119 43654
L57071 43702
L57000 43726
L56880 43726
" />
</g></g>
</g>
<g style="fill:#006464; fill-opacity:0.0; 
stroke:#006464; stroke-width:62.519685; stroke-opacity:1; 
stroke-linecap:round; stroke-linejoin:round;">
</g>
<g style="fill:#006464; fill-opacity:0.0; 
stroke:#006464; stroke-width:60.000000; stroke-opacity:1; 
stroke-linecap:round; stroke-linejoin:round;">
</g>
<g style="fill:#0F0F0F; fill-opacity:0.0; 
stroke:#0F0F0F; stroke-width:60.000000; stroke-opacity:1; 
stroke-linecap:round; stroke-linejoin:round;">
<text x="46500.000000" y="39862.480315"
textLength="3012.362205" font-size="666.653543" lengthAdjust="spacingAndGlyphs"
text-anchor="start" opacity="0">circle_0</text>
<g class="stroked-text"><desc>circle_0</desc>
<path d="M46863 39814
L46815 39838
L46720 39838
L46672 39814
L46649 39791
L46625 39743
L46625 39600
L46649 39552
L46672 39529
L46720 39505
L46815 39505
L46863 39529
" />
<path d="M47077 39838
L47077 39505
" />
<path d="M47077 39338
L47053 39362
L47077 39386
L47101 39362
L47077 39338
L47077 39386
" />
<path d="M47315 39838
L47315 39505
" />
<path d="M47315 39600
L47339 39552
L47363 39529
L47410 39505
L47458 39505
" />
<path d="M47839 39814
L47791 39838
L47696 39838
L47649 39814
L47625 39791
L47601 39743
L47601 39600
L47625 39552
L47649 39529
L47696 39505
L47791 39505
L47839 39529
" />
<path d="M48125 39838
L48077 39814
L48053 39767
L48053 39338
" />
<path d="M48506 39814
L48458 39838
L48363 39838
L48315 39814
L48291 39767
L48291 39576
L48315 39529
L48363 39505
L48458 39505
L48506 39529
L48530 39576
L48530 39624
L48291 39671
" />
<path d="M48625 39886
L49006 39886
" />
<path d="M49220 39338
L49268 39338
L49315 39362
L49339 39386
L49363 39433
L49387 39529
L49387 39648
L49363 39743
L49339 39791
L49315 39814
L49268 39838
L49220 39838
L49172 39814
L49149 39791
L49125 39743
L49101 39648
L49101 39529
L49125 39433
L49149 39386
L49172 39362
L49220 39338
" />
</g></g>
<g style="fill:#0F0F0F; fill-opacity:0.0; 
stroke:#0F0F0F; stroke-width:75.000000; stroke-opacity:1; 
stroke-linecap:round; stroke-linejoin:round;">
</g>
<g style="fill:#0F0F0F; fill-opacity:0.0; 
stroke:#0F0F0F; stroke-width:60.000000; stroke-opacity:1; 
stroke-linecap:round; stroke-linejoin:round;">
</g>
<g style="fill:#0000C2; fill-opacity:0.0; 
stroke:#0000C2; stroke-width:60.000000; stroke-opacity:1; 
stroke-linecap:round; stroke-linejoin:round;">
<text x="100500.000000" y="12335.000000"
textLength="7917.125984" font-size="800.000000" lengthAdjust="spacingAndGlyphs"
text-anchor="start" opacity="0">MOUNTING HOLES</text>
<g class="stroked-text"><desc>MOUNTING HOLES</desc>
<path d="M100672 12306
L100672 11706
L100872 12135
L101072 11706
L101072 12306
" />
<path d="M101472 11706
L101587 11706
L101644 11735
L101701 11792
L101730 11906
L101730 12106
L101701 12220
L101644 12277
L101587 12306
L101472 12306
L101415 12277
L101358 12220
L101330 12106
L101330 11906
L101358 11792
L101415 11735
L101472 11706
" />
<path d="M101987 11706
L101987 12192
L102015 12249
L102044 12277
L102101 12306
L102215 12306
L102272 12277
L102301 12249
L102330 12192
L102330 11706
" />
<path d="M102615 12306
L102615 11706
L102958 12306
L102958 11706
" />
<path d="M103158 11706
L103501 11706
" />
<path d="M103330 12306
L103330 11706
" />
<path d="M103701 12306
L103701 11706
" />
<path d="M103987 12306
L103987 11706
L104330 12306
L104330 11706
" />
<path d="M104930 11735
L104872 11706
L104787 11706
L104701 11735
L104644 11792
L104615 11849
L104587 11963
L104587 12049
L104615 12163
L104644 12220
L104701 12277
L104787 12306
L104844 12306
L104930 12277
L104958 12249
L104958 12049
L104844 12049
" />
<path d="M105672 12306
L105672 11706
" />
<path d="M105672 11992
L106015 11992
" />
<path d="M106015 12306
L106015 11706
" />
<path d="M106415 11706
L106530 11706
L106587 11735
L106644 11792
L106672 11906
L106672 12106
L106644 12220
L106587 12277
L106530 12306
L106415 12306
L106358 12277
L106301 12220
L106272 12106
L106272 11906
L106301 11792
L106358 11735
L106415 11706
" />
<path d="M107215 12306
L106930 12306
L106930 11706
" />
<path d="M107415 11992
L107615 11992
" />
<path d="M107701 12306
L107415 12306
L107415 11706
L107701 11706
" />
<path d="M107930 12277
L108015 12306
L108158 12306
L108215 12277
L108244 12249
L108272 12192
L108272 12135
L108244 12077
L108215 12049
L108158 12020
L108044 11992
L107987 11963
L107958 11935
L107930 11877
L107930 11820
L107958 11763
L107987 11735
L108044 11706
L108187 11706
L108272 11735
" />
</g></g>
<g style="fill:#0000C2; fill-opacity:0.0; 
stroke:#0000C2; stroke-width:60.000000; stroke-opacity:1; 
stroke-linecap:round; stroke-linejoin:round;stroke-dasharray:300.000000,300.000000;">
<path d="M100000 8500
L109000 8500
" />
</g>
<g style="fill:#0000C2; fill-opacity:0.0; 
stroke:#0000C2; stroke-width:60.000000; stroke-opacity:1; 
stroke-linecap:round; stroke-linejoin:round;">
</g>
<g style="fill:#0000C2; fill-opacity:0.0; 
stroke:#0000C2; stroke-width:60.000000; stroke-opacity:1; 
stroke-linecap:round; stroke-linejoin:round;stroke-dasharray:300.000000,300.000000;">
<path d="M109000 8500
L109000 12500
" />
</g>
<g style="fill:#0000C2; fill-opacity:0.0; 
stroke:#0000C2; stroke-width:60.000000; stroke-opacity:1; 
stroke-linecap:round; stroke-linejoin:round;">
</g>
<g style="fill:#0000C2; fill-opacity:0.0; 
stroke:#0000C2; stroke-width:60.000000; stroke-opacity:1; 
stroke-linecap:round; stroke-linejoin:round;stroke-dasharray:300.000000,300.000000;">
<path d="M100000 8500
L100000 12500
" />
</g>
<g style="fill:#0000C2; fill-opacity:0.0; 
stroke:#0000C2; stroke-width:60.000000; stroke-opacity:1; 
stroke-linecap:round; stroke-linejoin:round;">
</g>
<g style="fill:#0000C2; fill-opacity:0.0; 
stroke:#0000C2; stroke-width:60.000000; stroke-opacity:1; 
stroke-linecap:round; stroke-linejoin:round;stroke-dasharray:300.000000,300.000000;">
<path d="M100000 12500
L109000 12500
" />
</g>
<g style="fill:#0000C2; fill-opacity:0.0; 
stroke:#0000C2; stroke-width:60.000000; stroke-opacity:1; 
stroke-linecap:round; stroke-linejoin:round;">
</g>
<g style="fill:#009600; fill-opacity:0.0; 
stroke:#009600; stroke-width:60.000000; stroke-opacity:1; 
stroke-linecap:round; stroke-linejoin:round;">
<path d="M101500 9000
L103500 9000
" />
<path d="M103500 9500
L103500 9000
" />
<path d="M46000 40000
L57500 40000
" />
<path d="M46000 38000
L46000 40000
" />
<path d="M101500 9500
L101500 9000
" />
<path d="M57500 39000
L56500 39000
" />
<path d="M56500 39000
L56500 41500
" />
<path d="M103500 9000
L107500 9000
" />
<path d="M107500 9500
L107500 9000
" />
<path d="M51000 38000
L57500 38000
" />
</g>
<g style="fill:#009600; fill-opacity:1.0; 
stroke:#009600; stroke-width:60.000000; stroke-opacity:1; 
stroke-linecap:round; stroke-linejoin:round;">
<circle cx="103500.000000" cy="9000.000000" r="180.000000" /> 
</g> 
</svg>
