<?xml version='1.0' encoding='ASCII' standalone='yes'?>
<svg xmlns:svg="http://www.w3.org/2000/svg" xmlns="http://www.w3.org/2000/svg" xmlns:xlink="http://www.w3.org/1999/xlink" version="1.1" width="29.700220cm" height="21.000720cm" viewBox="0 0 2970022 2100072">
<title>SVG Picture created as PINHOLDER01-B_Fab.svg date 2023/04/12 09:04:50 </title>
  <desc>Picture generated by PCBNEW </desc>
<g style="fill:#000084; fill-opacity:1.000000;stroke:#000084; stroke-opacity:1.000000; stroke-linecap:round; stroke-linejoin:round;" transform="translate(0 0) scale(1 1)">
</g>
<g style="fill:#000084; fill-opacity:0.0;  stroke:#000084; stroke-width:0.000000; stroke-opacity:1;  stroke-linecap:round; stroke-linejoin:round;">
</g>
<g style="fill:#000084; fill-opacity:0.01;  stroke:#000084; stroke-width:6237.623762; stroke-opacity:1;  stroke-linecap:round; stroke-linejoin:round;">
<g transform="rotate(-90.000000 1249453.841584 684511.259406)">
<text x="1249453.841584" y="705303.338614" transform="scale(-1 1) translate(-2498907.683168 0)" textLength="421782.130693" font-size="55445.530693" lengthAdjust="spacingAndGlyphs" text-anchor="middle" opacity="0.01" style="font-family:monospace">HEADER_1x03</text>
</g>
<g class="stroked-text"><desc>HEADER_1x03</desc>
<path d="M1268265 483521 L1226681 483521 "/>
<path d="M1246483 483521 L1246483 507283 "/>
<path d="M1268265 507283 L1226681 507283 "/>
<path d="M1246483 527085 L1246483 540946 "/>
<path d="M1268265 546887 L1268265 527085 L1226681 527085 L1226681 546887 "/>
<path d="M1256384 562729 L1256384 582531 "/>
<path d="M1268265 558768 L1226681 572630 L1268265 586491 "/>
<path d="M1268265 600352 L1226681 600352 L1226681 610253 L1228661 616194 L1232622 620154 L1236582 622135 L1244503 624115 L1250443 624115 L1258364 622135 L1262325 620154 L1266285 616194 L1268265 610253 L1268265 600352 "/>
<path d="M1246483 641936 L1246483 655798 "/>
<path d="M1268265 661738 L1268265 641936 L1226681 641936 L1226681 661738 "/>
<path d="M1268265 703323 L1248463 689461 "/>
<path d="M1268265 679560 L1226681 679560 L1226681 695402 L1228661 699362 L1230641 701342 L1234602 703323 L1240542 703323 L1244503 701342 L1246483 699362 L1248463 695402 L1248463 679560 "/>
<path d="M1272226 711243 L1272226 742927 "/>
<path d="M1268265 774610 L1268265 750847 "/>
<path d="M1268265 762729 L1226681 762729 L1232622 758768 L1236582 754808 L1238562 750847 "/>
<path d="M1268265 788471 L1240542 810253 "/>
<path d="M1240542 788471 L1268265 810253 "/>
<path d="M1226681 834016 L1226681 837976 L1228661 841936 L1230641 843917 L1234602 845897 L1242523 847877 L1252424 847877 L1260344 845897 L1264305 843917 L1266285 841936 L1268265 837976 L1268265 834016 L1266285 830055 L1264305 828075 L1260344 826095 L1252424 824115 L1242523 824115 L1234602 826095 L1230641 828075 L1228661 830055 L1226681 834016 "/>
<path d="M1226681 861738 L1226681 887481 L1242523 873620 L1242523 879560 L1244503 883521 L1246483 885501 L1250443 887481 L1260344 887481 L1264305 885501 L1266285 883521 L1268265 879560 L1268265 867679 L1266285 863719 L1264305 861738 "/>
</g><text x="1451968.693069" y="705303.338614" transform="scale(-1 1) translate(-2903937.386139 0)" textLength="63178.229703" font-size="55445.530693" lengthAdjust="spacingAndGlyphs" text-anchor="middle" opacity="0.01" style="font-family:monospace">J1</text>
<g class="stroked-text"><desc>J1</desc>
<path d="M1465830 661738 L1465830 691441 L1467810 697382 L1471770 701342 L1477711 703323 L1481671 703323 "/>
<path d="M1424245 703323 L1448008 703323 "/>
<path d="M1436127 703323 L1436127 661738 L1440087 667679 L1444047 671639 L1448008 673620 "/>
</g></g>
<g style="fill:#000084; fill-opacity:0.0;  stroke:#000084; stroke-width:4158.415842; stroke-opacity:1;  stroke-linecap:round; stroke-linejoin:round;">
<path d="M1570899 737323 L1610404 697818 "/>
<path d="M1610404 697818 L1610404 631699 "/>
<path d="M1333038 790135 L1333038 737323 "/>
<path d="M1570899 737323 L1570899 790135 "/>
<path d="M1293533 631699 L1293533 737323 "/>
<path d="M1359651 737323 L1359651 790135 "/>
<path d="M1610404 631699 L1293533 631699 "/>
<path d="M1359651 790135 L1333038 790135 "/>
<path d="M1465275 578887 L1438661 578887 "/>
<path d="M1293533 737323 L1570899 737323 "/>
<path d="M1570899 790135 L1544285 790135 "/>
<path d="M1465275 631699 L1465275 578887 "/>
<path d="M1544285 790135 L1544285 737323 "/>
<path d="M1438661 578887 L1438661 631699 "/>
<g>
</g>
<g>
</g>
<g>
</g>
<g>
</g>
<g>
</g>
<g>
</g>
<g>
</g>
<g>
</g>
</g> 
<svg:g><svg:g><svg:title>SVG Picture created as PINHOLDER01-Edge_Cuts.svg date 2023/04/12 09:04:50 </svg:title>
  <svg:desc>Picture generated by PCBNEW </svg:desc>
<svg:g style="fill:#C2C200; fill-opacity:1.000000;stroke:#C2C200; stroke-opacity:1.000000; stroke-linecap:round; stroke-linejoin:round;" transform="translate(0 0) scale(1 1)">
</svg:g>
<svg:g style="fill:#C2C200; fill-opacity:0.0;  stroke:#C2C200; stroke-width:0.000000; stroke-opacity:1;  stroke-linecap:round; stroke-linejoin:round;">
</svg:g>
<svg:g style="fill:#C2C200; fill-opacity:0.0;  stroke:#C2C200; stroke-width:8316.831683; stroke-opacity:1;  stroke-linecap:round; stroke-linejoin:round;">
<svg:path d="M2044127 2095877 L2044127 4194 "/>
<svg:path d="M925894 2095758 L925894 4408 "/>
<svg:path d="M925894 2095758 L2044127 2095877 "/>
<svg:path d="M925894 4408 L2044127 4194 "/>
<svg:g>
</svg:g>
<svg:g>
</svg:g>
<svg:g>
</svg:g>
<svg:g>
</svg:g>
<svg:g>
</svg:g>
<svg:g>
</svg:g>
<svg:g>
</svg:g>
<svg:g>
</svg:g>
</svg:g> 
</svg:g></svg:g></svg>
