<?xml version='1.0' encoding='ASCII' standalone='yes'?>
<svg xmlns:svg="http://www.w3.org/2000/svg" xmlns="http://www.w3.org/2000/svg" xmlns:xlink="http://www.w3.org/1999/xlink" version="1.1" width="29.700220cm" height="21.000720cm" viewBox="0 0 2970022 2100072">
<title>SVG Picture created as PINHOLDER03-B_Fab.svg date 2023/07/05 12:20:39 </title>
  <desc>Picture generated by PCBNEW </desc>
<g style="fill:#000084; fill-opacity:1.000000;stroke:#000084; stroke-opacity:1.000000; stroke-linecap:round; stroke-linejoin:round;" transform="translate(0 0) scale(1 1)">
</g>
<g style="fill:#000084; fill-opacity:0.0;  stroke:#000084; stroke-width:0.000000; stroke-opacity:1;  stroke-linecap:round; stroke-linejoin:round;">
</g>
<g style="fill:#000084; fill-opacity:0.0;  stroke:#000084; stroke-width:8840.688998; stroke-opacity:1;  stroke-linecap:round; stroke-linejoin:round;">
<g transform="rotate(-90.000000 731784.318741 794245.377838)">
<text x="731784.318741" y="823714.341165" transform="scale(-1 1) translate(-1463568.637482 0)" textLength="404145.732259" font-size="78583.882561" lengthAdjust="spacingAndGlyphs" text-anchor="middle" opacity="0.01" style="font-family:monospace">TestPoint</text>
</g>
<g class="stroked-text"><desc>TestPoint</desc>
<path d="M699508 597785 L699508 631464 "/>
<path d="M758446 614624 L699508 614624 "/>
<path d="M755640 673562 L758446 667949 L758446 656723 L755640 651110 L750026 648303 L727574 648303 L721961 651110 L719154 656723 L719154 667949 L721961 673562 L727574 676369 L733187 676369 L738800 648303 "/>
<path d="M755640 698822 L758446 704435 L758446 715661 L755640 721274 L750026 724081 L747220 724081 L741607 721274 L738800 715661 L738800 707241 L735994 701628 L730381 698822 L727574 698822 L721961 701628 L719154 707241 L719154 715661 L721961 721274 "/>
<path d="M719154 740920 L719154 763373 "/>
<path d="M699508 749340 L750026 749340 L755640 752146 L758446 757759 L758446 763373 "/>
<path d="M758446 783019 L699508 783019 L699508 805471 L702315 811084 L705121 813891 L710735 816697 L719154 816697 L724767 813891 L727574 811084 L730381 805471 L730381 783019 "/>
<path d="M758446 850376 L755640 844763 L752833 841956 L747220 839150 L730381 839150 L724767 841956 L721961 844763 L719154 850376 L719154 858796 L721961 864409 L724767 867216 L730381 870022 L747220 870022 L752833 867216 L755640 864409 L758446 858796 L758446 850376 "/>
<path d="M758446 895281 L719154 895281 "/>
<path d="M699508 895281 L702315 892475 L705121 895281 L702315 898088 L699508 895281 L705121 895281 "/>
<path d="M719154 923347 L758446 923347 "/>
<path d="M724767 923347 L721961 926154 L719154 931767 L719154 940186 L721961 945800 L727574 948606 L758446 948606 "/>
<path d="M719154 968252 L719154 990705 "/>
<path d="M699508 976672 L750026 976672 L755640 979478 L758446 985091 L758446 990705 "/>
</g></g>
<g style="fill:#000084; fill-opacity:0.0;  stroke:#000084; stroke-width:7956.620098; stroke-opacity:1;  stroke-linecap:round; stroke-linejoin:round;">
<g transform="rotate(-90.000000 599173.983767 794245.377838)">
<text x="599173.983767" y="820767.444833" transform="scale(-1 1) translate(-1198347.967535 0)" textLength="132484.030997" font-size="70725.511986" lengthAdjust="spacingAndGlyphs" text-anchor="middle" opacity="0.01" style="font-family:monospace">TP4</text>
</g>
<g class="stroked-text"><desc>TP4</desc>
<path d="M570125 727308 L570125 757619 "/>
<path d="M623170 742464 L570125 742464 "/>
<path d="M623170 775301 L570125 775301 L570125 795508 L572651 800560 L575177 803086 L580229 805611 L587807 805611 L592859 803086 L595385 800560 L597911 795508 L597911 775301 "/>
<path d="M587807 851078 L623170 851078 "/>
<path d="M567600 838448 L605488 825819 L605488 858656 "/>
</g></g>
<g style="fill:#000084; fill-opacity:0.01;  stroke:#000084; stroke-width:8840.688998; stroke-opacity:1;  stroke-linecap:round; stroke-linejoin:round;">
<text x="1365367.030283" y="876758.475155" transform="scale(-1 1) translate(-2730734.060565 0)" textLength="149630.783061" font-size="78583.882561" lengthAdjust="spacingAndGlyphs" text-anchor="middle" opacity="0.01" style="font-family:monospace">TP1</text>
<g class="stroked-text"><desc>TP1</desc>
<path d="M1439741 815013 L1406062 815013 "/>
<path d="M1422901 873951 L1422901 815013 "/>
<path d="M1386416 873951 L1386416 815013 L1363963 815013 L1358350 817820 L1355544 820627 L1352737 826240 L1352737 834659 L1355544 840273 L1358350 843079 L1363963 845886 L1386416 845886 "/>
<path d="M1296606 873951 L1330284 873951 "/>
<path d="M1313445 873951 L1313445 815013 L1319058 823433 L1324671 829046 L1330284 831853 "/>
</g></g>
<g style="fill:#000084; fill-opacity:0.0;  stroke:#000084; stroke-width:7956.620098; stroke-opacity:1;  stroke-linecap:round; stroke-linejoin:round;">
<g transform="rotate(-90.000000 596227.087435 1307005.339736)">
<text x="596227.087435" y="1333527.406731" transform="scale(-1 1) translate(-1192454.174869 0)" textLength="132484.030997" font-size="70725.511986" lengthAdjust="spacingAndGlyphs" text-anchor="middle" opacity="0.01" style="font-family:monospace">TP2</text>
</g>
<g class="stroked-text"><desc>TP2</desc>
<path d="M567179 1240068 L567179 1270379 "/>
<path d="M620223 1255224 L567179 1255224 "/>
<path d="M620223 1288060 L567179 1288060 L567179 1308268 L569705 1313320 L572230 1315846 L577282 1318371 L584860 1318371 L589912 1315846 L592438 1313320 L594964 1308268 L594964 1288060 "/>
<path d="M572230 1338579 L569705 1341105 L567179 1346156 L567179 1358786 L569705 1363838 L572230 1366364 L577282 1368890 L582334 1368890 L589912 1366364 L620223 1336053 L620223 1368890 "/>
</g></g>
<g style="fill:#000084; fill-opacity:0.0;  stroke:#000084; stroke-width:8840.688998; stroke-opacity:1;  stroke-linecap:round; stroke-linejoin:round;">
<path d="M540236 867917 L540236 720572 "/>
<path d="M569705 682263 L569705 906227 "/>
<path d="M628642 906227 L628642 682263 "/>
<path d="M540236 720572 L569705 720572 "/>
<path d="M540236 794245 L569705 794245 "/>
<path d="M658111 867917 L628642 867917 "/>
<path d="M628642 906227 L569705 906227 "/>
<path d="M569705 867917 L540236 867917 "/>
<path d="M658111 720572 L658111 867917 "/>
<path d="M628642 720572 L658111 720572 "/>
<path d="M569705 720572 L569705 691104 "/>
<path d="M569705 682263 L628642 682263 "/>
<path d="M569705 897386 L569705 867917 "/>
<path d="M628642 867917 L628642 897386 "/>
<path d="M628642 794245 L658111 794245 "/>
<path d="M628642 691104 L628642 720572 "/>
<path d="M566758 1380677 L537289 1380677 "/>
<path d="M537289 1380677 L537289 1233332 "/>
<path d="M625696 1233332 L655165 1233332 "/>
<path d="M655165 1233332 L655165 1380677 "/>
<path d="M625696 1380677 L625696 1410146 "/>
<path d="M566758 1195023 L566758 1418987 "/>
<path d="M537289 1233332 L566758 1233332 "/>
<path d="M625696 1203863 L625696 1233332 "/>
<path d="M566758 1410146 L566758 1380677 "/>
<path d="M655165 1380677 L625696 1380677 "/>
<path d="M625696 1418987 L625696 1195023 "/>
<path d="M655165 1307005 L625696 1307005 "/>
<path d="M625696 1418987 L566758 1418987 "/>
<path d="M566758 1195023 L625696 1195023 "/>
<path d="M566758 1233332 L566758 1203863 "/>
<path d="M566758 1307005 L537289 1307005 "/>
<g>
</g>
<g>
</g>
<g>
</g>
<g>
</g>
<g>
</g>
<g>
</g>
<g>
</g>
<g>
</g>
<g>
</g>
<g>
</g>
<g>
</g>
<g>
</g>
</g> 
<svg:g><svg:g><svg:title>SVG Picture created as PINHOLDER03-Edge_Cuts.svg date 2023/07/05 12:20:39 </svg:title>
  <svg:desc>Picture generated by PCBNEW </svg:desc>
<svg:g style="fill:#C2C200; fill-opacity:1.000000;stroke:#C2C200; stroke-opacity:1.000000; stroke-linecap:round; stroke-linejoin:round;" transform="translate(0 0) scale(1 1)">
</svg:g>
<svg:g style="fill:#C2C200; fill-opacity:0.0;  stroke:#C2C200; stroke-width:0.000000; stroke-opacity:1;  stroke-linecap:round; stroke-linejoin:round;">
</svg:g>
<svg:g style="fill:#C2C200; fill-opacity:0.0;  stroke:#C2C200; stroke-width:5893.792666; stroke-opacity:1;  stroke-linecap:round; stroke-linejoin:round;">
<svg:path d="M2957 1933279 L2967064 1933279 "/>
<svg:path d="M2957 166792 L2967064 166792 "/>
<svg:path d="M2967064 166792 L2967064 1933279 "/>
<svg:path d="M2957 1933279 L2957 166792 "/>
<svg:g>
</svg:g>
<svg:g>
</svg:g>
<svg:g>
</svg:g>
<svg:g>
</svg:g>
<svg:g>
</svg:g>
<svg:g>
</svg:g>
<svg:g>
</svg:g>
<svg:g>
</svg:g>
<svg:g>
</svg:g>
<svg:g>
</svg:g>
<svg:g>
</svg:g>
<svg:g>
</svg:g>
</svg:g> 
</svg:g></svg:g></svg>
