<?xml version='1.0' encoding='ASCII' standalone='yes'?>
<svg xmlns:svg="http://www.w3.org/2000/svg" xmlns="http://www.w3.org/2000/svg" xmlns:xlink="http://www.w3.org/1999/xlink" version="1.1" width="297.0022mm" height="210.0072mm" viewBox="0.0000 0.0000 297.0022 210.0072">
<title>SVG Image created as PINHOLDER03-B_Fab.svg date 2023/07/05 15:13:40 </title>
  <desc>Image generated by PCBNEW </desc>
<g style="fill:#000084; fill-opacity:1.0000;stroke:#000084; stroke-opacity:1.0000; stroke-linecap:round; stroke-linejoin:round;" transform="translate(0 0) scale(1 1)">
</g>
<g style="fill:#000084; fill-opacity:0.0;  stroke:#000084; stroke-width:0.0000; stroke-opacity:1;  stroke-linecap:round; stroke-linejoin:round;">
</g>
<g style="fill:#000084; fill-opacity:0.0;  stroke:#000084; stroke-width:0.8841; stroke-opacity:1;  stroke-linecap:round; stroke-linejoin:round;">
<g transform="rotate(-90.000000 73.1784 79.4245)">
<text x="73.1784" y="82.3714" transform="scale(-1 1) translate(-146.356864 0)" textLength="41.4460" font-size="7.8584" lengthAdjust="spacingAndGlyphs" text-anchor="middle" opacity="0.01" style="font-family:monospace">TestPoint</text>
</g>
<g class="stroked-text"><desc>TestPoint</desc>
<path d="M69.9652 59.7786 L69.9652 63.1464 "/>
<path d="M75.8590 61.4625 L69.9652 61.4625 "/>
<path d="M75.5784 67.3563 L75.8590 66.7950 "/>
<path d="M75.8590 66.7950 L75.8590 65.6724 "/>
<path d="M75.8590 65.6724 L75.5784 65.1110 "/>
<path d="M75.5784 65.1110 L75.0171 64.8304 "/>
<path d="M75.0171 64.8304 L72.7718 64.8304 "/>
<path d="M72.7718 64.8304 L72.2105 65.1110 "/>
<path d="M72.2105 65.1110 L71.9298 65.6724 "/>
<path d="M71.9298 65.6724 L71.9298 66.7950 "/>
<path d="M71.9298 66.7950 L72.2105 67.3563 "/>
<path d="M72.2105 67.3563 L72.7718 67.6369 "/>
<path d="M72.7718 67.6369 L73.3331 67.6369 "/>
<path d="M73.3331 67.6369 L73.8944 64.8304 "/>
<path d="M75.5784 69.8822 L75.8590 70.4435 "/>
<path d="M75.8590 70.4435 L75.8590 71.5661 "/>
<path d="M75.8590 71.5661 L75.5784 72.1275 "/>
<path d="M75.5784 72.1275 L75.0171 72.4081 "/>
<path d="M75.0171 72.4081 L74.7364 72.4081 "/>
<path d="M74.7364 72.4081 L74.1751 72.1275 "/>
<path d="M74.1751 72.1275 L73.8944 71.5661 "/>
<path d="M73.8944 71.5661 L73.8944 70.7242 "/>
<path d="M73.8944 70.7242 L73.6138 70.1629 "/>
<path d="M73.6138 70.1629 L73.0525 69.8822 "/>
<path d="M73.0525 69.8822 L72.7718 69.8822 "/>
<path d="M72.7718 69.8822 L72.2105 70.1629 "/>
<path d="M72.2105 70.1629 L71.9298 70.7242 "/>
<path d="M71.9298 70.7242 L71.9298 71.5661 "/>
<path d="M71.9298 71.5661 L72.2105 72.1275 "/>
<path d="M71.9298 74.0921 L71.9298 76.3373 "/>
<path d="M69.9652 74.9340 L75.0171 74.9340 "/>
<path d="M75.0171 74.9340 L75.5784 75.2147 "/>
<path d="M75.5784 75.2147 L75.8590 75.7760 "/>
<path d="M75.8590 75.7760 L75.8590 76.3373 "/>
<path d="M75.8590 78.3019 L69.9652 78.3019 "/>
<path d="M69.9652 78.3019 L69.9652 80.5472 "/>
<path d="M69.9652 80.5472 L70.2459 81.1085 "/>
<path d="M70.2459 81.1085 L70.5266 81.3891 "/>
<path d="M70.5266 81.3891 L71.0879 81.6698 "/>
<path d="M71.0879 81.6698 L71.9298 81.6698 "/>
<path d="M71.9298 81.6698 L72.4912 81.3891 "/>
<path d="M72.4912 81.3891 L72.7718 81.1085 "/>
<path d="M72.7718 81.1085 L73.0525 80.5472 "/>
<path d="M73.0525 80.5472 L73.0525 78.3019 "/>
<path d="M75.8590 85.0377 L75.5784 84.4764 "/>
<path d="M75.5784 84.4764 L75.2977 84.1957 "/>
<path d="M75.2977 84.1957 L74.7364 83.9150 "/>
<path d="M74.7364 83.9150 L73.0525 83.9150 "/>
<path d="M73.0525 83.9150 L72.4912 84.1957 "/>
<path d="M72.4912 84.1957 L72.2105 84.4764 "/>
<path d="M72.2105 84.4764 L71.9298 85.0377 "/>
<path d="M71.9298 85.0377 L71.9298 85.8796 "/>
<path d="M71.9298 85.8796 L72.2105 86.4410 "/>
<path d="M72.2105 86.4410 L72.4912 86.7216 "/>
<path d="M72.4912 86.7216 L73.0525 87.0023 "/>
<path d="M73.0525 87.0023 L74.7364 87.0023 "/>
<path d="M74.7364 87.0023 L75.2977 86.7216 "/>
<path d="M75.2977 86.7216 L75.5784 86.4410 "/>
<path d="M75.5784 86.4410 L75.8590 85.8796 "/>
<path d="M75.8590 85.8796 L75.8590 85.0377 "/>
<path d="M75.8590 89.5282 L71.9298 89.5282 "/>
<path d="M69.9652 89.5282 L70.2459 89.2475 "/>
<path d="M70.2459 89.2475 L70.5266 89.5282 "/>
<path d="M70.5266 89.5282 L70.2459 89.8088 "/>
<path d="M70.2459 89.8088 L69.9652 89.5282 "/>
<path d="M69.9652 89.5282 L70.5266 89.5282 "/>
<path d="M71.9298 92.3347 L75.8590 92.3347 "/>
<path d="M72.4912 92.3347 L72.2105 92.6154 "/>
<path d="M72.2105 92.6154 L71.9298 93.1767 "/>
<path d="M71.9298 93.1767 L71.9298 94.0187 "/>
<path d="M71.9298 94.0187 L72.2105 94.5800 "/>
<path d="M72.2105 94.5800 L72.7718 94.8607 "/>
<path d="M72.7718 94.8607 L75.8590 94.8607 "/>
<path d="M71.9298 96.8253 L71.9298 99.0705 "/>
<path d="M69.9652 97.6672 L75.0171 97.6672 "/>
<path d="M75.0171 97.6672 L75.5784 97.9479 "/>
<path d="M75.5784 97.9479 L75.8590 98.5092 "/>
<path d="M75.8590 98.5092 L75.8590 99.0705 "/>
</g></g>
<g style="fill:#000084; fill-opacity:0.0;  stroke:#000084; stroke-width:0.7957; stroke-opacity:1;  stroke-linecap:round; stroke-linejoin:round;">
<g transform="rotate(-90.000000 59.9174 79.4245)">
<text x="59.9174" y="82.0767" transform="scale(-1 1) translate(-119.834797 0)" textLength="15.3260" font-size="7.0726" lengthAdjust="spacingAndGlyphs" text-anchor="middle" opacity="0.01" style="font-family:monospace">TP4</text>
</g>
<g class="stroked-text"><desc>TP4</desc>
<path d="M57.0255 72.7309 L57.0255 75.7620 "/>
<path d="M62.3299 74.2464 L57.0255 74.2464 "/>
<path d="M62.3299 77.5301 L57.0255 77.5301 "/>
<path d="M57.0255 77.5301 L57.0255 79.5508 "/>
<path d="M57.0255 79.5508 L57.2781 80.0560 "/>
<path d="M57.2781 80.0560 L57.5307 80.3086 "/>
<path d="M57.5307 80.3086 L58.0359 80.5612 "/>
<path d="M58.0359 80.5612 L58.7937 80.5612 "/>
<path d="M58.7937 80.5612 L59.2989 80.3086 "/>
<path d="M59.2989 80.3086 L59.5514 80.0560 "/>
<path d="M59.5514 80.0560 L59.8040 79.5508 "/>
<path d="M59.8040 79.5508 L59.8040 77.5301 "/>
<path d="M58.7937 85.1078 L62.3299 85.1078 "/>
<path d="M56.7729 83.8449 L60.5618 82.5819 "/>
<path d="M60.5618 82.5819 L60.5618 85.8656 "/>
</g></g>
<g style="fill:#000084; fill-opacity:0.01;  stroke:#000084; stroke-width:0.8841; stroke-opacity:1;  stroke-linecap:round; stroke-linejoin:round;">
<text x="136.5367" y="87.6758" transform="scale(-1 1) translate(-273.073406 0)" textLength="17.0289" font-size="7.8584" lengthAdjust="spacingAndGlyphs" text-anchor="middle" opacity="0.01" style="font-family:monospace">TP1</text>
<g class="stroked-text"><desc>TP1</desc>
<path d="M143.9741 81.5158 L140.6062 81.5158 "/>
<path d="M142.2902 87.4096 L142.2902 81.5158 "/>
<path d="M138.6416 87.4096 L138.6416 81.5158 "/>
<path d="M138.6416 81.5158 L136.3964 81.5158 "/>
<path d="M136.3964 81.5158 L135.8351 81.7964 "/>
<path d="M135.8351 81.7964 L135.5544 82.0771 "/>
<path d="M135.5544 82.0771 L135.2737 82.6384 "/>
<path d="M135.2737 82.6384 L135.2737 83.4804 "/>
<path d="M135.2737 83.4804 L135.5544 84.0417 "/>
<path d="M135.5544 84.0417 L135.8351 84.3223 "/>
<path d="M135.8351 84.3223 L136.3964 84.6030 "/>
<path d="M136.3964 84.6030 L138.6416 84.6030 "/>
<path d="M129.6606 87.4096 L133.0285 87.4096 "/>
<path d="M131.3445 87.4096 L131.3445 81.5158 "/>
<path d="M131.3445 81.5158 L131.9059 82.3577 "/>
<path d="M131.9059 82.3577 L132.4672 82.9190 "/>
<path d="M132.4672 82.9190 L133.0285 83.1997 "/>
</g></g>
<g style="fill:#000084; fill-opacity:0.0;  stroke:#000084; stroke-width:0.7957; stroke-opacity:1;  stroke-linecap:round; stroke-linejoin:round;">
<g transform="rotate(-90.000000 59.6227 130.7005)">
<text x="59.6227" y="133.3527" transform="scale(-1 1) translate(-119.245417 0)" textLength="15.3260" font-size="7.0726" lengthAdjust="spacingAndGlyphs" text-anchor="middle" opacity="0.01" style="font-family:monospace">TP2</text>
</g>
<g class="stroked-text"><desc>TP2</desc>
<path d="M56.7308 124.0069 L56.7308 127.0380 "/>
<path d="M62.0353 125.5224 L56.7308 125.5224 "/>
<path d="M62.0353 128.8061 L56.7308 128.8061 "/>
<path d="M56.7308 128.8061 L56.7308 130.8268 "/>
<path d="M56.7308 130.8268 L56.9834 131.3320 "/>
<path d="M56.9834 131.3320 L57.2360 131.5846 "/>
<path d="M57.2360 131.5846 L57.7412 131.8372 "/>
<path d="M57.7412 131.8372 L58.4990 131.8372 "/>
<path d="M58.4990 131.8372 L59.0042 131.5846 "/>
<path d="M59.0042 131.5846 L59.2568 131.3320 "/>
<path d="M59.2568 131.3320 L59.5093 130.8268 "/>
<path d="M59.5093 130.8268 L59.5093 128.8061 "/>
<path d="M57.2360 133.8579 L56.9834 134.1105 "/>
<path d="M56.9834 134.1105 L56.7308 134.6157 "/>
<path d="M56.7308 134.6157 L56.7308 135.8786 "/>
<path d="M56.7308 135.8786 L56.9834 136.3838 "/>
<path d="M56.9834 136.3838 L57.2360 136.6364 "/>
<path d="M57.2360 136.6364 L57.7412 136.8890 "/>
<path d="M57.7412 136.8890 L58.2464 136.8890 "/>
<path d="M58.2464 136.8890 L59.0042 136.6364 "/>
<path d="M59.0042 136.6364 L62.0353 133.6053 "/>
<path d="M62.0353 133.6053 L62.0353 136.8890 "/>
</g></g>
<g style="fill:#000084; fill-opacity:0.0;  stroke:#000084; stroke-width:0.8841; stroke-opacity:1;  stroke-linecap:round; stroke-linejoin:round;">
<path d="M54.0236 86.7918 L54.0236 72.0573 "/>
<path d="M56.9705 68.2263 L56.9705 90.6227 "/>
<path d="M62.8643 90.6227 L62.8643 68.2263 "/>
<path d="M54.0236 72.0573 L56.9705 72.0573 "/>
<path d="M54.0236 79.4245 L56.9705 79.4245 "/>
<path d="M65.8112 86.7918 L62.8643 86.7918 "/>
<path d="M62.8643 90.6227 L56.9705 90.6227 "/>
<path d="M56.9705 86.7918 L54.0236 86.7918 "/>
<path d="M65.8112 72.0573 L65.8112 86.7918 "/>
<path d="M62.8643 72.0573 L65.8112 72.0573 "/>
<path d="M56.9705 72.0573 L56.9705 69.1104 "/>
<path d="M56.9705 68.2263 L62.8643 68.2263 "/>
<path d="M56.9705 89.7387 L56.9705 86.7918 "/>
<path d="M62.8643 86.7918 L62.8643 89.7387 "/>
<path d="M62.8643 79.4245 L65.8112 79.4245 "/>
<path d="M62.8643 69.1104 L62.8643 72.0573 "/>
<path d="M56.6758 138.0678 L53.7289 138.0678 "/>
<path d="M53.7289 138.0678 L53.7289 123.3333 "/>
<path d="M62.5696 123.3333 L65.5165 123.3333 "/>
<path d="M65.5165 123.3333 L65.5165 138.0678 "/>
<path d="M62.5696 138.0678 L62.5696 141.0147 "/>
<path d="M56.6758 119.5023 L56.6758 141.8987 "/>
<path d="M53.7289 123.3333 L56.6758 123.3333 "/>
<path d="M62.5696 120.3864 L62.5696 123.3333 "/>
<path d="M56.6758 141.0147 L56.6758 138.0678 "/>
<path d="M65.5165 138.0678 L62.5696 138.0678 "/>
<path d="M62.5696 141.8987 L62.5696 119.5023 "/>
<path d="M65.5165 130.7005 L62.5696 130.7005 "/>
<path d="M62.5696 141.8987 L56.6758 141.8987 "/>
<path d="M56.6758 119.5023 L62.5696 119.5023 "/>
<path d="M56.6758 123.3333 L56.6758 120.3864 "/>
<path d="M56.6758 130.7005 L53.7289 130.7005 "/>
<g>
</g>
<g>
</g>
<g>
</g>
<g>
</g>
<g>
</g>
<g>
</g>
<g>
</g>
<g>
</g>
<g>
</g>
<g>
</g>
<g>
</g>
<g>
</g>
</g> 
<svg:g><svg:g><svg:title>SVG Image created as PINHOLDER03-Edge_Cuts.svg date 2023/07/05 15:13:40 </svg:title>
  <svg:desc>Image generated by PCBNEW </svg:desc>
<svg:g style="fill:#C2C200; fill-opacity:1.0000;stroke:#C2C200; stroke-opacity:1.0000; stroke-linecap:round; stroke-linejoin:round;" transform="translate(0 0) scale(1 1)">
</svg:g>
<svg:g style="fill:#C2C200; fill-opacity:0.0;  stroke:#C2C200; stroke-width:0.0000; stroke-opacity:1;  stroke-linecap:round; stroke-linejoin:round;">
</svg:g>
<svg:g style="fill:#C2C200; fill-opacity:0.0;  stroke:#C2C200; stroke-width:0.5894; stroke-opacity:1;  stroke-linecap:round; stroke-linejoin:round;">
<svg:path d="M0.2958 193.3280 L296.7064 193.3280 "/>
<svg:path d="M0.2958 16.6792 L296.7064 16.6792 "/>
<svg:path d="M296.7064 16.6792 L296.7064 193.3280 "/>
<svg:path d="M0.2958 193.3280 L0.2958 16.6792 "/>
<svg:g>
</svg:g>
<svg:g>
</svg:g>
<svg:g>
</svg:g>
<svg:g>
</svg:g>
<svg:g>
</svg:g>
<svg:g>
</svg:g>
<svg:g>
</svg:g>
<svg:g>
</svg:g>
<svg:g>
</svg:g>
<svg:g>
</svg:g>
<svg:g>
</svg:g>
<svg:g>
</svg:g>
</svg:g> 
</svg:g></svg:g></svg>
