<?xml version='1.0' encoding='ASCII' standalone='yes'?>
<svg xmlns:svg="http://www.w3.org/2000/svg" xmlns="http://www.w3.org/2000/svg" xmlns:xlink="http://www.w3.org/1999/xlink" version="1.1" width="29.700220cm" height="21.000720cm" viewBox="0 0 2970022 2100072">
<title>SVG Picture created as PINHOLDER03-F_Fab.svg date 2023/05/29 01:41:36 </title>
  <desc>Picture generated by PCBNEW </desc>
<g style="fill:#848484; fill-opacity:1.000000;stroke:#848484; stroke-opacity:1.000000; stroke-linecap:round; stroke-linejoin:round;" transform="translate(0 0) scale(1 1)">
</g>
<g style="fill:#848484; fill-opacity:0.0;  stroke:#848484; stroke-width:0.000000; stroke-opacity:1;  stroke-linecap:round; stroke-linejoin:round;">
</g>
<g style="fill:#848484; fill-opacity:0.01;  stroke:#848484; stroke-width:8840.688998; stroke-opacity:1;  stroke-linecap:round; stroke-linejoin:round;">
<text x="1971602.501072" y="1116871.588347" textLength="111380.068662" font-size="78583.882561" lengthAdjust="spacingAndGlyphs" text-anchor="middle" opacity="0.01" style="font-family:monospace">J1</text>
<g class="stroked-text"><desc>J1</desc>
<path d="M1991248 1055127 L1991248 1097225 L1994055 1105645 L1999668 1111258 L2008087 1114064 L2013701 1114064 "/>
<path d="M1932310 1114064 L1965989 1114064 "/>
<path d="M1949149 1114064 L1949149 1055127 L1954763 1063546 L1960376 1069159 L1965989 1071966 "/>
</g></g>
<g style="fill:#848484; fill-opacity:0.0;  stroke:#848484; stroke-width:22455.350056; stroke-opacity:1;  stroke-linecap:round; stroke-linejoin:round;">
<circle cx="2682629.648238" cy="451226.644706" r="176798.456104"/> 
<circle cx="287392.308978" cy="451226.644706" r="176798.456104"/> 
</g>
<g style="fill:#848484; fill-opacity:0.0;  stroke:#848484; stroke-width:5893.792666; stroke-opacity:1;  stroke-linecap:round; stroke-linejoin:round;">
<path d="M2140164 1162253 L2196156 1106262 "/>
<path d="M2196156 1106262 L2196156 1012551 "/>
<path d="M1803040 1237104 L1803040 1162253 "/>
<path d="M2140164 1162253 L2140164 1237104 "/>
<path d="M1747049 1012551 L1747049 1162253 "/>
<path d="M1840760 1162253 L1840760 1237104 "/>
<path d="M2196156 1012551 L1747049 1012551 "/>
<path d="M1840760 1237104 L1803040 1237104 "/>
<path d="M1990462 937700 L1952742 937700 "/>
<path d="M1747049 1162253 L2140164 1162253 "/>
<path d="M2140164 1237104 L2102444 1237104 "/>
<path d="M1990462 1012551 L1990462 937700 "/>
<path d="M2102444 1237104 L2102444 1162253 "/>
<path d="M1952742 937700 L1952742 1012551 "/>
</g>
<g style="fill:#848484; fill-opacity:0.0;  stroke:#848484; stroke-width:22455.350056; stroke-opacity:1;  stroke-linecap:round; stroke-linejoin:round;">
<circle cx="2682629.648238" cy="1648845.314336" r="176798.456104"/> 
<circle cx="287392.308978" cy="1648845.314336" r="176798.456104"/> 
<g>
</g>
<g>
</g>
<g>
</g>
<g>
</g>
<g>
</g>
<g>
</g>
<g>
</g>
<g>
</g>
<g>
</g>
<g>
</g>
<g>
</g>
<g>
</g>
</g> 
<svg:g><svg:g><svg:title>SVG Picture created as PINHOLDER03-Edge_Cuts.svg date 2023/05/29 01:41:36 </svg:title>
  <svg:desc>Picture generated by PCBNEW </svg:desc>
<svg:g style="fill:#C2C200; fill-opacity:1.000000;stroke:#C2C200; stroke-opacity:1.000000; stroke-linecap:round; stroke-linejoin:round;" transform="translate(0 0) scale(1 1)">
</svg:g>
<svg:g style="fill:#C2C200; fill-opacity:0.0;  stroke:#C2C200; stroke-width:0.000000; stroke-opacity:1;  stroke-linecap:round; stroke-linejoin:round;">
</svg:g>
<svg:g style="fill:#C2C200; fill-opacity:0.0;  stroke:#C2C200; stroke-width:5893.792666; stroke-opacity:1;  stroke-linecap:round; stroke-linejoin:round;">
<svg:path d="M2967064 1933279 L2957 1933279 "/>
<svg:path d="M2967064 166792 L2957 166792 "/>
<svg:path d="M2957 166792 L2957 1933279 "/>
<svg:path d="M2967064 1933279 L2967064 166792 "/>
<svg:g>
</svg:g>
<svg:g>
</svg:g>
<svg:g>
</svg:g>
<svg:g>
</svg:g>
<svg:g>
</svg:g>
<svg:g>
</svg:g>
<svg:g>
</svg:g>
<svg:g>
</svg:g>
<svg:g>
</svg:g>
<svg:g>
</svg:g>
<svg:g>
</svg:g>
<svg:g>
</svg:g>
</svg:g> 
</svg:g></svg:g></svg>
