<?xml version='1.0' encoding='ASCII' standalone='yes'?>
<svg xmlns:svg="http://www.w3.org/2000/svg" xmlns="http://www.w3.org/2000/svg" xmlns:xlink="http://www.w3.org/1999/xlink" version="1.1" width="297.0022mm" height="210.0072mm" viewBox="0.0000 0.0000 297.0022 210.0072">
<title>SVG Image created as PINHOLDER03-F_Fab.svg date 2023/07/05 15:13:40 </title>
  <desc>Image generated by PCBNEW </desc>
<g style="fill:#848484; fill-opacity:1.0000;stroke:#848484; stroke-opacity:1.0000; stroke-linecap:round; stroke-linejoin:round;" transform="translate(0 0) scale(1 1)">
</g>
<g style="fill:#848484; fill-opacity:0.0;  stroke:#848484; stroke-width:0.0000; stroke-opacity:1;  stroke-linecap:round; stroke-linejoin:round;">
</g>
<g style="fill:#848484; fill-opacity:0.01;  stroke:#848484; stroke-width:0.8841; stroke-opacity:1;  stroke-linecap:round; stroke-linejoin:round;">
<text x="197.1603" y="111.6872" textLength="11.1351" font-size="7.8584" lengthAdjust="spacingAndGlyphs" text-anchor="middle" opacity="0.01" style="font-family:monospace">J1</text>
<g class="stroked-text"><desc>J1</desc>
<path d="M199.1249 105.5271 L199.1249 109.7369 "/>
<path d="M199.1249 109.7369 L199.4055 110.5789 "/>
<path d="M199.4055 110.5789 L199.9668 111.1402 "/>
<path d="M199.9668 111.1402 L200.8088 111.4209 "/>
<path d="M200.8088 111.4209 L201.3701 111.4209 "/>
<path d="M193.2311 111.4209 L196.5989 111.4209 "/>
<path d="M194.9150 111.4209 L194.9150 105.5271 "/>
<path d="M194.9150 105.5271 L195.4763 106.3690 "/>
<path d="M195.4763 106.3690 L196.0376 106.9304 "/>
<path d="M196.0376 106.9304 L196.5989 107.2110 "/>
</g></g>
<g style="fill:#848484; fill-opacity:0.0;  stroke:#848484; stroke-width:2.2455; stroke-opacity:1;  stroke-linecap:round; stroke-linejoin:round;">
<circle cx="268.2630" cy="45.1227" r="17.6798"/> 
<circle cx="28.7392" cy="45.1227" r="17.6798"/> 
</g>
<g style="fill:#848484; fill-opacity:0.0;  stroke:#848484; stroke-width:0.5894; stroke-opacity:1;  stroke-linecap:round; stroke-linejoin:round;">
<path d="M214.0165 116.2254 L219.6156 110.6263 "/>
<path d="M219.6156 110.6263 L219.6156 101.2551 "/>
<path d="M180.3040 123.7105 L180.3040 116.2254 "/>
<path d="M214.0165 116.2254 L214.0165 123.7105 "/>
<path d="M174.7049 101.2551 L174.7049 116.2254 "/>
<path d="M184.0760 116.2254 L184.0760 123.7105 "/>
<path d="M219.6156 101.2551 L174.7049 101.2551 "/>
<path d="M184.0760 123.7105 L180.3040 123.7105 "/>
<path d="M199.0463 93.7700 L195.2742 93.7700 "/>
<path d="M174.7049 116.2254 L214.0165 116.2254 "/>
<path d="M214.0165 123.7105 L210.2445 123.7105 "/>
<path d="M199.0463 101.2551 L199.0463 93.7700 "/>
<path d="M210.2445 123.7105 L210.2445 116.2254 "/>
<path d="M195.2742 93.7700 L195.2742 101.2551 "/>
</g>
<g style="fill:#848484; fill-opacity:0.0;  stroke:#848484; stroke-width:2.2455; stroke-opacity:1;  stroke-linecap:round; stroke-linejoin:round;">
<circle cx="268.2630" cy="164.8845" r="17.6798"/> 
<circle cx="28.7392" cy="164.8845" r="17.6798"/> 
<g>
</g>
<g>
</g>
<g>
</g>
<g>
</g>
<g>
</g>
<g>
</g>
<g>
</g>
<g>
</g>
<g>
</g>
<g>
</g>
<g>
</g>
<g>
</g>
</g> 
<svg:g><svg:g><svg:title>SVG Image created as PINHOLDER03-Edge_Cuts.svg date 2023/07/05 15:13:40 </svg:title>
  <svg:desc>Image generated by PCBNEW </svg:desc>
<svg:g style="fill:#C2C200; fill-opacity:1.0000;stroke:#C2C200; stroke-opacity:1.0000; stroke-linecap:round; stroke-linejoin:round;" transform="translate(0 0) scale(1 1)">
</svg:g>
<svg:g style="fill:#C2C200; fill-opacity:0.0;  stroke:#C2C200; stroke-width:0.0000; stroke-opacity:1;  stroke-linecap:round; stroke-linejoin:round;">
</svg:g>
<svg:g style="fill:#C2C200; fill-opacity:0.0;  stroke:#C2C200; stroke-width:0.5894; stroke-opacity:1;  stroke-linecap:round; stroke-linejoin:round;">
<svg:path d="M296.7064 193.3280 L0.2958 193.3280 "/>
<svg:path d="M296.7064 16.6792 L0.2958 16.6792 "/>
<svg:path d="M0.2958 16.6792 L0.2958 193.3280 "/>
<svg:path d="M296.7064 193.3280 L296.7064 16.6792 "/>
<svg:g>
</svg:g>
<svg:g>
</svg:g>
<svg:g>
</svg:g>
<svg:g>
</svg:g>
<svg:g>
</svg:g>
<svg:g>
</svg:g>
<svg:g>
</svg:g>
<svg:g>
</svg:g>
<svg:g>
</svg:g>
<svg:g>
</svg:g>
<svg:g>
</svg:g>
<svg:g>
</svg:g>
</svg:g> 
</svg:g></svg:g></svg>
