%TF.GenerationSoftware,KiCad,Pcbnew,7.0.5.1-1-g8f565ef7f0-dirty-deb11*%
%TF.CreationDate,2023-07-05T15:12:21+00:00*%
%TF.ProjectId,PINHOLDER03,50494e48-4f4c-4444-9552-30332e6b6963,02A*%
%TF.SameCoordinates,Original*%
%TF.FileFunction,Copper,L1,Top*%
%TF.FilePolarity,Positive*%
%FSLAX46Y46*%
G04 Gerber Fmt 4.6, Leading zero omitted, Abs format (unit mm)*
G04 Created by KiCad (PCBNEW 7.0.5.1-1-g8f565ef7f0-dirty-deb11) date 2023-07-05 15:12:21*
%MOMM*%
%LPD*%
G01*
G04 APERTURE LIST*
%ADD10C,0.300000*%
%TA.AperFunction,NonConductor*%
%ADD11C,0.300000*%
%TD*%
%TA.AperFunction,ComponentPad*%
%ADD12C,6.000000*%
%TD*%
%TA.AperFunction,SMDPad,CuDef*%
%ADD13R,1.000000X2.510000*%
%TD*%
%TA.AperFunction,ComponentPad*%
%ADD14R,1.524000X1.524000*%
%TD*%
%TA.AperFunction,ViaPad*%
%ADD15C,0.800000*%
%TD*%
%TA.AperFunction,Conductor*%
%ADD16C,0.400000*%
%TD*%
G04 APERTURE END LIST*
D10*
D11*
X5163999Y-23672328D02*
X5163999Y-22172328D01*
X5163999Y-22172328D02*
X5663999Y-23243757D01*
X5663999Y-23243757D02*
X6163999Y-22172328D01*
X6163999Y-22172328D02*
X6163999Y-23672328D01*
X7592571Y-23672328D02*
X6878285Y-23672328D01*
X6878285Y-23672328D02*
X6878285Y-22172328D01*
X8021143Y-23243757D02*
X8735429Y-23243757D01*
X7878286Y-23672328D02*
X8378286Y-22172328D01*
X8378286Y-22172328D02*
X8878286Y-23672328D01*
X9878285Y-22886614D02*
X10092571Y-22958042D01*
X10092571Y-22958042D02*
X10164000Y-23029471D01*
X10164000Y-23029471D02*
X10235428Y-23172328D01*
X10235428Y-23172328D02*
X10235428Y-23386614D01*
X10235428Y-23386614D02*
X10164000Y-23529471D01*
X10164000Y-23529471D02*
X10092571Y-23600900D01*
X10092571Y-23600900D02*
X9949714Y-23672328D01*
X9949714Y-23672328D02*
X9378285Y-23672328D01*
X9378285Y-23672328D02*
X9378285Y-22172328D01*
X9378285Y-22172328D02*
X9878285Y-22172328D01*
X9878285Y-22172328D02*
X10021143Y-22243757D01*
X10021143Y-22243757D02*
X10092571Y-22315185D01*
X10092571Y-22315185D02*
X10164000Y-22458042D01*
X10164000Y-22458042D02*
X10164000Y-22600900D01*
X10164000Y-22600900D02*
X10092571Y-22743757D01*
X10092571Y-22743757D02*
X10021143Y-22815185D01*
X10021143Y-22815185D02*
X9878285Y-22886614D01*
X9878285Y-22886614D02*
X9378285Y-22886614D01*
D12*
%TO.P,M3,1*%
%TO.N,GND*%
X0Y0D03*
%TD*%
%TO.P,M2,1*%
%TO.N,GND*%
X40640000Y0D03*
%TD*%
D13*
%TO.P,J1,1*%
%TO.N,/circle_0*%
X9524000Y-12449000D03*
%TO.P,J1,2*%
%TO.N,GND*%
X12064000Y-9139000D03*
%TO.P,J1,3*%
%TO.N,Net-(D2-Pad2)*%
X14604000Y-12449000D03*
%TD*%
D12*
%TO.P,M4,1*%
%TO.N,GND*%
X0Y-20320000D03*
%TD*%
%TO.P,M1,1*%
%TO.N,GND*%
X40640000Y-20320000D03*
%TD*%
D14*
%TO.P,J2,1*%
%TO.N,GND*%
X-810000Y-5950000D03*
%TO.P,J2,2*%
%TO.N,Net-(D1-Pad2)*%
X-810000Y-8490000D03*
%TD*%
D15*
%TO.N,/circle_0*%
X18290000Y-8170000D03*
%TO.N,Net-(D2-Pad2)*%
X5540000Y-16120000D03*
%TD*%
D16*
%TO.N,/circle_0*%
X9295000Y-12220000D02*
X9524000Y-12449000D01*
X18290000Y-7220000D02*
X18290000Y-8170000D01*
X9524000Y-7286000D02*
X11290000Y-5520000D01*
X9524000Y-12449000D02*
X9524000Y-7286000D01*
X16590000Y-5520000D02*
X18290000Y-7220000D01*
X11290000Y-5520000D02*
X16590000Y-5520000D01*
%TO.N,Net-(D2-Pad2)*%
X14604000Y-12449000D02*
X14604000Y-13156000D01*
X11640000Y-16120000D02*
X5540000Y-16120000D01*
X14604000Y-12449000D02*
X14861600Y-12191400D01*
X14604000Y-13156000D02*
X11640000Y-16120000D01*
%TD*%
%TA.AperFunction,Conductor*%
%TO.N,GND*%
G36*
X45352843Y4805793D02*
G01*
X45422084Y4750574D01*
X45460511Y4670782D01*
X45465500Y4626500D01*
X45465500Y-24946500D01*
X45445793Y-25032843D01*
X45390574Y-25102084D01*
X45310782Y-25140511D01*
X45266500Y-25145500D01*
X-4626500Y-25145500D01*
X-4712843Y-25125793D01*
X-4782084Y-25070574D01*
X-4820511Y-24990782D01*
X-4825500Y-24946500D01*
X-4825500Y-21254214D01*
X3967071Y-21254214D01*
X3967071Y-24733786D01*
X11360929Y-24733786D01*
X11360929Y-21254214D01*
X3967071Y-21254214D01*
X-4825500Y-21254214D01*
X-4825500Y-16120000D01*
X4734435Y-16120000D01*
X4754632Y-16299255D01*
X4754632Y-16299257D01*
X4754633Y-16299258D01*
X4814210Y-16469520D01*
X4814210Y-16469521D01*
X4910187Y-16622266D01*
X5037733Y-16749812D01*
X5037735Y-16749813D01*
X5037738Y-16749816D01*
X5190478Y-16845789D01*
X5360745Y-16905368D01*
X5540000Y-16925565D01*
X5719255Y-16905368D01*
X5889522Y-16845789D01*
X6040375Y-16751001D01*
X6123968Y-16721751D01*
X6146249Y-16720500D01*
X11594107Y-16720500D01*
X11607107Y-16721352D01*
X11619873Y-16723032D01*
X11640000Y-16725682D01*
X11796762Y-16705044D01*
X11942841Y-16644536D01*
X11971869Y-16622262D01*
X12068282Y-16548282D01*
X12088486Y-16521950D01*
X12097060Y-16512173D01*
X14446448Y-14162785D01*
X14521438Y-14115666D01*
X14587163Y-14104499D01*
X15135518Y-14104499D01*
X15229304Y-14089646D01*
X15342342Y-14032050D01*
X15432050Y-13942342D01*
X15489646Y-13829304D01*
X15504500Y-13735519D01*
X15504499Y-11162482D01*
X15489646Y-11068696D01*
X15432050Y-10955658D01*
X15432049Y-10955657D01*
X15432048Y-10955655D01*
X15342342Y-10865949D01*
X15229307Y-10808355D01*
X15229304Y-10808354D01*
X15229302Y-10808353D01*
X15229300Y-10808353D01*
X15163818Y-10797982D01*
X15135519Y-10793500D01*
X15135518Y-10793500D01*
X14072481Y-10793500D01*
X13978696Y-10808354D01*
X13978694Y-10808354D01*
X13865655Y-10865951D01*
X13775949Y-10955657D01*
X13718355Y-11068692D01*
X13718353Y-11068699D01*
X13703500Y-11162481D01*
X13703500Y-13124836D01*
X13683793Y-13211179D01*
X13645214Y-13265550D01*
X11449551Y-15461214D01*
X11374563Y-15508333D01*
X11308837Y-15519500D01*
X6146249Y-15519500D01*
X6059906Y-15499793D01*
X6040374Y-15488998D01*
X5996156Y-15461214D01*
X5971742Y-15445873D01*
X5889521Y-15394210D01*
X5719258Y-15334633D01*
X5719257Y-15334632D01*
X5719255Y-15334632D01*
X5540000Y-15314435D01*
X5360745Y-15334632D01*
X5360742Y-15334632D01*
X5360741Y-15334633D01*
X5190479Y-15394210D01*
X5190478Y-15394210D01*
X5037733Y-15490187D01*
X4910187Y-15617733D01*
X4814210Y-15770478D01*
X4814210Y-15770479D01*
X4754633Y-15940741D01*
X4754632Y-15940745D01*
X4734435Y-16120000D01*
X-4825500Y-16120000D01*
X-4825500Y-13735518D01*
X8623500Y-13735518D01*
X8636323Y-13816480D01*
X8638353Y-13829300D01*
X8638354Y-13829303D01*
X8638354Y-13829305D01*
X8695951Y-13942344D01*
X8785657Y-14032050D01*
X8898692Y-14089644D01*
X8898696Y-14089646D01*
X8992481Y-14104500D01*
X10055518Y-14104499D01*
X10149304Y-14089646D01*
X10262342Y-14032050D01*
X10352050Y-13942342D01*
X10409646Y-13829304D01*
X10424500Y-13735519D01*
X10424499Y-11162482D01*
X10409646Y-11068696D01*
X10352050Y-10955658D01*
X10352049Y-10955657D01*
X10352048Y-10955655D01*
X10262343Y-10865950D01*
X10262341Y-10865949D01*
X10233154Y-10851077D01*
X10165169Y-10794319D01*
X10128544Y-10713683D01*
X10124500Y-10673768D01*
X10124500Y-9393000D01*
X11034000Y-9393000D01*
X11034000Y-10435500D01*
X11044227Y-10520662D01*
X11097674Y-10656197D01*
X11097679Y-10656205D01*
X11185709Y-10772289D01*
X11185710Y-10772290D01*
X11301794Y-10860320D01*
X11301802Y-10860325D01*
X11437337Y-10913772D01*
X11522500Y-10924000D01*
X11810000Y-10924000D01*
X11810000Y-9393000D01*
X12318000Y-9393000D01*
X12318000Y-10924000D01*
X12605500Y-10924000D01*
X12690662Y-10913772D01*
X12826197Y-10860325D01*
X12826205Y-10860320D01*
X12942289Y-10772290D01*
X12942290Y-10772289D01*
X13030320Y-10656205D01*
X13030325Y-10656197D01*
X13083772Y-10520662D01*
X13094000Y-10435500D01*
X13094000Y-9393000D01*
X12318000Y-9393000D01*
X11810000Y-9393000D01*
X11034000Y-9393000D01*
X10124500Y-9393000D01*
X10124500Y-8885000D01*
X11034000Y-8885000D01*
X11810000Y-8885000D01*
X11810000Y-7354000D01*
X12318000Y-7354000D01*
X12318000Y-8885000D01*
X13094000Y-8885000D01*
X13094000Y-7842499D01*
X13083772Y-7757337D01*
X13030325Y-7621802D01*
X13030320Y-7621794D01*
X12942290Y-7505710D01*
X12942289Y-7505709D01*
X12826205Y-7417679D01*
X12826197Y-7417674D01*
X12690662Y-7364227D01*
X12605500Y-7354000D01*
X12318000Y-7354000D01*
X11810000Y-7354000D01*
X11522500Y-7354000D01*
X11437337Y-7364227D01*
X11301802Y-7417674D01*
X11301794Y-7417679D01*
X11185710Y-7505709D01*
X11185709Y-7505710D01*
X11097679Y-7621794D01*
X11097674Y-7621802D01*
X11044227Y-7757337D01*
X11034000Y-7842499D01*
X11034000Y-8885000D01*
X10124500Y-8885000D01*
X10124500Y-7617162D01*
X10144207Y-7530819D01*
X10182783Y-7476451D01*
X11480448Y-6178786D01*
X11555438Y-6131667D01*
X11621163Y-6120500D01*
X16258837Y-6120500D01*
X16345180Y-6140207D01*
X16399551Y-6178786D01*
X17631214Y-7410449D01*
X17678333Y-7485437D01*
X17689500Y-7551163D01*
X17689500Y-7563750D01*
X17669793Y-7650093D01*
X17658998Y-7669624D01*
X17564213Y-7820473D01*
X17564210Y-7820479D01*
X17504633Y-7990741D01*
X17504632Y-7990745D01*
X17484435Y-8170000D01*
X17504632Y-8349255D01*
X17504632Y-8349257D01*
X17504633Y-8349258D01*
X17564210Y-8519520D01*
X17564210Y-8519521D01*
X17660187Y-8672266D01*
X17787733Y-8799812D01*
X17787735Y-8799813D01*
X17787738Y-8799816D01*
X17940478Y-8895789D01*
X18110745Y-8955368D01*
X18290000Y-8975565D01*
X18469255Y-8955368D01*
X18639522Y-8895789D01*
X18792262Y-8799816D01*
X18919816Y-8672262D01*
X19015789Y-8519522D01*
X19075368Y-8349255D01*
X19095565Y-8170000D01*
X19075368Y-7990745D01*
X19015789Y-7820478D01*
X18921001Y-7669624D01*
X18891751Y-7586032D01*
X18890500Y-7563751D01*
X18890500Y-7265893D01*
X18891352Y-7252893D01*
X18892866Y-7241384D01*
X18895682Y-7220000D01*
X18875044Y-7063238D01*
X18814536Y-6917159D01*
X18814536Y-6917158D01*
X18742449Y-6823214D01*
X18718280Y-6791716D01*
X18705384Y-6781821D01*
X18691959Y-6771520D01*
X18682167Y-6762932D01*
X17047070Y-5127835D01*
X17038482Y-5118044D01*
X17018282Y-5091718D01*
X16978689Y-5061337D01*
X16892843Y-4995464D01*
X16892840Y-4995463D01*
X16746764Y-4934957D01*
X16746765Y-4934957D01*
X16746762Y-4934956D01*
X16746759Y-4934955D01*
X16746754Y-4934954D01*
X16629365Y-4919499D01*
X16629363Y-4919500D01*
X16603120Y-4916045D01*
X16590000Y-4914318D01*
X16589999Y-4914318D01*
X16557107Y-4918648D01*
X16544107Y-4919500D01*
X11335893Y-4919500D01*
X11322893Y-4918648D01*
X11290000Y-4914318D01*
X11250637Y-4919500D01*
X11250636Y-4919499D01*
X11133245Y-4934954D01*
X11133235Y-4934957D01*
X10987159Y-4995463D01*
X10987152Y-4995467D01*
X10861719Y-5091715D01*
X10841515Y-5118044D01*
X10832926Y-5127837D01*
X9131837Y-6828926D01*
X9122044Y-6837515D01*
X9095717Y-6857718D01*
X8986243Y-7000386D01*
X8982407Y-7024313D01*
X8981707Y-7026026D01*
X8938956Y-7129236D01*
X8938956Y-7129237D01*
X8918318Y-7286001D01*
X8922648Y-7318893D01*
X8923500Y-7331893D01*
X8923500Y-10673768D01*
X8903793Y-10760111D01*
X8848574Y-10829352D01*
X8814846Y-10851077D01*
X8785658Y-10865949D01*
X8785656Y-10865950D01*
X8695949Y-10955657D01*
X8638355Y-11068692D01*
X8638353Y-11068699D01*
X8623500Y-11162481D01*
X8623500Y-13735518D01*
X-4825500Y-13735518D01*
X-4825500Y-6753500D01*
X-2102000Y-6753500D01*
X-2091773Y-6838662D01*
X-2038326Y-6974197D01*
X-2038321Y-6974205D01*
X-1950292Y-7090288D01*
X-1876436Y-7146296D01*
X-1819546Y-7214171D01*
X-1797740Y-7300008D01*
X-1815337Y-7386805D01*
X-1855965Y-7445572D01*
X-1900051Y-7489658D01*
X-1957645Y-7602692D01*
X-1957647Y-7602699D01*
X-1972500Y-7696481D01*
X-1972500Y-9283518D01*
X-1959677Y-9364480D01*
X-1957647Y-9377300D01*
X-1957646Y-9377303D01*
X-1957646Y-9377305D01*
X-1900049Y-9490344D01*
X-1810343Y-9580050D01*
X-1697308Y-9637644D01*
X-1697304Y-9637646D01*
X-1603519Y-9652500D01*
X-16482Y-9652499D01*
X77304Y-9637646D01*
X190342Y-9580050D01*
X280050Y-9490342D01*
X337646Y-9377304D01*
X352500Y-9283519D01*
X352499Y-7696482D01*
X337646Y-7602696D01*
X280050Y-7489658D01*
X280049Y-7489657D01*
X280048Y-7489655D01*
X235966Y-7445573D01*
X188847Y-7370585D01*
X178931Y-7282578D01*
X208182Y-7198985D01*
X256436Y-7146295D01*
X330291Y-7090287D01*
X418320Y-6974205D01*
X418325Y-6974197D01*
X471772Y-6838662D01*
X482000Y-6753500D01*
X482000Y-6204000D01*
X-443382Y-6204000D01*
X-391553Y-6114228D01*
X-361736Y-5983593D01*
X-371749Y-5849972D01*
X-420703Y-5725240D01*
X-444021Y-5696000D01*
X482000Y-5696000D01*
X482000Y-5146499D01*
X471772Y-5061337D01*
X418325Y-4925802D01*
X418320Y-4925794D01*
X330290Y-4809710D01*
X330289Y-4809709D01*
X214205Y-4721679D01*
X214197Y-4721674D01*
X78662Y-4668227D01*
X-6500Y-4658000D01*
X-556000Y-4658000D01*
X-556000Y-5585194D01*
X-614960Y-5544996D01*
X-743002Y-5505500D01*
X-843312Y-5505500D01*
X-942499Y-5520450D01*
X-1063224Y-5578588D01*
X-1064000Y-5579308D01*
X-1064000Y-4658000D01*
X-1613500Y-4658000D01*
X-1698663Y-4668227D01*
X-1834198Y-4721674D01*
X-1834206Y-4721679D01*
X-1950290Y-4809709D01*
X-1950291Y-4809710D01*
X-2038321Y-4925794D01*
X-2038326Y-4925802D01*
X-2091773Y-5061337D01*
X-2102000Y-5146499D01*
X-2102000Y-5696000D01*
X-1176618Y-5696000D01*
X-1228447Y-5785772D01*
X-1258264Y-5916407D01*
X-1248251Y-6050028D01*
X-1199297Y-6174760D01*
X-1175979Y-6204000D01*
X-2102000Y-6204000D01*
X-2102000Y-6753500D01*
X-4825500Y-6753500D01*
X-4825500Y4626500D01*
X-4805793Y4712843D01*
X-4750574Y4782084D01*
X-4670782Y4820511D01*
X-4626500Y4825500D01*
X45266500Y4825500D01*
X45352843Y4805793D01*
G37*
%TD.AperFunction*%
%TD*%
M02*
